<?xml version="1.0" encoding="utf-8"?>
<svg xmlns="http://www.w3.org/2000/svg" xmlns:xlink="http://www.w3.org/1999/xlink" width="600" height="400" viewBox="0 0 2400 1600">
<defs>
  <clipPath id="clip500">
    <rect x="0" y="0" width="2400" height="1600"/>
  </clipPath>
</defs>
<path clip-path="url(#clip500)" d="M0 1600 L2400 1600 L2400 0 L0 0  Z" fill="#ffffff" fill-rule="evenodd" fill-opacity="1"/>
<defs>
  <clipPath id="clip501">
    <rect x="316" y="106" width="2037" height="1318"/>
  </clipPath>
</defs>
<path clip-path="url(#clip500)" d="M316.532 1423.18 L2352.76 1423.18 L2352.76 106.192 L316.532 106.192  Z" fill="#ffffff" fill-rule="evenodd" fill-opacity="1"/>
<polyline clip-path="url(#clip501)" style="stroke:#000000; stroke-linecap:round; stroke-linejoin:round; stroke-width:2; stroke-opacity:0.1; fill:none" points="520.155,1423.18 520.155,106.192 "/>
<polyline clip-path="url(#clip501)" style="stroke:#000000; stroke-linecap:round; stroke-linejoin:round; stroke-width:2; stroke-opacity:0.1; fill:none" points="927.399,1423.18 927.399,106.192 "/>
<polyline clip-path="url(#clip501)" style="stroke:#000000; stroke-linecap:round; stroke-linejoin:round; stroke-width:2; stroke-opacity:0.1; fill:none" points="1334.64,1423.18 1334.64,106.192 "/>
<polyline clip-path="url(#clip501)" style="stroke:#000000; stroke-linecap:round; stroke-linejoin:round; stroke-width:2; stroke-opacity:0.1; fill:none" points="1741.89,1423.18 1741.89,106.192 "/>
<polyline clip-path="url(#clip501)" style="stroke:#000000; stroke-linecap:round; stroke-linejoin:round; stroke-width:2; stroke-opacity:0.1; fill:none" points="2149.13,1423.18 2149.13,106.192 "/>
<polyline clip-path="url(#clip501)" style="stroke:#000000; stroke-linecap:round; stroke-linejoin:round; stroke-width:2; stroke-opacity:0.1; fill:none" points="316.532,1344.36 2352.76,1344.36 "/>
<polyline clip-path="url(#clip501)" style="stroke:#000000; stroke-linecap:round; stroke-linejoin:round; stroke-width:2; stroke-opacity:0.1; fill:none" points="316.532,1133.38 2352.76,1133.38 "/>
<polyline clip-path="url(#clip501)" style="stroke:#000000; stroke-linecap:round; stroke-linejoin:round; stroke-width:2; stroke-opacity:0.1; fill:none" points="316.532,922.395 2352.76,922.395 "/>
<polyline clip-path="url(#clip501)" style="stroke:#000000; stroke-linecap:round; stroke-linejoin:round; stroke-width:2; stroke-opacity:0.1; fill:none" points="316.532,711.412 2352.76,711.412 "/>
<polyline clip-path="url(#clip501)" style="stroke:#000000; stroke-linecap:round; stroke-linejoin:round; stroke-width:2; stroke-opacity:0.1; fill:none" points="316.532,500.43 2352.76,500.43 "/>
<polyline clip-path="url(#clip501)" style="stroke:#000000; stroke-linecap:round; stroke-linejoin:round; stroke-width:2; stroke-opacity:0.1; fill:none" points="316.532,289.447 2352.76,289.447 "/>
<polyline clip-path="url(#clip500)" style="stroke:#000000; stroke-linecap:round; stroke-linejoin:round; stroke-width:4; stroke-opacity:1; fill:none" points="316.532,1423.18 2352.76,1423.18 "/>
<polyline clip-path="url(#clip500)" style="stroke:#000000; stroke-linecap:round; stroke-linejoin:round; stroke-width:4; stroke-opacity:1; fill:none" points="520.155,1423.18 520.155,1404.28 "/>
<polyline clip-path="url(#clip500)" style="stroke:#000000; stroke-linecap:round; stroke-linejoin:round; stroke-width:4; stroke-opacity:1; fill:none" points="927.399,1423.18 927.399,1404.28 "/>
<polyline clip-path="url(#clip500)" style="stroke:#000000; stroke-linecap:round; stroke-linejoin:round; stroke-width:4; stroke-opacity:1; fill:none" points="1334.64,1423.18 1334.64,1404.28 "/>
<polyline clip-path="url(#clip500)" style="stroke:#000000; stroke-linecap:round; stroke-linejoin:round; stroke-width:4; stroke-opacity:1; fill:none" points="1741.89,1423.18 1741.89,1404.28 "/>
<polyline clip-path="url(#clip500)" style="stroke:#000000; stroke-linecap:round; stroke-linejoin:round; stroke-width:4; stroke-opacity:1; fill:none" points="2149.13,1423.18 2149.13,1404.28 "/>
<path clip-path="url(#clip500)" d="M467.481 1468.75 L497.157 1468.75 L497.157 1472.69 L467.481 1472.69 L467.481 1468.75 Z" fill="#000000" fill-rule="nonzero" fill-opacity="1" /><path clip-path="url(#clip500)" d="M517.25 1454.1 Q513.639 1454.1 511.81 1457.66 Q510.004 1461.2 510.004 1468.33 Q510.004 1475.44 511.81 1479.01 Q513.639 1482.55 517.25 1482.55 Q520.884 1482.55 522.689 1479.01 Q524.518 1475.44 524.518 1468.33 Q524.518 1461.2 522.689 1457.66 Q520.884 1454.1 517.25 1454.1 M517.25 1450.39 Q523.06 1450.39 526.115 1455 Q529.194 1459.58 529.194 1468.33 Q529.194 1477.06 526.115 1481.67 Q523.06 1486.25 517.25 1486.25 Q511.44 1486.25 508.361 1481.67 Q505.305 1477.06 505.305 1468.33 Q505.305 1459.58 508.361 1455 Q511.44 1450.39 517.25 1450.39 Z" fill="#000000" fill-rule="nonzero" fill-opacity="1" /><path clip-path="url(#clip500)" d="M537.412 1479.7 L542.296 1479.7 L542.296 1485.58 L537.412 1485.58 L537.412 1479.7 Z" fill="#000000" fill-rule="nonzero" fill-opacity="1" /><path clip-path="url(#clip500)" d="M556.509 1481.64 L572.828 1481.64 L572.828 1485.58 L550.884 1485.58 L550.884 1481.64 Q553.546 1478.89 558.129 1474.26 Q562.736 1469.61 563.916 1468.27 Q566.161 1465.74 567.041 1464.01 Q567.944 1462.25 567.944 1460.56 Q567.944 1457.8 565.999 1456.07 Q564.078 1454.33 560.976 1454.33 Q558.777 1454.33 556.324 1455.09 Q553.893 1455.86 551.115 1457.41 L551.115 1452.69 Q553.939 1451.55 556.393 1450.97 Q558.847 1450.39 560.884 1450.39 Q566.254 1450.39 569.448 1453.08 Q572.643 1455.77 572.643 1460.26 Q572.643 1462.39 571.833 1464.31 Q571.046 1466.2 568.939 1468.8 Q568.361 1469.47 565.259 1472.69 Q562.157 1475.88 556.509 1481.64 Z" fill="#000000" fill-rule="nonzero" fill-opacity="1" /><path clip-path="url(#clip500)" d="M874.541 1468.75 L904.217 1468.75 L904.217 1472.69 L874.541 1472.69 L874.541 1468.75 Z" fill="#000000" fill-rule="nonzero" fill-opacity="1" /><path clip-path="url(#clip500)" d="M924.309 1454.1 Q920.698 1454.1 918.869 1457.66 Q917.064 1461.2 917.064 1468.33 Q917.064 1475.44 918.869 1479.01 Q920.698 1482.55 924.309 1482.55 Q927.943 1482.55 929.749 1479.01 Q931.578 1475.44 931.578 1468.33 Q931.578 1461.2 929.749 1457.66 Q927.943 1454.1 924.309 1454.1 M924.309 1450.39 Q930.119 1450.39 933.175 1455 Q936.254 1459.58 936.254 1468.33 Q936.254 1477.06 933.175 1481.67 Q930.119 1486.25 924.309 1486.25 Q918.499 1486.25 915.42 1481.67 Q912.365 1477.06 912.365 1468.33 Q912.365 1459.58 915.42 1455 Q918.499 1450.39 924.309 1450.39 Z" fill="#000000" fill-rule="nonzero" fill-opacity="1" /><path clip-path="url(#clip500)" d="M944.471 1479.7 L949.355 1479.7 L949.355 1485.58 L944.471 1485.58 L944.471 1479.7 Z" fill="#000000" fill-rule="nonzero" fill-opacity="1" /><path clip-path="url(#clip500)" d="M960.351 1481.64 L967.99 1481.64 L967.99 1455.28 L959.679 1456.95 L959.679 1452.69 L967.943 1451.02 L972.619 1451.02 L972.619 1481.64 L980.258 1481.64 L980.258 1485.58 L960.351 1485.58 L960.351 1481.64 Z" fill="#000000" fill-rule="nonzero" fill-opacity="1" /><path clip-path="url(#clip500)" d="M1312.03 1454.1 Q1308.42 1454.1 1306.59 1457.66 Q1304.78 1461.2 1304.78 1468.33 Q1304.78 1475.44 1306.59 1479.01 Q1308.42 1482.55 1312.03 1482.55 Q1315.66 1482.55 1317.47 1479.01 Q1319.3 1475.44 1319.3 1468.33 Q1319.3 1461.2 1317.47 1457.66 Q1315.66 1454.1 1312.03 1454.1 M1312.03 1450.39 Q1317.84 1450.39 1320.89 1455 Q1323.97 1459.58 1323.97 1468.33 Q1323.97 1477.06 1320.89 1481.67 Q1317.84 1486.25 1312.03 1486.25 Q1306.22 1486.25 1303.14 1481.67 Q1300.08 1477.06 1300.08 1468.33 Q1300.08 1459.58 1303.14 1455 Q1306.22 1450.39 1312.03 1450.39 Z" fill="#000000" fill-rule="nonzero" fill-opacity="1" /><path clip-path="url(#clip500)" d="M1332.19 1479.7 L1337.07 1479.7 L1337.07 1485.58 L1332.19 1485.58 L1332.19 1479.7 Z" fill="#000000" fill-rule="nonzero" fill-opacity="1" /><path clip-path="url(#clip500)" d="M1357.26 1454.1 Q1353.65 1454.1 1351.82 1457.66 Q1350.01 1461.2 1350.01 1468.33 Q1350.01 1475.44 1351.82 1479.01 Q1353.65 1482.55 1357.26 1482.55 Q1360.89 1482.55 1362.7 1479.01 Q1364.53 1475.44 1364.53 1468.33 Q1364.53 1461.2 1362.7 1457.66 Q1360.89 1454.1 1357.26 1454.1 M1357.26 1450.39 Q1363.07 1450.39 1366.13 1455 Q1369.2 1459.58 1369.2 1468.33 Q1369.2 1477.06 1366.13 1481.67 Q1363.07 1486.25 1357.26 1486.25 Q1351.45 1486.25 1348.37 1481.67 Q1345.32 1477.06 1345.32 1468.33 Q1345.32 1459.58 1348.37 1455 Q1351.45 1450.39 1357.26 1450.39 Z" fill="#000000" fill-rule="nonzero" fill-opacity="1" /><path clip-path="url(#clip500)" d="M1719.89 1454.1 Q1716.28 1454.1 1714.45 1457.66 Q1712.64 1461.2 1712.64 1468.33 Q1712.64 1475.44 1714.45 1479.01 Q1716.28 1482.55 1719.89 1482.55 Q1723.52 1482.55 1725.33 1479.01 Q1727.16 1475.44 1727.16 1468.33 Q1727.16 1461.2 1725.33 1457.66 Q1723.52 1454.1 1719.89 1454.1 M1719.89 1450.39 Q1725.7 1450.39 1728.75 1455 Q1731.83 1459.58 1731.83 1468.33 Q1731.83 1477.06 1728.75 1481.67 Q1725.7 1486.25 1719.89 1486.25 Q1714.08 1486.25 1711 1481.67 Q1707.94 1477.06 1707.94 1468.33 Q1707.94 1459.58 1711 1455 Q1714.08 1450.39 1719.89 1450.39 Z" fill="#000000" fill-rule="nonzero" fill-opacity="1" /><path clip-path="url(#clip500)" d="M1740.05 1479.7 L1744.93 1479.7 L1744.93 1485.58 L1740.05 1485.58 L1740.05 1479.7 Z" fill="#000000" fill-rule="nonzero" fill-opacity="1" /><path clip-path="url(#clip500)" d="M1755.93 1481.64 L1763.57 1481.64 L1763.57 1455.28 L1755.26 1456.95 L1755.26 1452.69 L1763.52 1451.02 L1768.2 1451.02 L1768.2 1481.64 L1775.84 1481.64 L1775.84 1485.58 L1755.93 1485.58 L1755.93 1481.64 Z" fill="#000000" fill-rule="nonzero" fill-opacity="1" /><path clip-path="url(#clip500)" d="M2127.32 1454.1 Q2123.71 1454.1 2121.88 1457.66 Q2120.07 1461.2 2120.07 1468.33 Q2120.07 1475.44 2121.88 1479.01 Q2123.71 1482.55 2127.32 1482.55 Q2130.95 1482.55 2132.76 1479.01 Q2134.59 1475.44 2134.59 1468.33 Q2134.59 1461.2 2132.76 1457.66 Q2130.95 1454.1 2127.32 1454.1 M2127.32 1450.39 Q2133.13 1450.39 2136.18 1455 Q2139.26 1459.58 2139.26 1468.33 Q2139.26 1477.06 2136.18 1481.67 Q2133.13 1486.25 2127.32 1486.25 Q2121.51 1486.25 2118.43 1481.67 Q2115.37 1477.06 2115.37 1468.33 Q2115.37 1459.58 2118.43 1455 Q2121.51 1450.39 2127.32 1450.39 Z" fill="#000000" fill-rule="nonzero" fill-opacity="1" /><path clip-path="url(#clip500)" d="M2147.48 1479.7 L2152.36 1479.7 L2152.36 1485.58 L2147.48 1485.58 L2147.48 1479.7 Z" fill="#000000" fill-rule="nonzero" fill-opacity="1" /><path clip-path="url(#clip500)" d="M2166.58 1481.64 L2182.89 1481.64 L2182.89 1485.58 L2160.95 1485.58 L2160.95 1481.64 Q2163.61 1478.89 2168.2 1474.26 Q2172.8 1469.61 2173.98 1468.27 Q2176.23 1465.74 2177.11 1464.01 Q2178.01 1462.25 2178.01 1460.56 Q2178.01 1457.8 2176.07 1456.07 Q2174.14 1454.33 2171.04 1454.33 Q2168.84 1454.33 2166.39 1455.09 Q2163.96 1455.86 2161.18 1457.41 L2161.18 1452.69 Q2164.01 1451.55 2166.46 1450.97 Q2168.91 1450.39 2170.95 1450.39 Q2176.32 1450.39 2179.52 1453.08 Q2182.71 1455.77 2182.71 1460.26 Q2182.71 1462.39 2181.9 1464.31 Q2181.11 1466.2 2179.01 1468.8 Q2178.43 1469.47 2175.33 1472.69 Q2172.22 1475.88 2166.58 1481.64 Z" fill="#000000" fill-rule="nonzero" fill-opacity="1" /><path clip-path="url(#clip500)" d="M1251.21 1522.27 L1251.21 1532.4 L1263.27 1532.4 L1263.27 1536.95 L1251.21 1536.95 L1251.21 1556.3 Q1251.21 1560.66 1252.38 1561.9 Q1253.59 1563.14 1257.25 1563.14 L1263.27 1563.14 L1263.27 1568.04 L1257.25 1568.04 Q1250.47 1568.04 1247.9 1565.53 Q1245.32 1562.98 1245.32 1556.3 L1245.32 1536.95 L1241.02 1536.95 L1241.02 1532.4 L1245.32 1532.4 L1245.32 1522.27 L1251.21 1522.27 Z" fill="#000000" fill-rule="nonzero" fill-opacity="1" /><path clip-path="url(#clip500)" d="M1291.15 1518.52 L1304.65 1518.52 L1304.65 1523.07 L1297.01 1523.07 L1297.01 1572.09 L1304.65 1572.09 L1304.65 1576.64 L1291.15 1576.64 L1291.15 1518.52 Z" fill="#000000" fill-rule="nonzero" fill-opacity="1" /><path clip-path="url(#clip500)" d="M1344.88 1539.24 Q1347.07 1535.29 1350.13 1533.41 Q1353.18 1531.54 1357.32 1531.54 Q1362.89 1531.54 1365.92 1535.45 Q1368.94 1539.33 1368.94 1546.53 L1368.94 1568.04 L1363.05 1568.04 L1363.05 1546.72 Q1363.05 1541.59 1361.24 1539.11 Q1359.42 1536.63 1355.7 1536.63 Q1351.15 1536.63 1348.51 1539.65 Q1345.86 1542.68 1345.86 1547.9 L1345.86 1568.04 L1339.98 1568.04 L1339.98 1546.72 Q1339.98 1541.56 1338.16 1539.11 Q1336.35 1536.63 1332.56 1536.63 Q1328.07 1536.63 1325.43 1539.68 Q1322.79 1542.71 1322.79 1547.9 L1322.79 1568.04 L1316.9 1568.04 L1316.9 1532.4 L1322.79 1532.4 L1322.79 1537.93 Q1324.79 1534.66 1327.59 1533.1 Q1330.4 1531.54 1334.25 1531.54 Q1338.13 1531.54 1340.83 1533.51 Q1343.57 1535.48 1344.88 1539.24 Z" fill="#000000" fill-rule="nonzero" fill-opacity="1" /><path clip-path="url(#clip500)" d="M1403.35 1533.45 L1403.35 1538.98 Q1400.86 1537.71 1398.19 1537.07 Q1395.52 1536.44 1392.65 1536.44 Q1388.29 1536.44 1386.09 1537.77 Q1383.93 1539.11 1383.93 1541.79 Q1383.93 1543.82 1385.49 1545 Q1387.05 1546.15 1391.76 1547.2 L1393.77 1547.64 Q1400 1548.98 1402.61 1551.43 Q1405.26 1553.85 1405.26 1558.21 Q1405.26 1563.17 1401.31 1566.07 Q1397.39 1568.97 1390.52 1568.97 Q1387.65 1568.97 1384.54 1568.39 Q1381.45 1567.85 1378.01 1566.74 L1378.01 1560.69 Q1381.26 1562.38 1384.41 1563.24 Q1387.56 1564.07 1390.65 1564.07 Q1394.78 1564.07 1397.01 1562.66 Q1399.24 1561.23 1399.24 1558.65 Q1399.24 1556.27 1397.62 1554.99 Q1396.03 1553.72 1390.58 1552.54 L1388.55 1552.07 Q1383.1 1550.92 1380.68 1548.56 Q1378.27 1546.18 1378.27 1542.04 Q1378.27 1537.01 1381.83 1534.27 Q1385.39 1531.54 1391.95 1531.54 Q1395.2 1531.54 1398.06 1532.01 Q1400.93 1532.49 1403.35 1533.45 Z" fill="#000000" fill-rule="nonzero" fill-opacity="1" /><path clip-path="url(#clip500)" d="M1428.27 1518.52 L1428.27 1576.64 L1414.77 1576.64 L1414.77 1572.09 L1422.38 1572.09 L1422.38 1523.07 L1414.77 1523.07 L1414.77 1518.52 L1428.27 1518.52 Z" fill="#000000" fill-rule="nonzero" fill-opacity="1" /><polyline clip-path="url(#clip500)" style="stroke:#000000; stroke-linecap:round; stroke-linejoin:round; stroke-width:4; stroke-opacity:1; fill:none" points="316.532,1423.18 316.532,106.192 "/>
<polyline clip-path="url(#clip500)" style="stroke:#000000; stroke-linecap:round; stroke-linejoin:round; stroke-width:4; stroke-opacity:1; fill:none" points="316.532,1344.36 335.43,1344.36 "/>
<polyline clip-path="url(#clip500)" style="stroke:#000000; stroke-linecap:round; stroke-linejoin:round; stroke-width:4; stroke-opacity:1; fill:none" points="316.532,1133.38 335.43,1133.38 "/>
<polyline clip-path="url(#clip500)" style="stroke:#000000; stroke-linecap:round; stroke-linejoin:round; stroke-width:4; stroke-opacity:1; fill:none" points="316.532,922.395 335.43,922.395 "/>
<polyline clip-path="url(#clip500)" style="stroke:#000000; stroke-linecap:round; stroke-linejoin:round; stroke-width:4; stroke-opacity:1; fill:none" points="316.532,711.412 335.43,711.412 "/>
<polyline clip-path="url(#clip500)" style="stroke:#000000; stroke-linecap:round; stroke-linejoin:round; stroke-width:4; stroke-opacity:1; fill:none" points="316.532,500.43 335.43,500.43 "/>
<polyline clip-path="url(#clip500)" style="stroke:#000000; stroke-linecap:round; stroke-linejoin:round; stroke-width:4; stroke-opacity:1; fill:none" points="316.532,289.447 335.43,289.447 "/>
<path clip-path="url(#clip500)" d="M114.26 1344.81 L143.936 1344.81 L143.936 1348.75 L114.26 1348.75 L114.26 1344.81 Z" fill="#000000" fill-rule="nonzero" fill-opacity="1" /><path clip-path="url(#clip500)" d="M164.028 1330.16 Q160.417 1330.16 158.589 1333.72 Q156.783 1337.27 156.783 1344.39 Q156.783 1351.5 158.589 1355.07 Q160.417 1358.61 164.028 1358.61 Q167.663 1358.61 169.468 1355.07 Q171.297 1351.5 171.297 1344.39 Q171.297 1337.27 169.468 1333.72 Q167.663 1330.16 164.028 1330.16 M164.028 1326.46 Q169.839 1326.46 172.894 1331.06 Q175.973 1335.64 175.973 1344.39 Q175.973 1353.12 172.894 1357.73 Q169.839 1362.31 164.028 1362.31 Q158.218 1362.31 155.14 1357.73 Q152.084 1353.12 152.084 1344.39 Q152.084 1335.64 155.14 1331.06 Q158.218 1326.46 164.028 1326.46 Z" fill="#000000" fill-rule="nonzero" fill-opacity="1" /><path clip-path="url(#clip500)" d="M184.19 1355.76 L189.075 1355.76 L189.075 1361.64 L184.19 1361.64 L184.19 1355.76 Z" fill="#000000" fill-rule="nonzero" fill-opacity="1" /><path clip-path="url(#clip500)" d="M209.26 1330.16 Q205.649 1330.16 203.82 1333.72 Q202.014 1337.27 202.014 1344.39 Q202.014 1351.5 203.82 1355.07 Q205.649 1358.61 209.26 1358.61 Q212.894 1358.61 214.699 1355.07 Q216.528 1351.5 216.528 1344.39 Q216.528 1337.27 214.699 1333.72 Q212.894 1330.16 209.26 1330.16 M209.26 1326.46 Q215.07 1326.46 218.125 1331.06 Q221.204 1335.64 221.204 1344.39 Q221.204 1353.12 218.125 1357.73 Q215.07 1362.31 209.26 1362.31 Q203.449 1362.31 200.371 1357.73 Q197.315 1353.12 197.315 1344.39 Q197.315 1335.64 200.371 1331.06 Q203.449 1326.46 209.26 1326.46 Z" fill="#000000" fill-rule="nonzero" fill-opacity="1" /><path clip-path="url(#clip500)" d="M239.422 1330.16 Q235.81 1330.16 233.982 1333.72 Q232.176 1337.27 232.176 1344.39 Q232.176 1351.5 233.982 1355.07 Q235.81 1358.61 239.422 1358.61 Q243.056 1358.61 244.861 1355.07 Q246.69 1351.5 246.69 1344.39 Q246.69 1337.27 244.861 1333.72 Q243.056 1330.16 239.422 1330.16 M239.422 1326.46 Q245.232 1326.46 248.287 1331.06 Q251.366 1335.64 251.366 1344.39 Q251.366 1353.12 248.287 1357.73 Q245.232 1362.31 239.422 1362.31 Q233.611 1362.31 230.533 1357.73 Q227.477 1353.12 227.477 1344.39 Q227.477 1335.64 230.533 1331.06 Q233.611 1326.46 239.422 1326.46 Z" fill="#000000" fill-rule="nonzero" fill-opacity="1" /><path clip-path="url(#clip500)" d="M259.63 1327.08 L277.986 1327.08 L277.986 1331.02 L263.912 1331.02 L263.912 1339.49 Q264.931 1339.14 265.949 1338.98 Q266.968 1338.79 267.986 1338.79 Q273.773 1338.79 277.153 1341.96 Q280.532 1345.14 280.532 1350.55 Q280.532 1356.13 277.06 1359.23 Q273.588 1362.31 267.269 1362.31 Q265.093 1362.31 262.824 1361.94 Q260.579 1361.57 258.171 1360.83 L258.171 1356.13 Q260.255 1357.27 262.477 1357.82 Q264.699 1358.38 267.176 1358.38 Q271.181 1358.38 273.519 1356.27 Q275.857 1354.16 275.857 1350.55 Q275.857 1346.94 273.519 1344.83 Q271.181 1342.73 267.176 1342.73 Q265.301 1342.73 263.426 1343.14 Q261.574 1343.56 259.63 1344.44 L259.63 1327.08 Z" fill="#000000" fill-rule="nonzero" fill-opacity="1" /><path clip-path="url(#clip500)" d="M163.033 1119.18 Q159.422 1119.18 157.593 1122.74 Q155.788 1126.28 155.788 1133.41 Q155.788 1140.52 157.593 1144.08 Q159.422 1147.63 163.033 1147.63 Q166.667 1147.63 168.473 1144.08 Q170.302 1140.52 170.302 1133.41 Q170.302 1126.28 168.473 1122.74 Q166.667 1119.18 163.033 1119.18 M163.033 1115.47 Q168.843 1115.47 171.899 1120.08 Q174.977 1124.66 174.977 1133.41 Q174.977 1142.14 171.899 1146.75 Q168.843 1151.33 163.033 1151.33 Q157.223 1151.33 154.144 1146.75 Q151.089 1142.14 151.089 1133.41 Q151.089 1124.66 154.144 1120.08 Q157.223 1115.47 163.033 1115.47 Z" fill="#000000" fill-rule="nonzero" fill-opacity="1" /><path clip-path="url(#clip500)" d="M183.195 1144.78 L188.079 1144.78 L188.079 1150.66 L183.195 1150.66 L183.195 1144.78 Z" fill="#000000" fill-rule="nonzero" fill-opacity="1" /><path clip-path="url(#clip500)" d="M208.264 1119.18 Q204.653 1119.18 202.824 1122.74 Q201.019 1126.28 201.019 1133.41 Q201.019 1140.52 202.824 1144.08 Q204.653 1147.63 208.264 1147.63 Q211.899 1147.63 213.704 1144.08 Q215.533 1140.52 215.533 1133.41 Q215.533 1126.28 213.704 1122.74 Q211.899 1119.18 208.264 1119.18 M208.264 1115.47 Q214.074 1115.47 217.13 1120.08 Q220.209 1124.66 220.209 1133.41 Q220.209 1142.14 217.13 1146.75 Q214.074 1151.33 208.264 1151.33 Q202.454 1151.33 199.375 1146.75 Q196.32 1142.14 196.32 1133.41 Q196.32 1124.66 199.375 1120.08 Q202.454 1115.47 208.264 1115.47 Z" fill="#000000" fill-rule="nonzero" fill-opacity="1" /><path clip-path="url(#clip500)" d="M238.426 1119.18 Q234.815 1119.18 232.986 1122.74 Q231.181 1126.28 231.181 1133.41 Q231.181 1140.52 232.986 1144.08 Q234.815 1147.63 238.426 1147.63 Q242.06 1147.63 243.866 1144.08 Q245.695 1140.52 245.695 1133.41 Q245.695 1126.28 243.866 1122.74 Q242.06 1119.18 238.426 1119.18 M238.426 1115.47 Q244.236 1115.47 247.292 1120.08 Q250.371 1124.66 250.371 1133.41 Q250.371 1142.14 247.292 1146.75 Q244.236 1151.33 238.426 1151.33 Q232.616 1151.33 229.537 1146.75 Q226.482 1142.14 226.482 1133.41 Q226.482 1124.66 229.537 1120.08 Q232.616 1115.47 238.426 1115.47 Z" fill="#000000" fill-rule="nonzero" fill-opacity="1" /><path clip-path="url(#clip500)" d="M268.588 1119.18 Q264.977 1119.18 263.148 1122.74 Q261.343 1126.28 261.343 1133.41 Q261.343 1140.52 263.148 1144.08 Q264.977 1147.63 268.588 1147.63 Q272.222 1147.63 274.028 1144.08 Q275.857 1140.52 275.857 1133.41 Q275.857 1126.28 274.028 1122.74 Q272.222 1119.18 268.588 1119.18 M268.588 1115.47 Q274.398 1115.47 277.454 1120.08 Q280.532 1124.66 280.532 1133.41 Q280.532 1142.14 277.454 1146.75 Q274.398 1151.33 268.588 1151.33 Q262.778 1151.33 259.699 1146.75 Q256.644 1142.14 256.644 1133.41 Q256.644 1124.66 259.699 1120.08 Q262.778 1115.47 268.588 1115.47 Z" fill="#000000" fill-rule="nonzero" fill-opacity="1" /><path clip-path="url(#clip500)" d="M164.028 908.194 Q160.417 908.194 158.589 911.758 Q156.783 915.3 156.783 922.43 Q156.783 929.536 158.589 933.101 Q160.417 936.642 164.028 936.642 Q167.663 936.642 169.468 933.101 Q171.297 929.536 171.297 922.43 Q171.297 915.3 169.468 911.758 Q167.663 908.194 164.028 908.194 M164.028 904.49 Q169.839 904.49 172.894 909.096 Q175.973 913.68 175.973 922.43 Q175.973 931.156 172.894 935.763 Q169.839 940.346 164.028 940.346 Q158.218 940.346 155.14 935.763 Q152.084 931.156 152.084 922.43 Q152.084 913.68 155.14 909.096 Q158.218 904.49 164.028 904.49 Z" fill="#000000" fill-rule="nonzero" fill-opacity="1" /><path clip-path="url(#clip500)" d="M184.19 933.795 L189.075 933.795 L189.075 939.675 L184.19 939.675 L184.19 933.795 Z" fill="#000000" fill-rule="nonzero" fill-opacity="1" /><path clip-path="url(#clip500)" d="M209.26 908.194 Q205.649 908.194 203.82 911.758 Q202.014 915.3 202.014 922.43 Q202.014 929.536 203.82 933.101 Q205.649 936.642 209.26 936.642 Q212.894 936.642 214.699 933.101 Q216.528 929.536 216.528 922.43 Q216.528 915.3 214.699 911.758 Q212.894 908.194 209.26 908.194 M209.26 904.49 Q215.07 904.49 218.125 909.096 Q221.204 913.68 221.204 922.43 Q221.204 931.156 218.125 935.763 Q215.07 940.346 209.26 940.346 Q203.449 940.346 200.371 935.763 Q197.315 931.156 197.315 922.43 Q197.315 913.68 200.371 909.096 Q203.449 904.49 209.26 904.49 Z" fill="#000000" fill-rule="nonzero" fill-opacity="1" /><path clip-path="url(#clip500)" d="M239.422 908.194 Q235.81 908.194 233.982 911.758 Q232.176 915.3 232.176 922.43 Q232.176 929.536 233.982 933.101 Q235.81 936.642 239.422 936.642 Q243.056 936.642 244.861 933.101 Q246.69 929.536 246.69 922.43 Q246.69 915.3 244.861 911.758 Q243.056 908.194 239.422 908.194 M239.422 904.49 Q245.232 904.49 248.287 909.096 Q251.366 913.68 251.366 922.43 Q251.366 931.156 248.287 935.763 Q245.232 940.346 239.422 940.346 Q233.611 940.346 230.533 935.763 Q227.477 931.156 227.477 922.43 Q227.477 913.68 230.533 909.096 Q233.611 904.49 239.422 904.49 Z" fill="#000000" fill-rule="nonzero" fill-opacity="1" /><path clip-path="url(#clip500)" d="M259.63 905.115 L277.986 905.115 L277.986 909.05 L263.912 909.05 L263.912 917.522 Q264.931 917.175 265.949 917.013 Q266.968 916.828 267.986 916.828 Q273.773 916.828 277.153 919.999 Q280.532 923.17 280.532 928.587 Q280.532 934.166 277.06 937.267 Q273.588 940.346 267.269 940.346 Q265.093 940.346 262.824 939.976 Q260.579 939.605 258.171 938.865 L258.171 934.166 Q260.255 935.3 262.477 935.855 Q264.699 936.411 267.176 936.411 Q271.181 936.411 273.519 934.305 Q275.857 932.198 275.857 928.587 Q275.857 924.976 273.519 922.869 Q271.181 920.763 267.176 920.763 Q265.301 920.763 263.426 921.18 Q261.574 921.596 259.63 922.476 L259.63 905.115 Z" fill="#000000" fill-rule="nonzero" fill-opacity="1" /><path clip-path="url(#clip500)" d="M163.033 697.211 Q159.422 697.211 157.593 700.776 Q155.788 704.317 155.788 711.447 Q155.788 718.553 157.593 722.118 Q159.422 725.66 163.033 725.66 Q166.667 725.66 168.473 722.118 Q170.302 718.553 170.302 711.447 Q170.302 704.317 168.473 700.776 Q166.667 697.211 163.033 697.211 M163.033 693.507 Q168.843 693.507 171.899 698.114 Q174.977 702.697 174.977 711.447 Q174.977 720.174 171.899 724.78 Q168.843 729.364 163.033 729.364 Q157.223 729.364 154.144 724.78 Q151.089 720.174 151.089 711.447 Q151.089 702.697 154.144 698.114 Q157.223 693.507 163.033 693.507 Z" fill="#000000" fill-rule="nonzero" fill-opacity="1" /><path clip-path="url(#clip500)" d="M183.195 722.813 L188.079 722.813 L188.079 728.692 L183.195 728.692 L183.195 722.813 Z" fill="#000000" fill-rule="nonzero" fill-opacity="1" /><path clip-path="url(#clip500)" d="M208.264 697.211 Q204.653 697.211 202.824 700.776 Q201.019 704.317 201.019 711.447 Q201.019 718.553 202.824 722.118 Q204.653 725.66 208.264 725.66 Q211.899 725.66 213.704 722.118 Q215.533 718.553 215.533 711.447 Q215.533 704.317 213.704 700.776 Q211.899 697.211 208.264 697.211 M208.264 693.507 Q214.074 693.507 217.13 698.114 Q220.209 702.697 220.209 711.447 Q220.209 720.174 217.13 724.78 Q214.074 729.364 208.264 729.364 Q202.454 729.364 199.375 724.78 Q196.32 720.174 196.32 711.447 Q196.32 702.697 199.375 698.114 Q202.454 693.507 208.264 693.507 Z" fill="#000000" fill-rule="nonzero" fill-opacity="1" /><path clip-path="url(#clip500)" d="M229.236 724.757 L236.875 724.757 L236.875 698.391 L228.565 700.058 L228.565 695.799 L236.829 694.132 L241.505 694.132 L241.505 724.757 L249.144 724.757 L249.144 728.692 L229.236 728.692 L229.236 724.757 Z" fill="#000000" fill-rule="nonzero" fill-opacity="1" /><path clip-path="url(#clip500)" d="M268.588 697.211 Q264.977 697.211 263.148 700.776 Q261.343 704.317 261.343 711.447 Q261.343 718.553 263.148 722.118 Q264.977 725.66 268.588 725.66 Q272.222 725.66 274.028 722.118 Q275.857 718.553 275.857 711.447 Q275.857 704.317 274.028 700.776 Q272.222 697.211 268.588 697.211 M268.588 693.507 Q274.398 693.507 277.454 698.114 Q280.532 702.697 280.532 711.447 Q280.532 720.174 277.454 724.78 Q274.398 729.364 268.588 729.364 Q262.778 729.364 259.699 724.78 Q256.644 720.174 256.644 711.447 Q256.644 702.697 259.699 698.114 Q262.778 693.507 268.588 693.507 Z" fill="#000000" fill-rule="nonzero" fill-opacity="1" /><path clip-path="url(#clip500)" d="M164.028 486.228 Q160.417 486.228 158.589 489.793 Q156.783 493.335 156.783 500.464 Q156.783 507.571 158.589 511.136 Q160.417 514.677 164.028 514.677 Q167.663 514.677 169.468 511.136 Q171.297 507.571 171.297 500.464 Q171.297 493.335 169.468 489.793 Q167.663 486.228 164.028 486.228 M164.028 482.525 Q169.839 482.525 172.894 487.131 Q175.973 491.714 175.973 500.464 Q175.973 509.191 172.894 513.798 Q169.839 518.381 164.028 518.381 Q158.218 518.381 155.14 513.798 Q152.084 509.191 152.084 500.464 Q152.084 491.714 155.14 487.131 Q158.218 482.525 164.028 482.525 Z" fill="#000000" fill-rule="nonzero" fill-opacity="1" /><path clip-path="url(#clip500)" d="M184.19 511.83 L189.075 511.83 L189.075 517.71 L184.19 517.71 L184.19 511.83 Z" fill="#000000" fill-rule="nonzero" fill-opacity="1" /><path clip-path="url(#clip500)" d="M209.26 486.228 Q205.649 486.228 203.82 489.793 Q202.014 493.335 202.014 500.464 Q202.014 507.571 203.82 511.136 Q205.649 514.677 209.26 514.677 Q212.894 514.677 214.699 511.136 Q216.528 507.571 216.528 500.464 Q216.528 493.335 214.699 489.793 Q212.894 486.228 209.26 486.228 M209.26 482.525 Q215.07 482.525 218.125 487.131 Q221.204 491.714 221.204 500.464 Q221.204 509.191 218.125 513.798 Q215.07 518.381 209.26 518.381 Q203.449 518.381 200.371 513.798 Q197.315 509.191 197.315 500.464 Q197.315 491.714 200.371 487.131 Q203.449 482.525 209.26 482.525 Z" fill="#000000" fill-rule="nonzero" fill-opacity="1" /><path clip-path="url(#clip500)" d="M230.232 513.774 L237.871 513.774 L237.871 487.409 L229.56 489.076 L229.56 484.816 L237.824 483.15 L242.5 483.15 L242.5 513.774 L250.139 513.774 L250.139 517.71 L230.232 517.71 L230.232 513.774 Z" fill="#000000" fill-rule="nonzero" fill-opacity="1" /><path clip-path="url(#clip500)" d="M259.63 483.15 L277.986 483.15 L277.986 487.085 L263.912 487.085 L263.912 495.557 Q264.931 495.21 265.949 495.048 Q266.968 494.863 267.986 494.863 Q273.773 494.863 277.153 498.034 Q280.532 501.205 280.532 506.622 Q280.532 512.2 277.06 515.302 Q273.588 518.381 267.269 518.381 Q265.093 518.381 262.824 518.011 Q260.579 517.64 258.171 516.899 L258.171 512.2 Q260.255 513.335 262.477 513.89 Q264.699 514.446 267.176 514.446 Q271.181 514.446 273.519 512.339 Q275.857 510.233 275.857 506.622 Q275.857 503.011 273.519 500.904 Q271.181 498.798 267.176 498.798 Q265.301 498.798 263.426 499.214 Q261.574 499.631 259.63 500.511 L259.63 483.15 Z" fill="#000000" fill-rule="nonzero" fill-opacity="1" /><path clip-path="url(#clip500)" d="M163.033 275.246 Q159.422 275.246 157.593 278.811 Q155.788 282.352 155.788 289.482 Q155.788 296.588 157.593 300.153 Q159.422 303.695 163.033 303.695 Q166.667 303.695 168.473 300.153 Q170.302 296.588 170.302 289.482 Q170.302 282.352 168.473 278.811 Q166.667 275.246 163.033 275.246 M163.033 271.542 Q168.843 271.542 171.899 276.149 Q174.977 280.732 174.977 289.482 Q174.977 298.209 171.899 302.815 Q168.843 307.398 163.033 307.398 Q157.223 307.398 154.144 302.815 Q151.089 298.209 151.089 289.482 Q151.089 280.732 154.144 276.149 Q157.223 271.542 163.033 271.542 Z" fill="#000000" fill-rule="nonzero" fill-opacity="1" /><path clip-path="url(#clip500)" d="M183.195 300.847 L188.079 300.847 L188.079 306.727 L183.195 306.727 L183.195 300.847 Z" fill="#000000" fill-rule="nonzero" fill-opacity="1" /><path clip-path="url(#clip500)" d="M208.264 275.246 Q204.653 275.246 202.824 278.811 Q201.019 282.352 201.019 289.482 Q201.019 296.588 202.824 300.153 Q204.653 303.695 208.264 303.695 Q211.899 303.695 213.704 300.153 Q215.533 296.588 215.533 289.482 Q215.533 282.352 213.704 278.811 Q211.899 275.246 208.264 275.246 M208.264 271.542 Q214.074 271.542 217.13 276.149 Q220.209 280.732 220.209 289.482 Q220.209 298.209 217.13 302.815 Q214.074 307.398 208.264 307.398 Q202.454 307.398 199.375 302.815 Q196.32 298.209 196.32 289.482 Q196.32 280.732 199.375 276.149 Q202.454 271.542 208.264 271.542 Z" fill="#000000" fill-rule="nonzero" fill-opacity="1" /><path clip-path="url(#clip500)" d="M232.454 302.792 L248.773 302.792 L248.773 306.727 L226.829 306.727 L226.829 302.792 Q229.491 300.037 234.074 295.408 Q238.681 290.755 239.861 289.412 Q242.107 286.889 242.986 285.153 Q243.889 283.394 243.889 281.704 Q243.889 278.949 241.945 277.213 Q240.023 275.477 236.922 275.477 Q234.722 275.477 232.269 276.241 Q229.838 277.005 227.06 278.556 L227.06 273.834 Q229.885 272.699 232.338 272.121 Q234.792 271.542 236.829 271.542 Q242.199 271.542 245.394 274.227 Q248.588 276.912 248.588 281.403 Q248.588 283.533 247.778 285.454 Q246.991 287.352 244.884 289.945 Q244.306 290.616 241.204 293.834 Q238.102 297.028 232.454 302.792 Z" fill="#000000" fill-rule="nonzero" fill-opacity="1" /><path clip-path="url(#clip500)" d="M268.588 275.246 Q264.977 275.246 263.148 278.811 Q261.343 282.352 261.343 289.482 Q261.343 296.588 263.148 300.153 Q264.977 303.695 268.588 303.695 Q272.222 303.695 274.028 300.153 Q275.857 296.588 275.857 289.482 Q275.857 282.352 274.028 278.811 Q272.222 275.246 268.588 275.246 M268.588 271.542 Q274.398 271.542 277.454 276.149 Q280.532 280.732 280.532 289.482 Q280.532 298.209 277.454 302.815 Q274.398 307.398 268.588 307.398 Q262.778 307.398 259.699 302.815 Q256.644 298.209 256.644 289.482 Q256.644 280.732 259.699 276.149 Q262.778 271.542 268.588 271.542 Z" fill="#000000" fill-rule="nonzero" fill-opacity="1" /><path clip-path="url(#clip500)" d="M41.7242 905.607 Q42.4244 903.538 44.7161 901.596 Q47.0077 899.623 51.0181 897.65 L64.0042 891.125 L64.0042 898.032 L51.8138 904.111 Q47.0395 906.466 45.48 908.694 Q43.9204 910.89 43.9204 914.71 L43.9204 921.712 L64.0042 921.712 L64.0042 928.141 L16.4842 928.141 L16.4842 913.628 Q16.4842 905.48 19.8898 901.469 Q23.2955 897.459 30.1704 897.459 Q34.6582 897.459 37.6183 899.559 Q40.5784 901.628 41.7242 905.607 M21.7677 921.712 L38.6368 921.712 L38.6368 913.628 Q38.6368 908.981 36.5043 906.625 Q34.34 904.238 30.1704 904.238 Q26.0009 904.238 23.9002 906.625 Q21.7677 908.981 21.7677 913.628 L21.7677 921.712 Z" fill="#000000" fill-rule="nonzero" fill-opacity="1" /><path clip-path="url(#clip500)" d="M16.4842 882.849 L16.4842 855.541 L21.895 855.541 L21.895 876.42 L35.8996 876.42 L35.8996 857.578 L41.3104 857.578 L41.3104 876.42 L64.0042 876.42 L64.0042 882.849 L16.4842 882.849 Z" fill="#000000" fill-rule="nonzero" fill-opacity="1" /><path clip-path="url(#clip500)" d="M14.5426 831.542 Q21.8632 835.807 29.0246 837.876 Q36.186 839.945 43.5384 839.945 Q50.8908 839.945 58.1159 837.876 Q65.3091 835.775 72.5979 831.542 L72.5979 836.634 Q65.1182 841.409 57.8931 843.796 Q50.668 846.151 43.5384 846.151 Q36.4406 846.151 29.2474 843.796 Q22.0542 841.44 14.5426 836.634 L14.5426 831.542 Z" fill="#000000" fill-rule="nonzero" fill-opacity="1" /><path clip-path="url(#clip500)" d="M18.2347 814.386 L28.3562 814.386 L28.3562 802.323 L32.9077 802.323 L32.9077 814.386 L52.2594 814.386 Q56.6199 814.386 57.8613 813.209 Q59.1026 811.999 59.1026 808.339 L59.1026 802.323 L64.0042 802.323 L64.0042 808.339 Q64.0042 815.118 61.4897 817.696 Q58.9434 820.275 52.2594 820.275 L32.9077 820.275 L32.9077 824.571 L28.3562 824.571 L28.3562 820.275 L18.2347 820.275 L18.2347 814.386 Z" fill="#000000" fill-rule="nonzero" fill-opacity="1" /><path clip-path="url(#clip500)" d="M14.5426 795.544 L14.5426 790.451 Q22.0542 785.677 29.2474 783.322 Q36.4406 780.934 43.5384 780.934 Q50.668 780.934 57.8931 783.322 Q65.1182 785.677 72.5979 790.451 L72.5979 795.544 Q65.3091 791.311 58.1159 789.242 Q50.8908 787.141 43.5384 787.141 Q36.186 787.141 29.0246 789.242 Q21.8632 791.311 14.5426 795.544 Z" fill="#000000" fill-rule="nonzero" fill-opacity="1" /><path clip-path="url(#clip500)" d="M14.479 749.01 L14.479 735.515 L19.0304 735.515 L19.0304 743.154 L68.0464 743.154 L68.0464 735.515 L72.5979 735.515 L72.5979 749.01 L14.479 749.01 Z" fill="#000000" fill-rule="nonzero" fill-opacity="1" /><path clip-path="url(#clip500)" d="M33.8307 702.382 Q33.2578 703.368 33.0032 704.546 Q32.7167 705.692 32.7167 707.092 Q32.7167 712.058 35.9632 714.731 Q39.1779 717.373 45.2253 717.373 L64.0042 717.373 L64.0042 723.261 L28.3562 723.261 L28.3562 717.373 L33.8944 717.373 Q30.6479 715.527 29.0883 712.567 Q27.4968 709.607 27.4968 705.374 Q27.4968 704.769 27.5923 704.037 Q27.656 703.305 27.8151 702.413 L33.8307 702.382 Z" fill="#000000" fill-rule="nonzero" fill-opacity="1" /><path clip-path="url(#clip500)" d="M46.0847 680.038 Q46.0847 687.136 47.7079 689.873 Q49.3312 692.61 53.2461 692.61 Q56.3653 692.61 58.2114 690.573 Q60.0256 688.504 60.0256 684.971 Q60.0256 680.102 56.5881 677.173 Q53.1188 674.213 47.3897 674.213 L46.0847 674.213 L46.0847 680.038 M43.6657 668.357 L64.0042 668.357 L64.0042 674.213 L58.5933 674.213 Q61.8398 676.219 63.3994 679.21 Q64.9272 682.202 64.9272 686.531 Q64.9272 692.006 61.8716 695.252 Q58.7843 698.467 53.6281 698.467 Q47.6125 698.467 44.5569 694.456 Q41.5014 690.414 41.5014 682.425 L41.5014 674.213 L40.9285 674.213 Q36.8862 674.213 34.6901 676.887 Q32.4621 679.529 32.4621 684.335 Q32.4621 687.39 33.1941 690.287 Q33.9262 693.183 35.3903 695.857 L29.9795 695.857 Q28.7381 692.642 28.1334 689.618 Q27.4968 686.595 27.4968 683.73 Q27.4968 675.996 31.5072 672.176 Q35.5176 668.357 43.6657 668.357 Z" fill="#000000" fill-rule="nonzero" fill-opacity="1" /><path clip-path="url(#clip500)" d="M33.7671 632.836 L14.479 632.836 L14.479 626.98 L64.0042 626.98 L64.0042 632.836 L58.657 632.836 Q61.8398 634.682 63.3994 637.515 Q64.9272 640.316 64.9272 644.263 Q64.9272 650.724 59.771 654.798 Q54.6147 658.84 46.212 658.84 Q37.8093 658.84 32.6531 654.798 Q27.4968 650.724 27.4968 644.263 Q27.4968 640.316 29.0564 637.515 Q30.5842 634.682 33.7671 632.836 M46.212 652.793 Q52.6732 652.793 56.3653 650.151 Q60.0256 647.477 60.0256 642.83 Q60.0256 638.183 56.3653 635.51 Q52.6732 632.836 46.212 632.836 Q39.7508 632.836 36.0905 635.51 Q32.3984 638.183 32.3984 642.83 Q32.3984 647.477 36.0905 650.151 Q39.7508 652.793 46.212 652.793 Z" fill="#000000" fill-rule="nonzero" fill-opacity="1" /><path clip-path="url(#clip500)" d="M14.479 601.231 L72.5979 601.231 L72.5979 614.726 L68.0464 614.726 L68.0464 607.119 L19.0304 607.119 L19.0304 614.726 L14.479 614.726 L14.479 601.231 Z" fill="#000000" fill-rule="nonzero" fill-opacity="1" /><path clip-path="url(#clip500)" d="M700.374 31.5855 Q702.255 32.222 704.02 34.3054 Q705.814 36.3887 707.608 40.0345 L713.539 51.84 L707.26 51.84 L701.734 40.7579 Q699.593 36.4176 697.567 34.9998 Q695.571 33.582 692.098 33.582 L685.733 33.582 L685.733 51.84 L679.888 51.84 L679.888 8.64 L693.082 8.64 Q700.49 8.64 704.135 11.736 Q707.781 14.8321 707.781 21.0821 Q707.781 25.1619 705.871 27.8529 Q703.991 30.5438 700.374 31.5855 M685.733 13.4432 L685.733 28.7788 L693.082 28.7788 Q697.307 28.7788 699.448 26.8401 Q701.618 24.8726 701.618 21.0821 Q701.618 17.2916 699.448 15.3819 Q697.307 13.4432 693.082 13.4432 L685.733 13.4432 Z" fill="#000000" fill-rule="nonzero" fill-opacity="1" /><path clip-path="url(#clip500)" d="M721.062 8.64 L745.889 8.64 L745.889 13.559 L726.907 13.559 L726.907 26.2904 L744.037 26.2904 L744.037 31.2093 L726.907 31.2093 L726.907 51.84 L721.062 51.84 L721.062 8.64 Z" fill="#000000" fill-rule="nonzero" fill-opacity="1" /><path clip-path="url(#clip500)" d="M778.904 46.9789 L778.904 64.1663 L773.551 64.1663 L773.551 19.4328 L778.904 19.4328 L778.904 24.3517 Q780.582 21.4582 783.128 20.0693 Q785.703 18.6515 789.262 18.6515 Q795.165 18.6515 798.84 23.339 Q802.543 28.0265 802.543 35.6653 Q802.543 43.3042 798.84 47.9916 Q795.165 52.6791 789.262 52.6791 Q785.703 52.6791 783.128 51.2902 Q780.582 49.8724 778.904 46.9789 M797.017 35.6653 Q797.017 29.7915 794.586 26.464 Q792.185 23.1075 787.96 23.1075 Q783.736 23.1075 781.305 26.464 Q778.904 29.7915 778.904 35.6653 Q778.904 41.5391 781.305 44.8956 Q783.736 48.2231 787.96 48.2231 Q792.185 48.2231 794.586 44.8956 Q797.017 41.5391 797.017 35.6653 Z" fill="#000000" fill-rule="nonzero" fill-opacity="1" /><path clip-path="url(#clip500)" d="M810.819 39.0507 L810.819 19.4328 L816.143 19.4328 L816.143 38.8482 Q816.143 43.4488 817.937 45.7636 Q819.731 48.0495 823.319 48.0495 Q827.63 48.0495 830.119 45.3007 Q832.636 42.5519 832.636 37.8065 L832.636 19.4328 L837.96 19.4328 L837.96 51.84 L832.636 51.84 L832.636 46.8632 Q830.697 49.8145 828.122 51.2613 Q825.576 52.6791 822.19 52.6791 Q816.606 52.6791 813.712 49.2069 Q810.819 45.7347 810.819 39.0507 M824.216 18.6515 L824.216 18.6515 Z" fill="#000000" fill-rule="nonzero" fill-opacity="1" /><path clip-path="url(#clip500)" d="M848.926 6.81709 L854.25 6.81709 L854.25 51.84 L848.926 51.84 L848.926 6.81709 Z" fill="#000000" fill-rule="nonzero" fill-opacity="1" /><path clip-path="url(#clip500)" d="M886.05 20.3876 L886.05 25.4223 Q883.793 24.2649 881.362 23.6862 Q878.932 23.1075 876.328 23.1075 Q872.364 23.1075 870.367 24.3228 Q868.4 25.5381 868.4 27.9686 Q868.4 29.8204 869.817 30.891 Q871.235 31.9327 875.518 32.8876 L877.34 33.2926 Q883.012 34.5079 885.384 36.7359 Q887.786 38.935 887.786 42.8991 Q887.786 47.4129 884.198 50.046 Q880.639 52.6791 874.389 52.6791 Q871.785 52.6791 868.949 52.1583 Q866.143 51.6664 863.018 50.6537 L863.018 45.156 Q865.969 46.6896 868.834 47.4708 Q871.698 48.2231 874.505 48.2231 Q878.266 48.2231 880.292 46.95 Q882.317 45.6479 882.317 43.3042 Q882.317 41.134 880.842 39.9766 Q879.395 38.8192 874.447 37.7486 L872.595 37.3146 Q867.647 36.273 865.448 34.1318 Q863.249 31.9616 863.249 28.2001 Q863.249 23.6283 866.49 21.1399 Q869.731 18.6515 875.691 18.6515 Q878.643 18.6515 881.247 19.0855 Q883.851 19.5196 886.05 20.3876 Z" fill="#000000" fill-rule="nonzero" fill-opacity="1" /><path clip-path="url(#clip500)" d="M923.984 34.3054 L923.984 36.9095 L899.505 36.9095 Q899.852 42.4072 902.803 45.3007 Q905.784 48.1653 911.079 48.1653 Q914.146 48.1653 917.01 47.4129 Q919.904 46.6606 922.74 45.156 L922.74 50.1907 Q919.875 51.406 916.866 52.0425 Q913.856 52.6791 910.76 52.6791 Q903.006 52.6791 898.463 48.1653 Q893.949 43.6514 893.949 35.9547 Q893.949 27.9975 898.232 23.339 Q902.543 18.6515 909.835 18.6515 Q916.374 18.6515 920.164 22.876 Q923.984 27.0716 923.984 34.3054 M918.66 32.7429 Q918.602 28.3737 916.2 25.7695 Q913.828 23.1654 909.892 23.1654 Q905.436 23.1654 902.745 25.6827 Q900.083 28.2001 899.678 32.7718 L918.66 32.7429 Z" fill="#000000" fill-rule="nonzero" fill-opacity="1" /><path clip-path="url(#clip500)" d="M953.382 20.3876 L953.382 25.4223 Q951.125 24.2649 948.694 23.6862 Q946.264 23.1075 943.66 23.1075 Q939.695 23.1075 937.699 24.3228 Q935.731 25.5381 935.731 27.9686 Q935.731 29.8204 937.149 30.891 Q938.567 31.9327 942.849 32.8876 L944.672 33.2926 Q950.344 34.5079 952.716 36.7359 Q955.118 38.935 955.118 42.8991 Q955.118 47.4129 951.53 50.046 Q947.971 52.6791 941.721 52.6791 Q939.117 52.6791 936.281 52.1583 Q933.474 51.6664 930.349 50.6537 L930.349 45.156 Q933.301 46.6896 936.165 47.4708 Q939.03 48.2231 941.837 48.2231 Q945.598 48.2231 947.624 46.95 Q949.649 45.6479 949.649 43.3042 Q949.649 41.134 948.173 39.9766 Q946.727 38.8192 941.779 37.7486 L939.927 37.3146 Q934.979 36.273 932.78 34.1318 Q930.581 31.9616 930.581 28.2001 Q930.581 23.6283 933.822 21.1399 Q937.062 18.6515 943.023 18.6515 Q945.974 18.6515 948.579 19.0855 Q951.183 19.5196 953.382 20.3876 Z" fill="#000000" fill-rule="nonzero" fill-opacity="1" /><path clip-path="url(#clip500)" d="M964.956 44.4905 L971.061 44.4905 L971.061 51.84 L964.956 51.84 L964.956 44.4905 M964.956 21.1978 L971.061 21.1978 L971.061 28.5473 L964.956 28.5473 L964.956 21.1978 Z" fill="#000000" fill-rule="nonzero" fill-opacity="1" /><path clip-path="url(#clip500)" d="M1021.29 36.7648 L1020.02 30.0809 Q1018.72 23.2233 1013.57 23.2233 Q1009.69 23.2233 1007.92 26.4061 Q1005.7 30.3991 1005.7 35.6653 Q1005.7 42.031 1007.87 45.0692 Q1010.07 48.1653 1013.57 48.1653 Q1017.44 48.1653 1019.53 42.0021 L1021.29 36.7648 M1024.27 27.9107 L1027.14 19.4328 L1031.88 19.4328 L1025.95 36.9963 L1027.11 43.3331 Q1027.37 44.7509 1028.38 45.9373 Q1029.57 47.3261 1030.49 47.3261 L1033.04 47.3261 L1033.04 51.84 L1029.86 51.84 Q1027.14 51.84 1024.71 49.4095 Q1023.52 48.1942 1023.03 45.6479 Q1021.7 48.8597 1018.98 51.377 Q1017.7 52.5634 1013.57 52.5634 Q1006.77 52.5634 1003.47 48.1653 Q1000.08 43.6225 1000.08 35.6653 Q1000.08 27.1584 1003.76 23.1654 Q1007.84 18.7094 1013.57 18.7094 Q1022.57 18.7094 1024.27 27.9107 Z" fill="#000000" fill-rule="nonzero" fill-opacity="1" /><path clip-path="url(#clip500)" d="M1042.15 24.9304 L1079.25 24.9304 L1079.25 29.7915 L1042.15 29.7915 L1042.15 24.9304 M1042.15 36.7359 L1079.25 36.7359 L1079.25 41.6549 L1042.15 41.6549 L1042.15 36.7359 Z" fill="#000000" fill-rule="nonzero" fill-opacity="1" /><path clip-path="url(#clip500)" d="M1105.09 27.9107 Q1101.15 27.9107 1098.84 30.6017 Q1096.55 33.2926 1096.55 37.9801 Q1096.55 42.6387 1098.84 45.3586 Q1101.15 48.0495 1105.09 48.0495 Q1109.02 48.0495 1111.31 45.3586 Q1113.62 42.6387 1113.62 37.9801 Q1113.62 33.2926 1111.31 30.6017 Q1109.02 27.9107 1105.09 27.9107 M1116.69 9.59486 L1116.69 14.9189 Q1114.49 13.8772 1112.24 13.3275 Q1110.01 12.7777 1107.81 12.7777 Q1102.02 12.7777 1098.95 16.6839 Q1095.92 20.5902 1095.48 28.4894 Q1097.19 25.9721 1099.76 24.6411 Q1102.34 23.2811 1105.44 23.2811 Q1111.95 23.2811 1115.71 27.2452 Q1119.5 31.1804 1119.5 37.9801 Q1119.5 44.6352 1115.56 48.6571 Q1111.63 52.6791 1105.09 52.6791 Q1097.59 52.6791 1093.63 46.95 Q1089.67 41.1919 1089.67 30.2834 Q1089.67 20.0404 1094.53 13.964 Q1099.39 7.85875 1107.58 7.85875 Q1109.78 7.85875 1112 8.29278 Q1114.26 8.72681 1116.69 9.59486 Z" fill="#000000" fill-rule="nonzero" fill-opacity="1" /><path clip-path="url(#clip500)" d="M1142.07 12.4884 Q1137.55 12.4884 1135.27 16.9444 Q1133.01 21.3714 1133.01 30.2834 Q1133.01 39.1665 1135.27 43.6225 Q1137.55 48.0495 1142.07 48.0495 Q1146.61 48.0495 1148.87 43.6225 Q1151.15 39.1665 1151.15 30.2834 Q1151.15 21.3714 1148.87 16.9444 Q1146.61 12.4884 1142.07 12.4884 M1142.07 7.85875 Q1149.33 7.85875 1153.15 13.6168 Q1157 19.346 1157 30.2834 Q1157 41.1919 1153.15 46.95 Q1149.33 52.6791 1142.07 52.6791 Q1134.8 52.6791 1130.96 46.95 Q1127.14 41.1919 1127.14 30.2834 Q1127.14 19.346 1130.96 13.6168 Q1134.8 7.85875 1142.07 7.85875 Z" fill="#000000" fill-rule="nonzero" fill-opacity="1" /><path clip-path="url(#clip500)" d="M1175.75 11.5914 Q1173.43 11.5914 1171.84 13.2117 Q1170.25 14.8032 1170.25 17.118 Q1170.25 19.4038 1171.84 20.9953 Q1173.43 22.5577 1175.75 22.5577 Q1178.06 22.5577 1179.65 20.9953 Q1181.25 19.4038 1181.25 17.118 Q1181.25 14.8321 1179.62 13.2117 Q1178.03 11.5914 1175.75 11.5914 M1175.75 7.85875 Q1177.6 7.85875 1179.31 8.58213 Q1181.01 9.27657 1182.26 10.6076 Q1183.59 11.9097 1184.25 13.559 Q1184.92 15.2083 1184.92 17.118 Q1184.92 20.9374 1182.23 23.5994 Q1179.57 26.2325 1175.69 26.2325 Q1171.78 26.2325 1169.18 23.6283 Q1166.58 21.0242 1166.58 17.118 Q1166.58 13.2407 1169.24 10.5497 Q1171.9 7.85875 1175.75 7.85875 Z" fill="#000000" fill-rule="nonzero" fill-opacity="1" /><path clip-path="url(#clip500)" d="M1220.25 10.2314 L1220.25 19.4328 L1231.22 19.4328 L1231.22 23.5705 L1220.25 23.5705 L1220.25 41.163 Q1220.25 45.1271 1221.32 46.2555 Q1222.42 47.384 1225.75 47.384 L1231.22 47.384 L1231.22 51.84 L1225.75 51.84 Q1219.58 51.84 1217.24 49.5541 Q1214.9 47.2393 1214.9 41.163 L1214.9 23.5705 L1210.99 23.5705 L1210.99 19.4328 L1214.9 19.4328 L1214.9 10.2314 L1220.25 10.2314 Z" fill="#000000" fill-rule="nonzero" fill-opacity="1" /><path clip-path="url(#clip500)" d="M1258.94 31.5855 Q1260.82 32.222 1262.58 34.3054 Q1264.38 36.3887 1266.17 40.0345 L1272.1 51.84 L1265.82 51.84 L1260.3 40.7579 Q1258.15 36.4176 1256.13 34.9998 Q1254.13 33.582 1250.66 33.582 L1244.29 33.582 L1244.29 51.84 L1238.45 51.84 L1238.45 8.64 L1251.64 8.64 Q1259.05 8.64 1262.7 11.736 Q1266.34 14.8321 1266.34 21.0821 Q1266.34 25.1619 1264.43 27.8529 Q1262.55 30.5438 1258.94 31.5855 M1244.29 13.4432 L1244.29 28.7788 L1251.64 28.7788 Q1255.87 28.7788 1258.01 26.8401 Q1260.18 24.8726 1260.18 21.0821 Q1260.18 17.2916 1258.01 15.3819 Q1255.87 13.4432 1251.64 13.4432 L1244.29 13.4432 Z" fill="#000000" fill-rule="nonzero" fill-opacity="1" /><path clip-path="url(#clip500)" d="M1279.62 8.64 L1304.45 8.64 L1304.45 13.559 L1285.47 13.559 L1285.47 26.2904 L1302.6 26.2904 L1302.6 31.2093 L1285.47 31.2093 L1285.47 51.84 L1279.62 51.84 L1279.62 8.64 Z" fill="#000000" fill-rule="nonzero" fill-opacity="1" /><path clip-path="url(#clip500)" d="M1314.17 24.9304 L1351.27 24.9304 L1351.27 29.7915 L1314.17 29.7915 L1314.17 24.9304 M1314.17 36.7359 L1351.27 36.7359 L1351.27 41.6549 L1314.17 41.6549 L1314.17 36.7359 Z" fill="#000000" fill-rule="nonzero" fill-opacity="1" /><path clip-path="url(#clip500)" d="M1376.38 12.4884 Q1371.87 12.4884 1369.58 16.9444 Q1367.33 21.3714 1367.33 30.2834 Q1367.33 39.1665 1369.58 43.6225 Q1371.87 48.0495 1376.38 48.0495 Q1380.93 48.0495 1383.18 43.6225 Q1385.47 39.1665 1385.47 30.2834 Q1385.47 21.3714 1383.18 16.9444 Q1380.93 12.4884 1376.38 12.4884 M1376.38 7.85875 Q1383.65 7.85875 1387.47 13.6168 Q1391.31 19.346 1391.31 30.2834 Q1391.31 41.1919 1387.47 46.95 Q1383.65 52.6791 1376.38 52.6791 Q1369.12 52.6791 1365.27 46.95 Q1361.45 41.1919 1361.45 30.2834 Q1361.45 19.346 1365.27 13.6168 Q1369.12 7.85875 1376.38 7.85875 Z" fill="#000000" fill-rule="nonzero" fill-opacity="1" /><path clip-path="url(#clip500)" d="M1401.59 44.4905 L1407.69 44.4905 L1407.69 51.84 L1401.59 51.84 L1401.59 44.4905 Z" fill="#000000" fill-rule="nonzero" fill-opacity="1" /><path clip-path="url(#clip500)" d="M1420.48 8.64 L1443.43 8.64 L1443.43 13.559 L1425.83 13.559 L1425.83 24.1492 Q1427.11 23.7152 1428.38 23.5126 Q1429.65 23.2811 1430.93 23.2811 Q1438.16 23.2811 1442.38 27.2452 Q1446.61 31.2093 1446.61 37.9801 Q1446.61 44.9535 1442.27 48.8308 Q1437.93 52.6791 1430.03 52.6791 Q1427.31 52.6791 1424.47 52.2162 Q1421.67 51.7532 1418.66 50.8273 L1418.66 44.9535 Q1421.26 46.3713 1424.04 47.0657 Q1426.82 47.7602 1429.91 47.7602 Q1434.92 47.7602 1437.84 45.1271 Q1440.76 42.494 1440.76 37.9801 Q1440.76 33.4663 1437.84 30.8332 Q1434.92 28.2001 1429.91 28.2001 Q1427.57 28.2001 1425.23 28.7209 Q1422.91 29.2417 1420.48 30.3413 L1420.48 8.64 Z" fill="#000000" fill-rule="nonzero" fill-opacity="1" /><path clip-path="url(#clip500)" d="M1501.44 25.6538 Q1503.44 22.0659 1506.21 20.3587 Q1508.99 18.6515 1512.75 18.6515 Q1517.82 18.6515 1520.57 22.2105 Q1523.32 25.7406 1523.32 32.2799 L1523.32 51.84 L1517.96 51.84 L1517.96 32.4535 Q1517.96 27.795 1516.31 25.5381 Q1514.66 23.2811 1511.28 23.2811 Q1507.14 23.2811 1504.74 26.03 Q1502.34 28.7788 1502.34 33.5241 L1502.34 51.84 L1496.98 51.84 L1496.98 32.4535 Q1496.98 27.7661 1495.33 25.5381 Q1493.69 23.2811 1490.24 23.2811 Q1486.16 23.2811 1483.76 26.0589 Q1481.36 28.8077 1481.36 33.5241 L1481.36 51.84 L1476.01 51.84 L1476.01 19.4328 L1481.36 19.4328 L1481.36 24.4675 Q1483.18 21.4872 1485.73 20.0693 Q1488.27 18.6515 1491.78 18.6515 Q1495.31 18.6515 1497.77 20.4455 Q1500.25 22.2395 1501.44 25.6538 Z" fill="#000000" fill-rule="nonzero" fill-opacity="1" /><path clip-path="url(#clip500)" d="M1554.59 20.3876 L1554.59 25.4223 Q1552.34 24.2649 1549.91 23.6862 Q1547.48 23.1075 1544.87 23.1075 Q1540.91 23.1075 1538.91 24.3228 Q1536.94 25.5381 1536.94 27.9686 Q1536.94 29.8204 1538.36 30.891 Q1539.78 31.9327 1544.06 32.8876 L1545.88 33.2926 Q1551.56 34.5079 1553.93 36.7359 Q1556.33 38.935 1556.33 42.8991 Q1556.33 47.4129 1552.74 50.046 Q1549.18 52.6791 1542.93 52.6791 Q1540.33 52.6791 1537.49 52.1583 Q1534.69 51.6664 1531.56 50.6537 L1531.56 45.156 Q1534.51 46.6896 1537.38 47.4708 Q1540.24 48.2231 1543.05 48.2231 Q1546.81 48.2231 1548.84 46.95 Q1550.86 45.6479 1550.86 43.3042 Q1550.86 41.134 1549.39 39.9766 Q1547.94 38.8192 1542.99 37.7486 L1541.14 37.3146 Q1536.19 36.273 1533.99 34.1318 Q1531.79 31.9616 1531.79 28.2001 Q1531.79 23.6283 1535.03 21.1399 Q1538.27 18.6515 1544.24 18.6515 Q1547.19 18.6515 1549.79 19.0855 Q1552.39 19.5196 1554.59 20.3876 Z" fill="#000000" fill-rule="nonzero" fill-opacity="1" /><path clip-path="url(#clip500)" d="M1580.55 19.4328 L1585.87 19.4328 L1592.53 44.722 L1599.15 19.4328 L1605.43 19.4328 L1612.09 44.722 L1618.71 19.4328 L1624.04 19.4328 L1615.56 51.84 L1609.28 51.84 L1602.31 25.2776 L1595.31 51.84 L1589.03 51.84 L1580.55 19.4328 Z" fill="#000000" fill-rule="nonzero" fill-opacity="1" /><path clip-path="url(#clip500)" d="M1632.11 19.4328 L1637.43 19.4328 L1637.43 51.84 L1632.11 51.84 L1632.11 19.4328 M1632.11 6.81709 L1637.43 6.81709 L1637.43 13.559 L1632.11 13.559 L1632.11 6.81709 Z" fill="#000000" fill-rule="nonzero" fill-opacity="1" /><path clip-path="url(#clip500)" d="M1669.9 24.3517 L1669.9 6.81709 L1675.22 6.81709 L1675.22 51.84 L1669.9 51.84 L1669.9 46.9789 Q1668.22 49.8724 1665.65 51.2902 Q1663.1 52.6791 1659.51 52.6791 Q1653.64 52.6791 1649.93 47.9916 Q1646.26 43.3042 1646.26 35.6653 Q1646.26 28.0265 1649.93 23.339 Q1653.64 18.6515 1659.51 18.6515 Q1663.1 18.6515 1665.65 20.0693 Q1668.22 21.4582 1669.9 24.3517 M1651.76 35.6653 Q1651.76 41.5391 1654.16 44.8956 Q1656.59 48.2231 1660.81 48.2231 Q1665.04 48.2231 1667.47 44.8956 Q1669.9 41.5391 1669.9 35.6653 Q1669.9 29.7915 1667.47 26.464 Q1665.04 23.1075 1660.81 23.1075 Q1656.59 23.1075 1654.16 26.464 Q1651.76 29.7915 1651.76 35.6653 Z" fill="#000000" fill-rule="nonzero" fill-opacity="1" /><path clip-path="url(#clip500)" d="M1691.46 10.2314 L1691.46 19.4328 L1702.42 19.4328 L1702.42 23.5705 L1691.46 23.5705 L1691.46 41.163 Q1691.46 45.1271 1692.53 46.2555 Q1693.63 47.384 1696.95 47.384 L1702.42 47.384 L1702.42 51.84 L1696.95 51.84 Q1690.79 51.84 1688.45 49.5541 Q1686.1 47.2393 1686.1 41.163 L1686.1 23.5705 L1682.2 23.5705 L1682.2 19.4328 L1686.1 19.4328 L1686.1 10.2314 L1691.46 10.2314 Z" fill="#000000" fill-rule="nonzero" fill-opacity="1" /><path clip-path="url(#clip500)" d="M1736.36 32.2799 L1736.36 51.84 L1731.04 51.84 L1731.04 32.4535 Q1731.04 27.8529 1729.25 25.567 Q1727.45 23.2811 1723.86 23.2811 Q1719.55 23.2811 1717.06 26.03 Q1714.58 28.7788 1714.58 33.5241 L1714.58 51.84 L1709.22 51.84 L1709.22 6.81709 L1714.58 6.81709 L1714.58 24.4675 Q1716.49 21.545 1719.06 20.0983 Q1721.66 18.6515 1725.05 18.6515 Q1730.63 18.6515 1733.5 22.1237 Q1736.36 25.567 1736.36 32.2799 Z" fill="#000000" fill-rule="nonzero" fill-opacity="1" /><path clip-path="url(#clip500)" d="M1747.68 24.9304 L1784.77 24.9304 L1784.77 29.7915 L1747.68 29.7915 L1747.68 24.9304 M1747.68 36.7359 L1784.77 36.7359 L1784.77 41.6549 L1747.68 41.6549 L1747.68 36.7359 Z" fill="#000000" fill-rule="nonzero" fill-opacity="1" /><path clip-path="url(#clip500)" d="M1809.89 12.4884 Q1805.37 12.4884 1803.09 16.9444 Q1800.83 21.3714 1800.83 30.2834 Q1800.83 39.1665 1803.09 43.6225 Q1805.37 48.0495 1809.89 48.0495 Q1814.43 48.0495 1816.69 43.6225 Q1818.97 39.1665 1818.97 30.2834 Q1818.97 21.3714 1816.69 16.9444 Q1814.43 12.4884 1809.89 12.4884 M1809.89 7.85875 Q1817.15 7.85875 1820.97 13.6168 Q1824.82 19.346 1824.82 30.2834 Q1824.82 41.1919 1820.97 46.95 Q1817.15 52.6791 1809.89 52.6791 Q1802.62 52.6791 1798.78 46.95 Q1794.96 41.1919 1794.96 30.2834 Q1794.96 19.346 1798.78 13.6168 Q1802.62 7.85875 1809.89 7.85875 Z" fill="#000000" fill-rule="nonzero" fill-opacity="1" /><path clip-path="url(#clip500)" d="M1835.09 44.4905 L1841.2 44.4905 L1841.2 51.84 L1835.09 51.84 L1835.09 44.4905 Z" fill="#000000" fill-rule="nonzero" fill-opacity="1" /><path clip-path="url(#clip500)" d="M1853.98 8.64 L1876.93 8.64 L1876.93 13.559 L1859.34 13.559 L1859.34 24.1492 Q1860.61 23.7152 1861.88 23.5126 Q1863.16 23.2811 1864.43 23.2811 Q1871.66 23.2811 1875.89 27.2452 Q1880.11 31.2093 1880.11 37.9801 Q1880.11 44.9535 1875.77 48.8308 Q1871.43 52.6791 1863.53 52.6791 Q1860.81 52.6791 1857.98 52.2162 Q1855.17 51.7532 1852.16 50.8273 L1852.16 44.9535 Q1854.77 46.3713 1857.54 47.0657 Q1860.32 47.7602 1863.42 47.7602 Q1868.42 47.7602 1871.35 45.1271 Q1874.27 42.494 1874.27 37.9801 Q1874.27 33.4663 1871.35 30.8332 Q1868.42 28.2001 1863.42 28.2001 Q1861.07 28.2001 1858.73 28.7209 Q1856.42 29.2417 1853.98 30.3413 L1853.98 8.64 Z" fill="#000000" fill-rule="nonzero" fill-opacity="1" /><path clip-path="url(#clip500)" d="M1933.04 20.677 L1933.04 25.6538 Q1930.78 24.4096 1928.49 23.802 Q1926.24 23.1654 1923.92 23.1654 Q1918.74 23.1654 1915.88 26.464 Q1913.01 29.7336 1913.01 35.6653 Q1913.01 41.597 1915.88 44.8956 Q1918.74 48.1653 1923.92 48.1653 Q1926.24 48.1653 1928.49 47.5576 Q1930.78 46.921 1933.04 45.6768 L1933.04 50.5958 Q1930.81 51.6375 1928.41 52.1583 Q1926.03 52.6791 1923.34 52.6791 Q1916.02 52.6791 1911.71 48.0784 Q1907.4 43.4778 1907.4 35.6653 Q1907.4 27.7371 1911.74 23.1943 Q1916.11 18.6515 1923.69 18.6515 Q1926.15 18.6515 1928.49 19.1724 Q1930.84 19.6642 1933.04 20.677 Z" fill="#000000" fill-rule="nonzero" fill-opacity="1" /><path clip-path="url(#clip500)" d="M1967.53 25.6538 Q1969.52 22.0659 1972.3 20.3587 Q1975.08 18.6515 1978.84 18.6515 Q1983.9 18.6515 1986.65 22.2105 Q1989.4 25.7406 1989.4 32.2799 L1989.4 51.84 L1984.05 51.84 L1984.05 32.4535 Q1984.05 27.795 1982.4 25.5381 Q1980.75 23.2811 1977.36 23.2811 Q1973.23 23.2811 1970.82 26.03 Q1968.42 28.7788 1968.42 33.5241 L1968.42 51.84 L1963.07 51.84 L1963.07 32.4535 Q1963.07 27.7661 1961.42 25.5381 Q1959.77 23.2811 1956.33 23.2811 Q1952.25 23.2811 1949.85 26.0589 Q1947.44 28.8077 1947.44 33.5241 L1947.44 51.84 L1942.09 51.84 L1942.09 19.4328 L1947.44 19.4328 L1947.44 24.4675 Q1949.27 21.4872 1951.81 20.0693 Q1954.36 18.6515 1957.86 18.6515 Q1961.39 18.6515 1963.85 20.4455 Q1966.34 22.2395 1967.53 25.6538 Z" fill="#000000" fill-rule="nonzero" fill-opacity="1" /><polyline clip-path="url(#clip501)" style="stroke:#009af9; stroke-linecap:round; stroke-linejoin:round; stroke-width:6; stroke-opacity:1; fill:none" points="316.532,1133.38 324.486,1125.74 332.44,1118.01 340.394,1110.25 348.348,1102.49 356.302,1094.78 364.256,1087.14 372.21,1079.64 380.164,1072.3 388.118,1065.17 396.072,1058.3 404.026,1051.71 411.98,1045.46 419.934,1039.58 427.888,1034.12 435.842,1029.09 443.796,1024.55 451.75,1020.52 459.704,1017.04 467.658,1014.13 475.612,1011.81 483.566,1010.12 491.52,1009.07 499.474,1008.68 507.428,1008.96 515.382,1009.93 523.336,1011.6 531.29,1013.96 539.244,1017.03 547.198,1020.79 555.152,1025.25 563.106,1030.39 571.06,1036.2 579.014,1042.67 586.968,1049.77 594.922,1057.48 602.876,1065.78 610.83,1074.63 618.784,1083.99 626.738,1093.84 634.692,1104.13 642.646,1114.82 650.6,1125.85 658.554,1137.19 666.508,1148.77 674.462,1160.55 682.416,1172.47 690.37,1184.47 698.324,1196.49 706.278,1208.46 714.232,1220.33 722.186,1232.03 730.14,1243.5 738.094,1254.67 746.048,1265.47 754.002,1275.85 761.956,1285.73 769.91,1295.05 777.864,1303.75 785.818,1311.76 793.772,1319.03 801.726,1325.5 809.68,1331.1 817.634,1335.79 825.588,1339.51 833.542,1342.22 841.496,1343.86 849.45,1344.4 857.404,1343.79 865.358,1342 873.312,1339 881.266,1334.76 889.22,1329.26 897.174,1322.48 905.128,1314.4 913.082,1305.02 921.036,1294.33 928.99,1282.33 936.944,1269.03 944.898,1254.43 952.852,1238.56 960.806,1221.43 968.76,1203.06 976.714,1183.5 984.668,1162.77 992.622,1140.91 1000.58,1117.96 1008.53,1093.99 1016.48,1069.03 1024.44,1043.16 1032.39,1016.42 1040.35,988.885 1048.3,960.627 1056.25,931.718 1064.21,902.233 1072.16,872.252 1080.12,841.857 1088.07,811.131 1096.02,780.161 1103.98,749.035 1111.93,717.844 1119.89,686.677 1127.84,655.626 1135.79,624.784 1143.75,594.243 1151.7,564.094 1159.66,534.43 1167.61,505.341 1175.56,476.917 1183.52,449.246 1191.47,422.413 1199.43,396.503 1207.38,371.597 1215.33,347.773 1223.29,325.107 1231.24,303.672 1239.2,283.534 1247.15,264.76 1255.1,247.408 1263.06,231.535 1271.01,217.192 1278.97,204.424 1286.92,193.274 1294.87,183.778 1302.83,175.966 1310.78,169.863 1318.74,165.49 1326.69,162.86 1334.64,161.983 1342.6,162.86 1350.55,165.49 1358.51,169.863 1366.46,175.966 1374.41,183.778 1382.37,193.274 1390.32,204.424 1398.28,217.192 1406.23,231.535 1414.18,247.408 1422.14,264.76 1430.09,283.534 1438.05,303.672 1446,325.107 1453.95,347.773 1461.91,371.597 1469.86,396.503 1477.82,422.413 1485.77,449.246 1493.72,476.917 1501.68,505.341 1509.63,534.43 1517.59,564.094 1525.54,594.243 1533.49,624.784 1541.45,655.626 1549.4,686.677 1557.36,717.844 1565.31,749.035 1573.26,780.161 1581.22,811.131 1589.17,841.857 1597.13,872.252 1605.08,902.233 1613.03,931.718 1620.99,960.627 1628.94,988.885 1636.9,1016.42 1644.85,1043.16 1652.8,1069.03 1660.76,1093.99 1668.71,1117.96 1676.67,1140.91 1684.62,1162.77 1692.57,1183.5 1700.53,1203.06 1708.48,1221.43 1716.44,1238.56 1724.39,1254.43 1732.34,1269.03 1740.3,1282.33 1748.25,1294.33 1756.21,1305.02 1764.16,1314.4 1772.11,1322.48 1780.07,1329.26 1788.02,1334.76 1795.98,1339 1803.93,1342 1811.88,1343.79 1819.84,1344.4 1827.79,1343.86 1835.75,1342.22 1843.7,1339.51 1851.65,1335.79 1859.61,1331.1 1867.56,1325.5 1875.52,1319.03 1883.47,1311.76 1891.42,1303.75 1899.38,1295.05 1907.33,1285.73 1915.29,1275.85 1923.24,1265.47 1931.19,1254.67 1939.15,1243.5 1947.1,1232.03 1955.06,1220.33 1963.01,1208.46 1970.96,1196.49 1978.92,1184.47 1986.87,1172.47 1994.83,1160.55 2002.78,1148.77 2010.73,1137.19 2018.69,1125.85 2026.64,1114.82 2034.6,1104.13 2042.55,1093.84 2050.5,1083.99 2058.46,1074.63 2066.41,1065.78 2074.37,1057.48 2082.32,1049.77 2090.27,1042.67 2098.23,1036.2 2106.18,1030.39 2114.14,1025.25 2122.09,1020.79 2130.04,1017.03 2138,1013.96 2145.95,1011.6 2153.91,1009.93 2161.86,1008.96 2169.81,1008.68 2177.77,1009.07 2185.72,1010.12 2193.68,1011.81 2201.63,1014.13 2209.58,1017.04 2217.54,1020.52 2225.49,1024.55 2233.45,1029.09 2241.4,1034.12 2249.35,1039.58 2257.31,1045.46 2265.26,1051.71 2273.22,1058.3 2281.17,1065.17 2289.12,1072.3 2297.08,1079.64 2305.03,1087.14 2312.99,1094.78 2320.94,1102.49 2328.89,1110.25 2336.85,1118.01 2344.8,1125.74 "/>
<polyline clip-path="url(#clip501)" style="stroke:#e26f46; stroke-linecap:round; stroke-linejoin:round; stroke-width:6; stroke-opacity:1; fill:none" points="316.532,1385.91 324.486,1104.86 332.44,1105.73 340.394,1106.17 348.348,1106.15 356.302,1105.81 364.256,1105.1 372.21,1104.13 380.164,1102.89 388.118,1101.47 396.072,1099.84 404.026,1098.12 411.98,1096.24 419.934,1094.36 427.888,1092.37 435.842,1090.47 443.796,1088.53 451.75,1086.41 459.704,1085.2 467.658,1083.31 475.612,1081.68 483.566,1080.32 491.52,1079.28 499.474,1078.49 507.428,1077.96 515.382,1077.67 523.336,1077.67 531.29,1077.98 539.244,1078.63 547.198,1079.67 555.152,1081.08 563.106,1082.93 571.06,1085.17 579.014,1087.88 586.968,1091.04 594.922,1094.48 602.876,1098.59 610.83,1103.03 618.784,1107.86 626.738,1113.09 634.692,1118.76 642.646,1124.83 650.6,1131.29 658.554,1138.07 666.508,1145.17 674.462,1152.55 682.416,1160.2 690.37,1168.09 698.324,1176.16 706.278,1184.41 714.232,1192.74 722.186,1201.14 730.14,1209.6 738.094,1217.91 746.048,1226.19 754.002,1234.32 761.956,1242.22 769.91,1249.84 777.864,1257.13 785.818,1264.04 793.772,1270.52 801.726,1276.47 809.68,1281.85 817.634,1286.57 825.588,1290.59 833.542,1293.86 841.496,1296.3 849.45,1297.89 857.404,1298.53 865.358,1298.17 873.312,1296.82 881.266,1294.34 889.22,1290.76 897.174,1286.02 905.128,1280.09 913.082,1272.94 921.036,1264.53 928.99,1254.85 936.944,1243.89 944.898,1231.64 952.852,1218.09 960.806,1203.24 968.76,1187.08 976.714,1169.65 984.668,1150.95 992.622,1131.02 1000.58,1109.9 1008.53,1087.58 1016.48,1064.16 1024.44,1039.64 1032.39,1014.1 1040.35,987.589 1048.3,960.19 1056.25,931.957 1064.21,902.965 1072.16,873.293 1080.12,843.03 1088.07,812.265 1096.02,781.089 1103.98,749.602 1111.93,717.883 1119.89,686.058 1127.84,654.213 1135.79,622.463 1143.75,590.928 1151.7,559.673 1159.66,528.841 1167.61,498.522 1175.56,468.823 1183.52,439.848 1191.47,411.711 1199.43,384.508 1207.38,358.335 1215.33,333.286 1223.29,309.453 1231.24,286.927 1239.2,265.788 1247.15,246.131 1255.1,228.001 1263.06,211.488 1271.01,196.646 1278.97,183.524 1286.92,172.2 1294.87,162.685 1302.83,155.03 1310.78,149.261 1318.74,145.402 1326.69,143.465 1334.64,143.465 1342.6,145.402 1350.55,149.261 1358.51,155.03 1366.46,162.685 1374.41,172.2 1382.37,183.524 1390.32,196.646 1398.28,211.488 1406.23,228.001 1414.18,246.131 1422.14,265.788 1430.09,286.927 1438.05,309.453 1446,333.286 1453.95,358.335 1461.91,384.508 1469.86,411.711 1477.82,439.848 1485.77,468.823 1493.72,498.522 1501.68,528.841 1509.63,559.673 1517.59,590.928 1525.54,622.463 1533.49,654.213 1541.45,686.058 1549.4,717.883 1557.36,749.602 1565.31,781.089 1573.26,812.265 1581.22,843.03 1589.17,873.293 1597.13,902.965 1605.08,931.957 1613.03,960.19 1620.99,987.589 1628.94,1014.1 1636.9,1039.64 1644.85,1064.16 1652.8,1087.58 1660.76,1109.9 1668.71,1131.02 1676.67,1150.95 1684.62,1169.65 1692.57,1187.08 1700.53,1203.24 1708.48,1218.09 1716.44,1231.64 1724.39,1243.89 1732.34,1254.85 1740.3,1264.53 1748.25,1272.94 1756.21,1280.09 1764.16,1286.02 1772.11,1290.76 1780.07,1294.34 1788.02,1296.82 1795.98,1298.17 1803.93,1298.53 1811.88,1297.89 1819.84,1296.3 1827.79,1293.86 1835.75,1290.59 1843.7,1286.57 1851.65,1281.85 1859.61,1276.47 1867.56,1270.52 1875.52,1264.04 1883.47,1257.13 1891.42,1249.84 1899.38,1242.22 1907.33,1234.32 1915.29,1226.19 1923.24,1217.91 1931.19,1209.6 1939.15,1201.14 1947.1,1192.74 1955.06,1184.41 1963.01,1176.16 1970.96,1168.09 1978.92,1160.2 1986.87,1152.55 1994.83,1145.17 2002.78,1138.07 2010.73,1131.29 2018.69,1124.83 2026.64,1118.76 2034.6,1113.09 2042.55,1107.86 2050.5,1103.03 2058.46,1098.59 2066.41,1094.48 2074.37,1091.04 2082.32,1087.88 2090.27,1085.17 2098.23,1082.93 2106.18,1081.08 2114.14,1079.67 2122.09,1078.63 2130.04,1077.98 2138,1077.67 2145.95,1077.67 2153.91,1077.96 2161.86,1078.49 2169.81,1079.28 2177.77,1080.32 2185.72,1081.68 2193.68,1083.31 2201.63,1085.2 2209.58,1086.41 2217.54,1088.53 2225.49,1090.47 2233.45,1092.37 2241.4,1094.36 2249.35,1096.24 2257.31,1098.12 2265.26,1099.84 2273.22,1101.47 2281.17,1102.89 2289.12,1104.13 2297.08,1105.1 2305.03,1105.81 2312.99,1106.15 2320.94,1106.17 2328.89,1105.73 2336.85,1104.86 2344.8,1385.91 "/>
<polyline clip-path="url(#clip501)" style="stroke:#3da44d; stroke-linecap:round; stroke-linejoin:round; stroke-width:6; stroke-opacity:1; fill:none" points="316.532,1127.92 324.486,1126.32 332.44,1124.75 340.394,1123.04 348.348,1121.27 356.302,1119.41 364.256,1117.5 372.21,1115.52 380.164,1113.52 388.118,1111.48 396.072,1109.43 404.026,1107.38 411.98,1105.35 419.934,1103.36 427.888,1101.42 435.842,1099.55 443.796,1097.78 451.75,1096.12 459.704,1094.59 467.658,1093.21 475.612,1092.01 483.566,1091 491.52,1090.2 499.474,1089.64 507.428,1089.33 515.382,1089.3 523.336,1089.55 531.29,1090.12 539.244,1091 547.198,1092.22 555.152,1093.79 563.106,1095.72 571.06,1098.02 579.014,1100.69 586.968,1103.74 594.922,1107.18 602.876,1110.99 610.83,1115.19 618.784,1119.75 626.738,1124.68 634.692,1129.97 642.646,1135.59 650.6,1141.53 658.554,1147.77 666.508,1154.29 674.462,1161.06 682.416,1168.05 690.37,1175.23 698.324,1182.57 706.278,1190.02 714.232,1197.54 722.186,1205.09 730.14,1212.63 738.094,1220.11 746.048,1227.47 754.002,1234.67 761.956,1241.65 769.91,1248.35 777.864,1254.73 785.818,1260.72 793.772,1266.26 801.726,1271.3 809.68,1275.79 817.634,1279.65 825.588,1282.84 833.542,1285.3 841.496,1286.98 849.45,1287.81 857.404,1287.76 865.358,1286.77 873.312,1284.8 881.266,1281.79 889.22,1277.72 897.174,1272.55 905.128,1266.24 913.082,1258.77 921.036,1250.11 928.99,1240.24 936.944,1229.15 944.898,1216.83 952.852,1203.27 960.806,1188.48 968.76,1172.46 976.714,1155.22 984.668,1136.78 992.622,1117.17 1000.58,1096.41 1008.53,1074.54 1016.48,1051.6 1024.44,1027.64 1032.39,1002.7 1040.35,976.853 1048.3,950.147 1056.25,922.656 1064.21,894.45 1072.16,865.606 1080.12,836.204 1088.07,806.33 1096.02,776.072 1103.98,745.52 1111.93,714.769 1119.89,683.916 1127.84,653.06 1135.79,622.301 1143.75,591.74 1151.7,561.481 1159.66,531.626 1167.61,502.276 1175.56,473.536 1183.52,445.504 1191.47,418.28 1199.43,391.962 1207.38,366.644 1215.33,342.419 1223.29,319.373 1231.24,297.593 1239.2,277.158 1247.15,258.144 1255.1,240.623 1263.06,224.659 1271.01,210.313 1278.97,197.639 1286.92,186.685 1294.87,177.492 1302.83,170.095 1310.78,164.522 1318.74,160.796 1326.69,158.929 1334.64,158.929 1342.6,160.796 1350.55,164.522 1358.51,170.095 1366.46,177.492 1374.41,186.685 1382.37,197.639 1390.32,210.313 1398.28,224.659 1406.23,240.623 1414.18,258.144 1422.14,277.158 1430.09,297.593 1438.05,319.373 1446,342.419 1453.95,366.644 1461.91,391.962 1469.86,418.28 1477.82,445.504 1485.77,473.536 1493.72,502.276 1501.68,531.626 1509.63,561.481 1517.59,591.74 1525.54,622.301 1533.49,653.06 1541.45,683.916 1549.4,714.769 1557.36,745.52 1565.31,776.072 1573.26,806.33 1581.22,836.204 1589.17,865.606 1597.13,894.45 1605.08,922.656 1613.03,950.147 1620.99,976.853 1628.94,1002.7 1636.9,1027.64 1644.85,1051.6 1652.8,1074.54 1660.76,1096.41 1668.71,1117.17 1676.67,1136.78 1684.62,1155.22 1692.57,1172.46 1700.53,1188.48 1708.48,1203.27 1716.44,1216.83 1724.39,1229.15 1732.34,1240.24 1740.3,1250.11 1748.25,1258.77 1756.21,1266.24 1764.16,1272.55 1772.11,1277.72 1780.07,1281.79 1788.02,1284.8 1795.98,1286.77 1803.93,1287.76 1811.88,1287.81 1819.84,1286.98 1827.79,1285.3 1835.75,1282.84 1843.7,1279.65 1851.65,1275.79 1859.61,1271.3 1867.56,1266.26 1875.52,1260.72 1883.47,1254.73 1891.42,1248.35 1899.38,1241.65 1907.33,1234.67 1915.29,1227.47 1923.24,1220.11 1931.19,1212.63 1939.15,1205.09 1947.1,1197.54 1955.06,1190.02 1963.01,1182.57 1970.96,1175.23 1978.92,1168.05 1986.87,1161.06 1994.83,1154.29 2002.78,1147.77 2010.73,1141.53 2018.69,1135.59 2026.64,1129.97 2034.6,1124.68 2042.55,1119.75 2050.5,1115.19 2058.46,1110.99 2066.41,1107.18 2074.37,1103.74 2082.32,1100.69 2090.27,1098.02 2098.23,1095.72 2106.18,1093.79 2114.14,1092.22 2122.09,1091 2130.04,1090.12 2138,1089.55 2145.95,1089.3 2153.91,1089.33 2161.86,1089.64 2169.81,1090.2 2177.77,1091 2185.72,1092.01 2193.68,1093.21 2201.63,1094.59 2209.58,1096.12 2217.54,1097.78 2225.49,1099.55 2233.45,1101.42 2241.4,1103.36 2249.35,1105.35 2257.31,1107.38 2265.26,1109.43 2273.22,1111.48 2281.17,1113.52 2289.12,1115.52 2297.08,1117.5 2305.03,1119.41 2312.99,1121.27 2320.94,1123.04 2328.89,1124.75 2336.85,1126.32 2344.8,1127.92 "/>
<path clip-path="url(#clip500)" d="M1772.37 357.452 L2284.88 357.452 L2284.88 150.092 L1772.37 150.092  Z" fill="#ffffff" fill-rule="evenodd" fill-opacity="1"/>
<polyline clip-path="url(#clip500)" style="stroke:#000000; stroke-linecap:round; stroke-linejoin:round; stroke-width:4; stroke-opacity:1; fill:none" points="1772.37,357.452 2284.88,357.452 2284.88,150.092 1772.37,150.092 1772.37,357.452 "/>
<polyline clip-path="url(#clip500)" style="stroke:#009af9; stroke-linecap:round; stroke-linejoin:round; stroke-width:6; stroke-opacity:1; fill:none" points="1795,201.932 1930.75,201.932 "/>
<path clip-path="url(#clip500)" d="M1975.62 185.786 L1975.62 190.346 Q1972.95 189.073 1970.59 188.448 Q1968.23 187.823 1966.03 187.823 Q1962.21 187.823 1960.13 189.304 Q1958.07 190.786 1958.07 193.517 Q1958.07 195.809 1959.43 196.99 Q1960.82 198.147 1964.67 198.865 L1967.49 199.443 Q1972.72 200.439 1975.2 202.962 Q1977.7 205.462 1977.7 209.675 Q1977.7 214.698 1974.32 217.29 Q1970.96 219.883 1964.46 219.883 Q1962 219.883 1959.23 219.327 Q1956.47 218.772 1953.51 217.684 L1953.51 212.869 Q1956.36 214.466 1959.09 215.277 Q1961.82 216.087 1964.46 216.087 Q1968.46 216.087 1970.64 214.513 Q1972.81 212.939 1972.81 210.022 Q1972.81 207.476 1971.24 206.04 Q1969.69 204.605 1966.12 203.888 L1963.28 203.332 Q1958.05 202.291 1955.71 200.068 Q1953.37 197.846 1953.37 193.888 Q1953.37 189.304 1956.59 186.666 Q1959.83 184.027 1965.5 184.027 Q1967.93 184.027 1970.45 184.467 Q1972.98 184.906 1975.62 185.786 Z" fill="#000000" fill-rule="nonzero" fill-opacity="1" /><path clip-path="url(#clip500)" d="M1984.8 193.286 L1989.06 193.286 L1989.06 219.212 L1984.8 219.212 L1984.8 193.286 M1984.8 183.193 L1989.06 183.193 L1989.06 188.587 L1984.8 188.587 L1984.8 183.193 Z" fill="#000000" fill-rule="nonzero" fill-opacity="1" /><path clip-path="url(#clip500)" d="M2019.53 203.564 L2019.53 219.212 L2015.27 219.212 L2015.27 203.703 Q2015.27 200.022 2013.83 198.193 Q2012.4 196.365 2009.53 196.365 Q2006.08 196.365 2004.09 198.564 Q2002.1 200.763 2002.1 204.559 L2002.1 219.212 L1997.81 219.212 L1997.81 193.286 L2002.1 193.286 L2002.1 197.314 Q2003.62 194.976 2005.68 193.818 Q2007.77 192.661 2010.48 192.661 Q2014.94 192.661 2017.24 195.439 Q2019.53 198.193 2019.53 203.564 Z" fill="#000000" fill-rule="nonzero" fill-opacity="1" /><path clip-path="url(#clip500)" d="M2046.68 194.281 L2046.68 198.263 Q2044.87 197.267 2043.05 196.781 Q2041.24 196.272 2039.39 196.272 Q2035.24 196.272 2032.95 198.911 Q2030.66 201.527 2030.66 206.272 Q2030.66 211.017 2032.95 213.656 Q2035.24 216.272 2039.39 216.272 Q2041.24 216.272 2043.05 215.786 Q2044.87 215.277 2046.68 214.281 L2046.68 218.216 Q2044.9 219.05 2042.98 219.466 Q2041.08 219.883 2038.92 219.883 Q2033.07 219.883 2029.62 216.202 Q2026.17 212.522 2026.17 206.272 Q2026.17 199.929 2029.64 196.295 Q2033.14 192.661 2039.2 192.661 Q2041.17 192.661 2043.05 193.078 Q2044.92 193.471 2046.68 194.281 Z" fill="#000000" fill-rule="nonzero" fill-opacity="1" /><path clip-path="url(#clip500)" d="M2090.71 203.564 L2090.71 219.212 L2086.45 219.212 L2086.45 203.703 Q2086.45 200.022 2085.01 198.193 Q2083.58 196.365 2080.71 196.365 Q2077.26 196.365 2075.27 198.564 Q2073.28 200.763 2073.28 204.559 L2073.28 219.212 L2068.99 219.212 L2068.99 193.286 L2073.28 193.286 L2073.28 197.314 Q2074.8 194.976 2076.86 193.818 Q2078.95 192.661 2081.66 192.661 Q2086.12 192.661 2088.42 195.439 Q2090.71 198.193 2090.71 203.564 Z" fill="#000000" fill-rule="nonzero" fill-opacity="1" /><path clip-path="url(#clip500)" d="M2099.2 183.193 L2103.46 183.193 L2103.46 219.212 L2099.2 219.212 L2099.2 183.193 Z" fill="#000000" fill-rule="nonzero" fill-opacity="1" /><path clip-path="url(#clip500)" d="M2122.42 196.272 Q2118.99 196.272 2117 198.957 Q2115.01 201.619 2115.01 206.272 Q2115.01 210.925 2116.98 213.61 Q2118.97 216.272 2122.42 216.272 Q2125.82 216.272 2127.81 213.587 Q2129.8 210.902 2129.8 206.272 Q2129.8 201.666 2127.81 198.98 Q2125.82 196.272 2122.42 196.272 M2122.42 192.661 Q2127.98 192.661 2131.15 196.272 Q2134.32 199.883 2134.32 206.272 Q2134.32 212.638 2131.15 216.272 Q2127.98 219.883 2122.42 219.883 Q2116.84 219.883 2113.67 216.272 Q2110.52 212.638 2110.52 206.272 Q2110.52 199.883 2113.67 196.272 Q2116.84 192.661 2122.42 192.661 Z" fill="#000000" fill-rule="nonzero" fill-opacity="1" /><path clip-path="url(#clip500)" d="M2159.99 206.272 Q2159.99 201.573 2158.04 198.911 Q2156.12 196.226 2152.74 196.226 Q2149.36 196.226 2147.42 198.911 Q2145.5 201.573 2145.5 206.272 Q2145.5 210.971 2147.42 213.656 Q2149.36 216.318 2152.74 216.318 Q2156.12 216.318 2158.04 213.656 Q2159.99 210.971 2159.99 206.272 M2145.5 197.221 Q2146.84 194.906 2148.88 193.795 Q2150.94 192.661 2153.79 192.661 Q2158.51 192.661 2161.45 196.411 Q2164.41 200.161 2164.41 206.272 Q2164.41 212.383 2161.45 216.133 Q2158.51 219.883 2153.79 219.883 Q2150.94 219.883 2148.88 218.772 Q2146.84 217.638 2145.5 215.323 L2145.5 219.212 L2141.22 219.212 L2141.22 183.193 L2145.5 183.193 L2145.5 197.221 Z" fill="#000000" fill-rule="nonzero" fill-opacity="1" /><path clip-path="url(#clip500)" d="M2193.65 205.184 L2193.65 207.267 L2174.06 207.267 Q2174.34 211.665 2176.7 213.98 Q2179.09 216.272 2183.32 216.272 Q2185.78 216.272 2188.07 215.67 Q2190.38 215.068 2192.65 213.865 L2192.65 217.892 Q2190.36 218.864 2187.95 219.374 Q2185.54 219.883 2183.07 219.883 Q2176.86 219.883 2173.23 216.272 Q2169.62 212.661 2169.62 206.503 Q2169.62 200.138 2173.04 196.411 Q2176.49 192.661 2182.33 192.661 Q2187.56 192.661 2190.59 196.041 Q2193.65 199.397 2193.65 205.184 M2189.39 203.934 Q2189.34 200.439 2187.42 198.355 Q2185.52 196.272 2182.37 196.272 Q2178.81 196.272 2176.66 198.286 Q2174.53 200.3 2174.2 203.957 L2189.39 203.934 Z" fill="#000000" fill-rule="nonzero" fill-opacity="1" /><path clip-path="url(#clip500)" d="M2201.19 197.684 L2230.87 197.684 L2230.87 201.573 L2201.19 201.573 L2201.19 197.684 M2201.19 207.128 L2230.87 207.128 L2230.87 211.064 L2201.19 211.064 L2201.19 207.128 Z" fill="#000000" fill-rule="nonzero" fill-opacity="1" /><path clip-path="url(#clip500)" d="M2255.13 200.578 Q2258.48 201.295 2260.36 203.564 Q2262.26 205.832 2262.26 209.165 Q2262.26 214.281 2258.74 217.082 Q2255.22 219.883 2248.74 219.883 Q2246.56 219.883 2244.25 219.443 Q2241.96 219.027 2239.5 218.17 L2239.5 213.656 Q2241.45 214.79 2243.76 215.369 Q2246.08 215.948 2248.6 215.948 Q2253 215.948 2255.29 214.212 Q2257.6 212.476 2257.6 209.165 Q2257.6 206.11 2255.45 204.397 Q2253.32 202.661 2249.5 202.661 L2245.47 202.661 L2245.47 198.818 L2249.69 198.818 Q2253.14 198.818 2254.97 197.453 Q2256.79 196.064 2256.79 193.471 Q2256.79 190.809 2254.9 189.397 Q2253.02 187.962 2249.5 187.962 Q2247.58 187.962 2245.38 188.379 Q2243.18 188.795 2240.54 189.675 L2240.54 185.508 Q2243.21 184.767 2245.52 184.397 Q2247.86 184.027 2249.92 184.027 Q2255.24 184.027 2258.35 186.457 Q2261.45 188.865 2261.45 192.985 Q2261.45 195.855 2259.8 197.846 Q2258.16 199.814 2255.13 200.578 Z" fill="#000000" fill-rule="nonzero" fill-opacity="1" /><polyline clip-path="url(#clip500)" style="stroke:#e26f46; stroke-linecap:round; stroke-linejoin:round; stroke-width:6; stroke-opacity:1; fill:none" points="1795,253.772 1930.75,253.772 "/>
<path clip-path="url(#clip500)" d="M1975.62 237.626 L1975.62 242.186 Q1972.95 240.913 1970.59 240.288 Q1968.23 239.663 1966.03 239.663 Q1962.21 239.663 1960.13 241.144 Q1958.07 242.626 1958.07 245.357 Q1958.07 247.649 1959.43 248.83 Q1960.82 249.987 1964.67 250.705 L1967.49 251.283 Q1972.72 252.279 1975.2 254.802 Q1977.7 257.302 1977.7 261.515 Q1977.7 266.538 1974.32 269.13 Q1970.96 271.723 1964.46 271.723 Q1962 271.723 1959.23 271.167 Q1956.47 270.612 1953.51 269.524 L1953.51 264.709 Q1956.36 266.306 1959.09 267.117 Q1961.82 267.927 1964.46 267.927 Q1968.46 267.927 1970.64 266.353 Q1972.81 264.779 1972.81 261.862 Q1972.81 259.316 1971.24 257.88 Q1969.69 256.445 1966.12 255.728 L1963.28 255.172 Q1958.05 254.131 1955.71 251.908 Q1953.37 249.686 1953.37 245.728 Q1953.37 241.144 1956.59 238.506 Q1959.83 235.867 1965.5 235.867 Q1967.93 235.867 1970.45 236.307 Q1972.98 236.746 1975.62 237.626 Z" fill="#000000" fill-rule="nonzero" fill-opacity="1" /><path clip-path="url(#clip500)" d="M1984.99 236.492 L1989.67 236.492 L1989.67 267.117 L2006.49 267.117 L2006.49 271.052 L1984.99 271.052 L1984.99 236.492 Z" fill="#000000" fill-rule="nonzero" fill-opacity="1" /><path clip-path="url(#clip500)" d="M2027.79 254.848 Q2029.3 255.357 2030.71 257.024 Q2032.14 258.691 2033.58 261.607 L2038.32 271.052 L2033.3 271.052 L2028.88 262.186 Q2027.17 258.714 2025.55 257.58 Q2023.95 256.445 2021.17 256.445 L2016.08 256.445 L2016.08 271.052 L2011.4 271.052 L2011.4 236.492 L2021.96 236.492 Q2027.88 236.492 2030.8 238.969 Q2033.72 241.445 2033.72 246.445 Q2033.72 249.709 2032.19 251.862 Q2030.68 254.015 2027.79 254.848 M2016.08 240.334 L2016.08 252.603 L2021.96 252.603 Q2025.34 252.603 2027.05 251.052 Q2028.79 249.478 2028.79 246.445 Q2028.79 243.413 2027.05 241.885 Q2025.34 240.334 2021.96 240.334 L2016.08 240.334 Z" fill="#000000" fill-rule="nonzero" fill-opacity="1" /><path clip-path="url(#clip500)" d="M2075.75 245.89 L2075.75 249.918 Q2073.95 248.992 2072 248.529 Q2070.06 248.066 2067.98 248.066 Q2064.8 248.066 2063.21 249.038 Q2061.63 250.01 2061.63 251.955 Q2061.63 253.436 2062.77 254.293 Q2063.9 255.126 2067.33 255.89 L2068.79 256.214 Q2073.32 257.186 2075.22 258.968 Q2077.14 260.728 2077.14 263.899 Q2077.14 267.51 2074.27 269.617 Q2071.42 271.723 2066.42 271.723 Q2064.34 271.723 2062.07 271.306 Q2059.83 270.913 2057.33 270.103 L2057.33 265.705 Q2059.69 266.931 2061.98 267.556 Q2064.27 268.158 2066.52 268.158 Q2069.53 268.158 2071.15 267.14 Q2072.77 266.098 2072.77 264.223 Q2072.77 262.487 2071.59 261.561 Q2070.43 260.635 2066.47 259.779 L2064.99 259.431 Q2061.03 258.598 2059.27 256.885 Q2057.51 255.149 2057.51 252.14 Q2057.51 248.482 2060.11 246.492 Q2062.7 244.501 2067.47 244.501 Q2069.83 244.501 2071.91 244.848 Q2073.99 245.195 2075.75 245.89 Z" fill="#000000" fill-rule="nonzero" fill-opacity="1" /><path clip-path="url(#clip500)" d="M2088.14 237.765 L2088.14 245.126 L2096.91 245.126 L2096.91 248.436 L2088.14 248.436 L2088.14 262.51 Q2088.14 265.681 2088.99 266.584 Q2089.87 267.487 2092.54 267.487 L2096.91 267.487 L2096.91 271.052 L2092.54 271.052 Q2087.61 271.052 2085.73 269.223 Q2083.86 267.371 2083.86 262.51 L2083.86 248.436 L2080.73 248.436 L2080.73 245.126 L2083.86 245.126 L2083.86 237.765 L2088.14 237.765 Z" fill="#000000" fill-rule="nonzero" fill-opacity="1" /><path clip-path="url(#clip500)" d="M2121.7 267.163 L2121.7 280.913 L2117.42 280.913 L2117.42 245.126 L2121.7 245.126 L2121.7 249.061 Q2123.04 246.746 2125.08 245.635 Q2127.14 244.501 2129.99 244.501 Q2134.71 244.501 2137.65 248.251 Q2140.61 252.001 2140.61 258.112 Q2140.61 264.223 2137.65 267.973 Q2134.71 271.723 2129.99 271.723 Q2127.14 271.723 2125.08 270.612 Q2123.04 269.478 2121.7 267.163 M2136.19 258.112 Q2136.19 253.413 2134.25 250.751 Q2132.33 248.066 2128.95 248.066 Q2125.57 248.066 2123.62 250.751 Q2121.7 253.413 2121.7 258.112 Q2121.7 262.811 2123.62 265.496 Q2125.57 268.158 2128.95 268.158 Q2132.33 268.158 2134.25 265.496 Q2136.19 262.811 2136.19 258.112 Z" fill="#000000" fill-rule="nonzero" fill-opacity="1" /><path clip-path="url(#clip500)" d="M2167.86 250.103 Q2169.46 247.232 2171.68 245.867 Q2173.9 244.501 2176.91 244.501 Q2180.96 244.501 2183.16 247.348 Q2185.36 250.172 2185.36 255.404 L2185.36 271.052 L2181.08 271.052 L2181.08 255.543 Q2181.08 251.816 2179.76 250.01 Q2178.44 248.205 2175.73 248.205 Q2172.42 248.205 2170.5 250.404 Q2168.58 252.603 2168.58 256.399 L2168.58 271.052 L2164.29 271.052 L2164.29 255.543 Q2164.29 251.793 2162.98 250.01 Q2161.66 248.205 2158.9 248.205 Q2155.64 248.205 2153.72 250.427 Q2151.79 252.626 2151.79 256.399 L2151.79 271.052 L2147.51 271.052 L2147.51 245.126 L2151.79 245.126 L2151.79 249.154 Q2153.25 246.769 2155.29 245.635 Q2157.33 244.501 2160.13 244.501 Q2162.95 244.501 2164.92 245.936 Q2166.91 247.371 2167.86 250.103 Z" fill="#000000" fill-rule="nonzero" fill-opacity="1" /><polyline clip-path="url(#clip500)" style="stroke:#3da44d; stroke-linecap:round; stroke-linejoin:round; stroke-width:6; stroke-opacity:1; fill:none" points="1795,305.612 1930.75,305.612 "/>
<path clip-path="url(#clip500)" d="M1975.62 289.466 L1975.62 294.026 Q1972.95 292.753 1970.59 292.128 Q1968.23 291.503 1966.03 291.503 Q1962.21 291.503 1960.13 292.984 Q1958.07 294.466 1958.07 297.197 Q1958.07 299.489 1959.43 300.67 Q1960.82 301.827 1964.67 302.545 L1967.49 303.123 Q1972.72 304.119 1975.2 306.642 Q1977.7 309.142 1977.7 313.355 Q1977.7 318.378 1974.32 320.97 Q1970.96 323.563 1964.46 323.563 Q1962 323.563 1959.23 323.007 Q1956.47 322.452 1953.51 321.364 L1953.51 316.549 Q1956.36 318.146 1959.09 318.957 Q1961.82 319.767 1964.46 319.767 Q1968.46 319.767 1970.64 318.193 Q1972.81 316.619 1972.81 313.702 Q1972.81 311.156 1971.24 309.72 Q1969.69 308.285 1966.12 307.568 L1963.28 307.012 Q1958.05 305.971 1955.71 303.748 Q1953.37 301.526 1953.37 297.568 Q1953.37 292.984 1956.59 290.346 Q1959.83 287.707 1965.5 287.707 Q1967.93 287.707 1970.45 288.147 Q1972.98 288.586 1975.62 289.466 Z" fill="#000000" fill-rule="nonzero" fill-opacity="1" /><path clip-path="url(#clip500)" d="M1984.99 288.332 L1989.67 288.332 L1989.67 318.957 L2006.49 318.957 L2006.49 322.892 L1984.99 322.892 L1984.99 288.332 Z" fill="#000000" fill-rule="nonzero" fill-opacity="1" /><path clip-path="url(#clip500)" d="M2027.79 306.688 Q2029.3 307.197 2030.71 308.864 Q2032.14 310.531 2033.58 313.447 L2038.32 322.892 L2033.3 322.892 L2028.88 314.026 Q2027.17 310.554 2025.55 309.42 Q2023.95 308.285 2021.17 308.285 L2016.08 308.285 L2016.08 322.892 L2011.4 322.892 L2011.4 288.332 L2021.96 288.332 Q2027.88 288.332 2030.8 290.809 Q2033.72 293.285 2033.72 298.285 Q2033.72 301.549 2032.19 303.702 Q2030.68 305.855 2027.79 306.688 M2016.08 292.174 L2016.08 304.443 L2021.96 304.443 Q2025.34 304.443 2027.05 302.892 Q2028.79 301.318 2028.79 298.285 Q2028.79 295.253 2027.05 293.725 Q2025.34 292.174 2021.96 292.174 L2016.08 292.174 Z" fill="#000000" fill-rule="nonzero" fill-opacity="1" /><path clip-path="url(#clip500)" d="M2075.75 297.73 L2075.75 301.758 Q2073.95 300.832 2072 300.369 Q2070.06 299.906 2067.98 299.906 Q2064.8 299.906 2063.21 300.878 Q2061.63 301.85 2061.63 303.795 Q2061.63 305.276 2062.77 306.133 Q2063.9 306.966 2067.33 307.73 L2068.79 308.054 Q2073.32 309.026 2075.22 310.808 Q2077.14 312.568 2077.14 315.739 Q2077.14 319.35 2074.27 321.457 Q2071.42 323.563 2066.42 323.563 Q2064.34 323.563 2062.07 323.146 Q2059.83 322.753 2057.33 321.943 L2057.33 317.545 Q2059.69 318.771 2061.98 319.396 Q2064.27 319.998 2066.52 319.998 Q2069.53 319.998 2071.15 318.98 Q2072.77 317.938 2072.77 316.063 Q2072.77 314.327 2071.59 313.401 Q2070.43 312.475 2066.47 311.619 L2064.99 311.271 Q2061.03 310.438 2059.27 308.725 Q2057.51 306.989 2057.51 303.98 Q2057.51 300.322 2060.11 298.332 Q2062.7 296.341 2067.47 296.341 Q2069.83 296.341 2071.91 296.688 Q2073.99 297.035 2075.75 297.73 Z" fill="#000000" fill-rule="nonzero" fill-opacity="1" /><path clip-path="url(#clip500)" d="M2088.14 289.605 L2088.14 296.966 L2096.91 296.966 L2096.91 300.276 L2088.14 300.276 L2088.14 314.35 Q2088.14 317.521 2088.99 318.424 Q2089.87 319.327 2092.54 319.327 L2096.91 319.327 L2096.91 322.892 L2092.54 322.892 Q2087.61 322.892 2085.73 321.063 Q2083.86 319.211 2083.86 314.35 L2083.86 300.276 L2080.73 300.276 L2080.73 296.966 L2083.86 296.966 L2083.86 289.605 L2088.14 289.605 Z" fill="#000000" fill-rule="nonzero" fill-opacity="1" /><path clip-path="url(#clip500)" d="M2117.58 286.873 L2121.84 286.873 L2121.84 322.892 L2117.58 322.892 L2117.58 286.873 Z" fill="#000000" fill-rule="nonzero" fill-opacity="1" /><path clip-path="url(#clip500)" d="M2147.28 297.73 L2147.28 301.758 Q2145.48 300.832 2143.53 300.369 Q2141.59 299.906 2139.5 299.906 Q2136.33 299.906 2134.73 300.878 Q2133.16 301.85 2133.16 303.795 Q2133.16 305.276 2134.29 306.133 Q2135.43 306.966 2138.85 307.73 L2140.31 308.054 Q2144.85 309.026 2146.75 310.808 Q2148.67 312.568 2148.67 315.739 Q2148.67 319.35 2145.8 321.457 Q2142.95 323.563 2137.95 323.563 Q2135.87 323.563 2133.6 323.146 Q2131.36 322.753 2128.86 321.943 L2128.86 317.545 Q2131.22 318.771 2133.51 319.396 Q2135.8 319.998 2138.04 319.998 Q2141.05 319.998 2142.67 318.98 Q2144.29 317.938 2144.29 316.063 Q2144.29 314.327 2143.11 313.401 Q2141.96 312.475 2138 311.619 L2136.52 311.271 Q2132.56 310.438 2130.8 308.725 Q2129.04 306.989 2129.04 303.98 Q2129.04 300.322 2131.63 298.332 Q2134.23 296.341 2138.99 296.341 Q2141.35 296.341 2143.44 296.688 Q2145.52 297.035 2147.28 297.73 Z" fill="#000000" fill-rule="nonzero" fill-opacity="1" /></svg>
