<?xml version="1.0" encoding="utf-8"?>
<svg xmlns="http://www.w3.org/2000/svg" xmlns:xlink="http://www.w3.org/1999/xlink" width="600" height="400" viewBox="0 0 2400 1600">
<defs>
  <clipPath id="clip560">
    <rect x="0" y="0" width="2400" height="1600"/>
  </clipPath>
</defs>
<path clip-path="url(#clip560)" d="M0 1600 L2400 1600 L2400 0 L0 0  Z" fill="#ffffff" fill-rule="evenodd" fill-opacity="1"/>
<defs>
  <clipPath id="clip561">
    <rect x="281" y="0" width="2073" height="81"/>
  </clipPath>
</defs>
<path clip-path="url(#clip560)" d="M281.088 663.18 L2352.76 663.18 L2352.76 127.244 L281.088 127.244  Z" fill="#ffffff" fill-rule="evenodd" fill-opacity="1"/>
<defs>
  <clipPath id="clip562">
    <rect x="281" y="127" width="2073" height="537"/>
  </clipPath>
</defs>
<polyline clip-path="url(#clip562)" style="stroke:#000000; stroke-linecap:round; stroke-linejoin:round; stroke-width:2; stroke-opacity:0.1; fill:none" points="281.088,663.18 281.088,127.244 "/>
<polyline clip-path="url(#clip562)" style="stroke:#000000; stroke-linecap:round; stroke-linejoin:round; stroke-width:2; stroke-opacity:0.1; fill:none" points="1057.96,663.18 1057.96,127.244 "/>
<polyline clip-path="url(#clip562)" style="stroke:#000000; stroke-linecap:round; stroke-linejoin:round; stroke-width:2; stroke-opacity:0.1; fill:none" points="1316.92,663.18 1316.92,127.244 "/>
<polyline clip-path="url(#clip562)" style="stroke:#000000; stroke-linecap:round; stroke-linejoin:round; stroke-width:2; stroke-opacity:0.1; fill:none" points="1575.88,663.18 1575.88,127.244 "/>
<polyline clip-path="url(#clip562)" style="stroke:#000000; stroke-linecap:round; stroke-linejoin:round; stroke-width:2; stroke-opacity:0.1; fill:none" points="2352.76,663.18 2352.76,127.244 "/>
<polyline clip-path="url(#clip562)" style="stroke:#000000; stroke-linecap:round; stroke-linejoin:round; stroke-width:2; stroke-opacity:0.1; fill:none" points="281.088,573.857 2352.76,573.857 "/>
<polyline clip-path="url(#clip562)" style="stroke:#000000; stroke-linecap:round; stroke-linejoin:round; stroke-width:2; stroke-opacity:0.1; fill:none" points="281.088,350.551 2352.76,350.551 "/>
<polyline clip-path="url(#clip562)" style="stroke:#000000; stroke-linecap:round; stroke-linejoin:round; stroke-width:2; stroke-opacity:0.1; fill:none" points="281.088,187.079 2352.76,187.079 "/>
<polyline clip-path="url(#clip562)" style="stroke:#000000; stroke-linecap:round; stroke-linejoin:round; stroke-width:2; stroke-opacity:0.1; fill:none" points="281.088,127.244 2352.76,127.244 "/>
<polyline clip-path="url(#clip560)" style="stroke:#000000; stroke-linecap:round; stroke-linejoin:round; stroke-width:4; stroke-opacity:1; fill:none" points="281.088,663.18 2352.76,663.18 "/>
<polyline clip-path="url(#clip560)" style="stroke:#000000; stroke-linecap:round; stroke-linejoin:round; stroke-width:4; stroke-opacity:1; fill:none" points="281.088,663.18 281.088,644.282 "/>
<polyline clip-path="url(#clip560)" style="stroke:#000000; stroke-linecap:round; stroke-linejoin:round; stroke-width:4; stroke-opacity:1; fill:none" points="1057.96,663.18 1057.96,644.282 "/>
<polyline clip-path="url(#clip560)" style="stroke:#000000; stroke-linecap:round; stroke-linejoin:round; stroke-width:4; stroke-opacity:1; fill:none" points="1316.92,663.18 1316.92,644.282 "/>
<polyline clip-path="url(#clip560)" style="stroke:#000000; stroke-linecap:round; stroke-linejoin:round; stroke-width:4; stroke-opacity:1; fill:none" points="1575.88,663.18 1575.88,644.282 "/>
<polyline clip-path="url(#clip560)" style="stroke:#000000; stroke-linecap:round; stroke-linejoin:round; stroke-width:4; stroke-opacity:1; fill:none" points="2352.76,663.18 2352.76,644.282 "/>
<path clip-path="url(#clip560)" d="M212.535 708.751 L242.211 708.751 L242.211 712.686 L212.535 712.686 L212.535 708.751 Z" fill="#000000" fill-rule="nonzero" fill-opacity="1" /><path clip-path="url(#clip560)" d="M253.114 721.645 L260.753 721.645 L260.753 695.279 L252.443 696.946 L252.443 692.687 L260.706 691.02 L265.382 691.02 L265.382 721.645 L273.021 721.645 L273.021 725.58 L253.114 725.58 L253.114 721.645 Z" fill="#000000" fill-rule="nonzero" fill-opacity="1" /><path clip-path="url(#clip560)" d="M282.466 719.7 L287.35 719.7 L287.35 725.58 L282.466 725.58 L282.466 719.7 Z" fill="#000000" fill-rule="nonzero" fill-opacity="1" /><path clip-path="url(#clip560)" d="M307.535 694.099 Q303.924 694.099 302.095 697.663 Q300.29 701.205 300.29 708.335 Q300.29 715.441 302.095 719.006 Q303.924 722.547 307.535 722.547 Q311.169 722.547 312.975 719.006 Q314.803 715.441 314.803 708.335 Q314.803 701.205 312.975 697.663 Q311.169 694.099 307.535 694.099 M307.535 690.395 Q313.345 690.395 316.401 695.001 Q319.479 699.585 319.479 708.335 Q319.479 717.061 316.401 721.668 Q313.345 726.251 307.535 726.251 Q301.725 726.251 298.646 721.668 Q295.591 717.061 295.591 708.335 Q295.591 699.585 298.646 695.001 Q301.725 690.395 307.535 690.395 Z" fill="#000000" fill-rule="nonzero" fill-opacity="1" /><path clip-path="url(#clip560)" d="M337.697 694.099 Q334.086 694.099 332.257 697.663 Q330.451 701.205 330.451 708.335 Q330.451 715.441 332.257 719.006 Q334.086 722.547 337.697 722.547 Q341.331 722.547 343.137 719.006 Q344.965 715.441 344.965 708.335 Q344.965 701.205 343.137 697.663 Q341.331 694.099 337.697 694.099 M337.697 690.395 Q343.507 690.395 346.562 695.001 Q349.641 699.585 349.641 708.335 Q349.641 717.061 346.562 721.668 Q343.507 726.251 337.697 726.251 Q331.887 726.251 328.808 721.668 Q325.752 717.061 325.752 708.335 Q325.752 699.585 328.808 695.001 Q331.887 690.395 337.697 690.395 Z" fill="#000000" fill-rule="nonzero" fill-opacity="1" /><path clip-path="url(#clip560)" d="M989.908 708.751 L1019.58 708.751 L1019.58 712.686 L989.908 712.686 L989.908 708.751 Z" fill="#000000" fill-rule="nonzero" fill-opacity="1" /><path clip-path="url(#clip560)" d="M1039.68 694.099 Q1036.07 694.099 1034.24 697.663 Q1032.43 701.205 1032.43 708.335 Q1032.43 715.441 1034.24 719.006 Q1036.07 722.547 1039.68 722.547 Q1043.31 722.547 1045.12 719.006 Q1046.95 715.441 1046.95 708.335 Q1046.95 701.205 1045.12 697.663 Q1043.31 694.099 1039.68 694.099 M1039.68 690.395 Q1045.49 690.395 1048.54 695.001 Q1051.62 699.585 1051.62 708.335 Q1051.62 717.061 1048.54 721.668 Q1045.49 726.251 1039.68 726.251 Q1033.87 726.251 1030.79 721.668 Q1027.73 717.061 1027.73 708.335 Q1027.73 699.585 1030.79 695.001 Q1033.87 690.395 1039.68 690.395 Z" fill="#000000" fill-rule="nonzero" fill-opacity="1" /><path clip-path="url(#clip560)" d="M1059.84 719.7 L1064.72 719.7 L1064.72 725.58 L1059.84 725.58 L1059.84 719.7 Z" fill="#000000" fill-rule="nonzero" fill-opacity="1" /><path clip-path="url(#clip560)" d="M1078.94 721.645 L1095.26 721.645 L1095.26 725.58 L1073.31 725.58 L1073.31 721.645 Q1075.97 718.89 1080.56 714.26 Q1085.16 709.608 1086.34 708.265 Q1088.59 705.742 1089.47 704.006 Q1090.37 702.247 1090.37 700.557 Q1090.37 697.802 1088.43 696.066 Q1086.51 694.33 1083.4 694.33 Q1081.2 694.33 1078.75 695.094 Q1076.32 695.858 1073.54 697.409 L1073.54 692.687 Q1076.37 691.552 1078.82 690.974 Q1081.27 690.395 1083.31 690.395 Q1088.68 690.395 1091.88 693.08 Q1095.07 695.765 1095.07 700.256 Q1095.07 702.386 1094.26 704.307 Q1093.47 706.205 1091.37 708.798 Q1090.79 709.469 1087.69 712.686 Q1084.58 715.881 1078.94 721.645 Z" fill="#000000" fill-rule="nonzero" fill-opacity="1" /><path clip-path="url(#clip560)" d="M1105.12 691.02 L1123.47 691.02 L1123.47 694.955 L1109.4 694.955 L1109.4 703.427 Q1110.42 703.08 1111.44 702.918 Q1112.45 702.733 1113.47 702.733 Q1119.26 702.733 1122.64 705.904 Q1126.02 709.075 1126.02 714.492 Q1126.02 720.071 1122.55 723.172 Q1119.07 726.251 1112.76 726.251 Q1110.58 726.251 1108.31 725.881 Q1106.07 725.51 1103.66 724.77 L1103.66 720.071 Q1105.74 721.205 1107.96 721.76 Q1110.19 722.316 1112.66 722.316 Q1116.67 722.316 1119 720.21 Q1121.34 718.103 1121.34 714.492 Q1121.34 710.881 1119 708.774 Q1116.67 706.668 1112.66 706.668 Q1110.79 706.668 1108.91 707.085 Q1107.06 707.501 1105.12 708.381 L1105.12 691.02 Z" fill="#000000" fill-rule="nonzero" fill-opacity="1" /><path clip-path="url(#clip560)" d="M1279.23 694.099 Q1275.61 694.099 1273.79 697.663 Q1271.98 701.205 1271.98 708.335 Q1271.98 715.441 1273.79 719.006 Q1275.61 722.547 1279.23 722.547 Q1282.86 722.547 1284.67 719.006 Q1286.49 715.441 1286.49 708.335 Q1286.49 701.205 1284.67 697.663 Q1282.86 694.099 1279.23 694.099 M1279.23 690.395 Q1285.04 690.395 1288.09 695.001 Q1291.17 699.585 1291.17 708.335 Q1291.17 717.061 1288.09 721.668 Q1285.04 726.251 1279.23 726.251 Q1273.42 726.251 1270.34 721.668 Q1267.28 717.061 1267.28 708.335 Q1267.28 699.585 1270.34 695.001 Q1273.42 690.395 1279.23 690.395 Z" fill="#000000" fill-rule="nonzero" fill-opacity="1" /><path clip-path="url(#clip560)" d="M1299.39 719.7 L1304.27 719.7 L1304.27 725.58 L1299.39 725.58 L1299.39 719.7 Z" fill="#000000" fill-rule="nonzero" fill-opacity="1" /><path clip-path="url(#clip560)" d="M1324.46 694.099 Q1320.85 694.099 1319.02 697.663 Q1317.21 701.205 1317.21 708.335 Q1317.21 715.441 1319.02 719.006 Q1320.85 722.547 1324.46 722.547 Q1328.09 722.547 1329.9 719.006 Q1331.73 715.441 1331.73 708.335 Q1331.73 701.205 1329.9 697.663 Q1328.09 694.099 1324.46 694.099 M1324.46 690.395 Q1330.27 690.395 1333.32 695.001 Q1336.4 699.585 1336.4 708.335 Q1336.4 717.061 1333.32 721.668 Q1330.27 726.251 1324.46 726.251 Q1318.65 726.251 1315.57 721.668 Q1312.51 717.061 1312.51 708.335 Q1312.51 699.585 1315.57 695.001 Q1318.65 690.395 1324.46 690.395 Z" fill="#000000" fill-rule="nonzero" fill-opacity="1" /><path clip-path="url(#clip560)" d="M1354.62 694.099 Q1351.01 694.099 1349.18 697.663 Q1347.37 701.205 1347.37 708.335 Q1347.37 715.441 1349.18 719.006 Q1351.01 722.547 1354.62 722.547 Q1358.25 722.547 1360.06 719.006 Q1361.89 715.441 1361.89 708.335 Q1361.89 701.205 1360.06 697.663 Q1358.25 694.099 1354.62 694.099 M1354.62 690.395 Q1360.43 690.395 1363.48 695.001 Q1366.56 699.585 1366.56 708.335 Q1366.56 717.061 1363.48 721.668 Q1360.43 726.251 1354.62 726.251 Q1348.81 726.251 1345.73 721.668 Q1342.67 717.061 1342.67 708.335 Q1342.67 699.585 1345.73 695.001 Q1348.81 690.395 1354.62 690.395 Z" fill="#000000" fill-rule="nonzero" fill-opacity="1" /><path clip-path="url(#clip560)" d="M1538.68 694.099 Q1535.07 694.099 1533.24 697.663 Q1531.44 701.205 1531.44 708.335 Q1531.44 715.441 1533.24 719.006 Q1535.07 722.547 1538.68 722.547 Q1542.32 722.547 1544.12 719.006 Q1545.95 715.441 1545.95 708.335 Q1545.95 701.205 1544.12 697.663 Q1542.32 694.099 1538.68 694.099 M1538.68 690.395 Q1544.49 690.395 1547.55 695.001 Q1550.63 699.585 1550.63 708.335 Q1550.63 717.061 1547.55 721.668 Q1544.49 726.251 1538.68 726.251 Q1532.87 726.251 1529.79 721.668 Q1526.74 717.061 1526.74 708.335 Q1526.74 699.585 1529.79 695.001 Q1532.87 690.395 1538.68 690.395 Z" fill="#000000" fill-rule="nonzero" fill-opacity="1" /><path clip-path="url(#clip560)" d="M1558.84 719.7 L1563.73 719.7 L1563.73 725.58 L1558.84 725.58 L1558.84 719.7 Z" fill="#000000" fill-rule="nonzero" fill-opacity="1" /><path clip-path="url(#clip560)" d="M1577.94 721.645 L1594.26 721.645 L1594.26 725.58 L1572.32 725.58 L1572.32 721.645 Q1574.98 718.89 1579.56 714.26 Q1584.17 709.608 1585.35 708.265 Q1587.59 705.742 1588.47 704.006 Q1589.38 702.247 1589.38 700.557 Q1589.38 697.802 1587.43 696.066 Q1585.51 694.33 1582.41 694.33 Q1580.21 694.33 1577.76 695.094 Q1575.33 695.858 1572.55 697.409 L1572.55 692.687 Q1575.37 691.552 1577.82 690.974 Q1580.28 690.395 1582.32 690.395 Q1587.69 690.395 1590.88 693.08 Q1594.07 695.765 1594.07 700.256 Q1594.07 702.386 1593.26 704.307 Q1592.48 706.205 1590.37 708.798 Q1589.79 709.469 1586.69 712.686 Q1583.59 715.881 1577.94 721.645 Z" fill="#000000" fill-rule="nonzero" fill-opacity="1" /><path clip-path="url(#clip560)" d="M1604.12 691.02 L1622.48 691.02 L1622.48 694.955 L1608.4 694.955 L1608.4 703.427 Q1609.42 703.08 1610.44 702.918 Q1611.46 702.733 1612.48 702.733 Q1618.26 702.733 1621.64 705.904 Q1625.02 709.075 1625.02 714.492 Q1625.02 720.071 1621.55 723.172 Q1618.08 726.251 1611.76 726.251 Q1609.58 726.251 1607.32 725.881 Q1605.07 725.51 1602.66 724.77 L1602.66 720.071 Q1604.75 721.205 1606.97 721.76 Q1609.19 722.316 1611.67 722.316 Q1615.67 722.316 1618.01 720.21 Q1620.35 718.103 1620.35 714.492 Q1620.35 710.881 1618.01 708.774 Q1615.67 706.668 1611.67 706.668 Q1609.79 706.668 1607.92 707.085 Q1606.07 707.501 1604.12 708.381 L1604.12 691.02 Z" fill="#000000" fill-rule="nonzero" fill-opacity="1" /><path clip-path="url(#clip560)" d="M2304.83 721.645 L2312.47 721.645 L2312.47 695.279 L2304.16 696.946 L2304.16 692.687 L2312.42 691.02 L2317.1 691.02 L2317.1 721.645 L2324.74 721.645 L2324.74 725.58 L2304.83 725.58 L2304.83 721.645 Z" fill="#000000" fill-rule="nonzero" fill-opacity="1" /><path clip-path="url(#clip560)" d="M2334.18 719.7 L2339.06 719.7 L2339.06 725.58 L2334.18 725.58 L2334.18 719.7 Z" fill="#000000" fill-rule="nonzero" fill-opacity="1" /><path clip-path="url(#clip560)" d="M2359.25 694.099 Q2355.64 694.099 2353.81 697.663 Q2352 701.205 2352 708.335 Q2352 715.441 2353.81 719.006 Q2355.64 722.547 2359.25 722.547 Q2362.88 722.547 2364.69 719.006 Q2366.52 715.441 2366.52 708.335 Q2366.52 701.205 2364.69 697.663 Q2362.88 694.099 2359.25 694.099 M2359.25 690.395 Q2365.06 690.395 2368.11 695.001 Q2371.19 699.585 2371.19 708.335 Q2371.19 717.061 2368.11 721.668 Q2365.06 726.251 2359.25 726.251 Q2353.44 726.251 2350.36 721.668 Q2347.3 717.061 2347.3 708.335 Q2347.3 699.585 2350.36 695.001 Q2353.44 690.395 2359.25 690.395 Z" fill="#000000" fill-rule="nonzero" fill-opacity="1" /><path clip-path="url(#clip560)" d="M2389.41 694.099 Q2385.8 694.099 2383.97 697.663 Q2382.17 701.205 2382.17 708.335 Q2382.17 715.441 2383.97 719.006 Q2385.8 722.547 2389.41 722.547 Q2393.05 722.547 2394.85 719.006 Q2396.68 715.441 2396.68 708.335 Q2396.68 701.205 2394.85 697.663 Q2393.05 694.099 2389.41 694.099 M2389.41 690.395 Q2395.22 690.395 2398.28 695.001 Q2401.36 699.585 2401.36 708.335 Q2401.36 717.061 2398.28 721.668 Q2395.22 726.251 2389.41 726.251 Q2383.6 726.251 2380.52 721.668 Q2377.47 717.061 2377.47 708.335 Q2377.47 699.585 2380.52 695.001 Q2383.6 690.395 2389.41 690.395 Z" fill="#000000" fill-rule="nonzero" fill-opacity="1" /><path clip-path="url(#clip560)" d="M1219.35 772.396 L1247.17 772.396 L1247.17 777.743 L1225.14 803.365 L1247.17 803.365 L1247.17 808.044 L1218.56 808.044 L1218.56 802.697 L1240.58 777.075 L1219.35 777.075 L1219.35 772.396 Z" fill="#000000" fill-rule="nonzero" fill-opacity="1" /><path clip-path="url(#clip560)" d="M1276.29 758.519 L1289.79 758.519 L1289.79 763.07 L1282.15 763.07 L1282.15 812.086 L1289.79 812.086 L1289.79 816.638 L1276.29 816.638 L1276.29 758.519 Z" fill="#000000" fill-rule="nonzero" fill-opacity="1" /><path clip-path="url(#clip560)" d="M1327.92 773.765 L1327.92 779.239 Q1325.44 777.87 1322.92 777.202 Q1320.44 776.502 1317.89 776.502 Q1312.2 776.502 1309.04 780.13 Q1305.89 783.727 1305.89 790.252 Q1305.89 796.777 1309.04 800.405 Q1312.2 804.002 1317.89 804.002 Q1320.44 804.002 1322.92 803.333 Q1325.44 802.633 1327.92 801.264 L1327.92 806.675 Q1325.47 807.821 1322.83 808.394 Q1320.22 808.967 1317.26 808.967 Q1309.2 808.967 1304.46 803.906 Q1299.72 798.845 1299.72 790.252 Q1299.72 781.531 1304.49 776.534 Q1309.3 771.537 1317.64 771.537 Q1320.34 771.537 1322.92 772.109 Q1325.5 772.651 1327.92 773.765 Z" fill="#000000" fill-rule="nonzero" fill-opacity="1" /><path clip-path="url(#clip560)" d="M1365.86 779.239 Q1368.05 775.292 1371.11 773.414 Q1374.17 771.537 1378.3 771.537 Q1383.87 771.537 1386.9 775.451 Q1389.92 779.335 1389.92 786.528 L1389.92 808.044 L1384.03 808.044 L1384.03 786.719 Q1384.03 781.594 1382.22 779.112 Q1380.4 776.629 1376.68 776.629 Q1372.13 776.629 1369.49 779.653 Q1366.85 782.677 1366.85 787.896 L1366.85 808.044 L1360.96 808.044 L1360.96 786.719 Q1360.96 781.563 1359.14 779.112 Q1357.33 776.629 1353.54 776.629 Q1349.05 776.629 1346.41 779.685 Q1343.77 782.708 1343.77 787.896 L1343.77 808.044 L1337.88 808.044 L1337.88 772.396 L1343.77 772.396 L1343.77 777.934 Q1345.77 774.656 1348.58 773.096 Q1351.38 771.537 1355.23 771.537 Q1359.11 771.537 1361.82 773.51 Q1364.55 775.483 1365.86 779.239 Z" fill="#000000" fill-rule="nonzero" fill-opacity="1" /><path clip-path="url(#clip560)" d="M1415.29 758.519 L1415.29 816.638 L1401.79 816.638 L1401.79 812.086 L1409.4 812.086 L1409.4 763.07 L1401.79 763.07 L1401.79 758.519 L1415.29 758.519 Z" fill="#000000" fill-rule="nonzero" fill-opacity="1" /><polyline clip-path="url(#clip560)" style="stroke:#000000; stroke-linecap:round; stroke-linejoin:round; stroke-width:4; stroke-opacity:1; fill:none" points="281.088,663.18 281.088,127.244 "/>
<polyline clip-path="url(#clip560)" style="stroke:#000000; stroke-linecap:round; stroke-linejoin:round; stroke-width:4; stroke-opacity:1; fill:none" points="281.088,573.857 299.986,573.857 "/>
<polyline clip-path="url(#clip560)" style="stroke:#000000; stroke-linecap:round; stroke-linejoin:round; stroke-width:4; stroke-opacity:1; fill:none" points="281.088,350.551 299.986,350.551 "/>
<polyline clip-path="url(#clip560)" style="stroke:#000000; stroke-linecap:round; stroke-linejoin:round; stroke-width:4; stroke-opacity:1; fill:none" points="281.088,187.079 299.986,187.079 "/>
<polyline clip-path="url(#clip560)" style="stroke:#000000; stroke-linecap:round; stroke-linejoin:round; stroke-width:4; stroke-opacity:1; fill:none" points="281.088,127.244 299.986,127.244 "/>
<path clip-path="url(#clip560)" d="M233.144 559.656 Q229.533 559.656 227.704 563.221 Q225.899 566.762 225.899 573.892 Q225.899 580.998 227.704 584.563 Q229.533 588.105 233.144 588.105 Q236.778 588.105 238.584 584.563 Q240.412 580.998 240.412 573.892 Q240.412 566.762 238.584 563.221 Q236.778 559.656 233.144 559.656 M233.144 555.952 Q238.954 555.952 242.01 560.559 Q245.088 565.142 245.088 573.892 Q245.088 582.619 242.01 587.225 Q238.954 591.809 233.144 591.809 Q227.334 591.809 224.255 587.225 Q221.2 582.619 221.2 573.892 Q221.2 565.142 224.255 560.559 Q227.334 555.952 233.144 555.952 Z" fill="#000000" fill-rule="nonzero" fill-opacity="1" /><path clip-path="url(#clip560)" d="M71.5013 342.9 L71.5013 346.882 Q69.6957 345.886 67.867 345.4 Q66.0615 344.891 64.2096 344.891 Q60.0662 344.891 57.7745 347.53 Q55.4828 350.146 55.4828 354.891 Q55.4828 359.636 57.7745 362.275 Q60.0662 364.891 64.2096 364.891 Q66.0615 364.891 67.867 364.405 Q69.6957 363.895 71.5013 362.9 L71.5013 366.835 Q69.7189 367.669 67.7976 368.085 Q65.8995 368.502 63.7467 368.502 Q57.8902 368.502 54.4412 364.821 Q50.9921 361.141 50.9921 354.891 Q50.9921 348.548 54.4643 344.914 Q57.9597 341.28 64.0245 341.28 Q65.992 341.28 67.867 341.697 Q69.742 342.09 71.5013 342.9 Z" fill="#000000" fill-rule="nonzero" fill-opacity="1" /><path clip-path="url(#clip560)" d="M88.9549 344.891 Q85.529 344.891 83.5382 347.576 Q81.5475 350.238 81.5475 354.891 Q81.5475 359.544 83.5151 362.229 Q85.5058 364.891 88.9549 364.891 Q92.3576 364.891 94.3484 362.206 Q96.3391 359.521 96.3391 354.891 Q96.3391 350.284 94.3484 347.599 Q92.3576 344.891 88.9549 344.891 M88.9549 341.28 Q94.5104 341.28 97.6817 344.891 Q100.853 348.502 100.853 354.891 Q100.853 361.257 97.6817 364.891 Q94.5104 368.502 88.9549 368.502 Q83.3762 368.502 80.2049 364.891 Q77.0568 361.257 77.0568 354.891 Q77.0568 348.502 80.2049 344.891 Q83.3762 341.28 88.9549 341.28 Z" fill="#000000" fill-rule="nonzero" fill-opacity="1" /><path clip-path="url(#clip560)" d="M124.441 342.669 L124.441 346.697 Q122.635 345.771 120.691 345.308 Q118.746 344.845 116.663 344.845 Q113.492 344.845 111.895 345.817 Q110.321 346.789 110.321 348.734 Q110.321 350.215 111.455 351.071 Q112.589 351.905 116.015 352.669 L117.473 352.993 Q122.01 353.965 123.908 355.747 Q125.83 357.507 125.83 360.678 Q125.83 364.289 122.959 366.395 Q120.112 368.502 115.112 368.502 Q113.029 368.502 110.76 368.085 Q108.515 367.692 106.015 366.882 L106.015 362.483 Q108.376 363.71 110.668 364.335 Q112.959 364.937 115.205 364.937 Q118.214 364.937 119.834 363.919 Q121.455 362.877 121.455 361.002 Q121.455 359.266 120.274 358.34 Q119.117 357.414 115.158 356.558 L113.677 356.21 Q109.719 355.377 107.959 353.664 Q106.2 351.928 106.2 348.919 Q106.2 345.261 108.793 343.271 Q111.385 341.28 116.154 341.28 Q118.515 341.28 120.598 341.627 Q122.682 341.974 124.441 342.669 Z" fill="#000000" fill-rule="nonzero" fill-opacity="1" /><path clip-path="url(#clip560)" d="M142.843 331.859 Q139.742 337.183 138.237 342.391 Q136.732 347.599 136.732 352.946 Q136.732 358.294 138.237 363.548 Q139.765 368.78 142.843 374.081 L139.14 374.081 Q135.668 368.641 133.931 363.386 Q132.219 358.132 132.219 352.946 Q132.219 347.784 133.931 342.553 Q135.644 337.322 139.14 331.859 L142.843 331.859 Z" fill="#000000" fill-rule="nonzero" fill-opacity="1" /><path clip-path="url(#clip560)" d="M162.288 348.687 Q159.14 348.687 157.288 350.84 Q155.459 352.993 155.459 356.743 Q155.459 360.47 157.288 362.645 Q159.14 364.798 162.288 364.798 Q165.436 364.798 167.265 362.645 Q169.116 360.47 169.116 356.743 Q169.116 352.993 167.265 350.84 Q165.436 348.687 162.288 348.687 M171.57 334.035 L171.57 338.294 Q169.811 337.46 168.005 337.021 Q166.223 336.581 164.464 336.581 Q159.834 336.581 157.38 339.706 Q154.95 342.831 154.603 349.15 Q155.968 347.136 158.029 346.072 Q160.089 344.984 162.566 344.984 Q167.774 344.984 170.783 348.155 Q173.816 351.303 173.816 356.743 Q173.816 362.067 170.667 365.284 Q167.519 368.502 162.288 368.502 Q156.292 368.502 153.121 363.919 Q149.95 359.312 149.95 350.585 Q149.95 342.391 153.839 337.53 Q157.728 332.646 164.279 332.646 Q166.038 332.646 167.82 332.993 Q169.626 333.34 171.57 334.035 Z" fill="#000000" fill-rule="nonzero" fill-opacity="1" /><path clip-path="url(#clip560)" d="M191.871 336.349 Q188.26 336.349 186.431 339.914 Q184.626 343.456 184.626 350.585 Q184.626 357.692 186.431 361.257 Q188.26 364.798 191.871 364.798 Q195.505 364.798 197.311 361.257 Q199.139 357.692 199.139 350.585 Q199.139 343.456 197.311 339.914 Q195.505 336.349 191.871 336.349 M191.871 332.646 Q197.681 332.646 200.737 337.252 Q203.815 341.835 203.815 350.585 Q203.815 359.312 200.737 363.919 Q197.681 368.502 191.871 368.502 Q186.061 368.502 182.982 363.919 Q179.927 359.312 179.927 350.585 Q179.927 341.835 182.982 337.252 Q186.061 332.646 191.871 332.646 Z" fill="#000000" fill-rule="nonzero" fill-opacity="1" /><path clip-path="url(#clip560)" d="M218.815 335.632 Q216.963 335.632 215.69 336.928 Q214.417 338.201 214.417 340.053 Q214.417 341.882 215.69 343.155 Q216.963 344.405 218.815 344.405 Q220.667 344.405 221.94 343.155 Q223.213 341.882 223.213 340.053 Q223.213 338.224 221.917 336.928 Q220.644 335.632 218.815 335.632 M218.815 332.646 Q220.297 332.646 221.663 333.224 Q223.028 333.78 224.024 334.845 Q225.088 335.886 225.621 337.206 Q226.153 338.525 226.153 340.053 Q226.153 343.109 224 345.238 Q221.871 347.345 218.769 347.345 Q215.644 347.345 213.561 345.261 Q211.477 343.178 211.477 340.053 Q211.477 336.951 213.607 334.798 Q215.737 332.646 218.815 332.646 Z" fill="#000000" fill-rule="nonzero" fill-opacity="1" /><path clip-path="url(#clip560)" d="M234.463 331.859 L238.167 331.859 Q241.639 337.322 243.352 342.553 Q245.088 347.784 245.088 352.946 Q245.088 358.132 243.352 363.386 Q241.639 368.641 238.167 374.081 L234.463 374.081 Q237.542 368.78 239.047 363.548 Q240.574 358.294 240.574 352.946 Q240.574 347.599 239.047 342.391 Q237.542 337.183 234.463 331.859 Z" fill="#000000" fill-rule="nonzero" fill-opacity="1" /><path clip-path="url(#clip560)" d="M81.2234 179.197 L81.2234 183.225 Q79.4179 182.299 77.4735 181.836 Q75.529 181.373 73.4457 181.373 Q70.2744 181.373 68.6772 182.345 Q67.1032 183.317 67.1032 185.262 Q67.1032 186.743 68.2374 187.6 Q69.3717 188.433 72.7976 189.197 L74.2559 189.521 Q78.7929 190.493 80.691 192.276 Q82.6123 194.035 82.6123 197.206 Q82.6123 200.817 79.742 202.924 Q76.8948 205.03 71.8948 205.03 Q69.8115 205.03 67.543 204.614 Q65.2976 204.22 62.7976 203.41 L62.7976 199.012 Q65.1587 200.239 67.4504 200.864 Q69.742 201.465 71.9874 201.465 Q74.9966 201.465 76.617 200.447 Q78.2374 199.405 78.2374 197.53 Q78.2374 195.794 77.0568 194.868 Q75.8994 193.942 71.9411 193.086 L70.4596 192.739 Q66.5013 191.905 64.7421 190.192 Q62.9828 188.456 62.9828 185.447 Q62.9828 181.79 65.5754 179.799 Q68.168 177.808 72.9365 177.808 Q75.2976 177.808 77.3809 178.155 Q79.4642 178.503 81.2234 179.197 Z" fill="#000000" fill-rule="nonzero" fill-opacity="1" /><path clip-path="url(#clip560)" d="M89.3947 178.433 L93.6539 178.433 L93.6539 204.359 L89.3947 204.359 L89.3947 178.433 M89.3947 168.341 L93.6539 168.341 L93.6539 173.734 L89.3947 173.734 L89.3947 168.341 Z" fill="#000000" fill-rule="nonzero" fill-opacity="1" /><path clip-path="url(#clip560)" d="M124.117 188.711 L124.117 204.359 L119.857 204.359 L119.857 188.85 Q119.857 185.169 118.422 183.341 Q116.987 181.512 114.117 181.512 Q110.668 181.512 108.677 183.711 Q106.686 185.91 106.686 189.706 L106.686 204.359 L102.404 204.359 L102.404 178.433 L106.686 178.433 L106.686 182.461 Q108.214 180.123 110.274 178.966 Q112.358 177.808 115.066 177.808 Q119.533 177.808 121.825 180.586 Q124.117 183.341 124.117 188.711 Z" fill="#000000" fill-rule="nonzero" fill-opacity="1" /><path clip-path="url(#clip560)" d="M142.843 168.387 Q139.742 173.711 138.237 178.919 Q136.732 184.128 136.732 189.475 Q136.732 194.822 138.237 200.077 Q139.765 205.308 142.843 210.609 L139.14 210.609 Q135.668 205.169 133.931 199.914 Q132.219 194.66 132.219 189.475 Q132.219 184.313 133.931 179.081 Q135.644 173.85 139.14 168.387 L142.843 168.387 Z" fill="#000000" fill-rule="nonzero" fill-opacity="1" /><path clip-path="url(#clip560)" d="M162.288 185.215 Q159.14 185.215 157.288 187.368 Q155.459 189.521 155.459 193.271 Q155.459 196.998 157.288 199.174 Q159.14 201.327 162.288 201.327 Q165.436 201.327 167.265 199.174 Q169.116 196.998 169.116 193.271 Q169.116 189.521 167.265 187.368 Q165.436 185.215 162.288 185.215 M171.57 170.563 L171.57 174.822 Q169.811 173.989 168.005 173.549 Q166.223 173.109 164.464 173.109 Q159.834 173.109 157.38 176.234 Q154.95 179.359 154.603 185.678 Q155.968 183.665 158.029 182.6 Q160.089 181.512 162.566 181.512 Q167.774 181.512 170.783 184.683 Q173.816 187.831 173.816 193.271 Q173.816 198.595 170.667 201.813 Q167.519 205.03 162.288 205.03 Q156.292 205.03 153.121 200.447 Q149.95 195.84 149.95 187.114 Q149.95 178.919 153.839 174.058 Q157.728 169.174 164.279 169.174 Q166.038 169.174 167.82 169.521 Q169.626 169.868 171.57 170.563 Z" fill="#000000" fill-rule="nonzero" fill-opacity="1" /><path clip-path="url(#clip560)" d="M191.871 172.878 Q188.26 172.878 186.431 176.442 Q184.626 179.984 184.626 187.114 Q184.626 194.22 186.431 197.785 Q188.26 201.327 191.871 201.327 Q195.505 201.327 197.311 197.785 Q199.139 194.22 199.139 187.114 Q199.139 179.984 197.311 176.442 Q195.505 172.878 191.871 172.878 M191.871 169.174 Q197.681 169.174 200.737 173.78 Q203.815 178.364 203.815 187.114 Q203.815 195.84 200.737 200.447 Q197.681 205.03 191.871 205.03 Q186.061 205.03 182.982 200.447 Q179.927 195.84 179.927 187.114 Q179.927 178.364 182.982 173.78 Q186.061 169.174 191.871 169.174 Z" fill="#000000" fill-rule="nonzero" fill-opacity="1" /><path clip-path="url(#clip560)" d="M218.815 172.16 Q216.963 172.16 215.69 173.456 Q214.417 174.729 214.417 176.581 Q214.417 178.41 215.69 179.683 Q216.963 180.933 218.815 180.933 Q220.667 180.933 221.94 179.683 Q223.213 178.41 223.213 176.581 Q223.213 174.753 221.917 173.456 Q220.644 172.16 218.815 172.16 M218.815 169.174 Q220.297 169.174 221.663 169.753 Q223.028 170.308 224.024 171.373 Q225.088 172.415 225.621 173.734 Q226.153 175.054 226.153 176.581 Q226.153 179.637 224 181.766 Q221.871 183.873 218.769 183.873 Q215.644 183.873 213.561 181.79 Q211.477 179.706 211.477 176.581 Q211.477 173.479 213.607 171.327 Q215.737 169.174 218.815 169.174 Z" fill="#000000" fill-rule="nonzero" fill-opacity="1" /><path clip-path="url(#clip560)" d="M234.463 168.387 L238.167 168.387 Q241.639 173.85 243.352 179.081 Q245.088 184.313 245.088 189.475 Q245.088 194.66 243.352 199.914 Q241.639 205.169 238.167 210.609 L234.463 210.609 Q237.542 205.308 239.047 200.077 Q240.574 194.822 240.574 189.475 Q240.574 184.128 239.047 178.919 Q237.542 173.711 234.463 168.387 Z" fill="#000000" fill-rule="nonzero" fill-opacity="1" /><path clip-path="url(#clip560)" d="M225.181 140.589 L232.82 140.589 L232.82 114.223 L224.51 115.89 L224.51 111.631 L232.774 109.964 L237.449 109.964 L237.449 140.589 L245.088 140.589 L245.088 144.524 L225.181 144.524 L225.181 140.589 Z" fill="#000000" fill-rule="nonzero" fill-opacity="1" /><polyline clip-path="url(#clip562)" style="stroke:#009af9; stroke-linecap:round; stroke-linejoin:round; stroke-width:6; stroke-opacity:1; fill:none" points="281.088,579.408 291.447,579.353 301.805,578.54 312.163,577.08 322.522,575.175 332.88,573.087 343.238,571.105 353.597,569.501 363.955,568.497 374.313,568.232 384.672,568.742 395.03,569.957 405.388,571.71 415.747,573.759 426.105,575.821 436.463,577.611 446.822,578.882 457.18,579.459 467.538,579.26 477.897,578.314 488.255,576.752 498.613,574.789 508.972,572.697 519.33,570.768 529.688,569.268 540.047,568.408 550.405,568.308 560.763,568.983 571.122,570.341 581.48,572.196 591.838,574.289 602.197,576.33 612.555,578.035 622.913,579.166 633.272,579.564 643.63,579.173 653.988,578.048 664.347,576.349 674.705,574.318 685.063,572.246 695.422,570.432 705.78,569.144 716.139,568.574 726.497,568.817 736.855,569.85 747.214,571.539 757.572,573.65 767.93,575.887 778.289,577.928 788.647,579.477 799.005,580.305 809.364,580.29 819.722,579.434 830.08,577.877 840.439,575.875 850.797,573.775 861.155,571.961 871.514,570.804 881.872,570.596 892.23,571.495 902.589,573.48 912.947,576.325 923.305,579.593 933.664,582.654 944.022,584.726 954.38,584.941 964.739,582.416 975.097,576.338 985.455,566.043 995.814,551.1 1006.17,531.375 1016.53,507.081 1026.89,478.801 1037.25,447.467 1047.61,414.293 1057.96,380.651 1068.32,347.929 1078.68,317.371 1089.04,289.95 1099.4,266.3 1109.76,246.702 1120.11,231.128 1130.47,219.318 1140.83,210.865 1151.19,205.279 1161.55,202.04 1171.91,200.618 1182.26,200.496 1192.62,201.18 1202.98,202.225 1213.34,203.251 1223.7,203.973 1234.06,204.218 1244.41,203.927 1254.77,203.146 1265.13,202.008 1275.49,200.698 1285.85,199.424 1296.21,198.378 1306.56,197.715 1316.92,197.535 1327.28,197.868 1337.64,198.673 1348,199.843 1358.36,201.217 1368.71,202.599 1379.07,203.786 1389.43,204.599 1399.79,204.915 1410.15,204.702 1420.51,204.034 1430.86,203.1 1441.22,202.197 1451.58,201.713 1461.94,202.096 1472.3,203.834 1482.66,207.435 1493.01,213.406 1503.37,222.246 1513.73,234.417 1524.09,250.301 1534.45,270.134 1544.81,293.925 1555.16,321.383 1565.52,351.869 1575.88,384.414 1586.24,417.782 1596.6,450.606 1606.96,481.529 1617.31,509.363 1627.67,533.198 1638.03,552.473 1648.39,566.995 1658.75,576.918 1669.11,582.686 1679.46,584.97 1689.82,584.589 1700.18,582.422 1710.54,579.331 1720.9,576.085 1731.26,573.3 1741.61,571.396 1751.97,570.583 1762.33,570.869 1772.69,572.083 1783.05,573.926 1793.41,576.027 1803.76,578.002 1814.12,579.512 1824.48,580.306 1834.84,580.258 1845.2,579.372 1855.56,577.781 1865.91,575.719 1876.27,573.485 1886.63,571.4 1896.99,569.756 1907.35,568.78 1917.71,568.599 1928.06,569.225 1938.42,570.558 1948.78,572.398 1959.14,574.474 1969.5,576.486 1979.86,578.147 1990.21,579.22 2000.57,579.552 2010.93,579.097 2021.29,577.919 2031.65,576.183 2042.01,574.131 2052.36,572.048 2062.72,570.225 2073.08,568.914 2083.44,568.296 2093.8,568.454 2104.16,569.366 2114.51,570.904 2124.87,572.853 2135.23,574.942 2145.59,576.881 2155.95,578.402 2166.31,579.295 2176.66,579.435 2187.02,578.804 2197.38,577.489 2207.74,575.671 2218.1,573.603 2228.46,571.569 2238.81,569.85 2249.17,568.684 2259.53,568.231 2269.89,568.553 2280.25,569.607 2290.61,571.245 2300.96,573.243 2311.32,575.325 2321.68,577.204 2332.04,578.62 2342.4,579.378 2352.76,579.375 "/>
<polyline clip-path="url(#clip562)" style="stroke:#e26f46; stroke-linecap:round; stroke-linejoin:round; stroke-width:6; stroke-opacity:1; fill:none" points="281.088,573.799 291.447,573.807 301.805,573.822 312.163,573.841 322.522,573.862 332.88,573.881 343.238,573.897 353.597,573.905 363.955,573.907 374.313,573.902 384.672,573.89 395.03,573.874 405.388,573.857 415.747,573.84 426.105,573.827 436.463,573.82 446.822,573.818 457.18,573.822 467.538,573.831 477.897,573.844 488.255,573.857 498.613,573.87 508.972,573.879 519.33,573.885 529.688,573.885 540.047,573.88 550.405,573.872 560.763,573.862 571.122,573.852 581.48,573.844 591.838,573.839 602.197,573.839 612.555,573.842 622.913,573.849 633.272,573.858 643.63,573.867 653.988,573.874 664.347,573.877 674.705,573.876 685.063,573.869 695.422,573.859 705.78,573.846 716.139,573.834 726.497,573.825 736.855,573.822 747.214,573.826 757.572,573.837 767.93,573.856 778.289,573.879 788.647,573.902 799.005,573.923 809.364,573.936 819.722,573.938 830.08,573.927 840.439,573.904 850.797,573.872 861.155,573.837 871.514,573.806 881.872,573.789 892.23,573.793 902.589,573.827 912.947,573.892 923.305,573.984 933.664,574.089 944.022,574.186 954.38,574.24 964.739,574.204 975.097,574.02 985.455,573.612 995.814,572.885 1006.17,571.726 1016.53,570.013 1026.89,567.644 1037.25,564.578 1047.61,560.878 1057.96,556.743 1068.32,552.506 1078.68,548.598 1089.04,545.468 1099.4,543.493 1109.76,542.897 1120.11,543.708 1130.47,545.76 1140.83,548.74 1151.19,552.264 1161.55,555.953 1171.91,559.491 1182.26,562.664 1192.62,565.367 1202.98,567.584 1213.34,569.372 1223.7,570.828 1234.06,572.072 1244.41,573.222 1254.77,574.391 1265.13,575.667 1275.49,577.111 1285.85,578.751 1296.21,580.577 1306.56,582.543 1316.92,584.577 1327.28,586.593 1337.64,588.508 1348,590.258 1358.36,591.808 1368.71,593.163 1379.07,594.363 1389.43,595.482 1399.79,596.62 1410.15,597.889 1420.51,599.406 1430.86,601.279 1441.22,603.587 1451.58,606.358 1461.94,609.547 1472.3,613.012 1482.66,616.502 1493.01,619.667 1503.37,622.095 1513.73,623.377 1524.09,623.188 1534.45,621.362 1544.81,617.939 1555.16,613.177 1565.52,607.496 1575.88,601.404 1586.24,595.396 1596.6,589.874 1606.96,585.105 1617.31,581.208 1627.67,578.189 1638.03,575.973 1648.39,574.451 1658.75,573.5 1669.11,573.003 1679.46,572.847 1689.82,572.927 1700.18,573.148 1710.54,573.428 1720.9,573.702 1731.26,573.922 1741.61,574.062 1751.97,574.111 1762.33,574.076 1772.69,573.976 1783.05,573.836 1793.41,573.685 1803.76,573.551 1814.12,573.456 1824.48,573.414 1834.84,573.43 1845.2,573.502 1855.56,573.616 1865.91,573.755 1876.27,573.899 1886.63,574.029 1896.99,574.125 1907.35,574.176 1917.71,574.177 1928.06,574.129 1938.42,574.042 1948.78,573.927 1959.14,573.804 1969.5,573.688 1979.86,573.598 1990.21,573.544 2000.57,573.534 2010.93,573.569 2021.29,573.643 2031.65,573.744 2042.01,573.86 2052.36,573.973 2062.72,574.067 2073.08,574.131 2083.44,574.156 2093.8,574.14 2104.16,574.084 2114.51,573.997 2124.87,573.892 2135.23,573.784 2145.59,573.687 2155.95,573.615 2166.31,573.576 2176.66,573.577 2187.02,573.617 2197.38,573.689 2207.74,573.784 2218.1,573.887 2228.46,573.986 2238.81,574.066 2249.17,574.116 2259.53,574.131 2269.89,574.107 2280.25,574.05 2290.61,573.967 2300.96,573.869 2311.32,573.771 2321.68,573.685 2332.04,573.624 2342.4,573.596 2352.76,573.604 "/>
<polyline clip-path="url(#clip562)" style="stroke:#3da44d; stroke-linecap:round; stroke-linejoin:round; stroke-width:6; stroke-opacity:1; fill:none" points="281.088,127.281 291.447,127.281 301.805,127.272 312.163,127.259 322.522,127.249 332.88,127.248 343.238,127.256 353.597,127.269 363.955,127.28 374.313,127.283 384.672,127.277 395.03,127.265 405.388,127.253 415.747,127.248 426.105,127.252 436.463,127.264 446.822,127.276 457.18,127.283 467.538,127.281 477.897,127.271 488.255,127.258 498.613,127.249 508.972,127.25 519.33,127.259 529.688,127.272 540.047,127.282 550.405,127.284 560.763,127.276 571.122,127.263 581.48,127.253 591.838,127.25 602.197,127.257 612.555,127.27 622.913,127.282 633.272,127.287 643.63,127.283 653.988,127.271 664.347,127.258 674.705,127.252 685.063,127.255 695.422,127.265 705.78,127.277 716.139,127.284 726.497,127.282 736.855,127.271 747.214,127.26 757.572,127.254 767.93,127.259 778.289,127.274 788.647,127.291 799.005,127.303 809.364,127.304 819.722,127.293 830.08,127.277 840.439,127.264 850.797,127.26 861.155,127.265 871.514,127.273 881.872,127.276 892.23,127.271 902.589,127.267 912.947,127.276 923.305,127.308 933.664,127.361 944.022,127.41 954.38,127.419 964.739,127.367 975.097,127.298 985.455,127.369 995.814,127.898 1006.17,129.375 1016.53,132.427 1026.89,137.735 1037.25,145.913 1047.61,157.367 1057.96,172.177 1068.32,190.025 1078.68,210.192 1089.04,231.638 1099.4,253.132 1109.76,273.427 1120.11,291.433 1130.47,306.353 1140.83,317.765 1151.19,325.638 1161.55,330.283 1171.91,332.266 1182.26,332.301 1192.62,331.135 1202.98,329.465 1213.34,327.863 1223.7,326.749 1234.06,326.37 1244.41,326.807 1254.77,327.992 1265.13,329.74 1275.49,331.781 1285.85,333.804 1296.21,335.505 1306.56,336.626 1316.92,336.998 1327.28,336.566 1337.64,335.394 1348,333.66 1358.36,331.624 1368.71,329.595 1379.07,327.88 1389.43,326.746 1399.79,326.37 1410.15,326.81 1420.51,327.971 1430.86,329.594 1441.22,331.248 1451.58,332.349 1461.94,332.194 1472.3,330.035 1482.66,325.165 1493.01,317.034 1503.37,305.353 1513.73,290.181 1524.09,271.972 1534.45,251.546 1544.81,230.012 1555.16,208.621 1565.52,188.594 1575.88,170.954 1586.24,156.39 1596.6,145.189 1606.96,137.244 1617.31,132.128 1627.67,129.218 1638.03,127.833 1648.39,127.353 1658.75,127.301 1669.11,127.373 1679.46,127.42 1689.82,127.407 1700.18,127.357 1710.54,127.305 1720.9,127.274 1731.26,127.267 1741.61,127.272 1751.97,127.276 1762.33,127.272 1772.69,127.265 1783.05,127.26 1793.41,127.265 1803.76,127.278 1814.12,127.294 1824.48,127.304 1834.84,127.303 1845.2,127.29 1855.56,127.273 1865.91,127.259 1876.27,127.254 1886.63,127.261 1896.99,127.272 1907.35,127.282 1917.71,127.284 1928.06,127.277 1938.42,127.264 1948.78,127.254 1959.14,127.252 1969.5,127.259 1979.86,127.272 1990.21,127.283 2000.57,127.287 2010.93,127.281 2021.29,127.269 2031.65,127.256 2042.01,127.25 2052.36,127.253 2062.72,127.264 2073.08,127.277 2083.44,127.284 2093.8,127.282 2104.16,127.272 2114.51,127.258 2124.87,127.25 2135.23,127.25 2145.59,127.259 2155.95,127.272 2166.31,127.281 2176.66,127.283 2187.02,127.275 2197.38,127.263 2207.74,127.251 2218.1,127.248 2228.46,127.253 2238.81,127.266 2249.17,127.278 2259.53,127.283 2269.89,127.279 2280.25,127.268 2290.61,127.255 2300.96,127.247 2311.32,127.249 2321.68,127.26 2332.04,127.272 2342.4,127.281 2352.76,127.281 "/>
<polyline clip-path="url(#clip562)" style="stroke:#c271d2; stroke-linecap:round; stroke-linejoin:round; stroke-width:6; stroke-opacity:1; fill:none" points="281.088,568.306 291.447,568.361 301.805,569.175 312.163,570.634 322.522,572.539 332.88,573.087 343.238,571.104 353.597,569.5 363.955,568.497 374.313,568.231 384.672,568.742 395.03,569.957 405.388,571.71 415.747,573.758 426.105,571.893 436.463,570.103 446.822,568.832 457.18,568.256 467.538,568.454 477.897,569.4 488.255,570.963 498.613,572.926 508.972,572.697 519.33,570.768 529.688,569.268 540.047,568.408 550.405,568.308 560.763,568.983 571.122,570.341 581.48,572.196 591.838,573.425 602.197,571.384 612.555,569.679 622.913,568.548 633.272,568.151 643.63,568.542 653.988,569.666 664.347,571.365 674.705,573.396 685.063,572.246 695.422,570.432 705.78,569.144 716.139,568.574 726.497,568.817 736.855,569.85 747.214,571.539 757.572,573.649 767.93,571.828 778.289,569.787 788.647,568.237 799.005,567.409 809.364,567.424 819.722,568.279 830.08,569.837 840.439,571.839 850.797,573.773 861.155,571.961 871.514,570.804 881.872,570.595 892.23,571.494 902.589,573.479 912.947,571.389 923.305,568.12 933.664,565.057 944.022,562.983 954.38,562.766 964.739,565.291 975.097,571.371 985.455,566.039 995.814,551.08 1006.17,531.322 1016.53,506.97 1026.89,478.598 1037.25,447.127 1047.61,413.766 1057.96,379.895 1068.32,346.923 1078.68,316.13 1089.04,288.534 1099.4,264.805 1109.76,245.24 1120.11,229.804 1130.47,218.207 1140.83,209.997 1151.19,204.647 1161.55,201.609 1171.91,200.341 1182.26,200.328 1192.62,201.084 1202.98,202.172 1213.34,203.223 1223.7,203.961 1234.06,204.214 1244.41,203.926 1254.77,203.146 1265.13,202.003 1275.49,200.684 1285.85,199.392 1296.21,198.317 1306.56,197.615 1316.92,197.383 1327.28,197.652 1337.64,198.387 1348,199.483 1358.36,200.785 1368.71,202.098 1379.07,203.219 1389.43,203.966 1399.79,204.214 1410.15,203.921 1420.51,203.153 1430.86,202.087 1441.22,201.01 1451.58,200.296 1461.94,200.387 1472.3,201.769 1482.66,204.962 1493.01,210.507 1503.37,218.953 1513.73,230.824 1524.09,246.562 1534.45,266.442 1544.81,290.476 1555.16,318.339 1565.52,349.335 1575.88,382.421 1586.24,416.303 1596.6,449.57 1606.96,480.847 1617.31,508.946 1627.67,532.968 1638.03,552.368 1648.39,566.97 1658.75,570.776 1669.11,564.988 1679.46,562.698 1689.82,563.085 1700.18,565.263 1710.54,568.367 1720.9,571.624 1731.26,573.296 1741.61,571.387 1751.97,570.574 1762.33,570.861 1772.69,572.079 1783.05,573.785 1793.41,571.68 1803.76,569.701 1814.12,568.188 1824.48,567.393 1834.84,567.442 1845.2,568.331 1855.56,569.926 1865.91,571.993 1876.27,573.483 1886.63,571.394 1896.99,569.748 1907.35,568.77 1917.71,568.589 1928.06,569.217 1938.42,570.553 1948.78,572.396 1959.14,573.238 1969.5,571.223 1979.86,569.559 1990.21,568.486 2000.57,568.153 2010.93,568.609 2021.29,569.789 2031.65,571.529 2042.01,573.584 2052.36,572.045 2062.72,570.219 2073.08,568.907 2083.44,568.288 2093.8,568.447 2104.16,569.361 2114.51,570.901 2124.87,572.852 2135.23,572.77 2145.59,570.828 2155.95,569.306 2166.31,568.412 2176.66,568.272 2187.02,568.905 2197.38,570.222 2207.74,572.042 2218.1,573.601 2228.46,571.565 2238.81,569.845 2249.17,568.677 2259.53,568.224 2269.89,568.547 2280.25,569.602 2290.61,571.243 2300.96,573.243 2311.32,572.387 2321.68,570.506 2332.04,569.089 2342.4,568.33 2352.76,568.334 "/>
<path clip-path="url(#clip560)" d="M1959.61 516.756 L2283.7 516.756 L2283.7 257.556 L1959.61 257.556  Z" fill="#ffffff" fill-rule="evenodd" fill-opacity="1"/>
<polyline clip-path="url(#clip560)" style="stroke:#000000; stroke-linecap:round; stroke-linejoin:round; stroke-width:4; stroke-opacity:1; fill:none" points="1959.61,516.756 2283.7,516.756 2283.7,257.556 1959.61,257.556 1959.61,516.756 "/>
<polyline clip-path="url(#clip560)" style="stroke:#009af9; stroke-linecap:round; stroke-linejoin:round; stroke-width:6; stroke-opacity:1; fill:none" points="1982.63,309.396 2120.74,309.396 "/>
<path clip-path="url(#clip560)" d="M2143.76 292.116 L2150.73 292.116 L2159.55 315.635 L2168.41 292.116 L2175.38 292.116 L2175.38 326.676 L2170.82 326.676 L2170.82 296.329 L2161.91 320.033 L2157.21 320.033 L2148.3 296.329 L2148.3 326.676 L2143.76 326.676 L2143.76 292.116 Z" fill="#000000" fill-rule="nonzero" fill-opacity="1" /><path clip-path="url(#clip560)" d="M2206.03 300.751 L2196.65 313.366 L2206.52 326.676 L2201.49 326.676 L2193.95 316.491 L2186.4 326.676 L2181.38 326.676 L2191.45 313.112 L2182.23 300.751 L2187.26 300.751 L2194.13 309.987 L2201.01 300.751 L2206.03 300.751 Z" fill="#000000" fill-rule="nonzero" fill-opacity="1" /><polyline clip-path="url(#clip560)" style="stroke:#e26f46; stroke-linecap:round; stroke-linejoin:round; stroke-width:6; stroke-opacity:1; fill:none" points="1982.63,361.236 2120.74,361.236 "/>
<path clip-path="url(#clip560)" d="M2143.76 343.956 L2150.73 343.956 L2159.55 367.475 L2168.41 343.956 L2175.38 343.956 L2175.38 378.516 L2170.82 378.516 L2170.82 348.169 L2161.91 371.873 L2157.21 371.873 L2148.3 348.169 L2148.3 378.516 L2143.76 378.516 L2143.76 343.956 Z" fill="#000000" fill-rule="nonzero" fill-opacity="1" /><path clip-path="url(#clip560)" d="M2195.27 380.924 Q2193.46 385.553 2191.75 386.966 Q2190.03 388.378 2187.16 388.378 L2183.76 388.378 L2183.76 384.813 L2186.26 384.813 Q2188.02 384.813 2188.99 383.979 Q2189.96 383.146 2191.15 380.044 L2191.91 378.1 L2181.42 352.591 L2185.94 352.591 L2194.04 372.868 L2202.14 352.591 L2206.65 352.591 L2195.27 380.924 Z" fill="#000000" fill-rule="nonzero" fill-opacity="1" /><polyline clip-path="url(#clip560)" style="stroke:#3da44d; stroke-linecap:round; stroke-linejoin:round; stroke-width:6; stroke-opacity:1; fill:none" points="1982.63,413.076 2120.74,413.076 "/>
<path clip-path="url(#clip560)" d="M2143.76 395.796 L2150.73 395.796 L2159.55 419.315 L2168.41 395.796 L2175.38 395.796 L2175.38 430.356 L2170.82 430.356 L2170.82 400.009 L2161.91 423.713 L2157.21 423.713 L2148.3 400.009 L2148.3 430.356 L2143.76 430.356 L2143.76 395.796 Z" fill="#000000" fill-rule="nonzero" fill-opacity="1" /><path clip-path="url(#clip560)" d="M2182.63 404.431 L2202.86 404.431 L2202.86 408.32 L2186.84 426.954 L2202.86 426.954 L2202.86 430.356 L2182.05 430.356 L2182.05 426.468 L2198.07 407.833 L2182.63 407.833 L2182.63 404.431 Z" fill="#000000" fill-rule="nonzero" fill-opacity="1" /><polyline clip-path="url(#clip560)" style="stroke:#c271d2; stroke-linecap:round; stroke-linejoin:round; stroke-width:6; stroke-opacity:1; fill:none" points="1982.63,464.916 2120.74,464.916 "/>
<path clip-path="url(#clip560)" d="M2147.7 445.97 L2147.7 493.377 L2143.76 493.377 L2143.76 445.97 L2147.7 445.97 Z" fill="#000000" fill-rule="nonzero" fill-opacity="1" /><path clip-path="url(#clip560)" d="M2158.37 447.636 L2165.34 447.636 L2174.15 471.155 L2183.02 447.636 L2189.99 447.636 L2189.99 482.196 L2185.43 482.196 L2185.43 451.849 L2176.52 475.553 L2171.82 475.553 L2162.9 451.849 L2162.9 482.196 L2158.37 482.196 L2158.37 447.636 Z" fill="#000000" fill-rule="nonzero" fill-opacity="1" /><path clip-path="url(#clip560)" d="M2220.64 456.271 L2211.26 468.886 L2221.12 482.196 L2216.1 482.196 L2208.55 472.011 L2201.01 482.196 L2195.98 482.196 L2206.05 468.632 L2196.84 456.271 L2201.86 456.271 L2208.74 465.507 L2215.61 456.271 L2220.64 456.271 Z" fill="#000000" fill-rule="nonzero" fill-opacity="1" /><path clip-path="url(#clip560)" d="M2237.93 484.604 Q2236.12 489.233 2234.41 490.646 Q2232.7 492.058 2229.83 492.058 L2226.42 492.058 L2226.42 488.493 L2228.92 488.493 Q2230.68 488.493 2231.65 487.659 Q2232.63 486.826 2233.81 483.724 L2234.57 481.78 L2224.08 456.271 L2228.6 456.271 L2236.7 476.548 L2244.8 456.271 L2249.32 456.271 L2237.93 484.604 Z" fill="#000000" fill-rule="nonzero" fill-opacity="1" /><path clip-path="url(#clip560)" d="M2260.68 445.97 L2260.68 493.377 L2256.75 493.377 L2256.75 445.97 L2260.68 445.97 Z" fill="#000000" fill-rule="nonzero" fill-opacity="1" /><path clip-path="url(#clip560)" d="M281.088 1423.18 L2352.76 1423.18 L2352.76 887.244 L281.088 887.244  Z" fill="#ffffff" fill-rule="evenodd" fill-opacity="1"/>
<defs>
  <clipPath id="clip563">
    <rect x="281" y="887" width="2073" height="537"/>
  </clipPath>
</defs>
<polyline clip-path="url(#clip563)" style="stroke:#000000; stroke-linecap:round; stroke-linejoin:round; stroke-width:2; stroke-opacity:0.1; fill:none" points="281.088,1423.18 281.088,887.244 "/>
<polyline clip-path="url(#clip563)" style="stroke:#000000; stroke-linecap:round; stroke-linejoin:round; stroke-width:2; stroke-opacity:0.1; fill:none" points="1057.96,1423.18 1057.96,887.244 "/>
<polyline clip-path="url(#clip563)" style="stroke:#000000; stroke-linecap:round; stroke-linejoin:round; stroke-width:2; stroke-opacity:0.1; fill:none" points="1316.92,1423.18 1316.92,887.244 "/>
<polyline clip-path="url(#clip563)" style="stroke:#000000; stroke-linecap:round; stroke-linejoin:round; stroke-width:2; stroke-opacity:0.1; fill:none" points="1575.88,1423.18 1575.88,887.244 "/>
<polyline clip-path="url(#clip563)" style="stroke:#000000; stroke-linecap:round; stroke-linejoin:round; stroke-width:2; stroke-opacity:0.1; fill:none" points="2352.76,1423.18 2352.76,887.244 "/>
<polyline clip-path="url(#clip563)" style="stroke:#000000; stroke-linecap:round; stroke-linejoin:round; stroke-width:2; stroke-opacity:0.1; fill:none" points="281.088,1396.62 2352.76,1396.62 "/>
<polyline clip-path="url(#clip563)" style="stroke:#000000; stroke-linecap:round; stroke-linejoin:round; stroke-width:2; stroke-opacity:0.1; fill:none" points="281.088,1316.14 2352.76,1316.14 "/>
<polyline clip-path="url(#clip563)" style="stroke:#000000; stroke-linecap:round; stroke-linejoin:round; stroke-width:2; stroke-opacity:0.1; fill:none" points="281.088,1235.66 2352.76,1235.66 "/>
<polyline clip-path="url(#clip563)" style="stroke:#000000; stroke-linecap:round; stroke-linejoin:round; stroke-width:2; stroke-opacity:0.1; fill:none" points="281.088,1155.18 2352.76,1155.18 "/>
<polyline clip-path="url(#clip563)" style="stroke:#000000; stroke-linecap:round; stroke-linejoin:round; stroke-width:2; stroke-opacity:0.1; fill:none" points="281.088,1074.7 2352.76,1074.7 "/>
<polyline clip-path="url(#clip563)" style="stroke:#000000; stroke-linecap:round; stroke-linejoin:round; stroke-width:2; stroke-opacity:0.1; fill:none" points="281.088,994.223 2352.76,994.223 "/>
<polyline clip-path="url(#clip563)" style="stroke:#000000; stroke-linecap:round; stroke-linejoin:round; stroke-width:2; stroke-opacity:0.1; fill:none" points="281.088,913.744 2352.76,913.744 "/>
<polyline clip-path="url(#clip560)" style="stroke:#000000; stroke-linecap:round; stroke-linejoin:round; stroke-width:4; stroke-opacity:1; fill:none" points="281.088,1423.18 2352.76,1423.18 "/>
<polyline clip-path="url(#clip560)" style="stroke:#000000; stroke-linecap:round; stroke-linejoin:round; stroke-width:4; stroke-opacity:1; fill:none" points="281.088,1423.18 281.088,1404.28 "/>
<polyline clip-path="url(#clip560)" style="stroke:#000000; stroke-linecap:round; stroke-linejoin:round; stroke-width:4; stroke-opacity:1; fill:none" points="1057.96,1423.18 1057.96,1404.28 "/>
<polyline clip-path="url(#clip560)" style="stroke:#000000; stroke-linecap:round; stroke-linejoin:round; stroke-width:4; stroke-opacity:1; fill:none" points="1316.92,1423.18 1316.92,1404.28 "/>
<polyline clip-path="url(#clip560)" style="stroke:#000000; stroke-linecap:round; stroke-linejoin:round; stroke-width:4; stroke-opacity:1; fill:none" points="1575.88,1423.18 1575.88,1404.28 "/>
<polyline clip-path="url(#clip560)" style="stroke:#000000; stroke-linecap:round; stroke-linejoin:round; stroke-width:4; stroke-opacity:1; fill:none" points="2352.76,1423.18 2352.76,1404.28 "/>
<path clip-path="url(#clip560)" d="M212.535 1468.75 L242.211 1468.75 L242.211 1472.69 L212.535 1472.69 L212.535 1468.75 Z" fill="#000000" fill-rule="nonzero" fill-opacity="1" /><path clip-path="url(#clip560)" d="M253.114 1481.64 L260.753 1481.64 L260.753 1455.28 L252.443 1456.95 L252.443 1452.69 L260.706 1451.02 L265.382 1451.02 L265.382 1481.64 L273.021 1481.64 L273.021 1485.58 L253.114 1485.58 L253.114 1481.64 Z" fill="#000000" fill-rule="nonzero" fill-opacity="1" /><path clip-path="url(#clip560)" d="M282.466 1479.7 L287.35 1479.7 L287.35 1485.58 L282.466 1485.58 L282.466 1479.7 Z" fill="#000000" fill-rule="nonzero" fill-opacity="1" /><path clip-path="url(#clip560)" d="M307.535 1454.1 Q303.924 1454.1 302.095 1457.66 Q300.29 1461.2 300.29 1468.33 Q300.29 1475.44 302.095 1479.01 Q303.924 1482.55 307.535 1482.55 Q311.169 1482.55 312.975 1479.01 Q314.803 1475.44 314.803 1468.33 Q314.803 1461.2 312.975 1457.66 Q311.169 1454.1 307.535 1454.1 M307.535 1450.39 Q313.345 1450.39 316.401 1455 Q319.479 1459.58 319.479 1468.33 Q319.479 1477.06 316.401 1481.67 Q313.345 1486.25 307.535 1486.25 Q301.725 1486.25 298.646 1481.67 Q295.591 1477.06 295.591 1468.33 Q295.591 1459.58 298.646 1455 Q301.725 1450.39 307.535 1450.39 Z" fill="#000000" fill-rule="nonzero" fill-opacity="1" /><path clip-path="url(#clip560)" d="M337.697 1454.1 Q334.086 1454.1 332.257 1457.66 Q330.451 1461.2 330.451 1468.33 Q330.451 1475.44 332.257 1479.01 Q334.086 1482.55 337.697 1482.55 Q341.331 1482.55 343.137 1479.01 Q344.965 1475.44 344.965 1468.33 Q344.965 1461.2 343.137 1457.66 Q341.331 1454.1 337.697 1454.1 M337.697 1450.39 Q343.507 1450.39 346.562 1455 Q349.641 1459.58 349.641 1468.33 Q349.641 1477.06 346.562 1481.67 Q343.507 1486.25 337.697 1486.25 Q331.887 1486.25 328.808 1481.67 Q325.752 1477.06 325.752 1468.33 Q325.752 1459.58 328.808 1455 Q331.887 1450.39 337.697 1450.39 Z" fill="#000000" fill-rule="nonzero" fill-opacity="1" /><path clip-path="url(#clip560)" d="M989.908 1468.75 L1019.58 1468.75 L1019.58 1472.69 L989.908 1472.69 L989.908 1468.75 Z" fill="#000000" fill-rule="nonzero" fill-opacity="1" /><path clip-path="url(#clip560)" d="M1039.68 1454.1 Q1036.07 1454.1 1034.24 1457.66 Q1032.43 1461.2 1032.43 1468.33 Q1032.43 1475.44 1034.24 1479.01 Q1036.07 1482.55 1039.68 1482.55 Q1043.31 1482.55 1045.12 1479.01 Q1046.95 1475.44 1046.95 1468.33 Q1046.95 1461.2 1045.12 1457.66 Q1043.31 1454.1 1039.68 1454.1 M1039.68 1450.39 Q1045.49 1450.39 1048.54 1455 Q1051.62 1459.58 1051.62 1468.33 Q1051.62 1477.06 1048.54 1481.67 Q1045.49 1486.25 1039.68 1486.25 Q1033.87 1486.25 1030.79 1481.67 Q1027.73 1477.06 1027.73 1468.33 Q1027.73 1459.58 1030.79 1455 Q1033.87 1450.39 1039.68 1450.39 Z" fill="#000000" fill-rule="nonzero" fill-opacity="1" /><path clip-path="url(#clip560)" d="M1059.84 1479.7 L1064.72 1479.7 L1064.72 1485.58 L1059.84 1485.58 L1059.84 1479.7 Z" fill="#000000" fill-rule="nonzero" fill-opacity="1" /><path clip-path="url(#clip560)" d="M1078.94 1481.64 L1095.26 1481.64 L1095.26 1485.58 L1073.31 1485.58 L1073.31 1481.64 Q1075.97 1478.89 1080.56 1474.26 Q1085.16 1469.61 1086.34 1468.27 Q1088.59 1465.74 1089.47 1464.01 Q1090.37 1462.25 1090.37 1460.56 Q1090.37 1457.8 1088.43 1456.07 Q1086.51 1454.33 1083.4 1454.33 Q1081.2 1454.33 1078.75 1455.09 Q1076.32 1455.86 1073.54 1457.41 L1073.54 1452.69 Q1076.37 1451.55 1078.82 1450.97 Q1081.27 1450.39 1083.31 1450.39 Q1088.68 1450.39 1091.88 1453.08 Q1095.07 1455.77 1095.07 1460.26 Q1095.07 1462.39 1094.26 1464.31 Q1093.47 1466.2 1091.37 1468.8 Q1090.79 1469.47 1087.69 1472.69 Q1084.58 1475.88 1078.94 1481.64 Z" fill="#000000" fill-rule="nonzero" fill-opacity="1" /><path clip-path="url(#clip560)" d="M1105.12 1451.02 L1123.47 1451.02 L1123.47 1454.96 L1109.4 1454.96 L1109.4 1463.43 Q1110.42 1463.08 1111.44 1462.92 Q1112.45 1462.73 1113.47 1462.73 Q1119.26 1462.73 1122.64 1465.9 Q1126.02 1469.08 1126.02 1474.49 Q1126.02 1480.07 1122.55 1483.17 Q1119.07 1486.25 1112.76 1486.25 Q1110.58 1486.25 1108.31 1485.88 Q1106.07 1485.51 1103.66 1484.77 L1103.66 1480.07 Q1105.74 1481.2 1107.96 1481.76 Q1110.19 1482.32 1112.66 1482.32 Q1116.67 1482.32 1119 1480.21 Q1121.34 1478.1 1121.34 1474.49 Q1121.34 1470.88 1119 1468.77 Q1116.67 1466.67 1112.66 1466.67 Q1110.79 1466.67 1108.91 1467.08 Q1107.06 1467.5 1105.12 1468.38 L1105.12 1451.02 Z" fill="#000000" fill-rule="nonzero" fill-opacity="1" /><path clip-path="url(#clip560)" d="M1279.23 1454.1 Q1275.61 1454.1 1273.79 1457.66 Q1271.98 1461.2 1271.98 1468.33 Q1271.98 1475.44 1273.79 1479.01 Q1275.61 1482.55 1279.23 1482.55 Q1282.86 1482.55 1284.67 1479.01 Q1286.49 1475.44 1286.49 1468.33 Q1286.49 1461.2 1284.67 1457.66 Q1282.86 1454.1 1279.23 1454.1 M1279.23 1450.39 Q1285.04 1450.39 1288.09 1455 Q1291.17 1459.58 1291.17 1468.33 Q1291.17 1477.06 1288.09 1481.67 Q1285.04 1486.25 1279.23 1486.25 Q1273.42 1486.25 1270.34 1481.67 Q1267.28 1477.06 1267.28 1468.33 Q1267.28 1459.58 1270.34 1455 Q1273.42 1450.39 1279.23 1450.39 Z" fill="#000000" fill-rule="nonzero" fill-opacity="1" /><path clip-path="url(#clip560)" d="M1299.39 1479.7 L1304.27 1479.7 L1304.27 1485.58 L1299.39 1485.58 L1299.39 1479.7 Z" fill="#000000" fill-rule="nonzero" fill-opacity="1" /><path clip-path="url(#clip560)" d="M1324.46 1454.1 Q1320.85 1454.1 1319.02 1457.66 Q1317.21 1461.2 1317.21 1468.33 Q1317.21 1475.44 1319.02 1479.01 Q1320.85 1482.55 1324.46 1482.55 Q1328.09 1482.55 1329.9 1479.01 Q1331.73 1475.44 1331.73 1468.33 Q1331.73 1461.2 1329.9 1457.66 Q1328.09 1454.1 1324.46 1454.1 M1324.46 1450.39 Q1330.27 1450.39 1333.32 1455 Q1336.4 1459.58 1336.4 1468.33 Q1336.4 1477.06 1333.32 1481.67 Q1330.27 1486.25 1324.46 1486.25 Q1318.65 1486.25 1315.57 1481.67 Q1312.51 1477.06 1312.51 1468.33 Q1312.51 1459.58 1315.57 1455 Q1318.65 1450.39 1324.46 1450.39 Z" fill="#000000" fill-rule="nonzero" fill-opacity="1" /><path clip-path="url(#clip560)" d="M1354.62 1454.1 Q1351.01 1454.1 1349.18 1457.66 Q1347.37 1461.2 1347.37 1468.33 Q1347.37 1475.44 1349.18 1479.01 Q1351.01 1482.55 1354.62 1482.55 Q1358.25 1482.55 1360.06 1479.01 Q1361.89 1475.44 1361.89 1468.33 Q1361.89 1461.2 1360.06 1457.66 Q1358.25 1454.1 1354.62 1454.1 M1354.62 1450.39 Q1360.43 1450.39 1363.48 1455 Q1366.56 1459.58 1366.56 1468.33 Q1366.56 1477.06 1363.48 1481.67 Q1360.43 1486.25 1354.62 1486.25 Q1348.81 1486.25 1345.73 1481.67 Q1342.67 1477.06 1342.67 1468.33 Q1342.67 1459.58 1345.73 1455 Q1348.81 1450.39 1354.62 1450.39 Z" fill="#000000" fill-rule="nonzero" fill-opacity="1" /><path clip-path="url(#clip560)" d="M1538.68 1454.1 Q1535.07 1454.1 1533.24 1457.66 Q1531.44 1461.2 1531.44 1468.33 Q1531.44 1475.44 1533.24 1479.01 Q1535.07 1482.55 1538.68 1482.55 Q1542.32 1482.55 1544.12 1479.01 Q1545.95 1475.44 1545.95 1468.33 Q1545.95 1461.2 1544.12 1457.66 Q1542.32 1454.1 1538.68 1454.1 M1538.68 1450.39 Q1544.49 1450.39 1547.55 1455 Q1550.63 1459.58 1550.63 1468.33 Q1550.63 1477.06 1547.55 1481.67 Q1544.49 1486.25 1538.68 1486.25 Q1532.87 1486.25 1529.79 1481.67 Q1526.74 1477.06 1526.74 1468.33 Q1526.74 1459.58 1529.79 1455 Q1532.87 1450.39 1538.68 1450.39 Z" fill="#000000" fill-rule="nonzero" fill-opacity="1" /><path clip-path="url(#clip560)" d="M1558.84 1479.7 L1563.73 1479.7 L1563.73 1485.58 L1558.84 1485.58 L1558.84 1479.7 Z" fill="#000000" fill-rule="nonzero" fill-opacity="1" /><path clip-path="url(#clip560)" d="M1577.94 1481.64 L1594.26 1481.64 L1594.26 1485.58 L1572.32 1485.58 L1572.32 1481.64 Q1574.98 1478.89 1579.56 1474.26 Q1584.17 1469.61 1585.35 1468.27 Q1587.59 1465.74 1588.47 1464.01 Q1589.38 1462.25 1589.38 1460.56 Q1589.38 1457.8 1587.43 1456.07 Q1585.51 1454.33 1582.41 1454.33 Q1580.21 1454.33 1577.76 1455.09 Q1575.33 1455.86 1572.55 1457.41 L1572.55 1452.69 Q1575.37 1451.55 1577.82 1450.97 Q1580.28 1450.39 1582.32 1450.39 Q1587.69 1450.39 1590.88 1453.08 Q1594.07 1455.77 1594.07 1460.26 Q1594.07 1462.39 1593.26 1464.31 Q1592.48 1466.2 1590.37 1468.8 Q1589.79 1469.47 1586.69 1472.69 Q1583.59 1475.88 1577.94 1481.64 Z" fill="#000000" fill-rule="nonzero" fill-opacity="1" /><path clip-path="url(#clip560)" d="M1604.12 1451.02 L1622.48 1451.02 L1622.48 1454.96 L1608.4 1454.96 L1608.4 1463.43 Q1609.42 1463.08 1610.44 1462.92 Q1611.46 1462.73 1612.48 1462.73 Q1618.26 1462.73 1621.64 1465.9 Q1625.02 1469.08 1625.02 1474.49 Q1625.02 1480.07 1621.55 1483.17 Q1618.08 1486.25 1611.76 1486.25 Q1609.58 1486.25 1607.32 1485.88 Q1605.07 1485.51 1602.66 1484.77 L1602.66 1480.07 Q1604.75 1481.2 1606.97 1481.76 Q1609.19 1482.32 1611.67 1482.32 Q1615.67 1482.32 1618.01 1480.21 Q1620.35 1478.1 1620.35 1474.49 Q1620.35 1470.88 1618.01 1468.77 Q1615.67 1466.67 1611.67 1466.67 Q1609.79 1466.67 1607.92 1467.08 Q1606.07 1467.5 1604.12 1468.38 L1604.12 1451.02 Z" fill="#000000" fill-rule="nonzero" fill-opacity="1" /><path clip-path="url(#clip560)" d="M2304.83 1481.64 L2312.47 1481.64 L2312.47 1455.28 L2304.16 1456.95 L2304.16 1452.69 L2312.42 1451.02 L2317.1 1451.02 L2317.1 1481.64 L2324.74 1481.64 L2324.74 1485.58 L2304.83 1485.58 L2304.83 1481.64 Z" fill="#000000" fill-rule="nonzero" fill-opacity="1" /><path clip-path="url(#clip560)" d="M2334.18 1479.7 L2339.06 1479.7 L2339.06 1485.58 L2334.18 1485.58 L2334.18 1479.7 Z" fill="#000000" fill-rule="nonzero" fill-opacity="1" /><path clip-path="url(#clip560)" d="M2359.25 1454.1 Q2355.64 1454.1 2353.81 1457.66 Q2352 1461.2 2352 1468.33 Q2352 1475.44 2353.81 1479.01 Q2355.64 1482.55 2359.25 1482.55 Q2362.88 1482.55 2364.69 1479.01 Q2366.52 1475.44 2366.52 1468.33 Q2366.52 1461.2 2364.69 1457.66 Q2362.88 1454.1 2359.25 1454.1 M2359.25 1450.39 Q2365.06 1450.39 2368.11 1455 Q2371.19 1459.58 2371.19 1468.33 Q2371.19 1477.06 2368.11 1481.67 Q2365.06 1486.25 2359.25 1486.25 Q2353.44 1486.25 2350.36 1481.67 Q2347.3 1477.06 2347.3 1468.33 Q2347.3 1459.58 2350.36 1455 Q2353.44 1450.39 2359.25 1450.39 Z" fill="#000000" fill-rule="nonzero" fill-opacity="1" /><path clip-path="url(#clip560)" d="M2389.41 1454.1 Q2385.8 1454.1 2383.97 1457.66 Q2382.17 1461.2 2382.17 1468.33 Q2382.17 1475.44 2383.97 1479.01 Q2385.8 1482.55 2389.41 1482.55 Q2393.05 1482.55 2394.85 1479.01 Q2396.68 1475.44 2396.68 1468.33 Q2396.68 1461.2 2394.85 1457.66 Q2393.05 1454.1 2389.41 1454.1 M2389.41 1450.39 Q2395.22 1450.39 2398.28 1455 Q2401.36 1459.58 2401.36 1468.33 Q2401.36 1477.06 2398.28 1481.67 Q2395.22 1486.25 2389.41 1486.25 Q2383.6 1486.25 2380.52 1481.67 Q2377.47 1477.06 2377.47 1468.33 Q2377.47 1459.58 2380.52 1455 Q2383.6 1450.39 2389.41 1450.39 Z" fill="#000000" fill-rule="nonzero" fill-opacity="1" /><path clip-path="url(#clip560)" d="M1219.35 1532.4 L1247.17 1532.4 L1247.17 1537.74 L1225.14 1563.37 L1247.17 1563.37 L1247.17 1568.04 L1218.56 1568.04 L1218.56 1562.7 L1240.58 1537.07 L1219.35 1537.07 L1219.35 1532.4 Z" fill="#000000" fill-rule="nonzero" fill-opacity="1" /><path clip-path="url(#clip560)" d="M1276.29 1518.52 L1289.79 1518.52 L1289.79 1523.07 L1282.15 1523.07 L1282.15 1572.09 L1289.79 1572.09 L1289.79 1576.64 L1276.29 1576.64 L1276.29 1518.52 Z" fill="#000000" fill-rule="nonzero" fill-opacity="1" /><path clip-path="url(#clip560)" d="M1327.92 1533.76 L1327.92 1539.24 Q1325.44 1537.87 1322.92 1537.2 Q1320.44 1536.5 1317.89 1536.5 Q1312.2 1536.5 1309.04 1540.13 Q1305.89 1543.73 1305.89 1550.25 Q1305.89 1556.78 1309.04 1560.4 Q1312.2 1564 1317.89 1564 Q1320.44 1564 1322.92 1563.33 Q1325.44 1562.63 1327.92 1561.26 L1327.92 1566.68 Q1325.47 1567.82 1322.83 1568.39 Q1320.22 1568.97 1317.26 1568.97 Q1309.2 1568.97 1304.46 1563.91 Q1299.72 1558.85 1299.72 1550.25 Q1299.72 1541.53 1304.49 1536.53 Q1309.3 1531.54 1317.64 1531.54 Q1320.34 1531.54 1322.92 1532.11 Q1325.5 1532.65 1327.92 1533.76 Z" fill="#000000" fill-rule="nonzero" fill-opacity="1" /><path clip-path="url(#clip560)" d="M1365.86 1539.24 Q1368.05 1535.29 1371.11 1533.41 Q1374.17 1531.54 1378.3 1531.54 Q1383.87 1531.54 1386.9 1535.45 Q1389.92 1539.33 1389.92 1546.53 L1389.92 1568.04 L1384.03 1568.04 L1384.03 1546.72 Q1384.03 1541.59 1382.22 1539.11 Q1380.4 1536.63 1376.68 1536.63 Q1372.13 1536.63 1369.49 1539.65 Q1366.85 1542.68 1366.85 1547.9 L1366.85 1568.04 L1360.96 1568.04 L1360.96 1546.72 Q1360.96 1541.56 1359.14 1539.11 Q1357.33 1536.63 1353.54 1536.63 Q1349.05 1536.63 1346.41 1539.68 Q1343.77 1542.71 1343.77 1547.9 L1343.77 1568.04 L1337.88 1568.04 L1337.88 1532.4 L1343.77 1532.4 L1343.77 1537.93 Q1345.77 1534.66 1348.58 1533.1 Q1351.38 1531.54 1355.23 1531.54 Q1359.11 1531.54 1361.82 1533.51 Q1364.55 1535.48 1365.86 1539.24 Z" fill="#000000" fill-rule="nonzero" fill-opacity="1" /><path clip-path="url(#clip560)" d="M1415.29 1518.52 L1415.29 1576.64 L1401.79 1576.64 L1401.79 1572.09 L1409.4 1572.09 L1409.4 1523.07 L1401.79 1523.07 L1401.79 1518.52 L1415.29 1518.52 Z" fill="#000000" fill-rule="nonzero" fill-opacity="1" /><polyline clip-path="url(#clip560)" style="stroke:#000000; stroke-linecap:round; stroke-linejoin:round; stroke-width:4; stroke-opacity:1; fill:none" points="281.088,1423.18 281.088,887.244 "/>
<polyline clip-path="url(#clip560)" style="stroke:#000000; stroke-linecap:round; stroke-linejoin:round; stroke-width:4; stroke-opacity:1; fill:none" points="281.088,1396.62 299.986,1396.62 "/>
<polyline clip-path="url(#clip560)" style="stroke:#000000; stroke-linecap:round; stroke-linejoin:round; stroke-width:4; stroke-opacity:1; fill:none" points="281.088,1316.14 299.986,1316.14 "/>
<polyline clip-path="url(#clip560)" style="stroke:#000000; stroke-linecap:round; stroke-linejoin:round; stroke-width:4; stroke-opacity:1; fill:none" points="281.088,1235.66 299.986,1235.66 "/>
<polyline clip-path="url(#clip560)" style="stroke:#000000; stroke-linecap:round; stroke-linejoin:round; stroke-width:4; stroke-opacity:1; fill:none" points="281.088,1155.18 299.986,1155.18 "/>
<polyline clip-path="url(#clip560)" style="stroke:#000000; stroke-linecap:round; stroke-linejoin:round; stroke-width:4; stroke-opacity:1; fill:none" points="281.088,1074.7 299.986,1074.7 "/>
<polyline clip-path="url(#clip560)" style="stroke:#000000; stroke-linecap:round; stroke-linejoin:round; stroke-width:4; stroke-opacity:1; fill:none" points="281.088,994.223 299.986,994.223 "/>
<polyline clip-path="url(#clip560)" style="stroke:#000000; stroke-linecap:round; stroke-linejoin:round; stroke-width:4; stroke-opacity:1; fill:none" points="281.088,913.744 299.986,913.744 "/>
<path clip-path="url(#clip560)" d="M184.024 1397.07 L213.7 1397.07 L213.7 1401 L184.024 1401 L184.024 1397.07 Z" fill="#000000" fill-rule="nonzero" fill-opacity="1" /><path clip-path="url(#clip560)" d="M237.959 1395.26 Q241.315 1395.98 243.19 1398.25 Q245.088 1400.52 245.088 1403.85 Q245.088 1408.97 241.57 1411.77 Q238.051 1414.57 231.57 1414.57 Q229.394 1414.57 227.079 1414.13 Q224.787 1413.71 222.334 1412.86 L222.334 1408.34 Q224.278 1409.48 226.593 1410.06 Q228.908 1410.63 231.431 1410.63 Q235.829 1410.63 238.121 1408.9 Q240.436 1407.16 240.436 1403.85 Q240.436 1400.8 238.283 1399.08 Q236.153 1397.35 232.334 1397.35 L228.306 1397.35 L228.306 1393.5 L232.519 1393.5 Q235.968 1393.5 237.797 1392.14 Q239.625 1390.75 239.625 1388.16 Q239.625 1385.5 237.727 1384.08 Q235.852 1382.65 232.334 1382.65 Q230.412 1382.65 228.213 1383.07 Q226.014 1383.48 223.375 1384.36 L223.375 1380.19 Q226.037 1379.45 228.352 1379.08 Q230.69 1378.71 232.75 1378.71 Q238.074 1378.71 241.176 1381.14 Q244.278 1383.55 244.278 1387.67 Q244.278 1390.54 242.635 1392.53 Q240.991 1394.5 237.959 1395.26 Z" fill="#000000" fill-rule="nonzero" fill-opacity="1" /><path clip-path="url(#clip560)" d="M184.973 1316.59 L214.649 1316.59 L214.649 1320.53 L184.973 1320.53 L184.973 1316.59 Z" fill="#000000" fill-rule="nonzero" fill-opacity="1" /><path clip-path="url(#clip560)" d="M228.769 1329.48 L245.088 1329.48 L245.088 1333.42 L223.144 1333.42 L223.144 1329.48 Q225.806 1326.73 230.389 1322.1 Q234.996 1317.45 236.176 1316.1 Q238.422 1313.58 239.301 1311.85 Q240.204 1310.09 240.204 1308.4 Q240.204 1305.64 238.26 1303.91 Q236.338 1302.17 233.237 1302.17 Q231.037 1302.17 228.584 1302.93 Q226.153 1303.7 223.375 1305.25 L223.375 1300.53 Q226.2 1299.39 228.653 1298.81 Q231.107 1298.23 233.144 1298.23 Q238.514 1298.23 241.709 1300.92 Q244.903 1303.6 244.903 1308.1 Q244.903 1310.22 244.093 1312.15 Q243.306 1314.04 241.199 1316.64 Q240.621 1317.31 237.519 1320.53 Q234.417 1323.72 228.769 1329.48 Z" fill="#000000" fill-rule="nonzero" fill-opacity="1" /><path clip-path="url(#clip560)" d="M184.603 1236.11 L214.278 1236.11 L214.278 1240.05 L184.603 1240.05 L184.603 1236.11 Z" fill="#000000" fill-rule="nonzero" fill-opacity="1" /><path clip-path="url(#clip560)" d="M225.181 1249 L232.82 1249 L232.82 1222.64 L224.51 1224.31 L224.51 1220.05 L232.774 1218.38 L237.449 1218.38 L237.449 1249 L245.088 1249 L245.088 1252.94 L225.181 1252.94 L225.181 1249 Z" fill="#000000" fill-rule="nonzero" fill-opacity="1" /><path clip-path="url(#clip560)" d="M233.144 1140.98 Q229.533 1140.98 227.704 1144.54 Q225.899 1148.09 225.899 1155.22 Q225.899 1162.32 227.704 1165.89 Q229.533 1169.43 233.144 1169.43 Q236.778 1169.43 238.584 1165.89 Q240.412 1162.32 240.412 1155.22 Q240.412 1148.09 238.584 1144.54 Q236.778 1140.98 233.144 1140.98 M233.144 1137.28 Q238.954 1137.28 242.01 1141.88 Q245.088 1146.47 245.088 1155.22 Q245.088 1163.94 242.01 1168.55 Q238.954 1173.13 233.144 1173.13 Q227.334 1173.13 224.255 1168.55 Q221.2 1163.94 221.2 1155.22 Q221.2 1146.47 224.255 1141.88 Q227.334 1137.28 233.144 1137.28 Z" fill="#000000" fill-rule="nonzero" fill-opacity="1" /><path clip-path="url(#clip560)" d="M225.181 1088.05 L232.82 1088.05 L232.82 1061.68 L224.51 1063.35 L224.51 1059.09 L232.774 1057.42 L237.449 1057.42 L237.449 1088.05 L245.088 1088.05 L245.088 1091.98 L225.181 1091.98 L225.181 1088.05 Z" fill="#000000" fill-rule="nonzero" fill-opacity="1" /><path clip-path="url(#clip560)" d="M228.769 1007.57 L245.088 1007.57 L245.088 1011.5 L223.144 1011.5 L223.144 1007.57 Q225.806 1004.81 230.389 1000.18 Q234.996 995.531 236.176 994.188 Q238.422 991.665 239.301 989.929 Q240.204 988.169 240.204 986.48 Q240.204 983.725 238.26 981.989 Q236.338 980.253 233.237 980.253 Q231.037 980.253 228.584 981.017 Q226.153 981.781 223.375 983.331 L223.375 978.609 Q226.2 977.475 228.653 976.896 Q231.107 976.318 233.144 976.318 Q238.514 976.318 241.709 979.003 Q244.903 981.688 244.903 986.179 Q244.903 988.308 244.093 990.23 Q243.306 992.128 241.199 994.72 Q240.621 995.392 237.519 998.609 Q234.417 1001.8 228.769 1007.57 Z" fill="#000000" fill-rule="nonzero" fill-opacity="1" /><path clip-path="url(#clip560)" d="M237.959 912.389 Q241.315 913.107 243.19 915.375 Q245.088 917.644 245.088 920.977 Q245.088 926.093 241.57 928.894 Q238.051 931.695 231.57 931.695 Q229.394 931.695 227.079 931.255 Q224.787 930.838 222.334 929.982 L222.334 925.468 Q224.278 926.602 226.593 927.181 Q228.908 927.76 231.431 927.76 Q235.829 927.76 238.121 926.024 Q240.436 924.287 240.436 920.977 Q240.436 917.922 238.283 916.209 Q236.153 914.473 232.334 914.473 L228.306 914.473 L228.306 910.63 L232.519 910.63 Q235.968 910.63 237.797 909.264 Q239.625 907.875 239.625 905.283 Q239.625 902.621 237.727 901.209 Q235.852 899.774 232.334 899.774 Q230.412 899.774 228.213 900.19 Q226.014 900.607 223.375 901.487 L223.375 897.32 Q226.037 896.579 228.352 896.209 Q230.69 895.839 232.75 895.839 Q238.074 895.839 241.176 898.269 Q244.278 900.676 244.278 904.797 Q244.278 907.667 242.635 909.658 Q240.991 911.625 237.959 912.389 Z" fill="#000000" fill-rule="nonzero" fill-opacity="1" /><polyline clip-path="url(#clip563)" style="stroke:#009af9; stroke-linecap:round; stroke-linejoin:round; stroke-width:6; stroke-opacity:1; fill:none" points="281.088,903.193 291.447,903.084 301.805,902.957 312.163,902.75 322.522,1407.72 332.88,1157.71 343.238,1156.33 353.597,1156.07 363.955,1155.93 374.313,1155.82 384.672,1155.7 395.03,1155.53 405.388,1155.17 415.747,1141.6 426.105,903.568 436.463,903.155 446.822,902.98 457.18,902.856 467.538,902.738 477.897,902.595 488.255,1408.01 498.613,1406.92 508.972,1156.72 519.33,1155.89 529.688,1155.66 540.047,1155.52 550.405,1155.4 560.763,1155.26 571.122,1155.06 581.48,1154.53 591.838,905.737 602.197,902.955 612.555,902.635 622.913,902.466 633.272,1408 643.63,1407.86 653.988,1407.69 664.347,1407.37 674.705,1404.8 685.063,1155.78 695.422,1155.22 705.78,1154.99 716.139,1154.83 726.497,1154.67 736.855,1154.47 747.214,1154.08 757.572,1147.42 767.93,902.412 778.289,1407.59 788.647,1407.37 799.005,1407.19 809.364,1407.03 819.722,1406.85 830.08,1406.61 840.439,1406.14 850.797,1169.65 861.155,1154.31 871.514,1153.83 881.872,1153.49 892.23,1153.01 902.589,1148.8 912.947,1406.88 923.305,1406.24 933.664,1405.89 944.022,1405.58 954.38,1405.24 964.739,1404.76 975.097,1402.74 985.455,1152.66 995.814,1151.75 1006.17,1151.15 1016.53,1150.55 1026.89,1149.93 1037.25,1149.28 1047.61,1148.65 1057.96,1148.07 1068.32,1147.6 1078.68,1147.28 1089.04,1147.16 1099.4,1147.26 1109.76,1147.59 1120.11,1148.12 1130.47,1148.82 1140.83,1149.62 1151.19,1150.47 1161.55,1151.31 1171.91,1152.08 1182.26,1152.77 1192.62,1153.35 1202.98,1153.82 1213.34,1154.21 1223.7,1154.52 1234.06,1154.79 1244.41,1155.04 1254.77,1155.3 1265.13,1155.57 1275.49,1155.88 1285.85,1156.23 1296.21,1156.62 1306.56,1157.04 1316.92,1157.47 1327.28,1157.91 1337.64,1158.32 1348,1158.71 1358.36,1159.05 1368.71,1159.36 1379.07,1159.64 1389.43,1159.89 1399.79,1160.14 1410.15,1160.41 1420.51,1160.73 1430.86,1161.12 1441.22,1161.6 1451.58,1162.19 1461.94,1162.88 1472.3,1163.67 1482.66,1164.51 1493.01,1165.35 1503.37,1166.15 1513.73,1166.84 1524.09,1167.36 1534.45,1167.67 1544.81,1167.75 1555.16,1167.61 1565.52,1167.28 1575.88,1166.8 1586.24,1166.22 1596.6,1165.58 1606.96,1164.94 1617.31,1164.31 1627.67,1163.72 1638.03,1163.12 1648.39,1162.12 1658.75,911.689 1669.11,910.11 1679.46,909.646 1689.82,909.31 1700.18,909 1710.54,908.643 1720.9,907.943 1731.26,1164.55 1741.61,1161.85 1751.97,1161.4 1762.33,1161.06 1772.69,1160.54 1783.05,926.751 1793.41,908.717 1803.76,908.279 1814.12,908.048 1824.48,907.87 1834.84,907.707 1845.2,907.532 1855.56,907.299 1865.91,906.762 1876.27,1164.28 1886.63,1160.78 1896.99,1160.42 1907.35,1160.23 1917.71,1160.07 1928.06,1159.91 1938.42,1159.67 1948.78,1159.04 1959.14,909.331 1969.5,907.509 1979.86,907.209 1990.21,907.041 2000.57,906.906 2010.93,906.771 2021.29,906.596 2031.65,906.25 2042.01,1407.27 2052.36,1160.31 2062.72,1159.83 2073.08,1159.64 2083.44,1159.51 2093.8,1159.38 2104.16,1159.24 2114.51,1158.99 2124.87,1158 2135.23,907.775 2145.59,906.874 2155.95,906.64 2166.31,906.5 2176.66,906.383 2187.02,906.257 2197.38,906.075 2207.74,905.616 2218.1,1164.63 2228.46,1159.7 2238.81,1159.36 2249.17,1159.2 2259.53,1159.09 2269.89,1158.97 2280.25,1158.83 2290.61,1158.55 2300.96,1156.74 2311.32,907.077 2321.68,906.476 2332.04,906.28 2342.4,906.155 2352.76,906.046 "/>
<path clip-path="url(#clip560)" d="M1942.48 1199 L2283.7 1199 L2283.7 1095.32 L1942.48 1095.32  Z" fill="#ffffff" fill-rule="evenodd" fill-opacity="1"/>
<polyline clip-path="url(#clip560)" style="stroke:#000000; stroke-linecap:round; stroke-linejoin:round; stroke-width:4; stroke-opacity:1; fill:none" points="1942.48,1199 2283.7,1199 2283.7,1095.32 1942.48,1095.32 1942.48,1199 "/>
<polyline clip-path="url(#clip560)" style="stroke:#009af9; stroke-linecap:round; stroke-linejoin:round; stroke-width:6; stroke-opacity:1; fill:none" points="1965.5,1147.16 2103.61,1147.16 "/>
<path clip-path="url(#clip560)" d="M2159.83 1159.76 L2159.83 1164.44 L2126.63 1164.44 L2148.69 1129.88 L2154.29 1129.88 L2135.29 1159.76 L2159.83 1159.76 Z" fill="#000000" fill-rule="nonzero" fill-opacity="1" /><path clip-path="url(#clip560)" d="M2169.73 1129.88 L2176.7 1129.88 L2185.52 1153.39 L2194.39 1129.88 L2201.35 1129.88 L2201.35 1164.44 L2196.79 1164.44 L2196.79 1134.09 L2187.88 1157.79 L2183.18 1157.79 L2174.27 1134.09 L2174.27 1164.44 L2169.73 1164.44 L2169.73 1129.88 Z" fill="#000000" fill-rule="nonzero" fill-opacity="1" /><path clip-path="url(#clip560)" d="M2232 1138.51 L2222.63 1151.13 L2232.49 1164.44 L2227.46 1164.44 L2219.92 1154.25 L2212.37 1164.44 L2207.35 1164.44 L2217.42 1150.87 L2208.21 1138.51 L2213.23 1138.51 L2220.1 1147.75 L2226.98 1138.51 L2232 1138.51 Z" fill="#000000" fill-rule="nonzero" fill-opacity="1" /><path clip-path="url(#clip560)" d="M2249.29 1166.84 Q2247.49 1171.47 2245.77 1172.89 Q2244.06 1174.3 2241.19 1174.3 L2237.79 1174.3 L2237.79 1170.73 L2240.29 1170.73 Q2242.05 1170.73 2243.02 1169.9 Q2243.99 1169.07 2245.17 1165.96 L2245.94 1164.02 L2235.45 1138.51 L2239.96 1138.51 L2248.07 1158.79 L2256.17 1138.51 L2260.68 1138.51 L2249.29 1166.84 Z" fill="#000000" fill-rule="nonzero" fill-opacity="1" /><path clip-path="url(#clip560)" d="M281.088 80 L2352.76 80 L2352.76 0 L281.088 0  Z" fill="#ffffff" fill-rule="evenodd" fill-opacity="1"/>
<path clip-path="url(#clip560)" d="M374.867 16.0925 L374.867 25.2128 Q369.543 22.6665 364.821 21.4166 Q360.099 20.1666 355.7 20.1666 Q348.062 20.1666 343.895 23.1295 Q339.775 26.0925 339.775 31.5554 Q339.775 36.1387 342.506 38.4998 Q345.284 40.8146 352.969 42.2498 L358.617 43.4072 Q369.08 45.3979 374.034 50.4442 Q379.034 55.4441 379.034 63.87 Q379.034 73.9163 372.274 79.1014 Q365.561 84.2866 352.552 84.2866 Q347.645 84.2866 342.089 83.1755 Q336.58 82.0644 330.654 79.8885 L330.654 70.2589 Q336.349 73.4533 341.812 75.0737 Q347.275 76.694 352.552 76.694 Q360.561 76.694 364.913 73.5459 Q369.265 70.3978 369.265 64.5645 Q369.265 59.4719 366.117 56.6015 Q363.015 53.7312 355.886 52.296 L350.191 51.1849 Q339.728 49.1016 335.052 44.6572 Q330.376 40.2127 330.376 32.2961 Q330.376 23.1295 336.812 17.8518 Q343.293 12.574 354.636 12.574 Q359.497 12.574 364.543 13.4536 Q369.589 14.3333 374.867 16.0925 Z" fill="#000000" fill-rule="nonzero" fill-opacity="1" /><path clip-path="url(#clip560)" d="M393.247 10.9073 L401.765 10.9073 L401.765 82.944 L393.247 82.944 L393.247 10.9073 Z" fill="#000000" fill-rule="nonzero" fill-opacity="1" /><path clip-path="url(#clip560)" d="M419.589 31.0924 L428.107 31.0924 L428.107 82.944 L419.589 82.944 L419.589 31.0924 M419.589 10.9073 L428.107 10.9073 L428.107 21.6943 L419.589 21.6943 L419.589 10.9073 Z" fill="#000000" fill-rule="nonzero" fill-opacity="1" /><path clip-path="url(#clip560)" d="M483.246 33.0832 L483.246 41.0461 Q479.635 39.0553 475.978 38.0831 Q472.366 37.0646 468.663 37.0646 Q460.376 37.0646 455.792 42.3424 Q451.209 47.5738 451.209 57.0645 Q451.209 66.5552 455.792 71.8329 Q460.376 77.0644 468.663 77.0644 Q472.366 77.0644 475.978 76.0922 Q479.635 75.0737 483.246 73.0829 L483.246 80.9533 Q479.681 82.6199 475.839 83.4533 Q472.042 84.2866 467.737 84.2866 Q456.024 84.2866 449.126 76.9255 Q442.228 69.5644 442.228 57.0645 Q442.228 44.3794 449.172 37.1109 Q456.163 29.8424 468.292 29.8424 Q472.228 29.8424 475.978 30.6758 Q479.728 31.4628 483.246 33.0832 Z" fill="#000000" fill-rule="nonzero" fill-opacity="1" /><path clip-path="url(#clip560)" d="M542.412 54.8886 L542.412 59.0552 L503.246 59.0552 Q503.801 67.8515 508.524 72.4811 Q513.292 77.0644 521.764 77.0644 Q526.672 77.0644 531.255 75.8607 Q535.885 74.657 540.422 72.2496 L540.422 80.3051 Q535.838 82.2496 531.024 83.2681 Q526.209 84.2866 521.255 84.2866 Q508.848 84.2866 501.579 77.0644 Q494.357 69.8422 494.357 57.5275 Q494.357 44.7961 501.209 37.3424 Q508.107 29.8424 519.774 29.8424 Q530.237 29.8424 536.301 36.6017 Q542.412 43.3146 542.412 54.8886 M533.894 52.3886 Q533.801 45.3979 529.959 41.2313 Q526.162 37.0646 519.866 37.0646 Q512.737 37.0646 508.431 41.0924 Q504.172 45.1201 503.524 52.4349 L533.894 52.3886 Z" fill="#000000" fill-rule="nonzero" fill-opacity="1" /><path clip-path="url(#clip560)" d="M594.773 75.1663 L594.773 102.666 L586.208 102.666 L586.208 31.0924 L594.773 31.0924 L594.773 38.9628 Q597.458 34.3331 601.532 32.1109 Q605.653 29.8424 611.347 29.8424 Q620.792 29.8424 626.671 37.3424 Q632.597 44.8424 632.597 57.0645 Q632.597 69.2867 626.671 76.7866 Q620.792 84.2866 611.347 84.2866 Q605.653 84.2866 601.532 82.0644 Q597.458 79.7959 594.773 75.1663 M623.755 57.0645 Q623.755 47.6664 619.866 42.3424 Q616.023 36.972 609.264 36.972 Q602.505 36.972 598.616 42.3424 Q594.773 47.6664 594.773 57.0645 Q594.773 66.4626 598.616 71.8329 Q602.505 77.157 609.264 77.157 Q616.023 77.157 619.866 71.8329 Q623.755 66.4626 623.755 57.0645 Z" fill="#000000" fill-rule="nonzero" fill-opacity="1" /><path clip-path="url(#clip560)" d="M676.764 39.0553 Q675.328 38.222 673.615 37.8516 Q671.949 37.435 669.912 37.435 Q662.69 37.435 658.801 42.1572 Q654.958 46.8331 654.958 55.6293 L654.958 82.944 L646.393 82.944 L646.393 31.0924 L654.958 31.0924 L654.958 39.1479 Q657.643 34.4257 661.949 32.1572 Q666.254 29.8424 672.412 29.8424 Q673.291 29.8424 674.356 29.9813 Q675.421 30.0739 676.717 30.3054 L676.764 39.0553 Z" fill="#000000" fill-rule="nonzero" fill-opacity="1" /><path clip-path="url(#clip560)" d="M703.708 37.0646 Q696.856 37.0646 692.875 42.435 Q688.893 47.759 688.893 57.0645 Q688.893 66.37 692.828 71.7404 Q696.81 77.0644 703.708 77.0644 Q710.513 77.0644 714.495 71.6941 Q718.476 66.3237 718.476 57.0645 Q718.476 47.8516 714.495 42.4813 Q710.513 37.0646 703.708 37.0646 M703.708 29.8424 Q714.819 29.8424 721.161 37.0646 Q727.504 44.2868 727.504 57.0645 Q727.504 69.7959 721.161 77.0644 Q714.819 84.2866 703.708 84.2866 Q692.55 84.2866 686.208 77.0644 Q679.912 69.7959 679.912 57.0645 Q679.912 44.2868 686.208 37.0646 Q692.55 29.8424 703.708 29.8424 Z" fill="#000000" fill-rule="nonzero" fill-opacity="1" /><path clip-path="url(#clip560)" d="M767.874 10.9073 L767.874 17.9906 L759.726 17.9906 Q755.143 17.9906 753.337 19.8425 Q751.578 21.6943 751.578 26.5091 L751.578 31.0924 L765.606 31.0924 L765.606 37.7128 L751.578 37.7128 L751.578 82.944 L743.013 82.944 L743.013 37.7128 L734.865 37.7128 L734.865 31.0924 L743.013 31.0924 L743.013 27.4813 Q743.013 18.824 747.041 14.8888 Q751.069 10.9073 759.819 10.9073 L767.874 10.9073 Z" fill="#000000" fill-rule="nonzero" fill-opacity="1" /><path clip-path="url(#clip560)" d="M775.004 31.0924 L783.522 31.0924 L783.522 82.944 L775.004 82.944 L775.004 31.0924 M775.004 10.9073 L783.522 10.9073 L783.522 21.6943 L775.004 21.6943 L775.004 10.9073 Z" fill="#000000" fill-rule="nonzero" fill-opacity="1" /><path clip-path="url(#clip560)" d="M801.346 10.9073 L809.865 10.9073 L809.865 82.944 L801.346 82.944 L801.346 10.9073 Z" fill="#000000" fill-rule="nonzero" fill-opacity="1" /><path clip-path="url(#clip560)" d="M872.04 54.8886 L872.04 59.0552 L832.874 59.0552 Q833.429 67.8515 838.152 72.4811 Q842.92 77.0644 851.392 77.0644 Q856.3 77.0644 860.883 75.8607 Q865.512 74.657 870.05 72.2496 L870.05 80.3051 Q865.466 82.2496 860.651 83.2681 Q855.837 84.2866 850.883 84.2866 Q838.476 84.2866 831.207 77.0644 Q823.985 69.8422 823.985 57.5275 Q823.985 44.7961 830.837 37.3424 Q837.735 29.8424 849.401 29.8424 Q859.864 29.8424 865.929 36.6017 Q872.04 43.3146 872.04 54.8886 M863.522 52.3886 Q863.429 45.3979 859.587 41.2313 Q855.79 37.0646 849.494 37.0646 Q842.364 37.0646 838.059 41.0924 Q833.8 45.1201 833.152 52.4349 L863.522 52.3886 Z" fill="#000000" fill-rule="nonzero" fill-opacity="1" /><path clip-path="url(#clip560)" d="M888.198 71.1848 L897.966 71.1848 L897.966 82.944 L888.198 82.944 L888.198 71.1848 M888.198 33.9165 L897.966 33.9165 L897.966 45.6757 L888.198 45.6757 L888.198 33.9165 Z" fill="#000000" fill-rule="nonzero" fill-opacity="1" /><path clip-path="url(#clip560)" d="M989.91 16.0925 L989.91 25.2128 Q984.586 22.6665 979.864 21.4166 Q975.142 20.1666 970.743 20.1666 Q963.105 20.1666 958.938 23.1295 Q954.818 26.0925 954.818 31.5554 Q954.818 36.1387 957.549 38.4998 Q960.327 40.8146 968.012 42.2498 L973.66 43.4072 Q984.123 45.3979 989.077 50.4442 Q994.077 55.4441 994.077 63.87 Q994.077 73.9163 987.317 79.1014 Q980.604 84.2866 967.595 84.2866 Q962.688 84.2866 957.132 83.1755 Q951.623 82.0644 945.697 79.8885 L945.697 70.2589 Q951.392 73.4533 956.855 75.0737 Q962.318 76.694 967.595 76.694 Q975.604 76.694 979.956 73.5459 Q984.308 70.3978 984.308 64.5645 Q984.308 59.4719 981.16 56.6015 Q978.058 53.7312 970.929 52.296 L965.234 51.1849 Q954.771 49.1016 950.095 44.6572 Q945.419 40.2127 945.419 32.2961 Q945.419 23.1295 951.855 17.8518 Q958.336 12.574 969.679 12.574 Q974.54 12.574 979.586 13.4536 Q984.632 14.3333 989.91 16.0925 Z" fill="#000000" fill-rule="nonzero" fill-opacity="1" /><path clip-path="url(#clip560)" d="M1008.66 13.824 L1018.01 13.824 L1018.01 75.0737 L1051.67 75.0737 L1051.67 82.944 L1008.66 82.944 L1008.66 13.824 Z" fill="#000000" fill-rule="nonzero" fill-opacity="1" /><path clip-path="url(#clip560)" d="M1094.26 50.5368 Q1097.27 51.5553 1100.09 54.8886 Q1102.96 58.2219 1105.84 64.0552 L1115.33 82.944 L1105.28 82.944 L1096.44 65.2126 Q1093.01 58.2682 1089.77 55.9997 Q1086.58 53.7312 1081.02 53.7312 L1070.84 53.7312 L1070.84 82.944 L1061.48 82.944 L1061.48 13.824 L1082.59 13.824 Q1094.45 13.824 1100.28 18.7777 Q1106.11 23.7314 1106.11 33.7313 Q1106.11 40.259 1103.06 44.5646 Q1100.05 48.8701 1094.26 50.5368 M1070.84 21.5091 L1070.84 46.046 L1082.59 46.046 Q1089.35 46.046 1092.78 42.9442 Q1096.25 39.7961 1096.25 33.7313 Q1096.25 27.6665 1092.78 24.611 Q1089.35 21.5091 1082.59 21.5091 L1070.84 21.5091 Z" fill="#000000" fill-rule="nonzero" fill-opacity="1" /><path clip-path="url(#clip560)" d="M1190.19 32.6202 L1190.19 40.6757 Q1186.58 38.8239 1182.69 37.8979 Q1178.8 36.972 1174.63 36.972 Q1168.29 36.972 1165.09 38.9165 Q1161.95 40.8609 1161.95 44.7498 Q1161.95 47.7127 1164.21 49.4257 Q1166.48 51.0923 1173.33 52.6201 L1176.25 53.2682 Q1185.33 55.2127 1189.12 58.7775 Q1192.96 62.296 1192.96 68.6385 Q1192.96 75.8607 1187.22 80.0736 Q1181.53 84.2866 1171.53 84.2866 Q1167.36 84.2866 1162.83 83.4533 Q1158.33 82.6662 1153.34 81.0459 L1153.34 72.2496 Q1158.06 74.7033 1162.64 75.9533 Q1167.22 77.157 1171.71 77.157 Q1177.73 77.157 1180.97 75.12 Q1184.21 73.0366 1184.21 69.2867 Q1184.21 65.8145 1181.85 63.9626 Q1179.54 62.1108 1171.62 60.3978 L1168.66 59.7034 Q1160.74 58.0367 1157.22 54.6108 Q1153.71 51.1386 1153.71 45.1201 Q1153.71 37.8054 1158.89 33.8239 Q1164.08 29.8424 1173.61 29.8424 Q1178.33 29.8424 1182.5 30.5369 Q1186.67 31.2313 1190.19 32.6202 Z" fill="#000000" fill-rule="nonzero" fill-opacity="1" /><path clip-path="url(#clip560)" d="M1214.96 16.3703 L1214.96 31.0924 L1232.5 31.0924 L1232.5 37.7128 L1214.96 37.7128 L1214.96 65.8608 Q1214.96 72.2033 1216.67 74.0089 Q1218.43 75.8144 1223.75 75.8144 L1232.5 75.8144 L1232.5 82.944 L1223.75 82.944 Q1213.89 82.944 1210.14 79.2866 Q1206.39 75.5829 1206.39 65.8608 L1206.39 37.7128 L1200.14 37.7128 L1200.14 31.0924 L1206.39 31.0924 L1206.39 16.3703 L1214.96 16.3703 Z" fill="#000000" fill-rule="nonzero" fill-opacity="1" /><path clip-path="url(#clip560)" d="M1282.08 75.1663 L1282.08 102.666 L1273.52 102.666 L1273.52 31.0924 L1282.08 31.0924 L1282.08 38.9628 Q1284.77 34.3331 1288.84 32.1109 Q1292.96 29.8424 1298.66 29.8424 Q1308.1 29.8424 1313.98 37.3424 Q1319.91 44.8424 1319.91 57.0645 Q1319.91 69.2867 1313.98 76.7866 Q1308.1 84.2866 1298.66 84.2866 Q1292.96 84.2866 1288.84 82.0644 Q1284.77 79.7959 1282.08 75.1663 M1311.07 57.0645 Q1311.07 47.6664 1307.18 42.3424 Q1303.33 36.972 1296.57 36.972 Q1289.82 36.972 1285.93 42.3424 Q1282.08 47.6664 1282.08 57.0645 Q1282.08 66.4626 1285.93 71.8329 Q1289.82 77.157 1296.57 77.157 Q1303.33 77.157 1307.18 71.8329 Q1311.07 66.4626 1311.07 57.0645 Z" fill="#000000" fill-rule="nonzero" fill-opacity="1" /><path clip-path="url(#clip560)" d="M1374.4 41.0461 Q1377.59 35.3054 1382.04 32.5739 Q1386.48 29.8424 1392.5 29.8424 Q1400.6 29.8424 1405 35.5368 Q1409.4 41.185 1409.4 51.6479 L1409.4 82.944 L1400.83 82.944 L1400.83 51.9256 Q1400.83 44.472 1398.19 40.8609 Q1395.56 37.2498 1390.14 37.2498 Q1383.52 37.2498 1379.68 41.6479 Q1375.83 46.046 1375.83 53.6386 L1375.83 82.944 L1367.27 82.944 L1367.27 51.9256 Q1367.27 44.4257 1364.63 40.8609 Q1361.99 37.2498 1356.48 37.2498 Q1349.95 37.2498 1346.11 41.6942 Q1342.27 46.0923 1342.27 53.6386 L1342.27 82.944 L1333.7 82.944 L1333.7 31.0924 L1342.27 31.0924 L1342.27 39.1479 Q1345.19 34.3794 1349.26 32.1109 Q1353.33 29.8424 1358.94 29.8424 Q1364.58 29.8424 1368.52 32.7128 Q1372.5 35.5831 1374.4 41.0461 Z" fill="#000000" fill-rule="nonzero" fill-opacity="1" /><path clip-path="url(#clip560)" d="M1428.57 71.1848 L1438.33 71.1848 L1438.33 79.1477 L1430.74 93.9625 L1424.77 93.9625 L1428.57 79.1477 L1428.57 71.1848 Z" fill="#000000" fill-rule="nonzero" fill-opacity="1" /><path clip-path="url(#clip560)" d="M1516.9 58.8238 L1514.86 48.1294 Q1512.78 37.1572 1504.54 37.1572 Q1498.33 37.1572 1495.51 42.2498 Q1491.94 48.6386 1491.94 57.0645 Q1491.94 67.2496 1495.42 72.1107 Q1498.94 77.0644 1504.54 77.0644 Q1510.74 77.0644 1514.07 67.2033 L1516.9 58.8238 M1521.67 44.6572 L1526.25 31.0924 L1533.84 31.0924 L1524.35 59.1941 L1526.2 69.333 Q1526.62 71.6015 1528.24 73.4996 Q1530.14 75.7218 1531.62 75.7218 L1535.69 75.7218 L1535.69 82.944 L1530.6 82.944 Q1526.25 82.944 1522.36 79.0551 Q1520.46 77.1107 1519.68 73.0366 Q1517.55 78.1755 1513.19 82.2033 Q1511.16 84.1014 1504.54 84.1014 Q1493.66 84.1014 1488.38 77.0644 Q1482.96 69.7959 1482.96 57.0645 Q1482.96 43.4535 1488.84 37.0646 Q1495.37 29.935 1504.54 29.935 Q1518.93 29.935 1521.67 44.6572 Z" fill="#000000" fill-rule="nonzero" fill-opacity="1" /><path clip-path="url(#clip560)" d="M1550.28 39.8887 L1609.63 39.8887 L1609.63 47.6664 L1550.28 47.6664 L1550.28 39.8887 M1550.28 58.7775 L1609.63 58.7775 L1609.63 66.6478 L1550.28 66.6478 L1550.28 58.7775 Z" fill="#000000" fill-rule="nonzero" fill-opacity="1" /><path clip-path="url(#clip560)" d="M1650.97 44.6572 Q1644.67 44.6572 1640.97 48.9627 Q1637.31 53.2682 1637.31 60.7682 Q1637.31 68.2219 1640.97 72.5737 Q1644.67 76.8792 1650.97 76.8792 Q1657.27 76.8792 1660.92 72.5737 Q1664.63 68.2219 1664.63 60.7682 Q1664.63 53.2682 1660.92 48.9627 Q1657.27 44.6572 1650.97 44.6572 M1669.54 15.3518 L1669.54 23.8702 Q1666.02 22.2036 1662.41 21.324 Q1658.84 20.4443 1655.32 20.4443 Q1646.06 20.4443 1641.16 26.6943 Q1636.3 32.9443 1635.6 45.5831 Q1638.33 41.5553 1642.45 39.4257 Q1646.57 37.2498 1651.53 37.2498 Q1661.94 37.2498 1667.96 43.5924 Q1674.03 49.8886 1674.03 60.7682 Q1674.03 71.4163 1667.73 77.8514 Q1661.43 84.2866 1650.97 84.2866 Q1638.98 84.2866 1632.64 75.12 Q1626.3 65.9071 1626.3 48.4534 Q1626.3 32.0646 1634.07 22.3425 Q1641.85 12.574 1654.95 12.574 Q1658.47 12.574 1662.04 13.2684 Q1665.65 13.9629 1669.54 15.3518 Z" fill="#000000" fill-rule="nonzero" fill-opacity="1" /><path clip-path="url(#clip560)" d="M1710.14 19.9814 Q1702.92 19.9814 1699.26 27.111 Q1695.65 34.1943 1695.65 48.4534 Q1695.65 62.6663 1699.26 69.7959 Q1702.92 76.8792 1710.14 76.8792 Q1717.41 76.8792 1721.02 69.7959 Q1724.67 62.6663 1724.67 48.4534 Q1724.67 34.1943 1721.02 27.111 Q1717.41 19.9814 1710.14 19.9814 M1710.14 12.574 Q1721.76 12.574 1727.87 21.7869 Q1734.03 30.9535 1734.03 48.4534 Q1734.03 65.9071 1727.87 75.12 Q1721.76 84.2866 1710.14 84.2866 Q1698.52 84.2866 1692.36 75.12 Q1686.25 65.9071 1686.25 48.4534 Q1686.25 30.9535 1692.36 21.7869 Q1698.52 12.574 1710.14 12.574 Z" fill="#000000" fill-rule="nonzero" fill-opacity="1" /><path clip-path="url(#clip560)" d="M1764.03 18.5462 Q1760.32 18.5462 1757.78 21.1388 Q1755.23 23.6851 1755.23 27.3887 Q1755.23 31.0461 1757.78 33.5924 Q1760.32 36.0924 1764.03 36.0924 Q1767.73 36.0924 1770.28 33.5924 Q1772.82 31.0461 1772.82 27.3887 Q1772.82 23.7314 1770.23 21.1388 Q1767.68 18.5462 1764.03 18.5462 M1764.03 12.574 Q1766.99 12.574 1769.72 13.7314 Q1772.45 14.8425 1774.44 16.9721 Q1776.57 19.0555 1777.64 21.6943 Q1778.7 24.3332 1778.7 27.3887 Q1778.7 33.4998 1774.4 37.7591 Q1770.14 41.972 1763.93 41.972 Q1757.68 41.972 1753.52 37.8054 Q1749.35 33.6387 1749.35 27.3887 Q1749.35 21.1851 1753.61 16.8795 Q1757.87 12.574 1764.03 12.574 Z" fill="#000000" fill-rule="nonzero" fill-opacity="1" /><path clip-path="url(#clip560)" d="M1817.59 13.824 L1876.06 13.824 L1876.06 21.6943 L1851.53 21.6943 L1851.53 82.944 L1842.13 82.944 L1842.13 21.6943 L1817.59 21.6943 L1817.59 13.824 Z" fill="#000000" fill-rule="nonzero" fill-opacity="1" /><path clip-path="url(#clip560)" d="M1893.98 75.0737 L1926.62 75.0737 L1926.62 82.944 L1882.73 82.944 L1882.73 75.0737 Q1888.05 69.5644 1897.22 60.3052 Q1906.43 50.9997 1908.79 48.3146 Q1913.28 43.2683 1915.04 39.7961 Q1916.85 36.2776 1916.85 32.898 Q1916.85 27.3887 1912.96 23.9165 Q1909.12 20.4443 1902.91 20.4443 Q1898.52 20.4443 1893.61 21.9721 Q1888.75 23.4999 1883.19 26.6017 L1883.19 17.1573 Q1888.84 14.8888 1893.75 13.7314 Q1898.66 12.574 1902.73 12.574 Q1913.47 12.574 1919.86 17.9443 Q1926.25 23.3147 1926.25 32.2961 Q1926.25 36.5554 1924.63 40.3979 Q1923.05 44.1942 1918.84 49.3794 Q1917.68 50.722 1911.48 57.1571 Q1905.28 63.546 1893.98 75.0737 Z" fill="#000000" fill-rule="nonzero" fill-opacity="1" /><path clip-path="url(#clip560)" d="M1946.15 39.8887 L2005.51 39.8887 L2005.51 47.6664 L1946.15 47.6664 L1946.15 39.8887 M1946.15 58.7775 L2005.51 58.7775 L2005.51 66.6478 L1946.15 66.6478 L1946.15 58.7775 Z" fill="#000000" fill-rule="nonzero" fill-opacity="1" /><path clip-path="url(#clip560)" d="M2045.69 50.1201 Q2039.02 50.1201 2035.18 53.6849 Q2031.39 57.2497 2031.39 63.4997 Q2031.39 69.7496 2035.18 73.3144 Q2039.02 76.8792 2045.69 76.8792 Q2052.36 76.8792 2056.2 73.3144 Q2060.04 69.7033 2060.04 63.4997 Q2060.04 57.2497 2056.2 53.6849 Q2052.4 50.1201 2045.69 50.1201 M2036.34 46.1386 Q2030.32 44.6572 2026.94 40.5368 Q2023.61 36.4165 2023.61 30.4906 Q2023.61 22.2036 2029.49 17.3888 Q2035.41 12.574 2045.69 12.574 Q2056.02 12.574 2061.89 17.3888 Q2067.77 22.2036 2067.77 30.4906 Q2067.77 36.4165 2064.39 40.5368 Q2061.06 44.6572 2055.09 46.1386 Q2061.85 47.7127 2065.6 52.296 Q2069.39 56.8793 2069.39 63.4997 Q2069.39 73.5459 2063.24 78.9162 Q2057.13 84.2866 2045.69 84.2866 Q2034.26 84.2866 2028.1 78.9162 Q2021.99 73.5459 2021.99 63.4997 Q2021.99 56.8793 2025.78 52.296 Q2029.58 47.7127 2036.34 46.1386 M2032.91 31.3702 Q2032.91 36.7405 2036.25 39.7498 Q2039.63 42.759 2045.69 42.759 Q2051.71 42.759 2055.09 39.7498 Q2058.52 36.7405 2058.52 31.3702 Q2058.52 25.9999 2055.09 22.9906 Q2051.71 19.9814 2045.69 19.9814 Q2039.63 19.9814 2036.25 22.9906 Q2032.91 25.9999 2032.91 31.3702 Z" fill="#000000" fill-rule="nonzero" fill-opacity="1" /><path clip-path="url(#clip560)" d="M2106.02 19.9814 Q2098.79 19.9814 2095.14 27.111 Q2091.52 34.1943 2091.52 48.4534 Q2091.52 62.6663 2095.14 69.7959 Q2098.79 76.8792 2106.02 76.8792 Q2113.28 76.8792 2116.89 69.7959 Q2120.55 62.6663 2120.55 48.4534 Q2120.55 34.1943 2116.89 27.111 Q2113.28 19.9814 2106.02 19.9814 M2106.02 12.574 Q2117.64 12.574 2123.75 21.7869 Q2129.9 30.9535 2129.9 48.4534 Q2129.9 65.9071 2123.75 75.12 Q2117.64 84.2866 2106.02 84.2866 Q2094.39 84.2866 2088.24 75.12 Q2082.13 65.9071 2082.13 48.4534 Q2082.13 30.9535 2088.24 21.7869 Q2094.39 12.574 2106.02 12.574 Z" fill="#000000" fill-rule="nonzero" fill-opacity="1" /><path clip-path="url(#clip560)" d="M2215.64 41.0461 Q2218.84 35.3054 2223.28 32.5739 Q2227.73 29.8424 2233.75 29.8424 Q2241.85 29.8424 2246.25 35.5368 Q2250.64 41.185 2250.64 51.6479 L2250.64 82.944 L2242.08 82.944 L2242.08 51.9256 Q2242.08 44.472 2239.44 40.8609 Q2236.8 37.2498 2231.38 37.2498 Q2224.76 37.2498 2220.92 41.6479 Q2217.08 46.046 2217.08 53.6386 L2217.08 82.944 L2208.51 82.944 L2208.51 51.9256 Q2208.51 44.4257 2205.88 40.8609 Q2203.24 37.2498 2197.73 37.2498 Q2191.2 37.2498 2187.36 41.6942 Q2183.51 46.0923 2183.51 53.6386 L2183.51 82.944 L2174.95 82.944 L2174.95 31.0924 L2183.51 31.0924 L2183.51 39.1479 Q2186.43 34.3794 2190.51 32.1109 Q2194.58 29.8424 2200.18 29.8424 Q2205.83 29.8424 2209.76 32.7128 Q2213.75 35.5831 2215.64 41.0461 Z" fill="#000000" fill-rule="nonzero" fill-opacity="1" /><path clip-path="url(#clip560)" d="M2300.69 32.6202 L2300.69 40.6757 Q2297.08 38.8239 2293.19 37.8979 Q2289.3 36.972 2285.13 36.972 Q2278.79 36.972 2275.6 38.9165 Q2272.45 40.8609 2272.45 44.7498 Q2272.45 47.7127 2274.72 49.4257 Q2276.99 51.0923 2283.84 52.6201 L2286.75 53.2682 Q2295.83 55.2127 2299.63 58.7775 Q2303.47 62.296 2303.47 68.6385 Q2303.47 75.8607 2297.73 80.0736 Q2292.03 84.2866 2282.03 84.2866 Q2277.87 84.2866 2273.33 83.4533 Q2268.84 82.6662 2263.84 81.0459 L2263.84 72.2496 Q2268.56 74.7033 2273.14 75.9533 Q2277.73 77.157 2282.22 77.157 Q2288.24 77.157 2291.48 75.12 Q2294.72 73.0366 2294.72 69.2867 Q2294.72 65.8145 2292.36 63.9626 Q2290.04 62.1108 2282.13 60.3978 L2279.16 59.7034 Q2271.25 58.0367 2267.73 54.6108 Q2264.21 51.1386 2264.21 45.1201 Q2264.21 37.8054 2269.39 33.8239 Q2274.58 29.8424 2284.12 29.8424 Q2288.84 29.8424 2293 30.5369 Q2297.17 31.2313 2300.69 32.6202 Z" fill="#000000" fill-rule="nonzero" fill-opacity="1" /></svg>
