<?xml version="1.0" encoding="utf-8"?>
<svg xmlns="http://www.w3.org/2000/svg" xmlns:xlink="http://www.w3.org/1999/xlink" width="600" height="400" viewBox="0 0 2400 1600">
<defs>
  <clipPath id="clip620">
    <rect x="0" y="0" width="2400" height="1600"/>
  </clipPath>
</defs>
<path clip-path="url(#clip620)" d="M0 1600 L2400 1600 L2400 0 L0 0  Z" fill="#ffffff" fill-rule="evenodd" fill-opacity="1"/>
<defs>
  <clipPath id="clip621">
    <rect x="269" y="106" width="2084" height="1318"/>
  </clipPath>
</defs>
<path clip-path="url(#clip620)" d="M269.283 1423.18 L2352.76 1423.18 L2352.76 106.192 L269.283 106.192  Z" fill="#ffffff" fill-rule="evenodd" fill-opacity="1"/>
<polyline clip-path="url(#clip621)" style="stroke:#000000; stroke-linecap:round; stroke-linejoin:round; stroke-width:2; stroke-opacity:0.1; fill:none" points="269.283,1423.18 269.283,106.192 "/>
<polyline clip-path="url(#clip621)" style="stroke:#000000; stroke-linecap:round; stroke-linejoin:round; stroke-width:2; stroke-opacity:0.1; fill:none" points="1050.59,1423.18 1050.59,106.192 "/>
<polyline clip-path="url(#clip621)" style="stroke:#000000; stroke-linecap:round; stroke-linejoin:round; stroke-width:2; stroke-opacity:0.1; fill:none" points="1311.02,1423.18 1311.02,106.192 "/>
<polyline clip-path="url(#clip621)" style="stroke:#000000; stroke-linecap:round; stroke-linejoin:round; stroke-width:2; stroke-opacity:0.1; fill:none" points="1571.45,1423.18 1571.45,106.192 "/>
<polyline clip-path="url(#clip621)" style="stroke:#000000; stroke-linecap:round; stroke-linejoin:round; stroke-width:2; stroke-opacity:0.1; fill:none" points="2352.76,1423.18 2352.76,106.192 "/>
<polyline clip-path="url(#clip621)" style="stroke:#000000; stroke-linecap:round; stroke-linejoin:round; stroke-width:2; stroke-opacity:0.1; fill:none" points="269.283,1203.68 2352.76,1203.68 "/>
<polyline clip-path="url(#clip621)" style="stroke:#000000; stroke-linecap:round; stroke-linejoin:round; stroke-width:2; stroke-opacity:0.1; fill:none" points="269.283,253.228 2352.76,253.228 "/>
<polyline clip-path="url(#clip621)" style="stroke:#000000; stroke-linecap:round; stroke-linejoin:round; stroke-width:2; stroke-opacity:0.1; fill:none" points="269.283,106.192 2352.76,106.192 "/>
<polyline clip-path="url(#clip620)" style="stroke:#000000; stroke-linecap:round; stroke-linejoin:round; stroke-width:4; stroke-opacity:1; fill:none" points="269.283,1423.18 2352.76,1423.18 "/>
<polyline clip-path="url(#clip620)" style="stroke:#000000; stroke-linecap:round; stroke-linejoin:round; stroke-width:4; stroke-opacity:1; fill:none" points="269.283,1423.18 269.283,1404.28 "/>
<polyline clip-path="url(#clip620)" style="stroke:#000000; stroke-linecap:round; stroke-linejoin:round; stroke-width:4; stroke-opacity:1; fill:none" points="1050.59,1423.18 1050.59,1404.28 "/>
<polyline clip-path="url(#clip620)" style="stroke:#000000; stroke-linecap:round; stroke-linejoin:round; stroke-width:4; stroke-opacity:1; fill:none" points="1311.02,1423.18 1311.02,1404.28 "/>
<polyline clip-path="url(#clip620)" style="stroke:#000000; stroke-linecap:round; stroke-linejoin:round; stroke-width:4; stroke-opacity:1; fill:none" points="1571.45,1423.18 1571.45,1404.28 "/>
<polyline clip-path="url(#clip620)" style="stroke:#000000; stroke-linecap:round; stroke-linejoin:round; stroke-width:4; stroke-opacity:1; fill:none" points="2352.76,1423.18 2352.76,1404.28 "/>
<path clip-path="url(#clip620)" d="M200.73 1468.75 L230.406 1468.75 L230.406 1472.69 L200.73 1472.69 L200.73 1468.75 Z" fill="#000000" fill-rule="nonzero" fill-opacity="1" /><path clip-path="url(#clip620)" d="M241.308 1481.64 L248.947 1481.64 L248.947 1455.28 L240.637 1456.95 L240.637 1452.69 L248.901 1451.02 L253.577 1451.02 L253.577 1481.64 L261.216 1481.64 L261.216 1485.58 L241.308 1485.58 L241.308 1481.64 Z" fill="#000000" fill-rule="nonzero" fill-opacity="1" /><path clip-path="url(#clip620)" d="M270.66 1479.7 L275.544 1479.7 L275.544 1485.58 L270.66 1485.58 L270.66 1479.7 Z" fill="#000000" fill-rule="nonzero" fill-opacity="1" /><path clip-path="url(#clip620)" d="M295.729 1454.1 Q292.118 1454.1 290.29 1457.66 Q288.484 1461.2 288.484 1468.33 Q288.484 1475.44 290.29 1479.01 Q292.118 1482.55 295.729 1482.55 Q299.364 1482.55 301.169 1479.01 Q302.998 1475.44 302.998 1468.33 Q302.998 1461.2 301.169 1457.66 Q299.364 1454.1 295.729 1454.1 M295.729 1450.39 Q301.54 1450.39 304.595 1455 Q307.674 1459.58 307.674 1468.33 Q307.674 1477.06 304.595 1481.67 Q301.54 1486.25 295.729 1486.25 Q289.919 1486.25 286.841 1481.67 Q283.785 1477.06 283.785 1468.33 Q283.785 1459.58 286.841 1455 Q289.919 1450.39 295.729 1450.39 Z" fill="#000000" fill-rule="nonzero" fill-opacity="1" /><path clip-path="url(#clip620)" d="M325.891 1454.1 Q322.28 1454.1 320.452 1457.66 Q318.646 1461.2 318.646 1468.33 Q318.646 1475.44 320.452 1479.01 Q322.28 1482.55 325.891 1482.55 Q329.526 1482.55 331.331 1479.01 Q333.16 1475.44 333.16 1468.33 Q333.16 1461.2 331.331 1457.66 Q329.526 1454.1 325.891 1454.1 M325.891 1450.39 Q331.701 1450.39 334.757 1455 Q337.836 1459.58 337.836 1468.33 Q337.836 1477.06 334.757 1481.67 Q331.701 1486.25 325.891 1486.25 Q320.081 1486.25 317.002 1481.67 Q313.947 1477.06 313.947 1468.33 Q313.947 1459.58 317.002 1455 Q320.081 1450.39 325.891 1450.39 Z" fill="#000000" fill-rule="nonzero" fill-opacity="1" /><path clip-path="url(#clip620)" d="M982.53 1468.75 L1012.21 1468.75 L1012.21 1472.69 L982.53 1472.69 L982.53 1468.75 Z" fill="#000000" fill-rule="nonzero" fill-opacity="1" /><path clip-path="url(#clip620)" d="M1032.3 1454.1 Q1028.69 1454.1 1026.86 1457.66 Q1025.05 1461.2 1025.05 1468.33 Q1025.05 1475.44 1026.86 1479.01 Q1028.69 1482.55 1032.3 1482.55 Q1035.93 1482.55 1037.74 1479.01 Q1039.57 1475.44 1039.57 1468.33 Q1039.57 1461.2 1037.74 1457.66 Q1035.93 1454.1 1032.3 1454.1 M1032.3 1450.39 Q1038.11 1450.39 1041.16 1455 Q1044.24 1459.58 1044.24 1468.33 Q1044.24 1477.06 1041.16 1481.67 Q1038.11 1486.25 1032.3 1486.25 Q1026.49 1486.25 1023.41 1481.67 Q1020.35 1477.06 1020.35 1468.33 Q1020.35 1459.58 1023.41 1455 Q1026.49 1450.39 1032.3 1450.39 Z" fill="#000000" fill-rule="nonzero" fill-opacity="1" /><path clip-path="url(#clip620)" d="M1052.46 1479.7 L1057.34 1479.7 L1057.34 1485.58 L1052.46 1485.58 L1052.46 1479.7 Z" fill="#000000" fill-rule="nonzero" fill-opacity="1" /><path clip-path="url(#clip620)" d="M1071.56 1481.64 L1087.88 1481.64 L1087.88 1485.58 L1065.93 1485.58 L1065.93 1481.64 Q1068.59 1478.89 1073.18 1474.26 Q1077.78 1469.61 1078.96 1468.27 Q1081.21 1465.74 1082.09 1464.01 Q1082.99 1462.25 1082.99 1460.56 Q1082.99 1457.8 1081.05 1456.07 Q1079.13 1454.33 1076.02 1454.33 Q1073.83 1454.33 1071.37 1455.09 Q1068.94 1455.86 1066.16 1457.41 L1066.16 1452.69 Q1068.99 1451.55 1071.44 1450.97 Q1073.9 1450.39 1075.93 1450.39 Q1081.3 1450.39 1084.5 1453.08 Q1087.69 1455.77 1087.69 1460.26 Q1087.69 1462.39 1086.88 1464.31 Q1086.09 1466.2 1083.99 1468.8 Q1083.41 1469.47 1080.31 1472.69 Q1077.21 1475.88 1071.56 1481.64 Z" fill="#000000" fill-rule="nonzero" fill-opacity="1" /><path clip-path="url(#clip620)" d="M1097.74 1451.02 L1116.09 1451.02 L1116.09 1454.96 L1102.02 1454.96 L1102.02 1463.43 Q1103.04 1463.08 1104.06 1462.92 Q1105.08 1462.73 1106.09 1462.73 Q1111.88 1462.73 1115.26 1465.9 Q1118.64 1469.08 1118.64 1474.49 Q1118.64 1480.07 1115.17 1483.17 Q1111.7 1486.25 1105.38 1486.25 Q1103.2 1486.25 1100.93 1485.88 Q1098.69 1485.51 1096.28 1484.77 L1096.28 1480.07 Q1098.36 1481.2 1100.58 1481.76 Q1102.81 1482.32 1105.28 1482.32 Q1109.29 1482.32 1111.63 1480.21 Q1113.96 1478.1 1113.96 1474.49 Q1113.96 1470.88 1111.63 1468.77 Q1109.29 1466.67 1105.28 1466.67 Q1103.41 1466.67 1101.53 1467.08 Q1099.68 1467.5 1097.74 1468.38 L1097.74 1451.02 Z" fill="#000000" fill-rule="nonzero" fill-opacity="1" /><path clip-path="url(#clip620)" d="M1273.32 1454.1 Q1269.71 1454.1 1267.88 1457.66 Q1266.08 1461.2 1266.08 1468.33 Q1266.08 1475.44 1267.88 1479.01 Q1269.71 1482.55 1273.32 1482.55 Q1276.96 1482.55 1278.76 1479.01 Q1280.59 1475.44 1280.59 1468.33 Q1280.59 1461.2 1278.76 1457.66 Q1276.96 1454.1 1273.32 1454.1 M1273.32 1450.39 Q1279.13 1450.39 1282.19 1455 Q1285.27 1459.58 1285.27 1468.33 Q1285.27 1477.06 1282.19 1481.67 Q1279.13 1486.25 1273.32 1486.25 Q1267.51 1486.25 1264.43 1481.67 Q1261.38 1477.06 1261.38 1468.33 Q1261.38 1459.58 1264.43 1455 Q1267.51 1450.39 1273.32 1450.39 Z" fill="#000000" fill-rule="nonzero" fill-opacity="1" /><path clip-path="url(#clip620)" d="M1293.48 1479.7 L1298.37 1479.7 L1298.37 1485.58 L1293.48 1485.58 L1293.48 1479.7 Z" fill="#000000" fill-rule="nonzero" fill-opacity="1" /><path clip-path="url(#clip620)" d="M1318.55 1454.1 Q1314.94 1454.1 1313.11 1457.66 Q1311.31 1461.2 1311.31 1468.33 Q1311.31 1475.44 1313.11 1479.01 Q1314.94 1482.55 1318.55 1482.55 Q1322.19 1482.55 1323.99 1479.01 Q1325.82 1475.44 1325.82 1468.33 Q1325.82 1461.2 1323.99 1457.66 Q1322.19 1454.1 1318.55 1454.1 M1318.55 1450.39 Q1324.36 1450.39 1327.42 1455 Q1330.5 1459.58 1330.5 1468.33 Q1330.5 1477.06 1327.42 1481.67 Q1324.36 1486.25 1318.55 1486.25 Q1312.74 1486.25 1309.67 1481.67 Q1306.61 1477.06 1306.61 1468.33 Q1306.61 1459.58 1309.67 1455 Q1312.74 1450.39 1318.55 1450.39 Z" fill="#000000" fill-rule="nonzero" fill-opacity="1" /><path clip-path="url(#clip620)" d="M1348.72 1454.1 Q1345.1 1454.1 1343.28 1457.66 Q1341.47 1461.2 1341.47 1468.33 Q1341.47 1475.44 1343.28 1479.01 Q1345.1 1482.55 1348.72 1482.55 Q1352.35 1482.55 1354.16 1479.01 Q1355.98 1475.44 1355.98 1468.33 Q1355.98 1461.2 1354.16 1457.66 Q1352.35 1454.1 1348.72 1454.1 M1348.72 1450.39 Q1354.53 1450.39 1357.58 1455 Q1360.66 1459.58 1360.66 1468.33 Q1360.66 1477.06 1357.58 1481.67 Q1354.53 1486.25 1348.72 1486.25 Q1342.91 1486.25 1339.83 1481.67 Q1336.77 1477.06 1336.77 1468.33 Q1336.77 1459.58 1339.83 1455 Q1342.91 1450.39 1348.72 1450.39 Z" fill="#000000" fill-rule="nonzero" fill-opacity="1" /><path clip-path="url(#clip620)" d="M1534.25 1454.1 Q1530.64 1454.1 1528.81 1457.66 Q1527.01 1461.2 1527.01 1468.33 Q1527.01 1475.44 1528.81 1479.01 Q1530.64 1482.55 1534.25 1482.55 Q1537.89 1482.55 1539.69 1479.01 Q1541.52 1475.44 1541.52 1468.33 Q1541.52 1461.2 1539.69 1457.66 Q1537.89 1454.1 1534.25 1454.1 M1534.25 1450.39 Q1540.06 1450.39 1543.12 1455 Q1546.2 1459.58 1546.2 1468.33 Q1546.2 1477.06 1543.12 1481.67 Q1540.06 1486.25 1534.25 1486.25 Q1528.44 1486.25 1525.37 1481.67 Q1522.31 1477.06 1522.31 1468.33 Q1522.31 1459.58 1525.37 1455 Q1528.44 1450.39 1534.25 1450.39 Z" fill="#000000" fill-rule="nonzero" fill-opacity="1" /><path clip-path="url(#clip620)" d="M1554.42 1479.7 L1559.3 1479.7 L1559.3 1485.58 L1554.42 1485.58 L1554.42 1479.7 Z" fill="#000000" fill-rule="nonzero" fill-opacity="1" /><path clip-path="url(#clip620)" d="M1573.51 1481.64 L1589.83 1481.64 L1589.83 1485.58 L1567.89 1485.58 L1567.89 1481.64 Q1570.55 1478.89 1575.13 1474.26 Q1579.74 1469.61 1580.92 1468.27 Q1583.17 1465.74 1584.05 1464.01 Q1584.95 1462.25 1584.95 1460.56 Q1584.95 1457.8 1583 1456.07 Q1581.08 1454.33 1577.98 1454.33 Q1575.78 1454.33 1573.33 1455.09 Q1570.9 1455.86 1568.12 1457.41 L1568.12 1452.69 Q1570.94 1451.55 1573.4 1450.97 Q1575.85 1450.39 1577.89 1450.39 Q1583.26 1450.39 1586.45 1453.08 Q1589.65 1455.77 1589.65 1460.26 Q1589.65 1462.39 1588.84 1464.31 Q1588.05 1466.2 1585.94 1468.8 Q1585.37 1469.47 1582.26 1472.69 Q1579.16 1475.88 1573.51 1481.64 Z" fill="#000000" fill-rule="nonzero" fill-opacity="1" /><path clip-path="url(#clip620)" d="M1599.69 1451.02 L1618.05 1451.02 L1618.05 1454.96 L1603.98 1454.96 L1603.98 1463.43 Q1604.99 1463.08 1606.01 1462.92 Q1607.03 1462.73 1608.05 1462.73 Q1613.84 1462.73 1617.22 1465.9 Q1620.6 1469.08 1620.6 1474.49 Q1620.6 1480.07 1617.12 1483.17 Q1613.65 1486.25 1607.33 1486.25 Q1605.16 1486.25 1602.89 1485.88 Q1600.64 1485.51 1598.24 1484.77 L1598.24 1480.07 Q1600.32 1481.2 1602.54 1481.76 Q1604.76 1482.32 1607.24 1482.32 Q1611.24 1482.32 1613.58 1480.21 Q1615.92 1478.1 1615.92 1474.49 Q1615.92 1470.88 1613.58 1468.77 Q1611.24 1466.67 1607.24 1466.67 Q1605.37 1466.67 1603.49 1467.08 Q1601.64 1467.5 1599.69 1468.38 L1599.69 1451.02 Z" fill="#000000" fill-rule="nonzero" fill-opacity="1" /><path clip-path="url(#clip620)" d="M2304.83 1481.64 L2312.47 1481.64 L2312.47 1455.28 L2304.16 1456.95 L2304.16 1452.69 L2312.42 1451.02 L2317.1 1451.02 L2317.1 1481.64 L2324.74 1481.64 L2324.74 1485.58 L2304.83 1485.58 L2304.83 1481.64 Z" fill="#000000" fill-rule="nonzero" fill-opacity="1" /><path clip-path="url(#clip620)" d="M2334.18 1479.7 L2339.06 1479.7 L2339.06 1485.58 L2334.18 1485.58 L2334.18 1479.7 Z" fill="#000000" fill-rule="nonzero" fill-opacity="1" /><path clip-path="url(#clip620)" d="M2359.25 1454.1 Q2355.64 1454.1 2353.81 1457.66 Q2352 1461.2 2352 1468.33 Q2352 1475.44 2353.81 1479.01 Q2355.64 1482.55 2359.25 1482.55 Q2362.88 1482.55 2364.69 1479.01 Q2366.52 1475.44 2366.52 1468.33 Q2366.52 1461.2 2364.69 1457.66 Q2362.88 1454.1 2359.25 1454.1 M2359.25 1450.39 Q2365.06 1450.39 2368.11 1455 Q2371.19 1459.58 2371.19 1468.33 Q2371.19 1477.06 2368.11 1481.67 Q2365.06 1486.25 2359.25 1486.25 Q2353.44 1486.25 2350.36 1481.67 Q2347.3 1477.06 2347.3 1468.33 Q2347.3 1459.58 2350.36 1455 Q2353.44 1450.39 2359.25 1450.39 Z" fill="#000000" fill-rule="nonzero" fill-opacity="1" /><path clip-path="url(#clip620)" d="M2389.41 1454.1 Q2385.8 1454.1 2383.97 1457.66 Q2382.17 1461.2 2382.17 1468.33 Q2382.17 1475.44 2383.97 1479.01 Q2385.8 1482.55 2389.41 1482.55 Q2393.05 1482.55 2394.85 1479.01 Q2396.68 1475.44 2396.68 1468.33 Q2396.68 1461.2 2394.85 1457.66 Q2393.05 1454.1 2389.41 1454.1 M2389.41 1450.39 Q2395.22 1450.39 2398.28 1455 Q2401.36 1459.58 2401.36 1468.33 Q2401.36 1477.06 2398.28 1481.67 Q2395.22 1486.25 2389.41 1486.25 Q2383.6 1486.25 2380.52 1481.67 Q2377.47 1477.06 2377.47 1468.33 Q2377.47 1459.58 2380.52 1455 Q2383.6 1450.39 2389.41 1450.39 Z" fill="#000000" fill-rule="nonzero" fill-opacity="1" /><path clip-path="url(#clip620)" d="M1213.45 1532.4 L1241.27 1532.4 L1241.27 1537.74 L1219.24 1563.37 L1241.27 1563.37 L1241.27 1568.04 L1212.65 1568.04 L1212.65 1562.7 L1234.68 1537.07 L1213.45 1537.07 L1213.45 1532.4 Z" fill="#000000" fill-rule="nonzero" fill-opacity="1" /><path clip-path="url(#clip620)" d="M1270.39 1518.52 L1283.89 1518.52 L1283.89 1523.07 L1276.25 1523.07 L1276.25 1572.09 L1283.89 1572.09 L1283.89 1576.64 L1270.39 1576.64 L1270.39 1518.52 Z" fill="#000000" fill-rule="nonzero" fill-opacity="1" /><path clip-path="url(#clip620)" d="M1322.02 1533.76 L1322.02 1539.24 Q1319.53 1537.87 1317.02 1537.2 Q1314.54 1536.5 1311.99 1536.5 Q1306.29 1536.5 1303.14 1540.13 Q1299.99 1543.73 1299.99 1550.25 Q1299.99 1556.78 1303.14 1560.4 Q1306.29 1564 1311.99 1564 Q1314.54 1564 1317.02 1563.33 Q1319.53 1562.63 1322.02 1561.26 L1322.02 1566.68 Q1319.57 1567.82 1316.92 1568.39 Q1314.31 1568.97 1311.35 1568.97 Q1303.3 1568.97 1298.56 1563.91 Q1293.82 1558.85 1293.82 1550.25 Q1293.82 1541.53 1298.59 1536.53 Q1303.4 1531.54 1311.74 1531.54 Q1314.44 1531.54 1317.02 1532.11 Q1319.6 1532.65 1322.02 1533.76 Z" fill="#000000" fill-rule="nonzero" fill-opacity="1" /><path clip-path="url(#clip620)" d="M1359.96 1539.24 Q1362.15 1535.29 1365.21 1533.41 Q1368.26 1531.54 1372.4 1531.54 Q1377.97 1531.54 1380.99 1535.45 Q1384.02 1539.33 1384.02 1546.53 L1384.02 1568.04 L1378.13 1568.04 L1378.13 1546.72 Q1378.13 1541.59 1376.32 1539.11 Q1374.5 1536.63 1370.78 1536.63 Q1366.23 1536.63 1363.58 1539.65 Q1360.94 1542.68 1360.94 1547.9 L1360.94 1568.04 L1355.05 1568.04 L1355.05 1546.72 Q1355.05 1541.56 1353.24 1539.11 Q1351.43 1536.63 1347.64 1536.63 Q1343.15 1536.63 1340.51 1539.68 Q1337.87 1542.71 1337.87 1547.9 L1337.87 1568.04 L1331.98 1568.04 L1331.98 1532.4 L1337.87 1532.4 L1337.87 1537.93 Q1339.87 1534.66 1342.67 1533.1 Q1345.47 1531.54 1349.33 1531.54 Q1353.21 1531.54 1355.91 1533.51 Q1358.65 1535.48 1359.96 1539.24 Z" fill="#000000" fill-rule="nonzero" fill-opacity="1" /><path clip-path="url(#clip620)" d="M1409.39 1518.52 L1409.39 1576.64 L1395.89 1576.64 L1395.89 1572.09 L1403.5 1572.09 L1403.5 1523.07 L1395.89 1523.07 L1395.89 1518.52 L1409.39 1518.52 Z" fill="#000000" fill-rule="nonzero" fill-opacity="1" /><polyline clip-path="url(#clip620)" style="stroke:#000000; stroke-linecap:round; stroke-linejoin:round; stroke-width:4; stroke-opacity:1; fill:none" points="269.283,1423.18 269.283,106.192 "/>
<polyline clip-path="url(#clip620)" style="stroke:#000000; stroke-linecap:round; stroke-linejoin:round; stroke-width:4; stroke-opacity:1; fill:none" points="269.283,1203.68 288.18,1203.68 "/>
<polyline clip-path="url(#clip620)" style="stroke:#000000; stroke-linecap:round; stroke-linejoin:round; stroke-width:4; stroke-opacity:1; fill:none" points="269.283,253.228 288.18,253.228 "/>
<polyline clip-path="url(#clip620)" style="stroke:#000000; stroke-linecap:round; stroke-linejoin:round; stroke-width:4; stroke-opacity:1; fill:none" points="269.283,106.192 288.18,106.192 "/>
<path clip-path="url(#clip620)" d="M221.338 1189.48 Q217.727 1189.48 215.899 1193.05 Q214.093 1196.59 214.093 1203.72 Q214.093 1210.82 215.899 1214.39 Q217.727 1217.93 221.338 1217.93 Q224.973 1217.93 226.778 1214.39 Q228.607 1210.82 228.607 1203.72 Q228.607 1196.59 226.778 1193.05 Q224.973 1189.48 221.338 1189.48 M221.338 1185.78 Q227.149 1185.78 230.204 1190.38 Q233.283 1194.97 233.283 1203.72 Q233.283 1212.44 230.204 1217.05 Q227.149 1221.63 221.338 1221.63 Q215.528 1221.63 212.45 1217.05 Q209.394 1212.44 209.394 1203.72 Q209.394 1194.97 212.45 1190.38 Q215.528 1185.78 221.338 1185.78 Z" fill="#000000" fill-rule="nonzero" fill-opacity="1" /><path clip-path="url(#clip620)" d="M69.418 245.346 L69.418 249.374 Q67.6124 248.448 65.668 247.985 Q63.7235 247.522 61.6402 247.522 Q58.4689 247.522 56.8717 248.494 Q55.2977 249.466 55.2977 251.411 Q55.2977 252.892 56.4319 253.749 Q57.5662 254.582 60.9921 255.346 L62.4504 255.67 Q66.9874 256.642 68.8855 258.425 Q70.8068 260.184 70.8068 263.355 Q70.8068 266.966 67.9365 269.073 Q65.0893 271.179 60.0893 271.179 Q58.006 271.179 55.7375 270.763 Q53.4921 270.369 50.9921 269.559 L50.9921 265.161 Q53.3532 266.388 55.6449 267.013 Q57.9365 267.614 60.1819 267.614 Q63.1911 267.614 64.8115 266.596 Q66.4319 265.554 66.4319 263.679 Q66.4319 261.943 65.2513 261.017 Q64.0939 260.091 60.1356 259.235 L58.6541 258.888 Q54.6958 258.054 52.9366 256.341 Q51.1773 254.605 51.1773 251.596 Q51.1773 247.939 53.7699 245.948 Q56.3625 243.957 61.131 243.957 Q63.4921 243.957 65.5754 244.304 Q67.6587 244.652 69.418 245.346 Z" fill="#000000" fill-rule="nonzero" fill-opacity="1" /><path clip-path="url(#clip620)" d="M77.5892 244.582 L81.8484 244.582 L81.8484 270.508 L77.5892 270.508 L77.5892 244.582 M77.5892 234.49 L81.8484 234.49 L81.8484 239.883 L77.5892 239.883 L77.5892 234.49 Z" fill="#000000" fill-rule="nonzero" fill-opacity="1" /><path clip-path="url(#clip620)" d="M112.311 254.86 L112.311 270.508 L108.052 270.508 L108.052 254.999 Q108.052 251.318 106.617 249.489 Q105.182 247.661 102.311 247.661 Q98.8622 247.661 96.8715 249.86 Q94.8808 252.059 94.8808 255.855 L94.8808 270.508 L90.5984 270.508 L90.5984 244.582 L94.8808 244.582 L94.8808 248.61 Q96.4085 246.272 98.4687 245.114 Q100.552 243.957 103.26 243.957 Q107.728 243.957 110.02 246.735 Q112.311 249.489 112.311 254.86 Z" fill="#000000" fill-rule="nonzero" fill-opacity="1" /><path clip-path="url(#clip620)" d="M131.038 234.536 Q127.936 239.86 126.432 245.068 Q124.927 250.277 124.927 255.624 Q124.927 260.971 126.432 266.225 Q127.959 271.457 131.038 276.758 L127.334 276.758 Q123.862 271.318 122.126 266.063 Q120.413 260.809 120.413 255.624 Q120.413 250.462 122.126 245.23 Q123.839 239.999 127.334 234.536 L131.038 234.536 Z" fill="#000000" fill-rule="nonzero" fill-opacity="1" /><path clip-path="url(#clip620)" d="M150.482 251.364 Q147.334 251.364 145.482 253.517 Q143.654 255.67 143.654 259.42 Q143.654 263.147 145.482 265.323 Q147.334 267.475 150.482 267.475 Q153.63 267.475 155.459 265.323 Q157.311 263.147 157.311 259.42 Q157.311 255.67 155.459 253.517 Q153.63 251.364 150.482 251.364 M159.765 236.712 L159.765 240.971 Q158.005 240.138 156.2 239.698 Q154.417 239.258 152.658 239.258 Q148.029 239.258 145.575 242.383 Q143.144 245.508 142.797 251.827 Q144.163 249.814 146.223 248.749 Q148.283 247.661 150.76 247.661 Q155.968 247.661 158.978 250.832 Q162.01 253.98 162.01 259.42 Q162.01 264.744 158.862 267.962 Q155.714 271.179 150.482 271.179 Q144.487 271.179 141.316 266.596 Q138.144 261.989 138.144 253.263 Q138.144 245.068 142.033 240.207 Q145.922 235.323 152.473 235.323 Q154.232 235.323 156.015 235.67 Q157.82 236.017 159.765 236.712 Z" fill="#000000" fill-rule="nonzero" fill-opacity="1" /><path clip-path="url(#clip620)" d="M180.066 239.027 Q176.454 239.027 174.626 242.591 Q172.82 246.133 172.82 253.263 Q172.82 260.369 174.626 263.934 Q176.454 267.475 180.066 267.475 Q183.7 267.475 185.505 263.934 Q187.334 260.369 187.334 253.263 Q187.334 246.133 185.505 242.591 Q183.7 239.027 180.066 239.027 M180.066 235.323 Q185.876 235.323 188.931 239.929 Q192.01 244.513 192.01 253.263 Q192.01 261.989 188.931 266.596 Q185.876 271.179 180.066 271.179 Q174.255 271.179 171.177 266.596 Q168.121 261.989 168.121 253.263 Q168.121 244.513 171.177 239.929 Q174.255 235.323 180.066 235.323 Z" fill="#000000" fill-rule="nonzero" fill-opacity="1" /><path clip-path="url(#clip620)" d="M207.01 238.309 Q205.158 238.309 203.885 239.605 Q202.612 240.878 202.612 242.73 Q202.612 244.559 203.885 245.832 Q205.158 247.082 207.01 247.082 Q208.862 247.082 210.135 245.832 Q211.408 244.559 211.408 242.73 Q211.408 240.902 210.112 239.605 Q208.839 238.309 207.01 238.309 M207.01 235.323 Q208.491 235.323 209.857 235.902 Q211.223 236.457 212.218 237.522 Q213.283 238.564 213.815 239.883 Q214.348 241.202 214.348 242.73 Q214.348 245.786 212.195 247.915 Q210.065 250.022 206.964 250.022 Q203.839 250.022 201.755 247.939 Q199.672 245.855 199.672 242.73 Q199.672 239.628 201.802 237.476 Q203.931 235.323 207.01 235.323 Z" fill="#000000" fill-rule="nonzero" fill-opacity="1" /><path clip-path="url(#clip620)" d="M222.658 234.536 L226.362 234.536 Q229.834 239.999 231.547 245.23 Q233.283 250.462 233.283 255.624 Q233.283 260.809 231.547 266.063 Q229.834 271.318 226.362 276.758 L222.658 276.758 Q225.737 271.457 227.241 266.225 Q228.769 260.971 228.769 255.624 Q228.769 250.277 227.241 245.068 Q225.737 239.86 222.658 234.536 Z" fill="#000000" fill-rule="nonzero" fill-opacity="1" /><path clip-path="url(#clip620)" d="M213.376 119.537 L221.014 119.537 L221.014 93.1714 L212.704 94.838 L212.704 90.5788 L220.968 88.9121 L225.644 88.9121 L225.644 119.537 L233.283 119.537 L233.283 123.472 L213.376 123.472 L213.376 119.537 Z" fill="#000000" fill-rule="nonzero" fill-opacity="1" /><path clip-path="url(#clip620)" d="M810.91 64.4899 L810.91 8.65666 Q810.91 6.43152 812.111 6.43152 Q813.311 6.43152 813.311 8.21749 L813.311 64.0507 Q813.311 66.2759 812.111 66.2759 Q810.91 66.2759 810.91 64.4899 Z" fill="#000000" fill-rule="nonzero" fill-opacity="1" /><path clip-path="url(#clip620)" d="M895.74 11.0575 Q895.74 11.9065 895.359 12.0822 Q895.008 12.2579 893.837 12.2579 Q892.461 12.2579 891.612 12.375 Q890.762 12.4628 890.235 12.6092 Q889.708 12.7263 889.386 13.1362 Q889.094 13.5461 888.976 13.8974 Q888.859 14.2195 888.654 15.01 L880.691 46.9524 Q880.398 48.0356 880.398 48.4163 Q880.398 48.7969 880.632 49.0311 Q880.896 49.2653 881.54 49.3824 Q882.184 49.4703 882.682 49.4995 Q883.209 49.4995 884.292 49.4995 Q885.639 49.4995 885.844 49.7338 Q885.961 49.8802 885.961 50.1437 Q885.961 50.6999 885.727 50.9927 Q885.492 51.2562 885.287 51.3148 Q885.112 51.3441 884.819 51.3441 Q883.589 51.3441 881.071 51.2562 Q878.553 51.1684 877.324 51.1684 L869.887 51.3441 Q869.009 51.3441 869.009 50.6121 Q869.009 50.0558 869.243 49.8216 Q869.477 49.5581 869.741 49.5288 Q870.004 49.4995 870.678 49.4995 Q873.078 49.4995 874.103 49.236 Q875.157 48.9725 875.45 48.5041 Q875.772 48.0064 876.123 46.6596 L884.702 12.3164 L884.643 12.3164 L860.43 50.2608 L860.255 50.5243 Q860.079 50.7585 860.02 50.8463 Q859.962 50.9049 859.786 51.0806 Q859.64 51.227 859.464 51.2855 Q859.318 51.3441 859.113 51.3441 Q858.762 51.3441 858.557 51.1098 Q858.381 50.8756 858.322 50.6999 Q858.293 50.495 858.205 49.968 L853.052 12.7849 L852.994 12.7849 L844.825 45.4592 Q844.591 46.3668 844.591 46.8352 Q844.591 48.0356 845.44 48.7676 Q846.318 49.4703 848.661 49.4995 Q849.744 49.4995 849.744 50.1437 Q849.744 51.3441 848.661 51.3441 Q847.665 51.3441 845.586 51.2562 Q843.508 51.1684 842.483 51.1684 Q841.487 51.1684 839.467 51.2562 Q837.476 51.3441 836.51 51.3441 Q835.661 51.3441 835.661 50.6121 Q835.661 49.4995 836.744 49.4995 Q838.501 49.441 839.702 49.0897 Q840.902 48.7383 841.575 48.0649 Q842.278 47.3915 842.6 46.7181 Q842.951 46.0155 843.215 44.9907 L850.827 14.4537 Q851.061 13.4875 851.061 13.3411 Q851.061 12.8434 850.769 12.6678 Q850.505 12.4628 849.744 12.375 Q848.28 12.2579 847.167 12.2579 Q846.435 12.2579 846.143 12.2286 Q845.879 12.1993 845.645 12.0529 Q845.44 11.8772 845.44 11.5259 Q845.44 10.9696 845.674 10.7354 Q845.938 10.4719 846.231 10.4426 Q846.523 10.3841 847.226 10.3841 L855.453 10.3841 Q856.654 10.3841 856.917 10.589 Q857.181 10.7647 857.298 11.7601 L861.982 45.6934 L883.882 11.5259 Q884.438 10.6768 884.731 10.5305 Q885.024 10.3841 886.195 10.3841 L894.129 10.3841 Q894.774 10.3841 895.037 10.4133 Q895.301 10.4426 895.505 10.589 Q895.74 10.7354 895.74 11.0575 Z" fill="#000000" fill-rule="nonzero" fill-opacity="1" /><path clip-path="url(#clip620)" d="M922.466 46.5882 Q922.466 47.7359 921.748 48.3917 Q921.031 49.0271 920.211 49.0271 Q919.432 49.0271 919.023 48.5762 Q918.613 48.1253 918.613 47.5514 Q918.613 46.7726 919.187 46.0963 Q919.76 45.42 920.621 45.2765 Q919.781 44.7437 918.531 44.7437 Q917.711 44.7437 916.994 45.1741 Q916.297 45.6044 915.866 46.1578 Q915.457 46.7112 915.088 47.5104 Q914.739 48.2892 914.596 48.7606 Q914.473 49.2115 914.37 49.7034 L912.936 55.4419 Q912.239 58.1677 912.239 59.1309 Q912.239 60.3196 912.813 61.1189 Q913.387 61.8977 914.534 61.8977 Q914.985 61.8977 915.497 61.7747 Q916.01 61.6313 916.666 61.2624 Q917.342 60.873 917.936 60.2991 Q918.551 59.7048 919.146 58.7005 Q919.74 57.6963 920.129 56.4051 Q920.252 55.9542 920.662 55.9542 Q921.175 55.9542 921.175 56.3641 Q921.175 56.7125 920.888 57.4503 Q920.621 58.1677 920.027 59.1104 Q919.453 60.0327 918.695 60.873 Q917.936 61.6927 916.809 62.2666 Q915.682 62.8404 914.452 62.8404 Q912.69 62.8404 911.522 61.8977 Q910.353 60.9549 909.923 59.6433 Q909.82 59.8277 909.677 60.0737 Q909.534 60.3196 909.103 60.873 Q908.693 61.4058 908.222 61.8157 Q907.751 62.2051 907.013 62.5125 Q906.295 62.8404 905.517 62.8404 Q904.533 62.8404 903.652 62.5535 Q902.791 62.2666 902.176 61.6108 Q901.561 60.9549 901.561 60.0532 Q901.561 59.0489 902.237 58.3521 Q902.934 57.6348 903.877 57.6348 Q904.471 57.6348 904.943 57.9832 Q905.435 58.3316 905.435 59.0899 Q905.435 59.9302 904.861 60.5655 Q904.287 61.2009 903.467 61.3648 Q904.307 61.8977 905.558 61.8977 Q906.91 61.8977 907.976 60.709 Q909.042 59.5203 909.554 57.5323 Q910.825 52.7571 911.317 50.6256 Q911.808 48.4737 911.808 47.5514 Q911.808 46.6907 911.583 46.0963 Q911.358 45.502 910.968 45.2355 Q910.599 44.9486 910.251 44.8461 Q909.923 44.7437 909.554 44.7437 Q908.939 44.7437 908.242 44.9896 Q907.566 45.2355 906.746 45.8094 Q905.947 46.3627 905.189 47.5104 Q904.43 48.6581 903.918 50.2362 Q903.816 50.7076 903.365 50.7076 Q902.873 50.6871 902.873 50.2772 Q902.873 49.9288 903.139 49.2115 Q903.426 48.4737 904 47.5514 Q904.594 46.6292 905.353 45.8094 Q906.131 44.9691 907.259 44.3953 Q908.406 43.8214 909.636 43.8214 Q910.189 43.8214 910.722 43.9444 Q911.276 44.0469 911.931 44.3543 Q912.608 44.6617 913.202 45.338 Q913.796 46.0143 914.165 46.9981 Q914.411 46.5267 914.739 46.0758 Q915.088 45.6249 915.62 45.0716 Q916.174 44.4977 916.932 44.1698 Q917.711 43.8214 918.572 43.8214 Q919.412 43.8214 920.232 44.0469 Q921.052 44.2518 921.748 44.9281 Q922.466 45.584 922.466 46.5882 Z" fill="#000000" fill-rule="nonzero" fill-opacity="1" /><path clip-path="url(#clip620)" d="M944.195 45.42 Q944.195 45.7069 944.011 46.3832 L939.994 62.4101 Q939.113 65.9761 936.243 68.4765 Q933.395 70.9768 930.156 70.9768 Q928.21 70.9768 926.959 69.9316 Q925.709 68.9069 925.709 67.3288 Q925.709 65.9351 926.447 65.2588 Q927.185 64.603 928.066 64.603 Q928.353 64.603 928.66 64.685 Q928.968 64.7669 929.296 65.1153 Q929.624 65.4638 929.624 66.0581 Q929.624 67.0213 928.783 67.7796 Q928.373 68.1281 927.984 68.21 Q927.615 68.292 926.98 68.292 Q927.226 68.8659 927.677 69.2553 Q928.128 69.6447 928.64 69.7881 Q929.152 69.9521 929.48 69.9931 Q929.829 70.0546 930.156 70.0546 Q932.78 70.0546 934.788 67.4107 Q935.383 66.6115 935.813 65.8122 Q936.264 65.0334 936.592 64.0701 Q936.92 63.1274 937.063 62.615 Q937.227 62.1026 937.514 60.9344 Q935.608 62.8404 933.272 62.8404 Q932.288 62.8404 931.407 62.574 Q930.546 62.3076 929.788 61.7542 Q929.029 61.1804 928.578 60.1761 Q928.148 59.1719 928.148 57.8397 Q928.148 56.4256 928.701 54.4991 Q929.255 52.5726 930.587 49.0271 Q931.304 47.0391 931.304 46.0758 Q931.304 45.6044 931.202 45.3175 Q931.099 45.0101 930.894 44.9076 Q930.689 44.7847 930.566 44.7642 Q930.464 44.7437 930.259 44.7437 Q929.05 44.7437 927.923 45.9734 Q926.795 47.203 926.017 49.9493 Q925.853 50.4617 925.75 50.5846 Q925.648 50.7076 925.34 50.7076 Q924.828 50.6871 924.828 50.2772 Q924.828 50.1133 925.012 49.4779 Q925.197 48.8221 925.627 47.8589 Q926.078 46.8751 926.693 45.9938 Q927.308 45.0921 928.271 44.4567 Q929.255 43.8214 930.382 43.8214 Q931.919 43.8214 932.862 44.8257 Q933.825 45.8094 933.825 47.2645 Q933.825 47.8589 933.661 48.3917 Q933.518 48.9041 932.985 50.2772 Q930.833 55.8108 930.833 58.5161 Q930.833 59.1719 930.935 59.7253 Q931.058 60.2581 931.325 60.791 Q931.591 61.3033 932.124 61.6108 Q932.677 61.8977 933.436 61.8977 Q934.399 61.8977 935.301 61.4468 Q936.223 60.9754 936.797 60.3401 Q937.391 59.7048 937.74 59.1719 Q938.108 58.6185 938.19 58.3316 L940.076 50.7896 L940.916 47.4285 Q941.306 45.6044 941.49 45.1536 Q941.736 44.7232 942.166 44.4977 Q942.597 44.2723 942.966 44.2723 Q943.478 44.2723 943.826 44.5797 Q944.195 44.8871 944.195 45.42 Z" fill="#000000" fill-rule="nonzero" fill-opacity="1" /><path clip-path="url(#clip620)" d="M951.588 64.4899 L951.588 8.65666 Q951.588 6.43152 952.789 6.43152 Q953.989 6.43152 953.989 8.21749 L953.989 64.0507 Q953.989 66.2759 952.789 66.2759 Q951.588 66.2759 951.588 64.4899 Z" fill="#000000" fill-rule="nonzero" fill-opacity="1" /><path clip-path="url(#clip620)" d="M992.185 45.6348 Q992.185 40.5405 998.187 37.8469 Q1001.79 36.1195 1009.22 35.6803 L1009.22 33.4844 Q1009.22 29.7661 1007.26 27.8045 Q1005.33 25.8136 1002.87 25.8136 Q998.48 25.8136 996.372 28.5657 Q998.158 28.6243 998.802 29.5319 Q999.446 30.4103 999.446 31.3179 Q999.446 32.5183 998.685 33.3088 Q997.953 34.07 996.694 34.07 Q995.493 34.07 994.703 33.3381 Q993.912 32.5768 993.912 31.2593 Q993.912 28.3315 996.547 26.3992 Q999.212 24.4668 1002.99 24.4668 Q1007.91 24.4668 1011.19 27.7752 Q1012.21 28.8 1012.71 30.1175 Q1013.24 31.435 1013.29 32.3133 Q1013.35 33.1624 1013.35 34.8605 L1013.35 46.8352 Q1013.35 47.1866 1013.47 47.7721 Q1013.59 48.3577 1014.11 49.1189 Q1014.67 49.8509 1015.58 49.8509 Q1017.74 49.8509 1017.72 46.0155 L1017.72 42.6485 L1019.24 42.6485 L1019.24 46.0155 Q1019.24 49.2068 1017.54 50.4657 Q1015.87 51.6954 1014.32 51.6954 Q1012.33 51.6954 1011.07 50.2315 Q1009.81 48.7676 1009.63 46.7767 Q1008.73 49.0604 1006.65 50.5536 Q1004.6 52.0175 1001.79 52.0175 Q999.622 52.0175 997.572 51.4612 Q995.552 50.9342 993.854 49.441 Q992.185 47.9185 992.185 45.6348 M996.811 45.5763 Q996.811 47.8014 998.392 49.236 Q999.973 50.6707 1002.2 50.6707 Q1004.72 50.6707 1006.97 48.7383 Q1009.22 46.7767 1009.22 42.9413 L1009.22 36.9393 Q1002.58 37.1735 999.68 39.8378 Q996.811 42.4728 996.811 45.5763 Z" fill="#000000" fill-rule="nonzero" fill-opacity="1" /><path clip-path="url(#clip620)" d="M1020.44 51.3441 L1020.44 49.4995 Q1023.63 49.4995 1024.36 49.1189 Q1025.1 48.709 1025.1 46.7767 L1025.1 30.703 Q1025.1 28.4779 1024.3 27.9216 Q1023.54 27.3653 1020.44 27.3653 L1020.44 25.4915 L1028.87 24.8474 L1028.87 31.1422 Q1031.68 24.8474 1037.74 24.8474 Q1042.25 24.8474 1044.04 27.0726 Q1045.36 28.5657 1045.62 30.2346 Q1045.91 31.9034 1045.91 36.2366 L1045.91 47.6843 Q1045.97 48.9433 1046.94 49.236 Q1047.9 49.4995 1050.6 49.4995 L1050.6 51.3441 Q1044.48 51.1684 1043.86 51.1684 Q1043.39 51.1684 1037.1 51.3441 L1037.1 49.4995 Q1040.29 49.4995 1041.02 49.1189 Q1041.78 48.709 1041.78 46.7767 L1041.78 32.8111 Q1041.78 29.7661 1040.85 27.9802 Q1039.91 26.1649 1037.33 26.1649 Q1034.23 26.1649 1031.74 28.7707 Q1029.25 31.3764 1029.25 35.7681 L1029.25 46.7767 Q1029.25 48.709 1029.98 49.1189 Q1030.75 49.4995 1033.91 49.4995 L1033.91 51.3441 Q1027.79 51.1684 1027.2 51.1684 Q1026.74 51.1684 1020.44 51.3441 Z" fill="#000000" fill-rule="nonzero" fill-opacity="1" /><path clip-path="url(#clip620)" d="M1054.82 38.4617 Q1054.82 32.7525 1058.81 28.8 Q1062.79 24.8474 1068.17 24.8474 Q1072.74 24.8474 1075.73 28.5657 L1075.73 15.5956 Q1075.73 13.3704 1074.94 12.8141 Q1074.18 12.2579 1071.07 12.2579 L1071.07 10.3841 L1079.71 9.73995 L1079.71 46.1326 Q1079.71 48.3577 1080.47 48.9433 Q1081.26 49.4995 1084.37 49.4995 L1084.37 51.3441 L1075.55 52.0175 L1075.55 48.0356 Q1072.45 51.9882 1067.53 52.0175 Q1062.38 52.0175 1058.6 48.0649 Q1054.82 44.1124 1054.82 38.4617 M1059.8 38.5203 Q1059.8 44.0831 1061.53 46.8352 Q1063.93 50.6707 1067.82 50.6707 Q1072.27 50.6707 1074.91 46.4839 Q1075.58 45.4592 1075.55 44.2588 L1075.55 31.962 Q1075.55 30.7616 1074.91 29.7661 Q1072.45 26.1649 1068.44 26.1649 Q1064.25 26.1649 1061.65 30.0004 Q1059.8 32.8696 1059.8 38.5203 Z" fill="#000000" fill-rule="nonzero" fill-opacity="1" /><path clip-path="url(#clip620)" d="M1163.69 11.0575 Q1163.69 11.9065 1163.31 12.0822 Q1162.96 12.2579 1161.79 12.2579 Q1160.41 12.2579 1159.56 12.375 Q1158.71 12.4628 1158.19 12.6092 Q1157.66 12.7263 1157.34 13.1362 Q1157.04 13.5461 1156.93 13.8974 Q1156.81 14.2195 1156.61 15.01 L1148.64 46.9524 Q1148.35 48.0356 1148.35 48.4163 Q1148.35 48.7969 1148.58 49.0311 Q1148.85 49.2653 1149.49 49.3824 Q1150.14 49.4703 1150.63 49.4995 Q1151.16 49.4995 1152.24 49.4995 Q1153.59 49.4995 1153.8 49.7338 Q1153.91 49.8802 1153.91 50.1437 Q1153.91 50.6999 1153.68 50.9927 Q1153.44 51.2562 1153.24 51.3148 Q1153.06 51.3441 1152.77 51.3441 Q1151.54 51.3441 1149.02 51.2562 Q1146.5 51.1684 1145.28 51.1684 L1137.84 51.3441 Q1136.96 51.3441 1136.96 50.6121 Q1136.96 50.0558 1137.19 49.8216 Q1137.43 49.5581 1137.69 49.5288 Q1137.96 49.4995 1138.63 49.4995 Q1141.03 49.4995 1142.05 49.236 Q1143.11 48.9725 1143.4 48.5041 Q1143.72 48.0064 1144.07 46.6596 L1152.65 12.3164 L1152.59 12.3164 L1128.38 50.2608 L1128.21 50.5243 Q1128.03 50.7585 1127.97 50.8463 Q1127.91 50.9049 1127.74 51.0806 Q1127.59 51.227 1127.42 51.2855 Q1127.27 51.3441 1127.06 51.3441 Q1126.71 51.3441 1126.51 51.1098 Q1126.33 50.8756 1126.27 50.6999 Q1126.24 50.495 1126.16 49.968 L1121 12.7849 L1120.95 12.7849 L1112.78 45.4592 Q1112.54 46.3668 1112.54 46.8352 Q1112.54 48.0356 1113.39 48.7676 Q1114.27 49.4703 1116.61 49.4995 Q1117.7 49.4995 1117.7 50.1437 Q1117.7 51.3441 1116.61 51.3441 Q1115.62 51.3441 1113.54 51.2562 Q1111.46 51.1684 1110.43 51.1684 Q1109.44 51.1684 1107.42 51.2562 Q1105.43 51.3441 1104.46 51.3441 Q1103.61 51.3441 1103.61 50.6121 Q1103.61 49.4995 1104.7 49.4995 Q1106.45 49.441 1107.65 49.0897 Q1108.85 48.7383 1109.53 48.0649 Q1110.23 47.3915 1110.55 46.7181 Q1110.9 46.0155 1111.17 44.9907 L1118.78 14.4537 Q1119.01 13.4875 1119.01 13.3411 Q1119.01 12.8434 1118.72 12.6678 Q1118.46 12.4628 1117.7 12.375 Q1116.23 12.2579 1115.12 12.2579 Q1114.39 12.2579 1114.09 12.2286 Q1113.83 12.1993 1113.6 12.0529 Q1113.39 11.8772 1113.39 11.5259 Q1113.39 10.9696 1113.63 10.7354 Q1113.89 10.4719 1114.18 10.4426 Q1114.47 10.3841 1115.18 10.3841 L1123.4 10.3841 Q1124.6 10.3841 1124.87 10.589 Q1125.13 10.7647 1125.25 11.7601 L1129.93 45.6934 L1151.83 11.5259 Q1152.39 10.6768 1152.68 10.5305 Q1152.98 10.3841 1154.15 10.3841 L1162.08 10.3841 Q1162.72 10.3841 1162.99 10.4133 Q1163.25 10.4426 1163.46 10.589 Q1163.69 10.7354 1163.69 11.0575 Z" fill="#000000" fill-rule="nonzero" fill-opacity="1" /><path clip-path="url(#clip620)" d="M1188.88 45.42 Q1188.88 45.7069 1188.7 46.3832 L1184.68 62.4101 Q1183.8 65.9761 1180.93 68.4765 Q1178.08 70.9768 1174.84 70.9768 Q1172.89 70.9768 1171.64 69.9316 Q1170.39 68.9069 1170.39 67.3288 Q1170.39 65.9351 1171.13 65.2588 Q1171.87 64.603 1172.75 64.603 Q1173.04 64.603 1173.34 64.685 Q1173.65 64.7669 1173.98 65.1153 Q1174.31 65.4638 1174.31 66.0581 Q1174.31 67.0213 1173.47 67.7796 Q1173.06 68.1281 1172.67 68.21 Q1172.3 68.292 1171.66 68.292 Q1171.91 68.8659 1172.36 69.2553 Q1172.81 69.6447 1173.32 69.7881 Q1173.84 69.9521 1174.16 69.9931 Q1174.51 70.0546 1174.84 70.0546 Q1177.46 70.0546 1179.47 67.4107 Q1180.07 66.6115 1180.5 65.8122 Q1180.95 65.0334 1181.28 64.0701 Q1181.6 63.1274 1181.75 62.615 Q1181.91 62.1026 1182.2 60.9344 Q1180.29 62.8404 1177.96 62.8404 Q1176.97 62.8404 1176.09 62.574 Q1175.23 62.3076 1174.47 61.7542 Q1173.71 61.1804 1173.26 60.1761 Q1172.83 59.1719 1172.83 57.8397 Q1172.83 56.4256 1173.39 54.4991 Q1173.94 52.5726 1175.27 49.0271 Q1175.99 47.0391 1175.99 46.0758 Q1175.99 45.6044 1175.89 45.3175 Q1175.78 45.0101 1175.58 44.9076 Q1175.37 44.7847 1175.25 44.7642 Q1175.15 44.7437 1174.94 44.7437 Q1173.73 44.7437 1172.61 45.9734 Q1171.48 47.203 1170.7 49.9493 Q1170.54 50.4617 1170.43 50.5846 Q1170.33 50.7076 1170.02 50.7076 Q1169.51 50.6871 1169.51 50.2772 Q1169.51 50.1133 1169.7 49.4779 Q1169.88 48.8221 1170.31 47.8589 Q1170.76 46.8751 1171.38 45.9938 Q1171.99 45.0921 1172.96 44.4567 Q1173.94 43.8214 1175.07 43.8214 Q1176.6 43.8214 1177.55 44.8257 Q1178.51 45.8094 1178.51 47.2645 Q1178.51 47.8589 1178.35 48.3917 Q1178.2 48.9041 1177.67 50.2772 Q1175.52 55.8108 1175.52 58.5161 Q1175.52 59.1719 1175.62 59.7253 Q1175.74 60.2581 1176.01 60.791 Q1176.28 61.3033 1176.81 61.6108 Q1177.36 61.8977 1178.12 61.8977 Q1179.08 61.8977 1179.99 61.4468 Q1180.91 60.9754 1181.48 60.3401 Q1182.08 59.7048 1182.42 59.1719 Q1182.79 58.6185 1182.87 58.3316 L1184.76 50.7896 L1185.6 47.4285 Q1185.99 45.6044 1186.17 45.1536 Q1186.42 44.7232 1186.85 44.4977 Q1187.28 44.2723 1187.65 44.2723 Q1188.16 44.2723 1188.51 44.5797 Q1188.88 44.8871 1188.88 45.42 Z" fill="#000000" fill-rule="nonzero" fill-opacity="1" /><path clip-path="url(#clip620)" d="M1210.93 27.3653 L1210.93 25.4915 L1215.65 25.4915 L1215.65 18.6112 Q1215.65 14.1609 1218.51 11.6137 Q1221.41 9.06655 1224.96 9.06655 Q1227.3 9.06655 1228.82 10.3255 Q1230.34 11.5845 1230.34 13.2826 Q1230.34 14.4244 1229.64 15.1857 Q1228.97 15.9176 1227.71 15.9176 Q1226.51 15.9176 1225.8 15.1564 Q1225.13 14.3952 1225.13 13.3411 Q1225.13 11.4088 1226.92 10.8232 Q1226.01 10.4133 1224.96 10.3841 Q1222.79 10.3841 1221.09 12.6092 Q1219.42 14.8343 1219.42 18.5526 L1219.42 25.4915 L1226.45 25.4915 L1226.45 27.3653 L1219.63 27.3653 L1219.63 46.6596 Q1219.63 48.387 1220.33 48.9433 Q1221.06 49.4995 1224.17 49.4995 L1225.42 49.4995 L1225.42 51.3441 Q1223.02 51.1684 1217.81 51.1684 Q1217.08 51.1684 1215.94 51.1977 Q1214.83 51.227 1213.3 51.2855 Q1211.81 51.3441 1210.99 51.3441 L1210.99 49.4995 Q1214.18 49.4995 1214.91 49.1189 Q1215.65 48.709 1215.65 46.7767 L1215.65 27.3653 L1210.93 27.3653 Z" fill="#000000" fill-rule="nonzero" fill-opacity="1" /><path clip-path="url(#clip620)" d="M1236.57 48.1235 Q1232.62 44.2002 1232.62 38.5203 Q1232.62 32.8111 1236.49 28.6536 Q1240.38 24.4668 1245.94 24.4668 Q1251.39 24.4668 1255.28 28.6243 Q1259.21 32.7525 1259.21 38.5203 Q1259.21 44.1709 1255.25 48.0942 Q1251.33 52.0175 1245.89 52.0175 Q1240.56 52.0175 1236.57 48.1235 M1237.6 38.0225 Q1237.6 43.8489 1239.12 46.4839 Q1241.46 50.495 1245.94 50.495 Q1248.17 50.495 1250.01 49.2946 Q1251.89 48.0942 1252.91 46.074 Q1254.23 43.439 1254.23 38.0225 Q1254.23 32.2548 1252.65 29.7076 Q1250.31 25.8136 1245.89 25.8136 Q1243.95 25.8136 1242.05 26.8383 Q1240.18 27.8338 1239.03 29.8247 Q1237.6 32.4597 1237.6 38.0225 Z" fill="#000000" fill-rule="nonzero" fill-opacity="1" /><path clip-path="url(#clip620)" d="M1261.12 51.3441 L1261.12 49.4995 Q1264.31 49.4995 1265.04 49.1189 Q1265.8 48.709 1265.8 46.7767 L1265.8 30.703 Q1265.8 28.4779 1265.01 27.9216 Q1264.25 27.3653 1261.12 27.3653 L1261.12 25.4915 L1269.46 24.8474 L1269.46 31.435 Q1270.31 28.8585 1272.1 26.8676 Q1273.91 24.8474 1276.84 24.8474 Q1278.77 24.8474 1280 25.9307 Q1281.26 27.014 1281.26 28.5072 Q1281.26 29.8247 1280.44 30.4981 Q1279.65 31.1422 1278.68 31.1422 Q1277.6 31.1422 1276.84 30.4688 Q1276.11 29.7661 1276.11 28.5657 Q1276.11 27.8338 1276.43 27.2775 Q1276.78 26.6919 1277.04 26.487 Q1277.31 26.282 1277.48 26.2235 Q1277.37 26.1649 1276.84 26.1649 Q1273.53 26.1649 1271.63 29.4734 Q1269.75 32.7525 1269.75 37.437 L1269.75 46.6596 Q1269.75 48.387 1270.46 48.9433 Q1271.19 49.4995 1274.32 49.4995 L1275.58 49.4995 L1275.58 51.3441 Q1273.18 51.1684 1267.97 51.1684 Q1267.24 51.1684 1266.09 51.1977 Q1264.95 51.227 1263.46 51.2855 Q1261.97 51.3441 1261.12 51.3441 Z" fill="#000000" fill-rule="nonzero" fill-opacity="1" /><path clip-path="url(#clip620)" d="M1333.8 28.3901 Q1333.74 28.6828 1333.63 29.2099 Q1333.51 29.7076 1332.98 31.2886 Q1332.46 32.8696 1331.75 34.4799 Q1331.08 36.0609 1329.76 38.286 Q1328.47 40.4819 1326.89 42.4728 Q1326.45 42.9998 1326.37 43.3219 Q1326.31 43.6147 1326.31 44.5808 Q1326.31 50.6707 1328.15 50.6707 Q1328.24 50.6707 1328.39 50.6707 Q1328.56 50.6414 1329 50.495 Q1329.47 50.3193 1329.88 50.0558 Q1330.29 49.763 1330.76 49.1775 Q1331.23 48.5626 1331.52 47.7429 Q1331.78 47.1573 1332.31 47.1573 Q1333.01 47.1573 1333.01 47.7429 Q1333.01 48.7969 1331.55 50.4072 Q1330.08 52.0175 1327.98 52.0175 Q1325.96 52.0175 1324.52 50.6999 Q1323.12 49.3532 1322.53 46.9524 Q1316.21 52.0175 1309.88 52.0175 Q1305.43 52.0175 1302.8 49.1189 Q1300.16 46.1911 1300.16 41.858 Q1300.16 37.7005 1302.45 33.748 Q1304.76 29.7954 1308.51 27.3361 Q1312.28 24.8474 1316.29 24.8474 Q1317.7 24.8474 1319.05 25.228 Q1320.39 25.5794 1321.74 26.487 Q1323.09 27.3946 1324.08 28.7707 Q1325.08 30.1468 1325.69 32.3133 Q1326.31 34.4799 1326.31 37.2028 L1326.31 40.9211 Q1330.17 36.0316 1332.19 29.0342 Q1332.49 27.9802 1332.66 27.8631 Q1332.78 27.7752 1333.07 27.7752 Q1333.36 27.7752 1333.54 27.9509 Q1333.74 28.0973 1333.77 28.2437 L1333.8 28.3901 M1322.3 45.4006 Q1322.18 44.3759 1322.18 38.6959 Q1322.18 37.6127 1322.18 37.0271 Q1322.18 36.4123 1322.12 35.2411 Q1322.06 34.07 1321.95 33.3381 Q1321.86 32.6061 1321.65 31.5521 Q1321.45 30.4981 1321.16 29.8247 Q1320.86 29.1513 1320.39 28.3901 Q1319.95 27.6288 1319.37 27.1897 Q1318.81 26.7505 1317.99 26.4577 Q1317.2 26.1649 1316.24 26.1649 Q1315.04 26.1649 1313.78 26.6041 Q1312.55 27.014 1310.97 28.3315 Q1309.39 29.6197 1308.07 31.6692 Q1306.69 33.8358 1305.64 37.8176 Q1304.61 41.7701 1304.61 44.1417 Q1304.61 47.128 1305.99 48.914 Q1307.37 50.6707 1310 50.6707 Q1316.29 50.6707 1322.3 45.4006 Z" fill="#000000" fill-rule="nonzero" fill-opacity="1" /><path clip-path="url(#clip620)" d="M1354.79 42.2386 Q1354.85 41.5066 1355.99 41.5066 L1392.73 41.5066 Q1394.46 41.5066 1394.49 42.18 Q1394.49 42.912 1392.85 42.8827 L1356.4 42.8827 Q1354.79 42.912 1354.79 42.2386 M1354.79 30.5274 Q1354.79 29.7954 1356.05 29.8247 L1392.68 29.8247 Q1394.46 29.8247 1394.49 30.5274 Q1394.49 31.2008 1392.97 31.2008 L1355.99 31.2008 Q1354.79 31.2008 1354.79 30.5274 Z" fill="#000000" fill-rule="nonzero" fill-opacity="1" /><path clip-path="url(#clip620)" d="M1417.62 32.4012 Q1417.62 22.9736 1422.43 17.2058 Q1427.23 11.4088 1433.4 11.4088 Q1437.01 11.4088 1439 13.2533 Q1441.02 15.0686 1441.02 17.8792 Q1441.02 19.431 1440.11 20.1044 Q1439.2 20.7778 1438.27 20.7778 Q1437.18 20.7778 1436.33 20.0458 Q1435.48 19.3139 1435.48 17.9964 Q1435.48 15.3028 1438.79 15.3028 Q1437.24 12.902 1433.52 12.902 Q1432.38 12.902 1431.21 13.2533 Q1430.04 13.5754 1428.52 14.6879 Q1426.99 15.8005 1425.82 17.5572 Q1424.65 19.3139 1423.83 22.6223 Q1423.01 25.9307 1423.01 30.2346 L1423.01 31.6692 Q1425.47 25.7258 1430.51 25.755 Q1435.54 25.755 1439.03 29.5905 Q1442.51 33.4259 1442.51 39.1058 Q1442.51 44.9322 1438.88 48.7969 Q1435.25 52.6616 1430.16 52.6616 Q1427.87 52.6616 1425.79 51.6954 Q1423.74 50.7585 1421.81 48.5919 Q1419.91 46.4253 1418.77 42.2679 Q1417.62 38.1104 1417.62 32.4012 M1423.13 37.7883 Q1423.13 43.6732 1424.21 46.4839 Q1424.39 46.9524 1424.77 47.5965 Q1425.18 48.2406 1425.85 49.0897 Q1426.55 49.9094 1427.7 50.4657 Q1428.84 50.9927 1430.16 50.9927 Q1434.17 50.9927 1436.1 47.0987 Q1437.12 44.9322 1437.12 39.0473 Q1437.12 33.0453 1436.04 30.8494 Q1434.2 27.1311 1430.45 27.1311 Q1427.93 27.1311 1426.17 28.8585 Q1424.45 30.5859 1423.77 32.8989 Q1423.13 35.2119 1423.13 37.7883 Z" fill="#000000" fill-rule="nonzero" fill-opacity="1" /><path clip-path="url(#clip620)" d="M1447.56 32.1669 Q1447.56 23.3542 1449.78 18.5526 Q1452.89 11.4088 1460.21 11.4088 Q1461.76 11.4088 1463.37 11.848 Q1465.01 12.2579 1467.06 13.8682 Q1469.14 15.4784 1470.4 18.1135 Q1472.8 23.2079 1472.8 32.1669 Q1472.8 40.9211 1470.57 45.6934 Q1467.32 52.6616 1460.15 52.6616 Q1457.46 52.6616 1454.7 51.2855 Q1451.98 49.9094 1450.25 46.601 Q1447.56 41.653 1447.56 32.1669 M1452.54 31.435 Q1452.54 40.4819 1453.18 44.0831 Q1453.91 47.9771 1455.9 49.6752 Q1457.92 51.3441 1460.15 51.3441 Q1462.55 51.3441 1464.54 49.5581 Q1466.56 47.7429 1467.18 43.8489 Q1467.85 40.0135 1467.82 31.435 Q1467.82 23.0907 1467.23 19.753 Q1466.44 15.8591 1464.34 14.3073 Q1462.26 12.7263 1460.15 12.7263 Q1459.36 12.7263 1458.51 12.9605 Q1457.69 13.1948 1456.49 13.8682 Q1455.29 14.5415 1454.35 16.2104 Q1453.44 17.8792 1453.01 20.3972 Q1452.54 23.647 1452.54 31.435 Z" fill="#000000" fill-rule="nonzero" fill-opacity="1" /><path clip-path="url(#clip620)" d="M1477.25 17.0595 Q1477.25 14.3073 1479.19 12.3457 Q1481.15 10.3841 1483.9 10.3841 Q1486.71 10.3841 1488.61 12.375 Q1490.55 14.3366 1490.55 16.9716 Q1490.55 19.7238 1488.56 21.6854 Q1486.59 23.647 1483.9 23.647 Q1481.09 23.647 1479.16 21.6854 Q1477.25 19.6945 1477.25 17.0595 M1480.91 14.0145 Q1479.66 15.2442 1479.66 17.0595 Q1479.66 18.8454 1480.91 20.0458 Q1482.17 21.2462 1483.9 21.2462 Q1485.63 21.2462 1486.86 20.0458 Q1488.09 18.8454 1488.09 17.0595 Q1488.09 15.2442 1486.83 14.0145 Q1485.57 12.7849 1483.9 12.7849 Q1482.17 12.7849 1480.91 14.0145 Z" fill="#000000" fill-rule="nonzero" fill-opacity="1" /><path clip-path="url(#clip620)" d="M1553.63 11.4088 Q1553.63 11.9651 1553.52 12.4335 L1551.88 22.8565 Q1551.79 23.647 1551.61 23.9398 Q1551.47 24.2326 1551 24.2326 Q1550.27 24.2326 1550.27 23.4714 Q1550.27 23.0322 1550.44 22.3295 Q1550.94 19.0211 1550.94 17.5279 Q1550.94 16.5325 1550.73 15.8005 Q1550.56 15.0393 1550.27 14.5123 Q1550 13.9853 1549.39 13.6339 Q1548.77 13.2826 1548.19 13.0776 Q1547.6 12.8727 1546.55 12.7849 Q1545.49 12.6678 1544.59 12.6385 Q1543.68 12.6092 1542.19 12.6092 Q1538.94 12.6092 1538.41 12.7263 Q1537.85 12.8727 1537.56 13.3119 Q1537.3 13.7218 1537 14.9514 L1529.04 46.7767 L1528.81 48.0356 Q1528.81 48.7383 1529.24 48.9725 Q1529.68 49.2068 1531.03 49.3532 Q1532.96 49.4995 1534.87 49.4995 Q1534.92 49.4995 1535.04 49.4995 Q1535.69 49.4995 1535.95 49.5288 Q1536.21 49.5288 1536.48 49.5874 Q1536.74 49.6459 1536.8 49.7923 Q1536.89 49.9094 1536.89 50.1437 Q1536.89 50.6999 1536.65 50.9927 Q1536.42 51.2562 1536.18 51.3148 Q1535.98 51.3441 1535.57 51.3441 Q1534.75 51.3441 1532.99 51.2855 Q1531.24 51.227 1530.36 51.227 L1525.38 51.1684 L1520.29 51.227 Q1519.49 51.227 1517.83 51.2855 Q1516.16 51.3441 1515.37 51.3441 Q1514.34 51.3441 1514.34 50.6121 Q1514.34 49.7923 1514.72 49.6459 Q1515.13 49.4995 1516.86 49.4995 Q1519.29 49.4995 1520.61 49.3824 Q1521.93 49.2653 1522.63 48.8554 Q1523.36 48.4455 1523.56 48.0356 Q1523.77 47.5965 1524 46.601 L1532.06 14.6001 Q1532.29 13.8974 1532.29 13.3411 Q1532.29 13.0484 1532.2 12.9313 Q1532.14 12.8141 1531.76 12.7263 Q1531.38 12.6092 1530.59 12.6092 L1528.25 12.6092 Q1525.85 12.6092 1524.36 12.7263 Q1522.89 12.8141 1521.49 13.2533 Q1520.11 13.6925 1519.29 14.3073 Q1518.5 14.9222 1517.62 16.1811 Q1516.74 17.4401 1516.1 18.9625 Q1515.48 20.485 1514.61 22.9736 Q1514.31 23.7934 1514.14 24.0276 Q1513.99 24.2326 1513.58 24.2326 Q1513.29 24.2326 1513.05 24.0569 Q1512.85 23.852 1512.85 23.5885 Q1513.14 22.6223 1513.2 22.5052 L1516.8 11.9358 Q1517.09 11.0867 1517.36 10.9403 Q1517.65 10.7647 1518.73 10.7647 L1551.99 10.7647 Q1552.52 10.7647 1552.7 10.7647 Q1552.87 10.7647 1553.16 10.8232 Q1553.46 10.8818 1553.55 11.0282 Q1553.63 11.1746 1553.63 11.4088 Z" fill="#000000" fill-rule="nonzero" fill-opacity="1" /><path clip-path="url(#clip620)" d="M1559.64 67.9603 Q1559.64 67.202 1559.7 66.9766 Q1559.78 66.7511 1560.11 66.4027 L1568.17 57.4261 Q1572.57 52.4664 1572.57 48.142 Q1572.57 45.3342 1571.1 43.3258 Q1569.64 41.3173 1566.96 41.3173 Q1565.11 41.3173 1563.55 42.4445 Q1562 43.5717 1561.28 45.5802 Q1561.4 45.5392 1561.83 45.5392 Q1562.88 45.5392 1563.45 46.195 Q1564.05 46.8508 1564.05 47.7321 Q1564.05 48.8593 1563.31 49.4127 Q1562.59 49.9455 1561.87 49.9455 Q1561.59 49.9455 1561.2 49.884 Q1560.83 49.8226 1560.23 49.2487 Q1559.64 48.6544 1559.64 47.6091 Q1559.64 44.6784 1561.85 42.342 Q1564.09 40.0056 1567.49 40.0056 Q1571.34 40.0056 1573.86 42.301 Q1576.4 44.5759 1576.4 48.142 Q1576.4 49.3922 1576.01 50.5399 Q1575.65 51.6671 1575.13 52.5483 Q1574.64 53.4296 1573.29 54.8437 Q1571.94 56.2579 1570.85 57.2621 Q1569.76 58.2663 1567.32 60.3978 L1562.88 64.7222 L1570.44 64.7222 Q1574.13 64.7222 1574.42 64.3942 Q1574.83 63.7999 1575.34 60.6642 L1576.4 60.6642 L1575.22 67.9603 L1559.64 67.9603 Z" fill="#000000" fill-rule="nonzero" fill-opacity="1" /><path clip-path="url(#clip620)" d="M1599.28 42.2386 Q1599.34 41.5066 1600.48 41.5066 L1637.23 41.5066 Q1638.95 41.5066 1638.98 42.18 Q1638.98 42.912 1637.34 42.8827 L1600.89 42.8827 Q1599.28 42.912 1599.28 42.2386 M1599.28 30.5274 Q1599.28 29.7954 1600.54 29.8247 L1637.17 29.8247 Q1638.95 29.8247 1638.98 30.5274 Q1638.98 31.2008 1637.46 31.2008 L1600.48 31.2008 Q1599.28 31.2008 1599.28 30.5274 Z" fill="#000000" fill-rule="nonzero" fill-opacity="1" /><path clip-path="url(#clip620)" d="M1662.11 42.2971 Q1662.11 35.5925 1670.75 31.2593 Q1667.03 28.7414 1666.36 28.0095 Q1663.73 25.0816 1663.73 21.4219 Q1663.73 17.2351 1666.89 14.3366 Q1670.08 11.4088 1674.59 11.4088 Q1678.89 11.4088 1682.14 13.8974 Q1685.39 16.3861 1685.39 20.3386 Q1685.39 25.9014 1678.13 29.649 Q1682.93 32.6354 1684.07 33.8943 Q1687 37.1442 1687 41.2724 Q1687 46.074 1683.31 49.3824 Q1679.62 52.6616 1674.53 52.6616 Q1669.55 52.6616 1665.83 49.763 Q1662.11 46.8645 1662.11 42.2971 M1665.1 42.2971 Q1665.1 46.0155 1667.88 48.5041 Q1670.69 50.9927 1674.59 50.9927 Q1678.36 50.9927 1681.17 48.8261 Q1684.01 46.6596 1684.01 43.439 Q1684.01 42.18 1683.58 41.0967 Q1683.17 40.0135 1682.32 39.1644 Q1681.5 38.286 1680.97 37.9054 Q1680.47 37.4955 1679.51 36.8221 L1672.13 32.1669 Q1665.1 36.0609 1665.1 42.2971 M1666.36 19.0796 Q1666.36 21.9489 1669.38 23.9398 L1676.81 28.7414 Q1682.76 25.2573 1682.76 20.3386 Q1682.76 17.1473 1680.33 15.0393 Q1677.9 12.902 1674.53 12.902 Q1671.22 12.902 1668.79 14.6587 Q1666.36 16.3861 1666.36 19.0796 Z" fill="#000000" fill-rule="nonzero" fill-opacity="1" /><path clip-path="url(#clip620)" d="M1691.81 32.1669 Q1691.81 23.3542 1694.04 18.5526 Q1697.14 11.4088 1704.46 11.4088 Q1706.01 11.4088 1707.62 11.848 Q1709.26 12.2579 1711.31 13.8682 Q1713.39 15.4784 1714.65 18.1135 Q1717.05 23.2079 1717.05 32.1669 Q1717.05 40.9211 1714.82 45.6934 Q1711.57 52.6616 1704.4 52.6616 Q1701.71 52.6616 1698.95 51.2855 Q1696.23 49.9094 1694.5 46.601 Q1691.81 41.653 1691.81 32.1669 M1696.79 31.435 Q1696.79 40.4819 1697.43 44.0831 Q1698.16 47.9771 1700.15 49.6752 Q1702.17 51.3441 1704.4 51.3441 Q1706.8 51.3441 1708.79 49.5581 Q1710.81 47.7429 1711.43 43.8489 Q1712.1 40.0135 1712.07 31.435 Q1712.07 23.0907 1711.49 19.753 Q1710.69 15.8591 1708.59 14.3073 Q1706.51 12.7263 1704.4 12.7263 Q1703.61 12.7263 1702.76 12.9605 Q1701.94 13.1948 1700.74 13.8682 Q1699.54 14.5415 1698.6 16.2104 Q1697.7 17.8792 1697.26 20.3972 Q1696.79 23.647 1696.79 31.435 Z" fill="#000000" fill-rule="nonzero" fill-opacity="1" /><path clip-path="url(#clip620)" d="M1737.35 51.3441 L1737.35 49.4995 Q1740.54 49.4995 1741.27 49.1189 Q1742.01 48.709 1742.01 46.7767 L1742.01 30.703 Q1742.01 28.4779 1741.22 27.9216 Q1740.45 27.3653 1737.35 27.3653 L1737.35 25.4915 L1745.78 24.8474 L1745.78 31.1422 Q1748.59 24.8474 1754.65 24.8474 Q1761.68 24.8474 1762.65 30.703 Q1763.67 28.4193 1765.81 26.6334 Q1767.98 24.8474 1771.34 24.8474 Q1775.85 24.8474 1777.64 27.0726 Q1778.96 28.5657 1779.22 30.2346 Q1779.48 31.9034 1779.48 36.2366 L1779.48 47.6843 Q1779.54 48.9433 1780.51 49.236 Q1781.47 49.4995 1784.17 49.4995 L1784.17 51.3441 Q1778.05 51.1684 1777.46 51.1684 Q1776.99 51.1684 1770.67 51.3441 L1770.67 49.4995 Q1773.86 49.4995 1774.59 49.1189 Q1775.35 48.709 1775.35 46.7767 L1775.35 32.8111 Q1775.35 29.7661 1774.42 27.9802 Q1773.48 26.1649 1770.9 26.1649 Q1767.8 26.1649 1765.31 28.7707 Q1762.82 31.3764 1762.82 35.7681 L1762.82 46.7767 Q1762.82 48.709 1763.56 49.1189 Q1764.32 49.4995 1767.51 49.4995 L1767.51 51.3441 Q1761.39 51.1684 1760.77 51.1684 Q1760.31 51.1684 1754.01 51.3441 L1754.01 49.4995 Q1757.2 49.4995 1757.93 49.1189 Q1758.69 48.709 1758.69 46.7767 L1758.69 32.8111 Q1758.69 29.7661 1757.76 27.9802 Q1756.82 26.1649 1754.24 26.1649 Q1751.14 26.1649 1748.65 28.7707 Q1746.16 31.3764 1746.16 35.7681 L1746.16 46.7767 Q1746.16 48.709 1746.9 49.1189 Q1747.66 49.4995 1750.82 49.4995 L1750.82 51.3441 Q1744.7 51.1684 1744.11 51.1684 Q1743.65 51.1684 1737.35 51.3441 Z" fill="#000000" fill-rule="nonzero" fill-opacity="1" /><path clip-path="url(#clip620)" d="M1787.76 50.5536 L1787.76 42.6485 Q1787.76 41.9751 1787.78 41.7409 Q1787.81 41.5066 1787.99 41.331 Q1788.16 41.1553 1788.52 41.1553 Q1788.93 41.1553 1789.07 41.331 Q1789.25 41.5066 1789.37 42.18 Q1790.27 46.3082 1792.21 48.5041 Q1794.17 50.6707 1797.71 50.6707 Q1801.08 50.6707 1802.77 49.1775 Q1804.47 47.6843 1804.47 45.2249 Q1804.47 40.8332 1798.24 39.7207 Q1794.64 38.9887 1793.14 38.5203 Q1791.65 38.0225 1790.33 36.9393 Q1787.76 34.8312 1787.76 31.8449 Q1787.76 28.8585 1790.01 26.6627 Q1792.29 24.4668 1797.33 24.4668 Q1800.7 24.4668 1802.98 26.1649 Q1803.65 25.6379 1804 25.1988 Q1804.79 24.4668 1805.2 24.4668 Q1805.67 24.4668 1805.76 24.7889 Q1805.85 25.0816 1805.85 25.9307 L1805.85 31.962 Q1805.85 32.6354 1805.82 32.8696 Q1805.79 33.1038 1805.61 33.2795 Q1805.44 33.4259 1805.06 33.4259 Q1804.38 33.4259 1804.36 32.8696 Q1803.89 25.6087 1797.33 25.6087 Q1793.79 25.6087 1792.21 26.9847 Q1790.62 28.3315 1790.62 30.176 Q1790.62 31.2008 1791.09 31.9913 Q1791.59 32.7525 1792.21 33.2209 Q1792.85 33.6601 1794.02 34.0993 Q1795.19 34.5092 1795.89 34.6556 Q1796.63 34.802 1798 35.0947 Q1802.8 36.0024 1804.82 37.964 Q1807.34 40.4819 1807.34 43.6732 Q1807.34 47.2159 1804.94 49.6167 Q1802.54 52.0175 1797.71 52.0175 Q1793.82 52.0175 1791.09 49.4117 Q1790.74 49.763 1790.48 50.0851 Q1790.21 50.3779 1790.1 50.495 Q1790.01 50.6121 1789.98 50.6999 Q1789.95 50.7585 1789.89 50.8171 Q1788.69 52.0175 1788.4 52.0175 Q1787.93 52.0175 1787.84 51.6954 Q1787.76 51.4026 1787.76 50.5536 Z" fill="#000000" fill-rule="nonzero" fill-opacity="1" /><polyline clip-path="url(#clip621)" style="stroke:#009af9; stroke-linecap:round; stroke-linejoin:round; stroke-width:6; stroke-opacity:1; fill:none" points="269.283,1198.84 279.7,1199.18 290.118,1200.18 300.535,1201.73 310.952,1203.63 321.37,1201.74 331.787,1199.93 342.204,1198.59 352.622,1197.91 363.039,1198.04 373.456,1198.98 383.874,1200.66 394.291,1202.85 404.709,1202.09 415.126,1199.77 425.543,1197.9 435.961,1196.77 446.378,1196.58 456.795,1197.41 467.213,1199.2 477.63,1201.74 488.047,1202.66 498.465,1199.68 508.882,1197.1 519.3,1195.33 529.717,1194.67 540.134,1195.28 550.552,1197.16 560.969,1200.11 571.386,1203.58 581.804,1199.68 592.221,1196.1 602.639,1193.37 613.056,1191.96 623.473,1192.14 633.891,1194.02 644.308,1197.43 654.725,1201.99 665.143,1200.25 675.56,1195.28 685.977,1191.2 696.395,1188.71 706.812,1188.31 717.23,1190.25 727.647,1194.48 738.064,1200.6 748.482,1199.47 758.899,1191.92 769.316,1185.2 779.734,1180.35 790.151,1178.27 800.568,1179.54 810.986,1184.3 821.403,1192.23 831.821,1202.48 842.238,1193.59 852.655,1182.89 863.073,1174.54 873.49,1170.21 883.907,1171.28 894.325,1178.55 904.742,1192.1 915.159,1196.24 925.577,1173.47 935.994,1149.55 946.412,1127.78 956.829,1111.88 967.246,1105.73 977.664,1112.94 988.081,1136.56 998.498,1178.71 1008.92,1167.1 1019.33,1086.91 1029.75,990.625 1040.17,882.651 1050.59,768.907 1061,656.146 1071.42,550.99 1081.84,458.906 1092.25,383.419 1102.67,325.812 1113.09,285.404 1123.51,260.258 1133.92,247.991 1144.34,246.338 1154.76,253.258 1165.18,266.716 1175.59,284.394 1186.01,303.604 1196.43,321.472 1206.85,335.343 1217.26,343.234 1227.68,344.174 1238.1,338.345 1248.52,326.986 1258.93,312.103 1269.35,296.048 1279.77,281.109 1290.18,269.179 1300.6,261.597 1311.02,259.125 1321.44,261.995 1331.85,269.936 1342.27,282.146 1352.69,297.24 1363.11,313.289 1373.52,327.988 1383.94,338.994 1394.36,344.348 1404.78,342.878 1415.19,334.491 1425.61,320.24 1436.03,302.174 1446.45,282.98 1456.86,265.529 1467.28,252.486 1477.7,246.14 1488.11,248.517 1498.53,261.667 1508.95,287.877 1519.37,329.518 1529.78,388.463 1540.2,465.267 1550.62,558.482 1561.04,664.417 1571.45,777.489 1581.87,891.03 1592.29,998.317 1602.71,1093.52 1613.12,1172.38 1623.54,1174.88 1633.96,1134.17 1644.38,1111.86 1654.79,1105.77 1665.21,1112.79 1675.63,1129.25 1686.04,1151.32 1696.46,1175.25 1706.88,1197.82 1717.3,1190.88 1727.71,1177.79 1738.13,1170.99 1748.55,1170.36 1758.97,1175.04 1769.38,1183.63 1779.8,1194.44 1790.22,1201.66 1800.64,1191.54 1811.05,1183.83 1821.47,1179.32 1831.89,1178.32 1842.3,1180.63 1852.72,1185.65 1863.14,1192.47 1873.56,1200.03 1883.97,1200.09 1894.39,1194.09 1904.81,1190.03 1915.23,1188.26 1925.64,1188.83 1936.06,1191.46 1946.48,1195.63 1956.9,1200.64 1967.31,1201.62 1977.73,1197.13 1988.15,1193.82 1998.57,1192.07 2008.98,1192.01 2019.4,1193.54 2029.82,1196.34 2040.23,1199.97 2050.65,1203.49 2061.07,1199.86 2071.49,1196.98 2081.9,1195.19 2092.32,1194.68 2102.74,1195.43 2113.16,1197.27 2123.57,1199.89 2133.99,1202.89 2144.41,1201.53 2154.83,1199.04 2165.24,1197.32 2175.66,1196.56 2186.08,1196.83 2196.5,1198.02 2206.91,1199.94 2217.33,1202.27 2227.75,1202.67 2238.16,1200.51 2248.58,1198.89 2259,1198 2269.42,1197.94 2279.83,1198.67 2290.25,1200.06 2300.67,1201.89 2311.09,1203.48 2321.5,1201.6 2331.92,1200.09 2342.34,1199.13 2352.76,1198.85 "/>
<polyline clip-path="url(#clip621)" style="stroke:#e26f46; stroke-linecap:round; stroke-linejoin:round; stroke-width:6; stroke-opacity:1; fill:none" points="269.283,1190.04 279.7,1190.18 290.118,1192.17 300.535,1195.76 310.952,1200.44 321.37,1201.79 331.787,1196.92 342.204,1192.98 352.622,1190.51 363.039,1189.86 373.456,1191.11 383.874,1194.1 394.291,1198.41 404.709,1203.44 415.126,1198.86 425.543,1194.46 435.961,1191.33 446.378,1189.92 456.795,1190.4 467.213,1192.73 477.63,1196.57 488.047,1201.39 498.465,1200.83 508.882,1196.09 519.3,1192.4 529.717,1190.29 540.134,1190.04 550.552,1191.7 560.969,1195.04 571.386,1199.6 581.804,1202.62 592.221,1197.6 602.639,1193.41 613.056,1190.64 623.473,1189.66 633.891,1190.62 644.308,1193.38 654.725,1197.56 665.143,1202.55 675.56,1199.72 685.977,1195.27 696.395,1192.1 706.812,1190.7 717.23,1191.3 727.647,1193.83 738.064,1197.98 748.482,1203.17 758.899,1198.7 769.316,1193.68 779.734,1189.87 790.151,1187.84 800.568,1187.87 810.986,1189.98 821.403,1193.8 831.821,1198.72 842.238,1203.48 852.655,1199.02 863.073,1196.18 873.49,1195.67 883.907,1197.87 894.325,1202.75 904.742,1197.62 915.159,1189.58 925.577,1182.06 935.994,1176.96 946.412,1176.43 956.829,1182.63 967.246,1197.57 977.664,1184.47 988.081,1147.71 998.498,1099.16 1008.92,1039.32 1019.33,969.596 1029.75,892.261 1040.17,810.28 1050.59,727.046 1061,646.022 1071.42,570.353 1081.84,502.54 1092.25,444.228 1102.67,396.151 1113.09,358.219 1123.51,329.72 1133.92,309.546 1144.34,296.4 1154.76,288.933 1165.18,285.818 1175.59,285.785 1186.01,287.643 1196.43,290.316 1206.85,292.901 1217.26,294.713 1227.68,295.335 1238.1,294.628 1248.52,292.71 1258.93,289.903 1269.35,286.661 1279.77,283.485 1290.18,280.845 1300.6,279.119 1311.02,278.548 1321.44,279.21 1331.85,281.015 1342.27,283.71 1352.69,286.908 1363.11,290.135 1373.52,292.889 1383.94,294.726 1394.36,295.334 1404.78,294.615 1415.19,292.727 1425.61,290.109 1436.03,287.462 1446.45,285.708 1456.86,285.93 1467.28,289.326 1477.7,297.172 1488.11,310.798 1498.53,331.553 1508.95,360.725 1519.37,399.399 1529.78,448.25 1540.2,507.311 1550.62,575.782 1561.04,651.949 1571.45,733.254 1581.87,816.515 1592.29,898.262 1602.71,975.122 1613.12,1044.17 1623.54,1103.2 1633.96,1150.88 1644.38,1186.76 1654.79,1196.11 1665.21,1181.89 1675.63,1176.26 1686.04,1177.21 1696.46,1182.56 1706.88,1190.19 1717.3,1198.19 1727.71,1202.3 1738.13,1197.61 1748.55,1195.61 1758.97,1196.32 1769.38,1199.31 1779.8,1203.5 1790.22,1198.33 1800.64,1193.47 1811.05,1189.75 1821.47,1187.8 1831.89,1187.92 1842.3,1190.1 1852.72,1194.02 1863.14,1199.1 1873.56,1202.76 1883.97,1197.63 1894.39,1193.58 1904.81,1191.18 1915.23,1190.74 1925.64,1192.28 1936.06,1195.56 1946.48,1200.09 1956.9,1202.16 1967.31,1197.21 1977.73,1193.12 1988.15,1190.48 1998.57,1189.67 2008.98,1190.79 2019.4,1193.69 2029.82,1197.96 2040.23,1203.01 2050.65,1199.23 2061.07,1194.74 2071.49,1191.52 2081.9,1190 2092.32,1190.39 2102.74,1192.63 2113.16,1196.42 2123.57,1201.21 2133.99,1201.01 2144.41,1196.24 2154.83,1192.5 2165.24,1190.3 2175.66,1189.96 2186.08,1191.51 2196.5,1194.75 2206.91,1199.22 2217.33,1203.05 2227.75,1198.05 2238.16,1193.82 2248.58,1190.95 2259,1189.84 2269.42,1190.63 2279.83,1193.23 2290.25,1197.26 2300.67,1202.17 2311.09,1200.07 2321.5,1195.45 2331.92,1191.97 2342.34,1190.1 2352.76,1190.11 "/>
<polyline clip-path="url(#clip621)" style="stroke:#3da44d; stroke-linecap:round; stroke-linejoin:round; stroke-width:6; stroke-opacity:1; fill:none" points="269.283,1202.82 279.7,1202.64 290.118,1202.61 300.535,1202.74 310.952,1203.01 321.37,1203.39 331.787,1203.53 342.204,1203.1 352.622,1202.75 363.039,1202.52 373.456,1202.46 383.874,1202.58 394.291,1202.88 404.709,1203.3 415.126,1203.56 425.543,1203.06 435.961,1202.64 446.378,1202.36 456.795,1202.27 467.213,1202.39 477.63,1202.72 488.047,1203.2 498.465,1203.58 508.882,1203 519.3,1202.49 529.717,1202.16 540.134,1202.05 550.552,1202.2 560.969,1202.59 571.386,1203.19 581.804,1203.46 592.221,1202.72 602.639,1202.08 613.056,1201.63 623.473,1201.46 633.891,1201.6 644.308,1202.05 654.725,1202.73 665.143,1203.56 675.56,1202.96 685.977,1202.27 696.395,1201.85 706.812,1201.82 717.23,1202.22 727.647,1203.04 738.064,1203.16 748.482,1201.8 758.899,1200.44 769.316,1199.28 779.734,1198.5 790.151,1198.26 800.568,1198.62 810.986,1199.52 821.403,1200.82 831.821,1202.26 842.238,1203.5 852.655,1203.18 863.073,1203.41 873.49,1202.57 883.907,1199.95 894.325,1196.25 904.742,1191.9 915.159,1187.62 925.577,1184.45 935.994,1183.66 946.412,1186.74 956.829,1195.24 967.246,1196.69 977.664,1172.97 988.081,1139.97 998.498,1097.14 1008.92,1044.52 1019.33,982.857 1029.75,913.602 1040.17,838.869 1050.59,761.292 1061,683.786 1071.42,609.256 1081.84,540.289 1092.25,478.9 1102.67,426.371 1113.09,383.216 1123.51,349.269 1133.92,323.845 1144.34,305.93 1154.76,294.342 1165.18,287.847 1175.59,285.218 1186.01,285.273 1196.43,286.909 1206.85,289.147 1217.26,291.188 1227.68,292.466 1238.1,292.68 1248.52,291.793 1258.93,290.001 1269.35,287.66 1279.77,285.213 1290.18,283.099 1300.6,281.687 1311.02,281.215 1321.44,281.762 1331.85,283.237 1342.27,285.39 1352.69,287.845 1363.11,290.159 1373.52,291.895 1383.94,292.703 1394.36,292.405 1404.78,291.056 1415.19,288.978 1425.61,286.754 1436.03,285.201 1446.45,285.307 1456.86,288.185 1467.28,295.019 1477.7,307.039 1488.11,325.478 1498.53,351.509 1508.95,386.128 1519.37,429.988 1529.78,483.209 1540.2,545.22 1550.62,614.682 1561.04,689.531 1571.45,767.145 1581.87,844.608 1592.29,919.016 1602.71,987.767 1613.12,1048.79 1623.54,1100.69 1633.96,1142.78 1644.38,1175.06 1654.79,1198.12 1665.21,1194.38 1675.63,1186.34 1686.04,1183.61 1696.46,1184.62 1706.88,1187.92 1717.3,1192.23 1727.71,1196.56 1738.13,1200.19 1748.55,1202.71 1758.97,1203.36 1769.38,1203.21 1779.8,1203.43 1790.22,1202.16 1800.64,1200.72 1811.05,1199.44 1821.47,1198.57 1831.89,1198.26 1842.3,1198.54 1852.72,1199.35 1863.14,1200.54 1873.56,1201.91 1883.97,1203.26 1894.39,1202.97 1904.81,1202.18 1915.23,1201.81 1925.64,1201.87 1936.06,1202.31 1946.48,1203.02 1956.9,1203.5 1967.31,1202.68 1977.73,1202 1988.15,1201.58 1998.57,1201.46 2008.98,1201.65 2019.4,1202.12 2029.82,1202.77 2040.23,1203.51 2050.65,1203.14 2061.07,1202.55 2071.49,1202.18 2081.9,1202.05 2092.32,1202.18 2102.74,1202.53 2113.16,1203.04 2123.57,1203.63 2133.99,1203.16 2144.41,1202.68 2154.83,1202.37 2165.24,1202.27 2175.66,1202.37 2186.08,1202.67 2196.5,1203.1 2206.91,1203.6 2217.33,1203.27 2227.75,1202.85 2238.16,1202.57 2248.58,1202.46 2259,1202.53 2269.42,1202.77 2279.83,1203.13 2290.25,1203.57 2300.67,1203.36 2311.09,1202.98 2321.5,1202.72 2331.92,1202.6 2342.34,1202.65 2352.76,1202.84 "/>
<polyline clip-path="url(#clip621)" style="stroke:#009af9; stroke-linecap:round; stroke-linejoin:round; stroke-width:6; stroke-opacity:1; fill:none" points="269.283,1202.93 279.7,1202.99 290.118,1203.16 300.535,1203.4 310.952,1203.69 321.37,1203.98 331.787,1204.24 342.204,1204.43 352.622,1204.51 363.039,1204.47 373.456,1204.33 383.874,1204.08 394.291,1203.78 404.709,1203.45 415.126,1203.15 425.543,1202.91 435.961,1202.79 446.378,1202.78 456.795,1202.91 467.213,1203.15 477.63,1203.47 488.047,1203.83 498.465,1204.18 508.882,1204.47 519.3,1204.65 529.717,1204.7 540.134,1204.6 550.552,1204.37 560.969,1204.04 571.386,1203.64 581.804,1203.24 592.221,1202.88 602.639,1202.64 613.056,1202.53 623.473,1202.58 633.891,1202.8 644.308,1203.14 654.725,1203.57 665.143,1204.03 675.56,1204.44 685.977,1204.76 696.395,1204.92 706.812,1204.9 717.23,1204.7 727.647,1204.33 738.064,1203.85 748.482,1203.32 758.899,1202.81 769.316,1202.41 779.734,1202.16 790.151,1202.11 800.568,1202.28 810.986,1202.64 821.403,1203.14 831.821,1203.71 842.238,1204.27 852.655,1204.72 863.073,1204.99 873.49,1205.04 883.907,1204.85 894.325,1204.45 904.742,1203.9 915.159,1203.3 925.577,1202.78 935.994,1202.44 946.412,1202.36 956.829,1202.57 967.246,1203.02 977.664,1203.63 988.081,1204.19 998.498,1204.35 1008.92,1203.55 1019.33,1201.01 1029.75,1195.87 1040.17,1187.58 1050.59,1176.2 1061,1162.83 1071.42,1149.5 1081.84,1138.84 1092.25,1133.35 1102.67,1134.59 1113.09,1142.65 1123.51,1156.12 1133.92,1172.51 1144.34,1189 1154.76,1203.21 1165.18,1213.68 1175.59,1219.95 1186.01,1222.43 1196.43,1221.94 1206.85,1219.47 1217.26,1215.93 1227.68,1212.05 1238.1,1208.5 1248.52,1205.87 1258.93,1204.77 1269.35,1205.71 1279.77,1209.02 1290.18,1214.69 1300.6,1222.22 1311.02,1230.71 1321.44,1239 1331.85,1245.96 1342.27,1250.76 1352.69,1253.04 1363.11,1252.9 1373.52,1250.83 1383.94,1247.5 1394.36,1243.6 1404.78,1239.82 1415.19,1236.8 1425.61,1235.26 1436.03,1235.98 1446.45,1239.79 1456.86,1247.36 1467.28,1258.86 1477.7,1273.63 1488.11,1290.02 1498.53,1305.48 1508.95,1317.07 1519.37,1322.26 1529.78,1319.62 1540.2,1309.35 1550.62,1293.18 1561.04,1273.83 1571.45,1254.22 1581.87,1236.68 1592.29,1222.59 1602.71,1212.31 1613.12,1205.47 1623.54,1201.37 1633.96,1199.28 1644.38,1198.6 1654.79,1198.85 1665.21,1199.68 1675.63,1200.8 1686.04,1201.94 1696.46,1202.94 1706.88,1203.68 1717.3,1204.14 1727.71,1204.34 1738.13,1204.34 1748.55,1204.2 1758.97,1204 1769.38,1203.81 1779.8,1203.66 1790.22,1203.58 1800.64,1203.58 1811.05,1203.64 1821.47,1203.73 1831.89,1203.82 1842.3,1203.89 1852.72,1203.91 1863.14,1203.88 1873.56,1203.8 1883.97,1203.68 1894.39,1203.54 1904.81,1203.42 1915.23,1203.33 1925.64,1203.29 1936.06,1203.32 1946.48,1203.4 1956.9,1203.54 1967.31,1203.71 1977.73,1203.88 1988.15,1204.03 1998.57,1204.14 2008.98,1204.17 2019.4,1204.14 2029.82,1204.04 2040.23,1203.89 2050.65,1203.7 2061.07,1203.51 2071.49,1203.35 2081.9,1203.23 2092.32,1203.17 2102.74,1203.19 2113.16,1203.28 2123.57,1203.42 2133.99,1203.61 2144.41,1203.8 2154.83,1203.98 2165.24,1204.11 2175.66,1204.19 2186.08,1204.19 2196.5,1204.12 2206.91,1203.99 2217.33,1203.81 2227.75,1203.62 2238.16,1203.44 2248.58,1203.29 2259,1203.2 2269.42,1203.18 2279.83,1203.23 2290.25,1203.34 2300.67,1203.5 2311.09,1203.68 2321.5,1203.87 2331.92,1204.02 2342.34,1204.12 2352.76,1204.17 "/>
<polyline clip-path="url(#clip621)" style="stroke:#e26f46; stroke-linecap:round; stroke-linejoin:round; stroke-width:6; stroke-opacity:1; fill:none" points="269.283,1203.54 279.7,1203.56 290.118,1203.59 300.535,1203.64 310.952,1203.69 321.37,1203.74 331.787,1203.78 342.204,1203.8 352.622,1203.8 363.039,1203.79 373.456,1203.76 383.874,1203.72 394.291,1203.68 404.709,1203.64 415.126,1203.61 425.543,1203.59 435.961,1203.58 446.378,1203.6 456.795,1203.62 467.213,1203.65 477.63,1203.68 488.047,1203.71 498.465,1203.74 508.882,1203.75 519.3,1203.75 529.717,1203.74 540.134,1203.72 550.552,1203.69 560.969,1203.67 571.386,1203.65 581.804,1203.64 592.221,1203.64 602.639,1203.65 613.056,1203.66 623.473,1203.68 633.891,1203.71 644.308,1203.72 654.725,1203.73 665.143,1203.73 675.56,1203.71 685.977,1203.69 696.395,1203.65 706.812,1203.63 717.23,1203.6 727.647,1203.59 738.064,1203.6 748.482,1203.63 758.899,1203.68 769.316,1203.73 779.734,1203.79 790.151,1203.84 800.568,1203.88 810.986,1203.88 821.403,1203.85 831.821,1203.8 842.238,1203.72 852.655,1203.63 863.073,1203.56 873.49,1203.51 883.907,1203.53 894.325,1203.61 904.742,1203.77 915.159,1203.99 925.577,1204.25 935.994,1204.49 946.412,1204.62 956.829,1204.53 967.246,1204.08 977.664,1203.08 988.081,1201.29 998.498,1198.44 1008.92,1194.24 1019.33,1188.41 1029.75,1180.88 1040.17,1171.79 1050.59,1161.63 1061,1151.21 1071.42,1141.61 1081.84,1133.92 1092.25,1129.07 1102.67,1127.6 1113.09,1129.59 1123.51,1134.64 1133.92,1141.96 1144.34,1150.62 1154.76,1159.68 1165.18,1168.38 1175.59,1176.18 1186.01,1182.82 1196.43,1188.27 1206.85,1192.66 1217.26,1196.24 1227.68,1199.29 1238.1,1202.12 1248.52,1204.99 1258.93,1208.13 1269.35,1211.68 1279.77,1215.71 1290.18,1220.19 1300.6,1225.03 1311.02,1230.02 1321.44,1234.98 1331.85,1239.68 1342.27,1243.98 1352.69,1247.79 1363.11,1251.12 1373.52,1254.07 1383.94,1256.82 1394.36,1259.62 1404.78,1262.74 1415.19,1266.47 1425.61,1271.07 1436.03,1276.74 1446.45,1283.55 1456.86,1291.38 1467.28,1299.9 1477.7,1308.48 1488.11,1316.25 1498.53,1322.22 1508.95,1325.37 1519.37,1324.91 1529.78,1320.42 1540.2,1312.01 1550.62,1300.3 1561.04,1286.35 1571.45,1271.37 1581.87,1256.61 1592.29,1243.04 1602.71,1231.32 1613.12,1221.75 1623.54,1214.33 1633.96,1208.88 1644.38,1205.14 1654.79,1202.81 1665.21,1201.58 1675.63,1201.2 1686.04,1201.39 1696.46,1201.94 1706.88,1202.63 1717.3,1203.3 1727.71,1203.84 1738.13,1204.18 1748.55,1204.3 1758.97,1204.22 1769.38,1203.97 1779.8,1203.63 1790.22,1203.26 1800.64,1202.93 1811.05,1202.7 1821.47,1202.59 1831.89,1202.63 1842.3,1202.81 1852.72,1203.09 1863.14,1203.43 1873.56,1203.79 1883.97,1204.1 1894.39,1204.34 1904.81,1204.47 1915.23,1204.47 1925.64,1204.35 1936.06,1204.13 1946.48,1203.85 1956.9,1203.55 1967.31,1203.27 1977.73,1203.04 1988.15,1202.91 1998.57,1202.89 2008.98,1202.97 2019.4,1203.15 2029.82,1203.4 2040.23,1203.69 2050.65,1203.97 2061.07,1204.2 2071.49,1204.36 2081.9,1204.42 2092.32,1204.38 2102.74,1204.24 2113.16,1204.03 2123.57,1203.77 2133.99,1203.5 2144.41,1203.26 2154.83,1203.09 2165.24,1202.99 2175.66,1202.99 2186.08,1203.09 2196.5,1203.27 2206.91,1203.5 2217.33,1203.76 2227.75,1204 2238.16,1204.19 2248.58,1204.32 2259,1204.35 2269.42,1204.3 2279.83,1204.16 2290.25,1203.95 2300.67,1203.71 2311.09,1203.47 2321.5,1203.26 2331.92,1203.11 2342.34,1203.04 2352.76,1203.06 "/>
<polyline clip-path="url(#clip621)" style="stroke:#3da44d; stroke-linecap:round; stroke-linejoin:round; stroke-width:6; stroke-opacity:1; fill:none" points="269.283,1203.67 279.7,1203.67 290.118,1203.67 300.535,1203.67 310.952,1203.68 321.37,1203.68 331.787,1203.69 342.204,1203.69 352.622,1203.69 363.039,1203.69 373.456,1203.69 383.874,1203.69 394.291,1203.69 404.709,1203.68 415.126,1203.68 425.543,1203.67 435.961,1203.67 446.378,1203.67 456.795,1203.67 467.213,1203.68 477.63,1203.68 488.047,1203.68 498.465,1203.69 508.882,1203.69 519.3,1203.69 529.717,1203.69 540.134,1203.69 550.552,1203.68 560.969,1203.68 571.386,1203.68 581.804,1203.68 592.221,1203.67 602.639,1203.67 613.056,1203.68 623.473,1203.68 633.891,1203.68 644.308,1203.69 654.725,1203.69 665.143,1203.69 675.56,1203.69 685.977,1203.68 696.395,1203.68 706.812,1203.67 717.23,1203.67 727.647,1203.67 738.064,1203.67 748.482,1203.68 758.899,1203.69 769.316,1203.71 779.734,1203.72 790.151,1203.73 800.568,1203.74 810.986,1203.74 821.403,1203.73 831.821,1203.71 842.238,1203.69 852.655,1203.68 863.073,1203.67 873.49,1203.68 883.907,1203.73 894.325,1203.81 904.742,1203.92 915.159,1204.05 925.577,1204.18 935.994,1204.27 946.412,1204.26 956.829,1204.06 967.246,1203.57 977.664,1202.63 988.081,1201.06 998.498,1198.64 1008.92,1195.12 1019.33,1190.27 1029.75,1183.94 1040.17,1176.15 1050.59,1167.18 1061,1157.58 1071.42,1148.15 1081.84,1139.86 1092.25,1133.65 1102.67,1130.25 1113.09,1130.04 1123.51,1132.98 1133.92,1138.59 1144.34,1146.14 1154.76,1154.74 1165.18,1163.56 1175.59,1171.92 1186.01,1179.39 1196.43,1185.77 1206.85,1191.07 1217.26,1195.44 1227.68,1199.13 1238.1,1202.42 1248.52,1205.58 1258.93,1208.86 1269.35,1212.41 1279.77,1216.33 1290.18,1220.62 1300.6,1225.21 1311.02,1229.94 1321.44,1234.63 1331.85,1239.12 1342.27,1243.26 1352.69,1247.01 1363.11,1250.4 1373.52,1253.55 1383.94,1256.67 1394.36,1259.99 1404.78,1263.79 1415.19,1268.33 1425.61,1273.81 1436.03,1280.35 1446.45,1287.86 1456.86,1296.08 1467.28,1304.49 1477.7,1312.32 1488.11,1318.66 1498.53,1322.59 1508.95,1323.32 1519.37,1320.38 1529.78,1313.76 1540.2,1303.88 1550.62,1291.59 1561.04,1277.93 1571.45,1264.01 1581.87,1250.77 1592.29,1238.92 1602.71,1228.84 1613.12,1220.66 1623.54,1214.31 1633.96,1209.59 1644.38,1206.26 1654.79,1204.06 1665.21,1202.75 1675.63,1202.12 1686.04,1201.96 1696.46,1202.11 1706.88,1202.43 1717.3,1202.81 1727.71,1203.16 1738.13,1203.44 1748.55,1203.63 1758.97,1203.71 1769.38,1203.71 1779.8,1203.66 1790.22,1203.56 1800.64,1203.47 1811.05,1203.38 1821.47,1203.33 1831.89,1203.32 1842.3,1203.35 1852.72,1203.41 1863.14,1203.49 1873.56,1203.58 1883.97,1203.67 1894.39,1203.73 1904.81,1203.78 1915.23,1203.8 1925.64,1203.79 1936.06,1203.76 1946.48,1203.71 1956.9,1203.66 1967.31,1203.62 1977.73,1203.58 1988.15,1203.56 1998.57,1203.56 2008.98,1203.57 2019.4,1203.6 2029.82,1203.64 2040.23,1203.68 2050.65,1203.72 2061.07,1203.75 2071.49,1203.76 2081.9,1203.77 2092.32,1203.76 2102.74,1203.74 2113.16,1203.71 2123.57,1203.68 2133.99,1203.65 2144.41,1203.63 2154.83,1203.61 2165.24,1203.61 2175.66,1203.62 2186.08,1203.63 2196.5,1203.66 2206.91,1203.68 2217.33,1203.71 2227.75,1203.73 2238.16,1203.74 2248.58,1203.74 2259,1203.74 2269.42,1203.72 2279.83,1203.7 2290.25,1203.68 2300.67,1203.66 2311.09,1203.65 2321.5,1203.64 2331.92,1203.63 2342.34,1203.64 2352.76,1203.65 "/>
<path clip-path="url(#clip620)" d="M1766.07 886.346 L2283.31 886.346 L2283.31 678.986 L1766.07 678.986  Z" fill="#ffffff" fill-rule="evenodd" fill-opacity="1"/>
<polyline clip-path="url(#clip620)" style="stroke:#000000; stroke-linecap:round; stroke-linejoin:round; stroke-width:4; stroke-opacity:1; fill:none" points="1766.07,886.346 2283.31,886.346 2283.31,678.986 1766.07,678.986 1766.07,886.346 "/>
<polyline clip-path="url(#clip620)" style="stroke:#009af9; stroke-linecap:round; stroke-linejoin:round; stroke-width:6; stroke-opacity:1; fill:none" points="1789.22,730.826 1928.12,730.826 "/>
<path clip-path="url(#clip620)" d="M1973.52 714.68 L1973.52 719.24 Q1970.85 717.967 1968.49 717.342 Q1966.13 716.717 1963.93 716.717 Q1960.11 716.717 1958.03 718.198 Q1955.97 719.68 1955.97 722.411 Q1955.97 724.703 1957.33 725.883 Q1958.72 727.041 1962.57 727.758 L1965.39 728.337 Q1970.62 729.333 1973.1 731.856 Q1975.6 734.356 1975.6 738.569 Q1975.6 743.592 1972.22 746.184 Q1968.86 748.777 1962.36 748.777 Q1959.9 748.777 1957.13 748.221 Q1954.37 747.666 1951.41 746.578 L1951.41 741.763 Q1954.26 743.36 1956.99 744.17 Q1959.72 744.981 1962.36 744.981 Q1966.36 744.981 1968.54 743.407 Q1970.71 741.832 1970.71 738.916 Q1970.71 736.37 1969.14 734.934 Q1967.59 733.499 1964.02 732.782 L1961.18 732.226 Q1955.95 731.184 1953.61 728.962 Q1951.27 726.74 1951.27 722.782 Q1951.27 718.198 1954.49 715.559 Q1957.73 712.921 1963.4 712.921 Q1965.83 712.921 1968.35 713.36 Q1970.88 713.8 1973.52 714.68 Z" fill="#000000" fill-rule="nonzero" fill-opacity="1" /><path clip-path="url(#clip620)" d="M1982.7 722.18 L1986.96 722.18 L1986.96 748.106 L1982.7 748.106 L1982.7 722.18 M1982.7 712.087 L1986.96 712.087 L1986.96 717.481 L1982.7 717.481 L1982.7 712.087 Z" fill="#000000" fill-rule="nonzero" fill-opacity="1" /><path clip-path="url(#clip620)" d="M2017.43 732.458 L2017.43 748.106 L2013.17 748.106 L2013.17 732.596 Q2013.17 728.916 2011.73 727.087 Q2010.3 725.258 2007.43 725.258 Q2003.98 725.258 2001.99 727.458 Q2000 729.657 2000 733.453 L2000 748.106 L1995.71 748.106 L1995.71 722.18 L2000 722.18 L2000 726.208 Q2001.52 723.87 2003.58 722.712 Q2005.67 721.555 2008.38 721.555 Q2012.84 721.555 2015.14 724.333 Q2017.43 727.087 2017.43 732.458 Z" fill="#000000" fill-rule="nonzero" fill-opacity="1" /><path clip-path="url(#clip620)" d="M2044.58 723.175 L2044.58 727.157 Q2042.77 726.161 2040.95 725.675 Q2039.14 725.166 2037.29 725.166 Q2033.14 725.166 2030.85 727.805 Q2028.56 730.42 2028.56 735.166 Q2028.56 739.911 2030.85 742.55 Q2033.14 745.166 2037.29 745.166 Q2039.14 745.166 2040.95 744.68 Q2042.77 744.17 2044.58 743.175 L2044.58 747.11 Q2042.8 747.944 2040.88 748.36 Q2038.98 748.777 2036.82 748.777 Q2030.97 748.777 2027.52 745.096 Q2024.07 741.416 2024.07 735.166 Q2024.07 728.823 2027.54 725.189 Q2031.04 721.555 2037.1 721.555 Q2039.07 721.555 2040.95 721.971 Q2042.82 722.365 2044.58 723.175 Z" fill="#000000" fill-rule="nonzero" fill-opacity="1" /><path clip-path="url(#clip620)" d="M2088.61 732.458 L2088.61 748.106 L2084.35 748.106 L2084.35 732.596 Q2084.35 728.916 2082.91 727.087 Q2081.48 725.258 2078.61 725.258 Q2075.16 725.258 2073.17 727.458 Q2071.18 729.657 2071.18 733.453 L2071.18 748.106 L2066.89 748.106 L2066.89 722.18 L2071.18 722.18 L2071.18 726.208 Q2072.7 723.87 2074.76 722.712 Q2076.85 721.555 2079.56 721.555 Q2084.02 721.555 2086.32 724.333 Q2088.61 727.087 2088.61 732.458 Z" fill="#000000" fill-rule="nonzero" fill-opacity="1" /><path clip-path="url(#clip620)" d="M2097.1 712.087 L2101.36 712.087 L2101.36 748.106 L2097.1 748.106 L2097.1 712.087 Z" fill="#000000" fill-rule="nonzero" fill-opacity="1" /><path clip-path="url(#clip620)" d="M2120.32 725.166 Q2116.89 725.166 2114.9 727.851 Q2112.91 730.513 2112.91 735.166 Q2112.91 739.819 2114.88 742.504 Q2116.87 745.166 2120.32 745.166 Q2123.72 745.166 2125.71 742.481 Q2127.7 739.795 2127.7 735.166 Q2127.7 730.559 2125.71 727.874 Q2123.72 725.166 2120.32 725.166 M2120.32 721.555 Q2125.88 721.555 2129.05 725.166 Q2132.22 728.777 2132.22 735.166 Q2132.22 741.532 2129.05 745.166 Q2125.88 748.777 2120.32 748.777 Q2114.74 748.777 2111.57 745.166 Q2108.42 741.532 2108.42 735.166 Q2108.42 728.777 2111.57 725.166 Q2114.74 721.555 2120.32 721.555 Z" fill="#000000" fill-rule="nonzero" fill-opacity="1" /><path clip-path="url(#clip620)" d="M2157.89 735.166 Q2157.89 730.467 2155.94 727.805 Q2154.02 725.12 2150.64 725.12 Q2147.26 725.12 2145.32 727.805 Q2143.4 730.467 2143.4 735.166 Q2143.4 739.865 2145.32 742.55 Q2147.26 745.212 2150.64 745.212 Q2154.02 745.212 2155.94 742.55 Q2157.89 739.865 2157.89 735.166 M2143.4 726.115 Q2144.74 723.8 2146.78 722.689 Q2148.84 721.555 2151.69 721.555 Q2156.41 721.555 2159.35 725.305 Q2162.31 729.055 2162.31 735.166 Q2162.31 741.277 2159.35 745.027 Q2156.41 748.777 2151.69 748.777 Q2148.84 748.777 2146.78 747.666 Q2144.74 746.532 2143.4 744.217 L2143.4 748.106 L2139.12 748.106 L2139.12 712.087 L2143.4 712.087 L2143.4 726.115 Z" fill="#000000" fill-rule="nonzero" fill-opacity="1" /><path clip-path="url(#clip620)" d="M2191.55 734.078 L2191.55 736.161 L2171.96 736.161 Q2172.24 740.559 2174.6 742.874 Q2176.99 745.166 2181.22 745.166 Q2183.68 745.166 2185.97 744.564 Q2188.28 743.962 2190.55 742.758 L2190.55 746.786 Q2188.26 747.758 2185.85 748.268 Q2183.44 748.777 2180.97 748.777 Q2174.76 748.777 2171.13 745.166 Q2167.52 741.555 2167.52 735.397 Q2167.52 729.032 2170.94 725.305 Q2174.39 721.555 2180.23 721.555 Q2185.46 721.555 2188.49 724.934 Q2191.55 728.291 2191.55 734.078 M2187.29 732.828 Q2187.24 729.333 2185.32 727.249 Q2183.42 725.166 2180.27 725.166 Q2176.71 725.166 2174.56 727.18 Q2172.43 729.194 2172.1 732.851 L2187.29 732.828 Z" fill="#000000" fill-rule="nonzero" fill-opacity="1" /><path clip-path="url(#clip620)" d="M2199.09 726.578 L2228.77 726.578 L2228.77 730.467 L2199.09 730.467 L2199.09 726.578 M2199.09 736.022 L2228.77 736.022 L2228.77 739.957 L2199.09 739.957 L2199.09 736.022 Z" fill="#000000" fill-rule="nonzero" fill-opacity="1" /><path clip-path="url(#clip620)" d="M2253.03 729.471 Q2256.38 730.189 2258.26 732.458 Q2260.16 734.726 2260.16 738.059 Q2260.16 743.175 2256.64 745.976 Q2253.12 748.777 2246.64 748.777 Q2244.46 748.777 2242.15 748.337 Q2239.86 747.92 2237.4 747.064 L2237.4 742.55 Q2239.35 743.684 2241.66 744.263 Q2243.98 744.842 2246.5 744.842 Q2250.9 744.842 2253.19 743.106 Q2255.5 741.369 2255.5 738.059 Q2255.5 735.004 2253.35 733.291 Q2251.22 731.555 2247.4 731.555 L2243.37 731.555 L2243.37 727.712 L2247.59 727.712 Q2251.04 727.712 2252.87 726.346 Q2254.69 724.958 2254.69 722.365 Q2254.69 719.703 2252.8 718.291 Q2250.92 716.856 2247.4 716.856 Q2245.48 716.856 2243.28 717.272 Q2241.08 717.689 2238.44 718.569 L2238.44 714.402 Q2241.11 713.661 2243.42 713.291 Q2245.76 712.921 2247.82 712.921 Q2253.14 712.921 2256.25 715.351 Q2259.35 717.759 2259.35 721.879 Q2259.35 724.749 2257.7 726.74 Q2256.06 728.708 2253.03 729.471 Z" fill="#000000" fill-rule="nonzero" fill-opacity="1" /><polyline clip-path="url(#clip620)" style="stroke:#e26f46; stroke-linecap:round; stroke-linejoin:round; stroke-width:6; stroke-opacity:1; fill:none" points="1789.22,782.666 1928.12,782.666 "/>
<path clip-path="url(#clip620)" d="M1973.52 766.52 L1973.52 771.08 Q1970.85 769.807 1968.49 769.182 Q1966.13 768.557 1963.93 768.557 Q1960.11 768.557 1958.03 770.038 Q1955.97 771.52 1955.97 774.251 Q1955.97 776.543 1957.33 777.723 Q1958.72 778.881 1962.57 779.598 L1965.39 780.177 Q1970.62 781.173 1973.1 783.696 Q1975.6 786.196 1975.6 790.409 Q1975.6 795.432 1972.22 798.024 Q1968.86 800.617 1962.36 800.617 Q1959.9 800.617 1957.13 800.061 Q1954.37 799.506 1951.41 798.418 L1951.41 793.603 Q1954.26 795.2 1956.99 796.01 Q1959.72 796.821 1962.36 796.821 Q1966.36 796.821 1968.54 795.247 Q1970.71 793.672 1970.71 790.756 Q1970.71 788.21 1969.14 786.774 Q1967.59 785.339 1964.02 784.622 L1961.18 784.066 Q1955.95 783.024 1953.61 780.802 Q1951.27 778.58 1951.27 774.622 Q1951.27 770.038 1954.49 767.399 Q1957.73 764.761 1963.4 764.761 Q1965.83 764.761 1968.35 765.2 Q1970.88 765.64 1973.52 766.52 Z" fill="#000000" fill-rule="nonzero" fill-opacity="1" /><path clip-path="url(#clip620)" d="M1982.89 765.386 L1987.57 765.386 L1987.57 796.01 L2004.39 796.01 L2004.39 799.946 L1982.89 799.946 L1982.89 765.386 Z" fill="#000000" fill-rule="nonzero" fill-opacity="1" /><path clip-path="url(#clip620)" d="M2025.69 783.742 Q2027.2 784.251 2028.61 785.918 Q2030.04 787.585 2031.48 790.501 L2036.22 799.946 L2031.2 799.946 L2026.78 791.08 Q2025.07 787.608 2023.45 786.473 Q2021.85 785.339 2019.07 785.339 L2013.98 785.339 L2013.98 799.946 L2009.3 799.946 L2009.3 765.386 L2019.86 765.386 Q2025.78 765.386 2028.7 767.862 Q2031.62 770.339 2031.62 775.339 Q2031.62 778.603 2030.09 780.756 Q2028.58 782.909 2025.69 783.742 M2013.98 769.228 L2013.98 781.497 L2019.86 781.497 Q2023.24 781.497 2024.95 779.946 Q2026.69 778.372 2026.69 775.339 Q2026.69 772.307 2024.95 770.779 Q2023.24 769.228 2019.86 769.228 L2013.98 769.228 Z" fill="#000000" fill-rule="nonzero" fill-opacity="1" /><path clip-path="url(#clip620)" d="M2073.65 774.784 L2073.65 778.811 Q2071.85 777.886 2069.9 777.423 Q2067.96 776.96 2065.88 776.96 Q2062.7 776.96 2061.11 777.932 Q2059.53 778.904 2059.53 780.848 Q2059.53 782.33 2060.67 783.186 Q2061.8 784.02 2065.23 784.784 L2066.69 785.108 Q2071.22 786.08 2073.12 787.862 Q2075.04 789.622 2075.04 792.793 Q2075.04 796.404 2072.17 798.51 Q2069.32 800.617 2064.32 800.617 Q2062.24 800.617 2059.97 800.2 Q2057.73 799.807 2055.23 798.997 L2055.23 794.598 Q2057.59 795.825 2059.88 796.45 Q2062.17 797.052 2064.42 797.052 Q2067.43 797.052 2069.05 796.034 Q2070.67 794.992 2070.67 793.117 Q2070.67 791.381 2069.49 790.455 Q2068.33 789.529 2064.37 788.672 L2062.89 788.325 Q2058.93 787.492 2057.17 785.779 Q2055.41 784.043 2055.41 781.034 Q2055.41 777.376 2058.01 775.386 Q2060.6 773.395 2065.37 773.395 Q2067.73 773.395 2069.81 773.742 Q2071.89 774.089 2073.65 774.784 Z" fill="#000000" fill-rule="nonzero" fill-opacity="1" /><path clip-path="url(#clip620)" d="M2086.04 766.659 L2086.04 774.02 L2094.81 774.02 L2094.81 777.33 L2086.04 777.33 L2086.04 791.404 Q2086.04 794.575 2086.89 795.478 Q2087.77 796.381 2090.44 796.381 L2094.81 796.381 L2094.81 799.946 L2090.44 799.946 Q2085.51 799.946 2083.63 798.117 Q2081.76 796.265 2081.76 791.404 L2081.76 777.33 L2078.63 777.33 L2078.63 774.02 L2081.76 774.02 L2081.76 766.659 L2086.04 766.659 Z" fill="#000000" fill-rule="nonzero" fill-opacity="1" /><path clip-path="url(#clip620)" d="M2119.6 796.057 L2119.6 809.807 L2115.32 809.807 L2115.32 774.02 L2119.6 774.02 L2119.6 777.955 Q2120.94 775.64 2122.98 774.529 Q2125.04 773.395 2127.89 773.395 Q2132.61 773.395 2135.55 777.145 Q2138.51 780.895 2138.51 787.006 Q2138.51 793.117 2135.55 796.867 Q2132.61 800.617 2127.89 800.617 Q2125.04 800.617 2122.98 799.506 Q2120.94 798.372 2119.6 796.057 M2134.09 787.006 Q2134.09 782.307 2132.15 779.645 Q2130.23 776.96 2126.85 776.96 Q2123.47 776.96 2121.52 779.645 Q2119.6 782.307 2119.6 787.006 Q2119.6 791.705 2121.52 794.39 Q2123.47 797.052 2126.85 797.052 Q2130.23 797.052 2132.15 794.39 Q2134.09 791.705 2134.09 787.006 Z" fill="#000000" fill-rule="nonzero" fill-opacity="1" /><path clip-path="url(#clip620)" d="M2165.76 778.997 Q2167.36 776.126 2169.58 774.761 Q2171.8 773.395 2174.81 773.395 Q2178.86 773.395 2181.06 776.242 Q2183.26 779.066 2183.26 784.298 L2183.26 799.946 L2178.98 799.946 L2178.98 784.436 Q2178.98 780.71 2177.66 778.904 Q2176.34 777.098 2173.63 777.098 Q2170.32 777.098 2168.4 779.298 Q2166.48 781.497 2166.48 785.293 L2166.48 799.946 L2162.19 799.946 L2162.19 784.436 Q2162.19 780.686 2160.88 778.904 Q2159.56 777.098 2156.8 777.098 Q2153.54 777.098 2151.62 779.321 Q2149.69 781.52 2149.69 785.293 L2149.69 799.946 L2145.41 799.946 L2145.41 774.02 L2149.69 774.02 L2149.69 778.048 Q2151.15 775.663 2153.19 774.529 Q2155.23 773.395 2158.03 773.395 Q2160.85 773.395 2162.82 774.83 Q2164.81 776.265 2165.76 778.997 Z" fill="#000000" fill-rule="nonzero" fill-opacity="1" /><polyline clip-path="url(#clip620)" style="stroke:#3da44d; stroke-linecap:round; stroke-linejoin:round; stroke-width:6; stroke-opacity:1; fill:none" points="1789.22,834.506 1928.12,834.506 "/>
<path clip-path="url(#clip620)" d="M1973.52 818.36 L1973.52 822.92 Q1970.85 821.647 1968.49 821.022 Q1966.13 820.397 1963.93 820.397 Q1960.11 820.397 1958.03 821.878 Q1955.97 823.36 1955.97 826.091 Q1955.97 828.383 1957.33 829.563 Q1958.72 830.721 1962.57 831.438 L1965.39 832.017 Q1970.62 833.013 1973.1 835.536 Q1975.6 838.036 1975.6 842.249 Q1975.6 847.272 1972.22 849.864 Q1968.86 852.457 1962.36 852.457 Q1959.9 852.457 1957.13 851.901 Q1954.37 851.346 1951.41 850.258 L1951.41 845.443 Q1954.26 847.04 1956.99 847.85 Q1959.72 848.661 1962.36 848.661 Q1966.36 848.661 1968.54 847.087 Q1970.71 845.512 1970.71 842.596 Q1970.71 840.05 1969.14 838.614 Q1967.59 837.179 1964.02 836.462 L1961.18 835.906 Q1955.95 834.864 1953.61 832.642 Q1951.27 830.42 1951.27 826.462 Q1951.27 821.878 1954.49 819.239 Q1957.73 816.601 1963.4 816.601 Q1965.83 816.601 1968.35 817.04 Q1970.88 817.48 1973.52 818.36 Z" fill="#000000" fill-rule="nonzero" fill-opacity="1" /><path clip-path="url(#clip620)" d="M1982.89 817.226 L1987.57 817.226 L1987.57 847.85 L2004.39 847.85 L2004.39 851.786 L1982.89 851.786 L1982.89 817.226 Z" fill="#000000" fill-rule="nonzero" fill-opacity="1" /><path clip-path="url(#clip620)" d="M2025.69 835.582 Q2027.2 836.091 2028.61 837.758 Q2030.04 839.425 2031.48 842.341 L2036.22 851.786 L2031.2 851.786 L2026.78 842.92 Q2025.07 839.448 2023.45 838.313 Q2021.85 837.179 2019.07 837.179 L2013.98 837.179 L2013.98 851.786 L2009.3 851.786 L2009.3 817.226 L2019.86 817.226 Q2025.78 817.226 2028.7 819.702 Q2031.62 822.179 2031.62 827.179 Q2031.62 830.443 2030.09 832.596 Q2028.58 834.749 2025.69 835.582 M2013.98 821.068 L2013.98 833.337 L2019.86 833.337 Q2023.24 833.337 2024.95 831.786 Q2026.69 830.212 2026.69 827.179 Q2026.69 824.147 2024.95 822.619 Q2023.24 821.068 2019.86 821.068 L2013.98 821.068 Z" fill="#000000" fill-rule="nonzero" fill-opacity="1" /><path clip-path="url(#clip620)" d="M2073.65 826.624 L2073.65 830.651 Q2071.85 829.726 2069.9 829.263 Q2067.96 828.8 2065.88 828.8 Q2062.7 828.8 2061.11 829.772 Q2059.53 830.744 2059.53 832.688 Q2059.53 834.17 2060.67 835.026 Q2061.8 835.86 2065.23 836.624 L2066.69 836.948 Q2071.22 837.92 2073.12 839.702 Q2075.04 841.462 2075.04 844.633 Q2075.04 848.244 2072.17 850.35 Q2069.32 852.457 2064.32 852.457 Q2062.24 852.457 2059.97 852.04 Q2057.73 851.647 2055.23 850.837 L2055.23 846.438 Q2057.59 847.665 2059.88 848.29 Q2062.17 848.892 2064.42 848.892 Q2067.43 848.892 2069.05 847.874 Q2070.67 846.832 2070.67 844.957 Q2070.67 843.221 2069.49 842.295 Q2068.33 841.369 2064.37 840.512 L2062.89 840.165 Q2058.93 839.332 2057.17 837.619 Q2055.41 835.883 2055.41 832.874 Q2055.41 829.216 2058.01 827.226 Q2060.6 825.235 2065.37 825.235 Q2067.73 825.235 2069.81 825.582 Q2071.89 825.929 2073.65 826.624 Z" fill="#000000" fill-rule="nonzero" fill-opacity="1" /><path clip-path="url(#clip620)" d="M2086.04 818.499 L2086.04 825.86 L2094.81 825.86 L2094.81 829.17 L2086.04 829.17 L2086.04 843.244 Q2086.04 846.415 2086.89 847.318 Q2087.77 848.221 2090.44 848.221 L2094.81 848.221 L2094.81 851.786 L2090.44 851.786 Q2085.51 851.786 2083.63 849.957 Q2081.76 848.105 2081.76 843.244 L2081.76 829.17 L2078.63 829.17 L2078.63 825.86 L2081.76 825.86 L2081.76 818.499 L2086.04 818.499 Z" fill="#000000" fill-rule="nonzero" fill-opacity="1" /><path clip-path="url(#clip620)" d="M2115.48 815.767 L2119.74 815.767 L2119.74 851.786 L2115.48 851.786 L2115.48 815.767 Z" fill="#000000" fill-rule="nonzero" fill-opacity="1" /><path clip-path="url(#clip620)" d="M2145.18 826.624 L2145.18 830.651 Q2143.38 829.726 2141.43 829.263 Q2139.49 828.8 2137.4 828.8 Q2134.23 828.8 2132.63 829.772 Q2131.06 830.744 2131.06 832.688 Q2131.06 834.17 2132.19 835.026 Q2133.33 835.86 2136.75 836.624 L2138.21 836.948 Q2142.75 837.92 2144.65 839.702 Q2146.57 841.462 2146.57 844.633 Q2146.57 848.244 2143.7 850.35 Q2140.85 852.457 2135.85 852.457 Q2133.77 852.457 2131.5 852.04 Q2129.26 851.647 2126.76 850.837 L2126.76 846.438 Q2129.12 847.665 2131.41 848.29 Q2133.7 848.892 2135.94 848.892 Q2138.95 848.892 2140.57 847.874 Q2142.19 846.832 2142.19 844.957 Q2142.19 843.221 2141.01 842.295 Q2139.86 841.369 2135.9 840.512 L2134.42 840.165 Q2130.46 839.332 2128.7 837.619 Q2126.94 835.883 2126.94 832.874 Q2126.94 829.216 2129.53 827.226 Q2132.13 825.235 2136.89 825.235 Q2139.25 825.235 2141.34 825.582 Q2143.42 825.929 2145.18 826.624 Z" fill="#000000" fill-rule="nonzero" fill-opacity="1" /></svg>
