<?xml version="1.0" encoding="utf-8"?>
<svg xmlns="http://www.w3.org/2000/svg" xmlns:xlink="http://www.w3.org/1999/xlink" width="600" height="400" viewBox="0 0 2400 1600">
<defs>
  <clipPath id="clip530">
    <rect x="0" y="0" width="2400" height="1600"/>
  </clipPath>
</defs>
<path clip-path="url(#clip530)" d="M0 1600 L2400 1600 L2400 0 L0 0  Z" fill="#ffffff" fill-rule="evenodd" fill-opacity="1"/>
<defs>
  <clipPath id="clip531">
    <rect x="281" y="0" width="2073" height="81"/>
  </clipPath>
</defs>
<path clip-path="url(#clip530)" d="M281.088 663.18 L2352.76 663.18 L2352.76 127.244 L281.088 127.244  Z" fill="#ffffff" fill-rule="evenodd" fill-opacity="1"/>
<defs>
  <clipPath id="clip532">
    <rect x="281" y="127" width="2073" height="537"/>
  </clipPath>
</defs>
<polyline clip-path="url(#clip532)" style="stroke:#000000; stroke-linecap:round; stroke-linejoin:round; stroke-width:2; stroke-opacity:0.1; fill:none" points="281.088,663.18 281.088,127.244 "/>
<polyline clip-path="url(#clip532)" style="stroke:#000000; stroke-linecap:round; stroke-linejoin:round; stroke-width:2; stroke-opacity:0.1; fill:none" points="1057.96,663.18 1057.96,127.244 "/>
<polyline clip-path="url(#clip532)" style="stroke:#000000; stroke-linecap:round; stroke-linejoin:round; stroke-width:2; stroke-opacity:0.1; fill:none" points="1316.92,663.18 1316.92,127.244 "/>
<polyline clip-path="url(#clip532)" style="stroke:#000000; stroke-linecap:round; stroke-linejoin:round; stroke-width:2; stroke-opacity:0.1; fill:none" points="1575.88,663.18 1575.88,127.244 "/>
<polyline clip-path="url(#clip532)" style="stroke:#000000; stroke-linecap:round; stroke-linejoin:round; stroke-width:2; stroke-opacity:0.1; fill:none" points="2352.76,663.18 2352.76,127.244 "/>
<polyline clip-path="url(#clip532)" style="stroke:#000000; stroke-linecap:round; stroke-linejoin:round; stroke-width:2; stroke-opacity:0.1; fill:none" points="281.088,573.857 2352.76,573.857 "/>
<polyline clip-path="url(#clip532)" style="stroke:#000000; stroke-linecap:round; stroke-linejoin:round; stroke-width:2; stroke-opacity:0.1; fill:none" points="281.088,350.551 2352.76,350.551 "/>
<polyline clip-path="url(#clip532)" style="stroke:#000000; stroke-linecap:round; stroke-linejoin:round; stroke-width:2; stroke-opacity:0.1; fill:none" points="281.088,187.079 2352.76,187.079 "/>
<polyline clip-path="url(#clip532)" style="stroke:#000000; stroke-linecap:round; stroke-linejoin:round; stroke-width:2; stroke-opacity:0.1; fill:none" points="281.088,127.244 2352.76,127.244 "/>
<polyline clip-path="url(#clip530)" style="stroke:#000000; stroke-linecap:round; stroke-linejoin:round; stroke-width:4; stroke-opacity:1; fill:none" points="281.088,663.18 2352.76,663.18 "/>
<polyline clip-path="url(#clip530)" style="stroke:#000000; stroke-linecap:round; stroke-linejoin:round; stroke-width:4; stroke-opacity:1; fill:none" points="281.088,663.18 281.088,644.282 "/>
<polyline clip-path="url(#clip530)" style="stroke:#000000; stroke-linecap:round; stroke-linejoin:round; stroke-width:4; stroke-opacity:1; fill:none" points="1057.96,663.18 1057.96,644.282 "/>
<polyline clip-path="url(#clip530)" style="stroke:#000000; stroke-linecap:round; stroke-linejoin:round; stroke-width:4; stroke-opacity:1; fill:none" points="1316.92,663.18 1316.92,644.282 "/>
<polyline clip-path="url(#clip530)" style="stroke:#000000; stroke-linecap:round; stroke-linejoin:round; stroke-width:4; stroke-opacity:1; fill:none" points="1575.88,663.18 1575.88,644.282 "/>
<polyline clip-path="url(#clip530)" style="stroke:#000000; stroke-linecap:round; stroke-linejoin:round; stroke-width:4; stroke-opacity:1; fill:none" points="2352.76,663.18 2352.76,644.282 "/>
<path clip-path="url(#clip530)" d="M212.535 708.751 L242.211 708.751 L242.211 712.686 L212.535 712.686 L212.535 708.751 Z" fill="#000000" fill-rule="nonzero" fill-opacity="1" /><path clip-path="url(#clip530)" d="M253.114 721.645 L260.753 721.645 L260.753 695.279 L252.443 696.946 L252.443 692.687 L260.706 691.02 L265.382 691.02 L265.382 721.645 L273.021 721.645 L273.021 725.58 L253.114 725.58 L253.114 721.645 Z" fill="#000000" fill-rule="nonzero" fill-opacity="1" /><path clip-path="url(#clip530)" d="M282.466 719.7 L287.35 719.7 L287.35 725.58 L282.466 725.58 L282.466 719.7 Z" fill="#000000" fill-rule="nonzero" fill-opacity="1" /><path clip-path="url(#clip530)" d="M307.535 694.099 Q303.924 694.099 302.095 697.663 Q300.29 701.205 300.29 708.335 Q300.29 715.441 302.095 719.006 Q303.924 722.547 307.535 722.547 Q311.169 722.547 312.975 719.006 Q314.803 715.441 314.803 708.335 Q314.803 701.205 312.975 697.663 Q311.169 694.099 307.535 694.099 M307.535 690.395 Q313.345 690.395 316.401 695.001 Q319.479 699.585 319.479 708.335 Q319.479 717.061 316.401 721.668 Q313.345 726.251 307.535 726.251 Q301.725 726.251 298.646 721.668 Q295.591 717.061 295.591 708.335 Q295.591 699.585 298.646 695.001 Q301.725 690.395 307.535 690.395 Z" fill="#000000" fill-rule="nonzero" fill-opacity="1" /><path clip-path="url(#clip530)" d="M337.697 694.099 Q334.086 694.099 332.257 697.663 Q330.451 701.205 330.451 708.335 Q330.451 715.441 332.257 719.006 Q334.086 722.547 337.697 722.547 Q341.331 722.547 343.137 719.006 Q344.965 715.441 344.965 708.335 Q344.965 701.205 343.137 697.663 Q341.331 694.099 337.697 694.099 M337.697 690.395 Q343.507 690.395 346.562 695.001 Q349.641 699.585 349.641 708.335 Q349.641 717.061 346.562 721.668 Q343.507 726.251 337.697 726.251 Q331.887 726.251 328.808 721.668 Q325.752 717.061 325.752 708.335 Q325.752 699.585 328.808 695.001 Q331.887 690.395 337.697 690.395 Z" fill="#000000" fill-rule="nonzero" fill-opacity="1" /><path clip-path="url(#clip530)" d="M989.908 708.751 L1019.58 708.751 L1019.58 712.686 L989.908 712.686 L989.908 708.751 Z" fill="#000000" fill-rule="nonzero" fill-opacity="1" /><path clip-path="url(#clip530)" d="M1039.68 694.099 Q1036.07 694.099 1034.24 697.663 Q1032.43 701.205 1032.43 708.335 Q1032.43 715.441 1034.24 719.006 Q1036.07 722.547 1039.68 722.547 Q1043.31 722.547 1045.12 719.006 Q1046.95 715.441 1046.95 708.335 Q1046.95 701.205 1045.12 697.663 Q1043.31 694.099 1039.68 694.099 M1039.68 690.395 Q1045.49 690.395 1048.54 695.001 Q1051.62 699.585 1051.62 708.335 Q1051.62 717.061 1048.54 721.668 Q1045.49 726.251 1039.68 726.251 Q1033.87 726.251 1030.79 721.668 Q1027.73 717.061 1027.73 708.335 Q1027.73 699.585 1030.79 695.001 Q1033.87 690.395 1039.68 690.395 Z" fill="#000000" fill-rule="nonzero" fill-opacity="1" /><path clip-path="url(#clip530)" d="M1059.84 719.7 L1064.72 719.7 L1064.72 725.58 L1059.84 725.58 L1059.84 719.7 Z" fill="#000000" fill-rule="nonzero" fill-opacity="1" /><path clip-path="url(#clip530)" d="M1078.94 721.645 L1095.26 721.645 L1095.26 725.58 L1073.31 725.58 L1073.31 721.645 Q1075.97 718.89 1080.56 714.26 Q1085.16 709.608 1086.34 708.265 Q1088.59 705.742 1089.47 704.006 Q1090.37 702.247 1090.37 700.557 Q1090.37 697.802 1088.43 696.066 Q1086.51 694.33 1083.4 694.33 Q1081.2 694.33 1078.75 695.094 Q1076.32 695.858 1073.54 697.409 L1073.54 692.687 Q1076.37 691.552 1078.82 690.974 Q1081.27 690.395 1083.31 690.395 Q1088.68 690.395 1091.88 693.08 Q1095.07 695.765 1095.07 700.256 Q1095.07 702.386 1094.26 704.307 Q1093.47 706.205 1091.37 708.798 Q1090.79 709.469 1087.69 712.686 Q1084.58 715.881 1078.94 721.645 Z" fill="#000000" fill-rule="nonzero" fill-opacity="1" /><path clip-path="url(#clip530)" d="M1105.12 691.02 L1123.47 691.02 L1123.47 694.955 L1109.4 694.955 L1109.4 703.427 Q1110.42 703.08 1111.44 702.918 Q1112.45 702.733 1113.47 702.733 Q1119.26 702.733 1122.64 705.904 Q1126.02 709.075 1126.02 714.492 Q1126.02 720.071 1122.55 723.172 Q1119.07 726.251 1112.76 726.251 Q1110.58 726.251 1108.31 725.881 Q1106.07 725.51 1103.66 724.77 L1103.66 720.071 Q1105.74 721.205 1107.96 721.76 Q1110.19 722.316 1112.66 722.316 Q1116.67 722.316 1119 720.21 Q1121.34 718.103 1121.34 714.492 Q1121.34 710.881 1119 708.774 Q1116.67 706.668 1112.66 706.668 Q1110.79 706.668 1108.91 707.085 Q1107.06 707.501 1105.12 708.381 L1105.12 691.02 Z" fill="#000000" fill-rule="nonzero" fill-opacity="1" /><path clip-path="url(#clip530)" d="M1279.23 694.099 Q1275.61 694.099 1273.79 697.663 Q1271.98 701.205 1271.98 708.335 Q1271.98 715.441 1273.79 719.006 Q1275.61 722.547 1279.23 722.547 Q1282.86 722.547 1284.67 719.006 Q1286.49 715.441 1286.49 708.335 Q1286.49 701.205 1284.67 697.663 Q1282.86 694.099 1279.23 694.099 M1279.23 690.395 Q1285.04 690.395 1288.09 695.001 Q1291.17 699.585 1291.17 708.335 Q1291.17 717.061 1288.09 721.668 Q1285.04 726.251 1279.23 726.251 Q1273.42 726.251 1270.34 721.668 Q1267.28 717.061 1267.28 708.335 Q1267.28 699.585 1270.34 695.001 Q1273.42 690.395 1279.23 690.395 Z" fill="#000000" fill-rule="nonzero" fill-opacity="1" /><path clip-path="url(#clip530)" d="M1299.39 719.7 L1304.27 719.7 L1304.27 725.58 L1299.39 725.58 L1299.39 719.7 Z" fill="#000000" fill-rule="nonzero" fill-opacity="1" /><path clip-path="url(#clip530)" d="M1324.46 694.099 Q1320.85 694.099 1319.02 697.663 Q1317.21 701.205 1317.21 708.335 Q1317.21 715.441 1319.02 719.006 Q1320.85 722.547 1324.46 722.547 Q1328.09 722.547 1329.9 719.006 Q1331.73 715.441 1331.73 708.335 Q1331.73 701.205 1329.9 697.663 Q1328.09 694.099 1324.46 694.099 M1324.46 690.395 Q1330.27 690.395 1333.32 695.001 Q1336.4 699.585 1336.4 708.335 Q1336.4 717.061 1333.32 721.668 Q1330.27 726.251 1324.46 726.251 Q1318.65 726.251 1315.57 721.668 Q1312.51 717.061 1312.51 708.335 Q1312.51 699.585 1315.57 695.001 Q1318.65 690.395 1324.46 690.395 Z" fill="#000000" fill-rule="nonzero" fill-opacity="1" /><path clip-path="url(#clip530)" d="M1354.62 694.099 Q1351.01 694.099 1349.18 697.663 Q1347.37 701.205 1347.37 708.335 Q1347.37 715.441 1349.18 719.006 Q1351.01 722.547 1354.62 722.547 Q1358.25 722.547 1360.06 719.006 Q1361.89 715.441 1361.89 708.335 Q1361.89 701.205 1360.06 697.663 Q1358.25 694.099 1354.62 694.099 M1354.62 690.395 Q1360.43 690.395 1363.48 695.001 Q1366.56 699.585 1366.56 708.335 Q1366.56 717.061 1363.48 721.668 Q1360.43 726.251 1354.62 726.251 Q1348.81 726.251 1345.73 721.668 Q1342.67 717.061 1342.67 708.335 Q1342.67 699.585 1345.73 695.001 Q1348.81 690.395 1354.62 690.395 Z" fill="#000000" fill-rule="nonzero" fill-opacity="1" /><path clip-path="url(#clip530)" d="M1538.68 694.099 Q1535.07 694.099 1533.24 697.663 Q1531.44 701.205 1531.44 708.335 Q1531.44 715.441 1533.24 719.006 Q1535.07 722.547 1538.68 722.547 Q1542.32 722.547 1544.12 719.006 Q1545.95 715.441 1545.95 708.335 Q1545.95 701.205 1544.12 697.663 Q1542.32 694.099 1538.68 694.099 M1538.68 690.395 Q1544.49 690.395 1547.55 695.001 Q1550.63 699.585 1550.63 708.335 Q1550.63 717.061 1547.55 721.668 Q1544.49 726.251 1538.68 726.251 Q1532.87 726.251 1529.79 721.668 Q1526.74 717.061 1526.74 708.335 Q1526.74 699.585 1529.79 695.001 Q1532.87 690.395 1538.68 690.395 Z" fill="#000000" fill-rule="nonzero" fill-opacity="1" /><path clip-path="url(#clip530)" d="M1558.84 719.7 L1563.73 719.7 L1563.73 725.58 L1558.84 725.58 L1558.84 719.7 Z" fill="#000000" fill-rule="nonzero" fill-opacity="1" /><path clip-path="url(#clip530)" d="M1577.94 721.645 L1594.26 721.645 L1594.26 725.58 L1572.32 725.58 L1572.32 721.645 Q1574.98 718.89 1579.56 714.26 Q1584.17 709.608 1585.35 708.265 Q1587.59 705.742 1588.47 704.006 Q1589.38 702.247 1589.38 700.557 Q1589.38 697.802 1587.43 696.066 Q1585.51 694.33 1582.41 694.33 Q1580.21 694.33 1577.76 695.094 Q1575.33 695.858 1572.55 697.409 L1572.55 692.687 Q1575.37 691.552 1577.82 690.974 Q1580.28 690.395 1582.32 690.395 Q1587.69 690.395 1590.88 693.08 Q1594.07 695.765 1594.07 700.256 Q1594.07 702.386 1593.26 704.307 Q1592.48 706.205 1590.37 708.798 Q1589.79 709.469 1586.69 712.686 Q1583.59 715.881 1577.94 721.645 Z" fill="#000000" fill-rule="nonzero" fill-opacity="1" /><path clip-path="url(#clip530)" d="M1604.12 691.02 L1622.48 691.02 L1622.48 694.955 L1608.4 694.955 L1608.4 703.427 Q1609.42 703.08 1610.44 702.918 Q1611.46 702.733 1612.48 702.733 Q1618.26 702.733 1621.64 705.904 Q1625.02 709.075 1625.02 714.492 Q1625.02 720.071 1621.55 723.172 Q1618.08 726.251 1611.76 726.251 Q1609.58 726.251 1607.32 725.881 Q1605.07 725.51 1602.66 724.77 L1602.66 720.071 Q1604.75 721.205 1606.97 721.76 Q1609.19 722.316 1611.67 722.316 Q1615.67 722.316 1618.01 720.21 Q1620.35 718.103 1620.35 714.492 Q1620.35 710.881 1618.01 708.774 Q1615.67 706.668 1611.67 706.668 Q1609.79 706.668 1607.92 707.085 Q1606.07 707.501 1604.12 708.381 L1604.12 691.02 Z" fill="#000000" fill-rule="nonzero" fill-opacity="1" /><path clip-path="url(#clip530)" d="M2304.83 721.645 L2312.47 721.645 L2312.47 695.279 L2304.16 696.946 L2304.16 692.687 L2312.42 691.02 L2317.1 691.02 L2317.1 721.645 L2324.74 721.645 L2324.74 725.58 L2304.83 725.58 L2304.83 721.645 Z" fill="#000000" fill-rule="nonzero" fill-opacity="1" /><path clip-path="url(#clip530)" d="M2334.18 719.7 L2339.06 719.7 L2339.06 725.58 L2334.18 725.58 L2334.18 719.7 Z" fill="#000000" fill-rule="nonzero" fill-opacity="1" /><path clip-path="url(#clip530)" d="M2359.25 694.099 Q2355.64 694.099 2353.81 697.663 Q2352 701.205 2352 708.335 Q2352 715.441 2353.81 719.006 Q2355.64 722.547 2359.25 722.547 Q2362.88 722.547 2364.69 719.006 Q2366.52 715.441 2366.52 708.335 Q2366.52 701.205 2364.69 697.663 Q2362.88 694.099 2359.25 694.099 M2359.25 690.395 Q2365.06 690.395 2368.11 695.001 Q2371.19 699.585 2371.19 708.335 Q2371.19 717.061 2368.11 721.668 Q2365.06 726.251 2359.25 726.251 Q2353.44 726.251 2350.36 721.668 Q2347.3 717.061 2347.3 708.335 Q2347.3 699.585 2350.36 695.001 Q2353.44 690.395 2359.25 690.395 Z" fill="#000000" fill-rule="nonzero" fill-opacity="1" /><path clip-path="url(#clip530)" d="M2389.41 694.099 Q2385.8 694.099 2383.97 697.663 Q2382.17 701.205 2382.17 708.335 Q2382.17 715.441 2383.97 719.006 Q2385.8 722.547 2389.41 722.547 Q2393.05 722.547 2394.85 719.006 Q2396.68 715.441 2396.68 708.335 Q2396.68 701.205 2394.85 697.663 Q2393.05 694.099 2389.41 694.099 M2389.41 690.395 Q2395.22 690.395 2398.28 695.001 Q2401.36 699.585 2401.36 708.335 Q2401.36 717.061 2398.28 721.668 Q2395.22 726.251 2389.41 726.251 Q2383.6 726.251 2380.52 721.668 Q2377.47 717.061 2377.47 708.335 Q2377.47 699.585 2380.52 695.001 Q2383.6 690.395 2389.41 690.395 Z" fill="#000000" fill-rule="nonzero" fill-opacity="1" /><path clip-path="url(#clip530)" d="M1219.35 772.396 L1247.17 772.396 L1247.17 777.743 L1225.14 803.365 L1247.17 803.365 L1247.17 808.044 L1218.56 808.044 L1218.56 802.697 L1240.58 777.075 L1219.35 777.075 L1219.35 772.396 Z" fill="#000000" fill-rule="nonzero" fill-opacity="1" /><path clip-path="url(#clip530)" d="M1276.29 758.519 L1289.79 758.519 L1289.79 763.07 L1282.15 763.07 L1282.15 812.086 L1289.79 812.086 L1289.79 816.638 L1276.29 816.638 L1276.29 758.519 Z" fill="#000000" fill-rule="nonzero" fill-opacity="1" /><path clip-path="url(#clip530)" d="M1327.92 773.765 L1327.92 779.239 Q1325.44 777.87 1322.92 777.202 Q1320.44 776.502 1317.89 776.502 Q1312.2 776.502 1309.04 780.13 Q1305.89 783.727 1305.89 790.252 Q1305.89 796.777 1309.04 800.405 Q1312.2 804.002 1317.89 804.002 Q1320.44 804.002 1322.92 803.333 Q1325.44 802.633 1327.92 801.264 L1327.92 806.675 Q1325.47 807.821 1322.83 808.394 Q1320.22 808.967 1317.26 808.967 Q1309.2 808.967 1304.46 803.906 Q1299.72 798.845 1299.72 790.252 Q1299.72 781.531 1304.49 776.534 Q1309.3 771.537 1317.64 771.537 Q1320.34 771.537 1322.92 772.109 Q1325.5 772.651 1327.92 773.765 Z" fill="#000000" fill-rule="nonzero" fill-opacity="1" /><path clip-path="url(#clip530)" d="M1365.86 779.239 Q1368.05 775.292 1371.11 773.414 Q1374.17 771.537 1378.3 771.537 Q1383.87 771.537 1386.9 775.451 Q1389.92 779.335 1389.92 786.528 L1389.92 808.044 L1384.03 808.044 L1384.03 786.719 Q1384.03 781.594 1382.22 779.112 Q1380.4 776.629 1376.68 776.629 Q1372.13 776.629 1369.49 779.653 Q1366.85 782.677 1366.85 787.896 L1366.85 808.044 L1360.96 808.044 L1360.96 786.719 Q1360.96 781.563 1359.14 779.112 Q1357.33 776.629 1353.54 776.629 Q1349.05 776.629 1346.41 779.685 Q1343.77 782.708 1343.77 787.896 L1343.77 808.044 L1337.88 808.044 L1337.88 772.396 L1343.77 772.396 L1343.77 777.934 Q1345.77 774.656 1348.58 773.096 Q1351.38 771.537 1355.23 771.537 Q1359.11 771.537 1361.82 773.51 Q1364.55 775.483 1365.86 779.239 Z" fill="#000000" fill-rule="nonzero" fill-opacity="1" /><path clip-path="url(#clip530)" d="M1415.29 758.519 L1415.29 816.638 L1401.79 816.638 L1401.79 812.086 L1409.4 812.086 L1409.4 763.07 L1401.79 763.07 L1401.79 758.519 L1415.29 758.519 Z" fill="#000000" fill-rule="nonzero" fill-opacity="1" /><polyline clip-path="url(#clip530)" style="stroke:#000000; stroke-linecap:round; stroke-linejoin:round; stroke-width:4; stroke-opacity:1; fill:none" points="281.088,663.18 281.088,127.244 "/>
<polyline clip-path="url(#clip530)" style="stroke:#000000; stroke-linecap:round; stroke-linejoin:round; stroke-width:4; stroke-opacity:1; fill:none" points="281.088,573.857 299.986,573.857 "/>
<polyline clip-path="url(#clip530)" style="stroke:#000000; stroke-linecap:round; stroke-linejoin:round; stroke-width:4; stroke-opacity:1; fill:none" points="281.088,350.551 299.986,350.551 "/>
<polyline clip-path="url(#clip530)" style="stroke:#000000; stroke-linecap:round; stroke-linejoin:round; stroke-width:4; stroke-opacity:1; fill:none" points="281.088,187.079 299.986,187.079 "/>
<polyline clip-path="url(#clip530)" style="stroke:#000000; stroke-linecap:round; stroke-linejoin:round; stroke-width:4; stroke-opacity:1; fill:none" points="281.088,127.244 299.986,127.244 "/>
<path clip-path="url(#clip530)" d="M233.144 559.656 Q229.533 559.656 227.704 563.221 Q225.899 566.762 225.899 573.892 Q225.899 580.998 227.704 584.563 Q229.533 588.105 233.144 588.105 Q236.778 588.105 238.584 584.563 Q240.412 580.998 240.412 573.892 Q240.412 566.762 238.584 563.221 Q236.778 559.656 233.144 559.656 M233.144 555.952 Q238.954 555.952 242.01 560.559 Q245.088 565.142 245.088 573.892 Q245.088 582.619 242.01 587.225 Q238.954 591.809 233.144 591.809 Q227.334 591.809 224.255 587.225 Q221.2 582.619 221.2 573.892 Q221.2 565.142 224.255 560.559 Q227.334 555.952 233.144 555.952 Z" fill="#000000" fill-rule="nonzero" fill-opacity="1" /><path clip-path="url(#clip530)" d="M71.5013 342.9 L71.5013 346.882 Q69.6957 345.886 67.867 345.4 Q66.0615 344.891 64.2096 344.891 Q60.0662 344.891 57.7745 347.53 Q55.4828 350.146 55.4828 354.891 Q55.4828 359.636 57.7745 362.275 Q60.0662 364.891 64.2096 364.891 Q66.0615 364.891 67.867 364.405 Q69.6957 363.895 71.5013 362.9 L71.5013 366.835 Q69.7189 367.669 67.7976 368.085 Q65.8995 368.502 63.7467 368.502 Q57.8902 368.502 54.4412 364.821 Q50.9921 361.141 50.9921 354.891 Q50.9921 348.548 54.4643 344.914 Q57.9597 341.28 64.0245 341.28 Q65.992 341.28 67.867 341.697 Q69.742 342.09 71.5013 342.9 Z" fill="#000000" fill-rule="nonzero" fill-opacity="1" /><path clip-path="url(#clip530)" d="M88.9549 344.891 Q85.529 344.891 83.5382 347.576 Q81.5475 350.238 81.5475 354.891 Q81.5475 359.544 83.5151 362.229 Q85.5058 364.891 88.9549 364.891 Q92.3576 364.891 94.3484 362.206 Q96.3391 359.521 96.3391 354.891 Q96.3391 350.284 94.3484 347.599 Q92.3576 344.891 88.9549 344.891 M88.9549 341.28 Q94.5104 341.28 97.6817 344.891 Q100.853 348.502 100.853 354.891 Q100.853 361.257 97.6817 364.891 Q94.5104 368.502 88.9549 368.502 Q83.3762 368.502 80.2049 364.891 Q77.0568 361.257 77.0568 354.891 Q77.0568 348.502 80.2049 344.891 Q83.3762 341.28 88.9549 341.28 Z" fill="#000000" fill-rule="nonzero" fill-opacity="1" /><path clip-path="url(#clip530)" d="M124.441 342.669 L124.441 346.697 Q122.635 345.771 120.691 345.308 Q118.746 344.845 116.663 344.845 Q113.492 344.845 111.895 345.817 Q110.321 346.789 110.321 348.734 Q110.321 350.215 111.455 351.071 Q112.589 351.905 116.015 352.669 L117.473 352.993 Q122.01 353.965 123.908 355.747 Q125.83 357.507 125.83 360.678 Q125.83 364.289 122.959 366.395 Q120.112 368.502 115.112 368.502 Q113.029 368.502 110.76 368.085 Q108.515 367.692 106.015 366.882 L106.015 362.483 Q108.376 363.71 110.668 364.335 Q112.959 364.937 115.205 364.937 Q118.214 364.937 119.834 363.919 Q121.455 362.877 121.455 361.002 Q121.455 359.266 120.274 358.34 Q119.117 357.414 115.158 356.558 L113.677 356.21 Q109.719 355.377 107.959 353.664 Q106.2 351.928 106.2 348.919 Q106.2 345.261 108.793 343.271 Q111.385 341.28 116.154 341.28 Q118.515 341.28 120.598 341.627 Q122.682 341.974 124.441 342.669 Z" fill="#000000" fill-rule="nonzero" fill-opacity="1" /><path clip-path="url(#clip530)" d="M142.843 331.859 Q139.742 337.183 138.237 342.391 Q136.732 347.599 136.732 352.946 Q136.732 358.294 138.237 363.548 Q139.765 368.78 142.843 374.081 L139.14 374.081 Q135.668 368.641 133.931 363.386 Q132.219 358.132 132.219 352.946 Q132.219 347.784 133.931 342.553 Q135.644 337.322 139.14 331.859 L142.843 331.859 Z" fill="#000000" fill-rule="nonzero" fill-opacity="1" /><path clip-path="url(#clip530)" d="M162.288 348.687 Q159.14 348.687 157.288 350.84 Q155.459 352.993 155.459 356.743 Q155.459 360.47 157.288 362.645 Q159.14 364.798 162.288 364.798 Q165.436 364.798 167.265 362.645 Q169.116 360.47 169.116 356.743 Q169.116 352.993 167.265 350.84 Q165.436 348.687 162.288 348.687 M171.57 334.035 L171.57 338.294 Q169.811 337.46 168.005 337.021 Q166.223 336.581 164.464 336.581 Q159.834 336.581 157.38 339.706 Q154.95 342.831 154.603 349.15 Q155.968 347.136 158.029 346.072 Q160.089 344.984 162.566 344.984 Q167.774 344.984 170.783 348.155 Q173.816 351.303 173.816 356.743 Q173.816 362.067 170.667 365.284 Q167.519 368.502 162.288 368.502 Q156.292 368.502 153.121 363.919 Q149.95 359.312 149.95 350.585 Q149.95 342.391 153.839 337.53 Q157.728 332.646 164.279 332.646 Q166.038 332.646 167.82 332.993 Q169.626 333.34 171.57 334.035 Z" fill="#000000" fill-rule="nonzero" fill-opacity="1" /><path clip-path="url(#clip530)" d="M191.871 336.349 Q188.26 336.349 186.431 339.914 Q184.626 343.456 184.626 350.585 Q184.626 357.692 186.431 361.257 Q188.26 364.798 191.871 364.798 Q195.505 364.798 197.311 361.257 Q199.139 357.692 199.139 350.585 Q199.139 343.456 197.311 339.914 Q195.505 336.349 191.871 336.349 M191.871 332.646 Q197.681 332.646 200.737 337.252 Q203.815 341.835 203.815 350.585 Q203.815 359.312 200.737 363.919 Q197.681 368.502 191.871 368.502 Q186.061 368.502 182.982 363.919 Q179.927 359.312 179.927 350.585 Q179.927 341.835 182.982 337.252 Q186.061 332.646 191.871 332.646 Z" fill="#000000" fill-rule="nonzero" fill-opacity="1" /><path clip-path="url(#clip530)" d="M218.815 335.632 Q216.963 335.632 215.69 336.928 Q214.417 338.201 214.417 340.053 Q214.417 341.882 215.69 343.155 Q216.963 344.405 218.815 344.405 Q220.667 344.405 221.94 343.155 Q223.213 341.882 223.213 340.053 Q223.213 338.224 221.917 336.928 Q220.644 335.632 218.815 335.632 M218.815 332.646 Q220.297 332.646 221.663 333.224 Q223.028 333.78 224.024 334.845 Q225.088 335.886 225.621 337.206 Q226.153 338.525 226.153 340.053 Q226.153 343.109 224 345.238 Q221.871 347.345 218.769 347.345 Q215.644 347.345 213.561 345.261 Q211.477 343.178 211.477 340.053 Q211.477 336.951 213.607 334.798 Q215.737 332.646 218.815 332.646 Z" fill="#000000" fill-rule="nonzero" fill-opacity="1" /><path clip-path="url(#clip530)" d="M234.463 331.859 L238.167 331.859 Q241.639 337.322 243.352 342.553 Q245.088 347.784 245.088 352.946 Q245.088 358.132 243.352 363.386 Q241.639 368.641 238.167 374.081 L234.463 374.081 Q237.542 368.78 239.047 363.548 Q240.574 358.294 240.574 352.946 Q240.574 347.599 239.047 342.391 Q237.542 337.183 234.463 331.859 Z" fill="#000000" fill-rule="nonzero" fill-opacity="1" /><path clip-path="url(#clip530)" d="M81.2234 179.197 L81.2234 183.225 Q79.4179 182.299 77.4735 181.836 Q75.529 181.373 73.4457 181.373 Q70.2744 181.373 68.6772 182.345 Q67.1032 183.317 67.1032 185.262 Q67.1032 186.743 68.2374 187.6 Q69.3717 188.433 72.7976 189.197 L74.2559 189.521 Q78.7929 190.493 80.691 192.276 Q82.6123 194.035 82.6123 197.206 Q82.6123 200.817 79.742 202.924 Q76.8948 205.03 71.8948 205.03 Q69.8115 205.03 67.543 204.614 Q65.2976 204.22 62.7976 203.41 L62.7976 199.012 Q65.1587 200.239 67.4504 200.864 Q69.742 201.465 71.9874 201.465 Q74.9966 201.465 76.617 200.447 Q78.2374 199.405 78.2374 197.53 Q78.2374 195.794 77.0568 194.868 Q75.8994 193.942 71.9411 193.086 L70.4596 192.739 Q66.5013 191.905 64.7421 190.192 Q62.9828 188.456 62.9828 185.447 Q62.9828 181.79 65.5754 179.799 Q68.168 177.808 72.9365 177.808 Q75.2976 177.808 77.3809 178.155 Q79.4642 178.503 81.2234 179.197 Z" fill="#000000" fill-rule="nonzero" fill-opacity="1" /><path clip-path="url(#clip530)" d="M89.3947 178.433 L93.6539 178.433 L93.6539 204.359 L89.3947 204.359 L89.3947 178.433 M89.3947 168.341 L93.6539 168.341 L93.6539 173.734 L89.3947 173.734 L89.3947 168.341 Z" fill="#000000" fill-rule="nonzero" fill-opacity="1" /><path clip-path="url(#clip530)" d="M124.117 188.711 L124.117 204.359 L119.857 204.359 L119.857 188.85 Q119.857 185.169 118.422 183.341 Q116.987 181.512 114.117 181.512 Q110.668 181.512 108.677 183.711 Q106.686 185.91 106.686 189.706 L106.686 204.359 L102.404 204.359 L102.404 178.433 L106.686 178.433 L106.686 182.461 Q108.214 180.123 110.274 178.966 Q112.358 177.808 115.066 177.808 Q119.533 177.808 121.825 180.586 Q124.117 183.341 124.117 188.711 Z" fill="#000000" fill-rule="nonzero" fill-opacity="1" /><path clip-path="url(#clip530)" d="M142.843 168.387 Q139.742 173.711 138.237 178.919 Q136.732 184.128 136.732 189.475 Q136.732 194.822 138.237 200.077 Q139.765 205.308 142.843 210.609 L139.14 210.609 Q135.668 205.169 133.931 199.914 Q132.219 194.66 132.219 189.475 Q132.219 184.313 133.931 179.081 Q135.644 173.85 139.14 168.387 L142.843 168.387 Z" fill="#000000" fill-rule="nonzero" fill-opacity="1" /><path clip-path="url(#clip530)" d="M162.288 185.215 Q159.14 185.215 157.288 187.368 Q155.459 189.521 155.459 193.271 Q155.459 196.998 157.288 199.174 Q159.14 201.327 162.288 201.327 Q165.436 201.327 167.265 199.174 Q169.116 196.998 169.116 193.271 Q169.116 189.521 167.265 187.368 Q165.436 185.215 162.288 185.215 M171.57 170.563 L171.57 174.822 Q169.811 173.989 168.005 173.549 Q166.223 173.109 164.464 173.109 Q159.834 173.109 157.38 176.234 Q154.95 179.359 154.603 185.678 Q155.968 183.665 158.029 182.6 Q160.089 181.512 162.566 181.512 Q167.774 181.512 170.783 184.683 Q173.816 187.831 173.816 193.271 Q173.816 198.595 170.667 201.813 Q167.519 205.03 162.288 205.03 Q156.292 205.03 153.121 200.447 Q149.95 195.84 149.95 187.114 Q149.95 178.919 153.839 174.058 Q157.728 169.174 164.279 169.174 Q166.038 169.174 167.82 169.521 Q169.626 169.868 171.57 170.563 Z" fill="#000000" fill-rule="nonzero" fill-opacity="1" /><path clip-path="url(#clip530)" d="M191.871 172.878 Q188.26 172.878 186.431 176.442 Q184.626 179.984 184.626 187.114 Q184.626 194.22 186.431 197.785 Q188.26 201.327 191.871 201.327 Q195.505 201.327 197.311 197.785 Q199.139 194.22 199.139 187.114 Q199.139 179.984 197.311 176.442 Q195.505 172.878 191.871 172.878 M191.871 169.174 Q197.681 169.174 200.737 173.78 Q203.815 178.364 203.815 187.114 Q203.815 195.84 200.737 200.447 Q197.681 205.03 191.871 205.03 Q186.061 205.03 182.982 200.447 Q179.927 195.84 179.927 187.114 Q179.927 178.364 182.982 173.78 Q186.061 169.174 191.871 169.174 Z" fill="#000000" fill-rule="nonzero" fill-opacity="1" /><path clip-path="url(#clip530)" d="M218.815 172.16 Q216.963 172.16 215.69 173.456 Q214.417 174.729 214.417 176.581 Q214.417 178.41 215.69 179.683 Q216.963 180.933 218.815 180.933 Q220.667 180.933 221.94 179.683 Q223.213 178.41 223.213 176.581 Q223.213 174.753 221.917 173.456 Q220.644 172.16 218.815 172.16 M218.815 169.174 Q220.297 169.174 221.663 169.753 Q223.028 170.308 224.024 171.373 Q225.088 172.415 225.621 173.734 Q226.153 175.054 226.153 176.581 Q226.153 179.637 224 181.766 Q221.871 183.873 218.769 183.873 Q215.644 183.873 213.561 181.79 Q211.477 179.706 211.477 176.581 Q211.477 173.479 213.607 171.327 Q215.737 169.174 218.815 169.174 Z" fill="#000000" fill-rule="nonzero" fill-opacity="1" /><path clip-path="url(#clip530)" d="M234.463 168.387 L238.167 168.387 Q241.639 173.85 243.352 179.081 Q245.088 184.313 245.088 189.475 Q245.088 194.66 243.352 199.914 Q241.639 205.169 238.167 210.609 L234.463 210.609 Q237.542 205.308 239.047 200.077 Q240.574 194.822 240.574 189.475 Q240.574 184.128 239.047 178.919 Q237.542 173.711 234.463 168.387 Z" fill="#000000" fill-rule="nonzero" fill-opacity="1" /><path clip-path="url(#clip530)" d="M225.181 140.589 L232.82 140.589 L232.82 114.223 L224.51 115.89 L224.51 111.631 L232.774 109.964 L237.449 109.964 L237.449 140.589 L245.088 140.589 L245.088 144.524 L225.181 144.524 L225.181 140.589 Z" fill="#000000" fill-rule="nonzero" fill-opacity="1" /><polyline clip-path="url(#clip532)" style="stroke:#009af9; stroke-linecap:round; stroke-linejoin:round; stroke-width:6; stroke-opacity:1; fill:none" points="281.088,575.802 291.447,575.667 301.805,575.266 312.163,574.643 322.522,573.879 332.88,573.077 343.238,572.35 353.597,571.806 363.955,571.533 374.313,571.583 384.672,571.963 395.03,572.637 405.388,573.521 415.747,574.498 426.105,575.432 436.463,576.188 446.822,576.645 457.18,576.722 467.538,576.388 477.897,575.668 488.255,574.644 498.613,573.447 508.972,572.241 519.33,571.199 529.688,570.482 540.047,570.213 550.405,570.46 560.763,571.219 571.122,572.412 581.48,573.896 591.838,575.475 602.197,576.926 612.555,578.031 622.913,578.606 633.272,578.531 643.63,577.772 653.988,576.39 664.347,574.543 674.705,572.467 685.063,570.451 695.422,568.798 705.78,567.786 716.139,567.621 726.497,568.408 736.855,570.122 747.214,572.604 757.572,575.567 767.93,578.63 778.289,581.361 788.647,583.33 799.005,584.178 809.364,583.667 819.722,581.732 830.08,578.511 840.439,574.345 850.797,569.757 861.155,565.407 871.514,562.009 881.872,560.248 892.23,560.68 902.589,563.636 912.947,569.146 923.305,576.884 933.664,586.146 944.022,595.879 954.38,604.741 964.739,611.21 975.097,613.717 985.455,610.784 995.814,601.171 1006.17,584.015 1016.53,558.971 1026.89,526.35 1037.25,487.214 1047.61,443.381 1057.96,397.283 1068.32,351.664 1078.68,309.167 1089.04,271.929 1099.4,241.288 1109.76,217.725 1120.11,200.999 1130.47,190.428 1140.83,185.155 1151.19,184.321 1161.55,187.091 1171.91,192.589 1182.26,199.82 1192.62,207.658 1202.98,214.927 1213.34,220.553 1223.7,223.742 1234.06,224.105 1244.41,221.722 1254.77,217.095 1265.13,211.038 1275.49,204.505 1285.85,198.431 1296.21,193.597 1306.56,190.559 1316.92,189.636 1327.28,190.916 1337.64,194.268 1348,199.336 1358.36,205.537 1368.71,212.074 1379.07,218.019 1389.43,222.433 1399.79,224.537 1410.15,223.87 1420.51,220.405 1430.86,214.579 1441.22,207.233 1451.58,199.475 1461.94,192.499 1472.3,187.429 1482.66,185.236 1493.01,186.753 1503.37,192.758 1513.73,204.047 1524.09,221.412 1534.45,245.484 1544.81,276.459 1555.16,313.837 1565.52,356.273 1575.88,401.646 1586.24,447.337 1596.6,490.641 1606.96,529.167 1617.31,561.141 1627.67,585.54 1638.03,602.09 1648.39,611.165 1658.75,613.653 1669.11,610.81 1679.46,604.122 1689.82,595.156 1700.18,585.422 1710.54,576.243 1720.9,568.652 1731.26,563.323 1741.61,560.557 1751.97,560.3 1762.33,562.204 1772.69,565.699 1783.05,570.095 1793.41,574.678 1803.76,578.797 1814.12,581.937 1824.48,583.771 1834.84,584.179 1845.2,583.237 1855.56,581.194 1865.91,578.418 1876.27,575.341 1886.63,572.394 1896.99,569.955 1907.35,568.301 1917.71,567.583 1928.06,567.816 1938.42,568.887 1948.78,570.582 1959.14,572.619 1969.5,574.695 1979.86,576.521 1990.21,577.866 2000.57,578.579 2010.93,578.603 2021.29,577.982 2031.65,576.84 2042.01,575.366 2052.36,573.78 2062.72,572.304 2073.08,571.133 2083.44,570.407 2093.8,570.198 2104.16,570.504 2114.51,571.254 2124.87,572.319 2135.23,573.537 2145.59,574.733 2155.95,575.743 2166.31,576.441 2176.66,576.747 2187.02,576.639 2197.38,576.154 2207.74,575.376 2218.1,574.428 2228.46,573.447 2238.81,572.57 2249.17,571.912 2259.53,571.553 2269.89,571.528 2280.25,571.825 2290.61,572.389 2300.96,573.13 2311.32,573.939 2321.68,574.701 2332.04,575.314 2342.4,575.7 2352.76,575.815 "/>
<polyline clip-path="url(#clip532)" style="stroke:#e26f46; stroke-linecap:round; stroke-linejoin:round; stroke-width:6; stroke-opacity:1; fill:none" points="281.088,573.55 291.447,573.577 301.805,573.644 312.163,573.743 322.522,573.861 332.88,573.98 343.238,574.085 353.597,574.16 363.955,574.193 374.313,574.179 384.672,574.119 395.03,574.02 405.388,573.895 415.747,573.762 426.105,573.639 436.463,573.545 446.822,573.492 457.18,573.491 467.538,573.542 477.897,573.639 488.255,573.77 498.613,573.917 508.972,574.06 519.33,574.177 529.688,574.251 540.047,574.272 550.405,574.233 560.763,574.139 571.122,574.002 581.48,573.84 591.838,573.676 602.197,573.532 612.555,573.431 622.913,573.388 633.272,573.41 643.63,573.497 653.988,573.637 664.347,573.812 674.705,573.997 685.063,574.167 695.422,574.294 705.78,574.361 716.139,574.353 726.497,574.27 736.855,574.122 747.214,573.926 757.572,573.71 767.93,573.504 778.289,573.338 788.647,573.238 799.005,573.219 809.364,573.286 819.722,573.432 830.08,573.636 840.439,573.869 850.797,574.095 861.155,574.279 871.514,574.39 881.872,574.41 892.23,574.333 902.589,574.169 912.947,573.946 923.305,573.703 933.664,573.491 944.022,573.353 954.38,573.32 964.739,573.404 975.097,573.588 985.455,573.834 995.814,574.062 1006.17,574.13 1016.53,573.805 1026.89,572.769 1037.25,570.68 1047.61,567.303 1057.96,562.676 1068.32,557.232 1078.68,551.806 1089.04,547.469 1099.4,545.235 1109.76,545.739 1120.11,549.021 1130.47,554.504 1140.83,561.173 1151.19,567.883 1161.55,573.666 1171.91,577.924 1182.26,580.479 1192.62,581.485 1202.98,581.287 1213.34,580.284 1223.7,578.84 1234.06,577.264 1244.41,575.818 1254.77,574.75 1265.13,574.3 1275.49,574.682 1285.85,576.031 1296.21,578.336 1306.56,581.4 1316.92,584.855 1327.28,588.229 1337.64,591.063 1348,593.017 1358.36,593.942 1368.71,593.887 1379.07,593.045 1389.43,591.688 1399.79,590.103 1410.15,588.562 1420.51,587.334 1430.86,586.706 1441.22,587 1451.58,588.553 1461.94,591.633 1472.3,596.311 1482.66,602.323 1493.01,608.992 1503.37,615.283 1513.73,620.001 1524.09,622.11 1534.45,621.037 1544.81,616.859 1555.16,610.279 1565.52,602.405 1575.88,594.422 1586.24,587.285 1596.6,581.551 1606.96,577.367 1617.31,574.585 1627.67,572.918 1638.03,572.067 1648.39,571.787 1658.75,571.89 1669.11,572.23 1679.46,572.683 1689.82,573.15 1700.18,573.556 1710.54,573.858 1720.9,574.045 1731.26,574.126 1741.61,574.125 1751.97,574.069 1762.33,573.989 1772.69,573.909 1783.05,573.848 1793.41,573.817 1803.76,573.816 1814.12,573.839 1824.48,573.876 1834.84,573.914 1845.2,573.942 1855.56,573.951 1865.91,573.938 1876.27,573.904 1886.63,573.855 1896.99,573.8 1907.35,573.749 1917.71,573.712 1928.06,573.698 1938.42,573.708 1948.78,573.744 1959.14,573.801 1969.5,573.869 1979.86,573.939 1990.21,574 2000.57,574.042 2010.93,574.058 2021.29,574.045 2031.65,574.004 2042.01,573.942 2052.36,573.866 2062.72,573.789 2073.08,573.721 2083.44,573.672 2093.8,573.649 2104.16,573.656 2114.51,573.692 2124.87,573.752 2135.23,573.826 2145.59,573.906 2155.95,573.978 2166.31,574.033 2176.66,574.062 2187.02,574.063 2197.38,574.034 2207.74,573.981 2218.1,573.91 2228.46,573.832 2238.81,573.758 2249.17,573.699 2259.53,573.662 2269.89,573.653 2280.25,573.673 2290.61,573.719 2300.96,573.784 2311.32,573.858 2321.68,573.932 2332.04,573.995 2342.4,574.037 2352.76,574.054 "/>
<polyline clip-path="url(#clip532)" style="stroke:#3da44d; stroke-linecap:round; stroke-linejoin:round; stroke-width:6; stroke-opacity:1; fill:none" points="281.088,127.251 291.447,127.251 301.805,127.249 312.163,127.248 322.522,127.247 332.88,127.248 343.238,127.25 353.597,127.252 363.955,127.253 374.313,127.253 384.672,127.252 395.03,127.249 405.388,127.248 415.747,127.248 426.105,127.251 436.463,127.254 446.822,127.257 457.18,127.257 467.538,127.255 477.897,127.252 488.255,127.249 498.613,127.249 508.972,127.252 519.33,127.257 529.688,127.262 540.047,127.264 550.405,127.262 560.763,127.257 571.122,127.252 581.48,127.25 591.838,127.253 602.197,127.261 612.555,127.27 622.913,127.276 633.272,127.275 643.63,127.268 653.988,127.258 664.347,127.252 674.705,127.254 685.063,127.265 695.422,127.281 705.78,127.294 716.139,127.297 726.497,127.287 736.855,127.27 747.214,127.256 757.572,127.258 767.93,127.281 778.289,127.32 788.647,127.358 799.005,127.377 809.364,127.366 819.722,127.329 830.08,127.284 840.439,127.261 850.797,127.28 861.155,127.343 871.514,127.422 881.872,127.474 892.23,127.462 902.589,127.386 912.947,127.296 923.305,127.284 933.664,127.447 944.022,127.827 954.38,128.36 964.739,128.863 975.097,129.087 985.455,128.838 995.814,128.15 1006.17,127.439 1016.53,127.595 1026.89,129.929 1037.25,135.975 1047.61,147.148 1057.96,164.352 1068.32,187.635 1078.68,216 1089.04,247.447 1099.4,279.264 1109.76,308.488 1120.11,332.456 1130.47,349.28 1140.83,358.152 1151.19,359.402 1161.55,354.332 1171.91,344.874 1182.26,333.2 1192.62,321.357 1202.98,311.029 1213.34,303.418 1223.7,299.234 1234.06,298.742 1244.41,301.814 1254.77,307.961 1265.13,316.366 1275.49,325.918 1285.85,335.313 1296.21,343.207 1306.56,348.422 1316.92,350.158 1327.28,348.145 1337.64,342.695 1348,334.645 1358.36,325.191 1368.71,315.68 1379.07,307.41 1389.43,301.468 1399.79,298.652 1410.15,299.421 1420.51,303.876 1430.86,311.721 1441.22,322.211 1451.58,334.105 1461.94,345.688 1472.3,354.891 1482.66,359.548 1493.01,357.761 1503.37,348.291 1513.73,330.889 1524.09,306.449 1534.45,276.931 1544.81,245.039 1555.16,213.735 1565.52,185.693 1575.88,162.845 1586.24,146.107 1596.6,135.359 1606.96,129.645 1617.31,127.526 1627.67,127.477 1638.03,128.21 1648.39,128.874 1658.75,129.085 1669.11,128.832 1679.46,128.319 1689.82,127.792 1700.18,127.427 1710.54,127.28 1720.9,127.301 1731.26,127.393 1741.61,127.466 1751.97,127.472 1762.33,127.417 1772.69,127.337 1783.05,127.277 1793.41,127.261 1803.76,127.287 1814.12,127.332 1824.48,127.368 1834.84,127.377 1845.2,127.355 1855.56,127.316 1865.91,127.279 1876.27,127.257 1886.63,127.257 1896.99,127.271 1907.35,127.288 1917.71,127.297 1928.06,127.294 1938.42,127.28 1948.78,127.264 1959.14,127.253 1969.5,127.252 1979.86,127.259 1990.21,127.269 2000.57,127.276 2010.93,127.276 2021.29,127.269 2031.65,127.26 2042.01,127.252 2052.36,127.25 2062.72,127.252 2073.08,127.258 2083.44,127.263 2093.8,127.264 2104.16,127.262 2114.51,127.256 2124.87,127.251 2135.23,127.249 2145.59,127.249 2155.95,127.252 2166.31,127.256 2176.66,127.257 2187.02,127.257 2197.38,127.254 2207.74,127.25 2218.1,127.248 2228.46,127.248 2238.81,127.249 2249.17,127.252 2259.53,127.253 2269.89,127.253 2280.25,127.252 2290.61,127.25 2300.96,127.248 2311.32,127.247 2321.68,127.248 2332.04,127.249 2342.4,127.251 2352.76,127.251 "/>
<polyline clip-path="url(#clip532)" style="stroke:#c271d2; stroke-linecap:round; stroke-linejoin:round; stroke-width:6; stroke-opacity:1; fill:none" points="281.088,571.888 291.447,572.025 301.805,572.433 312.163,573.063 322.522,573.835 332.88,573.067 343.238,572.332 353.597,571.784 363.955,571.509 374.313,571.56 384.672,571.945 395.03,572.626 405.388,573.518 415.747,573.21 426.105,572.267 436.463,571.506 446.822,571.046 457.18,570.969 467.538,571.307 477.897,572.034 488.255,573.066 498.613,573.443 508.972,572.228 519.33,571.18 529.688,570.459 540.047,570.19 550.405,570.439 560.763,571.204 571.122,572.405 581.48,573.814 591.838,572.229 602.197,570.771 612.555,569.662 622.913,569.085 633.272,569.162 643.63,569.926 653.988,571.315 664.347,573.17 674.705,572.46 685.063,570.437 695.422,568.78 705.78,567.765 716.139,567.602 726.497,568.393 736.855,570.113 747.214,572.602 757.572,572.141 767.93,569.071 778.289,566.336 788.647,564.364 799.005,563.517 809.364,564.031 819.722,565.971 830.08,569.198 840.439,573.37 850.797,569.751 861.155,565.396 871.514,561.997 881.872,560.237 892.23,560.672 902.589,563.632 912.947,569.146 923.305,570.827 933.664,561.563 944.022,551.829 954.38,542.968 964.739,536.501 975.097,533.997 985.455,536.931 995.814,546.543 1006.17,563.696 1016.53,558.971 1026.89,526.337 1037.25,487.156 1047.61,443.217 1057.96,396.93 1068.32,351.043 1078.68,308.251 1089.04,270.778 1099.4,240.059 1109.76,216.616 1120.11,200.173 1130.47,189.94 1140.83,184.948 1151.19,184.275 1161.55,187.091 1171.91,192.568 1182.26,199.762 1192.62,207.579 1202.98,214.85 1213.34,220.495 1223.7,223.706 1234.06,224.089 1244.41,221.716 1254.77,217.094 1265.13,211.037 1275.49,204.504 1285.85,198.425 1296.21,193.57 1306.56,190.485 1316.92,189.479 1327.28,190.647 1337.64,193.878 1348,198.847 1358.36,204.989 1368.71,211.52 1379.07,217.502 1389.43,221.981 1399.79,224.159 1410.15,223.561 1420.51,220.148 1430.86,214.349 1441.22,206.997 1451.58,199.186 1461.94,192.085 1472.3,186.777 1482.66,184.195 1493.01,185.162 1503.37,190.513 1513.73,201.179 1524.09,218.124 1534.45,242.112 1544.81,273.366 1555.16,311.299 1565.52,354.409 1575.88,400.422 1586.24,446.626 1596.6,490.286 1606.96,529.03 1617.31,561.12 1627.67,562.137 1638.03,545.568 1648.39,536.493 1658.75,534.013 1669.11,536.868 1679.46,543.57 1689.82,552.547 1700.18,562.289 1710.54,571.471 1720.9,568.648 1731.26,563.319 1741.61,560.554 1751.97,560.299 1762.33,562.203 1772.69,565.699 1783.05,570.095 1793.41,573.035 1803.76,568.918 1814.12,565.777 1824.48,563.943 1834.84,563.535 1845.2,564.477 1855.56,566.52 1865.91,569.295 1876.27,572.373 1886.63,572.394 1896.99,569.954 1907.35,568.3 1917.71,567.581 1928.06,567.814 1938.42,568.885 1948.78,570.58 1959.14,572.618 1969.5,573.02 1979.86,571.192 1990.21,569.846 2000.57,569.132 2010.93,569.107 2021.29,569.728 2031.65,570.871 2042.01,572.347 2052.36,573.779 2062.72,572.303 2073.08,571.13 2083.44,570.402 2093.8,570.192 2104.16,570.498 2114.51,571.249 2124.87,572.316 2135.23,573.536 2145.59,572.98 2155.95,571.967 2166.31,571.267 2176.66,570.96 2187.02,571.068 2197.38,571.554 2207.74,572.333 2218.1,573.284 2228.46,573.447 2238.81,572.566 2249.17,571.906 2259.53,571.544 2269.89,571.519 2280.25,571.816 2290.61,572.382 2300.96,573.126 2311.32,573.775 2321.68,573.01 2332.04,572.394 2342.4,572.005 2352.76,571.889 "/>
<path clip-path="url(#clip530)" d="M1959.61 516.756 L2283.7 516.756 L2283.7 257.556 L1959.61 257.556  Z" fill="#ffffff" fill-rule="evenodd" fill-opacity="1"/>
<polyline clip-path="url(#clip530)" style="stroke:#000000; stroke-linecap:round; stroke-linejoin:round; stroke-width:4; stroke-opacity:1; fill:none" points="1959.61,516.756 2283.7,516.756 2283.7,257.556 1959.61,257.556 1959.61,516.756 "/>
<polyline clip-path="url(#clip530)" style="stroke:#009af9; stroke-linecap:round; stroke-linejoin:round; stroke-width:6; stroke-opacity:1; fill:none" points="1982.63,309.396 2120.74,309.396 "/>
<path clip-path="url(#clip530)" d="M2143.76 292.116 L2150.73 292.116 L2159.55 315.635 L2168.41 292.116 L2175.38 292.116 L2175.38 326.676 L2170.82 326.676 L2170.82 296.329 L2161.91 320.033 L2157.21 320.033 L2148.3 296.329 L2148.3 326.676 L2143.76 326.676 L2143.76 292.116 Z" fill="#000000" fill-rule="nonzero" fill-opacity="1" /><path clip-path="url(#clip530)" d="M2206.03 300.751 L2196.65 313.366 L2206.52 326.676 L2201.49 326.676 L2193.95 316.491 L2186.4 326.676 L2181.38 326.676 L2191.45 313.112 L2182.23 300.751 L2187.26 300.751 L2194.13 309.987 L2201.01 300.751 L2206.03 300.751 Z" fill="#000000" fill-rule="nonzero" fill-opacity="1" /><polyline clip-path="url(#clip530)" style="stroke:#e26f46; stroke-linecap:round; stroke-linejoin:round; stroke-width:6; stroke-opacity:1; fill:none" points="1982.63,361.236 2120.74,361.236 "/>
<path clip-path="url(#clip530)" d="M2143.76 343.956 L2150.73 343.956 L2159.55 367.475 L2168.41 343.956 L2175.38 343.956 L2175.38 378.516 L2170.82 378.516 L2170.82 348.169 L2161.91 371.873 L2157.21 371.873 L2148.3 348.169 L2148.3 378.516 L2143.76 378.516 L2143.76 343.956 Z" fill="#000000" fill-rule="nonzero" fill-opacity="1" /><path clip-path="url(#clip530)" d="M2195.27 380.924 Q2193.46 385.553 2191.75 386.966 Q2190.03 388.378 2187.16 388.378 L2183.76 388.378 L2183.76 384.813 L2186.26 384.813 Q2188.02 384.813 2188.99 383.979 Q2189.96 383.146 2191.15 380.044 L2191.91 378.1 L2181.42 352.591 L2185.94 352.591 L2194.04 372.868 L2202.14 352.591 L2206.65 352.591 L2195.27 380.924 Z" fill="#000000" fill-rule="nonzero" fill-opacity="1" /><polyline clip-path="url(#clip530)" style="stroke:#3da44d; stroke-linecap:round; stroke-linejoin:round; stroke-width:6; stroke-opacity:1; fill:none" points="1982.63,413.076 2120.74,413.076 "/>
<path clip-path="url(#clip530)" d="M2143.76 395.796 L2150.73 395.796 L2159.55 419.315 L2168.41 395.796 L2175.38 395.796 L2175.38 430.356 L2170.82 430.356 L2170.82 400.009 L2161.91 423.713 L2157.21 423.713 L2148.3 400.009 L2148.3 430.356 L2143.76 430.356 L2143.76 395.796 Z" fill="#000000" fill-rule="nonzero" fill-opacity="1" /><path clip-path="url(#clip530)" d="M2182.63 404.431 L2202.86 404.431 L2202.86 408.32 L2186.84 426.954 L2202.86 426.954 L2202.86 430.356 L2182.05 430.356 L2182.05 426.468 L2198.07 407.833 L2182.63 407.833 L2182.63 404.431 Z" fill="#000000" fill-rule="nonzero" fill-opacity="1" /><polyline clip-path="url(#clip530)" style="stroke:#c271d2; stroke-linecap:round; stroke-linejoin:round; stroke-width:6; stroke-opacity:1; fill:none" points="1982.63,464.916 2120.74,464.916 "/>
<path clip-path="url(#clip530)" d="M2147.7 445.97 L2147.7 493.377 L2143.76 493.377 L2143.76 445.97 L2147.7 445.97 Z" fill="#000000" fill-rule="nonzero" fill-opacity="1" /><path clip-path="url(#clip530)" d="M2158.37 447.636 L2165.34 447.636 L2174.15 471.155 L2183.02 447.636 L2189.99 447.636 L2189.99 482.196 L2185.43 482.196 L2185.43 451.849 L2176.52 475.553 L2171.82 475.553 L2162.9 451.849 L2162.9 482.196 L2158.37 482.196 L2158.37 447.636 Z" fill="#000000" fill-rule="nonzero" fill-opacity="1" /><path clip-path="url(#clip530)" d="M2220.64 456.271 L2211.26 468.886 L2221.12 482.196 L2216.1 482.196 L2208.55 472.011 L2201.01 482.196 L2195.98 482.196 L2206.05 468.632 L2196.84 456.271 L2201.86 456.271 L2208.74 465.507 L2215.61 456.271 L2220.64 456.271 Z" fill="#000000" fill-rule="nonzero" fill-opacity="1" /><path clip-path="url(#clip530)" d="M2237.93 484.604 Q2236.12 489.233 2234.41 490.646 Q2232.7 492.058 2229.83 492.058 L2226.42 492.058 L2226.42 488.493 L2228.92 488.493 Q2230.68 488.493 2231.65 487.659 Q2232.63 486.826 2233.81 483.724 L2234.57 481.78 L2224.08 456.271 L2228.6 456.271 L2236.7 476.548 L2244.8 456.271 L2249.32 456.271 L2237.93 484.604 Z" fill="#000000" fill-rule="nonzero" fill-opacity="1" /><path clip-path="url(#clip530)" d="M2260.68 445.97 L2260.68 493.377 L2256.75 493.377 L2256.75 445.97 L2260.68 445.97 Z" fill="#000000" fill-rule="nonzero" fill-opacity="1" /><path clip-path="url(#clip530)" d="M281.088 1423.18 L2352.76 1423.18 L2352.76 887.244 L281.088 887.244  Z" fill="#ffffff" fill-rule="evenodd" fill-opacity="1"/>
<defs>
  <clipPath id="clip533">
    <rect x="281" y="887" width="2073" height="537"/>
  </clipPath>
</defs>
<polyline clip-path="url(#clip533)" style="stroke:#000000; stroke-linecap:round; stroke-linejoin:round; stroke-width:2; stroke-opacity:0.1; fill:none" points="281.088,1423.18 281.088,887.244 "/>
<polyline clip-path="url(#clip533)" style="stroke:#000000; stroke-linecap:round; stroke-linejoin:round; stroke-width:2; stroke-opacity:0.1; fill:none" points="1057.96,1423.18 1057.96,887.244 "/>
<polyline clip-path="url(#clip533)" style="stroke:#000000; stroke-linecap:round; stroke-linejoin:round; stroke-width:2; stroke-opacity:0.1; fill:none" points="1316.92,1423.18 1316.92,887.244 "/>
<polyline clip-path="url(#clip533)" style="stroke:#000000; stroke-linecap:round; stroke-linejoin:round; stroke-width:2; stroke-opacity:0.1; fill:none" points="1575.88,1423.18 1575.88,887.244 "/>
<polyline clip-path="url(#clip533)" style="stroke:#000000; stroke-linecap:round; stroke-linejoin:round; stroke-width:2; stroke-opacity:0.1; fill:none" points="2352.76,1423.18 2352.76,887.244 "/>
<polyline clip-path="url(#clip533)" style="stroke:#000000; stroke-linecap:round; stroke-linejoin:round; stroke-width:2; stroke-opacity:0.1; fill:none" points="281.088,1396.66 2352.76,1396.66 "/>
<polyline clip-path="url(#clip533)" style="stroke:#000000; stroke-linecap:round; stroke-linejoin:round; stroke-width:2; stroke-opacity:0.1; fill:none" points="281.088,1316.17 2352.76,1316.17 "/>
<polyline clip-path="url(#clip533)" style="stroke:#000000; stroke-linecap:round; stroke-linejoin:round; stroke-width:2; stroke-opacity:0.1; fill:none" points="281.088,1235.69 2352.76,1235.69 "/>
<polyline clip-path="url(#clip533)" style="stroke:#000000; stroke-linecap:round; stroke-linejoin:round; stroke-width:2; stroke-opacity:0.1; fill:none" points="281.088,1155.21 2352.76,1155.21 "/>
<polyline clip-path="url(#clip533)" style="stroke:#000000; stroke-linecap:round; stroke-linejoin:round; stroke-width:2; stroke-opacity:0.1; fill:none" points="281.088,1074.72 2352.76,1074.72 "/>
<polyline clip-path="url(#clip533)" style="stroke:#000000; stroke-linecap:round; stroke-linejoin:round; stroke-width:2; stroke-opacity:0.1; fill:none" points="281.088,994.241 2352.76,994.241 "/>
<polyline clip-path="url(#clip533)" style="stroke:#000000; stroke-linecap:round; stroke-linejoin:round; stroke-width:2; stroke-opacity:0.1; fill:none" points="281.088,913.758 2352.76,913.758 "/>
<polyline clip-path="url(#clip530)" style="stroke:#000000; stroke-linecap:round; stroke-linejoin:round; stroke-width:4; stroke-opacity:1; fill:none" points="281.088,1423.18 2352.76,1423.18 "/>
<polyline clip-path="url(#clip530)" style="stroke:#000000; stroke-linecap:round; stroke-linejoin:round; stroke-width:4; stroke-opacity:1; fill:none" points="281.088,1423.18 281.088,1404.28 "/>
<polyline clip-path="url(#clip530)" style="stroke:#000000; stroke-linecap:round; stroke-linejoin:round; stroke-width:4; stroke-opacity:1; fill:none" points="1057.96,1423.18 1057.96,1404.28 "/>
<polyline clip-path="url(#clip530)" style="stroke:#000000; stroke-linecap:round; stroke-linejoin:round; stroke-width:4; stroke-opacity:1; fill:none" points="1316.92,1423.18 1316.92,1404.28 "/>
<polyline clip-path="url(#clip530)" style="stroke:#000000; stroke-linecap:round; stroke-linejoin:round; stroke-width:4; stroke-opacity:1; fill:none" points="1575.88,1423.18 1575.88,1404.28 "/>
<polyline clip-path="url(#clip530)" style="stroke:#000000; stroke-linecap:round; stroke-linejoin:round; stroke-width:4; stroke-opacity:1; fill:none" points="2352.76,1423.18 2352.76,1404.28 "/>
<path clip-path="url(#clip530)" d="M212.535 1468.75 L242.211 1468.75 L242.211 1472.69 L212.535 1472.69 L212.535 1468.75 Z" fill="#000000" fill-rule="nonzero" fill-opacity="1" /><path clip-path="url(#clip530)" d="M253.114 1481.64 L260.753 1481.64 L260.753 1455.28 L252.443 1456.95 L252.443 1452.69 L260.706 1451.02 L265.382 1451.02 L265.382 1481.64 L273.021 1481.64 L273.021 1485.58 L253.114 1485.58 L253.114 1481.64 Z" fill="#000000" fill-rule="nonzero" fill-opacity="1" /><path clip-path="url(#clip530)" d="M282.466 1479.7 L287.35 1479.7 L287.35 1485.58 L282.466 1485.58 L282.466 1479.7 Z" fill="#000000" fill-rule="nonzero" fill-opacity="1" /><path clip-path="url(#clip530)" d="M307.535 1454.1 Q303.924 1454.1 302.095 1457.66 Q300.29 1461.2 300.29 1468.33 Q300.29 1475.44 302.095 1479.01 Q303.924 1482.55 307.535 1482.55 Q311.169 1482.55 312.975 1479.01 Q314.803 1475.44 314.803 1468.33 Q314.803 1461.2 312.975 1457.66 Q311.169 1454.1 307.535 1454.1 M307.535 1450.39 Q313.345 1450.39 316.401 1455 Q319.479 1459.58 319.479 1468.33 Q319.479 1477.06 316.401 1481.67 Q313.345 1486.25 307.535 1486.25 Q301.725 1486.25 298.646 1481.67 Q295.591 1477.06 295.591 1468.33 Q295.591 1459.58 298.646 1455 Q301.725 1450.39 307.535 1450.39 Z" fill="#000000" fill-rule="nonzero" fill-opacity="1" /><path clip-path="url(#clip530)" d="M337.697 1454.1 Q334.086 1454.1 332.257 1457.66 Q330.451 1461.2 330.451 1468.33 Q330.451 1475.44 332.257 1479.01 Q334.086 1482.55 337.697 1482.55 Q341.331 1482.55 343.137 1479.01 Q344.965 1475.44 344.965 1468.33 Q344.965 1461.2 343.137 1457.66 Q341.331 1454.1 337.697 1454.1 M337.697 1450.39 Q343.507 1450.39 346.562 1455 Q349.641 1459.58 349.641 1468.33 Q349.641 1477.06 346.562 1481.67 Q343.507 1486.25 337.697 1486.25 Q331.887 1486.25 328.808 1481.67 Q325.752 1477.06 325.752 1468.33 Q325.752 1459.58 328.808 1455 Q331.887 1450.39 337.697 1450.39 Z" fill="#000000" fill-rule="nonzero" fill-opacity="1" /><path clip-path="url(#clip530)" d="M989.908 1468.75 L1019.58 1468.75 L1019.58 1472.69 L989.908 1472.69 L989.908 1468.75 Z" fill="#000000" fill-rule="nonzero" fill-opacity="1" /><path clip-path="url(#clip530)" d="M1039.68 1454.1 Q1036.07 1454.1 1034.24 1457.66 Q1032.43 1461.2 1032.43 1468.33 Q1032.43 1475.44 1034.24 1479.01 Q1036.07 1482.55 1039.68 1482.55 Q1043.31 1482.55 1045.12 1479.01 Q1046.95 1475.44 1046.95 1468.33 Q1046.95 1461.2 1045.12 1457.66 Q1043.31 1454.1 1039.68 1454.1 M1039.68 1450.39 Q1045.49 1450.39 1048.54 1455 Q1051.62 1459.58 1051.62 1468.33 Q1051.62 1477.06 1048.54 1481.67 Q1045.49 1486.25 1039.68 1486.25 Q1033.87 1486.25 1030.79 1481.67 Q1027.73 1477.06 1027.73 1468.33 Q1027.73 1459.58 1030.79 1455 Q1033.87 1450.39 1039.68 1450.39 Z" fill="#000000" fill-rule="nonzero" fill-opacity="1" /><path clip-path="url(#clip530)" d="M1059.84 1479.7 L1064.72 1479.7 L1064.72 1485.58 L1059.84 1485.58 L1059.84 1479.7 Z" fill="#000000" fill-rule="nonzero" fill-opacity="1" /><path clip-path="url(#clip530)" d="M1078.94 1481.64 L1095.26 1481.64 L1095.26 1485.58 L1073.31 1485.58 L1073.31 1481.64 Q1075.97 1478.89 1080.56 1474.26 Q1085.16 1469.61 1086.34 1468.27 Q1088.59 1465.74 1089.47 1464.01 Q1090.37 1462.25 1090.37 1460.56 Q1090.37 1457.8 1088.43 1456.07 Q1086.51 1454.33 1083.4 1454.33 Q1081.2 1454.33 1078.75 1455.09 Q1076.32 1455.86 1073.54 1457.41 L1073.54 1452.69 Q1076.37 1451.55 1078.82 1450.97 Q1081.27 1450.39 1083.31 1450.39 Q1088.68 1450.39 1091.88 1453.08 Q1095.07 1455.77 1095.07 1460.26 Q1095.07 1462.39 1094.26 1464.31 Q1093.47 1466.2 1091.37 1468.8 Q1090.79 1469.47 1087.69 1472.69 Q1084.58 1475.88 1078.94 1481.64 Z" fill="#000000" fill-rule="nonzero" fill-opacity="1" /><path clip-path="url(#clip530)" d="M1105.12 1451.02 L1123.47 1451.02 L1123.47 1454.96 L1109.4 1454.96 L1109.4 1463.43 Q1110.42 1463.08 1111.44 1462.92 Q1112.45 1462.73 1113.47 1462.73 Q1119.26 1462.73 1122.64 1465.9 Q1126.02 1469.08 1126.02 1474.49 Q1126.02 1480.07 1122.55 1483.17 Q1119.07 1486.25 1112.76 1486.25 Q1110.58 1486.25 1108.31 1485.88 Q1106.07 1485.51 1103.66 1484.77 L1103.66 1480.07 Q1105.74 1481.2 1107.96 1481.76 Q1110.19 1482.32 1112.66 1482.32 Q1116.67 1482.32 1119 1480.21 Q1121.34 1478.1 1121.34 1474.49 Q1121.34 1470.88 1119 1468.77 Q1116.67 1466.67 1112.66 1466.67 Q1110.79 1466.67 1108.91 1467.08 Q1107.06 1467.5 1105.12 1468.38 L1105.12 1451.02 Z" fill="#000000" fill-rule="nonzero" fill-opacity="1" /><path clip-path="url(#clip530)" d="M1279.23 1454.1 Q1275.61 1454.1 1273.79 1457.66 Q1271.98 1461.2 1271.98 1468.33 Q1271.98 1475.44 1273.79 1479.01 Q1275.61 1482.55 1279.23 1482.55 Q1282.86 1482.55 1284.67 1479.01 Q1286.49 1475.44 1286.49 1468.33 Q1286.49 1461.2 1284.67 1457.66 Q1282.86 1454.1 1279.23 1454.1 M1279.23 1450.39 Q1285.04 1450.39 1288.09 1455 Q1291.17 1459.58 1291.17 1468.33 Q1291.17 1477.06 1288.09 1481.67 Q1285.04 1486.25 1279.23 1486.25 Q1273.42 1486.25 1270.34 1481.67 Q1267.28 1477.06 1267.28 1468.33 Q1267.28 1459.58 1270.34 1455 Q1273.42 1450.39 1279.23 1450.39 Z" fill="#000000" fill-rule="nonzero" fill-opacity="1" /><path clip-path="url(#clip530)" d="M1299.39 1479.7 L1304.27 1479.7 L1304.27 1485.58 L1299.39 1485.58 L1299.39 1479.7 Z" fill="#000000" fill-rule="nonzero" fill-opacity="1" /><path clip-path="url(#clip530)" d="M1324.46 1454.1 Q1320.85 1454.1 1319.02 1457.66 Q1317.21 1461.2 1317.21 1468.33 Q1317.21 1475.44 1319.02 1479.01 Q1320.85 1482.55 1324.46 1482.55 Q1328.09 1482.55 1329.9 1479.01 Q1331.73 1475.44 1331.73 1468.33 Q1331.73 1461.2 1329.9 1457.66 Q1328.09 1454.1 1324.46 1454.1 M1324.46 1450.39 Q1330.27 1450.39 1333.32 1455 Q1336.4 1459.58 1336.4 1468.33 Q1336.4 1477.06 1333.32 1481.67 Q1330.27 1486.25 1324.46 1486.25 Q1318.65 1486.25 1315.57 1481.67 Q1312.51 1477.06 1312.51 1468.33 Q1312.51 1459.58 1315.57 1455 Q1318.65 1450.39 1324.46 1450.39 Z" fill="#000000" fill-rule="nonzero" fill-opacity="1" /><path clip-path="url(#clip530)" d="M1354.62 1454.1 Q1351.01 1454.1 1349.18 1457.66 Q1347.37 1461.2 1347.37 1468.33 Q1347.37 1475.44 1349.18 1479.01 Q1351.01 1482.55 1354.62 1482.55 Q1358.25 1482.55 1360.06 1479.01 Q1361.89 1475.44 1361.89 1468.33 Q1361.89 1461.2 1360.06 1457.66 Q1358.25 1454.1 1354.62 1454.1 M1354.62 1450.39 Q1360.43 1450.39 1363.48 1455 Q1366.56 1459.58 1366.56 1468.33 Q1366.56 1477.06 1363.48 1481.67 Q1360.43 1486.25 1354.62 1486.25 Q1348.81 1486.25 1345.73 1481.67 Q1342.67 1477.06 1342.67 1468.33 Q1342.67 1459.58 1345.73 1455 Q1348.81 1450.39 1354.62 1450.39 Z" fill="#000000" fill-rule="nonzero" fill-opacity="1" /><path clip-path="url(#clip530)" d="M1538.68 1454.1 Q1535.07 1454.1 1533.24 1457.66 Q1531.44 1461.2 1531.44 1468.33 Q1531.44 1475.44 1533.24 1479.01 Q1535.07 1482.55 1538.68 1482.55 Q1542.32 1482.55 1544.12 1479.01 Q1545.95 1475.44 1545.95 1468.33 Q1545.95 1461.2 1544.12 1457.66 Q1542.32 1454.1 1538.68 1454.1 M1538.68 1450.39 Q1544.49 1450.39 1547.55 1455 Q1550.63 1459.58 1550.63 1468.33 Q1550.63 1477.06 1547.55 1481.67 Q1544.49 1486.25 1538.68 1486.25 Q1532.87 1486.25 1529.79 1481.67 Q1526.74 1477.06 1526.74 1468.33 Q1526.74 1459.58 1529.79 1455 Q1532.87 1450.39 1538.68 1450.39 Z" fill="#000000" fill-rule="nonzero" fill-opacity="1" /><path clip-path="url(#clip530)" d="M1558.84 1479.7 L1563.73 1479.7 L1563.73 1485.58 L1558.84 1485.58 L1558.84 1479.7 Z" fill="#000000" fill-rule="nonzero" fill-opacity="1" /><path clip-path="url(#clip530)" d="M1577.94 1481.64 L1594.26 1481.64 L1594.26 1485.58 L1572.32 1485.58 L1572.32 1481.64 Q1574.98 1478.89 1579.56 1474.26 Q1584.17 1469.61 1585.35 1468.27 Q1587.59 1465.74 1588.47 1464.01 Q1589.38 1462.25 1589.38 1460.56 Q1589.38 1457.8 1587.43 1456.07 Q1585.51 1454.33 1582.41 1454.33 Q1580.21 1454.33 1577.76 1455.09 Q1575.33 1455.86 1572.55 1457.41 L1572.55 1452.69 Q1575.37 1451.55 1577.82 1450.97 Q1580.28 1450.39 1582.32 1450.39 Q1587.69 1450.39 1590.88 1453.08 Q1594.07 1455.77 1594.07 1460.26 Q1594.07 1462.39 1593.26 1464.31 Q1592.48 1466.2 1590.37 1468.8 Q1589.79 1469.47 1586.69 1472.69 Q1583.59 1475.88 1577.94 1481.64 Z" fill="#000000" fill-rule="nonzero" fill-opacity="1" /><path clip-path="url(#clip530)" d="M1604.12 1451.02 L1622.48 1451.02 L1622.48 1454.96 L1608.4 1454.96 L1608.4 1463.43 Q1609.42 1463.08 1610.44 1462.92 Q1611.46 1462.73 1612.48 1462.73 Q1618.26 1462.73 1621.64 1465.9 Q1625.02 1469.08 1625.02 1474.49 Q1625.02 1480.07 1621.55 1483.17 Q1618.08 1486.25 1611.76 1486.25 Q1609.58 1486.25 1607.32 1485.88 Q1605.07 1485.51 1602.66 1484.77 L1602.66 1480.07 Q1604.75 1481.2 1606.97 1481.76 Q1609.19 1482.32 1611.67 1482.32 Q1615.67 1482.32 1618.01 1480.21 Q1620.35 1478.1 1620.35 1474.49 Q1620.35 1470.88 1618.01 1468.77 Q1615.67 1466.67 1611.67 1466.67 Q1609.79 1466.67 1607.92 1467.08 Q1606.07 1467.5 1604.12 1468.38 L1604.12 1451.02 Z" fill="#000000" fill-rule="nonzero" fill-opacity="1" /><path clip-path="url(#clip530)" d="M2304.83 1481.64 L2312.47 1481.64 L2312.47 1455.28 L2304.16 1456.95 L2304.16 1452.69 L2312.42 1451.02 L2317.1 1451.02 L2317.1 1481.64 L2324.74 1481.64 L2324.74 1485.58 L2304.83 1485.58 L2304.83 1481.64 Z" fill="#000000" fill-rule="nonzero" fill-opacity="1" /><path clip-path="url(#clip530)" d="M2334.18 1479.7 L2339.06 1479.7 L2339.06 1485.58 L2334.18 1485.58 L2334.18 1479.7 Z" fill="#000000" fill-rule="nonzero" fill-opacity="1" /><path clip-path="url(#clip530)" d="M2359.25 1454.1 Q2355.64 1454.1 2353.81 1457.66 Q2352 1461.2 2352 1468.33 Q2352 1475.44 2353.81 1479.01 Q2355.64 1482.55 2359.25 1482.55 Q2362.88 1482.55 2364.69 1479.01 Q2366.52 1475.44 2366.52 1468.33 Q2366.52 1461.2 2364.69 1457.66 Q2362.88 1454.1 2359.25 1454.1 M2359.25 1450.39 Q2365.06 1450.39 2368.11 1455 Q2371.19 1459.58 2371.19 1468.33 Q2371.19 1477.06 2368.11 1481.67 Q2365.06 1486.25 2359.25 1486.25 Q2353.44 1486.25 2350.36 1481.67 Q2347.3 1477.06 2347.3 1468.33 Q2347.3 1459.58 2350.36 1455 Q2353.44 1450.39 2359.25 1450.39 Z" fill="#000000" fill-rule="nonzero" fill-opacity="1" /><path clip-path="url(#clip530)" d="M2389.41 1454.1 Q2385.8 1454.1 2383.97 1457.66 Q2382.17 1461.2 2382.17 1468.33 Q2382.17 1475.44 2383.97 1479.01 Q2385.8 1482.55 2389.41 1482.55 Q2393.05 1482.55 2394.85 1479.01 Q2396.68 1475.44 2396.68 1468.33 Q2396.68 1461.2 2394.85 1457.66 Q2393.05 1454.1 2389.41 1454.1 M2389.41 1450.39 Q2395.22 1450.39 2398.28 1455 Q2401.36 1459.58 2401.36 1468.33 Q2401.36 1477.06 2398.28 1481.67 Q2395.22 1486.25 2389.41 1486.25 Q2383.6 1486.25 2380.52 1481.67 Q2377.47 1477.06 2377.47 1468.33 Q2377.47 1459.58 2380.52 1455 Q2383.6 1450.39 2389.41 1450.39 Z" fill="#000000" fill-rule="nonzero" fill-opacity="1" /><path clip-path="url(#clip530)" d="M1219.35 1532.4 L1247.17 1532.4 L1247.17 1537.74 L1225.14 1563.37 L1247.17 1563.37 L1247.17 1568.04 L1218.56 1568.04 L1218.56 1562.7 L1240.58 1537.07 L1219.35 1537.07 L1219.35 1532.4 Z" fill="#000000" fill-rule="nonzero" fill-opacity="1" /><path clip-path="url(#clip530)" d="M1276.29 1518.52 L1289.79 1518.52 L1289.79 1523.07 L1282.15 1523.07 L1282.15 1572.09 L1289.79 1572.09 L1289.79 1576.64 L1276.29 1576.64 L1276.29 1518.52 Z" fill="#000000" fill-rule="nonzero" fill-opacity="1" /><path clip-path="url(#clip530)" d="M1327.92 1533.76 L1327.92 1539.24 Q1325.44 1537.87 1322.92 1537.2 Q1320.44 1536.5 1317.89 1536.5 Q1312.2 1536.5 1309.04 1540.13 Q1305.89 1543.73 1305.89 1550.25 Q1305.89 1556.78 1309.04 1560.4 Q1312.2 1564 1317.89 1564 Q1320.44 1564 1322.92 1563.33 Q1325.44 1562.63 1327.92 1561.26 L1327.92 1566.68 Q1325.47 1567.82 1322.83 1568.39 Q1320.22 1568.97 1317.26 1568.97 Q1309.2 1568.97 1304.46 1563.91 Q1299.72 1558.85 1299.72 1550.25 Q1299.72 1541.53 1304.49 1536.53 Q1309.3 1531.54 1317.64 1531.54 Q1320.34 1531.54 1322.92 1532.11 Q1325.5 1532.65 1327.92 1533.76 Z" fill="#000000" fill-rule="nonzero" fill-opacity="1" /><path clip-path="url(#clip530)" d="M1365.86 1539.24 Q1368.05 1535.29 1371.11 1533.41 Q1374.17 1531.54 1378.3 1531.54 Q1383.87 1531.54 1386.9 1535.45 Q1389.92 1539.33 1389.92 1546.53 L1389.92 1568.04 L1384.03 1568.04 L1384.03 1546.72 Q1384.03 1541.59 1382.22 1539.11 Q1380.4 1536.63 1376.68 1536.63 Q1372.13 1536.63 1369.49 1539.65 Q1366.85 1542.68 1366.85 1547.9 L1366.85 1568.04 L1360.96 1568.04 L1360.96 1546.72 Q1360.96 1541.56 1359.14 1539.11 Q1357.33 1536.63 1353.54 1536.63 Q1349.05 1536.63 1346.41 1539.68 Q1343.77 1542.71 1343.77 1547.9 L1343.77 1568.04 L1337.88 1568.04 L1337.88 1532.4 L1343.77 1532.4 L1343.77 1537.93 Q1345.77 1534.66 1348.58 1533.1 Q1351.38 1531.54 1355.23 1531.54 Q1359.11 1531.54 1361.82 1533.51 Q1364.55 1535.48 1365.86 1539.24 Z" fill="#000000" fill-rule="nonzero" fill-opacity="1" /><path clip-path="url(#clip530)" d="M1415.29 1518.52 L1415.29 1576.64 L1401.79 1576.64 L1401.79 1572.09 L1409.4 1572.09 L1409.4 1523.07 L1401.79 1523.07 L1401.79 1518.52 L1415.29 1518.52 Z" fill="#000000" fill-rule="nonzero" fill-opacity="1" /><polyline clip-path="url(#clip530)" style="stroke:#000000; stroke-linecap:round; stroke-linejoin:round; stroke-width:4; stroke-opacity:1; fill:none" points="281.088,1423.18 281.088,887.244 "/>
<polyline clip-path="url(#clip530)" style="stroke:#000000; stroke-linecap:round; stroke-linejoin:round; stroke-width:4; stroke-opacity:1; fill:none" points="281.088,1396.66 299.986,1396.66 "/>
<polyline clip-path="url(#clip530)" style="stroke:#000000; stroke-linecap:round; stroke-linejoin:round; stroke-width:4; stroke-opacity:1; fill:none" points="281.088,1316.17 299.986,1316.17 "/>
<polyline clip-path="url(#clip530)" style="stroke:#000000; stroke-linecap:round; stroke-linejoin:round; stroke-width:4; stroke-opacity:1; fill:none" points="281.088,1235.69 299.986,1235.69 "/>
<polyline clip-path="url(#clip530)" style="stroke:#000000; stroke-linecap:round; stroke-linejoin:round; stroke-width:4; stroke-opacity:1; fill:none" points="281.088,1155.21 299.986,1155.21 "/>
<polyline clip-path="url(#clip530)" style="stroke:#000000; stroke-linecap:round; stroke-linejoin:round; stroke-width:4; stroke-opacity:1; fill:none" points="281.088,1074.72 299.986,1074.72 "/>
<polyline clip-path="url(#clip530)" style="stroke:#000000; stroke-linecap:round; stroke-linejoin:round; stroke-width:4; stroke-opacity:1; fill:none" points="281.088,994.241 299.986,994.241 "/>
<polyline clip-path="url(#clip530)" style="stroke:#000000; stroke-linecap:round; stroke-linejoin:round; stroke-width:4; stroke-opacity:1; fill:none" points="281.088,913.758 299.986,913.758 "/>
<path clip-path="url(#clip530)" d="M184.024 1397.11 L213.7 1397.11 L213.7 1401.04 L184.024 1401.04 L184.024 1397.11 Z" fill="#000000" fill-rule="nonzero" fill-opacity="1" /><path clip-path="url(#clip530)" d="M237.959 1395.3 Q241.315 1396.02 243.19 1398.29 Q245.088 1400.56 245.088 1403.89 Q245.088 1409.01 241.57 1411.81 Q238.051 1414.61 231.57 1414.61 Q229.394 1414.61 227.079 1414.17 Q224.787 1413.75 222.334 1412.9 L222.334 1408.38 Q224.278 1409.52 226.593 1410.1 Q228.908 1410.67 231.431 1410.67 Q235.829 1410.67 238.121 1408.94 Q240.436 1407.2 240.436 1403.89 Q240.436 1400.84 238.283 1399.12 Q236.153 1397.39 232.334 1397.39 L228.306 1397.39 L228.306 1393.54 L232.519 1393.54 Q235.968 1393.54 237.797 1392.18 Q239.625 1390.79 239.625 1388.2 Q239.625 1385.54 237.727 1384.12 Q235.852 1382.69 232.334 1382.69 Q230.412 1382.69 228.213 1383.11 Q226.014 1383.52 223.375 1384.4 L223.375 1380.23 Q226.037 1379.49 228.352 1379.12 Q230.69 1378.75 232.75 1378.75 Q238.074 1378.75 241.176 1381.18 Q244.278 1383.59 244.278 1387.71 Q244.278 1390.58 242.635 1392.57 Q240.991 1394.54 237.959 1395.3 Z" fill="#000000" fill-rule="nonzero" fill-opacity="1" /><path clip-path="url(#clip530)" d="M184.973 1316.63 L214.649 1316.63 L214.649 1320.56 L184.973 1320.56 L184.973 1316.63 Z" fill="#000000" fill-rule="nonzero" fill-opacity="1" /><path clip-path="url(#clip530)" d="M228.769 1329.52 L245.088 1329.52 L245.088 1333.45 L223.144 1333.45 L223.144 1329.52 Q225.806 1326.77 230.389 1322.14 Q234.996 1317.48 236.176 1316.14 Q238.422 1313.62 239.301 1311.88 Q240.204 1310.12 240.204 1308.43 Q240.204 1305.68 238.26 1303.94 Q236.338 1302.21 233.237 1302.21 Q231.037 1302.21 228.584 1302.97 Q226.153 1303.73 223.375 1305.28 L223.375 1300.56 Q226.2 1299.43 228.653 1298.85 Q231.107 1298.27 233.144 1298.27 Q238.514 1298.27 241.709 1300.96 Q244.903 1303.64 244.903 1308.13 Q244.903 1310.26 244.093 1312.18 Q243.306 1314.08 241.199 1316.67 Q240.621 1317.34 237.519 1320.56 Q234.417 1323.76 228.769 1329.52 Z" fill="#000000" fill-rule="nonzero" fill-opacity="1" /><path clip-path="url(#clip530)" d="M184.603 1236.14 L214.278 1236.14 L214.278 1240.08 L184.603 1240.08 L184.603 1236.14 Z" fill="#000000" fill-rule="nonzero" fill-opacity="1" /><path clip-path="url(#clip530)" d="M225.181 1249.04 L232.82 1249.04 L232.82 1222.67 L224.51 1224.34 L224.51 1220.08 L232.774 1218.41 L237.449 1218.41 L237.449 1249.04 L245.088 1249.04 L245.088 1252.97 L225.181 1252.97 L225.181 1249.04 Z" fill="#000000" fill-rule="nonzero" fill-opacity="1" /><path clip-path="url(#clip530)" d="M233.144 1141.01 Q229.533 1141.01 227.704 1144.57 Q225.899 1148.11 225.899 1155.24 Q225.899 1162.35 227.704 1165.91 Q229.533 1169.46 233.144 1169.46 Q236.778 1169.46 238.584 1165.91 Q240.412 1162.35 240.412 1155.24 Q240.412 1148.11 238.584 1144.57 Q236.778 1141.01 233.144 1141.01 M233.144 1137.3 Q238.954 1137.3 242.01 1141.91 Q245.088 1146.49 245.088 1155.24 Q245.088 1163.97 242.01 1168.58 Q238.954 1173.16 233.144 1173.16 Q227.334 1173.16 224.255 1168.58 Q221.2 1163.97 221.2 1155.24 Q221.2 1146.49 224.255 1141.91 Q227.334 1137.3 233.144 1137.3 Z" fill="#000000" fill-rule="nonzero" fill-opacity="1" /><path clip-path="url(#clip530)" d="M225.181 1088.07 L232.82 1088.07 L232.82 1061.7 L224.51 1063.37 L224.51 1059.11 L232.774 1057.44 L237.449 1057.44 L237.449 1088.07 L245.088 1088.07 L245.088 1092 L225.181 1092 L225.181 1088.07 Z" fill="#000000" fill-rule="nonzero" fill-opacity="1" /><path clip-path="url(#clip530)" d="M228.769 1007.59 L245.088 1007.59 L245.088 1011.52 L223.144 1011.52 L223.144 1007.59 Q225.806 1004.83 230.389 1000.2 Q234.996 995.549 236.176 994.207 Q238.422 991.683 239.301 989.947 Q240.204 988.188 240.204 986.498 Q240.204 983.744 238.26 982.007 Q236.338 980.271 233.237 980.271 Q231.037 980.271 228.584 981.035 Q226.153 981.799 223.375 983.35 L223.375 978.628 Q226.2 977.494 228.653 976.915 Q231.107 976.336 233.144 976.336 Q238.514 976.336 241.709 979.021 Q244.903 981.707 244.903 986.197 Q244.903 988.327 244.093 990.248 Q243.306 992.146 241.199 994.739 Q240.621 995.41 237.519 998.628 Q234.417 1001.82 228.769 1007.59 Z" fill="#000000" fill-rule="nonzero" fill-opacity="1" /><path clip-path="url(#clip530)" d="M237.959 912.404 Q241.315 913.121 243.19 915.39 Q245.088 917.658 245.088 920.992 Q245.088 926.107 241.57 928.908 Q238.051 931.709 231.57 931.709 Q229.394 931.709 227.079 931.269 Q224.787 930.853 222.334 929.996 L222.334 925.482 Q224.278 926.617 226.593 927.195 Q228.908 927.774 231.431 927.774 Q235.829 927.774 238.121 926.038 Q240.436 924.302 240.436 920.992 Q240.436 917.936 238.283 916.223 Q236.153 914.487 232.334 914.487 L228.306 914.487 L228.306 910.644 L232.519 910.644 Q235.968 910.644 237.797 909.279 Q239.625 907.89 239.625 905.297 Q239.625 902.635 237.727 901.223 Q235.852 899.788 232.334 899.788 Q230.412 899.788 228.213 900.205 Q226.014 900.621 223.375 901.501 L223.375 897.334 Q226.037 896.594 228.352 896.223 Q230.69 895.853 232.75 895.853 Q238.074 895.853 241.176 898.283 Q244.278 900.691 244.278 904.811 Q244.278 907.681 242.635 909.672 Q240.991 911.64 237.959 912.404 Z" fill="#000000" fill-rule="nonzero" fill-opacity="1" /><polyline clip-path="url(#clip533)" style="stroke:#009af9; stroke-linecap:round; stroke-linejoin:round; stroke-width:6; stroke-opacity:1; fill:none" points="281.088,914.976 291.447,914.739 301.805,914.457 312.163,913.967 322.522,1395.09 332.88,1167.81 343.238,1167.3 353.597,1167.01 363.955,1166.77 374.313,1166.53 384.672,1166.27 395.03,1165.88 405.388,1164.29 415.747,914.21 426.105,913.42 436.463,913.091 446.822,912.837 457.18,912.6 467.538,912.346 477.897,912.016 488.255,911.237 498.613,1166.89 508.972,1165.23 519.33,1164.84 529.688,1164.56 540.047,1164.32 550.405,1164.07 560.763,1163.77 571.122,1163.24 581.48,935.778 591.838,911.356 602.197,910.848 612.555,910.547 622.913,910.29 633.272,910.037 643.63,909.753 653.988,909.345 664.347,907.666 674.705,1163.3 685.063,1162.5 695.422,1162.15 705.78,1161.87 716.139,1161.6 726.497,1161.3 736.855,1160.9 747.214,1159.62 757.572,909.276 767.93,908.305 778.289,907.919 788.647,907.618 799.005,907.336 809.364,907.045 819.722,906.708 830.08,906.186 840.439,1406.13 850.797,1159.87 861.155,1159.22 871.514,1158.82 881.872,1158.48 892.23,1158.11 902.589,1157.66 912.947,1156.72 923.305,906.45 933.664,904.762 944.022,904.205 954.38,903.761 964.739,903.339 975.097,902.905 985.455,902.412 995.814,1407.45 1006.17,1405.9 1016.53,1154.92 1026.89,1153.36 1037.25,1152.26 1047.61,1151.17 1057.96,1150.12 1068.32,1149.2 1078.68,1148.52 1089.04,1148.19 1099.4,1148.3 1109.76,1148.87 1120.11,1149.85 1130.47,1151.15 1140.83,1152.58 1151.19,1153.97 1161.55,1155.17 1171.91,1156.07 1182.26,1156.63 1192.62,1156.88 1202.98,1156.87 1213.34,1156.67 1223.7,1156.35 1234.06,1155.99 1244.41,1155.66 1254.77,1155.41 1265.13,1155.31 1275.49,1155.39 1285.85,1155.67 1296.21,1156.16 1306.56,1156.79 1316.92,1157.51 1327.28,1158.23 1337.64,1158.85 1348,1159.32 1358.36,1159.59 1368.71,1159.66 1379.07,1159.54 1389.43,1159.29 1399.79,1158.95 1410.15,1158.59 1420.51,1158.28 1430.86,1158.09 1441.22,1158.09 1451.58,1158.37 1461.94,1158.96 1472.3,1159.88 1482.66,1161.09 1493.01,1162.49 1503.37,1163.92 1513.73,1165.2 1524.09,1166.16 1534.45,1166.69 1544.81,1166.77 1555.16,1166.41 1565.52,1165.71 1575.88,1164.77 1586.24,1163.72 1596.6,1162.63 1606.96,1161.52 1617.31,1159.81 1627.67,908.82 1638.03,907.457 1648.39,906.822 1658.75,906.336 1669.11,905.904 1679.46,905.482 1689.82,905.034 1700.18,904.459 1710.54,1408.01 1720.9,1158.12 1731.26,1157.26 1741.61,1156.83 1751.97,1156.47 1762.33,1156.12 1772.69,1155.72 1783.05,1155.01 1793.41,906.321 1803.76,903.033 1814.12,902.539 1824.48,1407.9 1834.84,1407.61 1845.2,1407.33 1855.56,1407.02 1865.91,1406.62 1876.27,1405.49 1886.63,1155.1 1896.99,1154.03 1907.35,1153.64 1917.71,1153.35 1928.06,1153.08 1938.42,1152.8 1948.78,1152.43 1959.14,1151.53 1969.5,1406.92 1979.86,1405.58 1990.21,1405.19 2000.57,1404.91 2010.93,1404.66 2021.29,1404.4 2031.65,1404.09 2042.01,1403.55 2052.36,1164.66 2062.72,1151.67 2073.08,1151.17 2083.44,1150.88 2093.8,1150.63 2104.16,1150.38 2114.51,1150.11 2124.87,1149.69 2135.23,1147.49 2145.59,1403.62 2155.95,1402.92 2166.31,1402.6 2176.66,1402.35 2187.02,1402.11 2197.38,1401.86 2207.74,1401.52 2218.1,1400.61 2228.46,1150.33 2238.81,1149.04 2249.17,1148.68 2259.53,1148.42 2269.89,1148.18 2280.25,1147.94 2290.61,1147.65 2300.96,1147.09 2311.32,1407.11 2321.68,1400.94 2332.04,1400.49 2342.4,1400.21 2352.76,1399.97 "/>
<path clip-path="url(#clip530)" d="M1942.48 1199 L2283.7 1199 L2283.7 1095.32 L1942.48 1095.32  Z" fill="#ffffff" fill-rule="evenodd" fill-opacity="1"/>
<polyline clip-path="url(#clip530)" style="stroke:#000000; stroke-linecap:round; stroke-linejoin:round; stroke-width:4; stroke-opacity:1; fill:none" points="1942.48,1199 2283.7,1199 2283.7,1095.32 1942.48,1095.32 1942.48,1199 "/>
<polyline clip-path="url(#clip530)" style="stroke:#009af9; stroke-linecap:round; stroke-linejoin:round; stroke-width:6; stroke-opacity:1; fill:none" points="1965.5,1147.16 2103.61,1147.16 "/>
<path clip-path="url(#clip530)" d="M2159.83 1159.76 L2159.83 1164.44 L2126.63 1164.44 L2148.69 1129.88 L2154.29 1129.88 L2135.29 1159.76 L2159.83 1159.76 Z" fill="#000000" fill-rule="nonzero" fill-opacity="1" /><path clip-path="url(#clip530)" d="M2169.73 1129.88 L2176.7 1129.88 L2185.52 1153.39 L2194.39 1129.88 L2201.35 1129.88 L2201.35 1164.44 L2196.79 1164.44 L2196.79 1134.09 L2187.88 1157.79 L2183.18 1157.79 L2174.27 1134.09 L2174.27 1164.44 L2169.73 1164.44 L2169.73 1129.88 Z" fill="#000000" fill-rule="nonzero" fill-opacity="1" /><path clip-path="url(#clip530)" d="M2232 1138.51 L2222.63 1151.13 L2232.49 1164.44 L2227.46 1164.44 L2219.92 1154.25 L2212.37 1164.44 L2207.35 1164.44 L2217.42 1150.87 L2208.21 1138.51 L2213.23 1138.51 L2220.1 1147.75 L2226.98 1138.51 L2232 1138.51 Z" fill="#000000" fill-rule="nonzero" fill-opacity="1" /><path clip-path="url(#clip530)" d="M2249.29 1166.84 Q2247.49 1171.47 2245.77 1172.89 Q2244.06 1174.3 2241.19 1174.3 L2237.79 1174.3 L2237.79 1170.73 L2240.29 1170.73 Q2242.05 1170.73 2243.02 1169.9 Q2243.99 1169.07 2245.17 1165.96 L2245.94 1164.02 L2235.45 1138.51 L2239.96 1138.51 L2248.07 1158.79 L2256.17 1138.51 L2260.68 1138.51 L2249.29 1166.84 Z" fill="#000000" fill-rule="nonzero" fill-opacity="1" /><path clip-path="url(#clip530)" d="M281.088 80 L2352.76 80 L2352.76 0 L281.088 0  Z" fill="#ffffff" fill-rule="evenodd" fill-opacity="1"/>
<path clip-path="url(#clip530)" d="M298.201 16.0925 L298.201 25.2128 Q292.877 22.6665 288.154 21.4166 Q283.432 20.1666 279.034 20.1666 Q271.395 20.1666 267.229 23.1295 Q263.108 26.0925 263.108 31.5554 Q263.108 36.1387 265.84 38.4998 Q268.618 40.8146 276.303 42.2498 L281.951 43.4072 Q292.414 45.3979 297.367 50.4442 Q302.367 55.4441 302.367 63.87 Q302.367 73.9163 295.608 79.1014 Q288.895 84.2866 275.886 84.2866 Q270.979 84.2866 265.423 83.1755 Q259.914 82.0644 253.988 79.8885 L253.988 70.2589 Q259.682 73.4533 265.145 75.0737 Q270.608 76.694 275.886 76.694 Q283.895 76.694 288.247 73.5459 Q292.599 70.3978 292.599 64.5645 Q292.599 59.4719 289.451 56.6015 Q286.349 53.7312 279.219 52.296 L273.525 51.1849 Q263.062 49.1016 258.386 44.6572 Q253.71 40.2127 253.71 32.2961 Q253.71 23.1295 260.145 17.8518 Q266.627 12.574 277.969 12.574 Q282.83 12.574 287.877 13.4536 Q292.923 14.3333 298.201 16.0925 Z" fill="#000000" fill-rule="nonzero" fill-opacity="1" /><path clip-path="url(#clip530)" d="M316.58 10.9073 L325.099 10.9073 L325.099 82.944 L316.58 82.944 L316.58 10.9073 Z" fill="#000000" fill-rule="nonzero" fill-opacity="1" /><path clip-path="url(#clip530)" d="M342.923 31.0924 L351.441 31.0924 L351.441 82.944 L342.923 82.944 L342.923 31.0924 M342.923 10.9073 L351.441 10.9073 L351.441 21.6943 L342.923 21.6943 L342.923 10.9073 Z" fill="#000000" fill-rule="nonzero" fill-opacity="1" /><path clip-path="url(#clip530)" d="M406.58 33.0832 L406.58 41.0461 Q402.969 39.0553 399.311 38.0831 Q395.7 37.0646 391.997 37.0646 Q383.71 37.0646 379.126 42.3424 Q374.543 47.5738 374.543 57.0645 Q374.543 66.5552 379.126 71.8329 Q383.71 77.0644 391.997 77.0644 Q395.7 77.0644 399.311 76.0922 Q402.969 75.0737 406.58 73.0829 L406.58 80.9533 Q403.015 82.6199 399.172 83.4533 Q395.376 84.2866 391.071 84.2866 Q379.358 84.2866 372.46 76.9255 Q365.561 69.5644 365.561 57.0645 Q365.561 44.3794 372.506 37.1109 Q379.497 29.8424 391.626 29.8424 Q395.561 29.8424 399.311 30.6758 Q403.061 31.4628 406.58 33.0832 Z" fill="#000000" fill-rule="nonzero" fill-opacity="1" /><path clip-path="url(#clip530)" d="M465.746 54.8886 L465.746 59.0552 L426.58 59.0552 Q427.135 67.8515 431.857 72.4811 Q436.626 77.0644 445.098 77.0644 Q450.005 77.0644 454.589 75.8607 Q459.218 74.657 463.755 72.2496 L463.755 80.3051 Q459.172 82.2496 454.357 83.2681 Q449.542 84.2866 444.589 84.2866 Q432.181 84.2866 424.913 77.0644 Q417.691 69.8422 417.691 57.5275 Q417.691 44.7961 424.543 37.3424 Q431.441 29.8424 443.107 29.8424 Q453.57 29.8424 459.635 36.6017 Q465.746 43.3146 465.746 54.8886 M457.228 52.3886 Q457.135 45.3979 453.292 41.2313 Q449.496 37.0646 443.2 37.0646 Q436.07 37.0646 431.765 41.0924 Q427.506 45.1201 426.857 52.4349 L457.228 52.3886 Z" fill="#000000" fill-rule="nonzero" fill-opacity="1" /><path clip-path="url(#clip530)" d="M518.107 75.1663 L518.107 102.666 L509.542 102.666 L509.542 31.0924 L518.107 31.0924 L518.107 38.9628 Q520.792 34.3331 524.866 32.1109 Q528.987 29.8424 534.681 29.8424 Q544.125 29.8424 550.005 37.3424 Q555.931 44.8424 555.931 57.0645 Q555.931 69.2867 550.005 76.7866 Q544.125 84.2866 534.681 84.2866 Q528.987 84.2866 524.866 82.0644 Q520.792 79.7959 518.107 75.1663 M547.088 57.0645 Q547.088 47.6664 543.199 42.3424 Q539.357 36.972 532.598 36.972 Q525.838 36.972 521.95 42.3424 Q518.107 47.6664 518.107 57.0645 Q518.107 66.4626 521.95 71.8329 Q525.838 77.157 532.598 77.157 Q539.357 77.157 543.199 71.8329 Q547.088 66.4626 547.088 57.0645 Z" fill="#000000" fill-rule="nonzero" fill-opacity="1" /><path clip-path="url(#clip530)" d="M600.097 39.0553 Q598.662 38.222 596.949 37.8516 Q595.282 37.435 593.245 37.435 Q586.023 37.435 582.134 42.1572 Q578.292 46.8331 578.292 55.6293 L578.292 82.944 L569.727 82.944 L569.727 31.0924 L578.292 31.0924 L578.292 39.1479 Q580.977 34.4257 585.283 32.1572 Q589.588 29.8424 595.745 29.8424 Q596.625 29.8424 597.69 29.9813 Q598.755 30.0739 600.051 30.3054 L600.097 39.0553 Z" fill="#000000" fill-rule="nonzero" fill-opacity="1" /><path clip-path="url(#clip530)" d="M627.042 37.0646 Q620.19 37.0646 616.208 42.435 Q612.227 47.759 612.227 57.0645 Q612.227 66.37 616.162 71.7404 Q620.143 77.0644 627.042 77.0644 Q633.847 77.0644 637.829 71.6941 Q641.81 66.3237 641.81 57.0645 Q641.81 47.8516 637.829 42.4813 Q633.847 37.0646 627.042 37.0646 M627.042 29.8424 Q638.153 29.8424 644.495 37.0646 Q650.838 44.2868 650.838 57.0645 Q650.838 69.7959 644.495 77.0644 Q638.153 84.2866 627.042 84.2866 Q615.884 84.2866 609.542 77.0644 Q603.245 69.7959 603.245 57.0645 Q603.245 44.2868 609.542 37.0646 Q615.884 29.8424 627.042 29.8424 Z" fill="#000000" fill-rule="nonzero" fill-opacity="1" /><path clip-path="url(#clip530)" d="M691.208 10.9073 L691.208 17.9906 L683.06 17.9906 Q678.476 17.9906 676.671 19.8425 Q674.912 21.6943 674.912 26.5091 L674.912 31.0924 L688.939 31.0924 L688.939 37.7128 L674.912 37.7128 L674.912 82.944 L666.347 82.944 L666.347 37.7128 L658.199 37.7128 L658.199 31.0924 L666.347 31.0924 L666.347 27.4813 Q666.347 18.824 670.375 14.8888 Q674.402 10.9073 683.152 10.9073 L691.208 10.9073 Z" fill="#000000" fill-rule="nonzero" fill-opacity="1" /><path clip-path="url(#clip530)" d="M698.337 31.0924 L706.856 31.0924 L706.856 82.944 L698.337 82.944 L698.337 31.0924 M698.337 10.9073 L706.856 10.9073 L706.856 21.6943 L698.337 21.6943 L698.337 10.9073 Z" fill="#000000" fill-rule="nonzero" fill-opacity="1" /><path clip-path="url(#clip530)" d="M724.68 10.9073 L733.198 10.9073 L733.198 82.944 L724.68 82.944 L724.68 10.9073 Z" fill="#000000" fill-rule="nonzero" fill-opacity="1" /><path clip-path="url(#clip530)" d="M795.374 54.8886 L795.374 59.0552 L756.208 59.0552 Q756.763 67.8515 761.485 72.4811 Q766.254 77.0644 774.726 77.0644 Q779.633 77.0644 784.217 75.8607 Q788.846 74.657 793.383 72.2496 L793.383 80.3051 Q788.8 82.2496 783.985 83.2681 Q779.17 84.2866 774.217 84.2866 Q761.809 84.2866 754.541 77.0644 Q747.319 69.8422 747.319 57.5275 Q747.319 44.7961 754.17 37.3424 Q761.069 29.8424 772.735 29.8424 Q783.198 29.8424 789.263 36.6017 Q795.374 43.3146 795.374 54.8886 M786.856 52.3886 Q786.763 45.3979 782.92 41.2313 Q779.124 37.0646 772.828 37.0646 Q765.698 37.0646 761.393 41.0924 Q757.133 45.1201 756.485 52.4349 L786.856 52.3886 Z" fill="#000000" fill-rule="nonzero" fill-opacity="1" /><path clip-path="url(#clip530)" d="M811.531 71.1848 L821.3 71.1848 L821.3 82.944 L811.531 82.944 L811.531 71.1848 M811.531 33.9165 L821.3 33.9165 L821.3 45.6757 L811.531 45.6757 L811.531 33.9165 Z" fill="#000000" fill-rule="nonzero" fill-opacity="1" /><path clip-path="url(#clip530)" d="M913.244 16.0925 L913.244 25.2128 Q907.92 22.6665 903.197 21.4166 Q898.475 20.1666 894.077 20.1666 Q886.438 20.1666 882.272 23.1295 Q878.151 26.0925 878.151 31.5554 Q878.151 36.1387 880.883 38.4998 Q883.661 40.8146 891.346 42.2498 L896.994 43.4072 Q907.457 45.3979 912.41 50.4442 Q917.41 55.4441 917.41 63.87 Q917.41 73.9163 910.651 79.1014 Q903.938 84.2866 890.929 84.2866 Q886.022 84.2866 880.466 83.1755 Q874.957 82.0644 869.031 79.8885 L869.031 70.2589 Q874.725 73.4533 880.188 75.0737 Q885.651 76.694 890.929 76.694 Q898.938 76.694 903.29 73.5459 Q907.642 70.3978 907.642 64.5645 Q907.642 59.4719 904.494 56.6015 Q901.392 53.7312 894.262 52.296 L888.568 51.1849 Q878.105 49.1016 873.429 44.6572 Q868.753 40.2127 868.753 32.2961 Q868.753 23.1295 875.188 17.8518 Q881.67 12.574 893.012 12.574 Q897.873 12.574 902.92 13.4536 Q907.966 14.3333 913.244 16.0925 Z" fill="#000000" fill-rule="nonzero" fill-opacity="1" /><path clip-path="url(#clip530)" d="M931.623 31.0924 L940.142 31.0924 L940.142 82.944 L931.623 82.944 L931.623 31.0924 M931.623 10.9073 L940.142 10.9073 L940.142 21.6943 L931.623 21.6943 L931.623 10.9073 Z" fill="#000000" fill-rule="nonzero" fill-opacity="1" /><path clip-path="url(#clip530)" d="M1001.07 51.6479 L1001.07 82.944 L992.549 82.944 L992.549 51.9256 Q992.549 44.5646 989.678 40.9072 Q986.808 37.2498 981.067 37.2498 Q974.169 37.2498 970.188 41.6479 Q966.206 46.046 966.206 53.6386 L966.206 82.944 L957.642 82.944 L957.642 31.0924 L966.206 31.0924 L966.206 39.1479 Q969.262 34.472 973.382 32.1572 Q977.549 29.8424 982.966 29.8424 Q991.901 29.8424 996.484 35.398 Q1001.07 40.9072 1001.07 51.6479 Z" fill="#000000" fill-rule="nonzero" fill-opacity="1" /><path clip-path="url(#clip530)" d="M1055.37 33.0832 L1055.37 41.0461 Q1051.76 39.0553 1048.1 38.0831 Q1044.49 37.0646 1040.79 37.0646 Q1032.5 37.0646 1027.92 42.3424 Q1023.34 47.5738 1023.34 57.0645 Q1023.34 66.5552 1027.92 71.8329 Q1032.5 77.0644 1040.79 77.0644 Q1044.49 77.0644 1048.1 76.0922 Q1051.76 75.0737 1055.37 73.0829 L1055.37 80.9533 Q1051.81 82.6199 1047.97 83.4533 Q1044.17 84.2866 1039.86 84.2866 Q1028.15 84.2866 1021.25 76.9255 Q1014.35 69.5644 1014.35 57.0645 Q1014.35 44.3794 1021.3 37.1109 Q1028.29 29.8424 1040.42 29.8424 Q1044.35 29.8424 1048.1 30.6758 Q1051.85 31.4628 1055.37 33.0832 Z" fill="#000000" fill-rule="nonzero" fill-opacity="1" /><path clip-path="url(#clip530)" d="M1143.43 51.6479 L1143.43 82.944 L1134.91 82.944 L1134.91 51.9256 Q1134.91 44.5646 1132.04 40.9072 Q1129.17 37.2498 1123.43 37.2498 Q1116.53 37.2498 1112.55 41.6479 Q1108.57 46.046 1108.57 53.6386 L1108.57 82.944 L1100 82.944 L1100 31.0924 L1108.57 31.0924 L1108.57 39.1479 Q1111.62 34.472 1115.74 32.1572 Q1119.91 29.8424 1125.33 29.8424 Q1134.26 29.8424 1138.84 35.398 Q1143.43 40.9072 1143.43 51.6479 Z" fill="#000000" fill-rule="nonzero" fill-opacity="1" /><path clip-path="url(#clip530)" d="M1160.42 10.9073 L1168.94 10.9073 L1168.94 82.944 L1160.42 82.944 L1160.42 10.9073 Z" fill="#000000" fill-rule="nonzero" fill-opacity="1" /><path clip-path="url(#clip530)" d="M1206.85 37.0646 Q1200 37.0646 1196.02 42.435 Q1192.04 47.759 1192.04 57.0645 Q1192.04 66.37 1195.97 71.7404 Q1199.96 77.0644 1206.85 77.0644 Q1213.66 77.0644 1217.64 71.6941 Q1221.62 66.3237 1221.62 57.0645 Q1221.62 47.8516 1217.64 42.4813 Q1213.66 37.0646 1206.85 37.0646 M1206.85 29.8424 Q1217.96 29.8424 1224.31 37.0646 Q1230.65 44.2868 1230.65 57.0645 Q1230.65 69.7959 1224.31 77.0644 Q1217.96 84.2866 1206.85 84.2866 Q1195.7 84.2866 1189.35 77.0644 Q1183.06 69.7959 1183.06 57.0645 Q1183.06 44.2868 1189.35 37.0646 Q1195.7 29.8424 1206.85 29.8424 Z" fill="#000000" fill-rule="nonzero" fill-opacity="1" /><path clip-path="url(#clip530)" d="M1281.99 57.0645 Q1281.99 47.6664 1278.1 42.3424 Q1274.26 36.972 1267.5 36.972 Q1260.74 36.972 1256.85 42.3424 Q1253.01 47.6664 1253.01 57.0645 Q1253.01 66.4626 1256.85 71.8329 Q1260.74 77.157 1267.5 77.157 Q1274.26 77.157 1278.1 71.8329 Q1281.99 66.4626 1281.99 57.0645 M1253.01 38.9628 Q1255.7 34.3331 1259.77 32.1109 Q1263.89 29.8424 1269.58 29.8424 Q1279.03 29.8424 1284.91 37.3424 Q1290.83 44.8424 1290.83 57.0645 Q1290.83 69.2867 1284.91 76.7866 Q1279.03 84.2866 1269.58 84.2866 Q1263.89 84.2866 1259.77 82.0644 Q1255.7 79.7959 1253.01 75.1663 L1253.01 82.944 L1244.45 82.944 L1244.45 10.9073 L1253.01 10.9073 L1253.01 38.9628 Z" fill="#000000" fill-rule="nonzero" fill-opacity="1" /><path clip-path="url(#clip530)" d="M1349.31 54.8886 L1349.31 59.0552 L1310.14 59.0552 Q1310.7 67.8515 1315.42 72.4811 Q1320.19 77.0644 1328.66 77.0644 Q1333.57 77.0644 1338.15 75.8607 Q1342.78 74.657 1347.32 72.2496 L1347.32 80.3051 Q1342.73 82.2496 1337.92 83.2681 Q1333.1 84.2866 1328.15 84.2866 Q1315.74 84.2866 1308.47 77.0644 Q1301.25 69.8422 1301.25 57.5275 Q1301.25 44.7961 1308.1 37.3424 Q1315 29.8424 1326.67 29.8424 Q1337.13 29.8424 1343.2 36.6017 Q1349.31 43.3146 1349.31 54.8886 M1340.79 52.3886 Q1340.7 45.3979 1336.85 41.2313 Q1333.06 37.0646 1326.76 37.0646 Q1319.63 37.0646 1315.32 41.0924 Q1311.07 45.1201 1310.42 52.4349 L1340.79 52.3886 Z" fill="#000000" fill-rule="nonzero" fill-opacity="1" /><path clip-path="url(#clip530)" d="M1364.4 39.8887 L1423.75 39.8887 L1423.75 47.6664 L1364.4 47.6664 L1364.4 39.8887 M1364.4 58.7775 L1423.75 58.7775 L1423.75 66.6478 L1364.4 66.6478 L1364.4 58.7775 Z" fill="#000000" fill-rule="nonzero" fill-opacity="1" /><path clip-path="url(#clip530)" d="M1472.27 45.6757 Q1478.98 47.1109 1482.73 51.6479 Q1486.53 56.1849 1486.53 62.8515 Q1486.53 73.0829 1479.49 78.6848 Q1472.45 84.2866 1459.49 84.2866 Q1455.14 84.2866 1450.51 83.407 Q1445.93 82.5736 1441.02 80.8607 L1441.02 71.8329 Q1444.91 74.1015 1449.54 75.2589 Q1454.17 76.4163 1459.21 76.4163 Q1468.01 76.4163 1472.59 72.9441 Q1477.22 69.4718 1477.22 62.8515 Q1477.22 56.7404 1472.92 53.3145 Q1468.66 49.8423 1461.02 49.8423 L1452.96 49.8423 L1452.96 42.1572 L1461.39 42.1572 Q1468.29 42.1572 1471.94 39.4257 Q1475.6 36.648 1475.6 31.4628 Q1475.6 26.1387 1471.81 23.3147 Q1468.06 20.4443 1461.02 20.4443 Q1457.18 20.4443 1452.78 21.2777 Q1448.38 22.111 1443.1 23.8702 L1443.1 15.537 Q1448.43 14.0555 1453.06 13.3147 Q1457.73 12.574 1461.85 12.574 Q1472.5 12.574 1478.7 17.4351 Q1484.91 22.2499 1484.91 30.4906 Q1484.91 36.2313 1481.62 40.2127 Q1478.33 44.1479 1472.27 45.6757 Z" fill="#000000" fill-rule="nonzero" fill-opacity="1" /><path clip-path="url(#clip530)" d="M1505.23 71.1848 L1515 71.1848 L1515 79.1477 L1507.41 93.9625 L1501.44 93.9625 L1505.23 79.1477 L1505.23 71.1848 Z" fill="#000000" fill-rule="nonzero" fill-opacity="1" /><path clip-path="url(#clip530)" d="M1593.56 58.8238 L1591.53 48.1294 Q1589.44 37.1572 1581.2 37.1572 Q1575 37.1572 1572.18 42.2498 Q1568.61 48.6386 1568.61 57.0645 Q1568.61 67.2496 1572.08 72.1107 Q1575.6 77.0644 1581.2 77.0644 Q1587.41 77.0644 1590.74 67.2033 L1593.56 58.8238 M1598.33 44.6572 L1602.92 31.0924 L1610.51 31.0924 L1601.02 59.1941 L1602.87 69.333 Q1603.29 71.6015 1604.91 73.4996 Q1606.8 75.7218 1608.29 75.7218 L1612.36 75.7218 L1612.36 82.944 L1607.27 82.944 Q1602.92 82.944 1599.03 79.0551 Q1597.13 77.1107 1596.34 73.0366 Q1594.21 78.1755 1589.86 82.2033 Q1587.82 84.1014 1581.2 84.1014 Q1570.32 84.1014 1565.05 77.0644 Q1559.63 69.7959 1559.63 57.0645 Q1559.63 43.4535 1565.51 37.0646 Q1572.04 29.935 1581.2 29.935 Q1595.6 29.935 1598.33 44.6572 Z" fill="#000000" fill-rule="nonzero" fill-opacity="1" /><path clip-path="url(#clip530)" d="M1626.94 39.8887 L1686.3 39.8887 L1686.3 47.6664 L1626.94 47.6664 L1626.94 39.8887 M1626.94 58.7775 L1686.3 58.7775 L1686.3 66.6478 L1626.94 66.6478 L1626.94 58.7775 Z" fill="#000000" fill-rule="nonzero" fill-opacity="1" /><path clip-path="url(#clip530)" d="M1727.64 44.6572 Q1721.34 44.6572 1717.64 48.9627 Q1713.98 53.2682 1713.98 60.7682 Q1713.98 68.2219 1717.64 72.5737 Q1721.34 76.8792 1727.64 76.8792 Q1733.93 76.8792 1737.59 72.5737 Q1741.29 68.2219 1741.29 60.7682 Q1741.29 53.2682 1737.59 48.9627 Q1733.93 44.6572 1727.64 44.6572 M1746.2 15.3518 L1746.2 23.8702 Q1742.68 22.2036 1739.07 21.324 Q1735.51 20.4443 1731.99 20.4443 Q1722.73 20.4443 1717.82 26.6943 Q1712.96 32.9443 1712.27 45.5831 Q1715 41.5553 1719.12 39.4257 Q1723.24 37.2498 1728.19 37.2498 Q1738.61 37.2498 1744.63 43.5924 Q1750.69 49.8886 1750.69 60.7682 Q1750.69 71.4163 1744.4 77.8514 Q1738.1 84.2866 1727.64 84.2866 Q1715.65 84.2866 1709.3 75.12 Q1702.96 65.9071 1702.96 48.4534 Q1702.96 32.0646 1710.74 22.3425 Q1718.52 12.574 1731.62 12.574 Q1735.14 12.574 1738.7 13.2684 Q1742.31 13.9629 1746.2 15.3518 Z" fill="#000000" fill-rule="nonzero" fill-opacity="1" /><path clip-path="url(#clip530)" d="M1786.8 19.9814 Q1779.58 19.9814 1775.92 27.111 Q1772.31 34.1943 1772.31 48.4534 Q1772.31 62.6663 1775.92 69.7959 Q1779.58 76.8792 1786.8 76.8792 Q1794.07 76.8792 1797.68 69.7959 Q1801.34 62.6663 1801.34 48.4534 Q1801.34 34.1943 1797.68 27.111 Q1794.07 19.9814 1786.8 19.9814 M1786.8 12.574 Q1798.42 12.574 1804.54 21.7869 Q1810.69 30.9535 1810.69 48.4534 Q1810.69 65.9071 1804.54 75.12 Q1798.42 84.2866 1786.8 84.2866 Q1775.18 84.2866 1769.03 75.12 Q1762.92 65.9071 1762.92 48.4534 Q1762.92 30.9535 1769.03 21.7869 Q1775.18 12.574 1786.8 12.574 Z" fill="#000000" fill-rule="nonzero" fill-opacity="1" /><path clip-path="url(#clip530)" d="M1840.69 18.5462 Q1836.99 18.5462 1834.44 21.1388 Q1831.9 23.6851 1831.9 27.3887 Q1831.9 31.0461 1834.44 33.5924 Q1836.99 36.0924 1840.69 36.0924 Q1844.4 36.0924 1846.94 33.5924 Q1849.49 31.0461 1849.49 27.3887 Q1849.49 23.7314 1846.9 21.1388 Q1844.35 18.5462 1840.69 18.5462 M1840.69 12.574 Q1843.66 12.574 1846.39 13.7314 Q1849.12 14.8425 1851.11 16.9721 Q1853.24 19.0555 1854.3 21.6943 Q1855.37 24.3332 1855.37 27.3887 Q1855.37 33.4998 1851.06 37.7591 Q1846.8 41.972 1840.6 41.972 Q1834.35 41.972 1830.18 37.8054 Q1826.02 33.6387 1826.02 27.3887 Q1826.02 21.1851 1830.28 16.8795 Q1834.54 12.574 1840.69 12.574 Z" fill="#000000" fill-rule="nonzero" fill-opacity="1" /><path clip-path="url(#clip530)" d="M1894.26 13.824 L1952.73 13.824 L1952.73 21.6943 L1928.19 21.6943 L1928.19 82.944 L1918.79 82.944 L1918.79 21.6943 L1894.26 21.6943 L1894.26 13.824 Z" fill="#000000" fill-rule="nonzero" fill-opacity="1" /><path clip-path="url(#clip530)" d="M1970.65 75.0737 L2003.28 75.0737 L2003.28 82.944 L1959.4 82.944 L1959.4 75.0737 Q1964.72 69.5644 1973.89 60.3052 Q1983.1 50.9997 1985.46 48.3146 Q1989.95 43.2683 1991.71 39.7961 Q1993.52 36.2776 1993.52 32.898 Q1993.52 27.3887 1989.63 23.9165 Q1985.78 20.4443 1979.58 20.4443 Q1975.18 20.4443 1970.28 21.9721 Q1965.41 23.4999 1959.86 26.6017 L1959.86 17.1573 Q1965.51 14.8888 1970.41 13.7314 Q1975.32 12.574 1979.4 12.574 Q1990.14 12.574 1996.52 17.9443 Q2002.91 23.3147 2002.91 32.2961 Q2002.91 36.5554 2001.29 40.3979 Q1999.72 44.1942 1995.51 49.3794 Q1994.35 50.722 1988.15 57.1571 Q1981.94 63.546 1970.65 75.0737 Z" fill="#000000" fill-rule="nonzero" fill-opacity="1" /><path clip-path="url(#clip530)" d="M2022.82 39.8887 L2082.17 39.8887 L2082.17 47.6664 L2022.82 47.6664 L2022.82 39.8887 M2022.82 58.7775 L2082.17 58.7775 L2082.17 66.6478 L2022.82 66.6478 L2022.82 58.7775 Z" fill="#000000" fill-rule="nonzero" fill-opacity="1" /><path clip-path="url(#clip530)" d="M2122.36 50.1201 Q2115.69 50.1201 2111.85 53.6849 Q2108.05 57.2497 2108.05 63.4997 Q2108.05 69.7496 2111.85 73.3144 Q2115.69 76.8792 2122.36 76.8792 Q2129.02 76.8792 2132.87 73.3144 Q2136.71 69.7033 2136.71 63.4997 Q2136.71 57.2497 2132.87 53.6849 Q2129.07 50.1201 2122.36 50.1201 M2113.01 46.1386 Q2106.99 44.6572 2103.61 40.5368 Q2100.27 36.4165 2100.27 30.4906 Q2100.27 22.2036 2106.15 17.3888 Q2112.08 12.574 2122.36 12.574 Q2132.68 12.574 2138.56 17.3888 Q2144.44 22.2036 2144.44 30.4906 Q2144.44 36.4165 2141.06 40.5368 Q2137.73 44.6572 2131.76 46.1386 Q2138.51 47.7127 2142.26 52.296 Q2146.06 56.8793 2146.06 63.4997 Q2146.06 73.5459 2139.9 78.9162 Q2133.79 84.2866 2122.36 84.2866 Q2110.92 84.2866 2104.77 78.9162 Q2098.65 73.5459 2098.65 63.4997 Q2098.65 56.8793 2102.45 52.296 Q2106.25 47.7127 2113.01 46.1386 M2109.58 31.3702 Q2109.58 36.7405 2112.91 39.7498 Q2116.29 42.759 2122.36 42.759 Q2128.38 42.759 2131.76 39.7498 Q2135.18 36.7405 2135.18 31.3702 Q2135.18 25.9999 2131.76 22.9906 Q2128.38 19.9814 2122.36 19.9814 Q2116.29 19.9814 2112.91 22.9906 Q2109.58 25.9999 2109.58 31.3702 Z" fill="#000000" fill-rule="nonzero" fill-opacity="1" /><path clip-path="url(#clip530)" d="M2182.68 19.9814 Q2175.46 19.9814 2171.8 27.111 Q2168.19 34.1943 2168.19 48.4534 Q2168.19 62.6663 2171.8 69.7959 Q2175.46 76.8792 2182.68 76.8792 Q2189.95 76.8792 2193.56 69.7959 Q2197.22 62.6663 2197.22 48.4534 Q2197.22 34.1943 2193.56 27.111 Q2189.95 19.9814 2182.68 19.9814 M2182.68 12.574 Q2194.3 12.574 2200.41 21.7869 Q2206.57 30.9535 2206.57 48.4534 Q2206.57 65.9071 2200.41 75.12 Q2194.3 84.2866 2182.68 84.2866 Q2171.06 84.2866 2164.9 75.12 Q2158.79 65.9071 2158.79 48.4534 Q2158.79 30.9535 2164.9 21.7869 Q2171.06 12.574 2182.68 12.574 Z" fill="#000000" fill-rule="nonzero" fill-opacity="1" /><path clip-path="url(#clip530)" d="M2292.31 41.0461 Q2295.5 35.3054 2299.95 32.5739 Q2304.39 29.8424 2310.41 29.8424 Q2318.51 29.8424 2322.91 35.5368 Q2327.31 41.185 2327.31 51.6479 L2327.31 82.944 L2318.75 82.944 L2318.75 51.9256 Q2318.75 44.472 2316.11 40.8609 Q2313.47 37.2498 2308.05 37.2498 Q2301.43 37.2498 2297.59 41.6479 Q2293.75 46.046 2293.75 53.6386 L2293.75 82.944 L2285.18 82.944 L2285.18 51.9256 Q2285.18 44.4257 2282.54 40.8609 Q2279.9 37.2498 2274.39 37.2498 Q2267.87 37.2498 2264.02 41.6942 Q2260.18 46.0923 2260.18 53.6386 L2260.18 82.944 L2251.62 82.944 L2251.62 31.0924 L2260.18 31.0924 L2260.18 39.1479 Q2263.1 34.3794 2267.17 32.1109 Q2271.25 29.8424 2276.85 29.8424 Q2282.5 29.8424 2286.43 32.7128 Q2290.41 35.5831 2292.31 41.0461 Z" fill="#000000" fill-rule="nonzero" fill-opacity="1" /><path clip-path="url(#clip530)" d="M2377.36 32.6202 L2377.36 40.6757 Q2373.75 38.8239 2369.86 37.8979 Q2365.97 36.972 2361.8 36.972 Q2355.46 36.972 2352.26 38.9165 Q2349.12 40.8609 2349.12 44.7498 Q2349.12 47.7127 2351.38 49.4257 Q2353.65 51.0923 2360.5 52.6201 L2363.42 53.2682 Q2372.5 55.2127 2376.29 58.7775 Q2380.13 62.296 2380.13 68.6385 Q2380.13 75.8607 2374.39 80.0736 Q2368.7 84.2866 2358.7 84.2866 Q2354.53 84.2866 2350 83.4533 Q2345.5 82.6662 2340.5 81.0459 L2340.5 72.2496 Q2345.23 74.7033 2349.81 75.9533 Q2354.39 77.157 2358.88 77.157 Q2364.9 77.157 2368.14 75.12 Q2371.38 73.0366 2371.38 69.2867 Q2371.38 65.8145 2369.02 63.9626 Q2366.71 62.1108 2358.79 60.3978 L2355.83 59.7034 Q2347.91 58.0367 2344.39 54.6108 Q2340.87 51.1386 2340.87 45.1201 Q2340.87 37.8054 2346.06 33.8239 Q2351.25 29.8424 2360.78 29.8424 Q2365.5 29.8424 2369.67 30.5369 Q2373.84 31.2313 2377.36 32.6202 Z" fill="#000000" fill-rule="nonzero" fill-opacity="1" /></svg>
