<?xml version="1.0" encoding="utf-8"?>
<svg xmlns="http://www.w3.org/2000/svg" xmlns:xlink="http://www.w3.org/1999/xlink" width="600" height="400" viewBox="0 0 2400 1600">
<defs>
  <clipPath id="clip910">
    <rect x="0" y="0" width="2400" height="1600"/>
  </clipPath>
</defs>
<path clip-path="url(#clip910)" d="M0 1600 L2400 1600 L2400 0 L0 0  Z" fill="#ffffff" fill-rule="evenodd" fill-opacity="1"/>
<defs>
  <clipPath id="clip911">
    <rect x="269" y="106" width="2084" height="1318"/>
  </clipPath>
</defs>
<path clip-path="url(#clip910)" d="M269.283 1423.18 L2352.76 1423.18 L2352.76 106.192 L269.283 106.192  Z" fill="#ffffff" fill-rule="evenodd" fill-opacity="1"/>
<polyline clip-path="url(#clip911)" style="stroke:#000000; stroke-linecap:round; stroke-linejoin:round; stroke-width:2; stroke-opacity:0.1; fill:none" points="269.283,1423.18 269.283,106.192 "/>
<polyline clip-path="url(#clip911)" style="stroke:#000000; stroke-linecap:round; stroke-linejoin:round; stroke-width:2; stroke-opacity:0.1; fill:none" points="1050.59,1423.18 1050.59,106.192 "/>
<polyline clip-path="url(#clip911)" style="stroke:#000000; stroke-linecap:round; stroke-linejoin:round; stroke-width:2; stroke-opacity:0.1; fill:none" points="1311.02,1423.18 1311.02,106.192 "/>
<polyline clip-path="url(#clip911)" style="stroke:#000000; stroke-linecap:round; stroke-linejoin:round; stroke-width:2; stroke-opacity:0.1; fill:none" points="1571.45,1423.18 1571.45,106.192 "/>
<polyline clip-path="url(#clip911)" style="stroke:#000000; stroke-linecap:round; stroke-linejoin:round; stroke-width:2; stroke-opacity:0.1; fill:none" points="2352.76,1423.18 2352.76,106.192 "/>
<polyline clip-path="url(#clip911)" style="stroke:#000000; stroke-linecap:round; stroke-linejoin:round; stroke-width:2; stroke-opacity:0.1; fill:none" points="269.283,1203.68 2352.76,1203.68 "/>
<polyline clip-path="url(#clip911)" style="stroke:#000000; stroke-linecap:round; stroke-linejoin:round; stroke-width:2; stroke-opacity:0.1; fill:none" points="269.283,253.228 2352.76,253.228 "/>
<polyline clip-path="url(#clip911)" style="stroke:#000000; stroke-linecap:round; stroke-linejoin:round; stroke-width:2; stroke-opacity:0.1; fill:none" points="269.283,106.192 2352.76,106.192 "/>
<polyline clip-path="url(#clip910)" style="stroke:#000000; stroke-linecap:round; stroke-linejoin:round; stroke-width:4; stroke-opacity:1; fill:none" points="269.283,1423.18 2352.76,1423.18 "/>
<polyline clip-path="url(#clip910)" style="stroke:#000000; stroke-linecap:round; stroke-linejoin:round; stroke-width:4; stroke-opacity:1; fill:none" points="269.283,1423.18 269.283,1404.28 "/>
<polyline clip-path="url(#clip910)" style="stroke:#000000; stroke-linecap:round; stroke-linejoin:round; stroke-width:4; stroke-opacity:1; fill:none" points="1050.59,1423.18 1050.59,1404.28 "/>
<polyline clip-path="url(#clip910)" style="stroke:#000000; stroke-linecap:round; stroke-linejoin:round; stroke-width:4; stroke-opacity:1; fill:none" points="1311.02,1423.18 1311.02,1404.28 "/>
<polyline clip-path="url(#clip910)" style="stroke:#000000; stroke-linecap:round; stroke-linejoin:round; stroke-width:4; stroke-opacity:1; fill:none" points="1571.45,1423.18 1571.45,1404.28 "/>
<polyline clip-path="url(#clip910)" style="stroke:#000000; stroke-linecap:round; stroke-linejoin:round; stroke-width:4; stroke-opacity:1; fill:none" points="2352.76,1423.18 2352.76,1404.28 "/>
<path clip-path="url(#clip910)" d="M200.73 1468.75 L230.406 1468.75 L230.406 1472.69 L200.73 1472.69 L200.73 1468.75 Z" fill="#000000" fill-rule="nonzero" fill-opacity="1" /><path clip-path="url(#clip910)" d="M241.308 1481.64 L248.947 1481.64 L248.947 1455.28 L240.637 1456.95 L240.637 1452.69 L248.901 1451.02 L253.577 1451.02 L253.577 1481.64 L261.216 1481.64 L261.216 1485.58 L241.308 1485.58 L241.308 1481.64 Z" fill="#000000" fill-rule="nonzero" fill-opacity="1" /><path clip-path="url(#clip910)" d="M270.66 1479.7 L275.544 1479.7 L275.544 1485.58 L270.66 1485.58 L270.66 1479.7 Z" fill="#000000" fill-rule="nonzero" fill-opacity="1" /><path clip-path="url(#clip910)" d="M295.729 1454.1 Q292.118 1454.1 290.29 1457.66 Q288.484 1461.2 288.484 1468.33 Q288.484 1475.44 290.29 1479.01 Q292.118 1482.55 295.729 1482.55 Q299.364 1482.55 301.169 1479.01 Q302.998 1475.44 302.998 1468.33 Q302.998 1461.2 301.169 1457.66 Q299.364 1454.1 295.729 1454.1 M295.729 1450.39 Q301.54 1450.39 304.595 1455 Q307.674 1459.58 307.674 1468.33 Q307.674 1477.06 304.595 1481.67 Q301.54 1486.25 295.729 1486.25 Q289.919 1486.25 286.841 1481.67 Q283.785 1477.06 283.785 1468.33 Q283.785 1459.58 286.841 1455 Q289.919 1450.39 295.729 1450.39 Z" fill="#000000" fill-rule="nonzero" fill-opacity="1" /><path clip-path="url(#clip910)" d="M325.891 1454.1 Q322.28 1454.1 320.452 1457.66 Q318.646 1461.2 318.646 1468.33 Q318.646 1475.44 320.452 1479.01 Q322.28 1482.55 325.891 1482.55 Q329.526 1482.55 331.331 1479.01 Q333.16 1475.44 333.16 1468.33 Q333.16 1461.2 331.331 1457.66 Q329.526 1454.1 325.891 1454.1 M325.891 1450.39 Q331.701 1450.39 334.757 1455 Q337.836 1459.58 337.836 1468.33 Q337.836 1477.06 334.757 1481.67 Q331.701 1486.25 325.891 1486.25 Q320.081 1486.25 317.002 1481.67 Q313.947 1477.06 313.947 1468.33 Q313.947 1459.58 317.002 1455 Q320.081 1450.39 325.891 1450.39 Z" fill="#000000" fill-rule="nonzero" fill-opacity="1" /><path clip-path="url(#clip910)" d="M982.53 1468.75 L1012.21 1468.75 L1012.21 1472.69 L982.53 1472.69 L982.53 1468.75 Z" fill="#000000" fill-rule="nonzero" fill-opacity="1" /><path clip-path="url(#clip910)" d="M1032.3 1454.1 Q1028.69 1454.1 1026.86 1457.66 Q1025.05 1461.2 1025.05 1468.33 Q1025.05 1475.44 1026.86 1479.01 Q1028.69 1482.55 1032.3 1482.55 Q1035.93 1482.55 1037.74 1479.01 Q1039.57 1475.44 1039.57 1468.33 Q1039.57 1461.2 1037.74 1457.66 Q1035.93 1454.1 1032.3 1454.1 M1032.3 1450.39 Q1038.11 1450.39 1041.16 1455 Q1044.24 1459.58 1044.24 1468.33 Q1044.24 1477.06 1041.16 1481.67 Q1038.11 1486.25 1032.3 1486.25 Q1026.49 1486.25 1023.41 1481.67 Q1020.35 1477.06 1020.35 1468.33 Q1020.35 1459.58 1023.41 1455 Q1026.49 1450.39 1032.3 1450.39 Z" fill="#000000" fill-rule="nonzero" fill-opacity="1" /><path clip-path="url(#clip910)" d="M1052.46 1479.7 L1057.34 1479.7 L1057.34 1485.58 L1052.46 1485.58 L1052.46 1479.7 Z" fill="#000000" fill-rule="nonzero" fill-opacity="1" /><path clip-path="url(#clip910)" d="M1071.56 1481.64 L1087.88 1481.64 L1087.88 1485.58 L1065.93 1485.58 L1065.93 1481.64 Q1068.59 1478.89 1073.18 1474.26 Q1077.78 1469.61 1078.96 1468.27 Q1081.21 1465.74 1082.09 1464.01 Q1082.99 1462.25 1082.99 1460.56 Q1082.99 1457.8 1081.05 1456.07 Q1079.13 1454.33 1076.02 1454.33 Q1073.83 1454.33 1071.37 1455.09 Q1068.94 1455.86 1066.16 1457.41 L1066.16 1452.69 Q1068.99 1451.55 1071.44 1450.97 Q1073.9 1450.39 1075.93 1450.39 Q1081.3 1450.39 1084.5 1453.08 Q1087.69 1455.77 1087.69 1460.26 Q1087.69 1462.39 1086.88 1464.31 Q1086.09 1466.2 1083.99 1468.8 Q1083.41 1469.47 1080.31 1472.69 Q1077.21 1475.88 1071.56 1481.64 Z" fill="#000000" fill-rule="nonzero" fill-opacity="1" /><path clip-path="url(#clip910)" d="M1097.74 1451.02 L1116.09 1451.02 L1116.09 1454.96 L1102.02 1454.96 L1102.02 1463.43 Q1103.04 1463.08 1104.06 1462.92 Q1105.08 1462.73 1106.09 1462.73 Q1111.88 1462.73 1115.26 1465.9 Q1118.64 1469.08 1118.64 1474.49 Q1118.64 1480.07 1115.17 1483.17 Q1111.7 1486.25 1105.38 1486.25 Q1103.2 1486.25 1100.93 1485.88 Q1098.69 1485.51 1096.28 1484.77 L1096.28 1480.07 Q1098.36 1481.2 1100.58 1481.76 Q1102.81 1482.32 1105.28 1482.32 Q1109.29 1482.32 1111.63 1480.21 Q1113.96 1478.1 1113.96 1474.49 Q1113.96 1470.88 1111.63 1468.77 Q1109.29 1466.67 1105.28 1466.67 Q1103.41 1466.67 1101.53 1467.08 Q1099.68 1467.5 1097.74 1468.38 L1097.74 1451.02 Z" fill="#000000" fill-rule="nonzero" fill-opacity="1" /><path clip-path="url(#clip910)" d="M1273.32 1454.1 Q1269.71 1454.1 1267.88 1457.66 Q1266.08 1461.2 1266.08 1468.33 Q1266.08 1475.44 1267.88 1479.01 Q1269.71 1482.55 1273.32 1482.55 Q1276.96 1482.55 1278.76 1479.01 Q1280.59 1475.44 1280.59 1468.33 Q1280.59 1461.2 1278.76 1457.66 Q1276.96 1454.1 1273.32 1454.1 M1273.32 1450.39 Q1279.13 1450.39 1282.19 1455 Q1285.27 1459.58 1285.27 1468.33 Q1285.27 1477.06 1282.19 1481.67 Q1279.13 1486.25 1273.32 1486.25 Q1267.51 1486.25 1264.43 1481.67 Q1261.38 1477.06 1261.38 1468.33 Q1261.38 1459.58 1264.43 1455 Q1267.51 1450.39 1273.32 1450.39 Z" fill="#000000" fill-rule="nonzero" fill-opacity="1" /><path clip-path="url(#clip910)" d="M1293.48 1479.7 L1298.37 1479.7 L1298.37 1485.58 L1293.48 1485.58 L1293.48 1479.7 Z" fill="#000000" fill-rule="nonzero" fill-opacity="1" /><path clip-path="url(#clip910)" d="M1318.55 1454.1 Q1314.94 1454.1 1313.11 1457.66 Q1311.31 1461.2 1311.31 1468.33 Q1311.31 1475.44 1313.11 1479.01 Q1314.94 1482.55 1318.55 1482.55 Q1322.19 1482.55 1323.99 1479.01 Q1325.82 1475.44 1325.82 1468.33 Q1325.82 1461.2 1323.99 1457.66 Q1322.19 1454.1 1318.55 1454.1 M1318.55 1450.39 Q1324.36 1450.39 1327.42 1455 Q1330.5 1459.58 1330.5 1468.33 Q1330.5 1477.06 1327.42 1481.67 Q1324.36 1486.25 1318.55 1486.25 Q1312.74 1486.25 1309.67 1481.67 Q1306.61 1477.06 1306.61 1468.33 Q1306.61 1459.58 1309.67 1455 Q1312.74 1450.39 1318.55 1450.39 Z" fill="#000000" fill-rule="nonzero" fill-opacity="1" /><path clip-path="url(#clip910)" d="M1348.72 1454.1 Q1345.1 1454.1 1343.28 1457.66 Q1341.47 1461.2 1341.47 1468.33 Q1341.47 1475.44 1343.28 1479.01 Q1345.1 1482.55 1348.72 1482.55 Q1352.35 1482.55 1354.16 1479.01 Q1355.98 1475.44 1355.98 1468.33 Q1355.98 1461.2 1354.16 1457.66 Q1352.35 1454.1 1348.72 1454.1 M1348.72 1450.39 Q1354.53 1450.39 1357.58 1455 Q1360.66 1459.58 1360.66 1468.33 Q1360.66 1477.06 1357.58 1481.67 Q1354.53 1486.25 1348.72 1486.25 Q1342.91 1486.25 1339.83 1481.67 Q1336.77 1477.06 1336.77 1468.33 Q1336.77 1459.58 1339.83 1455 Q1342.91 1450.39 1348.72 1450.39 Z" fill="#000000" fill-rule="nonzero" fill-opacity="1" /><path clip-path="url(#clip910)" d="M1534.25 1454.1 Q1530.64 1454.1 1528.81 1457.66 Q1527.01 1461.2 1527.01 1468.33 Q1527.01 1475.44 1528.81 1479.01 Q1530.64 1482.55 1534.25 1482.55 Q1537.89 1482.55 1539.69 1479.01 Q1541.52 1475.44 1541.52 1468.33 Q1541.52 1461.2 1539.69 1457.66 Q1537.89 1454.1 1534.25 1454.1 M1534.25 1450.39 Q1540.06 1450.39 1543.12 1455 Q1546.2 1459.58 1546.2 1468.33 Q1546.2 1477.06 1543.12 1481.67 Q1540.06 1486.25 1534.25 1486.25 Q1528.44 1486.25 1525.37 1481.67 Q1522.31 1477.06 1522.31 1468.33 Q1522.31 1459.58 1525.37 1455 Q1528.44 1450.39 1534.25 1450.39 Z" fill="#000000" fill-rule="nonzero" fill-opacity="1" /><path clip-path="url(#clip910)" d="M1554.42 1479.7 L1559.3 1479.7 L1559.3 1485.58 L1554.42 1485.58 L1554.42 1479.7 Z" fill="#000000" fill-rule="nonzero" fill-opacity="1" /><path clip-path="url(#clip910)" d="M1573.51 1481.64 L1589.83 1481.64 L1589.83 1485.58 L1567.89 1485.58 L1567.89 1481.64 Q1570.55 1478.89 1575.13 1474.26 Q1579.74 1469.61 1580.92 1468.27 Q1583.17 1465.74 1584.05 1464.01 Q1584.95 1462.25 1584.95 1460.56 Q1584.95 1457.8 1583 1456.07 Q1581.08 1454.33 1577.98 1454.33 Q1575.78 1454.33 1573.33 1455.09 Q1570.9 1455.86 1568.12 1457.41 L1568.12 1452.69 Q1570.94 1451.55 1573.4 1450.97 Q1575.85 1450.39 1577.89 1450.39 Q1583.26 1450.39 1586.45 1453.08 Q1589.65 1455.77 1589.65 1460.26 Q1589.65 1462.39 1588.84 1464.31 Q1588.05 1466.2 1585.94 1468.8 Q1585.37 1469.47 1582.26 1472.69 Q1579.16 1475.88 1573.51 1481.64 Z" fill="#000000" fill-rule="nonzero" fill-opacity="1" /><path clip-path="url(#clip910)" d="M1599.69 1451.02 L1618.05 1451.02 L1618.05 1454.96 L1603.98 1454.96 L1603.98 1463.43 Q1604.99 1463.08 1606.01 1462.92 Q1607.03 1462.73 1608.05 1462.73 Q1613.84 1462.73 1617.22 1465.9 Q1620.6 1469.08 1620.6 1474.49 Q1620.6 1480.07 1617.12 1483.17 Q1613.65 1486.25 1607.33 1486.25 Q1605.16 1486.25 1602.89 1485.88 Q1600.64 1485.51 1598.24 1484.77 L1598.24 1480.07 Q1600.32 1481.2 1602.54 1481.76 Q1604.76 1482.32 1607.24 1482.32 Q1611.24 1482.32 1613.58 1480.21 Q1615.92 1478.1 1615.92 1474.49 Q1615.92 1470.88 1613.58 1468.77 Q1611.24 1466.67 1607.24 1466.67 Q1605.37 1466.67 1603.49 1467.08 Q1601.64 1467.5 1599.69 1468.38 L1599.69 1451.02 Z" fill="#000000" fill-rule="nonzero" fill-opacity="1" /><path clip-path="url(#clip910)" d="M2304.83 1481.64 L2312.47 1481.64 L2312.47 1455.28 L2304.16 1456.95 L2304.16 1452.69 L2312.42 1451.02 L2317.1 1451.02 L2317.1 1481.64 L2324.74 1481.64 L2324.74 1485.58 L2304.83 1485.58 L2304.83 1481.64 Z" fill="#000000" fill-rule="nonzero" fill-opacity="1" /><path clip-path="url(#clip910)" d="M2334.18 1479.7 L2339.06 1479.7 L2339.06 1485.58 L2334.18 1485.58 L2334.18 1479.7 Z" fill="#000000" fill-rule="nonzero" fill-opacity="1" /><path clip-path="url(#clip910)" d="M2359.25 1454.1 Q2355.64 1454.1 2353.81 1457.66 Q2352 1461.2 2352 1468.33 Q2352 1475.44 2353.81 1479.01 Q2355.64 1482.55 2359.25 1482.55 Q2362.88 1482.55 2364.69 1479.01 Q2366.52 1475.44 2366.52 1468.33 Q2366.52 1461.2 2364.69 1457.66 Q2362.88 1454.1 2359.25 1454.1 M2359.25 1450.39 Q2365.06 1450.39 2368.11 1455 Q2371.19 1459.58 2371.19 1468.33 Q2371.19 1477.06 2368.11 1481.67 Q2365.06 1486.25 2359.25 1486.25 Q2353.44 1486.25 2350.36 1481.67 Q2347.3 1477.06 2347.3 1468.33 Q2347.3 1459.58 2350.36 1455 Q2353.44 1450.39 2359.25 1450.39 Z" fill="#000000" fill-rule="nonzero" fill-opacity="1" /><path clip-path="url(#clip910)" d="M2389.41 1454.1 Q2385.8 1454.1 2383.97 1457.66 Q2382.17 1461.2 2382.17 1468.33 Q2382.17 1475.44 2383.97 1479.01 Q2385.8 1482.55 2389.41 1482.55 Q2393.05 1482.55 2394.85 1479.01 Q2396.68 1475.44 2396.68 1468.33 Q2396.68 1461.2 2394.85 1457.66 Q2393.05 1454.1 2389.41 1454.1 M2389.41 1450.39 Q2395.22 1450.39 2398.28 1455 Q2401.36 1459.58 2401.36 1468.33 Q2401.36 1477.06 2398.28 1481.67 Q2395.22 1486.25 2389.41 1486.25 Q2383.6 1486.25 2380.52 1481.67 Q2377.47 1477.06 2377.47 1468.33 Q2377.47 1459.58 2380.52 1455 Q2383.6 1450.39 2389.41 1450.39 Z" fill="#000000" fill-rule="nonzero" fill-opacity="1" /><path clip-path="url(#clip910)" d="M1213.45 1532.4 L1241.27 1532.4 L1241.27 1537.74 L1219.24 1563.37 L1241.27 1563.37 L1241.27 1568.04 L1212.65 1568.04 L1212.65 1562.7 L1234.68 1537.07 L1213.45 1537.07 L1213.45 1532.4 Z" fill="#000000" fill-rule="nonzero" fill-opacity="1" /><path clip-path="url(#clip910)" d="M1270.39 1518.52 L1283.89 1518.52 L1283.89 1523.07 L1276.25 1523.07 L1276.25 1572.09 L1283.89 1572.09 L1283.89 1576.64 L1270.39 1576.64 L1270.39 1518.52 Z" fill="#000000" fill-rule="nonzero" fill-opacity="1" /><path clip-path="url(#clip910)" d="M1322.02 1533.76 L1322.02 1539.24 Q1319.53 1537.87 1317.02 1537.2 Q1314.54 1536.5 1311.99 1536.5 Q1306.29 1536.5 1303.14 1540.13 Q1299.99 1543.73 1299.99 1550.25 Q1299.99 1556.78 1303.14 1560.4 Q1306.29 1564 1311.99 1564 Q1314.54 1564 1317.02 1563.33 Q1319.53 1562.63 1322.02 1561.26 L1322.02 1566.68 Q1319.57 1567.82 1316.92 1568.39 Q1314.31 1568.97 1311.35 1568.97 Q1303.3 1568.97 1298.56 1563.91 Q1293.82 1558.85 1293.82 1550.25 Q1293.82 1541.53 1298.59 1536.53 Q1303.4 1531.54 1311.74 1531.54 Q1314.44 1531.54 1317.02 1532.11 Q1319.6 1532.65 1322.02 1533.76 Z" fill="#000000" fill-rule="nonzero" fill-opacity="1" /><path clip-path="url(#clip910)" d="M1359.96 1539.24 Q1362.15 1535.29 1365.21 1533.41 Q1368.26 1531.54 1372.4 1531.54 Q1377.97 1531.54 1380.99 1535.45 Q1384.02 1539.33 1384.02 1546.53 L1384.02 1568.04 L1378.13 1568.04 L1378.13 1546.72 Q1378.13 1541.59 1376.32 1539.11 Q1374.5 1536.63 1370.78 1536.63 Q1366.23 1536.63 1363.58 1539.65 Q1360.94 1542.68 1360.94 1547.9 L1360.94 1568.04 L1355.05 1568.04 L1355.05 1546.72 Q1355.05 1541.56 1353.24 1539.11 Q1351.43 1536.63 1347.64 1536.63 Q1343.15 1536.63 1340.51 1539.68 Q1337.87 1542.71 1337.87 1547.9 L1337.87 1568.04 L1331.98 1568.04 L1331.98 1532.4 L1337.87 1532.4 L1337.87 1537.93 Q1339.87 1534.66 1342.67 1533.1 Q1345.47 1531.54 1349.33 1531.54 Q1353.21 1531.54 1355.91 1533.51 Q1358.65 1535.48 1359.96 1539.24 Z" fill="#000000" fill-rule="nonzero" fill-opacity="1" /><path clip-path="url(#clip910)" d="M1409.39 1518.52 L1409.39 1576.64 L1395.89 1576.64 L1395.89 1572.09 L1403.5 1572.09 L1403.5 1523.07 L1395.89 1523.07 L1395.89 1518.52 L1409.39 1518.52 Z" fill="#000000" fill-rule="nonzero" fill-opacity="1" /><polyline clip-path="url(#clip910)" style="stroke:#000000; stroke-linecap:round; stroke-linejoin:round; stroke-width:4; stroke-opacity:1; fill:none" points="269.283,1423.18 269.283,106.192 "/>
<polyline clip-path="url(#clip910)" style="stroke:#000000; stroke-linecap:round; stroke-linejoin:round; stroke-width:4; stroke-opacity:1; fill:none" points="269.283,1203.68 288.18,1203.68 "/>
<polyline clip-path="url(#clip910)" style="stroke:#000000; stroke-linecap:round; stroke-linejoin:round; stroke-width:4; stroke-opacity:1; fill:none" points="269.283,253.228 288.18,253.228 "/>
<polyline clip-path="url(#clip910)" style="stroke:#000000; stroke-linecap:round; stroke-linejoin:round; stroke-width:4; stroke-opacity:1; fill:none" points="269.283,106.192 288.18,106.192 "/>
<path clip-path="url(#clip910)" d="M221.338 1189.48 Q217.727 1189.48 215.899 1193.05 Q214.093 1196.59 214.093 1203.72 Q214.093 1210.82 215.899 1214.39 Q217.727 1217.93 221.338 1217.93 Q224.973 1217.93 226.778 1214.39 Q228.607 1210.82 228.607 1203.72 Q228.607 1196.59 226.778 1193.05 Q224.973 1189.48 221.338 1189.48 M221.338 1185.78 Q227.149 1185.78 230.204 1190.38 Q233.283 1194.97 233.283 1203.72 Q233.283 1212.44 230.204 1217.05 Q227.149 1221.63 221.338 1221.63 Q215.528 1221.63 212.45 1217.05 Q209.394 1212.44 209.394 1203.72 Q209.394 1194.97 212.45 1190.38 Q215.528 1185.78 221.338 1185.78 Z" fill="#000000" fill-rule="nonzero" fill-opacity="1" /><path clip-path="url(#clip910)" d="M69.418 245.346 L69.418 249.374 Q67.6124 248.448 65.668 247.985 Q63.7235 247.522 61.6402 247.522 Q58.4689 247.522 56.8717 248.494 Q55.2977 249.466 55.2977 251.411 Q55.2977 252.892 56.4319 253.749 Q57.5662 254.582 60.9921 255.346 L62.4504 255.67 Q66.9874 256.642 68.8855 258.425 Q70.8068 260.184 70.8068 263.355 Q70.8068 266.966 67.9365 269.073 Q65.0893 271.179 60.0893 271.179 Q58.006 271.179 55.7375 270.763 Q53.4921 270.369 50.9921 269.559 L50.9921 265.161 Q53.3532 266.388 55.6449 267.013 Q57.9365 267.614 60.1819 267.614 Q63.1911 267.614 64.8115 266.596 Q66.4319 265.554 66.4319 263.679 Q66.4319 261.943 65.2513 261.017 Q64.0939 260.091 60.1356 259.235 L58.6541 258.888 Q54.6958 258.054 52.9366 256.341 Q51.1773 254.605 51.1773 251.596 Q51.1773 247.939 53.7699 245.948 Q56.3625 243.957 61.131 243.957 Q63.4921 243.957 65.5754 244.304 Q67.6587 244.652 69.418 245.346 Z" fill="#000000" fill-rule="nonzero" fill-opacity="1" /><path clip-path="url(#clip910)" d="M77.5892 244.582 L81.8484 244.582 L81.8484 270.508 L77.5892 270.508 L77.5892 244.582 M77.5892 234.49 L81.8484 234.49 L81.8484 239.883 L77.5892 239.883 L77.5892 234.49 Z" fill="#000000" fill-rule="nonzero" fill-opacity="1" /><path clip-path="url(#clip910)" d="M112.311 254.86 L112.311 270.508 L108.052 270.508 L108.052 254.999 Q108.052 251.318 106.617 249.489 Q105.182 247.661 102.311 247.661 Q98.8622 247.661 96.8715 249.86 Q94.8808 252.059 94.8808 255.855 L94.8808 270.508 L90.5984 270.508 L90.5984 244.582 L94.8808 244.582 L94.8808 248.61 Q96.4085 246.272 98.4687 245.114 Q100.552 243.957 103.26 243.957 Q107.728 243.957 110.02 246.735 Q112.311 249.489 112.311 254.86 Z" fill="#000000" fill-rule="nonzero" fill-opacity="1" /><path clip-path="url(#clip910)" d="M131.038 234.536 Q127.936 239.86 126.432 245.068 Q124.927 250.277 124.927 255.624 Q124.927 260.971 126.432 266.225 Q127.959 271.457 131.038 276.758 L127.334 276.758 Q123.862 271.318 122.126 266.063 Q120.413 260.809 120.413 255.624 Q120.413 250.462 122.126 245.23 Q123.839 239.999 127.334 234.536 L131.038 234.536 Z" fill="#000000" fill-rule="nonzero" fill-opacity="1" /><path clip-path="url(#clip910)" d="M150.482 251.364 Q147.334 251.364 145.482 253.517 Q143.654 255.67 143.654 259.42 Q143.654 263.147 145.482 265.323 Q147.334 267.475 150.482 267.475 Q153.63 267.475 155.459 265.323 Q157.311 263.147 157.311 259.42 Q157.311 255.67 155.459 253.517 Q153.63 251.364 150.482 251.364 M159.765 236.712 L159.765 240.971 Q158.005 240.138 156.2 239.698 Q154.417 239.258 152.658 239.258 Q148.029 239.258 145.575 242.383 Q143.144 245.508 142.797 251.827 Q144.163 249.814 146.223 248.749 Q148.283 247.661 150.76 247.661 Q155.968 247.661 158.978 250.832 Q162.01 253.98 162.01 259.42 Q162.01 264.744 158.862 267.962 Q155.714 271.179 150.482 271.179 Q144.487 271.179 141.316 266.596 Q138.144 261.989 138.144 253.263 Q138.144 245.068 142.033 240.207 Q145.922 235.323 152.473 235.323 Q154.232 235.323 156.015 235.67 Q157.82 236.017 159.765 236.712 Z" fill="#000000" fill-rule="nonzero" fill-opacity="1" /><path clip-path="url(#clip910)" d="M180.066 239.027 Q176.454 239.027 174.626 242.591 Q172.82 246.133 172.82 253.263 Q172.82 260.369 174.626 263.934 Q176.454 267.475 180.066 267.475 Q183.7 267.475 185.505 263.934 Q187.334 260.369 187.334 253.263 Q187.334 246.133 185.505 242.591 Q183.7 239.027 180.066 239.027 M180.066 235.323 Q185.876 235.323 188.931 239.929 Q192.01 244.513 192.01 253.263 Q192.01 261.989 188.931 266.596 Q185.876 271.179 180.066 271.179 Q174.255 271.179 171.177 266.596 Q168.121 261.989 168.121 253.263 Q168.121 244.513 171.177 239.929 Q174.255 235.323 180.066 235.323 Z" fill="#000000" fill-rule="nonzero" fill-opacity="1" /><path clip-path="url(#clip910)" d="M207.01 238.309 Q205.158 238.309 203.885 239.605 Q202.612 240.878 202.612 242.73 Q202.612 244.559 203.885 245.832 Q205.158 247.082 207.01 247.082 Q208.862 247.082 210.135 245.832 Q211.408 244.559 211.408 242.73 Q211.408 240.902 210.112 239.605 Q208.839 238.309 207.01 238.309 M207.01 235.323 Q208.491 235.323 209.857 235.902 Q211.223 236.457 212.218 237.522 Q213.283 238.564 213.815 239.883 Q214.348 241.202 214.348 242.73 Q214.348 245.786 212.195 247.915 Q210.065 250.022 206.964 250.022 Q203.839 250.022 201.755 247.939 Q199.672 245.855 199.672 242.73 Q199.672 239.628 201.802 237.476 Q203.931 235.323 207.01 235.323 Z" fill="#000000" fill-rule="nonzero" fill-opacity="1" /><path clip-path="url(#clip910)" d="M222.658 234.536 L226.362 234.536 Q229.834 239.999 231.547 245.23 Q233.283 250.462 233.283 255.624 Q233.283 260.809 231.547 266.063 Q229.834 271.318 226.362 276.758 L222.658 276.758 Q225.737 271.457 227.241 266.225 Q228.769 260.971 228.769 255.624 Q228.769 250.277 227.241 245.068 Q225.737 239.86 222.658 234.536 Z" fill="#000000" fill-rule="nonzero" fill-opacity="1" /><path clip-path="url(#clip910)" d="M213.376 119.537 L221.014 119.537 L221.014 93.1714 L212.704 94.838 L212.704 90.5788 L220.968 88.9121 L225.644 88.9121 L225.644 119.537 L233.283 119.537 L233.283 123.472 L213.376 123.472 L213.376 119.537 Z" fill="#000000" fill-rule="nonzero" fill-opacity="1" /><path clip-path="url(#clip910)" d="M967.973 64.4899 L967.973 8.65666 Q967.973 6.43152 969.173 6.43152 Q970.374 6.43152 970.374 8.21749 L970.374 64.0507 Q970.374 66.2759 969.173 66.2759 Q967.973 66.2759 967.973 64.4899 Z" fill="#000000" fill-rule="nonzero" fill-opacity="1" /><path clip-path="url(#clip910)" d="M1052.8 11.0575 Q1052.8 11.9065 1052.42 12.0822 Q1052.07 12.2579 1050.9 12.2579 Q1049.52 12.2579 1048.67 12.375 Q1047.83 12.4628 1047.3 12.6092 Q1046.77 12.7263 1046.45 13.1362 Q1046.16 13.5461 1046.04 13.8974 Q1045.92 14.2195 1045.72 15.01 L1037.75 46.9524 Q1037.46 48.0356 1037.46 48.4163 Q1037.46 48.7969 1037.69 49.0311 Q1037.96 49.2653 1038.6 49.3824 Q1039.25 49.4703 1039.74 49.4995 Q1040.27 49.4995 1041.35 49.4995 Q1042.7 49.4995 1042.91 49.7338 Q1043.02 49.8802 1043.02 50.1437 Q1043.02 50.6999 1042.79 50.9927 Q1042.56 51.2562 1042.35 51.3148 Q1042.17 51.3441 1041.88 51.3441 Q1040.65 51.3441 1038.13 51.2562 Q1035.62 51.1684 1034.39 51.1684 L1026.95 51.3441 Q1026.07 51.3441 1026.07 50.6121 Q1026.07 50.0558 1026.31 49.8216 Q1026.54 49.5581 1026.8 49.5288 Q1027.07 49.4995 1027.74 49.4995 Q1030.14 49.4995 1031.17 49.236 Q1032.22 48.9725 1032.51 48.5041 Q1032.83 48.0064 1033.19 46.6596 L1041.76 12.3164 L1041.71 12.3164 L1017.49 50.2608 L1017.32 50.5243 Q1017.14 50.7585 1017.08 50.8463 Q1017.02 50.9049 1016.85 51.0806 Q1016.7 51.227 1016.53 51.2855 Q1016.38 51.3441 1016.18 51.3441 Q1015.82 51.3441 1015.62 51.1098 Q1015.44 50.8756 1015.39 50.6999 Q1015.36 50.495 1015.27 49.968 L1010.11 12.7849 L1010.06 12.7849 L1001.89 45.4592 Q1001.65 46.3668 1001.65 46.8352 Q1001.65 48.0356 1002.5 48.7676 Q1003.38 49.4703 1005.72 49.4995 Q1006.81 49.4995 1006.81 50.1437 Q1006.81 51.3441 1005.72 51.3441 Q1004.73 51.3441 1002.65 51.2562 Q1000.57 51.1684 999.546 51.1684 Q998.55 51.1684 996.53 51.2562 Q994.539 51.3441 993.573 51.3441 Q992.724 51.3441 992.724 50.6121 Q992.724 49.4995 993.807 49.4995 Q995.564 49.441 996.764 49.0897 Q997.965 48.7383 998.638 48.0649 Q999.341 47.3915 999.663 46.7181 Q1000.01 46.0155 1000.28 44.9907 L1007.89 14.4537 Q1008.12 13.4875 1008.12 13.3411 Q1008.12 12.8434 1007.83 12.6678 Q1007.57 12.4628 1006.81 12.375 Q1005.34 12.2579 1004.23 12.2579 Q1003.5 12.2579 1003.21 12.2286 Q1002.94 12.1993 1002.71 12.0529 Q1002.5 11.8772 1002.5 11.5259 Q1002.5 10.9696 1002.74 10.7354 Q1003 10.4719 1003.29 10.4426 Q1003.59 10.3841 1004.29 10.3841 L1012.52 10.3841 Q1013.72 10.3841 1013.98 10.589 Q1014.24 10.7647 1014.36 11.7601 L1019.04 45.6934 L1040.94 11.5259 Q1041.5 10.6768 1041.79 10.5305 Q1042.09 10.3841 1043.26 10.3841 L1051.19 10.3841 Q1051.84 10.3841 1052.1 10.4133 Q1052.36 10.4426 1052.57 10.589 Q1052.8 10.7354 1052.8 11.0575 Z" fill="#000000" fill-rule="nonzero" fill-opacity="1" /><path clip-path="url(#clip910)" d="M1079.53 46.5882 Q1079.53 47.7359 1078.81 48.3917 Q1078.09 49.0271 1077.27 49.0271 Q1076.5 49.0271 1076.09 48.5762 Q1075.68 48.1253 1075.68 47.5514 Q1075.68 46.7726 1076.25 46.0963 Q1076.82 45.42 1077.68 45.2765 Q1076.84 44.7437 1075.59 44.7437 Q1074.77 44.7437 1074.06 45.1741 Q1073.36 45.6044 1072.93 46.1578 Q1072.52 46.7112 1072.15 47.5104 Q1071.8 48.2892 1071.66 48.7606 Q1071.54 49.2115 1071.43 49.7034 L1070 55.4419 Q1069.3 58.1677 1069.3 59.1309 Q1069.3 60.3196 1069.88 61.1189 Q1070.45 61.8977 1071.6 61.8977 Q1072.05 61.8977 1072.56 61.7747 Q1073.07 61.6313 1073.73 61.2624 Q1074.4 60.873 1075 60.2991 Q1075.61 59.7048 1076.21 58.7005 Q1076.8 57.6963 1077.19 56.4051 Q1077.31 55.9542 1077.72 55.9542 Q1078.24 55.9542 1078.24 56.3641 Q1078.24 56.7125 1077.95 57.4503 Q1077.68 58.1677 1077.09 59.1104 Q1076.52 60.0327 1075.76 60.873 Q1075 61.6927 1073.87 62.2666 Q1072.74 62.8404 1071.51 62.8404 Q1069.75 62.8404 1068.58 61.8977 Q1067.42 60.9549 1066.99 59.6433 Q1066.88 59.8277 1066.74 60.0737 Q1066.6 60.3196 1066.17 60.873 Q1065.76 61.4058 1065.28 61.8157 Q1064.81 62.2051 1064.08 62.5125 Q1063.36 62.8404 1062.58 62.8404 Q1061.6 62.8404 1060.71 62.5535 Q1059.85 62.2666 1059.24 61.6108 Q1058.62 60.9549 1058.62 60.0532 Q1058.62 59.0489 1059.3 58.3521 Q1060 57.6348 1060.94 57.6348 Q1061.53 57.6348 1062.01 57.9832 Q1062.5 58.3316 1062.5 59.0899 Q1062.5 59.9302 1061.92 60.5655 Q1061.35 61.2009 1060.53 61.3648 Q1061.37 61.8977 1062.62 61.8977 Q1063.97 61.8977 1065.04 60.709 Q1066.1 59.5203 1066.62 57.5323 Q1067.89 52.7571 1068.38 50.6256 Q1068.87 48.4737 1068.87 47.5514 Q1068.87 46.6907 1068.65 46.0963 Q1068.42 45.502 1068.03 45.2355 Q1067.66 44.9486 1067.31 44.8461 Q1066.99 44.7437 1066.62 44.7437 Q1066 44.7437 1065.31 44.9896 Q1064.63 45.2355 1063.81 45.8094 Q1063.01 46.3627 1062.25 47.5104 Q1061.49 48.6581 1060.98 50.2362 Q1060.88 50.7076 1060.43 50.7076 Q1059.94 50.6871 1059.94 50.2772 Q1059.94 49.9288 1060.2 49.2115 Q1060.49 48.4737 1061.06 47.5514 Q1061.66 46.6292 1062.42 45.8094 Q1063.19 44.9691 1064.32 44.3953 Q1065.47 43.8214 1066.7 43.8214 Q1067.25 43.8214 1067.78 43.9444 Q1068.34 44.0469 1068.99 44.3543 Q1069.67 44.6617 1070.26 45.338 Q1070.86 46.0143 1071.23 46.9981 Q1071.47 46.5267 1071.8 46.0758 Q1072.15 45.6249 1072.68 45.0716 Q1073.24 44.4977 1073.99 44.1698 Q1074.77 43.8214 1075.63 43.8214 Q1076.47 43.8214 1077.29 44.0469 Q1078.11 44.2518 1078.81 44.9281 Q1079.53 45.584 1079.53 46.5882 Z" fill="#000000" fill-rule="nonzero" fill-opacity="1" /><path clip-path="url(#clip910)" d="M1101.26 45.42 Q1101.26 45.7069 1101.07 46.3832 L1097.06 62.4101 Q1096.18 65.9761 1093.31 68.4765 Q1090.46 70.9768 1087.22 70.9768 Q1085.27 70.9768 1084.02 69.9316 Q1082.77 68.9069 1082.77 67.3288 Q1082.77 65.9351 1083.51 65.2588 Q1084.25 64.603 1085.13 64.603 Q1085.42 64.603 1085.72 64.685 Q1086.03 64.7669 1086.36 65.1153 Q1086.69 65.4638 1086.69 66.0581 Q1086.69 67.0213 1085.85 67.7796 Q1085.44 68.1281 1085.05 68.21 Q1084.68 68.292 1084.04 68.292 Q1084.29 68.8659 1084.74 69.2553 Q1085.19 69.6447 1085.7 69.7881 Q1086.21 69.9521 1086.54 69.9931 Q1086.89 70.0546 1087.22 70.0546 Q1089.84 70.0546 1091.85 67.4107 Q1092.45 66.6115 1092.88 65.8122 Q1093.33 65.0334 1093.65 64.0701 Q1093.98 63.1274 1094.13 62.615 Q1094.29 62.1026 1094.58 60.9344 Q1092.67 62.8404 1090.33 62.8404 Q1089.35 62.8404 1088.47 62.574 Q1087.61 62.3076 1086.85 61.7542 Q1086.09 61.1804 1085.64 60.1761 Q1085.21 59.1719 1085.21 57.8397 Q1085.21 56.4256 1085.76 54.4991 Q1086.32 52.5726 1087.65 49.0271 Q1088.37 47.0391 1088.37 46.0758 Q1088.37 45.6044 1088.26 45.3175 Q1088.16 45.0101 1087.96 44.9076 Q1087.75 44.7847 1087.63 44.7642 Q1087.53 44.7437 1087.32 44.7437 Q1086.11 44.7437 1084.99 45.9734 Q1083.86 47.203 1083.08 49.9493 Q1082.92 50.4617 1082.81 50.5846 Q1082.71 50.7076 1082.4 50.7076 Q1081.89 50.6871 1081.89 50.2772 Q1081.89 50.1133 1082.08 49.4779 Q1082.26 48.8221 1082.69 47.8589 Q1083.14 46.8751 1083.76 45.9938 Q1084.37 45.0921 1085.33 44.4567 Q1086.32 43.8214 1087.44 43.8214 Q1088.98 43.8214 1089.92 44.8257 Q1090.89 45.8094 1090.89 47.2645 Q1090.89 47.8589 1090.72 48.3917 Q1090.58 48.9041 1090.05 50.2772 Q1087.9 55.8108 1087.9 58.5161 Q1087.9 59.1719 1088 59.7253 Q1088.12 60.2581 1088.39 60.791 Q1088.65 61.3033 1089.19 61.6108 Q1089.74 61.8977 1090.5 61.8977 Q1091.46 61.8977 1092.36 61.4468 Q1093.29 60.9754 1093.86 60.3401 Q1094.45 59.7048 1094.8 59.1719 Q1095.17 58.6185 1095.25 58.3316 L1097.14 50.7896 L1097.98 47.4285 Q1098.37 45.6044 1098.55 45.1536 Q1098.8 44.7232 1099.23 44.4977 Q1099.66 44.2723 1100.03 44.2723 Q1100.54 44.2723 1100.89 44.5797 Q1101.26 44.8871 1101.26 45.42 Z" fill="#000000" fill-rule="nonzero" fill-opacity="1" /><path clip-path="url(#clip910)" d="M1108.65 64.4899 L1108.65 8.65666 Q1108.65 6.43152 1109.85 6.43152 Q1111.05 6.43152 1111.05 8.21749 L1111.05 64.0507 Q1111.05 66.2759 1109.85 66.2759 Q1108.65 66.2759 1108.65 64.4899 Z" fill="#000000" fill-rule="nonzero" fill-opacity="1" /><path clip-path="url(#clip910)" d="M1149.25 45.6348 Q1149.25 40.5405 1155.25 37.8469 Q1158.85 36.1195 1166.29 35.6803 L1166.29 33.4844 Q1166.29 29.7661 1164.33 27.8045 Q1162.39 25.8136 1159.93 25.8136 Q1155.54 25.8136 1153.43 28.5657 Q1155.22 28.6243 1155.86 29.5319 Q1156.51 30.4103 1156.51 31.3179 Q1156.51 32.5183 1155.75 33.3088 Q1155.02 34.07 1153.76 34.07 Q1152.56 34.07 1151.77 33.3381 Q1150.98 32.5768 1150.98 31.2593 Q1150.98 28.3315 1153.61 26.3992 Q1156.27 24.4668 1160.05 24.4668 Q1164.97 24.4668 1168.25 27.7752 Q1169.27 28.8 1169.77 30.1175 Q1170.3 31.435 1170.36 32.3133 Q1170.42 33.1624 1170.42 34.8605 L1170.42 46.8352 Q1170.42 47.1866 1170.53 47.7721 Q1170.65 48.3577 1171.18 49.1189 Q1171.73 49.8509 1172.64 49.8509 Q1174.81 49.8509 1174.78 46.0155 L1174.78 42.6485 L1176.3 42.6485 L1176.3 46.0155 Q1176.3 49.2068 1174.6 50.4657 Q1172.93 51.6954 1171.38 51.6954 Q1169.39 51.6954 1168.13 50.2315 Q1166.87 48.7676 1166.7 46.7767 Q1165.79 49.0604 1163.71 50.5536 Q1161.66 52.0175 1158.85 52.0175 Q1156.68 52.0175 1154.63 51.4612 Q1152.61 50.9342 1150.92 49.441 Q1149.25 47.9185 1149.25 45.6348 M1153.87 45.5763 Q1153.87 47.8014 1155.45 49.236 Q1157.04 50.6707 1159.26 50.6707 Q1161.78 50.6707 1164.03 48.7383 Q1166.29 46.7767 1166.29 42.9413 L1166.29 36.9393 Q1159.64 37.1735 1156.74 39.8378 Q1153.87 42.4728 1153.87 45.5763 Z" fill="#000000" fill-rule="nonzero" fill-opacity="1" /><path clip-path="url(#clip910)" d="M1177.5 51.3441 L1177.5 49.4995 Q1180.69 49.4995 1181.43 49.1189 Q1182.16 48.709 1182.16 46.7767 L1182.16 30.703 Q1182.16 28.4779 1181.37 27.9216 Q1180.61 27.3653 1177.5 27.3653 L1177.5 25.4915 L1185.93 24.8474 L1185.93 31.1422 Q1188.75 24.8474 1194.81 24.8474 Q1199.32 24.8474 1201.1 27.0726 Q1202.42 28.5657 1202.68 30.2346 Q1202.97 31.9034 1202.97 36.2366 L1202.97 47.6843 Q1203.03 48.9433 1204 49.236 Q1204.97 49.4995 1207.66 49.4995 L1207.66 51.3441 Q1201.54 51.1684 1200.93 51.1684 Q1200.46 51.1684 1194.16 51.3441 L1194.16 49.4995 Q1197.35 49.4995 1198.09 49.1189 Q1198.85 48.709 1198.85 46.7767 L1198.85 32.8111 Q1198.85 29.7661 1197.91 27.9802 Q1196.97 26.1649 1194.4 26.1649 Q1191.29 26.1649 1188.8 28.7707 Q1186.32 31.3764 1186.32 35.7681 L1186.32 46.7767 Q1186.32 48.709 1187.05 49.1189 Q1187.81 49.4995 1190.97 49.4995 L1190.97 51.3441 Q1184.85 51.1684 1184.27 51.1684 Q1183.8 51.1684 1177.5 51.3441 Z" fill="#000000" fill-rule="nonzero" fill-opacity="1" /><path clip-path="url(#clip910)" d="M1211.89 38.4617 Q1211.89 32.7525 1215.87 28.8 Q1219.85 24.8474 1225.24 24.8474 Q1229.8 24.8474 1232.79 28.5657 L1232.79 15.5956 Q1232.79 13.3704 1232 12.8141 Q1231.24 12.2579 1228.14 12.2579 L1228.14 10.3841 L1236.77 9.73995 L1236.77 46.1326 Q1236.77 48.3577 1237.53 48.9433 Q1238.32 49.4995 1241.43 49.4995 L1241.43 51.3441 L1232.62 52.0175 L1232.62 48.0356 Q1229.51 51.9882 1224.59 52.0175 Q1219.44 52.0175 1215.66 48.0649 Q1211.89 44.1124 1211.89 38.4617 M1216.86 38.5203 Q1216.86 44.0831 1218.59 46.8352 Q1220.99 50.6707 1224.89 50.6707 Q1229.34 50.6707 1231.97 46.4839 Q1232.64 45.4592 1232.62 44.2588 L1232.62 31.962 Q1232.62 30.7616 1231.97 29.7661 Q1229.51 26.1649 1225.5 26.1649 Q1221.31 26.1649 1218.71 30.0004 Q1216.86 32.8696 1216.86 38.5203 Z" fill="#000000" fill-rule="nonzero" fill-opacity="1" /><path clip-path="url(#clip910)" d="M1320.75 11.0575 Q1320.75 11.9065 1320.37 12.0822 Q1320.02 12.2579 1318.85 12.2579 Q1317.47 12.2579 1316.63 12.375 Q1315.78 12.4628 1315.25 12.6092 Q1314.72 12.7263 1314.4 13.1362 Q1314.11 13.5461 1313.99 13.8974 Q1313.87 14.2195 1313.67 15.01 L1305.7 46.9524 Q1305.41 48.0356 1305.41 48.4163 Q1305.41 48.7969 1305.65 49.0311 Q1305.91 49.2653 1306.55 49.3824 Q1307.2 49.4703 1307.7 49.4995 Q1308.22 49.4995 1309.31 49.4995 Q1310.65 49.4995 1310.86 49.7338 Q1310.97 49.8802 1310.97 50.1437 Q1310.97 50.6999 1310.74 50.9927 Q1310.51 51.2562 1310.3 51.3148 Q1310.13 51.3441 1309.83 51.3441 Q1308.6 51.3441 1306.09 51.2562 Q1303.57 51.1684 1302.34 51.1684 L1294.9 51.3441 Q1294.02 51.3441 1294.02 50.6121 Q1294.02 50.0558 1294.26 49.8216 Q1294.49 49.5581 1294.75 49.5288 Q1295.02 49.4995 1295.69 49.4995 Q1298.09 49.4995 1299.12 49.236 Q1300.17 48.9725 1300.46 48.5041 Q1300.79 48.0064 1301.14 46.6596 L1309.72 12.3164 L1309.66 12.3164 L1285.44 50.2608 L1285.27 50.5243 Q1285.09 50.7585 1285.03 50.8463 Q1284.98 50.9049 1284.8 51.0806 Q1284.65 51.227 1284.48 51.2855 Q1284.33 51.3441 1284.13 51.3441 Q1283.78 51.3441 1283.57 51.1098 Q1283.39 50.8756 1283.34 50.6999 Q1283.31 50.495 1283.22 49.968 L1278.07 12.7849 L1278.01 12.7849 L1269.84 45.4592 Q1269.6 46.3668 1269.6 46.8352 Q1269.6 48.0356 1270.45 48.7676 Q1271.33 49.4703 1273.67 49.4995 Q1274.76 49.4995 1274.76 50.1437 Q1274.76 51.3441 1273.67 51.3441 Q1272.68 51.3441 1270.6 51.2562 Q1268.52 51.1684 1267.5 51.1684 Q1266.5 51.1684 1264.48 51.2562 Q1262.49 51.3441 1261.52 51.3441 Q1260.68 51.3441 1260.68 50.6121 Q1260.68 49.4995 1261.76 49.4995 Q1263.52 49.441 1264.72 49.0897 Q1265.92 48.7383 1266.59 48.0649 Q1267.29 47.3915 1267.61 46.7181 Q1267.97 46.0155 1268.23 44.9907 L1275.84 14.4537 Q1276.08 13.4875 1276.08 13.3411 Q1276.08 12.8434 1275.78 12.6678 Q1275.52 12.4628 1274.76 12.375 Q1273.29 12.2579 1272.18 12.2579 Q1271.45 12.2579 1271.16 12.2286 Q1270.89 12.1993 1270.66 12.0529 Q1270.45 11.8772 1270.45 11.5259 Q1270.45 10.9696 1270.69 10.7354 Q1270.95 10.4719 1271.24 10.4426 Q1271.54 10.3841 1272.24 10.3841 L1280.47 10.3841 Q1281.67 10.3841 1281.93 10.589 Q1282.19 10.7647 1282.31 11.7601 L1287 45.6934 L1308.9 11.5259 Q1309.45 10.6768 1309.75 10.5305 Q1310.04 10.3841 1311.21 10.3841 L1319.14 10.3841 Q1319.79 10.3841 1320.05 10.4133 Q1320.31 10.4426 1320.52 10.589 Q1320.75 10.7354 1320.75 11.0575 Z" fill="#000000" fill-rule="nonzero" fill-opacity="1" /><path clip-path="url(#clip910)" d="M1345.94 45.42 Q1345.94 45.7069 1345.76 46.3832 L1341.74 62.4101 Q1340.86 65.9761 1337.99 68.4765 Q1335.14 70.9768 1331.9 70.9768 Q1329.96 70.9768 1328.71 69.9316 Q1327.46 68.9069 1327.46 67.3288 Q1327.46 65.9351 1328.19 65.2588 Q1328.93 64.603 1329.81 64.603 Q1330.1 64.603 1330.41 64.685 Q1330.72 64.7669 1331.04 65.1153 Q1331.37 65.4638 1331.37 66.0581 Q1331.37 67.0213 1330.53 67.7796 Q1330.12 68.1281 1329.73 68.21 Q1329.36 68.292 1328.73 68.292 Q1328.97 68.8659 1329.42 69.2553 Q1329.87 69.6447 1330.39 69.7881 Q1330.9 69.9521 1331.23 69.9931 Q1331.58 70.0546 1331.9 70.0546 Q1334.53 70.0546 1336.54 67.4107 Q1337.13 66.6115 1337.56 65.8122 Q1338.01 65.0334 1338.34 64.0701 Q1338.67 63.1274 1338.81 62.615 Q1338.97 62.1026 1339.26 60.9344 Q1337.36 62.8404 1335.02 62.8404 Q1334.04 62.8404 1333.15 62.574 Q1332.29 62.3076 1331.53 61.7542 Q1330.78 61.1804 1330.33 60.1761 Q1329.9 59.1719 1329.9 57.8397 Q1329.9 56.4256 1330.45 54.4991 Q1331 52.5726 1332.33 49.0271 Q1333.05 47.0391 1333.05 46.0758 Q1333.05 45.6044 1332.95 45.3175 Q1332.85 45.0101 1332.64 44.9076 Q1332.44 44.7847 1332.31 44.7642 Q1332.21 44.7437 1332.01 44.7437 Q1330.8 44.7437 1329.67 45.9734 Q1328.54 47.203 1327.76 49.9493 Q1327.6 50.4617 1327.5 50.5846 Q1327.39 50.7076 1327.09 50.7076 Q1326.58 50.6871 1326.58 50.2772 Q1326.58 50.1133 1326.76 49.4779 Q1326.94 48.8221 1327.37 47.8589 Q1327.83 46.8751 1328.44 45.9938 Q1329.05 45.0921 1330.02 44.4567 Q1331 43.8214 1332.13 43.8214 Q1333.67 43.8214 1334.61 44.8257 Q1335.57 45.8094 1335.57 47.2645 Q1335.57 47.8589 1335.41 48.3917 Q1335.26 48.9041 1334.73 50.2772 Q1332.58 55.8108 1332.58 58.5161 Q1332.58 59.1719 1332.68 59.7253 Q1332.81 60.2581 1333.07 60.791 Q1333.34 61.3033 1333.87 61.6108 Q1334.42 61.8977 1335.18 61.8977 Q1336.15 61.8977 1337.05 61.4468 Q1337.97 60.9754 1338.54 60.3401 Q1339.14 59.7048 1339.49 59.1719 Q1339.86 58.6185 1339.94 58.3316 L1341.82 50.7896 L1342.66 47.4285 Q1343.05 45.6044 1343.24 45.1536 Q1343.48 44.7232 1343.91 44.4977 Q1344.34 44.2723 1344.71 44.2723 Q1345.23 44.2723 1345.57 44.5797 Q1345.94 44.8871 1345.94 45.42 Z" fill="#000000" fill-rule="nonzero" fill-opacity="1" /><path clip-path="url(#clip910)" d="M1367.99 27.3653 L1367.99 25.4915 L1372.71 25.4915 L1372.71 18.6112 Q1372.71 14.1609 1375.58 11.6137 Q1378.48 9.06655 1382.02 9.06655 Q1384.36 9.06655 1385.88 10.3255 Q1387.41 11.5845 1387.41 13.2826 Q1387.41 14.4244 1386.7 15.1857 Q1386.03 15.9176 1384.77 15.9176 Q1383.57 15.9176 1382.87 15.1564 Q1382.19 14.3952 1382.19 13.3411 Q1382.19 11.4088 1383.98 10.8232 Q1383.07 10.4133 1382.02 10.3841 Q1379.85 10.3841 1378.15 12.6092 Q1376.48 14.8343 1376.48 18.5526 L1376.48 25.4915 L1383.51 25.4915 L1383.51 27.3653 L1376.69 27.3653 L1376.69 46.6596 Q1376.69 48.387 1377.39 48.9433 Q1378.12 49.4995 1381.23 49.4995 L1382.49 49.4995 L1382.49 51.3441 Q1380.09 51.1684 1374.87 51.1684 Q1374.14 51.1684 1373 51.1977 Q1371.89 51.227 1370.37 51.2855 Q1368.87 51.3441 1368.05 51.3441 L1368.05 49.4995 Q1371.24 49.4995 1371.98 49.1189 Q1372.71 48.709 1372.71 46.7767 L1372.71 27.3653 L1367.99 27.3653 Z" fill="#000000" fill-rule="nonzero" fill-opacity="1" /><path clip-path="url(#clip910)" d="M1393.64 48.1235 Q1389.68 44.2002 1389.68 38.5203 Q1389.68 32.8111 1393.55 28.6536 Q1397.44 24.4668 1403.01 24.4668 Q1408.45 24.4668 1412.35 28.6243 Q1416.27 32.7525 1416.27 38.5203 Q1416.27 44.1709 1412.32 48.0942 Q1408.39 52.0175 1402.95 52.0175 Q1397.62 52.0175 1393.64 48.1235 M1394.66 38.0225 Q1394.66 43.8489 1396.18 46.4839 Q1398.53 50.495 1403.01 50.495 Q1405.23 50.495 1407.08 49.2946 Q1408.95 48.0942 1409.97 46.074 Q1411.29 43.439 1411.29 38.0225 Q1411.29 32.2548 1409.71 29.7076 Q1407.37 25.8136 1402.95 25.8136 Q1401.02 25.8136 1399.11 26.8383 Q1397.24 27.8338 1396.1 29.8247 Q1394.66 32.4597 1394.66 38.0225 Z" fill="#000000" fill-rule="nonzero" fill-opacity="1" /><path clip-path="url(#clip910)" d="M1418.18 51.3441 L1418.18 49.4995 Q1421.37 49.4995 1422.1 49.1189 Q1422.86 48.709 1422.86 46.7767 L1422.86 30.703 Q1422.86 28.4779 1422.07 27.9216 Q1421.31 27.3653 1418.18 27.3653 L1418.18 25.4915 L1426.52 24.8474 L1426.52 31.435 Q1427.37 28.8585 1429.16 26.8676 Q1430.97 24.8474 1433.9 24.8474 Q1435.83 24.8474 1437.06 25.9307 Q1438.32 27.014 1438.32 28.5072 Q1438.32 29.8247 1437.5 30.4981 Q1436.71 31.1422 1435.75 31.1422 Q1434.66 31.1422 1433.9 30.4688 Q1433.17 29.7661 1433.17 28.5657 Q1433.17 27.8338 1433.49 27.2775 Q1433.84 26.6919 1434.11 26.487 Q1434.37 26.282 1434.55 26.2235 Q1434.43 26.1649 1433.9 26.1649 Q1430.59 26.1649 1428.69 29.4734 Q1426.82 32.7525 1426.82 37.437 L1426.82 46.6596 Q1426.82 48.387 1427.52 48.9433 Q1428.25 49.4995 1431.38 49.4995 L1432.64 49.4995 L1432.64 51.3441 Q1430.24 51.1684 1425.03 51.1684 Q1424.3 51.1684 1423.16 51.1977 Q1422.02 51.227 1420.52 51.2855 Q1419.03 51.3441 1418.18 51.3441 Z" fill="#000000" fill-rule="nonzero" fill-opacity="1" /><path clip-path="url(#clip910)" d="M1490.87 28.3901 Q1490.81 28.6828 1490.69 29.2099 Q1490.57 29.7076 1490.05 31.2886 Q1489.52 32.8696 1488.82 34.4799 Q1488.14 36.0609 1486.83 38.286 Q1485.54 40.4819 1483.96 42.4728 Q1483.52 42.9998 1483.43 43.3219 Q1483.37 43.6147 1483.37 44.5808 Q1483.37 50.6707 1485.22 50.6707 Q1485.3 50.6707 1485.45 50.6707 Q1485.63 50.6414 1486.06 50.495 Q1486.53 50.3193 1486.94 50.0558 Q1487.35 49.763 1487.82 49.1775 Q1488.29 48.5626 1488.58 47.7429 Q1488.85 47.1573 1489.37 47.1573 Q1490.08 47.1573 1490.08 47.7429 Q1490.08 48.7969 1488.61 50.4072 Q1487.15 52.0175 1485.04 52.0175 Q1483.02 52.0175 1481.58 50.6999 Q1480.18 49.3532 1479.59 46.9524 Q1473.27 52.0175 1466.95 52.0175 Q1462.5 52.0175 1459.86 49.1189 Q1457.23 46.1911 1457.23 41.858 Q1457.23 37.7005 1459.51 33.748 Q1461.82 29.7954 1465.57 27.3361 Q1469.35 24.8474 1473.36 24.8474 Q1474.76 24.8474 1476.11 25.228 Q1477.46 25.5794 1478.8 26.487 Q1480.15 27.3946 1481.15 28.7707 Q1482.14 30.1468 1482.76 32.3133 Q1483.37 34.4799 1483.37 37.2028 L1483.37 40.9211 Q1487.24 36.0316 1489.26 29.0342 Q1489.55 27.9802 1489.72 27.8631 Q1489.84 27.7752 1490.13 27.7752 Q1490.43 27.7752 1490.6 27.9509 Q1490.81 28.0973 1490.84 28.2437 L1490.87 28.3901 M1479.36 45.4006 Q1479.24 44.3759 1479.24 38.6959 Q1479.24 37.6127 1479.24 37.0271 Q1479.24 36.4123 1479.18 35.2411 Q1479.13 34.07 1479.01 33.3381 Q1478.92 32.6061 1478.72 31.5521 Q1478.51 30.4981 1478.22 29.8247 Q1477.92 29.1513 1477.46 28.3901 Q1477.02 27.6288 1476.43 27.1897 Q1475.88 26.7505 1475.06 26.4577 Q1474.27 26.1649 1473.3 26.1649 Q1472.1 26.1649 1470.84 26.6041 Q1469.61 27.014 1468.03 28.3315 Q1466.45 29.6197 1465.13 31.6692 Q1463.75 33.8358 1462.7 37.8176 Q1461.68 41.7701 1461.68 44.1417 Q1461.68 47.128 1463.05 48.914 Q1464.43 50.6707 1467.06 50.6707 Q1473.36 50.6707 1479.36 45.4006 Z" fill="#000000" fill-rule="nonzero" fill-opacity="1" /><path clip-path="url(#clip910)" d="M1511.85 42.2386 Q1511.91 41.5066 1513.05 41.5066 L1549.8 41.5066 Q1551.52 41.5066 1551.55 42.18 Q1551.55 42.912 1549.91 42.8827 L1513.46 42.8827 Q1511.85 42.912 1511.85 42.2386 M1511.85 30.5274 Q1511.85 29.7954 1513.11 29.8247 L1549.74 29.8247 Q1551.52 29.8247 1551.55 30.5274 Q1551.55 31.2008 1550.03 31.2008 L1513.05 31.2008 Q1511.85 31.2008 1511.85 30.5274 Z" fill="#000000" fill-rule="nonzero" fill-opacity="1" /><path clip-path="url(#clip910)" d="M1574.69 32.4012 Q1574.69 22.9736 1579.49 17.2058 Q1584.29 11.4088 1590.47 11.4088 Q1594.07 11.4088 1596.06 13.2533 Q1598.08 15.0686 1598.08 17.8792 Q1598.08 19.431 1597.17 20.1044 Q1596.26 20.7778 1595.33 20.7778 Q1594.24 20.7778 1593.4 20.0458 Q1592.55 19.3139 1592.55 17.9964 Q1592.55 15.3028 1595.85 15.3028 Q1594.3 12.902 1590.58 12.902 Q1589.44 12.902 1588.27 13.2533 Q1587.1 13.5754 1585.58 14.6879 Q1584.06 15.8005 1582.88 17.5572 Q1581.71 19.3139 1580.89 22.6223 Q1580.07 25.9307 1580.07 30.2346 L1580.07 31.6692 Q1582.53 25.7258 1587.57 25.755 Q1592.6 25.755 1596.09 29.5905 Q1599.57 33.4259 1599.57 39.1058 Q1599.57 44.9322 1595.94 48.7969 Q1592.31 52.6616 1587.22 52.6616 Q1584.93 52.6616 1582.86 51.6954 Q1580.81 50.7585 1578.87 48.5919 Q1576.97 46.4253 1575.83 42.2679 Q1574.69 38.1104 1574.69 32.4012 M1580.19 37.7883 Q1580.19 43.6732 1581.27 46.4839 Q1581.45 46.9524 1581.83 47.5965 Q1582.24 48.2406 1582.91 49.0897 Q1583.62 49.9094 1584.76 50.4657 Q1585.9 50.9927 1587.22 50.9927 Q1591.23 50.9927 1593.16 47.0987 Q1594.19 44.9322 1594.19 39.0473 Q1594.19 33.0453 1593.1 30.8494 Q1591.26 27.1311 1587.51 27.1311 Q1584.99 27.1311 1583.24 28.8585 Q1581.51 30.5859 1580.84 32.8989 Q1580.19 35.2119 1580.19 37.7883 Z" fill="#000000" fill-rule="nonzero" fill-opacity="1" /><path clip-path="url(#clip910)" d="M1604.62 32.1669 Q1604.62 23.3542 1606.85 18.5526 Q1609.95 11.4088 1617.27 11.4088 Q1618.82 11.4088 1620.43 11.848 Q1622.07 12.2579 1624.12 13.8682 Q1626.2 15.4784 1627.46 18.1135 Q1629.86 23.2079 1629.86 32.1669 Q1629.86 40.9211 1627.63 45.6934 Q1624.38 52.6616 1617.21 52.6616 Q1614.52 52.6616 1611.77 51.2855 Q1609.04 49.9094 1607.32 46.601 Q1604.62 41.653 1604.62 32.1669 M1609.6 31.435 Q1609.6 40.4819 1610.24 44.0831 Q1610.98 47.9771 1612.97 49.6752 Q1614.99 51.3441 1617.21 51.3441 Q1619.61 51.3441 1621.6 49.5581 Q1623.62 47.7429 1624.24 43.8489 Q1624.91 40.0135 1624.88 31.435 Q1624.88 23.0907 1624.3 19.753 Q1623.51 15.8591 1621.4 14.3073 Q1619.32 12.7263 1617.21 12.7263 Q1616.42 12.7263 1615.57 12.9605 Q1614.75 13.1948 1613.55 13.8682 Q1612.35 14.5415 1611.41 16.2104 Q1610.51 17.8792 1610.07 20.3972 Q1609.6 23.647 1609.6 31.435 Z" fill="#000000" fill-rule="nonzero" fill-opacity="1" /><path clip-path="url(#clip910)" d="M1634.32 17.0595 Q1634.32 14.3073 1636.25 12.3457 Q1638.21 10.3841 1640.96 10.3841 Q1643.77 10.3841 1645.68 12.375 Q1647.61 14.3366 1647.61 16.9716 Q1647.61 19.7238 1645.62 21.6854 Q1643.66 23.647 1640.96 23.647 Q1638.15 23.647 1636.22 21.6854 Q1634.32 19.6945 1634.32 17.0595 M1637.98 14.0145 Q1636.72 15.2442 1636.72 17.0595 Q1636.72 18.8454 1637.98 20.0458 Q1639.24 21.2462 1640.96 21.2462 Q1642.69 21.2462 1643.92 20.0458 Q1645.15 18.8454 1645.15 17.0595 Q1645.15 15.2442 1643.89 14.0145 Q1642.63 12.7849 1640.96 12.7849 Q1639.24 12.7849 1637.98 14.0145 Z" fill="#000000" fill-rule="nonzero" fill-opacity="1" /><polyline clip-path="url(#clip911)" style="stroke:#009af9; stroke-linecap:round; stroke-linejoin:round; stroke-width:6; stroke-opacity:1; fill:none" points="269.283,1202.82 279.7,1202.64 290.118,1202.62 300.535,1202.75 310.952,1203.03 321.37,1203.41 331.787,1203.52 342.204,1203.09 352.622,1202.74 363.039,1202.52 373.456,1202.47 383.874,1202.6 394.291,1202.89 404.709,1203.32 415.126,1203.54 425.543,1203.05 435.961,1202.63 446.378,1202.36 456.795,1202.28 467.213,1202.41 477.63,1202.74 488.047,1203.22 498.465,1203.56 508.882,1202.98 519.3,1202.49 529.717,1202.16 540.134,1202.06 550.552,1202.22 560.969,1202.62 571.386,1203.22 581.804,1203.43 592.221,1202.7 602.639,1202.07 613.056,1201.63 623.473,1201.47 633.891,1201.62 644.308,1202.08 654.725,1202.77 665.143,1203.6 675.56,1202.94 685.977,1202.26 696.395,1201.86 706.812,1201.84 717.23,1202.25 727.647,1203.08 738.064,1203.11 748.482,1201.76 758.899,1200.41 769.316,1199.27 779.734,1198.52 790.151,1198.3 800.568,1198.67 810.986,1199.59 821.403,1200.89 831.821,1202.32 842.238,1203.54 852.655,1203.18 863.073,1203.45 873.49,1202.5 883.907,1199.85 894.325,1196.14 904.742,1191.8 915.159,1187.57 925.577,1184.48 935.994,1183.82 946.412,1187.06 956.829,1195.73 967.246,1196 977.664,1172.11 988.081,1138.95 998.498,1096.02 1008.92,1043.38 1019.33,981.79 1029.75,912.727 1040.17,838.311 1050.59,761.174 1061,684.217 1071.42,610.318 1081.84,542.032 1092.25,481.335 1102.67,429.472 1113.09,386.928 1123.51,353.517 1133.92,328.544 1144.34,310.992 1154.76,299.684 1165.18,293.393 1175.59,290.901 1186.01,291.034 1196.43,292.699 1206.85,294.929 1217.26,296.938 1227.68,298.172 1238.1,298.341 1248.52,297.421 1258.93,295.61 1269.35,293.271 1279.77,290.842 1290.18,288.761 1300.6,287.388 1311.02,286.957 1321.44,287.538 1331.85,289.035 1342.27,291.194 1352.69,293.638 1363.11,295.926 1373.52,297.623 1383.94,298.388 1394.36,298.05 1404.78,296.675 1415.19,294.592 1425.61,292.392 1436.03,290.891 1446.45,291.079 1456.86,294.066 1467.28,301.031 1477.7,313.197 1488.11,331.789 1498.53,357.97 1508.95,392.716 1519.37,436.661 1529.78,489.898 1540.2,551.832 1550.62,621.102 1561.04,695.633 1571.45,772.805 1581.87,849.716 1592.29,923.486 1602.71,991.548 1613.12,1051.87 1623.54,1103.08 1633.96,1144.54 1644.38,1176.26 1654.79,1198.84 1665.21,1194.02 1675.63,1186.26 1686.04,1183.71 1696.46,1184.83 1706.88,1188.16 1717.3,1192.47 1727.71,1196.75 1738.13,1200.32 1748.55,1202.79 1758.97,1203.34 1769.38,1203.22 1779.8,1203.39 1790.22,1202.11 1800.64,1200.68 1811.05,1199.42 1821.47,1198.58 1831.89,1198.29 1842.3,1198.6 1852.72,1199.42 1863.14,1200.61 1873.56,1201.97 1883.97,1203.3 1894.39,1202.94 1904.81,1202.16 1915.23,1201.81 1925.64,1201.89 1936.06,1202.35 1946.48,1203.06 1956.9,1203.47 1967.31,1202.65 1977.73,1201.99 1988.15,1201.58 1998.57,1201.48 2008.98,1201.68 2019.4,1202.15 2029.82,1202.8 2040.23,1203.54 2050.65,1203.12 2061.07,1202.54 2071.49,1202.18 2081.9,1202.06 2092.32,1202.19 2102.74,1202.55 2113.16,1203.06 2123.57,1203.65 2133.99,1203.14 2144.41,1202.68 2154.83,1202.37 2165.24,1202.28 2175.66,1202.39 2186.08,1202.69 2196.5,1203.12 2206.91,1203.62 2217.33,1203.25 2227.75,1202.84 2238.16,1202.57 2248.58,1202.46 2259,1202.54 2269.42,1202.79 2279.83,1203.15 2290.25,1203.58 2300.67,1203.35 2311.09,1202.98 2321.5,1202.72 2331.92,1202.61 2342.34,1202.66 2352.76,1202.85 "/>
<polyline clip-path="url(#clip911)" style="stroke:#e26f46; stroke-linecap:round; stroke-linejoin:round; stroke-width:6; stroke-opacity:1; fill:none" points="269.283,1202.89 279.7,1202.73 290.118,1202.7 300.535,1202.83 310.952,1203.08 321.37,1203.43 331.787,1203.52 342.204,1203.14 352.622,1202.82 363.039,1202.62 373.456,1202.57 383.874,1202.69 394.291,1202.96 404.709,1203.35 415.126,1203.54 425.543,1203.1 435.961,1202.72 446.378,1202.47 456.795,1202.39 467.213,1202.51 477.63,1202.81 488.047,1203.26 498.465,1203.55 508.882,1203.03 519.3,1202.58 529.717,1202.28 540.134,1202.19 550.552,1202.34 560.969,1202.7 571.386,1203.25 581.804,1203.43 592.221,1202.78 602.639,1202.2 613.056,1201.8 623.473,1201.65 633.891,1201.79 644.308,1202.21 654.725,1202.84 665.143,1203.55 675.56,1202.99 685.977,1202.37 696.395,1202.01 706.812,1201.99 717.23,1202.37 727.647,1203.12 738.064,1203.14 748.482,1201.91 758.899,1200.68 769.316,1199.63 779.734,1198.94 790.151,1198.75 800.568,1199.09 810.986,1199.93 821.403,1201.12 831.821,1202.43 842.238,1203.52 852.655,1203.21 863.073,1203.43 873.49,1202.57 883.907,1200.16 894.325,1196.76 904.742,1192.78 915.159,1188.91 925.577,1186.08 935.994,1185.46 946.412,1188.4 956.829,1196.23 967.246,1196.37 977.664,1174.66 988.081,1144.33 998.498,1105.03 1008.92,1056.85 1019.33,1000.49 1029.75,937.297 1040.17,869.215 1050.59,798.642 1061,728.225 1071.42,660.587 1081.84,598.06 1092.25,542.448 1102.67,494.896 1113.09,455.857 1123.51,425.174 1133.92,402.22 1144.34,386.076 1154.76,375.665 1165.18,369.865 1175.59,367.555 1186.01,367.657 1196.43,369.166 1206.85,371.193 1217.26,373.017 1227.68,374.131 1238.1,374.269 1248.52,373.409 1258.93,371.732 1269.35,369.572 1279.77,367.332 1290.18,365.413 1300.6,364.147 1311.02,363.75 1321.44,364.286 1331.85,365.666 1342.27,367.657 1352.69,369.911 1363.11,372.024 1373.52,373.596 1383.94,374.314 1394.36,374.022 1404.78,372.779 1415.19,370.886 1425.61,368.886 1436.03,367.528 1446.45,367.722 1456.86,370.485 1467.28,376.906 1477.7,388.104 1488.11,405.204 1498.53,429.264 1508.95,461.171 1519.37,501.489 1529.78,550.296 1540.2,607.035 1550.62,670.459 1561.04,738.672 1571.45,809.284 1581.87,879.648 1592.29,947.141 1602.71,1009.42 1613.12,1064.62 1623.54,1111.5 1633.96,1149.44 1644.38,1178.45 1654.79,1198.85 1665.21,1194.71 1675.63,1187.68 1686.04,1185.36 1696.46,1186.39 1706.88,1189.45 1717.3,1193.39 1727.71,1197.32 1738.13,1200.59 1748.55,1202.84 1758.97,1203.34 1769.38,1203.25 1779.8,1203.39 1790.22,1202.24 1800.64,1200.93 1811.05,1199.77 1821.47,1199 1831.89,1198.74 1842.3,1199.02 1852.72,1199.77 1863.14,1200.86 1873.56,1202.1 1883.97,1203.31 1894.39,1202.99 1904.81,1202.29 1915.23,1201.97 1925.64,1202.04 1936.06,1202.45 1946.48,1203.1 1956.9,1203.46 1967.31,1202.73 1977.73,1202.13 1988.15,1201.75 1998.57,1201.66 2008.98,1201.85 2019.4,1202.27 2029.82,1202.87 2040.23,1203.52 2050.65,1203.16 2061.07,1202.64 2071.49,1202.3 2081.9,1202.19 2092.32,1202.32 2102.74,1202.64 2113.16,1203.11 2123.57,1203.6 2133.99,1203.18 2144.41,1202.76 2154.83,1202.48 2165.24,1202.39 2175.66,1202.49 2186.08,1202.77 2196.5,1203.16 2206.91,1203.6 2217.33,1203.28 2227.75,1202.91 2238.16,1202.66 2248.58,1202.56 2259,1202.64 2269.42,1202.86 2279.83,1203.19 2290.25,1203.58 2300.67,1203.37 2311.09,1203.03 2321.5,1202.8 2331.92,1202.7 2342.34,1202.74 2352.76,1202.92 "/>
<polyline clip-path="url(#clip911)" style="stroke:#009af9; stroke-linecap:round; stroke-linejoin:round; stroke-width:6; stroke-opacity:1; fill:none" points="269.283,1203.64 279.7,1203.64 290.118,1203.64 300.535,1203.65 310.952,1203.66 321.37,1203.68 331.787,1203.7 342.204,1203.71 352.622,1203.72 363.039,1203.73 373.456,1203.73 383.874,1203.72 394.291,1203.7 404.709,1203.69 415.126,1203.67 425.543,1203.65 435.961,1203.64 446.378,1203.63 456.795,1203.63 467.213,1203.64 477.63,1203.66 488.047,1203.68 498.465,1203.7 508.882,1203.71 519.3,1203.73 529.717,1203.73 540.134,1203.73 550.552,1203.72 560.969,1203.71 571.386,1203.69 581.804,1203.66 592.221,1203.64 602.639,1203.62 613.056,1203.62 623.473,1203.62 633.891,1203.63 644.308,1203.65 654.725,1203.67 665.143,1203.69 675.56,1203.71 685.977,1203.73 696.395,1203.73 706.812,1203.72 717.23,1203.71 727.647,1203.68 738.064,1203.65 748.482,1203.62 758.899,1203.59 769.316,1203.58 779.734,1203.57 790.151,1203.58 800.568,1203.6 810.986,1203.63 821.403,1203.66 831.821,1203.68 842.238,1203.69 852.655,1203.69 863.073,1203.67 873.49,1203.63 883.907,1203.59 894.325,1203.56 904.742,1203.55 915.159,1203.57 925.577,1203.62 935.994,1203.72 946.412,1203.83 956.829,1203.92 967.246,1203.91 977.664,1203.71 988.081,1203.14 998.498,1201.99 1008.92,1200.01 1019.33,1196.94 1029.75,1192.6 1040.17,1186.95 1050.59,1180.2 1061,1172.81 1071.42,1165.53 1081.84,1159.24 1092.25,1154.82 1102.67,1152.95 1113.09,1154 1123.51,1157.9 1133.92,1164.21 1144.34,1172.19 1154.76,1181.03 1165.18,1189.92 1175.59,1198.24 1186.01,1205.6 1196.43,1211.84 1206.85,1217 1217.26,1221.26 1227.68,1224.89 1238.1,1228.15 1248.52,1231.33 1258.93,1234.65 1269.35,1238.26 1279.77,1242.23 1290.18,1246.56 1300.6,1251.15 1311.02,1255.85 1321.44,1260.47 1331.85,1264.85 1342.27,1268.88 1352.69,1272.52 1363.11,1275.81 1373.52,1278.89 1383.94,1281.97 1394.36,1285.3 1404.78,1289.14 1415.19,1293.74 1425.61,1299.28 1436.03,1305.82 1446.45,1313.26 1456.86,1321.3 1467.28,1329.36 1477.7,1336.66 1488.11,1342.26 1498.53,1345.22 1508.95,1344.74 1519.37,1340.36 1529.78,1332.09 1540.2,1320.4 1550.62,1306.16 1561.04,1290.48 1571.45,1274.52 1581.87,1259.3 1592.29,1245.57 1602.71,1233.78 1613.12,1224.11 1623.54,1216.5 1633.96,1210.78 1644.38,1206.7 1654.79,1203.99 1665.21,1202.37 1675.63,1201.59 1686.04,1201.41 1696.46,1201.62 1706.88,1202.05 1717.3,1202.55 1727.71,1203.02 1738.13,1203.38 1748.55,1203.62 1758.97,1203.73 1769.38,1203.72 1779.8,1203.64 1790.22,1203.51 1800.64,1203.37 1811.05,1203.26 1821.47,1203.19 1831.89,1203.18 1842.3,1203.22 1852.72,1203.3 1863.14,1203.42 1873.56,1203.55 1883.97,1203.67 1894.39,1203.76 1904.81,1203.83 1915.23,1203.85 1925.64,1203.83 1936.06,1203.79 1946.48,1203.72 1956.9,1203.65 1967.31,1203.58 1977.73,1203.53 1988.15,1203.5 1998.57,1203.5 2008.98,1203.52 2019.4,1203.56 2029.82,1203.62 2040.23,1203.68 2050.65,1203.74 2061.07,1203.78 2071.49,1203.81 2081.9,1203.81 2092.32,1203.8 2102.74,1203.77 2113.16,1203.72 2123.57,1203.67 2133.99,1203.63 2144.41,1203.6 2154.83,1203.58 2165.24,1203.57 2175.66,1203.58 2186.08,1203.61 2196.5,1203.65 2206.91,1203.69 2217.33,1203.72 2227.75,1203.75 2238.16,1203.77 2248.58,1203.78 2259,1203.77 2269.42,1203.74 2279.83,1203.72 2290.25,1203.68 2300.67,1203.65 2311.09,1203.62 2321.5,1203.61 2331.92,1203.6 2342.34,1203.61 2352.76,1203.62 "/>
<polyline clip-path="url(#clip911)" style="stroke:#e26f46; stroke-linecap:round; stroke-linejoin:round; stroke-width:6; stroke-opacity:1; fill:none" points="269.283,1203.62 279.7,1203.63 290.118,1203.65 300.535,1203.67 310.952,1203.7 321.37,1203.72 331.787,1203.74 342.204,1203.75 352.622,1203.75 363.039,1203.74 373.456,1203.72 383.874,1203.69 394.291,1203.66 404.709,1203.64 415.126,1203.62 425.543,1203.6 435.961,1203.6 446.378,1203.62 456.795,1203.64 467.213,1203.67 477.63,1203.7 488.047,1203.73 498.465,1203.76 508.882,1203.77 519.3,1203.77 529.717,1203.75 540.134,1203.73 550.552,1203.69 560.969,1203.65 571.386,1203.61 581.804,1203.58 592.221,1203.57 602.639,1203.57 613.056,1203.59 623.473,1203.62 633.891,1203.67 644.308,1203.71 654.725,1203.75 665.143,1203.78 675.56,1203.79 685.977,1203.78 696.395,1203.75 706.812,1203.7 717.23,1203.63 727.647,1203.57 738.064,1203.51 748.482,1203.47 758.899,1203.46 769.316,1203.48 779.734,1203.52 790.151,1203.59 800.568,1203.67 810.986,1203.75 821.403,1203.8 831.821,1203.82 842.238,1203.79 852.655,1203.7 863.073,1203.57 873.49,1203.4 883.907,1203.24 894.325,1203.1 904.742,1203.05 915.159,1203.12 925.577,1203.35 935.994,1203.75 946.412,1204.33 956.829,1205.05 967.246,1205.83 977.664,1206.54 988.081,1206.99 998.498,1206.94 1008.92,1206.09 1019.33,1204.15 1029.75,1200.9 1040.17,1196.26 1050.59,1190.37 1061,1183.66 1071.42,1176.78 1081.84,1170.57 1092.25,1165.87 1102.67,1163.33 1113.09,1163.35 1123.51,1165.92 1133.92,1170.71 1144.34,1177.11 1154.76,1184.39 1165.18,1191.87 1175.59,1199 1186.01,1205.42 1196.43,1210.97 1206.85,1215.67 1217.26,1219.65 1227.68,1223.11 1238.1,1226.26 1248.52,1229.32 1258.93,1232.46 1269.35,1235.8 1279.77,1239.41 1290.18,1243.28 1300.6,1247.33 1311.02,1251.46 1321.44,1255.53 1331.85,1259.4 1342.27,1263 1352.69,1266.31 1363.11,1269.37 1373.52,1272.3 1383.94,1275.27 1394.36,1278.48 1404.78,1282.12 1415.19,1286.4 1425.61,1291.42 1436.03,1297.23 1446.45,1303.7 1456.86,1310.54 1467.28,1317.24 1477.7,1323.11 1488.11,1327.31 1498.53,1329.02 1508.95,1327.6 1519.37,1322.67 1529.78,1314.3 1540.2,1302.96 1550.62,1289.51 1561.04,1274.98 1571.45,1260.45 1581.87,1246.84 1592.29,1234.82 1602.71,1224.77 1613.12,1216.79 1623.54,1210.79 1633.96,1206.55 1644.38,1203.77 1654.79,1202.16 1665.21,1201.43 1675.63,1201.33 1686.04,1201.61 1696.46,1202.11 1706.88,1202.65 1717.3,1203.15 1727.71,1203.52 1738.13,1203.76 1748.55,1203.84 1758.97,1203.81 1769.38,1203.7 1779.8,1203.54 1790.22,1203.38 1800.64,1203.26 1811.05,1203.19 1821.47,1203.18 1831.89,1203.22 1842.3,1203.32 1852.72,1203.45 1863.14,1203.59 1873.56,1203.71 1883.97,1203.81 1894.39,1203.86 1904.81,1203.88 1915.23,1203.85 1925.64,1203.79 1936.06,1203.72 1946.48,1203.64 1956.9,1203.56 1967.31,1203.51 1977.73,1203.48 1988.15,1203.49 1998.57,1203.52 2008.98,1203.57 2019.4,1203.64 2029.82,1203.7 2040.23,1203.76 2050.65,1203.8 2061.07,1203.83 2071.49,1203.82 2081.9,1203.8 2092.32,1203.76 2102.74,1203.71 2113.16,1203.66 2123.57,1203.61 2133.99,1203.58 2144.41,1203.56 2154.83,1203.56 2165.24,1203.58 2175.66,1203.61 2186.08,1203.66 2196.5,1203.7 2206.91,1203.74 2217.33,1203.77 2227.75,1203.78 2238.16,1203.78 2248.58,1203.77 2259,1203.74 2269.42,1203.71 2279.83,1203.67 2290.25,1203.64 2300.67,1203.61 2311.09,1203.59 2321.5,1203.59 2331.92,1203.6 2342.34,1203.63 2352.76,1203.66 "/>
<path clip-path="url(#clip910)" d="M1619.48 860.426 L2283.31 860.426 L2283.31 704.906 L1619.48 704.906  Z" fill="#ffffff" fill-rule="evenodd" fill-opacity="1"/>
<polyline clip-path="url(#clip910)" style="stroke:#000000; stroke-linecap:round; stroke-linejoin:round; stroke-width:4; stroke-opacity:1; fill:none" points="1619.48,860.426 2283.31,860.426 2283.31,704.906 1619.48,704.906 1619.48,860.426 "/>
<polyline clip-path="url(#clip910)" style="stroke:#009af9; stroke-linecap:round; stroke-linejoin:round; stroke-width:6; stroke-opacity:1; fill:none" points="1642.63,756.746 1781.52,756.746 "/>
<path clip-path="url(#clip910)" d="M1826.92 740.6 L1826.92 745.16 Q1824.26 743.887 1821.9 743.262 Q1819.53 742.637 1817.34 742.637 Q1813.52 742.637 1811.43 744.118 Q1809.37 745.6 1809.37 748.331 Q1809.37 750.623 1810.74 751.803 Q1812.13 752.961 1815.97 753.678 L1818.79 754.257 Q1824.03 755.253 1826.5 757.776 Q1829 760.276 1829 764.489 Q1829 769.512 1825.62 772.104 Q1822.27 774.697 1815.76 774.697 Q1813.31 774.697 1810.53 774.141 Q1807.78 773.586 1804.81 772.498 L1804.81 767.683 Q1807.66 769.28 1810.39 770.09 Q1813.12 770.901 1815.76 770.901 Q1819.77 770.901 1821.94 769.327 Q1824.12 767.752 1824.12 764.836 Q1824.12 762.29 1822.54 760.854 Q1820.99 759.419 1817.43 758.702 L1814.58 758.146 Q1809.35 757.104 1807.01 754.882 Q1804.67 752.66 1804.67 748.702 Q1804.67 744.118 1807.89 741.479 Q1811.13 738.841 1816.8 738.841 Q1819.23 738.841 1821.76 739.28 Q1824.28 739.72 1826.92 740.6 Z" fill="#000000" fill-rule="nonzero" fill-opacity="1" /><path clip-path="url(#clip910)" d="M1836.29 739.466 L1840.97 739.466 L1840.97 770.09 L1857.8 770.09 L1857.8 774.026 L1836.29 774.026 L1836.29 739.466 Z" fill="#000000" fill-rule="nonzero" fill-opacity="1" /><path clip-path="url(#clip910)" d="M1879.09 757.822 Q1880.6 758.331 1882.01 759.998 Q1883.45 761.665 1884.88 764.581 L1889.63 774.026 L1884.6 774.026 L1880.18 765.16 Q1878.47 761.688 1876.85 760.553 Q1875.25 759.419 1872.47 759.419 L1867.38 759.419 L1867.38 774.026 L1862.71 774.026 L1862.71 739.466 L1873.26 739.466 Q1879.19 739.466 1882.1 741.942 Q1885.02 744.419 1885.02 749.419 Q1885.02 752.683 1883.49 754.836 Q1881.99 756.989 1879.09 757.822 M1867.38 743.308 L1867.38 755.577 L1873.26 755.577 Q1876.64 755.577 1878.35 754.026 Q1880.09 752.452 1880.09 749.419 Q1880.09 746.387 1878.35 744.859 Q1876.64 743.308 1873.26 743.308 L1867.38 743.308 Z" fill="#000000" fill-rule="nonzero" fill-opacity="1" /><path clip-path="url(#clip910)" d="M1927.06 748.864 L1927.06 752.891 Q1925.25 751.966 1923.31 751.503 Q1921.36 751.04 1919.28 751.04 Q1916.11 751.04 1914.51 752.012 Q1912.94 752.984 1912.94 754.928 Q1912.94 756.41 1914.07 757.266 Q1915.21 758.1 1918.63 758.864 L1920.09 759.188 Q1924.63 760.16 1926.52 761.942 Q1928.45 763.702 1928.45 766.873 Q1928.45 770.484 1925.58 772.59 Q1922.73 774.697 1917.73 774.697 Q1915.65 774.697 1913.38 774.28 Q1911.13 773.887 1908.63 773.077 L1908.63 768.678 Q1910.99 769.905 1913.28 770.53 Q1915.58 771.132 1917.82 771.132 Q1920.83 771.132 1922.45 770.114 Q1924.07 769.072 1924.07 767.197 Q1924.07 765.461 1922.89 764.535 Q1921.73 763.609 1917.77 762.752 L1916.29 762.405 Q1912.33 761.572 1910.58 759.859 Q1908.82 758.123 1908.82 755.114 Q1908.82 751.456 1911.41 749.466 Q1914 747.475 1918.77 747.475 Q1921.13 747.475 1923.21 747.822 Q1925.3 748.169 1927.06 748.864 Z" fill="#000000" fill-rule="nonzero" fill-opacity="1" /><path clip-path="url(#clip910)" d="M1939.44 740.739 L1939.44 748.1 L1948.21 748.1 L1948.21 751.41 L1939.44 751.41 L1939.44 765.484 Q1939.44 768.655 1940.3 769.558 Q1941.18 770.461 1943.84 770.461 L1948.21 770.461 L1948.21 774.026 L1943.84 774.026 Q1938.91 774.026 1937.03 772.197 Q1935.16 770.345 1935.16 765.484 L1935.16 751.41 L1932.03 751.41 L1932.03 748.1 L1935.16 748.1 L1935.16 740.739 L1939.44 740.739 Z" fill="#000000" fill-rule="nonzero" fill-opacity="1" /><path clip-path="url(#clip910)" d="M1968.89 738.007 L1973.14 738.007 L1973.14 774.026 L1968.89 774.026 L1968.89 738.007 Z" fill="#000000" fill-rule="nonzero" fill-opacity="1" /><path clip-path="url(#clip910)" d="M1998.58 748.864 L1998.58 752.891 Q1996.78 751.966 1994.83 751.503 Q1992.89 751.04 1990.81 751.04 Q1987.64 751.04 1986.04 752.012 Q1984.46 752.984 1984.46 754.928 Q1984.46 756.41 1985.6 757.266 Q1986.73 758.1 1990.16 758.864 L1991.62 759.188 Q1996.15 760.16 1998.05 761.942 Q1999.97 763.702 1999.97 766.873 Q1999.97 770.484 1997.1 772.59 Q1994.26 774.697 1989.26 774.697 Q1987.17 774.697 1984.9 774.28 Q1982.66 773.887 1980.16 773.077 L1980.16 768.678 Q1982.52 769.905 1984.81 770.53 Q1987.1 771.132 1989.35 771.132 Q1992.36 771.132 1993.98 770.114 Q1995.6 769.072 1995.6 767.197 Q1995.6 765.461 1994.42 764.535 Q1993.26 763.609 1989.3 762.752 L1987.82 762.405 Q1983.86 761.572 1982.1 759.859 Q1980.34 758.123 1980.34 755.114 Q1980.34 751.456 1982.94 749.466 Q1985.53 747.475 1990.3 747.475 Q1992.66 747.475 1994.74 747.822 Q1996.83 748.169 1998.58 748.864 Z" fill="#000000" fill-rule="nonzero" fill-opacity="1" /><path clip-path="url(#clip910)" d="M2017.22 739.466 L2046.45 739.466 L2046.45 743.401 L2034.19 743.401 L2034.19 774.026 L2029.49 774.026 L2029.49 743.401 L2017.22 743.401 L2017.22 739.466 Z" fill="#000000" fill-rule="nonzero" fill-opacity="1" /><path clip-path="url(#clip910)" d="M2055.41 770.09 L2071.73 770.09 L2071.73 774.026 L2049.79 774.026 L2049.79 770.09 Q2052.45 767.336 2057.03 762.706 Q2061.64 758.053 2062.82 756.711 Q2065.07 754.188 2065.95 752.452 Q2066.85 750.692 2066.85 749.003 Q2066.85 746.248 2064.9 744.512 Q2062.98 742.776 2059.88 742.776 Q2057.68 742.776 2055.23 743.54 Q2052.8 744.304 2050.02 745.854 L2050.02 741.132 Q2052.84 739.998 2055.3 739.419 Q2057.75 738.841 2059.79 738.841 Q2065.16 738.841 2068.35 741.526 Q2071.55 744.211 2071.55 748.702 Q2071.55 750.831 2070.74 752.753 Q2069.95 754.651 2067.84 757.243 Q2067.26 757.915 2064.16 761.132 Q2061.06 764.327 2055.41 770.09 Z" fill="#000000" fill-rule="nonzero" fill-opacity="1" /><path clip-path="url(#clip910)" d="M2081.5 752.498 L2111.18 752.498 L2111.18 756.387 L2081.5 756.387 L2081.5 752.498 M2081.5 761.942 L2111.18 761.942 L2111.18 765.877 L2081.5 765.877 L2081.5 761.942 Z" fill="#000000" fill-rule="nonzero" fill-opacity="1" /><path clip-path="url(#clip910)" d="M2131.27 757.614 Q2127.94 757.614 2126.01 759.396 Q2124.12 761.178 2124.12 764.303 Q2124.12 767.428 2126.01 769.211 Q2127.94 770.993 2131.27 770.993 Q2134.6 770.993 2136.52 769.211 Q2138.44 767.405 2138.44 764.303 Q2138.44 761.178 2136.52 759.396 Q2134.63 757.614 2131.27 757.614 M2126.59 755.623 Q2123.58 754.882 2121.89 752.822 Q2120.23 750.762 2120.23 747.799 Q2120.23 743.655 2123.17 741.248 Q2126.13 738.841 2131.27 738.841 Q2136.43 738.841 2139.37 741.248 Q2142.31 743.655 2142.31 747.799 Q2142.31 750.762 2140.62 752.822 Q2138.95 754.882 2135.97 755.623 Q2139.35 756.41 2141.22 758.702 Q2143.12 760.993 2143.12 764.303 Q2143.12 769.327 2140.04 772.012 Q2136.99 774.697 2131.27 774.697 Q2125.55 774.697 2122.47 772.012 Q2119.42 769.327 2119.42 764.303 Q2119.42 760.993 2121.32 758.702 Q2123.21 756.41 2126.59 755.623 M2124.88 748.239 Q2124.88 750.924 2126.55 752.428 Q2128.24 753.933 2131.27 753.933 Q2134.28 753.933 2135.97 752.428 Q2137.68 750.924 2137.68 748.239 Q2137.68 745.554 2135.97 744.049 Q2134.28 742.544 2131.27 742.544 Q2128.24 742.544 2126.55 744.049 Q2124.88 745.554 2124.88 748.239 Z" fill="#000000" fill-rule="nonzero" fill-opacity="1" /><path clip-path="url(#clip910)" d="M2161.43 742.544 Q2157.82 742.544 2155.99 746.109 Q2154.19 749.651 2154.19 756.78 Q2154.19 763.887 2155.99 767.452 Q2157.82 770.993 2161.43 770.993 Q2165.07 770.993 2166.87 767.452 Q2168.7 763.887 2168.7 756.78 Q2168.7 749.651 2166.87 746.109 Q2165.07 742.544 2161.43 742.544 M2161.43 738.841 Q2167.24 738.841 2170.3 743.447 Q2173.38 748.03 2173.38 756.78 Q2173.38 765.507 2170.3 770.114 Q2167.24 774.697 2161.43 774.697 Q2155.62 774.697 2152.54 770.114 Q2149.49 765.507 2149.49 756.78 Q2149.49 748.03 2152.54 743.447 Q2155.62 738.841 2161.43 738.841 Z" fill="#000000" fill-rule="nonzero" fill-opacity="1" /><path clip-path="url(#clip910)" d="M2216.25 753.077 Q2217.84 750.206 2220.06 748.841 Q2222.29 747.475 2225.3 747.475 Q2229.35 747.475 2231.55 750.322 Q2233.75 753.146 2233.75 758.378 L2233.75 774.026 L2229.46 774.026 L2229.46 758.516 Q2229.46 754.79 2228.14 752.984 Q2226.82 751.178 2224.12 751.178 Q2220.81 751.178 2218.88 753.378 Q2216.96 755.577 2216.96 759.373 L2216.96 774.026 L2212.68 774.026 L2212.68 758.516 Q2212.68 754.766 2211.36 752.984 Q2210.04 751.178 2207.29 751.178 Q2204.02 751.178 2202.1 753.401 Q2200.18 755.6 2200.18 759.373 L2200.18 774.026 L2195.9 774.026 L2195.9 748.1 L2200.18 748.1 L2200.18 752.128 Q2201.64 749.743 2203.68 748.609 Q2205.71 747.475 2208.51 747.475 Q2211.34 747.475 2213.31 748.91 Q2215.3 750.345 2216.25 753.077 Z" fill="#000000" fill-rule="nonzero" fill-opacity="1" /><path clip-path="url(#clip910)" d="M2258.77 748.864 L2258.77 752.891 Q2256.96 751.966 2255.02 751.503 Q2253.07 751.04 2250.99 751.04 Q2247.82 751.04 2246.22 752.012 Q2244.65 752.984 2244.65 754.928 Q2244.65 756.41 2245.78 757.266 Q2246.92 758.1 2250.34 758.864 L2251.8 759.188 Q2256.34 760.16 2258.24 761.942 Q2260.16 763.702 2260.16 766.873 Q2260.16 770.484 2257.29 772.59 Q2254.44 774.697 2249.44 774.697 Q2247.36 774.697 2245.09 774.28 Q2242.84 773.887 2240.34 773.077 L2240.34 768.678 Q2242.7 769.905 2245 770.53 Q2247.29 771.132 2249.53 771.132 Q2252.54 771.132 2254.16 770.114 Q2255.78 769.072 2255.78 767.197 Q2255.78 765.461 2254.6 764.535 Q2253.44 763.609 2249.49 762.752 L2248 762.405 Q2244.05 761.572 2242.29 759.859 Q2240.53 758.123 2240.53 755.114 Q2240.53 751.456 2243.12 749.466 Q2245.71 747.475 2250.48 747.475 Q2252.84 747.475 2254.93 747.822 Q2257.01 748.169 2258.77 748.864 Z" fill="#000000" fill-rule="nonzero" fill-opacity="1" /><polyline clip-path="url(#clip910)" style="stroke:#e26f46; stroke-linecap:round; stroke-linejoin:round; stroke-width:6; stroke-opacity:1; fill:none" points="1642.63,808.586 1781.52,808.586 "/>
<path clip-path="url(#clip910)" d="M1826.92 792.44 L1826.92 797 Q1824.26 795.727 1821.9 795.102 Q1819.53 794.477 1817.34 794.477 Q1813.52 794.477 1811.43 795.958 Q1809.37 797.44 1809.37 800.171 Q1809.37 802.463 1810.74 803.643 Q1812.13 804.801 1815.97 805.518 L1818.79 806.097 Q1824.03 807.093 1826.5 809.616 Q1829 812.116 1829 816.329 Q1829 821.352 1825.62 823.944 Q1822.27 826.537 1815.76 826.537 Q1813.31 826.537 1810.53 825.981 Q1807.78 825.426 1804.81 824.338 L1804.81 819.523 Q1807.66 821.12 1810.39 821.93 Q1813.12 822.741 1815.76 822.741 Q1819.77 822.741 1821.94 821.167 Q1824.12 819.592 1824.12 816.676 Q1824.12 814.13 1822.54 812.694 Q1820.99 811.259 1817.43 810.542 L1814.58 809.986 Q1809.35 808.944 1807.01 806.722 Q1804.67 804.5 1804.67 800.542 Q1804.67 795.958 1807.89 793.319 Q1811.13 790.681 1816.8 790.681 Q1819.23 790.681 1821.76 791.12 Q1824.28 791.56 1826.92 792.44 Z" fill="#000000" fill-rule="nonzero" fill-opacity="1" /><path clip-path="url(#clip910)" d="M1836.29 791.306 L1840.97 791.306 L1840.97 821.93 L1857.8 821.93 L1857.8 825.866 L1836.29 825.866 L1836.29 791.306 Z" fill="#000000" fill-rule="nonzero" fill-opacity="1" /><path clip-path="url(#clip910)" d="M1879.09 809.662 Q1880.6 810.171 1882.01 811.838 Q1883.45 813.505 1884.88 816.421 L1889.63 825.866 L1884.6 825.866 L1880.18 817 Q1878.47 813.528 1876.85 812.393 Q1875.25 811.259 1872.47 811.259 L1867.38 811.259 L1867.38 825.866 L1862.71 825.866 L1862.71 791.306 L1873.26 791.306 Q1879.19 791.306 1882.1 793.782 Q1885.02 796.259 1885.02 801.259 Q1885.02 804.523 1883.49 806.676 Q1881.99 808.829 1879.09 809.662 M1867.38 795.148 L1867.38 807.417 L1873.26 807.417 Q1876.64 807.417 1878.35 805.866 Q1880.09 804.292 1880.09 801.259 Q1880.09 798.227 1878.35 796.699 Q1876.64 795.148 1873.26 795.148 L1867.38 795.148 Z" fill="#000000" fill-rule="nonzero" fill-opacity="1" /><path clip-path="url(#clip910)" d="M1927.06 800.704 L1927.06 804.731 Q1925.25 803.806 1923.31 803.343 Q1921.36 802.88 1919.28 802.88 Q1916.11 802.88 1914.51 803.852 Q1912.94 804.824 1912.94 806.768 Q1912.94 808.25 1914.07 809.106 Q1915.21 809.94 1918.63 810.704 L1920.09 811.028 Q1924.63 812 1926.52 813.782 Q1928.45 815.542 1928.45 818.713 Q1928.45 822.324 1925.58 824.43 Q1922.73 826.537 1917.73 826.537 Q1915.65 826.537 1913.38 826.12 Q1911.13 825.727 1908.63 824.917 L1908.63 820.518 Q1910.99 821.745 1913.28 822.37 Q1915.58 822.972 1917.82 822.972 Q1920.83 822.972 1922.45 821.954 Q1924.07 820.912 1924.07 819.037 Q1924.07 817.301 1922.89 816.375 Q1921.73 815.449 1917.77 814.592 L1916.29 814.245 Q1912.33 813.412 1910.58 811.699 Q1908.82 809.963 1908.82 806.954 Q1908.82 803.296 1911.41 801.306 Q1914 799.315 1918.77 799.315 Q1921.13 799.315 1923.21 799.662 Q1925.3 800.009 1927.06 800.704 Z" fill="#000000" fill-rule="nonzero" fill-opacity="1" /><path clip-path="url(#clip910)" d="M1939.44 792.579 L1939.44 799.94 L1948.21 799.94 L1948.21 803.25 L1939.44 803.25 L1939.44 817.324 Q1939.44 820.495 1940.3 821.398 Q1941.18 822.301 1943.84 822.301 L1948.21 822.301 L1948.21 825.866 L1943.84 825.866 Q1938.91 825.866 1937.03 824.037 Q1935.16 822.185 1935.16 817.324 L1935.16 803.25 L1932.03 803.25 L1932.03 799.94 L1935.16 799.94 L1935.16 792.579 L1939.44 792.579 Z" fill="#000000" fill-rule="nonzero" fill-opacity="1" /><path clip-path="url(#clip910)" d="M1968.89 789.847 L1973.14 789.847 L1973.14 825.866 L1968.89 825.866 L1968.89 789.847 Z" fill="#000000" fill-rule="nonzero" fill-opacity="1" /><path clip-path="url(#clip910)" d="M1998.58 800.704 L1998.58 804.731 Q1996.78 803.806 1994.83 803.343 Q1992.89 802.88 1990.81 802.88 Q1987.64 802.88 1986.04 803.852 Q1984.46 804.824 1984.46 806.768 Q1984.46 808.25 1985.6 809.106 Q1986.73 809.94 1990.16 810.704 L1991.62 811.028 Q1996.15 812 1998.05 813.782 Q1999.97 815.542 1999.97 818.713 Q1999.97 822.324 1997.1 824.43 Q1994.26 826.537 1989.26 826.537 Q1987.17 826.537 1984.9 826.12 Q1982.66 825.727 1980.16 824.917 L1980.16 820.518 Q1982.52 821.745 1984.81 822.37 Q1987.1 822.972 1989.35 822.972 Q1992.36 822.972 1993.98 821.954 Q1995.6 820.912 1995.6 819.037 Q1995.6 817.301 1994.42 816.375 Q1993.26 815.449 1989.3 814.592 L1987.82 814.245 Q1983.86 813.412 1982.1 811.699 Q1980.34 809.963 1980.34 806.954 Q1980.34 803.296 1982.94 801.306 Q1985.53 799.315 1990.3 799.315 Q1992.66 799.315 1994.74 799.662 Q1996.83 800.009 1998.58 800.704 Z" fill="#000000" fill-rule="nonzero" fill-opacity="1" /><path clip-path="url(#clip910)" d="M2017.22 791.306 L2046.45 791.306 L2046.45 795.241 L2034.19 795.241 L2034.19 825.866 L2029.49 825.866 L2029.49 795.241 L2017.22 795.241 L2017.22 791.306 Z" fill="#000000" fill-rule="nonzero" fill-opacity="1" /><path clip-path="url(#clip910)" d="M2055.41 821.93 L2071.73 821.93 L2071.73 825.866 L2049.79 825.866 L2049.79 821.93 Q2052.45 819.176 2057.03 814.546 Q2061.64 809.893 2062.82 808.551 Q2065.07 806.028 2065.95 804.292 Q2066.85 802.532 2066.85 800.843 Q2066.85 798.088 2064.9 796.352 Q2062.98 794.616 2059.88 794.616 Q2057.68 794.616 2055.23 795.38 Q2052.8 796.144 2050.02 797.694 L2050.02 792.972 Q2052.84 791.838 2055.3 791.259 Q2057.75 790.681 2059.79 790.681 Q2065.16 790.681 2068.35 793.366 Q2071.55 796.051 2071.55 800.542 Q2071.55 802.671 2070.74 804.593 Q2069.95 806.491 2067.84 809.083 Q2067.26 809.755 2064.16 812.972 Q2061.06 816.167 2055.41 821.93 Z" fill="#000000" fill-rule="nonzero" fill-opacity="1" /><path clip-path="url(#clip910)" d="M2081.5 804.338 L2111.18 804.338 L2111.18 808.227 L2081.5 808.227 L2081.5 804.338 M2081.5 813.782 L2111.18 813.782 L2111.18 817.717 L2081.5 817.717 L2081.5 813.782 Z" fill="#000000" fill-rule="nonzero" fill-opacity="1" /><path clip-path="url(#clip910)" d="M2122.08 821.93 L2129.72 821.93 L2129.72 795.565 L2121.41 797.231 L2121.41 792.972 L2129.67 791.306 L2134.35 791.306 L2134.35 821.93 L2141.99 821.93 L2141.99 825.866 L2122.08 825.866 L2122.08 821.93 Z" fill="#000000" fill-rule="nonzero" fill-opacity="1" /><path clip-path="url(#clip910)" d="M2161.43 794.384 Q2157.82 794.384 2155.99 797.949 Q2154.19 801.491 2154.19 808.62 Q2154.19 815.727 2155.99 819.292 Q2157.82 822.833 2161.43 822.833 Q2165.07 822.833 2166.87 819.292 Q2168.7 815.727 2168.7 808.62 Q2168.7 801.491 2166.87 797.949 Q2165.07 794.384 2161.43 794.384 M2161.43 790.681 Q2167.24 790.681 2170.3 795.287 Q2173.38 799.87 2173.38 808.62 Q2173.38 817.347 2170.3 821.954 Q2167.24 826.537 2161.43 826.537 Q2155.62 826.537 2152.54 821.954 Q2149.49 817.347 2149.49 808.62 Q2149.49 799.87 2152.54 795.287 Q2155.62 790.681 2161.43 790.681 Z" fill="#000000" fill-rule="nonzero" fill-opacity="1" /><path clip-path="url(#clip910)" d="M2216.25 804.917 Q2217.84 802.046 2220.06 800.681 Q2222.29 799.315 2225.3 799.315 Q2229.35 799.315 2231.55 802.162 Q2233.75 804.986 2233.75 810.218 L2233.75 825.866 L2229.46 825.866 L2229.46 810.356 Q2229.46 806.63 2228.14 804.824 Q2226.82 803.018 2224.12 803.018 Q2220.81 803.018 2218.88 805.218 Q2216.96 807.417 2216.96 811.213 L2216.96 825.866 L2212.68 825.866 L2212.68 810.356 Q2212.68 806.606 2211.36 804.824 Q2210.04 803.018 2207.29 803.018 Q2204.02 803.018 2202.1 805.241 Q2200.18 807.44 2200.18 811.213 L2200.18 825.866 L2195.9 825.866 L2195.9 799.94 L2200.18 799.94 L2200.18 803.968 Q2201.64 801.583 2203.68 800.449 Q2205.71 799.315 2208.51 799.315 Q2211.34 799.315 2213.31 800.75 Q2215.3 802.185 2216.25 804.917 Z" fill="#000000" fill-rule="nonzero" fill-opacity="1" /><path clip-path="url(#clip910)" d="M2258.77 800.704 L2258.77 804.731 Q2256.96 803.806 2255.02 803.343 Q2253.07 802.88 2250.99 802.88 Q2247.82 802.88 2246.22 803.852 Q2244.65 804.824 2244.65 806.768 Q2244.65 808.25 2245.78 809.106 Q2246.92 809.94 2250.34 810.704 L2251.8 811.028 Q2256.34 812 2258.24 813.782 Q2260.16 815.542 2260.16 818.713 Q2260.16 822.324 2257.29 824.43 Q2254.44 826.537 2249.44 826.537 Q2247.36 826.537 2245.09 826.12 Q2242.84 825.727 2240.34 824.917 L2240.34 820.518 Q2242.7 821.745 2245 822.37 Q2247.29 822.972 2249.53 822.972 Q2252.54 822.972 2254.16 821.954 Q2255.78 820.912 2255.78 819.037 Q2255.78 817.301 2254.6 816.375 Q2253.44 815.449 2249.49 814.592 L2248 814.245 Q2244.05 813.412 2242.29 811.699 Q2240.53 809.963 2240.53 806.954 Q2240.53 803.296 2243.12 801.306 Q2245.71 799.315 2250.48 799.315 Q2252.84 799.315 2254.93 799.662 Q2257.01 800.009 2258.77 800.704 Z" fill="#000000" fill-rule="nonzero" fill-opacity="1" /></svg>
