<?xml version="1.0" encoding="utf-8"?>
<svg xmlns="http://www.w3.org/2000/svg" xmlns:xlink="http://www.w3.org/1999/xlink" width="600" height="400" viewBox="0 0 2400 1600">
<defs>
  <clipPath id="clip880">
    <rect x="0" y="0" width="2400" height="1600"/>
  </clipPath>
</defs>
<path clip-path="url(#clip880)" d="M0 1600 L2400 1600 L2400 0 L0 0  Z" fill="#ffffff" fill-rule="evenodd" fill-opacity="1"/>
<defs>
  <clipPath id="clip881">
    <rect x="269" y="106" width="2084" height="1318"/>
  </clipPath>
</defs>
<path clip-path="url(#clip880)" d="M269.283 1423.18 L2352.76 1423.18 L2352.76 106.192 L269.283 106.192  Z" fill="#ffffff" fill-rule="evenodd" fill-opacity="1"/>
<polyline clip-path="url(#clip881)" style="stroke:#000000; stroke-linecap:round; stroke-linejoin:round; stroke-width:2; stroke-opacity:0.1; fill:none" points="269.283,1423.18 269.283,106.192 "/>
<polyline clip-path="url(#clip881)" style="stroke:#000000; stroke-linecap:round; stroke-linejoin:round; stroke-width:2; stroke-opacity:0.1; fill:none" points="1050.59,1423.18 1050.59,106.192 "/>
<polyline clip-path="url(#clip881)" style="stroke:#000000; stroke-linecap:round; stroke-linejoin:round; stroke-width:2; stroke-opacity:0.1; fill:none" points="1311.02,1423.18 1311.02,106.192 "/>
<polyline clip-path="url(#clip881)" style="stroke:#000000; stroke-linecap:round; stroke-linejoin:round; stroke-width:2; stroke-opacity:0.1; fill:none" points="1571.45,1423.18 1571.45,106.192 "/>
<polyline clip-path="url(#clip881)" style="stroke:#000000; stroke-linecap:round; stroke-linejoin:round; stroke-width:2; stroke-opacity:0.1; fill:none" points="2352.76,1423.18 2352.76,106.192 "/>
<polyline clip-path="url(#clip881)" style="stroke:#000000; stroke-linecap:round; stroke-linejoin:round; stroke-width:2; stroke-opacity:0.1; fill:none" points="269.283,1203.68 2352.76,1203.68 "/>
<polyline clip-path="url(#clip881)" style="stroke:#000000; stroke-linecap:round; stroke-linejoin:round; stroke-width:2; stroke-opacity:0.1; fill:none" points="269.283,253.228 2352.76,253.228 "/>
<polyline clip-path="url(#clip881)" style="stroke:#000000; stroke-linecap:round; stroke-linejoin:round; stroke-width:2; stroke-opacity:0.1; fill:none" points="269.283,106.192 2352.76,106.192 "/>
<polyline clip-path="url(#clip880)" style="stroke:#000000; stroke-linecap:round; stroke-linejoin:round; stroke-width:4; stroke-opacity:1; fill:none" points="269.283,1423.18 2352.76,1423.18 "/>
<polyline clip-path="url(#clip880)" style="stroke:#000000; stroke-linecap:round; stroke-linejoin:round; stroke-width:4; stroke-opacity:1; fill:none" points="269.283,1423.18 269.283,1404.28 "/>
<polyline clip-path="url(#clip880)" style="stroke:#000000; stroke-linecap:round; stroke-linejoin:round; stroke-width:4; stroke-opacity:1; fill:none" points="1050.59,1423.18 1050.59,1404.28 "/>
<polyline clip-path="url(#clip880)" style="stroke:#000000; stroke-linecap:round; stroke-linejoin:round; stroke-width:4; stroke-opacity:1; fill:none" points="1311.02,1423.18 1311.02,1404.28 "/>
<polyline clip-path="url(#clip880)" style="stroke:#000000; stroke-linecap:round; stroke-linejoin:round; stroke-width:4; stroke-opacity:1; fill:none" points="1571.45,1423.18 1571.45,1404.28 "/>
<polyline clip-path="url(#clip880)" style="stroke:#000000; stroke-linecap:round; stroke-linejoin:round; stroke-width:4; stroke-opacity:1; fill:none" points="2352.76,1423.18 2352.76,1404.28 "/>
<path clip-path="url(#clip880)" d="M200.73 1468.75 L230.406 1468.75 L230.406 1472.69 L200.73 1472.69 L200.73 1468.75 Z" fill="#000000" fill-rule="nonzero" fill-opacity="1" /><path clip-path="url(#clip880)" d="M241.308 1481.64 L248.947 1481.64 L248.947 1455.28 L240.637 1456.95 L240.637 1452.69 L248.901 1451.02 L253.577 1451.02 L253.577 1481.64 L261.216 1481.64 L261.216 1485.58 L241.308 1485.58 L241.308 1481.64 Z" fill="#000000" fill-rule="nonzero" fill-opacity="1" /><path clip-path="url(#clip880)" d="M270.66 1479.7 L275.544 1479.7 L275.544 1485.58 L270.66 1485.58 L270.66 1479.7 Z" fill="#000000" fill-rule="nonzero" fill-opacity="1" /><path clip-path="url(#clip880)" d="M295.729 1454.1 Q292.118 1454.1 290.29 1457.66 Q288.484 1461.2 288.484 1468.33 Q288.484 1475.44 290.29 1479.01 Q292.118 1482.55 295.729 1482.55 Q299.364 1482.55 301.169 1479.01 Q302.998 1475.44 302.998 1468.33 Q302.998 1461.2 301.169 1457.66 Q299.364 1454.1 295.729 1454.1 M295.729 1450.39 Q301.54 1450.39 304.595 1455 Q307.674 1459.58 307.674 1468.33 Q307.674 1477.06 304.595 1481.67 Q301.54 1486.25 295.729 1486.25 Q289.919 1486.25 286.841 1481.67 Q283.785 1477.06 283.785 1468.33 Q283.785 1459.58 286.841 1455 Q289.919 1450.39 295.729 1450.39 Z" fill="#000000" fill-rule="nonzero" fill-opacity="1" /><path clip-path="url(#clip880)" d="M325.891 1454.1 Q322.28 1454.1 320.452 1457.66 Q318.646 1461.2 318.646 1468.33 Q318.646 1475.44 320.452 1479.01 Q322.28 1482.55 325.891 1482.55 Q329.526 1482.55 331.331 1479.01 Q333.16 1475.44 333.16 1468.33 Q333.16 1461.2 331.331 1457.66 Q329.526 1454.1 325.891 1454.1 M325.891 1450.39 Q331.701 1450.39 334.757 1455 Q337.836 1459.58 337.836 1468.33 Q337.836 1477.06 334.757 1481.67 Q331.701 1486.25 325.891 1486.25 Q320.081 1486.25 317.002 1481.67 Q313.947 1477.06 313.947 1468.33 Q313.947 1459.58 317.002 1455 Q320.081 1450.39 325.891 1450.39 Z" fill="#000000" fill-rule="nonzero" fill-opacity="1" /><path clip-path="url(#clip880)" d="M982.53 1468.75 L1012.21 1468.75 L1012.21 1472.69 L982.53 1472.69 L982.53 1468.75 Z" fill="#000000" fill-rule="nonzero" fill-opacity="1" /><path clip-path="url(#clip880)" d="M1032.3 1454.1 Q1028.69 1454.1 1026.86 1457.66 Q1025.05 1461.2 1025.05 1468.33 Q1025.05 1475.44 1026.86 1479.01 Q1028.69 1482.55 1032.3 1482.55 Q1035.93 1482.55 1037.74 1479.01 Q1039.57 1475.44 1039.57 1468.33 Q1039.57 1461.2 1037.74 1457.66 Q1035.93 1454.1 1032.3 1454.1 M1032.3 1450.39 Q1038.11 1450.39 1041.16 1455 Q1044.24 1459.58 1044.24 1468.33 Q1044.24 1477.06 1041.16 1481.67 Q1038.11 1486.25 1032.3 1486.25 Q1026.49 1486.25 1023.41 1481.67 Q1020.35 1477.06 1020.35 1468.33 Q1020.35 1459.58 1023.41 1455 Q1026.49 1450.39 1032.3 1450.39 Z" fill="#000000" fill-rule="nonzero" fill-opacity="1" /><path clip-path="url(#clip880)" d="M1052.46 1479.7 L1057.34 1479.7 L1057.34 1485.58 L1052.46 1485.58 L1052.46 1479.7 Z" fill="#000000" fill-rule="nonzero" fill-opacity="1" /><path clip-path="url(#clip880)" d="M1071.56 1481.64 L1087.88 1481.64 L1087.88 1485.58 L1065.93 1485.58 L1065.93 1481.64 Q1068.59 1478.89 1073.18 1474.26 Q1077.78 1469.61 1078.96 1468.27 Q1081.21 1465.74 1082.09 1464.01 Q1082.99 1462.25 1082.99 1460.56 Q1082.99 1457.8 1081.05 1456.07 Q1079.13 1454.33 1076.02 1454.33 Q1073.83 1454.33 1071.37 1455.09 Q1068.94 1455.86 1066.16 1457.41 L1066.16 1452.69 Q1068.99 1451.55 1071.44 1450.97 Q1073.9 1450.39 1075.93 1450.39 Q1081.3 1450.39 1084.5 1453.08 Q1087.69 1455.77 1087.69 1460.26 Q1087.69 1462.39 1086.88 1464.31 Q1086.09 1466.2 1083.99 1468.8 Q1083.41 1469.47 1080.31 1472.69 Q1077.21 1475.88 1071.56 1481.64 Z" fill="#000000" fill-rule="nonzero" fill-opacity="1" /><path clip-path="url(#clip880)" d="M1097.74 1451.02 L1116.09 1451.02 L1116.09 1454.96 L1102.02 1454.96 L1102.02 1463.43 Q1103.04 1463.08 1104.06 1462.92 Q1105.08 1462.73 1106.09 1462.73 Q1111.88 1462.73 1115.26 1465.9 Q1118.64 1469.08 1118.64 1474.49 Q1118.64 1480.07 1115.17 1483.17 Q1111.7 1486.25 1105.38 1486.25 Q1103.2 1486.25 1100.93 1485.88 Q1098.69 1485.51 1096.28 1484.77 L1096.28 1480.07 Q1098.36 1481.2 1100.58 1481.76 Q1102.81 1482.32 1105.28 1482.32 Q1109.29 1482.32 1111.63 1480.21 Q1113.96 1478.1 1113.96 1474.49 Q1113.96 1470.88 1111.63 1468.77 Q1109.29 1466.67 1105.28 1466.67 Q1103.41 1466.67 1101.53 1467.08 Q1099.68 1467.5 1097.74 1468.38 L1097.74 1451.02 Z" fill="#000000" fill-rule="nonzero" fill-opacity="1" /><path clip-path="url(#clip880)" d="M1273.32 1454.1 Q1269.71 1454.1 1267.88 1457.66 Q1266.08 1461.2 1266.08 1468.33 Q1266.08 1475.44 1267.88 1479.01 Q1269.71 1482.55 1273.32 1482.55 Q1276.96 1482.55 1278.76 1479.01 Q1280.59 1475.44 1280.59 1468.33 Q1280.59 1461.2 1278.76 1457.66 Q1276.96 1454.1 1273.32 1454.1 M1273.32 1450.39 Q1279.13 1450.39 1282.19 1455 Q1285.27 1459.58 1285.27 1468.33 Q1285.27 1477.06 1282.19 1481.67 Q1279.13 1486.25 1273.32 1486.25 Q1267.51 1486.25 1264.43 1481.67 Q1261.38 1477.06 1261.38 1468.33 Q1261.38 1459.58 1264.43 1455 Q1267.51 1450.39 1273.32 1450.39 Z" fill="#000000" fill-rule="nonzero" fill-opacity="1" /><path clip-path="url(#clip880)" d="M1293.48 1479.7 L1298.37 1479.7 L1298.37 1485.58 L1293.48 1485.58 L1293.48 1479.7 Z" fill="#000000" fill-rule="nonzero" fill-opacity="1" /><path clip-path="url(#clip880)" d="M1318.55 1454.1 Q1314.94 1454.1 1313.11 1457.66 Q1311.31 1461.2 1311.31 1468.33 Q1311.31 1475.44 1313.11 1479.01 Q1314.94 1482.55 1318.55 1482.55 Q1322.19 1482.55 1323.99 1479.01 Q1325.82 1475.44 1325.82 1468.33 Q1325.82 1461.2 1323.99 1457.66 Q1322.19 1454.1 1318.55 1454.1 M1318.55 1450.39 Q1324.36 1450.39 1327.42 1455 Q1330.5 1459.58 1330.5 1468.33 Q1330.5 1477.06 1327.42 1481.67 Q1324.36 1486.25 1318.55 1486.25 Q1312.74 1486.25 1309.67 1481.67 Q1306.61 1477.06 1306.61 1468.33 Q1306.61 1459.58 1309.67 1455 Q1312.74 1450.39 1318.55 1450.39 Z" fill="#000000" fill-rule="nonzero" fill-opacity="1" /><path clip-path="url(#clip880)" d="M1348.72 1454.1 Q1345.1 1454.1 1343.28 1457.66 Q1341.47 1461.2 1341.47 1468.33 Q1341.47 1475.44 1343.28 1479.01 Q1345.1 1482.55 1348.72 1482.55 Q1352.35 1482.55 1354.16 1479.01 Q1355.98 1475.44 1355.98 1468.33 Q1355.98 1461.2 1354.16 1457.66 Q1352.35 1454.1 1348.72 1454.1 M1348.72 1450.39 Q1354.53 1450.39 1357.58 1455 Q1360.66 1459.58 1360.66 1468.33 Q1360.66 1477.06 1357.58 1481.67 Q1354.53 1486.25 1348.72 1486.25 Q1342.91 1486.25 1339.83 1481.67 Q1336.77 1477.06 1336.77 1468.33 Q1336.77 1459.58 1339.83 1455 Q1342.91 1450.39 1348.72 1450.39 Z" fill="#000000" fill-rule="nonzero" fill-opacity="1" /><path clip-path="url(#clip880)" d="M1534.25 1454.1 Q1530.64 1454.1 1528.81 1457.66 Q1527.01 1461.2 1527.01 1468.33 Q1527.01 1475.44 1528.81 1479.01 Q1530.64 1482.55 1534.25 1482.55 Q1537.89 1482.55 1539.69 1479.01 Q1541.52 1475.44 1541.52 1468.33 Q1541.52 1461.2 1539.69 1457.66 Q1537.89 1454.1 1534.25 1454.1 M1534.25 1450.39 Q1540.06 1450.39 1543.12 1455 Q1546.2 1459.58 1546.2 1468.33 Q1546.2 1477.06 1543.12 1481.67 Q1540.06 1486.25 1534.25 1486.25 Q1528.44 1486.25 1525.37 1481.67 Q1522.31 1477.06 1522.31 1468.33 Q1522.31 1459.58 1525.37 1455 Q1528.44 1450.39 1534.25 1450.39 Z" fill="#000000" fill-rule="nonzero" fill-opacity="1" /><path clip-path="url(#clip880)" d="M1554.42 1479.7 L1559.3 1479.7 L1559.3 1485.58 L1554.42 1485.58 L1554.42 1479.7 Z" fill="#000000" fill-rule="nonzero" fill-opacity="1" /><path clip-path="url(#clip880)" d="M1573.51 1481.64 L1589.83 1481.64 L1589.83 1485.58 L1567.89 1485.58 L1567.89 1481.64 Q1570.55 1478.89 1575.13 1474.26 Q1579.74 1469.61 1580.92 1468.27 Q1583.17 1465.74 1584.05 1464.01 Q1584.95 1462.25 1584.95 1460.56 Q1584.95 1457.8 1583 1456.07 Q1581.08 1454.33 1577.98 1454.33 Q1575.78 1454.33 1573.33 1455.09 Q1570.9 1455.86 1568.12 1457.41 L1568.12 1452.69 Q1570.94 1451.55 1573.4 1450.97 Q1575.85 1450.39 1577.89 1450.39 Q1583.26 1450.39 1586.45 1453.08 Q1589.65 1455.77 1589.65 1460.26 Q1589.65 1462.39 1588.84 1464.31 Q1588.05 1466.2 1585.94 1468.8 Q1585.37 1469.47 1582.26 1472.69 Q1579.16 1475.88 1573.51 1481.64 Z" fill="#000000" fill-rule="nonzero" fill-opacity="1" /><path clip-path="url(#clip880)" d="M1599.69 1451.02 L1618.05 1451.02 L1618.05 1454.96 L1603.98 1454.96 L1603.98 1463.43 Q1604.99 1463.08 1606.01 1462.92 Q1607.03 1462.73 1608.05 1462.73 Q1613.84 1462.73 1617.22 1465.9 Q1620.6 1469.08 1620.6 1474.49 Q1620.6 1480.07 1617.12 1483.17 Q1613.65 1486.25 1607.33 1486.25 Q1605.16 1486.25 1602.89 1485.88 Q1600.64 1485.51 1598.24 1484.77 L1598.24 1480.07 Q1600.32 1481.2 1602.54 1481.76 Q1604.76 1482.32 1607.24 1482.32 Q1611.24 1482.32 1613.58 1480.21 Q1615.92 1478.1 1615.92 1474.49 Q1615.92 1470.88 1613.58 1468.77 Q1611.24 1466.67 1607.24 1466.67 Q1605.37 1466.67 1603.49 1467.08 Q1601.64 1467.5 1599.69 1468.38 L1599.69 1451.02 Z" fill="#000000" fill-rule="nonzero" fill-opacity="1" /><path clip-path="url(#clip880)" d="M2304.83 1481.64 L2312.47 1481.64 L2312.47 1455.28 L2304.16 1456.95 L2304.16 1452.69 L2312.42 1451.02 L2317.1 1451.02 L2317.1 1481.64 L2324.74 1481.64 L2324.74 1485.58 L2304.83 1485.58 L2304.83 1481.64 Z" fill="#000000" fill-rule="nonzero" fill-opacity="1" /><path clip-path="url(#clip880)" d="M2334.18 1479.7 L2339.06 1479.7 L2339.06 1485.58 L2334.18 1485.58 L2334.18 1479.7 Z" fill="#000000" fill-rule="nonzero" fill-opacity="1" /><path clip-path="url(#clip880)" d="M2359.25 1454.1 Q2355.64 1454.1 2353.81 1457.66 Q2352 1461.2 2352 1468.33 Q2352 1475.44 2353.81 1479.01 Q2355.64 1482.55 2359.25 1482.55 Q2362.88 1482.55 2364.69 1479.01 Q2366.52 1475.44 2366.52 1468.33 Q2366.52 1461.2 2364.69 1457.66 Q2362.88 1454.1 2359.25 1454.1 M2359.25 1450.39 Q2365.06 1450.39 2368.11 1455 Q2371.19 1459.58 2371.19 1468.33 Q2371.19 1477.06 2368.11 1481.67 Q2365.06 1486.25 2359.25 1486.25 Q2353.44 1486.25 2350.36 1481.67 Q2347.3 1477.06 2347.3 1468.33 Q2347.3 1459.58 2350.36 1455 Q2353.44 1450.39 2359.25 1450.39 Z" fill="#000000" fill-rule="nonzero" fill-opacity="1" /><path clip-path="url(#clip880)" d="M2389.41 1454.1 Q2385.8 1454.1 2383.97 1457.66 Q2382.17 1461.2 2382.17 1468.33 Q2382.17 1475.44 2383.97 1479.01 Q2385.8 1482.55 2389.41 1482.55 Q2393.05 1482.55 2394.85 1479.01 Q2396.68 1475.44 2396.68 1468.33 Q2396.68 1461.2 2394.85 1457.66 Q2393.05 1454.1 2389.41 1454.1 M2389.41 1450.39 Q2395.22 1450.39 2398.28 1455 Q2401.36 1459.58 2401.36 1468.33 Q2401.36 1477.06 2398.28 1481.67 Q2395.22 1486.25 2389.41 1486.25 Q2383.6 1486.25 2380.52 1481.67 Q2377.47 1477.06 2377.47 1468.33 Q2377.47 1459.58 2380.52 1455 Q2383.6 1450.39 2389.41 1450.39 Z" fill="#000000" fill-rule="nonzero" fill-opacity="1" /><path clip-path="url(#clip880)" d="M1213.45 1532.4 L1241.27 1532.4 L1241.27 1537.74 L1219.24 1563.37 L1241.27 1563.37 L1241.27 1568.04 L1212.65 1568.04 L1212.65 1562.7 L1234.68 1537.07 L1213.45 1537.07 L1213.45 1532.4 Z" fill="#000000" fill-rule="nonzero" fill-opacity="1" /><path clip-path="url(#clip880)" d="M1270.39 1518.52 L1283.89 1518.52 L1283.89 1523.07 L1276.25 1523.07 L1276.25 1572.09 L1283.89 1572.09 L1283.89 1576.64 L1270.39 1576.64 L1270.39 1518.52 Z" fill="#000000" fill-rule="nonzero" fill-opacity="1" /><path clip-path="url(#clip880)" d="M1322.02 1533.76 L1322.02 1539.24 Q1319.53 1537.87 1317.02 1537.2 Q1314.54 1536.5 1311.99 1536.5 Q1306.29 1536.5 1303.14 1540.13 Q1299.99 1543.73 1299.99 1550.25 Q1299.99 1556.78 1303.14 1560.4 Q1306.29 1564 1311.99 1564 Q1314.54 1564 1317.02 1563.33 Q1319.53 1562.63 1322.02 1561.26 L1322.02 1566.68 Q1319.57 1567.82 1316.92 1568.39 Q1314.31 1568.97 1311.35 1568.97 Q1303.3 1568.97 1298.56 1563.91 Q1293.82 1558.85 1293.82 1550.25 Q1293.82 1541.53 1298.59 1536.53 Q1303.4 1531.54 1311.74 1531.54 Q1314.44 1531.54 1317.02 1532.11 Q1319.6 1532.65 1322.02 1533.76 Z" fill="#000000" fill-rule="nonzero" fill-opacity="1" /><path clip-path="url(#clip880)" d="M1359.96 1539.24 Q1362.15 1535.29 1365.21 1533.41 Q1368.26 1531.54 1372.4 1531.54 Q1377.97 1531.54 1380.99 1535.45 Q1384.02 1539.33 1384.02 1546.53 L1384.02 1568.04 L1378.13 1568.04 L1378.13 1546.72 Q1378.13 1541.59 1376.32 1539.11 Q1374.5 1536.63 1370.78 1536.63 Q1366.23 1536.63 1363.58 1539.65 Q1360.94 1542.68 1360.94 1547.9 L1360.94 1568.04 L1355.05 1568.04 L1355.05 1546.72 Q1355.05 1541.56 1353.24 1539.11 Q1351.43 1536.63 1347.64 1536.63 Q1343.15 1536.63 1340.51 1539.68 Q1337.87 1542.71 1337.87 1547.9 L1337.87 1568.04 L1331.98 1568.04 L1331.98 1532.4 L1337.87 1532.4 L1337.87 1537.93 Q1339.87 1534.66 1342.67 1533.1 Q1345.47 1531.54 1349.33 1531.54 Q1353.21 1531.54 1355.91 1533.51 Q1358.65 1535.48 1359.96 1539.24 Z" fill="#000000" fill-rule="nonzero" fill-opacity="1" /><path clip-path="url(#clip880)" d="M1409.39 1518.52 L1409.39 1576.64 L1395.89 1576.64 L1395.89 1572.09 L1403.5 1572.09 L1403.5 1523.07 L1395.89 1523.07 L1395.89 1518.52 L1409.39 1518.52 Z" fill="#000000" fill-rule="nonzero" fill-opacity="1" /><polyline clip-path="url(#clip880)" style="stroke:#000000; stroke-linecap:round; stroke-linejoin:round; stroke-width:4; stroke-opacity:1; fill:none" points="269.283,1423.18 269.283,106.192 "/>
<polyline clip-path="url(#clip880)" style="stroke:#000000; stroke-linecap:round; stroke-linejoin:round; stroke-width:4; stroke-opacity:1; fill:none" points="269.283,1203.68 288.18,1203.68 "/>
<polyline clip-path="url(#clip880)" style="stroke:#000000; stroke-linecap:round; stroke-linejoin:round; stroke-width:4; stroke-opacity:1; fill:none" points="269.283,253.228 288.18,253.228 "/>
<polyline clip-path="url(#clip880)" style="stroke:#000000; stroke-linecap:round; stroke-linejoin:round; stroke-width:4; stroke-opacity:1; fill:none" points="269.283,106.192 288.18,106.192 "/>
<path clip-path="url(#clip880)" d="M221.338 1189.48 Q217.727 1189.48 215.899 1193.05 Q214.093 1196.59 214.093 1203.72 Q214.093 1210.82 215.899 1214.39 Q217.727 1217.93 221.338 1217.93 Q224.973 1217.93 226.778 1214.39 Q228.607 1210.82 228.607 1203.72 Q228.607 1196.59 226.778 1193.05 Q224.973 1189.48 221.338 1189.48 M221.338 1185.78 Q227.149 1185.78 230.204 1190.38 Q233.283 1194.97 233.283 1203.72 Q233.283 1212.44 230.204 1217.05 Q227.149 1221.63 221.338 1221.63 Q215.528 1221.63 212.45 1217.05 Q209.394 1212.44 209.394 1203.72 Q209.394 1194.97 212.45 1190.38 Q215.528 1185.78 221.338 1185.78 Z" fill="#000000" fill-rule="nonzero" fill-opacity="1" /><path clip-path="url(#clip880)" d="M69.418 245.346 L69.418 249.374 Q67.6124 248.448 65.668 247.985 Q63.7235 247.522 61.6402 247.522 Q58.4689 247.522 56.8717 248.494 Q55.2977 249.466 55.2977 251.411 Q55.2977 252.892 56.4319 253.749 Q57.5662 254.582 60.9921 255.346 L62.4504 255.67 Q66.9874 256.642 68.8855 258.425 Q70.8068 260.184 70.8068 263.355 Q70.8068 266.966 67.9365 269.073 Q65.0893 271.179 60.0893 271.179 Q58.006 271.179 55.7375 270.763 Q53.4921 270.369 50.9921 269.559 L50.9921 265.161 Q53.3532 266.388 55.6449 267.013 Q57.9365 267.614 60.1819 267.614 Q63.1911 267.614 64.8115 266.596 Q66.4319 265.554 66.4319 263.679 Q66.4319 261.943 65.2513 261.017 Q64.0939 260.091 60.1356 259.235 L58.6541 258.888 Q54.6958 258.054 52.9366 256.341 Q51.1773 254.605 51.1773 251.596 Q51.1773 247.939 53.7699 245.948 Q56.3625 243.957 61.131 243.957 Q63.4921 243.957 65.5754 244.304 Q67.6587 244.652 69.418 245.346 Z" fill="#000000" fill-rule="nonzero" fill-opacity="1" /><path clip-path="url(#clip880)" d="M77.5892 244.582 L81.8484 244.582 L81.8484 270.508 L77.5892 270.508 L77.5892 244.582 M77.5892 234.49 L81.8484 234.49 L81.8484 239.883 L77.5892 239.883 L77.5892 234.49 Z" fill="#000000" fill-rule="nonzero" fill-opacity="1" /><path clip-path="url(#clip880)" d="M112.311 254.86 L112.311 270.508 L108.052 270.508 L108.052 254.999 Q108.052 251.318 106.617 249.489 Q105.182 247.661 102.311 247.661 Q98.8622 247.661 96.8715 249.86 Q94.8808 252.059 94.8808 255.855 L94.8808 270.508 L90.5984 270.508 L90.5984 244.582 L94.8808 244.582 L94.8808 248.61 Q96.4085 246.272 98.4687 245.114 Q100.552 243.957 103.26 243.957 Q107.728 243.957 110.02 246.735 Q112.311 249.489 112.311 254.86 Z" fill="#000000" fill-rule="nonzero" fill-opacity="1" /><path clip-path="url(#clip880)" d="M131.038 234.536 Q127.936 239.86 126.432 245.068 Q124.927 250.277 124.927 255.624 Q124.927 260.971 126.432 266.225 Q127.959 271.457 131.038 276.758 L127.334 276.758 Q123.862 271.318 122.126 266.063 Q120.413 260.809 120.413 255.624 Q120.413 250.462 122.126 245.23 Q123.839 239.999 127.334 234.536 L131.038 234.536 Z" fill="#000000" fill-rule="nonzero" fill-opacity="1" /><path clip-path="url(#clip880)" d="M150.482 251.364 Q147.334 251.364 145.482 253.517 Q143.654 255.67 143.654 259.42 Q143.654 263.147 145.482 265.323 Q147.334 267.475 150.482 267.475 Q153.63 267.475 155.459 265.323 Q157.311 263.147 157.311 259.42 Q157.311 255.67 155.459 253.517 Q153.63 251.364 150.482 251.364 M159.765 236.712 L159.765 240.971 Q158.005 240.138 156.2 239.698 Q154.417 239.258 152.658 239.258 Q148.029 239.258 145.575 242.383 Q143.144 245.508 142.797 251.827 Q144.163 249.814 146.223 248.749 Q148.283 247.661 150.76 247.661 Q155.968 247.661 158.978 250.832 Q162.01 253.98 162.01 259.42 Q162.01 264.744 158.862 267.962 Q155.714 271.179 150.482 271.179 Q144.487 271.179 141.316 266.596 Q138.144 261.989 138.144 253.263 Q138.144 245.068 142.033 240.207 Q145.922 235.323 152.473 235.323 Q154.232 235.323 156.015 235.67 Q157.82 236.017 159.765 236.712 Z" fill="#000000" fill-rule="nonzero" fill-opacity="1" /><path clip-path="url(#clip880)" d="M180.066 239.027 Q176.454 239.027 174.626 242.591 Q172.82 246.133 172.82 253.263 Q172.82 260.369 174.626 263.934 Q176.454 267.475 180.066 267.475 Q183.7 267.475 185.505 263.934 Q187.334 260.369 187.334 253.263 Q187.334 246.133 185.505 242.591 Q183.7 239.027 180.066 239.027 M180.066 235.323 Q185.876 235.323 188.931 239.929 Q192.01 244.513 192.01 253.263 Q192.01 261.989 188.931 266.596 Q185.876 271.179 180.066 271.179 Q174.255 271.179 171.177 266.596 Q168.121 261.989 168.121 253.263 Q168.121 244.513 171.177 239.929 Q174.255 235.323 180.066 235.323 Z" fill="#000000" fill-rule="nonzero" fill-opacity="1" /><path clip-path="url(#clip880)" d="M207.01 238.309 Q205.158 238.309 203.885 239.605 Q202.612 240.878 202.612 242.73 Q202.612 244.559 203.885 245.832 Q205.158 247.082 207.01 247.082 Q208.862 247.082 210.135 245.832 Q211.408 244.559 211.408 242.73 Q211.408 240.902 210.112 239.605 Q208.839 238.309 207.01 238.309 M207.01 235.323 Q208.491 235.323 209.857 235.902 Q211.223 236.457 212.218 237.522 Q213.283 238.564 213.815 239.883 Q214.348 241.202 214.348 242.73 Q214.348 245.786 212.195 247.915 Q210.065 250.022 206.964 250.022 Q203.839 250.022 201.755 247.939 Q199.672 245.855 199.672 242.73 Q199.672 239.628 201.802 237.476 Q203.931 235.323 207.01 235.323 Z" fill="#000000" fill-rule="nonzero" fill-opacity="1" /><path clip-path="url(#clip880)" d="M222.658 234.536 L226.362 234.536 Q229.834 239.999 231.547 245.23 Q233.283 250.462 233.283 255.624 Q233.283 260.809 231.547 266.063 Q229.834 271.318 226.362 276.758 L222.658 276.758 Q225.737 271.457 227.241 266.225 Q228.769 260.971 228.769 255.624 Q228.769 250.277 227.241 245.068 Q225.737 239.86 222.658 234.536 Z" fill="#000000" fill-rule="nonzero" fill-opacity="1" /><path clip-path="url(#clip880)" d="M213.376 119.537 L221.014 119.537 L221.014 93.1714 L212.704 94.838 L212.704 90.5788 L220.968 88.9121 L225.644 88.9121 L225.644 119.537 L233.283 119.537 L233.283 123.472 L213.376 123.472 L213.376 119.537 Z" fill="#000000" fill-rule="nonzero" fill-opacity="1" /><path clip-path="url(#clip880)" d="M814.365 64.4899 L814.365 8.65666 Q814.365 6.43152 815.566 6.43152 Q816.766 6.43152 816.766 8.21749 L816.766 64.0507 Q816.766 66.2759 815.566 66.2759 Q814.365 66.2759 814.365 64.4899 Z" fill="#000000" fill-rule="nonzero" fill-opacity="1" /><path clip-path="url(#clip880)" d="M899.195 11.0575 Q899.195 11.9065 898.814 12.0822 Q898.463 12.2579 897.292 12.2579 Q895.916 12.2579 895.067 12.375 Q894.217 12.4628 893.69 12.6092 Q893.163 12.7263 892.841 13.1362 Q892.549 13.5461 892.431 13.8974 Q892.314 14.2195 892.109 15.01 L884.146 46.9524 Q883.853 48.0356 883.853 48.4163 Q883.853 48.7969 884.087 49.0311 Q884.351 49.2653 884.995 49.3824 Q885.639 49.4703 886.137 49.4995 Q886.664 49.4995 887.747 49.4995 Q889.094 49.4995 889.299 49.7338 Q889.416 49.8802 889.416 50.1437 Q889.416 50.6999 889.182 50.9927 Q888.947 51.2562 888.742 51.3148 Q888.567 51.3441 888.274 51.3441 Q887.044 51.3441 884.526 51.2562 Q882.008 51.1684 880.779 51.1684 L873.342 51.3441 Q872.464 51.3441 872.464 50.6121 Q872.464 50.0558 872.698 49.8216 Q872.932 49.5581 873.196 49.5288 Q873.459 49.4995 874.133 49.4995 Q876.533 49.4995 877.558 49.236 Q878.612 48.9725 878.905 48.5041 Q879.227 48.0064 879.578 46.6596 L888.157 12.3164 L888.098 12.3164 L863.885 50.2608 L863.71 50.5243 Q863.534 50.7585 863.475 50.8463 Q863.417 50.9049 863.241 51.0806 Q863.095 51.227 862.919 51.2855 Q862.773 51.3441 862.568 51.3441 Q862.217 51.3441 862.012 51.1098 Q861.836 50.8756 861.777 50.6999 Q861.748 50.495 861.66 49.968 L856.507 12.7849 L856.449 12.7849 L848.28 45.4592 Q848.046 46.3668 848.046 46.8352 Q848.046 48.0356 848.895 48.7676 Q849.773 49.4703 852.116 49.4995 Q853.199 49.4995 853.199 50.1437 Q853.199 51.3441 852.116 51.3441 Q851.12 51.3441 849.041 51.2562 Q846.963 51.1684 845.938 51.1684 Q844.942 51.1684 842.922 51.2562 Q840.931 51.3441 839.965 51.3441 Q839.116 51.3441 839.116 50.6121 Q839.116 49.4995 840.199 49.4995 Q841.956 49.441 843.157 49.0897 Q844.357 48.7383 845.03 48.0649 Q845.733 47.3915 846.055 46.7181 Q846.406 46.0155 846.67 44.9907 L854.282 14.4537 Q854.516 13.4875 854.516 13.3411 Q854.516 12.8434 854.224 12.6678 Q853.96 12.4628 853.199 12.375 Q851.735 12.2579 850.622 12.2579 Q849.89 12.2579 849.598 12.2286 Q849.334 12.1993 849.1 12.0529 Q848.895 11.8772 848.895 11.5259 Q848.895 10.9696 849.129 10.7354 Q849.393 10.4719 849.686 10.4426 Q849.978 10.3841 850.681 10.3841 L858.908 10.3841 Q860.109 10.3841 860.372 10.589 Q860.636 10.7647 860.753 11.7601 L865.437 45.6934 L887.337 11.5259 Q887.893 10.6768 888.186 10.5305 Q888.479 10.3841 889.65 10.3841 L897.584 10.3841 Q898.229 10.3841 898.492 10.4133 Q898.756 10.4426 898.96 10.589 Q899.195 10.7354 899.195 11.0575 Z" fill="#000000" fill-rule="nonzero" fill-opacity="1" /><path clip-path="url(#clip880)" d="M925.921 46.5882 Q925.921 47.7359 925.203 48.3917 Q924.486 49.0271 923.666 49.0271 Q922.887 49.0271 922.478 48.5762 Q922.068 48.1253 922.068 47.5514 Q922.068 46.7726 922.642 46.0963 Q923.215 45.42 924.076 45.2765 Q923.236 44.7437 921.986 44.7437 Q921.166 44.7437 920.449 45.1741 Q919.752 45.6044 919.321 46.1578 Q918.912 46.7112 918.543 47.5104 Q918.194 48.2892 918.051 48.7606 Q917.928 49.2115 917.825 49.7034 L916.391 55.4419 Q915.694 58.1677 915.694 59.1309 Q915.694 60.3196 916.268 61.1189 Q916.842 61.8977 917.989 61.8977 Q918.44 61.8977 918.952 61.7747 Q919.465 61.6313 920.121 61.2624 Q920.797 60.873 921.391 60.2991 Q922.006 59.7048 922.601 58.7005 Q923.195 57.6963 923.584 56.4051 Q923.707 55.9542 924.117 55.9542 Q924.63 55.9542 924.63 56.3641 Q924.63 56.7125 924.343 57.4503 Q924.076 58.1677 923.482 59.1104 Q922.908 60.0327 922.15 60.873 Q921.391 61.6927 920.264 62.2666 Q919.137 62.8404 917.907 62.8404 Q916.145 62.8404 914.977 61.8977 Q913.808 60.9549 913.378 59.6433 Q913.275 59.8277 913.132 60.0737 Q912.989 60.3196 912.558 60.873 Q912.148 61.4058 911.677 61.8157 Q911.206 62.2051 910.468 62.5125 Q909.75 62.8404 908.972 62.8404 Q907.988 62.8404 907.107 62.5535 Q906.246 62.2666 905.631 61.6108 Q905.016 60.9549 905.016 60.0532 Q905.016 59.0489 905.692 58.3521 Q906.389 57.6348 907.332 57.6348 Q907.926 57.6348 908.398 57.9832 Q908.89 58.3316 908.89 59.0899 Q908.89 59.9302 908.316 60.5655 Q907.742 61.2009 906.922 61.3648 Q907.762 61.8977 909.013 61.8977 Q910.365 61.8977 911.431 60.709 Q912.497 59.5203 913.009 57.5323 Q914.28 52.7571 914.772 50.6256 Q915.263 48.4737 915.263 47.5514 Q915.263 46.6907 915.038 46.0963 Q914.813 45.502 914.423 45.2355 Q914.054 44.9486 913.706 44.8461 Q913.378 44.7437 913.009 44.7437 Q912.394 44.7437 911.697 44.9896 Q911.021 45.2355 910.201 45.8094 Q909.402 46.3627 908.644 47.5104 Q907.885 48.6581 907.373 50.2362 Q907.271 50.7076 906.82 50.7076 Q906.328 50.6871 906.328 50.2772 Q906.328 49.9288 906.594 49.2115 Q906.881 48.4737 907.455 47.5514 Q908.049 46.6292 908.808 45.8094 Q909.586 44.9691 910.714 44.3953 Q911.861 43.8214 913.091 43.8214 Q913.644 43.8214 914.177 43.9444 Q914.731 44.0469 915.386 44.3543 Q916.063 44.6617 916.657 45.338 Q917.251 46.0143 917.62 46.9981 Q917.866 46.5267 918.194 46.0758 Q918.543 45.6249 919.075 45.0716 Q919.629 44.4977 920.387 44.1698 Q921.166 43.8214 922.027 43.8214 Q922.867 43.8214 923.687 44.0469 Q924.507 44.2518 925.203 44.9281 Q925.921 45.584 925.921 46.5882 Z" fill="#000000" fill-rule="nonzero" fill-opacity="1" /><path clip-path="url(#clip880)" d="M947.65 45.42 Q947.65 45.7069 947.466 46.3832 L943.449 62.4101 Q942.568 65.9761 939.698 68.4765 Q936.85 70.9768 933.611 70.9768 Q931.665 70.9768 930.414 69.9316 Q929.164 68.9069 929.164 67.3288 Q929.164 65.9351 929.902 65.2588 Q930.64 64.603 931.521 64.603 Q931.808 64.603 932.115 64.685 Q932.423 64.7669 932.751 65.1153 Q933.079 65.4638 933.079 66.0581 Q933.079 67.0213 932.238 67.7796 Q931.828 68.1281 931.439 68.21 Q931.07 68.292 930.435 68.292 Q930.681 68.8659 931.132 69.2553 Q931.583 69.6447 932.095 69.7881 Q932.607 69.9521 932.935 69.9931 Q933.284 70.0546 933.611 70.0546 Q936.235 70.0546 938.243 67.4107 Q938.838 66.6115 939.268 65.8122 Q939.719 65.0334 940.047 64.0701 Q940.375 63.1274 940.518 62.615 Q940.682 62.1026 940.969 60.9344 Q939.063 62.8404 936.727 62.8404 Q935.743 62.8404 934.862 62.574 Q934.001 62.3076 933.243 61.7542 Q932.484 61.1804 932.033 60.1761 Q931.603 59.1719 931.603 57.8397 Q931.603 56.4256 932.156 54.4991 Q932.71 52.5726 934.042 49.0271 Q934.759 47.0391 934.759 46.0758 Q934.759 45.6044 934.657 45.3175 Q934.554 45.0101 934.349 44.9076 Q934.144 44.7847 934.021 44.7642 Q933.919 44.7437 933.714 44.7437 Q932.505 44.7437 931.378 45.9734 Q930.25 47.203 929.472 49.9493 Q929.308 50.4617 929.205 50.5846 Q929.103 50.7076 928.795 50.7076 Q928.283 50.6871 928.283 50.2772 Q928.283 50.1133 928.467 49.4779 Q928.652 48.8221 929.082 47.8589 Q929.533 46.8751 930.148 45.9938 Q930.763 45.0921 931.726 44.4567 Q932.71 43.8214 933.837 43.8214 Q935.374 43.8214 936.317 44.8257 Q937.28 45.8094 937.28 47.2645 Q937.28 47.8589 937.116 48.3917 Q936.973 48.9041 936.44 50.2772 Q934.288 55.8108 934.288 58.5161 Q934.288 59.1719 934.39 59.7253 Q934.513 60.2581 934.78 60.791 Q935.046 61.3033 935.579 61.6108 Q936.132 61.8977 936.891 61.8977 Q937.854 61.8977 938.756 61.4468 Q939.678 60.9754 940.252 60.3401 Q940.846 59.7048 941.195 59.1719 Q941.563 58.6185 941.645 58.3316 L943.531 50.7896 L944.371 47.4285 Q944.761 45.6044 944.945 45.1536 Q945.191 44.7232 945.621 44.4977 Q946.052 44.2723 946.421 44.2723 Q946.933 44.2723 947.281 44.5797 Q947.65 44.8871 947.65 45.42 Z" fill="#000000" fill-rule="nonzero" fill-opacity="1" /><path clip-path="url(#clip880)" d="M955.043 64.4899 L955.043 8.65666 Q955.043 6.43152 956.244 6.43152 Q957.444 6.43152 957.444 8.21749 L957.444 64.0507 Q957.444 66.2759 956.244 66.2759 Q955.043 66.2759 955.043 64.4899 Z" fill="#000000" fill-rule="nonzero" fill-opacity="1" /><path clip-path="url(#clip880)" d="M995.64 45.6348 Q995.64 40.5405 1001.64 37.8469 Q1005.24 36.1195 1012.68 35.6803 L1012.68 33.4844 Q1012.68 29.7661 1010.72 27.8045 Q1008.79 25.8136 1006.33 25.8136 Q1001.93 25.8136 999.827 28.5657 Q1001.61 28.6243 1002.26 29.5319 Q1002.9 30.4103 1002.9 31.3179 Q1002.9 32.5183 1002.14 33.3088 Q1001.41 34.07 1000.15 34.07 Q998.948 34.07 998.158 33.3381 Q997.367 32.5768 997.367 31.2593 Q997.367 28.3315 1000 26.3992 Q1002.67 24.4668 1006.44 24.4668 Q1011.36 24.4668 1014.64 27.7752 Q1015.67 28.8 1016.16 30.1175 Q1016.69 31.435 1016.75 32.3133 Q1016.81 33.1624 1016.81 34.8605 L1016.81 46.8352 Q1016.81 47.1866 1016.93 47.7721 Q1017.04 48.3577 1017.57 49.1189 Q1018.13 49.8509 1019.03 49.8509 Q1021.2 49.8509 1021.17 46.0155 L1021.17 42.6485 L1022.69 42.6485 L1022.69 46.0155 Q1022.69 49.2068 1020.99 50.4657 Q1019.33 51.6954 1017.77 51.6954 Q1015.78 51.6954 1014.52 50.2315 Q1013.27 48.7676 1013.09 46.7767 Q1012.18 49.0604 1010.1 50.5536 Q1008.05 52.0175 1005.24 52.0175 Q1003.08 52.0175 1001.03 51.4612 Q999.007 50.9342 997.309 49.441 Q995.64 47.9185 995.64 45.6348 M1000.27 45.5763 Q1000.27 47.8014 1001.85 49.236 Q1003.43 50.6707 1005.65 50.6707 Q1008.17 50.6707 1010.43 48.7383 Q1012.68 46.7767 1012.68 42.9413 L1012.68 36.9393 Q1006.03 37.1735 1003.14 39.8378 Q1000.27 42.4728 1000.27 45.5763 Z" fill="#000000" fill-rule="nonzero" fill-opacity="1" /><path clip-path="url(#clip880)" d="M1023.9 51.3441 L1023.9 49.4995 Q1027.09 49.4995 1027.82 49.1189 Q1028.55 48.709 1028.55 46.7767 L1028.55 30.703 Q1028.55 28.4779 1027.76 27.9216 Q1027 27.3653 1023.9 27.3653 L1023.9 25.4915 L1032.33 24.8474 L1032.33 31.1422 Q1035.14 24.8474 1041.2 24.8474 Q1045.71 24.8474 1047.49 27.0726 Q1048.81 28.5657 1049.07 30.2346 Q1049.37 31.9034 1049.37 36.2366 L1049.37 47.6843 Q1049.43 48.9433 1050.39 49.236 Q1051.36 49.4995 1054.05 49.4995 L1054.05 51.3441 Q1047.93 51.1684 1047.32 51.1684 Q1046.85 51.1684 1040.55 51.3441 L1040.55 49.4995 Q1043.75 49.4995 1044.48 49.1189 Q1045.24 48.709 1045.24 46.7767 L1045.24 32.8111 Q1045.24 29.7661 1044.3 27.9802 Q1043.37 26.1649 1040.79 26.1649 Q1037.69 26.1649 1035.2 28.7707 Q1032.71 31.3764 1032.71 35.7681 L1032.71 46.7767 Q1032.71 48.709 1033.44 49.1189 Q1034.2 49.4995 1037.36 49.4995 L1037.36 51.3441 Q1031.24 51.1684 1030.66 51.1684 Q1030.19 51.1684 1023.9 51.3441 Z" fill="#000000" fill-rule="nonzero" fill-opacity="1" /><path clip-path="url(#clip880)" d="M1058.28 38.4617 Q1058.28 32.7525 1062.26 28.8 Q1066.24 24.8474 1071.63 24.8474 Q1076.2 24.8474 1079.18 28.5657 L1079.18 15.5956 Q1079.18 13.3704 1078.39 12.8141 Q1077.63 12.2579 1074.53 12.2579 L1074.53 10.3841 L1083.16 9.73995 L1083.16 46.1326 Q1083.16 48.3577 1083.93 48.9433 Q1084.72 49.4995 1087.82 49.4995 L1087.82 51.3441 L1079.01 52.0175 L1079.01 48.0356 Q1075.9 51.9882 1070.99 52.0175 Q1065.83 52.0175 1062.06 48.0649 Q1058.28 44.1124 1058.28 38.4617 M1063.26 38.5203 Q1063.26 44.0831 1064.98 46.8352 Q1067.38 50.6707 1071.28 50.6707 Q1075.73 50.6707 1078.36 46.4839 Q1079.04 45.4592 1079.01 44.2588 L1079.01 31.962 Q1079.01 30.7616 1078.36 29.7661 Q1075.9 26.1649 1071.89 26.1649 Q1067.71 26.1649 1065.1 30.0004 Q1063.26 32.8696 1063.26 38.5203 Z" fill="#000000" fill-rule="nonzero" fill-opacity="1" /><path clip-path="url(#clip880)" d="M1167.15 11.0575 Q1167.15 11.9065 1166.77 12.0822 Q1166.41 12.2579 1165.24 12.2579 Q1163.87 12.2579 1163.02 12.375 Q1162.17 12.4628 1161.64 12.6092 Q1161.11 12.7263 1160.79 13.1362 Q1160.5 13.5461 1160.38 13.8974 Q1160.27 14.2195 1160.06 15.01 L1152.1 46.9524 Q1151.8 48.0356 1151.8 48.4163 Q1151.8 48.7969 1152.04 49.0311 Q1152.3 49.2653 1152.95 49.3824 Q1153.59 49.4703 1154.09 49.4995 Q1154.61 49.4995 1155.7 49.4995 Q1157.05 49.4995 1157.25 49.7338 Q1157.37 49.8802 1157.37 50.1437 Q1157.37 50.6999 1157.13 50.9927 Q1156.9 51.2562 1156.69 51.3148 Q1156.52 51.3441 1156.23 51.3441 Q1155 51.3441 1152.48 51.2562 Q1149.96 51.1684 1148.73 51.1684 L1141.29 51.3441 Q1140.42 51.3441 1140.42 50.6121 Q1140.42 50.0558 1140.65 49.8216 Q1140.88 49.5581 1141.15 49.5288 Q1141.41 49.4995 1142.08 49.4995 Q1144.48 49.4995 1145.51 49.236 Q1146.56 48.9725 1146.86 48.5041 Q1147.18 48.0064 1147.53 46.6596 L1156.11 12.3164 L1156.05 12.3164 L1131.84 50.2608 L1131.66 50.5243 Q1131.49 50.7585 1131.43 50.8463 Q1131.37 50.9049 1131.19 51.0806 Q1131.05 51.227 1130.87 51.2855 Q1130.72 51.3441 1130.52 51.3441 Q1130.17 51.3441 1129.96 51.1098 Q1129.79 50.8756 1129.73 50.6999 Q1129.7 50.495 1129.61 49.968 L1124.46 12.7849 L1124.4 12.7849 L1116.23 45.4592 Q1116 46.3668 1116 46.8352 Q1116 48.0356 1116.85 48.7676 Q1117.72 49.4703 1120.07 49.4995 Q1121.15 49.4995 1121.15 50.1437 Q1121.15 51.3441 1120.07 51.3441 Q1119.07 51.3441 1116.99 51.2562 Q1114.91 51.1684 1113.89 51.1684 Q1112.89 51.1684 1110.87 51.2562 Q1108.88 51.3441 1107.92 51.3441 Q1107.07 51.3441 1107.07 50.6121 Q1107.07 49.4995 1108.15 49.4995 Q1109.91 49.441 1111.11 49.0897 Q1112.31 48.7383 1112.98 48.0649 Q1113.68 47.3915 1114.01 46.7181 Q1114.36 46.0155 1114.62 44.9907 L1122.23 14.4537 Q1122.47 13.4875 1122.47 13.3411 Q1122.47 12.8434 1122.17 12.6678 Q1121.91 12.4628 1121.15 12.375 Q1119.69 12.2579 1118.57 12.2579 Q1117.84 12.2579 1117.55 12.2286 Q1117.29 12.1993 1117.05 12.0529 Q1116.85 11.8772 1116.85 11.5259 Q1116.85 10.9696 1117.08 10.7354 Q1117.34 10.4719 1117.64 10.4426 Q1117.93 10.3841 1118.63 10.3841 L1126.86 10.3841 Q1128.06 10.3841 1128.32 10.589 Q1128.59 10.7647 1128.7 11.7601 L1133.39 45.6934 L1155.29 11.5259 Q1155.84 10.6768 1156.14 10.5305 Q1156.43 10.3841 1157.6 10.3841 L1165.54 10.3841 Q1166.18 10.3841 1166.44 10.4133 Q1166.71 10.4426 1166.91 10.589 Q1167.15 10.7354 1167.15 11.0575 Z" fill="#000000" fill-rule="nonzero" fill-opacity="1" /><path clip-path="url(#clip880)" d="M1192.33 45.42 Q1192.33 45.7069 1192.15 46.3832 L1188.13 62.4101 Q1187.25 65.9761 1184.38 68.4765 Q1181.53 70.9768 1178.3 70.9768 Q1176.35 70.9768 1175.1 69.9316 Q1173.85 68.9069 1173.85 67.3288 Q1173.85 65.9351 1174.59 65.2588 Q1175.32 64.603 1176.21 64.603 Q1176.49 64.603 1176.8 64.685 Q1177.11 64.7669 1177.44 65.1153 Q1177.76 65.4638 1177.76 66.0581 Q1177.76 67.0213 1176.92 67.7796 Q1176.51 68.1281 1176.12 68.21 Q1175.75 68.292 1175.12 68.292 Q1175.37 68.8659 1175.82 69.2553 Q1176.27 69.6447 1176.78 69.7881 Q1177.29 69.9521 1177.62 69.9931 Q1177.97 70.0546 1178.3 70.0546 Q1180.92 70.0546 1182.93 67.4107 Q1183.52 66.6115 1183.95 65.8122 Q1184.4 65.0334 1184.73 64.0701 Q1185.06 63.1274 1185.2 62.615 Q1185.37 62.1026 1185.65 60.9344 Q1183.75 62.8404 1181.41 62.8404 Q1180.43 62.8404 1179.55 62.574 Q1178.69 62.3076 1177.93 61.7542 Q1177.17 61.1804 1176.72 60.1761 Q1176.29 59.1719 1176.29 57.8397 Q1176.29 56.4256 1176.84 54.4991 Q1177.39 52.5726 1178.73 49.0271 Q1179.44 47.0391 1179.44 46.0758 Q1179.44 45.6044 1179.34 45.3175 Q1179.24 45.0101 1179.03 44.9076 Q1178.83 44.7847 1178.71 44.7642 Q1178.6 44.7437 1178.4 44.7437 Q1177.19 44.7437 1176.06 45.9734 Q1174.93 47.203 1174.16 49.9493 Q1173.99 50.4617 1173.89 50.5846 Q1173.79 50.7076 1173.48 50.7076 Q1172.97 50.6871 1172.97 50.2772 Q1172.97 50.1133 1173.15 49.4779 Q1173.34 48.8221 1173.77 47.8589 Q1174.22 46.8751 1174.83 45.9938 Q1175.45 45.0921 1176.41 44.4567 Q1177.39 43.8214 1178.52 43.8214 Q1180.06 43.8214 1181 44.8257 Q1181.96 45.8094 1181.96 47.2645 Q1181.96 47.8589 1181.8 48.3917 Q1181.66 48.9041 1181.12 50.2772 Q1178.97 55.8108 1178.97 58.5161 Q1178.97 59.1719 1179.07 59.7253 Q1179.2 60.2581 1179.46 60.791 Q1179.73 61.3033 1180.26 61.6108 Q1180.82 61.8977 1181.58 61.8977 Q1182.54 61.8977 1183.44 61.4468 Q1184.36 60.9754 1184.94 60.3401 Q1185.53 59.7048 1185.88 59.1719 Q1186.25 58.6185 1186.33 58.3316 L1188.22 50.7896 L1189.06 47.4285 Q1189.45 45.6044 1189.63 45.1536 Q1189.88 44.7232 1190.31 44.4977 Q1190.74 44.2723 1191.11 44.2723 Q1191.62 44.2723 1191.97 44.5797 Q1192.33 44.8871 1192.33 45.42 Z" fill="#000000" fill-rule="nonzero" fill-opacity="1" /><path clip-path="url(#clip880)" d="M1214.39 27.3653 L1214.39 25.4915 L1219.1 25.4915 L1219.1 18.6112 Q1219.1 14.1609 1221.97 11.6137 Q1224.87 9.06655 1228.41 9.06655 Q1230.75 9.06655 1232.28 10.3255 Q1233.8 11.5845 1233.8 13.2826 Q1233.8 14.4244 1233.1 15.1857 Q1232.42 15.9176 1231.16 15.9176 Q1229.96 15.9176 1229.26 15.1564 Q1228.59 14.3952 1228.59 13.3411 Q1228.59 11.4088 1230.37 10.8232 Q1229.46 10.4133 1228.41 10.3841 Q1226.24 10.3841 1224.55 12.6092 Q1222.88 14.8343 1222.88 18.5526 L1222.88 25.4915 L1229.9 25.4915 L1229.9 27.3653 L1223.08 27.3653 L1223.08 46.6596 Q1223.08 48.387 1223.78 48.9433 Q1224.52 49.4995 1227.62 49.4995 L1228.88 49.4995 L1228.88 51.3441 Q1226.48 51.1684 1221.27 51.1684 Q1220.53 51.1684 1219.39 51.1977 Q1218.28 51.227 1216.76 51.2855 Q1215.26 51.3441 1214.45 51.3441 L1214.45 49.4995 Q1217.64 49.4995 1218.37 49.1189 Q1219.1 48.709 1219.1 46.7767 L1219.1 27.3653 L1214.39 27.3653 Z" fill="#000000" fill-rule="nonzero" fill-opacity="1" /><path clip-path="url(#clip880)" d="M1240.03 48.1235 Q1236.08 44.2002 1236.08 38.5203 Q1236.08 32.8111 1239.94 28.6536 Q1243.84 24.4668 1249.4 24.4668 Q1254.84 24.4668 1258.74 28.6243 Q1262.66 32.7525 1262.66 38.5203 Q1262.66 44.1709 1258.71 48.0942 Q1254.79 52.0175 1249.34 52.0175 Q1244.01 52.0175 1240.03 48.1235 M1241.05 38.0225 Q1241.05 43.8489 1242.58 46.4839 Q1244.92 50.495 1249.4 50.495 Q1251.62 50.495 1253.47 49.2946 Q1255.34 48.0942 1256.37 46.074 Q1257.68 43.439 1257.68 38.0225 Q1257.68 32.2548 1256.1 29.7076 Q1253.76 25.8136 1249.34 25.8136 Q1247.41 25.8136 1245.5 26.8383 Q1243.63 27.8338 1242.49 29.8247 Q1241.05 32.4597 1241.05 38.0225 Z" fill="#000000" fill-rule="nonzero" fill-opacity="1" /><path clip-path="url(#clip880)" d="M1264.57 51.3441 L1264.57 49.4995 Q1267.76 49.4995 1268.5 49.1189 Q1269.26 48.709 1269.26 46.7767 L1269.26 30.703 Q1269.26 28.4779 1268.47 27.9216 Q1267.71 27.3653 1264.57 27.3653 L1264.57 25.4915 L1272.92 24.8474 L1272.92 31.435 Q1273.77 28.8585 1275.55 26.8676 Q1277.37 24.8474 1280.29 24.8474 Q1282.23 24.8474 1283.46 25.9307 Q1284.72 27.014 1284.72 28.5072 Q1284.72 29.8247 1283.9 30.4981 Q1283.11 31.1422 1282.14 31.1422 Q1281.06 31.1422 1280.29 30.4688 Q1279.56 29.7661 1279.56 28.5657 Q1279.56 27.8338 1279.88 27.2775 Q1280.24 26.6919 1280.5 26.487 Q1280.76 26.282 1280.94 26.2235 Q1280.82 26.1649 1280.29 26.1649 Q1276.99 26.1649 1275.08 29.4734 Q1273.21 32.7525 1273.21 37.437 L1273.21 46.6596 Q1273.21 48.387 1273.91 48.9433 Q1274.64 49.4995 1277.78 49.4995 L1279.04 49.4995 L1279.04 51.3441 Q1276.64 51.1684 1271.42 51.1684 Q1270.69 51.1684 1269.55 51.1977 Q1268.41 51.227 1266.91 51.2855 Q1265.42 51.3441 1264.57 51.3441 Z" fill="#000000" fill-rule="nonzero" fill-opacity="1" /><path clip-path="url(#clip880)" d="M1337.26 28.3901 Q1337.2 28.6828 1337.08 29.2099 Q1336.97 29.7076 1336.44 31.2886 Q1335.91 32.8696 1335.21 34.4799 Q1334.54 36.0609 1333.22 38.286 Q1331.93 40.4819 1330.35 42.4728 Q1329.91 42.9998 1329.82 43.3219 Q1329.76 43.6147 1329.76 44.5808 Q1329.76 50.6707 1331.61 50.6707 Q1331.7 50.6707 1331.84 50.6707 Q1332.02 50.6414 1332.46 50.495 Q1332.92 50.3193 1333.33 50.0558 Q1333.74 49.763 1334.21 49.1775 Q1334.68 48.5626 1334.97 47.7429 Q1335.24 47.1573 1335.76 47.1573 Q1336.47 47.1573 1336.47 47.7429 Q1336.47 48.7969 1335 50.4072 Q1333.54 52.0175 1331.43 52.0175 Q1329.41 52.0175 1327.98 50.6999 Q1326.57 49.3532 1325.99 46.9524 Q1319.66 52.0175 1313.34 52.0175 Q1308.89 52.0175 1306.25 49.1189 Q1303.62 46.1911 1303.62 41.858 Q1303.62 37.7005 1305.9 33.748 Q1308.21 29.7954 1311.96 27.3361 Q1315.74 24.8474 1319.75 24.8474 Q1321.16 24.8474 1322.5 25.228 Q1323.85 25.5794 1325.2 26.487 Q1326.54 27.3946 1327.54 28.7707 Q1328.53 30.1468 1329.15 32.3133 Q1329.76 34.4799 1329.76 37.2028 L1329.76 40.9211 Q1333.63 36.0316 1335.65 29.0342 Q1335.94 27.9802 1336.12 27.8631 Q1336.23 27.7752 1336.53 27.7752 Q1336.82 27.7752 1336.99 27.9509 Q1337.2 28.0973 1337.23 28.2437 L1337.26 28.3901 M1325.75 45.4006 Q1325.63 44.3759 1325.63 38.6959 Q1325.63 37.6127 1325.63 37.0271 Q1325.63 36.4123 1325.58 35.2411 Q1325.52 34.07 1325.4 33.3381 Q1325.31 32.6061 1325.11 31.5521 Q1324.9 30.4981 1324.61 29.8247 Q1324.32 29.1513 1323.85 28.3901 Q1323.41 27.6288 1322.82 27.1897 Q1322.27 26.7505 1321.45 26.4577 Q1320.66 26.1649 1319.69 26.1649 Q1318.49 26.1649 1317.23 26.6041 Q1316 27.014 1314.42 28.3315 Q1312.84 29.6197 1311.52 31.6692 Q1310.15 33.8358 1309.09 37.8176 Q1308.07 41.7701 1308.07 44.1417 Q1308.07 47.128 1309.44 48.914 Q1310.82 50.6707 1313.46 50.6707 Q1319.75 50.6707 1325.75 45.4006 Z" fill="#000000" fill-rule="nonzero" fill-opacity="1" /><path clip-path="url(#clip880)" d="M1358.24 42.2386 Q1358.3 41.5066 1359.45 41.5066 L1396.19 41.5066 Q1397.92 41.5066 1397.95 42.18 Q1397.95 42.912 1396.31 42.8827 L1359.86 42.8827 Q1358.24 42.912 1358.24 42.2386 M1358.24 30.5274 Q1358.24 29.7954 1359.5 29.8247 L1396.13 29.8247 Q1397.92 29.8247 1397.95 30.5274 Q1397.95 31.2008 1396.42 31.2008 L1359.45 31.2008 Q1358.24 31.2008 1358.24 30.5274 Z" fill="#000000" fill-rule="nonzero" fill-opacity="1" /><path clip-path="url(#clip880)" d="M1421.08 32.4012 Q1421.08 22.9736 1425.88 17.2058 Q1430.68 11.4088 1436.86 11.4088 Q1440.46 11.4088 1442.45 13.2533 Q1444.47 15.0686 1444.47 17.8792 Q1444.47 19.431 1443.56 20.1044 Q1442.66 20.7778 1441.72 20.7778 Q1440.64 20.7778 1439.79 20.0458 Q1438.94 19.3139 1438.94 17.9964 Q1438.94 15.3028 1442.25 15.3028 Q1440.7 12.902 1436.98 12.902 Q1435.84 12.902 1434.66 13.2533 Q1433.49 13.5754 1431.97 14.6879 Q1430.45 15.8005 1429.28 17.5572 Q1428.11 19.3139 1427.29 22.6223 Q1426.47 25.9307 1426.47 30.2346 L1426.47 31.6692 Q1428.93 25.7258 1433.96 25.755 Q1439 25.755 1442.48 29.5905 Q1445.97 33.4259 1445.97 39.1058 Q1445.97 44.9322 1442.33 48.7969 Q1438.7 52.6616 1433.61 52.6616 Q1431.33 52.6616 1429.25 51.6954 Q1427.2 50.7585 1425.27 48.5919 Q1423.36 46.4253 1422.22 42.2679 Q1421.08 38.1104 1421.08 32.4012 M1426.58 37.7883 Q1426.58 43.6732 1427.67 46.4839 Q1427.84 46.9524 1428.22 47.5965 Q1428.63 48.2406 1429.31 49.0897 Q1430.01 49.9094 1431.15 50.4657 Q1432.29 50.9927 1433.61 50.9927 Q1437.62 50.9927 1439.55 47.0987 Q1440.58 44.9322 1440.58 39.0473 Q1440.58 33.0453 1439.49 30.8494 Q1437.65 27.1311 1433.9 27.1311 Q1431.38 27.1311 1429.63 28.8585 Q1427.9 30.5859 1427.23 32.8989 Q1426.58 35.2119 1426.58 37.7883 Z" fill="#000000" fill-rule="nonzero" fill-opacity="1" /><path clip-path="url(#clip880)" d="M1451.01 32.1669 Q1451.01 23.3542 1453.24 18.5526 Q1456.34 11.4088 1463.66 11.4088 Q1465.21 11.4088 1466.82 11.848 Q1468.46 12.2579 1470.51 13.8682 Q1472.59 15.4784 1473.85 18.1135 Q1476.25 23.2079 1476.25 32.1669 Q1476.25 40.9211 1474.03 45.6934 Q1470.78 52.6616 1463.6 52.6616 Q1460.91 52.6616 1458.16 51.2855 Q1455.44 49.9094 1453.71 46.601 Q1451.01 41.653 1451.01 32.1669 M1455.99 31.435 Q1455.99 40.4819 1456.64 44.0831 Q1457.37 47.9771 1459.36 49.6752 Q1461.38 51.3441 1463.6 51.3441 Q1466 51.3441 1468 49.5581 Q1470.02 47.7429 1470.63 43.8489 Q1471.3 40.0135 1471.27 31.435 Q1471.27 23.0907 1470.69 19.753 Q1469.9 15.8591 1467.79 14.3073 Q1465.71 12.7263 1463.6 12.7263 Q1462.81 12.7263 1461.96 12.9605 Q1461.14 13.1948 1459.94 13.8682 Q1458.74 14.5415 1457.81 16.2104 Q1456.9 17.8792 1456.46 20.3972 Q1455.99 23.647 1455.99 31.435 Z" fill="#000000" fill-rule="nonzero" fill-opacity="1" /><path clip-path="url(#clip880)" d="M1480.71 17.0595 Q1480.71 14.3073 1482.64 12.3457 Q1484.6 10.3841 1487.36 10.3841 Q1490.17 10.3841 1492.07 12.375 Q1494 14.3366 1494 16.9716 Q1494 19.7238 1492.01 21.6854 Q1490.05 23.647 1487.36 23.647 Q1484.55 23.647 1482.61 21.6854 Q1480.71 19.6945 1480.71 17.0595 M1484.37 14.0145 Q1483.11 15.2442 1483.11 17.0595 Q1483.11 18.8454 1484.37 20.0458 Q1485.63 21.2462 1487.36 21.2462 Q1489.08 21.2462 1490.31 20.0458 Q1491.54 18.8454 1491.54 17.0595 Q1491.54 15.2442 1490.28 14.0145 Q1489.02 12.7849 1487.36 12.7849 Q1485.63 12.7849 1484.37 14.0145 Z" fill="#000000" fill-rule="nonzero" fill-opacity="1" /><path clip-path="url(#clip880)" d="M1557.09 11.4088 Q1557.09 11.9651 1556.97 12.4335 L1555.33 22.8565 Q1555.24 23.647 1555.07 23.9398 Q1554.92 24.2326 1554.45 24.2326 Q1553.72 24.2326 1553.72 23.4714 Q1553.72 23.0322 1553.9 22.3295 Q1554.39 19.0211 1554.39 17.5279 Q1554.39 16.5325 1554.19 15.8005 Q1554.01 15.0393 1553.72 14.5123 Q1553.46 13.9853 1552.84 13.6339 Q1552.23 13.2826 1551.64 13.0776 Q1551.06 12.8727 1550 12.7849 Q1548.95 12.6678 1548.04 12.6385 Q1547.13 12.6092 1545.64 12.6092 Q1542.39 12.6092 1541.86 12.7263 Q1541.31 12.8727 1541.01 13.3119 Q1540.75 13.7218 1540.46 14.9514 L1532.49 46.7767 L1532.26 48.0356 Q1532.26 48.7383 1532.7 48.9725 Q1533.14 49.2068 1534.49 49.3532 Q1536.42 49.4995 1538.32 49.4995 Q1538.38 49.4995 1538.5 49.4995 Q1539.14 49.4995 1539.4 49.5288 Q1539.67 49.5288 1539.93 49.5874 Q1540.19 49.6459 1540.25 49.7923 Q1540.34 49.9094 1540.34 50.1437 Q1540.34 50.6999 1540.11 50.9927 Q1539.87 51.2562 1539.64 51.3148 Q1539.43 51.3441 1539.02 51.3441 Q1538.2 51.3441 1536.45 51.2855 Q1534.69 51.227 1533.81 51.227 L1528.83 51.1684 L1523.74 51.227 Q1522.95 51.227 1521.28 51.2855 Q1519.61 51.3441 1518.82 51.3441 Q1517.8 51.3441 1517.8 50.6121 Q1517.8 49.7923 1518.18 49.6459 Q1518.59 49.4995 1520.31 49.4995 Q1522.75 49.4995 1524.06 49.3824 Q1525.38 49.2653 1526.08 48.8554 Q1526.81 48.4455 1527.02 48.0356 Q1527.22 47.5965 1527.46 46.601 L1535.51 14.6001 Q1535.74 13.8974 1535.74 13.3411 Q1535.74 13.0484 1535.66 12.9313 Q1535.6 12.8141 1535.22 12.7263 Q1534.84 12.6092 1534.05 12.6092 L1531.7 12.6092 Q1529.3 12.6092 1527.81 12.7263 Q1526.35 12.8141 1524.94 13.2533 Q1523.56 13.6925 1522.75 14.3073 Q1521.95 14.9222 1521.08 16.1811 Q1520.2 17.4401 1519.55 18.9625 Q1518.94 20.485 1518.06 22.9736 Q1517.77 23.7934 1517.59 24.0276 Q1517.45 24.2326 1517.04 24.2326 Q1516.74 24.2326 1516.51 24.0569 Q1516.3 23.852 1516.3 23.5885 Q1516.6 22.6223 1516.66 22.5052 L1520.26 11.9358 Q1520.55 11.0867 1520.81 10.9403 Q1521.11 10.7647 1522.19 10.7647 L1555.45 10.7647 Q1555.98 10.7647 1556.15 10.7647 Q1556.33 10.7647 1556.62 10.8232 Q1556.91 10.8818 1557 11.0282 Q1557.09 11.1746 1557.09 11.4088 Z" fill="#000000" fill-rule="nonzero" fill-opacity="1" /><path clip-path="url(#clip880)" d="M1563.09 67.9603 Q1563.09 67.202 1563.16 66.9766 Q1563.24 66.7511 1563.57 66.4027 L1571.62 57.4261 Q1576.03 52.4664 1576.03 48.142 Q1576.03 45.3342 1574.55 43.3258 Q1573.1 41.3173 1570.41 41.3173 Q1568.57 41.3173 1567.01 42.4445 Q1565.45 43.5717 1564.73 45.5802 Q1564.86 45.5392 1565.29 45.5392 Q1566.33 45.5392 1566.91 46.195 Q1567.5 46.8508 1567.5 47.7321 Q1567.5 48.8593 1566.76 49.4127 Q1566.05 49.9455 1565.33 49.9455 Q1565.04 49.9455 1564.65 49.884 Q1564.28 49.8226 1563.69 49.2487 Q1563.09 48.6544 1563.09 47.6091 Q1563.09 44.6784 1565.31 42.342 Q1567.54 40.0056 1570.94 40.0056 Q1574.8 40.0056 1577.32 42.301 Q1579.86 44.5759 1579.86 48.142 Q1579.86 49.3922 1579.47 50.5399 Q1579.1 51.6671 1578.59 52.5483 Q1578.1 53.4296 1576.74 54.8437 Q1575.39 56.2579 1574.31 57.2621 Q1573.22 58.2663 1570.78 60.3978 L1566.33 64.7222 L1573.9 64.7222 Q1577.58 64.7222 1577.87 64.3942 Q1578.28 63.7999 1578.79 60.6642 L1579.86 60.6642 L1578.67 67.9603 L1563.09 67.9603 Z" fill="#000000" fill-rule="nonzero" fill-opacity="1" /><path clip-path="url(#clip880)" d="M1602.74 42.2386 Q1602.79 41.5066 1603.94 41.5066 L1640.68 41.5066 Q1642.41 41.5066 1642.44 42.18 Q1642.44 42.912 1640.8 42.8827 L1604.35 42.8827 Q1602.74 42.912 1602.74 42.2386 M1602.74 30.5274 Q1602.74 29.7954 1603.99 29.8247 L1640.62 29.8247 Q1642.41 29.8247 1642.44 30.5274 Q1642.44 31.2008 1640.91 31.2008 L1603.94 31.2008 Q1602.74 31.2008 1602.74 30.5274 Z" fill="#000000" fill-rule="nonzero" fill-opacity="1" /><path clip-path="url(#clip880)" d="M1665.57 17.118 L1665.57 15.2442 Q1672.77 15.2442 1676.49 11.4088 Q1677.52 11.4088 1677.69 11.643 Q1677.87 11.8772 1677.87 12.9605 L1677.87 46.601 Q1677.87 48.387 1678.74 48.9433 Q1679.62 49.4995 1683.46 49.4995 L1685.36 49.4995 L1685.36 51.3441 Q1683.25 51.1684 1675.64 51.1684 Q1668.03 51.1684 1665.95 51.3441 L1665.95 49.4995 L1667.85 49.4995 Q1671.63 49.4995 1672.54 48.9725 Q1673.45 48.4163 1673.45 46.601 L1673.45 15.537 Q1670.31 17.118 1665.57 17.118 Z" fill="#000000" fill-rule="nonzero" fill-opacity="1" /><path clip-path="url(#clip880)" d="M1688.36 32.1669 Q1688.36 23.3542 1690.58 18.5526 Q1693.68 11.4088 1701 11.4088 Q1702.56 11.4088 1704.17 11.848 Q1705.8 12.2579 1707.85 13.8682 Q1709.93 15.4784 1711.19 18.1135 Q1713.59 23.2079 1713.59 32.1669 Q1713.59 40.9211 1711.37 45.6934 Q1708.12 52.6616 1700.94 52.6616 Q1698.25 52.6616 1695.5 51.2855 Q1692.78 49.9094 1691.05 46.601 Q1688.36 41.653 1688.36 32.1669 M1693.33 31.435 Q1693.33 40.4819 1693.98 44.0831 Q1694.71 47.9771 1696.7 49.6752 Q1698.72 51.3441 1700.94 51.3441 Q1703.35 51.3441 1705.34 49.5581 Q1707.36 47.7429 1707.97 43.8489 Q1708.64 40.0135 1708.62 31.435 Q1708.62 23.0907 1708.03 19.753 Q1707.24 15.8591 1705.13 14.3073 Q1703.05 12.7263 1700.94 12.7263 Q1700.15 12.7263 1699.31 12.9605 Q1698.49 13.1948 1697.28 13.8682 Q1696.08 14.5415 1695.15 16.2104 Q1694.24 17.8792 1693.8 20.3972 Q1693.33 23.647 1693.33 31.435 Z" fill="#000000" fill-rule="nonzero" fill-opacity="1" /><path clip-path="url(#clip880)" d="M1733.9 51.3441 L1733.9 49.4995 Q1737.09 49.4995 1737.82 49.1189 Q1738.55 48.709 1738.55 46.7767 L1738.55 30.703 Q1738.55 28.4779 1737.76 27.9216 Q1737 27.3653 1733.9 27.3653 L1733.9 25.4915 L1742.33 24.8474 L1742.33 31.1422 Q1745.14 24.8474 1751.2 24.8474 Q1758.23 24.8474 1759.19 30.703 Q1760.22 28.4193 1762.35 26.6334 Q1764.52 24.8474 1767.89 24.8474 Q1772.4 24.8474 1774.18 27.0726 Q1775.5 28.5657 1775.76 30.2346 Q1776.03 31.9034 1776.03 36.2366 L1776.03 47.6843 Q1776.09 48.9433 1777.05 49.236 Q1778.02 49.4995 1780.71 49.4995 L1780.71 51.3441 Q1774.59 51.1684 1774.01 51.1684 Q1773.54 51.1684 1767.21 51.3441 L1767.21 49.4995 Q1770.41 49.4995 1771.14 49.1189 Q1771.9 48.709 1771.9 46.7767 L1771.9 32.8111 Q1771.9 29.7661 1770.96 27.9802 Q1770.03 26.1649 1767.45 26.1649 Q1764.35 26.1649 1761.86 28.7707 Q1759.37 31.3764 1759.37 35.7681 L1759.37 46.7767 Q1759.37 48.709 1760.1 49.1189 Q1760.86 49.4995 1764.05 49.4995 L1764.05 51.3441 Q1757.93 51.1684 1757.32 51.1684 Q1756.85 51.1684 1750.56 51.3441 L1750.56 49.4995 Q1753.75 49.4995 1754.48 49.1189 Q1755.24 48.709 1755.24 46.7767 L1755.24 32.8111 Q1755.24 29.7661 1754.3 27.9802 Q1753.37 26.1649 1750.79 26.1649 Q1747.69 26.1649 1745.2 28.7707 Q1742.71 31.3764 1742.71 35.7681 L1742.71 46.7767 Q1742.71 48.709 1743.44 49.1189 Q1744.2 49.4995 1747.36 49.4995 L1747.36 51.3441 Q1741.24 51.1684 1740.66 51.1684 Q1740.19 51.1684 1733.9 51.3441 Z" fill="#000000" fill-rule="nonzero" fill-opacity="1" /><path clip-path="url(#clip880)" d="M1784.3 50.5536 L1784.3 42.6485 Q1784.3 41.9751 1784.33 41.7409 Q1784.36 41.5066 1784.53 41.331 Q1784.71 41.1553 1785.06 41.1553 Q1785.47 41.1553 1785.62 41.331 Q1785.79 41.5066 1785.91 42.18 Q1786.82 46.3082 1788.75 48.5041 Q1790.71 50.6707 1794.25 50.6707 Q1797.62 50.6707 1799.32 49.1775 Q1801.02 47.6843 1801.02 45.2249 Q1801.02 40.8332 1794.78 39.7207 Q1791.18 38.9887 1789.69 38.5203 Q1788.19 38.0225 1786.88 36.9393 Q1784.3 34.8312 1784.3 31.8449 Q1784.3 28.8585 1786.55 26.6627 Q1788.84 24.4668 1793.87 24.4668 Q1797.24 24.4668 1799.52 26.1649 Q1800.2 25.6379 1800.55 25.1988 Q1801.34 24.4668 1801.75 24.4668 Q1802.22 24.4668 1802.31 24.7889 Q1802.39 25.0816 1802.39 25.9307 L1802.39 31.962 Q1802.39 32.6354 1802.36 32.8696 Q1802.34 33.1038 1802.16 33.2795 Q1801.98 33.4259 1801.6 33.4259 Q1800.93 33.4259 1800.9 32.8696 Q1800.43 25.6087 1793.87 25.6087 Q1790.33 25.6087 1788.75 26.9847 Q1787.17 28.3315 1787.17 30.176 Q1787.17 31.2008 1787.64 31.9913 Q1788.14 32.7525 1788.75 33.2209 Q1789.39 33.6601 1790.57 34.0993 Q1791.74 34.5092 1792.44 34.6556 Q1793.17 34.802 1794.55 35.0947 Q1799.35 36.0024 1801.37 37.964 Q1803.89 40.4819 1803.89 43.6732 Q1803.89 47.2159 1801.49 49.6167 Q1799.09 52.0175 1794.25 52.0175 Q1790.36 52.0175 1787.64 49.4117 Q1787.29 49.763 1787.02 50.0851 Q1786.76 50.3779 1786.64 50.495 Q1786.55 50.6121 1786.53 50.6999 Q1786.5 50.7585 1786.44 50.8171 Q1785.24 52.0175 1784.94 52.0175 Q1784.48 52.0175 1784.39 51.6954 Q1784.3 51.4026 1784.3 50.5536 Z" fill="#000000" fill-rule="nonzero" fill-opacity="1" /><polyline clip-path="url(#clip881)" style="stroke:#009af9; stroke-linecap:round; stroke-linejoin:round; stroke-width:6; stroke-opacity:1; fill:none" points="269.283,1199.27 279.7,1199.6 290.118,1200.53 300.535,1201.95 310.952,1203.44 321.37,1201.83 331.787,1200.21 342.204,1199 352.622,1198.41 363.039,1198.55 373.456,1199.44 383.874,1200.98 394.291,1202.95 404.709,1202.12 415.126,1200.04 425.543,1198.36 435.961,1197.36 446.378,1197.22 456.795,1198.01 467.213,1199.66 477.63,1201.97 488.047,1202.59 498.465,1199.92 508.882,1197.6 519.3,1196.02 529.717,1195.46 540.134,1196.07 550.552,1197.81 560.969,1200.52 571.386,1203.16 581.804,1199.88 592.221,1196.65 602.639,1194.21 613.056,1192.97 623.473,1193.2 633.891,1194.96 644.308,1198.1 654.725,1202.18 665.143,1200.32 675.56,1195.84 685.977,1192.19 696.395,1189.98 706.812,1189.69 717.23,1191.54 727.647,1195.44 738.064,1200.97 748.482,1199.48 758.899,1192.68 769.316,1186.62 779.734,1182.29 790.151,1180.5 800.568,1181.77 810.986,1186.21 821.403,1193.5 831.821,1202.18 842.238,1194.01 852.655,1184.36 863.073,1176.88 873.49,1173.11 883.907,1174.27 894.325,1181.08 904.742,1193.46 915.159,1195.77 925.577,1175.22 935.994,1153.51 946.412,1133.84 956.829,1119.64 967.246,1114.42 977.664,1121.47 988.081,1143.46 998.498,1181.77 1008.92,1167.19 1019.33,1094.1 1029.75,1006.21 1040.17,907.844 1050.59,804.452 1061,702.154 1071.42,606.907 1081.84,523.6 1092.25,455.367 1102.67,403.336 1113.09,366.887 1123.51,344.287 1133.92,333.403 1144.34,332.179 1154.76,338.742 1165.18,351.201 1175.59,367.41 1186.01,384.899 1196.43,401.054 1206.85,413.483 1217.26,420.417 1227.68,421.014 1238.1,415.476 1248.52,404.96 1258.93,391.303 1269.35,376.65 1279.77,363.074 1290.18,352.293 1300.6,345.518 1311.02,343.437 1321.44,346.246 1331.85,353.678 1342.27,364.969 1352.69,378.827 1363.11,393.469 1373.52,406.788 1383.94,416.662 1394.36,421.332 1404.78,419.772 1415.19,411.935 1425.61,398.815 1436.03,382.297 1446.45,364.834 1456.86,349.037 1467.28,337.334 1477.7,331.822 1488.11,334.372 1498.53,346.878 1508.95,371.421 1519.37,410.115 1529.78,464.574 1540.2,535.189 1550.62,620.535 1561.04,717.187 1571.45,820.043 1581.87,923.063 1592.29,1020.18 1602.71,1106.11 1613.12,1176.57 1623.54,1175.07 1633.96,1139.13 1644.38,1119.51 1654.79,1114.5 1665.21,1121.28 1675.63,1136.52 1686.04,1156.72 1696.46,1178.46 1706.88,1198.44 1717.3,1191.29 1727.71,1179.69 1738.13,1173.75 1748.55,1173.38 1758.97,1177.8 1769.38,1185.71 1779.8,1195.54 1790.22,1201.11 1800.64,1192.25 1811.05,1185.35 1821.47,1181.38 1831.89,1180.59 1842.3,1182.8 1852.72,1187.44 1863.14,1193.68 1873.56,1200.49 1883.97,1200.08 1894.39,1194.74 1904.81,1191.12 1915.23,1189.6 1925.64,1190.2 1936.06,1192.66 1946.48,1196.48 1956.9,1201.01 1967.31,1201.55 1977.73,1197.55 1988.15,1194.6 1998.57,1193.06 2008.98,1193.07 2019.4,1194.51 2029.82,1197.09 2040.23,1200.4 2050.65,1203.13 2061.07,1200.06 2071.49,1197.48 2081.9,1195.9 2092.32,1195.48 2102.74,1196.2 2113.16,1197.91 2123.57,1200.31 2133.99,1202.97 2144.41,1201.59 2154.83,1199.37 2165.24,1197.83 2175.66,1197.18 2186.08,1197.46 2196.5,1198.57 2206.91,1200.33 2217.33,1202.45 2227.75,1202.64 2238.16,1200.71 2248.58,1199.26 2259,1198.48 2269.42,1198.45 2279.83,1199.15 2290.25,1200.43 2300.67,1202.09 2311.09,1203.34 2321.5,1201.71 2331.92,1200.36 2342.34,1199.51 2352.76,1199.27 "/>
<polyline clip-path="url(#clip881)" style="stroke:#e26f46; stroke-linecap:round; stroke-linejoin:round; stroke-width:6; stroke-opacity:1; fill:none" points="269.283,1191.22 279.7,1191.41 290.118,1193.28 300.535,1196.59 310.952,1200.84 321.37,1201.68 331.787,1197.34 342.204,1193.8 352.622,1191.62 363.039,1191.09 373.456,1192.29 383.874,1195.06 394.291,1199 404.709,1203.06 415.126,1199.08 425.543,1195.13 435.961,1192.34 446.378,1191.12 456.795,1191.63 467.213,1193.8 477.63,1197.33 488.047,1201.67 498.465,1200.84 508.882,1196.6 519.3,1193.3 529.717,1191.43 540.134,1191.28 550.552,1192.85 560.969,1195.93 571.386,1200.08 581.804,1202.38 592.221,1197.95 602.639,1194.19 613.056,1191.72 623.473,1190.9 633.891,1191.84 644.308,1194.41 654.725,1198.23 665.143,1202.62 675.56,1199.86 685.977,1195.86 696.395,1193.04 706.812,1191.83 717.23,1192.44 727.647,1194.81 738.064,1198.62 748.482,1202.96 758.899,1198.91 769.316,1194.4 779.734,1190.99 790.151,1189.2 800.568,1189.31 810.986,1191.29 821.403,1194.82 831.821,1199.3 842.238,1203 852.655,1199.28 863.073,1196.77 873.49,1196.39 883.907,1198.48 894.325,1202.67 904.742,1197.82 915.159,1190.53 925.577,1183.74 935.994,1179.21 946.412,1178.91 956.829,1184.78 967.246,1198.23 977.664,1184.89 988.081,1151.15 998.498,1106.61 1008.92,1051.84 1019.33,988.147 1029.75,917.636 1040.17,843.017 1050.59,767.372 1061,693.831 1071.42,625.226 1081.84,563.799 1092.25,511.02 1102.67,467.533 1113.09,433.25 1123.51,407.52 1133.92,389.337 1144.34,377.524 1154.76,370.852 1165.18,368.112 1175.59,368.144 1186.01,369.863 1196.43,372.293 1206.85,374.614 1217.26,376.212 1227.68,376.716 1238.1,376.009 1248.52,374.208 1258.93,371.611 1269.35,368.634 1279.77,365.736 1290.18,363.344 1300.6,361.8 1311.02,361.319 1321.44,361.968 1331.85,363.656 1342.27,366.148 1352.69,369.087 1363.11,372.035 1373.52,374.538 1383.94,376.19 1394.36,376.717 1404.78,376.035 1415.19,374.299 1425.61,371.918 1436.03,369.538 1446.45,368.006 1456.86,368.319 1467.28,371.573 1477.7,378.938 1488.11,391.628 1498.53,410.871 1508.95,437.827 1519.37,473.46 1529.78,518.351 1540.2,572.489 1550.62,635.106 1561.04,704.611 1571.45,778.659 1581.87,854.352 1592.29,928.546 1602.71,998.194 1613.12,1060.66 1623.54,1113.97 1633.96,1156.9 1644.38,1189 1654.79,1195.79 1665.21,1183.43 1675.63,1178.61 1686.04,1179.67 1696.46,1184.66 1706.88,1191.63 1717.3,1198.86 1727.71,1202.04 1738.13,1198 1748.55,1196.29 1758.97,1197.02 1769.38,1199.8 1779.8,1203.01 1790.22,1198.6 1800.64,1194.21 1811.05,1190.88 1821.47,1189.17 1831.89,1189.36 1842.3,1191.41 1852.72,1195.02 1863.14,1199.64 1873.56,1202.46 1883.97,1197.97 1894.39,1194.35 1904.81,1192.23 1915.23,1191.9 1925.64,1193.37 1936.06,1196.4 1946.48,1200.52 1956.9,1202 1967.31,1197.6 1977.73,1193.93 1988.15,1191.59 1998.57,1190.91 2008.98,1191.99 2019.4,1194.69 2029.82,1198.6 2040.23,1202.92 2050.65,1199.41 2061.07,1195.39 2071.49,1192.51 2081.9,1191.19 2092.32,1191.61 2102.74,1193.71 2113.16,1197.19 2123.57,1201.52 2133.99,1201 2144.41,1196.73 2154.83,1193.38 2165.24,1191.44 2175.66,1191.19 2186.08,1192.67 2196.5,1195.66 2206.91,1199.74 2217.33,1202.71 2227.75,1198.36 2238.16,1194.56 2248.58,1192.01 2259,1191.06 2269.42,1191.85 2279.83,1194.26 2290.25,1197.96 2300.67,1202.33 2311.09,1200.17 2321.5,1196.02 2331.92,1192.9 2342.34,1191.27 2352.76,1191.34 "/>
<polyline clip-path="url(#clip881)" style="stroke:#3da44d; stroke-linecap:round; stroke-linejoin:round; stroke-width:6; stroke-opacity:1; fill:none" points="269.283,1202.89 279.7,1202.73 290.118,1202.7 300.535,1202.83 310.952,1203.08 321.37,1203.43 331.787,1203.52 342.204,1203.14 352.622,1202.82 363.039,1202.62 373.456,1202.57 383.874,1202.69 394.291,1202.96 404.709,1203.35 415.126,1203.54 425.543,1203.1 435.961,1202.72 446.378,1202.47 456.795,1202.39 467.213,1202.51 477.63,1202.81 488.047,1203.26 498.465,1203.55 508.882,1203.03 519.3,1202.58 529.717,1202.28 540.134,1202.19 550.552,1202.34 560.969,1202.7 571.386,1203.25 581.804,1203.43 592.221,1202.78 602.639,1202.2 613.056,1201.8 623.473,1201.65 633.891,1201.79 644.308,1202.21 654.725,1202.84 665.143,1203.55 675.56,1202.99 685.977,1202.37 696.395,1202.01 706.812,1201.99 717.23,1202.37 727.647,1203.12 738.064,1203.14 748.482,1201.91 758.899,1200.68 769.316,1199.63 779.734,1198.94 790.151,1198.75 800.568,1199.09 810.986,1199.93 821.403,1201.12 831.821,1202.43 842.238,1203.52 852.655,1203.21 863.073,1203.43 873.49,1202.57 883.907,1200.16 894.325,1196.76 904.742,1192.78 915.159,1188.91 925.577,1186.08 935.994,1185.46 946.412,1188.4 956.829,1196.23 967.246,1196.37 977.664,1174.66 988.081,1144.33 998.498,1105.03 1008.92,1056.85 1019.33,1000.49 1029.75,937.297 1040.17,869.215 1050.59,798.642 1061,728.225 1071.42,660.587 1081.84,598.06 1092.25,542.448 1102.67,494.896 1113.09,455.857 1123.51,425.174 1133.92,402.22 1144.34,386.076 1154.76,375.665 1165.18,369.865 1175.59,367.555 1186.01,367.657 1196.43,369.166 1206.85,371.193 1217.26,373.017 1227.68,374.131 1238.1,374.269 1248.52,373.409 1258.93,371.732 1269.35,369.572 1279.77,367.332 1290.18,365.413 1300.6,364.147 1311.02,363.75 1321.44,364.286 1331.85,365.666 1342.27,367.657 1352.69,369.911 1363.11,372.024 1373.52,373.596 1383.94,374.314 1394.36,374.022 1404.78,372.779 1415.19,370.886 1425.61,368.886 1436.03,367.528 1446.45,367.722 1456.86,370.485 1467.28,376.906 1477.7,388.104 1488.11,405.204 1498.53,429.264 1508.95,461.171 1519.37,501.489 1529.78,550.296 1540.2,607.035 1550.62,670.459 1561.04,738.672 1571.45,809.284 1581.87,879.648 1592.29,947.141 1602.71,1009.42 1613.12,1064.62 1623.54,1111.5 1633.96,1149.44 1644.38,1178.45 1654.79,1198.85 1665.21,1194.71 1675.63,1187.68 1686.04,1185.36 1696.46,1186.39 1706.88,1189.45 1717.3,1193.39 1727.71,1197.32 1738.13,1200.59 1748.55,1202.84 1758.97,1203.34 1769.38,1203.25 1779.8,1203.39 1790.22,1202.24 1800.64,1200.93 1811.05,1199.77 1821.47,1199 1831.89,1198.74 1842.3,1199.02 1852.72,1199.77 1863.14,1200.86 1873.56,1202.1 1883.97,1203.31 1894.39,1202.99 1904.81,1202.29 1915.23,1201.97 1925.64,1202.04 1936.06,1202.45 1946.48,1203.1 1956.9,1203.46 1967.31,1202.73 1977.73,1202.13 1988.15,1201.75 1998.57,1201.66 2008.98,1201.85 2019.4,1202.27 2029.82,1202.87 2040.23,1203.52 2050.65,1203.16 2061.07,1202.64 2071.49,1202.3 2081.9,1202.19 2092.32,1202.32 2102.74,1202.64 2113.16,1203.11 2123.57,1203.6 2133.99,1203.18 2144.41,1202.76 2154.83,1202.48 2165.24,1202.39 2175.66,1202.49 2186.08,1202.77 2196.5,1203.16 2206.91,1203.6 2217.33,1203.28 2227.75,1202.91 2238.16,1202.66 2248.58,1202.56 2259,1202.64 2269.42,1202.86 2279.83,1203.19 2290.25,1203.58 2300.67,1203.37 2311.09,1203.03 2321.5,1202.8 2331.92,1202.7 2342.34,1202.74 2352.76,1202.92 "/>
<polyline clip-path="url(#clip881)" style="stroke:#009af9; stroke-linecap:round; stroke-linejoin:round; stroke-width:6; stroke-opacity:1; fill:none" points="269.283,1202.87 279.7,1203.02 290.118,1203.27 300.535,1203.59 310.952,1203.92 321.37,1204.23 331.787,1204.48 342.204,1204.61 352.622,1204.61 363.039,1204.48 373.456,1204.23 383.874,1203.89 394.291,1203.51 404.709,1203.14 415.126,1202.85 425.543,1202.66 435.961,1202.61 446.378,1202.72 456.795,1202.98 467.213,1203.34 477.63,1203.77 488.047,1204.2 498.465,1204.57 508.882,1204.82 519.3,1204.92 529.717,1204.84 540.134,1204.58 550.552,1204.19 560.969,1203.7 571.386,1203.19 581.804,1202.73 592.221,1202.39 602.639,1202.22 613.056,1202.26 623.473,1202.51 633.891,1202.95 644.308,1203.51 654.725,1204.11 665.143,1204.68 675.56,1205.12 685.977,1205.36 696.395,1205.36 706.812,1205.09 717.23,1204.58 727.647,1203.89 738.064,1203.12 748.482,1202.36 758.899,1201.74 769.316,1201.36 779.734,1201.29 790.151,1201.55 800.568,1202.14 810.986,1202.98 821.403,1203.96 831.821,1204.94 842.238,1205.75 852.655,1206.26 863.073,1206.35 873.49,1205.94 883.907,1205.06 894.325,1203.78 904.742,1202.24 915.159,1200.68 925.577,1199.33 935.994,1198.46 946.412,1198.28 956.829,1198.95 967.246,1200.51 977.664,1202.92 988.081,1205.97 998.498,1209.27 1008.92,1212.14 1019.33,1213.7 1029.75,1212.97 1040.17,1209.19 1050.59,1202.25 1061,1192.92 1071.42,1182.95 1081.84,1174.62 1092.25,1170.18 1102.67,1171.11 1113.09,1177.59 1123.51,1188.5 1133.92,1201.77 1144.34,1215.06 1154.76,1226.37 1165.18,1234.55 1175.59,1239.31 1186.01,1241.07 1196.43,1240.61 1206.85,1238.78 1217.26,1236.33 1227.68,1233.82 1238.1,1231.69 1248.52,1230.34 1258.93,1230.19 1269.35,1231.59 1279.77,1234.77 1290.18,1239.7 1300.6,1245.97 1311.02,1252.82 1321.44,1259.31 1331.85,1264.57 1342.27,1267.97 1352.69,1269.31 1363.11,1268.8 1373.52,1266.94 1383.94,1264.34 1394.36,1261.6 1404.78,1259.25 1415.19,1257.74 1425.61,1257.55 1436.03,1259.24 1446.45,1263.37 1456.86,1270.4 1467.28,1280.39 1477.7,1292.67 1488.11,1305.72 1498.53,1317.28 1508.95,1324.77 1519.37,1326.03 1529.78,1319.95 1540.2,1306.89 1550.62,1288.62 1561.04,1267.78 1571.45,1247.19 1581.87,1229.1 1592.29,1214.85 1602.71,1204.79 1613.12,1198.57 1623.54,1195.44 1633.96,1194.61 1644.38,1195.35 1654.79,1197.07 1665.21,1199.26 1675.63,1201.52 1686.04,1203.51 1696.46,1205.02 1706.88,1205.94 1717.3,1206.27 1727.71,1206.08 1738.13,1205.52 1748.55,1204.75 1758.97,1203.92 1769.38,1203.18 1779.8,1202.62 1790.22,1202.31 1800.64,1202.27 1811.05,1202.45 1821.47,1202.81 1831.89,1203.26 1842.3,1203.73 1852.72,1204.13 1863.14,1204.42 1873.56,1204.55 1883.97,1204.53 1894.39,1204.37 1904.81,1204.12 1915.23,1203.81 1925.64,1203.51 1936.06,1203.26 1946.48,1203.1 1956.9,1203.05 1967.31,1203.11 1977.73,1203.25 1988.15,1203.47 1998.57,1203.7 2008.98,1203.92 2019.4,1204.1 2029.82,1204.2 2040.23,1204.21 2050.65,1204.14 2061.07,1204 2071.49,1203.81 2081.9,1203.61 2092.32,1203.43 2102.74,1203.29 2113.16,1203.22 2123.57,1203.22 2133.99,1203.29 2144.41,1203.43 2154.83,1203.6 2165.24,1203.78 2175.66,1203.94 2186.08,1204.06 2196.5,1204.11 2206.91,1204.11 2217.33,1204.04 2227.75,1203.91 2238.16,1203.75 2248.58,1203.59 2259,1203.44 2269.42,1203.33 2279.83,1203.27 2290.25,1203.28 2300.67,1203.35 2311.09,1203.46 2321.5,1203.61 2331.92,1203.76 2342.34,1203.9 2352.76,1204.01 "/>
<polyline clip-path="url(#clip881)" style="stroke:#e26f46; stroke-linecap:round; stroke-linejoin:round; stroke-width:6; stroke-opacity:1; fill:none" points="269.283,1203.11 279.7,1203.35 290.118,1203.64 300.535,1203.93 310.952,1204.19 321.37,1204.37 331.787,1204.46 342.204,1204.43 352.622,1204.31 363.039,1204.09 373.456,1203.82 383.874,1203.53 394.291,1203.27 404.709,1203.06 415.126,1202.94 425.543,1202.93 435.961,1203.02 446.378,1203.2 456.795,1203.45 467.213,1203.74 477.63,1204.01 488.047,1204.23 498.465,1204.38 508.882,1204.43 519.3,1204.37 529.717,1204.21 540.134,1203.98 550.552,1203.7 560.969,1203.43 571.386,1203.19 581.804,1203.02 592.221,1202.95 602.639,1202.98 613.056,1203.12 623.473,1203.33 633.891,1203.59 644.308,1203.86 654.725,1204.11 665.143,1204.28 675.56,1204.36 685.977,1204.34 696.395,1204.21 706.812,1204 717.23,1203.74 727.647,1203.46 738.064,1203.21 748.482,1203.02 758.899,1202.94 769.316,1202.96 779.734,1203.09 790.151,1203.31 800.568,1203.58 810.986,1203.85 821.403,1204.09 831.821,1204.23 842.238,1204.26 852.655,1204.16 863.073,1203.93 873.49,1203.61 883.907,1203.24 894.325,1202.91 904.742,1202.69 915.159,1202.65 925.577,1202.85 935.994,1203.32 946.412,1204.06 956.829,1204.99 967.246,1206.01 977.664,1206.94 988.081,1207.51 998.498,1207.4 1008.92,1206.23 1019.33,1203.67 1029.75,1199.5 1040.17,1193.75 1050.59,1186.77 1061,1179.21 1071.42,1171.99 1081.84,1166.09 1092.25,1162.34 1102.67,1161.28 1113.09,1163.04 1123.51,1167.31 1133.92,1173.48 1144.34,1180.78 1154.76,1188.43 1165.18,1195.81 1175.59,1202.47 1186.01,1208.21 1196.43,1213.01 1206.85,1216.99 1217.26,1220.34 1227.68,1223.3 1238.1,1226.09 1248.52,1228.92 1258.93,1231.95 1269.35,1235.3 1279.77,1239 1290.18,1243.02 1300.6,1247.28 1311.02,1251.62 1321.44,1255.88 1331.85,1259.91 1342.27,1263.6 1352.69,1266.91 1363.11,1269.87 1373.52,1272.57 1383.94,1275.19 1394.36,1277.92 1404.78,1280.99 1415.19,1284.6 1425.61,1288.93 1436.03,1294.11 1446.45,1300.13 1456.86,1306.84 1467.28,1313.86 1477.7,1320.6 1488.11,1326.28 1498.53,1329.97 1508.95,1330.8 1519.37,1328.1 1529.78,1321.57 1540.2,1311.39 1550.62,1298.22 1561.04,1283.13 1571.45,1267.33 1581.87,1252.01 1592.29,1238.16 1602.71,1226.41 1613.12,1217.03 1623.54,1210.03 1633.96,1205.19 1644.38,1202.18 1654.79,1200.66 1665.21,1200.25 1675.63,1200.61 1686.04,1201.42 1696.46,1202.41 1706.88,1203.36 1717.3,1204.11 1727.71,1204.57 1738.13,1204.7 1748.55,1204.54 1758.97,1204.15 1769.38,1203.62 1779.8,1203.06 1790.22,1202.58 1800.64,1202.24 1811.05,1202.11 1821.47,1202.19 1831.89,1202.47 1842.3,1202.91 1852.72,1203.44 1863.14,1203.97 1873.56,1204.43 1883.97,1204.76 1894.39,1204.92 1904.81,1204.88 1915.23,1204.66 1925.64,1204.29 1936.06,1203.84 1946.48,1203.36 1956.9,1202.93 1967.31,1202.61 1977.73,1202.44 1988.15,1202.45 1998.57,1202.63 2008.98,1202.95 2019.4,1203.37 2029.82,1203.84 2040.23,1204.27 2050.65,1204.62 2061.07,1204.83 2071.49,1204.88 2081.9,1204.76 2092.32,1204.49 2102.74,1204.11 2113.16,1203.67 2123.57,1203.24 2133.99,1202.87 2144.41,1202.61 2154.83,1202.51 2165.24,1202.57 2175.66,1202.78 2186.08,1203.12 2196.5,1203.54 2206.91,1203.97 2217.33,1204.36 2227.75,1204.66 2238.16,1204.82 2248.58,1204.82 2259,1204.66 2269.42,1204.37 2279.83,1203.98 2290.25,1203.56 2300.67,1203.15 2311.09,1202.82 2321.5,1202.61 2331.92,1202.55 2342.34,1202.65 2352.76,1202.88 "/>
<polyline clip-path="url(#clip881)" style="stroke:#3da44d; stroke-linecap:round; stroke-linejoin:round; stroke-width:6; stroke-opacity:1; fill:none" points="269.283,1203.62 279.7,1203.63 290.118,1203.65 300.535,1203.67 310.952,1203.7 321.37,1203.72 331.787,1203.74 342.204,1203.75 352.622,1203.75 363.039,1203.74 373.456,1203.72 383.874,1203.69 394.291,1203.66 404.709,1203.64 415.126,1203.62 425.543,1203.6 435.961,1203.6 446.378,1203.62 456.795,1203.64 467.213,1203.67 477.63,1203.7 488.047,1203.73 498.465,1203.76 508.882,1203.77 519.3,1203.77 529.717,1203.75 540.134,1203.73 550.552,1203.69 560.969,1203.65 571.386,1203.61 581.804,1203.58 592.221,1203.57 602.639,1203.57 613.056,1203.59 623.473,1203.62 633.891,1203.67 644.308,1203.71 654.725,1203.75 665.143,1203.78 675.56,1203.79 685.977,1203.78 696.395,1203.75 706.812,1203.7 717.23,1203.63 727.647,1203.57 738.064,1203.51 748.482,1203.47 758.899,1203.46 769.316,1203.48 779.734,1203.52 790.151,1203.59 800.568,1203.67 810.986,1203.75 821.403,1203.8 831.821,1203.82 842.238,1203.79 852.655,1203.7 863.073,1203.57 873.49,1203.4 883.907,1203.24 894.325,1203.1 904.742,1203.05 915.159,1203.12 925.577,1203.35 935.994,1203.75 946.412,1204.33 956.829,1205.05 967.246,1205.83 977.664,1206.54 988.081,1206.99 998.498,1206.94 1008.92,1206.09 1019.33,1204.15 1029.75,1200.9 1040.17,1196.26 1050.59,1190.37 1061,1183.66 1071.42,1176.78 1081.84,1170.57 1092.25,1165.87 1102.67,1163.33 1113.09,1163.35 1123.51,1165.92 1133.92,1170.71 1144.34,1177.11 1154.76,1184.39 1165.18,1191.87 1175.59,1199 1186.01,1205.42 1196.43,1210.97 1206.85,1215.67 1217.26,1219.65 1227.68,1223.11 1238.1,1226.26 1248.52,1229.32 1258.93,1232.46 1269.35,1235.8 1279.77,1239.41 1290.18,1243.28 1300.6,1247.33 1311.02,1251.46 1321.44,1255.53 1331.85,1259.4 1342.27,1263 1352.69,1266.31 1363.11,1269.37 1373.52,1272.3 1383.94,1275.27 1394.36,1278.48 1404.78,1282.12 1415.19,1286.4 1425.61,1291.42 1436.03,1297.23 1446.45,1303.7 1456.86,1310.54 1467.28,1317.24 1477.7,1323.11 1488.11,1327.31 1498.53,1329.02 1508.95,1327.6 1519.37,1322.67 1529.78,1314.3 1540.2,1302.96 1550.62,1289.51 1561.04,1274.98 1571.45,1260.45 1581.87,1246.84 1592.29,1234.82 1602.71,1224.77 1613.12,1216.79 1623.54,1210.79 1633.96,1206.55 1644.38,1203.77 1654.79,1202.16 1665.21,1201.43 1675.63,1201.33 1686.04,1201.61 1696.46,1202.11 1706.88,1202.65 1717.3,1203.15 1727.71,1203.52 1738.13,1203.76 1748.55,1203.84 1758.97,1203.81 1769.38,1203.7 1779.8,1203.54 1790.22,1203.38 1800.64,1203.26 1811.05,1203.19 1821.47,1203.18 1831.89,1203.22 1842.3,1203.32 1852.72,1203.45 1863.14,1203.59 1873.56,1203.71 1883.97,1203.81 1894.39,1203.86 1904.81,1203.88 1915.23,1203.85 1925.64,1203.79 1936.06,1203.72 1946.48,1203.64 1956.9,1203.56 1967.31,1203.51 1977.73,1203.48 1988.15,1203.49 1998.57,1203.52 2008.98,1203.57 2019.4,1203.64 2029.82,1203.7 2040.23,1203.76 2050.65,1203.8 2061.07,1203.83 2071.49,1203.82 2081.9,1203.8 2092.32,1203.76 2102.74,1203.71 2113.16,1203.66 2123.57,1203.61 2133.99,1203.58 2144.41,1203.56 2154.83,1203.56 2165.24,1203.58 2175.66,1203.61 2186.08,1203.66 2196.5,1203.7 2206.91,1203.74 2217.33,1203.77 2227.75,1203.78 2238.16,1203.78 2248.58,1203.77 2259,1203.74 2269.42,1203.71 2279.83,1203.67 2290.25,1203.64 2300.67,1203.61 2311.09,1203.59 2321.5,1203.59 2331.92,1203.6 2342.34,1203.63 2352.76,1203.66 "/>
<path clip-path="url(#clip880)" d="M1766.07 886.346 L2283.31 886.346 L2283.31 678.986 L1766.07 678.986  Z" fill="#ffffff" fill-rule="evenodd" fill-opacity="1"/>
<polyline clip-path="url(#clip880)" style="stroke:#000000; stroke-linecap:round; stroke-linejoin:round; stroke-width:4; stroke-opacity:1; fill:none" points="1766.07,886.346 2283.31,886.346 2283.31,678.986 1766.07,678.986 1766.07,886.346 "/>
<polyline clip-path="url(#clip880)" style="stroke:#009af9; stroke-linecap:round; stroke-linejoin:round; stroke-width:6; stroke-opacity:1; fill:none" points="1789.22,730.826 1928.12,730.826 "/>
<path clip-path="url(#clip880)" d="M1973.52 714.68 L1973.52 719.24 Q1970.85 717.967 1968.49 717.342 Q1966.13 716.717 1963.93 716.717 Q1960.11 716.717 1958.03 718.198 Q1955.97 719.68 1955.97 722.411 Q1955.97 724.703 1957.33 725.883 Q1958.72 727.041 1962.57 727.758 L1965.39 728.337 Q1970.62 729.333 1973.1 731.856 Q1975.6 734.356 1975.6 738.569 Q1975.6 743.592 1972.22 746.184 Q1968.86 748.777 1962.36 748.777 Q1959.9 748.777 1957.13 748.221 Q1954.37 747.666 1951.41 746.578 L1951.41 741.763 Q1954.26 743.36 1956.99 744.17 Q1959.72 744.981 1962.36 744.981 Q1966.36 744.981 1968.54 743.407 Q1970.71 741.832 1970.71 738.916 Q1970.71 736.37 1969.14 734.934 Q1967.59 733.499 1964.02 732.782 L1961.18 732.226 Q1955.95 731.184 1953.61 728.962 Q1951.27 726.74 1951.27 722.782 Q1951.27 718.198 1954.49 715.559 Q1957.73 712.921 1963.4 712.921 Q1965.83 712.921 1968.35 713.36 Q1970.88 713.8 1973.52 714.68 Z" fill="#000000" fill-rule="nonzero" fill-opacity="1" /><path clip-path="url(#clip880)" d="M1982.7 722.18 L1986.96 722.18 L1986.96 748.106 L1982.7 748.106 L1982.7 722.18 M1982.7 712.087 L1986.96 712.087 L1986.96 717.481 L1982.7 717.481 L1982.7 712.087 Z" fill="#000000" fill-rule="nonzero" fill-opacity="1" /><path clip-path="url(#clip880)" d="M2017.43 732.458 L2017.43 748.106 L2013.17 748.106 L2013.17 732.596 Q2013.17 728.916 2011.73 727.087 Q2010.3 725.258 2007.43 725.258 Q2003.98 725.258 2001.99 727.458 Q2000 729.657 2000 733.453 L2000 748.106 L1995.71 748.106 L1995.71 722.18 L2000 722.18 L2000 726.208 Q2001.52 723.87 2003.58 722.712 Q2005.67 721.555 2008.38 721.555 Q2012.84 721.555 2015.14 724.333 Q2017.43 727.087 2017.43 732.458 Z" fill="#000000" fill-rule="nonzero" fill-opacity="1" /><path clip-path="url(#clip880)" d="M2044.58 723.175 L2044.58 727.157 Q2042.77 726.161 2040.95 725.675 Q2039.14 725.166 2037.29 725.166 Q2033.14 725.166 2030.85 727.805 Q2028.56 730.42 2028.56 735.166 Q2028.56 739.911 2030.85 742.55 Q2033.14 745.166 2037.29 745.166 Q2039.14 745.166 2040.95 744.68 Q2042.77 744.17 2044.58 743.175 L2044.58 747.11 Q2042.8 747.944 2040.88 748.36 Q2038.98 748.777 2036.82 748.777 Q2030.97 748.777 2027.52 745.096 Q2024.07 741.416 2024.07 735.166 Q2024.07 728.823 2027.54 725.189 Q2031.04 721.555 2037.1 721.555 Q2039.07 721.555 2040.95 721.971 Q2042.82 722.365 2044.58 723.175 Z" fill="#000000" fill-rule="nonzero" fill-opacity="1" /><path clip-path="url(#clip880)" d="M2088.61 732.458 L2088.61 748.106 L2084.35 748.106 L2084.35 732.596 Q2084.35 728.916 2082.91 727.087 Q2081.48 725.258 2078.61 725.258 Q2075.16 725.258 2073.17 727.458 Q2071.18 729.657 2071.18 733.453 L2071.18 748.106 L2066.89 748.106 L2066.89 722.18 L2071.18 722.18 L2071.18 726.208 Q2072.7 723.87 2074.76 722.712 Q2076.85 721.555 2079.56 721.555 Q2084.02 721.555 2086.32 724.333 Q2088.61 727.087 2088.61 732.458 Z" fill="#000000" fill-rule="nonzero" fill-opacity="1" /><path clip-path="url(#clip880)" d="M2097.1 712.087 L2101.36 712.087 L2101.36 748.106 L2097.1 748.106 L2097.1 712.087 Z" fill="#000000" fill-rule="nonzero" fill-opacity="1" /><path clip-path="url(#clip880)" d="M2120.32 725.166 Q2116.89 725.166 2114.9 727.851 Q2112.91 730.513 2112.91 735.166 Q2112.91 739.819 2114.88 742.504 Q2116.87 745.166 2120.32 745.166 Q2123.72 745.166 2125.71 742.481 Q2127.7 739.795 2127.7 735.166 Q2127.7 730.559 2125.71 727.874 Q2123.72 725.166 2120.32 725.166 M2120.32 721.555 Q2125.88 721.555 2129.05 725.166 Q2132.22 728.777 2132.22 735.166 Q2132.22 741.532 2129.05 745.166 Q2125.88 748.777 2120.32 748.777 Q2114.74 748.777 2111.57 745.166 Q2108.42 741.532 2108.42 735.166 Q2108.42 728.777 2111.57 725.166 Q2114.74 721.555 2120.32 721.555 Z" fill="#000000" fill-rule="nonzero" fill-opacity="1" /><path clip-path="url(#clip880)" d="M2157.89 735.166 Q2157.89 730.467 2155.94 727.805 Q2154.02 725.12 2150.64 725.12 Q2147.26 725.12 2145.32 727.805 Q2143.4 730.467 2143.4 735.166 Q2143.4 739.865 2145.32 742.55 Q2147.26 745.212 2150.64 745.212 Q2154.02 745.212 2155.94 742.55 Q2157.89 739.865 2157.89 735.166 M2143.4 726.115 Q2144.74 723.8 2146.78 722.689 Q2148.84 721.555 2151.69 721.555 Q2156.41 721.555 2159.35 725.305 Q2162.31 729.055 2162.31 735.166 Q2162.31 741.277 2159.35 745.027 Q2156.41 748.777 2151.69 748.777 Q2148.84 748.777 2146.78 747.666 Q2144.74 746.532 2143.4 744.217 L2143.4 748.106 L2139.12 748.106 L2139.12 712.087 L2143.4 712.087 L2143.4 726.115 Z" fill="#000000" fill-rule="nonzero" fill-opacity="1" /><path clip-path="url(#clip880)" d="M2191.55 734.078 L2191.55 736.161 L2171.96 736.161 Q2172.24 740.559 2174.6 742.874 Q2176.99 745.166 2181.22 745.166 Q2183.68 745.166 2185.97 744.564 Q2188.28 743.962 2190.55 742.758 L2190.55 746.786 Q2188.26 747.758 2185.85 748.268 Q2183.44 748.777 2180.97 748.777 Q2174.76 748.777 2171.13 745.166 Q2167.52 741.555 2167.52 735.397 Q2167.52 729.032 2170.94 725.305 Q2174.39 721.555 2180.23 721.555 Q2185.46 721.555 2188.49 724.934 Q2191.55 728.291 2191.55 734.078 M2187.29 732.828 Q2187.24 729.333 2185.32 727.249 Q2183.42 725.166 2180.27 725.166 Q2176.71 725.166 2174.56 727.18 Q2172.43 729.194 2172.1 732.851 L2187.29 732.828 Z" fill="#000000" fill-rule="nonzero" fill-opacity="1" /><path clip-path="url(#clip880)" d="M2199.09 726.578 L2228.77 726.578 L2228.77 730.467 L2199.09 730.467 L2199.09 726.578 M2199.09 736.022 L2228.77 736.022 L2228.77 739.957 L2199.09 739.957 L2199.09 736.022 Z" fill="#000000" fill-rule="nonzero" fill-opacity="1" /><path clip-path="url(#clip880)" d="M2253.03 729.471 Q2256.38 730.189 2258.26 732.458 Q2260.16 734.726 2260.16 738.059 Q2260.16 743.175 2256.64 745.976 Q2253.12 748.777 2246.64 748.777 Q2244.46 748.777 2242.15 748.337 Q2239.86 747.92 2237.4 747.064 L2237.4 742.55 Q2239.35 743.684 2241.66 744.263 Q2243.98 744.842 2246.5 744.842 Q2250.9 744.842 2253.19 743.106 Q2255.5 741.369 2255.5 738.059 Q2255.5 735.004 2253.35 733.291 Q2251.22 731.555 2247.4 731.555 L2243.37 731.555 L2243.37 727.712 L2247.59 727.712 Q2251.04 727.712 2252.87 726.346 Q2254.69 724.958 2254.69 722.365 Q2254.69 719.703 2252.8 718.291 Q2250.92 716.856 2247.4 716.856 Q2245.48 716.856 2243.28 717.272 Q2241.08 717.689 2238.44 718.569 L2238.44 714.402 Q2241.11 713.661 2243.42 713.291 Q2245.76 712.921 2247.82 712.921 Q2253.14 712.921 2256.25 715.351 Q2259.35 717.759 2259.35 721.879 Q2259.35 724.749 2257.7 726.74 Q2256.06 728.708 2253.03 729.471 Z" fill="#000000" fill-rule="nonzero" fill-opacity="1" /><polyline clip-path="url(#clip880)" style="stroke:#e26f46; stroke-linecap:round; stroke-linejoin:round; stroke-width:6; stroke-opacity:1; fill:none" points="1789.22,782.666 1928.12,782.666 "/>
<path clip-path="url(#clip880)" d="M1973.52 766.52 L1973.52 771.08 Q1970.85 769.807 1968.49 769.182 Q1966.13 768.557 1963.93 768.557 Q1960.11 768.557 1958.03 770.038 Q1955.97 771.52 1955.97 774.251 Q1955.97 776.543 1957.33 777.723 Q1958.72 778.881 1962.57 779.598 L1965.39 780.177 Q1970.62 781.173 1973.1 783.696 Q1975.6 786.196 1975.6 790.409 Q1975.6 795.432 1972.22 798.024 Q1968.86 800.617 1962.36 800.617 Q1959.9 800.617 1957.13 800.061 Q1954.37 799.506 1951.41 798.418 L1951.41 793.603 Q1954.26 795.2 1956.99 796.01 Q1959.72 796.821 1962.36 796.821 Q1966.36 796.821 1968.54 795.247 Q1970.71 793.672 1970.71 790.756 Q1970.71 788.21 1969.14 786.774 Q1967.59 785.339 1964.02 784.622 L1961.18 784.066 Q1955.95 783.024 1953.61 780.802 Q1951.27 778.58 1951.27 774.622 Q1951.27 770.038 1954.49 767.399 Q1957.73 764.761 1963.4 764.761 Q1965.83 764.761 1968.35 765.2 Q1970.88 765.64 1973.52 766.52 Z" fill="#000000" fill-rule="nonzero" fill-opacity="1" /><path clip-path="url(#clip880)" d="M1982.89 765.386 L1987.57 765.386 L1987.57 796.01 L2004.39 796.01 L2004.39 799.946 L1982.89 799.946 L1982.89 765.386 Z" fill="#000000" fill-rule="nonzero" fill-opacity="1" /><path clip-path="url(#clip880)" d="M2025.69 783.742 Q2027.2 784.251 2028.61 785.918 Q2030.04 787.585 2031.48 790.501 L2036.22 799.946 L2031.2 799.946 L2026.78 791.08 Q2025.07 787.608 2023.45 786.473 Q2021.85 785.339 2019.07 785.339 L2013.98 785.339 L2013.98 799.946 L2009.3 799.946 L2009.3 765.386 L2019.86 765.386 Q2025.78 765.386 2028.7 767.862 Q2031.62 770.339 2031.62 775.339 Q2031.62 778.603 2030.09 780.756 Q2028.58 782.909 2025.69 783.742 M2013.98 769.228 L2013.98 781.497 L2019.86 781.497 Q2023.24 781.497 2024.95 779.946 Q2026.69 778.372 2026.69 775.339 Q2026.69 772.307 2024.95 770.779 Q2023.24 769.228 2019.86 769.228 L2013.98 769.228 Z" fill="#000000" fill-rule="nonzero" fill-opacity="1" /><path clip-path="url(#clip880)" d="M2073.65 774.784 L2073.65 778.811 Q2071.85 777.886 2069.9 777.423 Q2067.96 776.96 2065.88 776.96 Q2062.7 776.96 2061.11 777.932 Q2059.53 778.904 2059.53 780.848 Q2059.53 782.33 2060.67 783.186 Q2061.8 784.02 2065.23 784.784 L2066.69 785.108 Q2071.22 786.08 2073.12 787.862 Q2075.04 789.622 2075.04 792.793 Q2075.04 796.404 2072.17 798.51 Q2069.32 800.617 2064.32 800.617 Q2062.24 800.617 2059.97 800.2 Q2057.73 799.807 2055.23 798.997 L2055.23 794.598 Q2057.59 795.825 2059.88 796.45 Q2062.17 797.052 2064.42 797.052 Q2067.43 797.052 2069.05 796.034 Q2070.67 794.992 2070.67 793.117 Q2070.67 791.381 2069.49 790.455 Q2068.33 789.529 2064.37 788.672 L2062.89 788.325 Q2058.93 787.492 2057.17 785.779 Q2055.41 784.043 2055.41 781.034 Q2055.41 777.376 2058.01 775.386 Q2060.6 773.395 2065.37 773.395 Q2067.73 773.395 2069.81 773.742 Q2071.89 774.089 2073.65 774.784 Z" fill="#000000" fill-rule="nonzero" fill-opacity="1" /><path clip-path="url(#clip880)" d="M2086.04 766.659 L2086.04 774.02 L2094.81 774.02 L2094.81 777.33 L2086.04 777.33 L2086.04 791.404 Q2086.04 794.575 2086.89 795.478 Q2087.77 796.381 2090.44 796.381 L2094.81 796.381 L2094.81 799.946 L2090.44 799.946 Q2085.51 799.946 2083.63 798.117 Q2081.76 796.265 2081.76 791.404 L2081.76 777.33 L2078.63 777.33 L2078.63 774.02 L2081.76 774.02 L2081.76 766.659 L2086.04 766.659 Z" fill="#000000" fill-rule="nonzero" fill-opacity="1" /><path clip-path="url(#clip880)" d="M2119.6 796.057 L2119.6 809.807 L2115.32 809.807 L2115.32 774.02 L2119.6 774.02 L2119.6 777.955 Q2120.94 775.64 2122.98 774.529 Q2125.04 773.395 2127.89 773.395 Q2132.61 773.395 2135.55 777.145 Q2138.51 780.895 2138.51 787.006 Q2138.51 793.117 2135.55 796.867 Q2132.61 800.617 2127.89 800.617 Q2125.04 800.617 2122.98 799.506 Q2120.94 798.372 2119.6 796.057 M2134.09 787.006 Q2134.09 782.307 2132.15 779.645 Q2130.23 776.96 2126.85 776.96 Q2123.47 776.96 2121.52 779.645 Q2119.6 782.307 2119.6 787.006 Q2119.6 791.705 2121.52 794.39 Q2123.47 797.052 2126.85 797.052 Q2130.23 797.052 2132.15 794.39 Q2134.09 791.705 2134.09 787.006 Z" fill="#000000" fill-rule="nonzero" fill-opacity="1" /><path clip-path="url(#clip880)" d="M2165.76 778.997 Q2167.36 776.126 2169.58 774.761 Q2171.8 773.395 2174.81 773.395 Q2178.86 773.395 2181.06 776.242 Q2183.26 779.066 2183.26 784.298 L2183.26 799.946 L2178.98 799.946 L2178.98 784.436 Q2178.98 780.71 2177.66 778.904 Q2176.34 777.098 2173.63 777.098 Q2170.32 777.098 2168.4 779.298 Q2166.48 781.497 2166.48 785.293 L2166.48 799.946 L2162.19 799.946 L2162.19 784.436 Q2162.19 780.686 2160.88 778.904 Q2159.56 777.098 2156.8 777.098 Q2153.54 777.098 2151.62 779.321 Q2149.69 781.52 2149.69 785.293 L2149.69 799.946 L2145.41 799.946 L2145.41 774.02 L2149.69 774.02 L2149.69 778.048 Q2151.15 775.663 2153.19 774.529 Q2155.23 773.395 2158.03 773.395 Q2160.85 773.395 2162.82 774.83 Q2164.81 776.265 2165.76 778.997 Z" fill="#000000" fill-rule="nonzero" fill-opacity="1" /><polyline clip-path="url(#clip880)" style="stroke:#3da44d; stroke-linecap:round; stroke-linejoin:round; stroke-width:6; stroke-opacity:1; fill:none" points="1789.22,834.506 1928.12,834.506 "/>
<path clip-path="url(#clip880)" d="M1973.52 818.36 L1973.52 822.92 Q1970.85 821.647 1968.49 821.022 Q1966.13 820.397 1963.93 820.397 Q1960.11 820.397 1958.03 821.878 Q1955.97 823.36 1955.97 826.091 Q1955.97 828.383 1957.33 829.563 Q1958.72 830.721 1962.57 831.438 L1965.39 832.017 Q1970.62 833.013 1973.1 835.536 Q1975.6 838.036 1975.6 842.249 Q1975.6 847.272 1972.22 849.864 Q1968.86 852.457 1962.36 852.457 Q1959.9 852.457 1957.13 851.901 Q1954.37 851.346 1951.41 850.258 L1951.41 845.443 Q1954.26 847.04 1956.99 847.85 Q1959.72 848.661 1962.36 848.661 Q1966.36 848.661 1968.54 847.087 Q1970.71 845.512 1970.71 842.596 Q1970.71 840.05 1969.14 838.614 Q1967.59 837.179 1964.02 836.462 L1961.18 835.906 Q1955.95 834.864 1953.61 832.642 Q1951.27 830.42 1951.27 826.462 Q1951.27 821.878 1954.49 819.239 Q1957.73 816.601 1963.4 816.601 Q1965.83 816.601 1968.35 817.04 Q1970.88 817.48 1973.52 818.36 Z" fill="#000000" fill-rule="nonzero" fill-opacity="1" /><path clip-path="url(#clip880)" d="M1982.89 817.226 L1987.57 817.226 L1987.57 847.85 L2004.39 847.85 L2004.39 851.786 L1982.89 851.786 L1982.89 817.226 Z" fill="#000000" fill-rule="nonzero" fill-opacity="1" /><path clip-path="url(#clip880)" d="M2025.69 835.582 Q2027.2 836.091 2028.61 837.758 Q2030.04 839.425 2031.48 842.341 L2036.22 851.786 L2031.2 851.786 L2026.78 842.92 Q2025.07 839.448 2023.45 838.313 Q2021.85 837.179 2019.07 837.179 L2013.98 837.179 L2013.98 851.786 L2009.3 851.786 L2009.3 817.226 L2019.86 817.226 Q2025.78 817.226 2028.7 819.702 Q2031.62 822.179 2031.62 827.179 Q2031.62 830.443 2030.09 832.596 Q2028.58 834.749 2025.69 835.582 M2013.98 821.068 L2013.98 833.337 L2019.86 833.337 Q2023.24 833.337 2024.95 831.786 Q2026.69 830.212 2026.69 827.179 Q2026.69 824.147 2024.95 822.619 Q2023.24 821.068 2019.86 821.068 L2013.98 821.068 Z" fill="#000000" fill-rule="nonzero" fill-opacity="1" /><path clip-path="url(#clip880)" d="M2073.65 826.624 L2073.65 830.651 Q2071.85 829.726 2069.9 829.263 Q2067.96 828.8 2065.88 828.8 Q2062.7 828.8 2061.11 829.772 Q2059.53 830.744 2059.53 832.688 Q2059.53 834.17 2060.67 835.026 Q2061.8 835.86 2065.23 836.624 L2066.69 836.948 Q2071.22 837.92 2073.12 839.702 Q2075.04 841.462 2075.04 844.633 Q2075.04 848.244 2072.17 850.35 Q2069.32 852.457 2064.32 852.457 Q2062.24 852.457 2059.97 852.04 Q2057.73 851.647 2055.23 850.837 L2055.23 846.438 Q2057.59 847.665 2059.88 848.29 Q2062.17 848.892 2064.42 848.892 Q2067.43 848.892 2069.05 847.874 Q2070.67 846.832 2070.67 844.957 Q2070.67 843.221 2069.49 842.295 Q2068.33 841.369 2064.37 840.512 L2062.89 840.165 Q2058.93 839.332 2057.17 837.619 Q2055.41 835.883 2055.41 832.874 Q2055.41 829.216 2058.01 827.226 Q2060.6 825.235 2065.37 825.235 Q2067.73 825.235 2069.81 825.582 Q2071.89 825.929 2073.65 826.624 Z" fill="#000000" fill-rule="nonzero" fill-opacity="1" /><path clip-path="url(#clip880)" d="M2086.04 818.499 L2086.04 825.86 L2094.81 825.86 L2094.81 829.17 L2086.04 829.17 L2086.04 843.244 Q2086.04 846.415 2086.89 847.318 Q2087.77 848.221 2090.44 848.221 L2094.81 848.221 L2094.81 851.786 L2090.44 851.786 Q2085.51 851.786 2083.63 849.957 Q2081.76 848.105 2081.76 843.244 L2081.76 829.17 L2078.63 829.17 L2078.63 825.86 L2081.76 825.86 L2081.76 818.499 L2086.04 818.499 Z" fill="#000000" fill-rule="nonzero" fill-opacity="1" /><path clip-path="url(#clip880)" d="M2115.48 815.767 L2119.74 815.767 L2119.74 851.786 L2115.48 851.786 L2115.48 815.767 Z" fill="#000000" fill-rule="nonzero" fill-opacity="1" /><path clip-path="url(#clip880)" d="M2145.18 826.624 L2145.18 830.651 Q2143.38 829.726 2141.43 829.263 Q2139.49 828.8 2137.4 828.8 Q2134.23 828.8 2132.63 829.772 Q2131.06 830.744 2131.06 832.688 Q2131.06 834.17 2132.19 835.026 Q2133.33 835.86 2136.75 836.624 L2138.21 836.948 Q2142.75 837.92 2144.65 839.702 Q2146.57 841.462 2146.57 844.633 Q2146.57 848.244 2143.7 850.35 Q2140.85 852.457 2135.85 852.457 Q2133.77 852.457 2131.5 852.04 Q2129.26 851.647 2126.76 850.837 L2126.76 846.438 Q2129.12 847.665 2131.41 848.29 Q2133.7 848.892 2135.94 848.892 Q2138.95 848.892 2140.57 847.874 Q2142.19 846.832 2142.19 844.957 Q2142.19 843.221 2141.01 842.295 Q2139.86 841.369 2135.9 840.512 L2134.42 840.165 Q2130.46 839.332 2128.7 837.619 Q2126.94 835.883 2126.94 832.874 Q2126.94 829.216 2129.53 827.226 Q2132.13 825.235 2136.89 825.235 Q2139.25 825.235 2141.34 825.582 Q2143.42 825.929 2145.18 826.624 Z" fill="#000000" fill-rule="nonzero" fill-opacity="1" /></svg>
