<?xml version="1.0" encoding="utf-8"?>
<svg xmlns="http://www.w3.org/2000/svg" xmlns:xlink="http://www.w3.org/1999/xlink" width="600" height="400" viewBox="0 0 2400 1600">
<defs>
  <clipPath id="clip940">
    <rect x="0" y="0" width="2400" height="1600"/>
  </clipPath>
</defs>
<path clip-path="url(#clip940)" d="M0 1600 L2400 1600 L2400 0 L0 0  Z" fill="#ffffff" fill-rule="evenodd" fill-opacity="1"/>
<defs>
  <clipPath id="clip941">
    <rect x="269" y="106" width="2084" height="1318"/>
  </clipPath>
</defs>
<path clip-path="url(#clip940)" d="M269.283 1423.18 L2352.76 1423.18 L2352.76 106.192 L269.283 106.192  Z" fill="#ffffff" fill-rule="evenodd" fill-opacity="1"/>
<polyline clip-path="url(#clip941)" style="stroke:#000000; stroke-linecap:round; stroke-linejoin:round; stroke-width:2; stroke-opacity:0.1; fill:none" points="269.283,1423.18 269.283,106.192 "/>
<polyline clip-path="url(#clip941)" style="stroke:#000000; stroke-linecap:round; stroke-linejoin:round; stroke-width:2; stroke-opacity:0.1; fill:none" points="1050.59,1423.18 1050.59,106.192 "/>
<polyline clip-path="url(#clip941)" style="stroke:#000000; stroke-linecap:round; stroke-linejoin:round; stroke-width:2; stroke-opacity:0.1; fill:none" points="1311.02,1423.18 1311.02,106.192 "/>
<polyline clip-path="url(#clip941)" style="stroke:#000000; stroke-linecap:round; stroke-linejoin:round; stroke-width:2; stroke-opacity:0.1; fill:none" points="1571.45,1423.18 1571.45,106.192 "/>
<polyline clip-path="url(#clip941)" style="stroke:#000000; stroke-linecap:round; stroke-linejoin:round; stroke-width:2; stroke-opacity:0.1; fill:none" points="2352.76,1423.18 2352.76,106.192 "/>
<polyline clip-path="url(#clip941)" style="stroke:#000000; stroke-linecap:round; stroke-linejoin:round; stroke-width:2; stroke-opacity:0.1; fill:none" points="269.283,1203.68 2352.76,1203.68 "/>
<polyline clip-path="url(#clip941)" style="stroke:#000000; stroke-linecap:round; stroke-linejoin:round; stroke-width:2; stroke-opacity:0.1; fill:none" points="269.283,253.228 2352.76,253.228 "/>
<polyline clip-path="url(#clip941)" style="stroke:#000000; stroke-linecap:round; stroke-linejoin:round; stroke-width:2; stroke-opacity:0.1; fill:none" points="269.283,106.192 2352.76,106.192 "/>
<polyline clip-path="url(#clip940)" style="stroke:#000000; stroke-linecap:round; stroke-linejoin:round; stroke-width:4; stroke-opacity:1; fill:none" points="269.283,1423.18 2352.76,1423.18 "/>
<polyline clip-path="url(#clip940)" style="stroke:#000000; stroke-linecap:round; stroke-linejoin:round; stroke-width:4; stroke-opacity:1; fill:none" points="269.283,1423.18 269.283,1404.28 "/>
<polyline clip-path="url(#clip940)" style="stroke:#000000; stroke-linecap:round; stroke-linejoin:round; stroke-width:4; stroke-opacity:1; fill:none" points="1050.59,1423.18 1050.59,1404.28 "/>
<polyline clip-path="url(#clip940)" style="stroke:#000000; stroke-linecap:round; stroke-linejoin:round; stroke-width:4; stroke-opacity:1; fill:none" points="1311.02,1423.18 1311.02,1404.28 "/>
<polyline clip-path="url(#clip940)" style="stroke:#000000; stroke-linecap:round; stroke-linejoin:round; stroke-width:4; stroke-opacity:1; fill:none" points="1571.45,1423.18 1571.45,1404.28 "/>
<polyline clip-path="url(#clip940)" style="stroke:#000000; stroke-linecap:round; stroke-linejoin:round; stroke-width:4; stroke-opacity:1; fill:none" points="2352.76,1423.18 2352.76,1404.28 "/>
<path clip-path="url(#clip940)" d="M200.73 1468.75 L230.406 1468.75 L230.406 1472.69 L200.73 1472.69 L200.73 1468.75 Z" fill="#000000" fill-rule="nonzero" fill-opacity="1" /><path clip-path="url(#clip940)" d="M241.308 1481.64 L248.947 1481.64 L248.947 1455.28 L240.637 1456.95 L240.637 1452.69 L248.901 1451.02 L253.577 1451.02 L253.577 1481.64 L261.216 1481.64 L261.216 1485.58 L241.308 1485.58 L241.308 1481.64 Z" fill="#000000" fill-rule="nonzero" fill-opacity="1" /><path clip-path="url(#clip940)" d="M270.66 1479.7 L275.544 1479.7 L275.544 1485.58 L270.66 1485.58 L270.66 1479.7 Z" fill="#000000" fill-rule="nonzero" fill-opacity="1" /><path clip-path="url(#clip940)" d="M295.729 1454.1 Q292.118 1454.1 290.29 1457.66 Q288.484 1461.2 288.484 1468.33 Q288.484 1475.44 290.29 1479.01 Q292.118 1482.55 295.729 1482.55 Q299.364 1482.55 301.169 1479.01 Q302.998 1475.44 302.998 1468.33 Q302.998 1461.2 301.169 1457.66 Q299.364 1454.1 295.729 1454.1 M295.729 1450.39 Q301.54 1450.39 304.595 1455 Q307.674 1459.58 307.674 1468.33 Q307.674 1477.06 304.595 1481.67 Q301.54 1486.25 295.729 1486.25 Q289.919 1486.25 286.841 1481.67 Q283.785 1477.06 283.785 1468.33 Q283.785 1459.58 286.841 1455 Q289.919 1450.39 295.729 1450.39 Z" fill="#000000" fill-rule="nonzero" fill-opacity="1" /><path clip-path="url(#clip940)" d="M325.891 1454.1 Q322.28 1454.1 320.452 1457.66 Q318.646 1461.2 318.646 1468.33 Q318.646 1475.44 320.452 1479.01 Q322.28 1482.55 325.891 1482.55 Q329.526 1482.55 331.331 1479.01 Q333.16 1475.44 333.16 1468.33 Q333.16 1461.2 331.331 1457.66 Q329.526 1454.1 325.891 1454.1 M325.891 1450.39 Q331.701 1450.39 334.757 1455 Q337.836 1459.58 337.836 1468.33 Q337.836 1477.06 334.757 1481.67 Q331.701 1486.25 325.891 1486.25 Q320.081 1486.25 317.002 1481.67 Q313.947 1477.06 313.947 1468.33 Q313.947 1459.58 317.002 1455 Q320.081 1450.39 325.891 1450.39 Z" fill="#000000" fill-rule="nonzero" fill-opacity="1" /><path clip-path="url(#clip940)" d="M982.53 1468.75 L1012.21 1468.75 L1012.21 1472.69 L982.53 1472.69 L982.53 1468.75 Z" fill="#000000" fill-rule="nonzero" fill-opacity="1" /><path clip-path="url(#clip940)" d="M1032.3 1454.1 Q1028.69 1454.1 1026.86 1457.66 Q1025.05 1461.2 1025.05 1468.33 Q1025.05 1475.44 1026.86 1479.01 Q1028.69 1482.55 1032.3 1482.55 Q1035.93 1482.55 1037.74 1479.01 Q1039.57 1475.44 1039.57 1468.33 Q1039.57 1461.2 1037.74 1457.66 Q1035.93 1454.1 1032.3 1454.1 M1032.3 1450.39 Q1038.11 1450.39 1041.16 1455 Q1044.24 1459.58 1044.24 1468.33 Q1044.24 1477.06 1041.16 1481.67 Q1038.11 1486.25 1032.3 1486.25 Q1026.49 1486.25 1023.41 1481.67 Q1020.35 1477.06 1020.35 1468.33 Q1020.35 1459.58 1023.41 1455 Q1026.49 1450.39 1032.3 1450.39 Z" fill="#000000" fill-rule="nonzero" fill-opacity="1" /><path clip-path="url(#clip940)" d="M1052.46 1479.7 L1057.34 1479.7 L1057.34 1485.58 L1052.46 1485.58 L1052.46 1479.7 Z" fill="#000000" fill-rule="nonzero" fill-opacity="1" /><path clip-path="url(#clip940)" d="M1071.56 1481.64 L1087.88 1481.64 L1087.88 1485.58 L1065.93 1485.58 L1065.93 1481.64 Q1068.59 1478.89 1073.18 1474.26 Q1077.78 1469.61 1078.96 1468.27 Q1081.21 1465.74 1082.09 1464.01 Q1082.99 1462.25 1082.99 1460.56 Q1082.99 1457.8 1081.05 1456.07 Q1079.13 1454.33 1076.02 1454.33 Q1073.83 1454.33 1071.37 1455.09 Q1068.94 1455.86 1066.16 1457.41 L1066.16 1452.69 Q1068.99 1451.55 1071.44 1450.97 Q1073.9 1450.39 1075.93 1450.39 Q1081.3 1450.39 1084.5 1453.08 Q1087.69 1455.77 1087.69 1460.26 Q1087.69 1462.39 1086.88 1464.31 Q1086.09 1466.2 1083.99 1468.8 Q1083.41 1469.47 1080.31 1472.69 Q1077.21 1475.88 1071.56 1481.64 Z" fill="#000000" fill-rule="nonzero" fill-opacity="1" /><path clip-path="url(#clip940)" d="M1097.74 1451.02 L1116.09 1451.02 L1116.09 1454.96 L1102.02 1454.96 L1102.02 1463.43 Q1103.04 1463.08 1104.06 1462.92 Q1105.08 1462.73 1106.09 1462.73 Q1111.88 1462.73 1115.26 1465.9 Q1118.64 1469.08 1118.64 1474.49 Q1118.64 1480.07 1115.17 1483.17 Q1111.7 1486.25 1105.38 1486.25 Q1103.2 1486.25 1100.93 1485.88 Q1098.69 1485.51 1096.28 1484.77 L1096.28 1480.07 Q1098.36 1481.2 1100.58 1481.76 Q1102.81 1482.32 1105.28 1482.32 Q1109.29 1482.32 1111.63 1480.21 Q1113.96 1478.1 1113.96 1474.49 Q1113.96 1470.88 1111.63 1468.77 Q1109.29 1466.67 1105.28 1466.67 Q1103.41 1466.67 1101.53 1467.08 Q1099.68 1467.5 1097.74 1468.38 L1097.74 1451.02 Z" fill="#000000" fill-rule="nonzero" fill-opacity="1" /><path clip-path="url(#clip940)" d="M1273.32 1454.1 Q1269.71 1454.1 1267.88 1457.66 Q1266.08 1461.2 1266.08 1468.33 Q1266.08 1475.44 1267.88 1479.01 Q1269.71 1482.55 1273.32 1482.55 Q1276.96 1482.55 1278.76 1479.01 Q1280.59 1475.44 1280.59 1468.33 Q1280.59 1461.2 1278.76 1457.66 Q1276.96 1454.1 1273.32 1454.1 M1273.32 1450.39 Q1279.13 1450.39 1282.19 1455 Q1285.27 1459.58 1285.27 1468.33 Q1285.27 1477.06 1282.19 1481.67 Q1279.13 1486.25 1273.32 1486.25 Q1267.51 1486.25 1264.43 1481.67 Q1261.38 1477.06 1261.38 1468.33 Q1261.38 1459.58 1264.43 1455 Q1267.51 1450.39 1273.32 1450.39 Z" fill="#000000" fill-rule="nonzero" fill-opacity="1" /><path clip-path="url(#clip940)" d="M1293.48 1479.7 L1298.37 1479.7 L1298.37 1485.58 L1293.48 1485.58 L1293.48 1479.7 Z" fill="#000000" fill-rule="nonzero" fill-opacity="1" /><path clip-path="url(#clip940)" d="M1318.55 1454.1 Q1314.94 1454.1 1313.11 1457.66 Q1311.31 1461.2 1311.31 1468.33 Q1311.31 1475.44 1313.11 1479.01 Q1314.94 1482.55 1318.55 1482.55 Q1322.19 1482.55 1323.99 1479.01 Q1325.82 1475.44 1325.82 1468.33 Q1325.82 1461.2 1323.99 1457.66 Q1322.19 1454.1 1318.55 1454.1 M1318.55 1450.39 Q1324.36 1450.39 1327.42 1455 Q1330.5 1459.58 1330.5 1468.33 Q1330.5 1477.06 1327.42 1481.67 Q1324.36 1486.25 1318.55 1486.25 Q1312.74 1486.25 1309.67 1481.67 Q1306.61 1477.06 1306.61 1468.33 Q1306.61 1459.58 1309.67 1455 Q1312.74 1450.39 1318.55 1450.39 Z" fill="#000000" fill-rule="nonzero" fill-opacity="1" /><path clip-path="url(#clip940)" d="M1348.72 1454.1 Q1345.1 1454.1 1343.28 1457.66 Q1341.47 1461.2 1341.47 1468.33 Q1341.47 1475.44 1343.28 1479.01 Q1345.1 1482.55 1348.72 1482.55 Q1352.35 1482.55 1354.16 1479.01 Q1355.98 1475.44 1355.98 1468.33 Q1355.98 1461.2 1354.16 1457.66 Q1352.35 1454.1 1348.72 1454.1 M1348.72 1450.39 Q1354.53 1450.39 1357.58 1455 Q1360.66 1459.58 1360.66 1468.33 Q1360.66 1477.06 1357.58 1481.67 Q1354.53 1486.25 1348.72 1486.25 Q1342.91 1486.25 1339.83 1481.67 Q1336.77 1477.06 1336.77 1468.33 Q1336.77 1459.58 1339.83 1455 Q1342.91 1450.39 1348.72 1450.39 Z" fill="#000000" fill-rule="nonzero" fill-opacity="1" /><path clip-path="url(#clip940)" d="M1534.25 1454.1 Q1530.64 1454.1 1528.81 1457.66 Q1527.01 1461.2 1527.01 1468.33 Q1527.01 1475.44 1528.81 1479.01 Q1530.64 1482.55 1534.25 1482.55 Q1537.89 1482.55 1539.69 1479.01 Q1541.52 1475.44 1541.52 1468.33 Q1541.52 1461.2 1539.69 1457.66 Q1537.89 1454.1 1534.25 1454.1 M1534.25 1450.39 Q1540.06 1450.39 1543.12 1455 Q1546.2 1459.58 1546.2 1468.33 Q1546.2 1477.06 1543.12 1481.67 Q1540.06 1486.25 1534.25 1486.25 Q1528.44 1486.25 1525.37 1481.67 Q1522.31 1477.06 1522.31 1468.33 Q1522.31 1459.58 1525.37 1455 Q1528.44 1450.39 1534.25 1450.39 Z" fill="#000000" fill-rule="nonzero" fill-opacity="1" /><path clip-path="url(#clip940)" d="M1554.42 1479.7 L1559.3 1479.7 L1559.3 1485.58 L1554.42 1485.58 L1554.42 1479.7 Z" fill="#000000" fill-rule="nonzero" fill-opacity="1" /><path clip-path="url(#clip940)" d="M1573.51 1481.64 L1589.83 1481.64 L1589.83 1485.58 L1567.89 1485.58 L1567.89 1481.64 Q1570.55 1478.89 1575.13 1474.26 Q1579.74 1469.61 1580.92 1468.27 Q1583.17 1465.74 1584.05 1464.01 Q1584.95 1462.25 1584.95 1460.56 Q1584.95 1457.8 1583 1456.07 Q1581.08 1454.33 1577.98 1454.33 Q1575.78 1454.33 1573.33 1455.09 Q1570.9 1455.86 1568.12 1457.41 L1568.12 1452.69 Q1570.94 1451.55 1573.4 1450.97 Q1575.85 1450.39 1577.89 1450.39 Q1583.26 1450.39 1586.45 1453.08 Q1589.65 1455.77 1589.65 1460.26 Q1589.65 1462.39 1588.84 1464.31 Q1588.05 1466.2 1585.94 1468.8 Q1585.37 1469.47 1582.26 1472.69 Q1579.16 1475.88 1573.51 1481.64 Z" fill="#000000" fill-rule="nonzero" fill-opacity="1" /><path clip-path="url(#clip940)" d="M1599.69 1451.02 L1618.05 1451.02 L1618.05 1454.96 L1603.98 1454.96 L1603.98 1463.43 Q1604.99 1463.08 1606.01 1462.92 Q1607.03 1462.73 1608.05 1462.73 Q1613.84 1462.73 1617.22 1465.9 Q1620.6 1469.08 1620.6 1474.49 Q1620.6 1480.07 1617.12 1483.17 Q1613.65 1486.25 1607.33 1486.25 Q1605.16 1486.25 1602.89 1485.88 Q1600.64 1485.51 1598.24 1484.77 L1598.24 1480.07 Q1600.32 1481.2 1602.54 1481.76 Q1604.76 1482.32 1607.24 1482.32 Q1611.24 1482.32 1613.58 1480.21 Q1615.92 1478.1 1615.92 1474.49 Q1615.92 1470.88 1613.58 1468.77 Q1611.24 1466.67 1607.24 1466.67 Q1605.37 1466.67 1603.49 1467.08 Q1601.64 1467.5 1599.69 1468.38 L1599.69 1451.02 Z" fill="#000000" fill-rule="nonzero" fill-opacity="1" /><path clip-path="url(#clip940)" d="M2304.83 1481.64 L2312.47 1481.64 L2312.47 1455.28 L2304.16 1456.95 L2304.16 1452.69 L2312.42 1451.02 L2317.1 1451.02 L2317.1 1481.64 L2324.74 1481.64 L2324.74 1485.58 L2304.83 1485.58 L2304.83 1481.64 Z" fill="#000000" fill-rule="nonzero" fill-opacity="1" /><path clip-path="url(#clip940)" d="M2334.18 1479.7 L2339.06 1479.7 L2339.06 1485.58 L2334.18 1485.58 L2334.18 1479.7 Z" fill="#000000" fill-rule="nonzero" fill-opacity="1" /><path clip-path="url(#clip940)" d="M2359.25 1454.1 Q2355.64 1454.1 2353.81 1457.66 Q2352 1461.2 2352 1468.33 Q2352 1475.44 2353.81 1479.01 Q2355.64 1482.55 2359.25 1482.55 Q2362.88 1482.55 2364.69 1479.01 Q2366.52 1475.44 2366.52 1468.33 Q2366.52 1461.2 2364.69 1457.66 Q2362.88 1454.1 2359.25 1454.1 M2359.25 1450.39 Q2365.06 1450.39 2368.11 1455 Q2371.19 1459.58 2371.19 1468.33 Q2371.19 1477.06 2368.11 1481.67 Q2365.06 1486.25 2359.25 1486.25 Q2353.44 1486.25 2350.36 1481.67 Q2347.3 1477.06 2347.3 1468.33 Q2347.3 1459.58 2350.36 1455 Q2353.44 1450.39 2359.25 1450.39 Z" fill="#000000" fill-rule="nonzero" fill-opacity="1" /><path clip-path="url(#clip940)" d="M2389.41 1454.1 Q2385.8 1454.1 2383.97 1457.66 Q2382.17 1461.2 2382.17 1468.33 Q2382.17 1475.44 2383.97 1479.01 Q2385.8 1482.55 2389.41 1482.55 Q2393.05 1482.55 2394.85 1479.01 Q2396.68 1475.44 2396.68 1468.33 Q2396.68 1461.2 2394.85 1457.66 Q2393.05 1454.1 2389.41 1454.1 M2389.41 1450.39 Q2395.22 1450.39 2398.28 1455 Q2401.36 1459.58 2401.36 1468.33 Q2401.36 1477.06 2398.28 1481.67 Q2395.22 1486.25 2389.41 1486.25 Q2383.6 1486.25 2380.52 1481.67 Q2377.47 1477.06 2377.47 1468.33 Q2377.47 1459.58 2380.52 1455 Q2383.6 1450.39 2389.41 1450.39 Z" fill="#000000" fill-rule="nonzero" fill-opacity="1" /><path clip-path="url(#clip940)" d="M1213.45 1532.4 L1241.27 1532.4 L1241.27 1537.74 L1219.24 1563.37 L1241.27 1563.37 L1241.27 1568.04 L1212.65 1568.04 L1212.65 1562.7 L1234.68 1537.07 L1213.45 1537.07 L1213.45 1532.4 Z" fill="#000000" fill-rule="nonzero" fill-opacity="1" /><path clip-path="url(#clip940)" d="M1270.39 1518.52 L1283.89 1518.52 L1283.89 1523.07 L1276.25 1523.07 L1276.25 1572.09 L1283.89 1572.09 L1283.89 1576.64 L1270.39 1576.64 L1270.39 1518.52 Z" fill="#000000" fill-rule="nonzero" fill-opacity="1" /><path clip-path="url(#clip940)" d="M1322.02 1533.76 L1322.02 1539.24 Q1319.53 1537.87 1317.02 1537.2 Q1314.54 1536.5 1311.99 1536.5 Q1306.29 1536.5 1303.14 1540.13 Q1299.99 1543.73 1299.99 1550.25 Q1299.99 1556.78 1303.14 1560.4 Q1306.29 1564 1311.99 1564 Q1314.54 1564 1317.02 1563.33 Q1319.53 1562.63 1322.02 1561.26 L1322.02 1566.68 Q1319.57 1567.82 1316.92 1568.39 Q1314.31 1568.97 1311.35 1568.97 Q1303.3 1568.97 1298.56 1563.91 Q1293.82 1558.85 1293.82 1550.25 Q1293.82 1541.53 1298.59 1536.53 Q1303.4 1531.54 1311.74 1531.54 Q1314.44 1531.54 1317.02 1532.11 Q1319.6 1532.65 1322.02 1533.76 Z" fill="#000000" fill-rule="nonzero" fill-opacity="1" /><path clip-path="url(#clip940)" d="M1359.96 1539.24 Q1362.15 1535.29 1365.21 1533.41 Q1368.26 1531.54 1372.4 1531.54 Q1377.97 1531.54 1380.99 1535.45 Q1384.02 1539.33 1384.02 1546.53 L1384.02 1568.04 L1378.13 1568.04 L1378.13 1546.72 Q1378.13 1541.59 1376.32 1539.11 Q1374.5 1536.63 1370.78 1536.63 Q1366.23 1536.63 1363.58 1539.65 Q1360.94 1542.68 1360.94 1547.9 L1360.94 1568.04 L1355.05 1568.04 L1355.05 1546.72 Q1355.05 1541.56 1353.24 1539.11 Q1351.43 1536.63 1347.64 1536.63 Q1343.15 1536.63 1340.51 1539.68 Q1337.87 1542.71 1337.87 1547.9 L1337.87 1568.04 L1331.98 1568.04 L1331.98 1532.4 L1337.87 1532.4 L1337.87 1537.93 Q1339.87 1534.66 1342.67 1533.1 Q1345.47 1531.54 1349.33 1531.54 Q1353.21 1531.54 1355.91 1533.51 Q1358.65 1535.48 1359.96 1539.24 Z" fill="#000000" fill-rule="nonzero" fill-opacity="1" /><path clip-path="url(#clip940)" d="M1409.39 1518.52 L1409.39 1576.64 L1395.89 1576.64 L1395.89 1572.09 L1403.5 1572.09 L1403.5 1523.07 L1395.89 1523.07 L1395.89 1518.52 L1409.39 1518.52 Z" fill="#000000" fill-rule="nonzero" fill-opacity="1" /><polyline clip-path="url(#clip940)" style="stroke:#000000; stroke-linecap:round; stroke-linejoin:round; stroke-width:4; stroke-opacity:1; fill:none" points="269.283,1423.18 269.283,106.192 "/>
<polyline clip-path="url(#clip940)" style="stroke:#000000; stroke-linecap:round; stroke-linejoin:round; stroke-width:4; stroke-opacity:1; fill:none" points="269.283,1203.68 288.18,1203.68 "/>
<polyline clip-path="url(#clip940)" style="stroke:#000000; stroke-linecap:round; stroke-linejoin:round; stroke-width:4; stroke-opacity:1; fill:none" points="269.283,253.228 288.18,253.228 "/>
<polyline clip-path="url(#clip940)" style="stroke:#000000; stroke-linecap:round; stroke-linejoin:round; stroke-width:4; stroke-opacity:1; fill:none" points="269.283,106.192 288.18,106.192 "/>
<path clip-path="url(#clip940)" d="M221.338 1189.48 Q217.727 1189.48 215.899 1193.05 Q214.093 1196.59 214.093 1203.72 Q214.093 1210.82 215.899 1214.39 Q217.727 1217.93 221.338 1217.93 Q224.973 1217.93 226.778 1214.39 Q228.607 1210.82 228.607 1203.72 Q228.607 1196.59 226.778 1193.05 Q224.973 1189.48 221.338 1189.48 M221.338 1185.78 Q227.149 1185.78 230.204 1190.38 Q233.283 1194.97 233.283 1203.72 Q233.283 1212.44 230.204 1217.05 Q227.149 1221.63 221.338 1221.63 Q215.528 1221.63 212.45 1217.05 Q209.394 1212.44 209.394 1203.72 Q209.394 1194.97 212.45 1190.38 Q215.528 1185.78 221.338 1185.78 Z" fill="#000000" fill-rule="nonzero" fill-opacity="1" /><path clip-path="url(#clip940)" d="M69.418 245.346 L69.418 249.374 Q67.6124 248.448 65.668 247.985 Q63.7235 247.522 61.6402 247.522 Q58.4689 247.522 56.8717 248.494 Q55.2977 249.466 55.2977 251.411 Q55.2977 252.892 56.4319 253.749 Q57.5662 254.582 60.9921 255.346 L62.4504 255.67 Q66.9874 256.642 68.8855 258.425 Q70.8068 260.184 70.8068 263.355 Q70.8068 266.966 67.9365 269.073 Q65.0893 271.179 60.0893 271.179 Q58.006 271.179 55.7375 270.763 Q53.4921 270.369 50.9921 269.559 L50.9921 265.161 Q53.3532 266.388 55.6449 267.013 Q57.9365 267.614 60.1819 267.614 Q63.1911 267.614 64.8115 266.596 Q66.4319 265.554 66.4319 263.679 Q66.4319 261.943 65.2513 261.017 Q64.0939 260.091 60.1356 259.235 L58.6541 258.888 Q54.6958 258.054 52.9366 256.341 Q51.1773 254.605 51.1773 251.596 Q51.1773 247.939 53.7699 245.948 Q56.3625 243.957 61.131 243.957 Q63.4921 243.957 65.5754 244.304 Q67.6587 244.652 69.418 245.346 Z" fill="#000000" fill-rule="nonzero" fill-opacity="1" /><path clip-path="url(#clip940)" d="M77.5892 244.582 L81.8484 244.582 L81.8484 270.508 L77.5892 270.508 L77.5892 244.582 M77.5892 234.49 L81.8484 234.49 L81.8484 239.883 L77.5892 239.883 L77.5892 234.49 Z" fill="#000000" fill-rule="nonzero" fill-opacity="1" /><path clip-path="url(#clip940)" d="M112.311 254.86 L112.311 270.508 L108.052 270.508 L108.052 254.999 Q108.052 251.318 106.617 249.489 Q105.182 247.661 102.311 247.661 Q98.8622 247.661 96.8715 249.86 Q94.8808 252.059 94.8808 255.855 L94.8808 270.508 L90.5984 270.508 L90.5984 244.582 L94.8808 244.582 L94.8808 248.61 Q96.4085 246.272 98.4687 245.114 Q100.552 243.957 103.26 243.957 Q107.728 243.957 110.02 246.735 Q112.311 249.489 112.311 254.86 Z" fill="#000000" fill-rule="nonzero" fill-opacity="1" /><path clip-path="url(#clip940)" d="M131.038 234.536 Q127.936 239.86 126.432 245.068 Q124.927 250.277 124.927 255.624 Q124.927 260.971 126.432 266.225 Q127.959 271.457 131.038 276.758 L127.334 276.758 Q123.862 271.318 122.126 266.063 Q120.413 260.809 120.413 255.624 Q120.413 250.462 122.126 245.23 Q123.839 239.999 127.334 234.536 L131.038 234.536 Z" fill="#000000" fill-rule="nonzero" fill-opacity="1" /><path clip-path="url(#clip940)" d="M150.482 251.364 Q147.334 251.364 145.482 253.517 Q143.654 255.67 143.654 259.42 Q143.654 263.147 145.482 265.323 Q147.334 267.475 150.482 267.475 Q153.63 267.475 155.459 265.323 Q157.311 263.147 157.311 259.42 Q157.311 255.67 155.459 253.517 Q153.63 251.364 150.482 251.364 M159.765 236.712 L159.765 240.971 Q158.005 240.138 156.2 239.698 Q154.417 239.258 152.658 239.258 Q148.029 239.258 145.575 242.383 Q143.144 245.508 142.797 251.827 Q144.163 249.814 146.223 248.749 Q148.283 247.661 150.76 247.661 Q155.968 247.661 158.978 250.832 Q162.01 253.98 162.01 259.42 Q162.01 264.744 158.862 267.962 Q155.714 271.179 150.482 271.179 Q144.487 271.179 141.316 266.596 Q138.144 261.989 138.144 253.263 Q138.144 245.068 142.033 240.207 Q145.922 235.323 152.473 235.323 Q154.232 235.323 156.015 235.67 Q157.82 236.017 159.765 236.712 Z" fill="#000000" fill-rule="nonzero" fill-opacity="1" /><path clip-path="url(#clip940)" d="M180.066 239.027 Q176.454 239.027 174.626 242.591 Q172.82 246.133 172.82 253.263 Q172.82 260.369 174.626 263.934 Q176.454 267.475 180.066 267.475 Q183.7 267.475 185.505 263.934 Q187.334 260.369 187.334 253.263 Q187.334 246.133 185.505 242.591 Q183.7 239.027 180.066 239.027 M180.066 235.323 Q185.876 235.323 188.931 239.929 Q192.01 244.513 192.01 253.263 Q192.01 261.989 188.931 266.596 Q185.876 271.179 180.066 271.179 Q174.255 271.179 171.177 266.596 Q168.121 261.989 168.121 253.263 Q168.121 244.513 171.177 239.929 Q174.255 235.323 180.066 235.323 Z" fill="#000000" fill-rule="nonzero" fill-opacity="1" /><path clip-path="url(#clip940)" d="M207.01 238.309 Q205.158 238.309 203.885 239.605 Q202.612 240.878 202.612 242.73 Q202.612 244.559 203.885 245.832 Q205.158 247.082 207.01 247.082 Q208.862 247.082 210.135 245.832 Q211.408 244.559 211.408 242.73 Q211.408 240.902 210.112 239.605 Q208.839 238.309 207.01 238.309 M207.01 235.323 Q208.491 235.323 209.857 235.902 Q211.223 236.457 212.218 237.522 Q213.283 238.564 213.815 239.883 Q214.348 241.202 214.348 242.73 Q214.348 245.786 212.195 247.915 Q210.065 250.022 206.964 250.022 Q203.839 250.022 201.755 247.939 Q199.672 245.855 199.672 242.73 Q199.672 239.628 201.802 237.476 Q203.931 235.323 207.01 235.323 Z" fill="#000000" fill-rule="nonzero" fill-opacity="1" /><path clip-path="url(#clip940)" d="M222.658 234.536 L226.362 234.536 Q229.834 239.999 231.547 245.23 Q233.283 250.462 233.283 255.624 Q233.283 260.809 231.547 266.063 Q229.834 271.318 226.362 276.758 L222.658 276.758 Q225.737 271.457 227.241 266.225 Q228.769 260.971 228.769 255.624 Q228.769 250.277 227.241 245.068 Q225.737 239.86 222.658 234.536 Z" fill="#000000" fill-rule="nonzero" fill-opacity="1" /><path clip-path="url(#clip940)" d="M213.376 119.537 L221.014 119.537 L221.014 93.1714 L212.704 94.838 L212.704 90.5788 L220.968 88.9121 L225.644 88.9121 L225.644 119.537 L233.283 119.537 L233.283 123.472 L213.376 123.472 L213.376 119.537 Z" fill="#000000" fill-rule="nonzero" fill-opacity="1" /><path clip-path="url(#clip940)" d="M658.005 64.5212 L658.005 8.68791 Q658.005 6.46277 659.205 6.46277 Q660.406 6.46277 660.406 8.24874 L660.406 64.082 Q660.406 66.3071 659.205 66.3071 Q658.005 66.3071 658.005 64.5212 Z" fill="#000000" fill-rule="nonzero" fill-opacity="1" /><path clip-path="url(#clip940)" d="M742.834 11.0887 Q742.834 11.9378 742.454 12.1134 Q742.103 12.2891 740.931 12.2891 Q739.555 12.2891 738.706 12.4062 Q737.857 12.4941 737.33 12.6404 Q736.803 12.7576 736.481 13.1674 Q736.188 13.5773 736.071 13.9287 Q735.954 14.2507 735.749 15.0412 L727.786 46.9836 Q727.493 48.0669 727.493 48.4475 Q727.493 48.8281 727.727 49.0623 Q727.991 49.2966 728.635 49.4137 Q729.279 49.5015 729.776 49.5308 Q730.303 49.5308 731.387 49.5308 Q732.734 49.5308 732.938 49.765 Q733.056 49.9114 733.056 50.1749 Q733.056 50.7312 732.821 51.024 Q732.587 51.2875 732.382 51.346 Q732.207 51.3753 731.914 51.3753 Q730.684 51.3753 728.166 51.2875 Q725.648 51.1996 724.419 51.1996 L716.982 51.3753 Q716.104 51.3753 716.104 50.6434 Q716.104 50.0871 716.338 49.8529 Q716.572 49.5894 716.836 49.5601 Q717.099 49.5308 717.772 49.5308 Q720.173 49.5308 721.198 49.2673 Q722.252 49.0038 722.545 48.5353 Q722.867 48.0376 723.218 46.6908 L731.797 12.3477 L731.738 12.3477 L707.525 50.292 L707.349 50.5555 Q707.174 50.7898 707.115 50.8776 Q707.057 50.9361 706.881 51.1118 Q706.735 51.2582 706.559 51.3168 Q706.413 51.3753 706.208 51.3753 Q705.856 51.3753 705.651 51.1411 Q705.476 50.9069 705.417 50.7312 Q705.388 50.5262 705.3 49.9992 L700.147 12.8161 L700.089 12.8161 L691.92 45.4904 Q691.686 46.398 691.686 46.8665 Q691.686 48.0669 692.535 48.7988 Q693.413 49.5015 695.755 49.5308 Q696.839 49.5308 696.839 50.1749 Q696.839 51.3753 695.755 51.3753 Q694.76 51.3753 692.681 51.2875 Q690.602 51.1996 689.578 51.1996 Q688.582 51.1996 686.562 51.2875 Q684.571 51.3753 683.605 51.3753 Q682.756 51.3753 682.756 50.6434 Q682.756 49.5308 683.839 49.5308 Q685.596 49.4722 686.796 49.1209 Q687.997 48.7696 688.67 48.0962 Q689.373 47.4228 689.695 46.7494 Q690.046 46.0467 690.31 45.022 L697.922 14.485 Q698.156 13.5188 698.156 13.3724 Q698.156 12.8747 697.863 12.699 Q697.6 12.4941 696.839 12.4062 Q695.375 12.2891 694.262 12.2891 Q693.53 12.2891 693.237 12.2598 Q692.974 12.2306 692.74 12.0842 Q692.535 11.9085 692.535 11.5572 Q692.535 11.0009 692.769 10.7666 Q693.033 10.5031 693.325 10.4739 Q693.618 10.4153 694.321 10.4153 L702.548 10.4153 Q703.748 10.4153 704.012 10.6203 Q704.275 10.7959 704.392 11.7914 L709.077 45.7246 L730.977 11.5572 Q731.533 10.7081 731.826 10.5617 Q732.119 10.4153 733.29 10.4153 L741.224 10.4153 Q741.868 10.4153 742.132 10.4446 Q742.395 10.4739 742.6 10.6203 Q742.834 10.7666 742.834 11.0887 Z" fill="#000000" fill-rule="nonzero" fill-opacity="1" /><path clip-path="url(#clip940)" d="M769.56 46.6194 Q769.56 47.7671 768.843 48.423 Q768.126 49.0583 767.306 49.0583 Q766.527 49.0583 766.117 48.6074 Q765.707 48.1565 765.707 47.5827 Q765.707 46.8039 766.281 46.1276 Q766.855 45.4512 767.716 45.3078 Q766.876 44.7749 765.625 44.7749 Q764.806 44.7749 764.088 45.2053 Q763.392 45.6357 762.961 46.1891 Q762.551 46.7424 762.182 47.5417 Q761.834 48.3205 761.69 48.7919 Q761.568 49.2428 761.465 49.7346 L760.03 55.4731 Q759.334 58.1989 759.334 59.1622 Q759.334 60.3508 759.907 61.1501 Q760.481 61.9289 761.629 61.9289 Q762.08 61.9289 762.592 61.806 Q763.105 61.6625 763.76 61.2936 Q764.437 60.9042 765.031 60.3304 Q765.646 59.736 766.24 58.7318 Q766.835 57.7275 767.224 56.4364 Q767.347 55.9855 767.757 55.9855 Q768.269 55.9855 768.269 56.3954 Q768.269 56.7438 767.982 57.4816 Q767.716 58.1989 767.122 59.1417 Q766.548 60.0639 765.789 60.9042 Q765.031 61.724 763.904 62.2978 Q762.777 62.8717 761.547 62.8717 Q759.784 62.8717 758.616 61.9289 Q757.448 60.9862 757.018 59.6745 Q756.915 59.859 756.772 60.1049 Q756.628 60.3508 756.198 60.9042 Q755.788 61.4371 755.317 61.847 Q754.845 62.2364 754.107 62.5438 Q753.39 62.8717 752.611 62.8717 Q751.628 62.8717 750.746 62.5848 Q749.886 62.2978 749.271 61.642 Q748.656 60.9862 748.656 60.0844 Q748.656 59.0802 749.332 58.3834 Q750.029 57.6661 750.972 57.6661 Q751.566 57.6661 752.038 58.0145 Q752.529 58.3629 752.529 59.1212 Q752.529 59.9615 751.956 60.5968 Q751.382 61.2321 750.562 61.3961 Q751.402 61.9289 752.652 61.9289 Q754.005 61.9289 755.071 60.7402 Q756.136 59.5516 756.649 57.5636 Q757.919 52.7883 758.411 50.6569 Q758.903 48.5049 758.903 47.5827 Q758.903 46.7219 758.678 46.1276 Q758.452 45.5332 758.063 45.2668 Q757.694 44.9799 757.346 44.8774 Q757.018 44.7749 756.649 44.7749 Q756.034 44.7749 755.337 45.0209 Q754.661 45.2668 753.841 45.8406 Q753.042 46.394 752.283 47.5417 Q751.525 48.6894 751.013 50.2675 Q750.91 50.7389 750.459 50.7389 Q749.968 50.7184 749.968 50.3085 Q749.968 49.9601 750.234 49.2428 Q750.521 48.5049 751.095 47.5827 Q751.689 46.6604 752.447 45.8406 Q753.226 45.0004 754.353 44.4265 Q755.501 43.8527 756.731 43.8527 Q757.284 43.8527 757.817 43.9756 Q758.37 44.0781 759.026 44.3855 Q759.703 44.6929 760.297 45.3693 Q760.891 46.0456 761.26 47.0293 Q761.506 46.558 761.834 46.1071 Q762.182 45.6562 762.715 45.1028 Q763.269 44.529 764.027 44.2011 Q764.806 43.8527 765.666 43.8527 Q766.507 43.8527 767.327 44.0781 Q768.146 44.2831 768.843 44.9594 Q769.56 45.6152 769.56 46.6194 Z" fill="#000000" fill-rule="nonzero" fill-opacity="1" /><path clip-path="url(#clip940)" d="M791.29 45.4512 Q791.29 45.7382 791.106 46.4145 L787.089 62.4413 Q786.207 66.0074 783.338 68.5077 Q780.489 71.0081 777.251 71.0081 Q775.304 71.0081 774.054 69.9628 Q772.804 68.9381 772.804 67.36 Q772.804 65.9664 773.542 65.2901 Q774.28 64.6342 775.161 64.6342 Q775.448 64.6342 775.755 64.7162 Q776.063 64.7982 776.39 65.1466 Q776.718 65.495 776.718 66.0893 Q776.718 67.0526 775.878 67.8109 Q775.468 68.1593 775.079 68.2413 Q774.71 68.3233 774.075 68.3233 Q774.321 68.8971 774.771 69.2865 Q775.222 69.6759 775.735 69.8194 Q776.247 69.9833 776.575 70.0243 Q776.923 70.0858 777.251 70.0858 Q779.875 70.0858 781.883 67.442 Q782.477 66.6427 782.908 65.8434 Q783.359 65.0646 783.687 64.1014 Q784.014 63.1586 784.158 62.6462 Q784.322 62.1339 784.609 60.9657 Q782.703 62.8717 780.366 62.8717 Q779.383 62.8717 778.501 62.6053 Q777.641 62.3388 776.882 61.7855 Q776.124 61.2116 775.673 60.2074 Q775.243 59.2031 775.243 57.871 Q775.243 56.4569 775.796 54.5304 Q776.349 52.6039 777.682 49.0583 Q778.399 47.0703 778.399 46.1071 Q778.399 45.6357 778.296 45.3488 Q778.194 45.0414 777.989 44.9389 Q777.784 44.8159 777.661 44.7954 Q777.559 44.7749 777.354 44.7749 Q776.145 44.7749 775.017 46.0046 Q773.89 47.2343 773.111 49.9806 Q772.947 50.4929 772.845 50.6159 Q772.742 50.7389 772.435 50.7389 Q771.923 50.7184 771.923 50.3085 Q771.923 50.1445 772.107 49.5092 Q772.292 48.8534 772.722 47.8901 Q773.173 46.9064 773.788 46.0251 Q774.403 45.1233 775.366 44.488 Q776.349 43.8527 777.477 43.8527 Q779.014 43.8527 779.957 44.8569 Q780.92 45.8406 780.92 47.2958 Q780.92 47.8901 780.756 48.423 Q780.612 48.9353 780.08 50.3085 Q777.928 55.842 777.928 58.5473 Q777.928 59.2031 778.03 59.7565 Q778.153 60.2894 778.419 60.8222 Q778.686 61.3346 779.219 61.642 Q779.772 61.9289 780.53 61.9289 Q781.494 61.9289 782.395 61.4781 Q783.318 61.0067 783.892 60.3713 Q784.486 59.736 784.834 59.2031 Q785.203 58.6498 785.285 58.3629 L787.171 50.8208 L788.011 47.4597 Q788.4 45.6357 788.585 45.1848 Q788.831 44.7544 789.261 44.529 Q789.692 44.3035 790.06 44.3035 Q790.573 44.3035 790.921 44.611 Q791.29 44.9184 791.29 45.4512 Z" fill="#000000" fill-rule="nonzero" fill-opacity="1" /><path clip-path="url(#clip940)" d="M798.683 64.5212 L798.683 8.68791 Q798.683 6.46277 799.883 6.46277 Q801.084 6.46277 801.084 8.24874 L801.084 64.082 Q801.084 66.3071 799.883 66.3071 Q798.683 66.3071 798.683 64.5212 Z" fill="#000000" fill-rule="nonzero" fill-opacity="1" /><path clip-path="url(#clip940)" d="M839.28 45.6661 Q839.28 40.5717 845.282 37.8781 Q848.883 36.1507 856.32 35.7116 L856.32 33.5157 Q856.32 29.7974 854.358 27.8358 Q852.426 25.8448 849.966 25.8448 Q845.574 25.8448 843.466 28.597 Q845.252 28.6555 845.897 29.5632 Q846.541 30.4415 846.541 31.3491 Q846.541 32.5495 845.779 33.34 Q845.047 34.1013 843.789 34.1013 Q842.588 34.1013 841.798 33.3693 Q841.007 32.6081 841.007 31.2906 Q841.007 28.3628 843.642 26.4304 Q846.306 24.4981 850.083 24.4981 Q855.002 24.4981 858.281 27.8065 Q859.306 28.8312 859.804 30.1487 Q860.331 31.4662 860.389 32.3446 Q860.448 33.1936 860.448 34.8918 L860.448 46.8665 Q860.448 47.2178 860.565 47.8034 Q860.682 48.389 861.209 49.1502 Q861.765 49.8821 862.673 49.8821 Q864.839 49.8821 864.81 46.0467 L864.81 42.6797 L866.333 42.6797 L866.333 46.0467 Q866.333 49.238 864.634 50.497 Q862.966 51.7266 861.414 51.7266 Q859.423 51.7266 858.164 50.2627 Q856.905 48.7988 856.729 46.8079 Q855.822 49.0916 853.743 50.5848 Q851.694 52.0487 848.883 52.0487 Q846.716 52.0487 844.667 51.4924 Q842.647 50.9654 840.949 49.4722 Q839.28 47.9498 839.28 45.6661 M843.906 45.6075 Q843.906 47.8327 845.487 49.2673 Q847.068 50.7019 849.293 50.7019 Q851.811 50.7019 854.065 48.7696 Q856.32 46.8079 856.32 42.9725 L856.32 36.9705 Q849.673 37.2047 846.775 39.869 Q843.906 42.5041 843.906 45.6075 Z" fill="#000000" fill-rule="nonzero" fill-opacity="1" /><path clip-path="url(#clip940)" d="M867.535 51.3753 L867.535 49.5308 Q870.726 49.5308 871.458 49.1502 Q872.19 48.7403 872.19 46.8079 L872.19 30.7343 Q872.19 28.5092 871.4 27.9529 Q870.638 27.3966 867.535 27.3966 L867.535 25.5228 L875.967 24.8787 L875.967 31.1735 Q878.778 24.8787 884.838 24.8787 Q889.347 24.8787 891.133 27.1038 Q892.451 28.597 892.714 30.2658 Q893.007 31.9347 893.007 36.2678 L893.007 47.7156 Q893.065 48.9745 894.032 49.2673 Q894.998 49.5308 897.691 49.5308 L897.691 51.3753 Q891.572 51.1996 890.957 51.1996 Q890.489 51.1996 884.194 51.3753 L884.194 49.5308 Q887.386 49.5308 888.117 49.1502 Q888.879 48.7403 888.879 46.8079 L888.879 32.8423 Q888.879 29.7974 887.942 28.0114 Q887.005 26.1962 884.428 26.1962 Q881.325 26.1962 878.836 28.8019 Q876.348 31.4077 876.348 35.7994 L876.348 46.8079 Q876.348 48.7403 877.08 49.1502 Q877.841 49.5308 881.003 49.5308 L881.003 51.3753 Q874.884 51.1996 874.298 51.1996 Q873.83 51.1996 867.535 51.3753 Z" fill="#000000" fill-rule="nonzero" fill-opacity="1" /><path clip-path="url(#clip940)" d="M901.918 38.493 Q901.918 32.7837 905.9 28.8312 Q909.882 24.8787 915.269 24.8787 Q919.836 24.8787 922.823 28.597 L922.823 15.6268 Q922.823 13.4017 922.032 12.8454 Q921.271 12.2891 918.168 12.2891 L918.168 10.4153 L926.805 9.7712 L926.805 46.1638 Q926.805 48.389 927.566 48.9745 Q928.356 49.5308 931.46 49.5308 L931.46 51.3753 L922.647 52.0487 L922.647 48.0669 Q919.544 52.0194 914.625 52.0487 Q909.472 52.0487 905.695 48.0962 Q901.918 44.1436 901.918 38.493 M906.896 38.5515 Q906.896 44.1144 908.623 46.8665 Q911.024 50.7019 914.918 50.7019 Q919.368 50.7019 922.003 46.5152 Q922.676 45.4904 922.647 44.29 L922.647 31.9932 Q922.647 30.7928 922.003 29.7974 Q919.544 26.1962 915.533 26.1962 Q911.346 26.1962 908.74 30.0316 Q906.896 32.9009 906.896 38.5515 Z" fill="#000000" fill-rule="nonzero" fill-opacity="1" /><path clip-path="url(#clip940)" d="M1010.79 11.0887 Q1010.79 11.9378 1010.41 12.1134 Q1010.05 12.2891 1008.88 12.2891 Q1007.51 12.2891 1006.66 12.4062 Q1005.81 12.4941 1005.28 12.6404 Q1004.75 12.7576 1004.43 13.1674 Q1004.14 13.5773 1004.02 13.9287 Q1003.91 14.2507 1003.7 15.0412 L995.737 46.9836 Q995.444 48.0669 995.444 48.4475 Q995.444 48.8281 995.678 49.0623 Q995.942 49.2966 996.586 49.4137 Q997.23 49.5015 997.728 49.5308 Q998.255 49.5308 999.338 49.5308 Q1000.68 49.5308 1000.89 49.765 Q1001.01 49.9114 1001.01 50.1749 Q1001.01 50.7312 1000.77 51.024 Q1000.54 51.2875 1000.33 51.346 Q1000.16 51.3753 999.865 51.3753 Q998.635 51.3753 996.117 51.2875 Q993.6 51.1996 992.37 51.1996 L984.933 51.3753 Q984.055 51.3753 984.055 50.6434 Q984.055 50.0871 984.289 49.8529 Q984.523 49.5894 984.787 49.5601 Q985.05 49.5308 985.724 49.5308 Q988.125 49.5308 989.149 49.2673 Q990.203 49.0038 990.496 48.5353 Q990.818 48.0376 991.169 46.6908 L999.748 12.3477 L999.689 12.3477 L975.476 50.292 L975.301 50.5555 Q975.125 50.7898 975.067 50.8776 Q975.008 50.9361 974.832 51.1118 Q974.686 51.2582 974.51 51.3168 Q974.364 51.3753 974.159 51.3753 Q973.808 51.3753 973.603 51.1411 Q973.427 50.9069 973.368 50.7312 Q973.339 50.5262 973.251 49.9992 L968.098 12.8161 L968.04 12.8161 L959.871 45.4904 Q959.637 46.398 959.637 46.8665 Q959.637 48.0669 960.486 48.7988 Q961.364 49.5015 963.707 49.5308 Q964.79 49.5308 964.79 50.1749 Q964.79 51.3753 963.707 51.3753 Q962.711 51.3753 960.632 51.2875 Q958.554 51.1996 957.529 51.1996 Q956.534 51.1996 954.513 51.2875 Q952.522 51.3753 951.556 51.3753 Q950.707 51.3753 950.707 50.6434 Q950.707 49.5308 951.79 49.5308 Q953.547 49.4722 954.748 49.1209 Q955.948 48.7696 956.621 48.0962 Q957.324 47.4228 957.646 46.7494 Q957.997 46.0467 958.261 45.022 L965.873 14.485 Q966.107 13.5188 966.107 13.3724 Q966.107 12.8747 965.815 12.699 Q965.551 12.4941 964.79 12.4062 Q963.326 12.2891 962.213 12.2891 Q961.482 12.2891 961.189 12.2598 Q960.925 12.2306 960.691 12.0842 Q960.486 11.9085 960.486 11.5572 Q960.486 11.0009 960.72 10.7666 Q960.984 10.5031 961.277 10.4739 Q961.569 10.4153 962.272 10.4153 L970.499 10.4153 Q971.7 10.4153 971.963 10.6203 Q972.227 10.7959 972.344 11.7914 L977.028 45.7246 L998.928 11.5572 Q999.484 10.7081 999.777 10.5617 Q1000.07 10.4153 1001.24 10.4153 L1009.18 10.4153 Q1009.82 10.4153 1010.08 10.4446 Q1010.35 10.4739 1010.55 10.6203 Q1010.79 10.7666 1010.79 11.0887 Z" fill="#000000" fill-rule="nonzero" fill-opacity="1" /><path clip-path="url(#clip940)" d="M1035.97 45.4512 Q1035.97 45.7382 1035.79 46.4145 L1031.77 62.4413 Q1030.89 66.0074 1028.02 68.5077 Q1025.17 71.0081 1021.94 71.0081 Q1019.99 71.0081 1018.74 69.9628 Q1017.49 68.9381 1017.49 67.36 Q1017.49 65.9664 1018.23 65.2901 Q1018.96 64.6342 1019.85 64.6342 Q1020.13 64.6342 1020.44 64.7162 Q1020.75 64.7982 1021.08 65.1466 Q1021.4 65.495 1021.4 66.0893 Q1021.4 67.0526 1020.56 67.8109 Q1020.15 68.1593 1019.76 68.2413 Q1019.39 68.3233 1018.76 68.3233 Q1019.01 68.8971 1019.46 69.2865 Q1019.91 69.6759 1020.42 69.8194 Q1020.93 69.9833 1021.26 70.0243 Q1021.61 70.0858 1021.94 70.0858 Q1024.56 70.0858 1026.57 67.442 Q1027.16 66.6427 1027.59 65.8434 Q1028.04 65.0646 1028.37 64.1014 Q1028.7 63.1586 1028.84 62.6462 Q1029.01 62.1339 1029.29 60.9657 Q1027.39 62.8717 1025.05 62.8717 Q1024.07 62.8717 1023.19 62.6053 Q1022.33 62.3388 1021.57 61.7855 Q1020.81 61.2116 1020.36 60.2074 Q1019.93 59.2031 1019.93 57.871 Q1019.93 56.4569 1020.48 54.5304 Q1021.03 52.6039 1022.37 49.0583 Q1023.08 47.0703 1023.08 46.1071 Q1023.08 45.6357 1022.98 45.3488 Q1022.88 45.0414 1022.67 44.9389 Q1022.47 44.8159 1022.35 44.7954 Q1022.24 44.7749 1022.04 44.7749 Q1020.83 44.7749 1019.7 46.0046 Q1018.57 47.2343 1017.8 49.9806 Q1017.63 50.4929 1017.53 50.6159 Q1017.43 50.7389 1017.12 50.7389 Q1016.61 50.7184 1016.61 50.3085 Q1016.61 50.1445 1016.79 49.5092 Q1016.98 48.8534 1017.41 47.8901 Q1017.86 46.9064 1018.47 46.0251 Q1019.09 45.1233 1020.05 44.488 Q1021.03 43.8527 1022.16 43.8527 Q1023.7 43.8527 1024.64 44.8569 Q1025.6 45.8406 1025.6 47.2958 Q1025.6 47.8901 1025.44 48.423 Q1025.3 48.9353 1024.76 50.3085 Q1022.61 55.842 1022.61 58.5473 Q1022.61 59.2031 1022.71 59.7565 Q1022.84 60.2894 1023.1 60.8222 Q1023.37 61.3346 1023.9 61.642 Q1024.46 61.9289 1025.21 61.9289 Q1026.18 61.9289 1027.08 61.4781 Q1028 61.0067 1028.58 60.3713 Q1029.17 59.736 1029.52 59.2031 Q1029.89 58.6498 1029.97 58.3629 L1031.86 50.8208 L1032.7 47.4597 Q1033.08 45.6357 1033.27 45.1848 Q1033.52 44.7544 1033.95 44.529 Q1034.38 44.3035 1034.74 44.3035 Q1035.26 44.3035 1035.61 44.611 Q1035.97 44.9184 1035.97 45.4512 Z" fill="#000000" fill-rule="nonzero" fill-opacity="1" /><path clip-path="url(#clip940)" d="M1058.03 27.3966 L1058.03 25.5228 L1062.74 25.5228 L1062.74 18.6424 Q1062.74 14.1922 1065.61 11.645 Q1068.51 9.0978 1072.05 9.0978 Q1074.39 9.0978 1075.92 10.3568 Q1077.44 11.6157 1077.44 13.3138 Q1077.44 14.4557 1076.74 15.2169 Q1076.06 15.9489 1074.8 15.9489 Q1073.6 15.9489 1072.9 15.1876 Q1072.23 14.4264 1072.23 13.3724 Q1072.23 11.44 1074.01 10.8545 Q1073.1 10.4446 1072.05 10.4153 Q1069.88 10.4153 1068.19 12.6404 Q1066.52 14.8656 1066.52 18.5839 L1066.52 25.5228 L1073.54 25.5228 L1073.54 27.3966 L1066.72 27.3966 L1066.72 46.6908 Q1066.72 48.4182 1067.42 48.9745 Q1068.16 49.5308 1071.26 49.5308 L1072.52 49.5308 L1072.52 51.3753 Q1070.12 51.1996 1064.91 51.1996 Q1064.17 51.1996 1063.03 51.2289 Q1061.92 51.2582 1060.4 51.3168 Q1058.9 51.3753 1058.08 51.3753 L1058.08 49.5308 Q1061.28 49.5308 1062.01 49.1502 Q1062.74 48.7403 1062.74 46.8079 L1062.74 27.3966 L1058.03 27.3966 Z" fill="#000000" fill-rule="nonzero" fill-opacity="1" /><path clip-path="url(#clip940)" d="M1083.67 48.1547 Q1079.72 44.2315 1079.72 38.5515 Q1079.72 32.8423 1083.58 28.6848 Q1087.48 24.4981 1093.04 24.4981 Q1098.48 24.4981 1102.38 28.6555 Q1106.3 32.7837 1106.3 38.5515 Q1106.3 44.2022 1102.35 48.1254 Q1098.43 52.0487 1092.98 52.0487 Q1087.65 52.0487 1083.67 48.1547 M1084.69 38.0538 Q1084.69 43.8801 1086.22 46.5152 Q1088.56 50.5262 1093.04 50.5262 Q1095.26 50.5262 1097.11 49.3258 Q1098.98 48.1254 1100.01 46.1053 Q1101.32 43.4702 1101.32 38.0538 Q1101.32 32.286 1099.74 29.7388 Q1097.4 25.8448 1092.98 25.8448 Q1091.05 25.8448 1089.14 26.8696 Q1087.27 27.865 1086.13 29.8559 Q1084.69 32.491 1084.69 38.0538 Z" fill="#000000" fill-rule="nonzero" fill-opacity="1" /><path clip-path="url(#clip940)" d="M1108.21 51.3753 L1108.21 49.5308 Q1111.4 49.5308 1112.14 49.1502 Q1112.9 48.7403 1112.9 46.8079 L1112.9 30.7343 Q1112.9 28.5092 1112.11 27.9529 Q1111.34 27.3966 1108.21 27.3966 L1108.21 25.5228 L1116.56 24.8787 L1116.56 31.4662 Q1117.41 28.8898 1119.19 26.8989 Q1121.01 24.8787 1123.93 24.8787 Q1125.87 24.8787 1127.1 25.962 Q1128.36 27.0452 1128.36 28.5384 Q1128.36 29.8559 1127.54 30.5293 Q1126.75 31.1735 1125.78 31.1735 Q1124.7 31.1735 1123.93 30.5001 Q1123.2 29.7974 1123.2 28.597 Q1123.2 27.865 1123.52 27.3088 Q1123.88 26.7232 1124.14 26.5182 Q1124.4 26.3133 1124.58 26.2547 Q1124.46 26.1962 1123.93 26.1962 Q1120.63 26.1962 1118.72 29.5046 Q1116.85 32.7837 1116.85 37.4682 L1116.85 46.6908 Q1116.85 48.4182 1117.55 48.9745 Q1118.28 49.5308 1121.42 49.5308 L1122.68 49.5308 L1122.68 51.3753 Q1120.27 51.1996 1115.06 51.1996 Q1114.33 51.1996 1113.19 51.2289 Q1112.05 51.2582 1110.55 51.3168 Q1109.06 51.3753 1108.21 51.3753 Z" fill="#000000" fill-rule="nonzero" fill-opacity="1" /><path clip-path="url(#clip940)" d="M1180.9 28.4213 Q1180.84 28.7141 1180.72 29.2411 Q1180.61 29.7388 1180.08 31.3198 Q1179.55 32.9009 1178.85 34.5112 Q1178.18 36.0922 1176.86 38.3173 Q1175.57 40.5132 1173.99 42.5041 Q1173.55 43.0311 1173.46 43.3531 Q1173.4 43.6459 1173.4 44.6121 Q1173.4 50.7019 1175.25 50.7019 Q1175.34 50.7019 1175.48 50.7019 Q1175.66 50.6726 1176.1 50.5262 Q1176.56 50.3506 1176.97 50.0871 Q1177.38 49.7943 1177.85 49.2087 Q1178.32 48.5939 1178.61 47.7741 Q1178.88 47.1886 1179.4 47.1886 Q1180.11 47.1886 1180.11 47.7741 Q1180.11 48.8281 1178.64 50.4384 Q1177.18 52.0487 1175.07 52.0487 Q1173.05 52.0487 1171.62 50.7312 Q1170.21 49.3844 1169.63 46.9836 Q1163.3 52.0487 1156.98 52.0487 Q1152.53 52.0487 1149.89 49.1502 Q1147.26 46.2224 1147.26 41.8892 Q1147.26 37.7317 1149.54 33.7792 Q1151.85 29.8267 1155.6 27.3673 Q1159.38 24.8787 1163.39 24.8787 Q1164.79 24.8787 1166.14 25.2593 Q1167.49 25.6106 1168.84 26.5182 Q1170.18 27.4259 1171.18 28.8019 Q1172.17 30.178 1172.79 32.3446 Q1173.4 34.5112 1173.4 37.234 L1173.4 40.9523 Q1177.27 36.0629 1179.29 29.0654 Q1179.58 28.0114 1179.76 27.8943 Q1179.87 27.8065 1180.17 27.8065 Q1180.46 27.8065 1180.63 27.9821 Q1180.84 28.1285 1180.87 28.2749 L1180.9 28.4213 M1169.39 45.4319 Q1169.27 44.4071 1169.27 38.7272 Q1169.27 37.6439 1169.27 37.0583 Q1169.27 36.4435 1169.22 35.2724 Q1169.16 34.1013 1169.04 33.3693 Q1168.95 32.6374 1168.75 31.5833 Q1168.54 30.5293 1168.25 29.8559 Q1167.96 29.1825 1167.49 28.4213 Q1167.05 27.6601 1166.46 27.2209 Q1165.91 26.7817 1165.09 26.489 Q1164.3 26.1962 1163.33 26.1962 Q1162.13 26.1962 1160.87 26.6354 Q1159.64 27.0452 1158.06 28.3628 Q1156.48 29.651 1155.16 31.7005 Q1153.79 33.867 1152.73 37.8489 Q1151.71 41.8014 1151.71 44.1729 Q1151.71 47.1593 1153.08 48.9452 Q1154.46 50.7019 1157.09 50.7019 Q1163.39 50.7019 1169.39 45.4319 Z" fill="#000000" fill-rule="nonzero" fill-opacity="1" /><path clip-path="url(#clip940)" d="M1201.88 42.2698 Q1201.94 41.5379 1203.09 41.5379 L1239.83 41.5379 Q1241.56 41.5379 1241.59 42.2113 Q1241.59 42.9432 1239.95 42.914 L1203.49 42.914 Q1201.88 42.9432 1201.88 42.2698 M1201.88 30.5586 Q1201.88 29.8267 1203.14 29.8559 L1239.77 29.8559 Q1241.56 29.8559 1241.59 30.5586 Q1241.59 31.232 1240.06 31.232 L1203.09 31.232 Q1201.88 31.232 1201.88 30.5586 Z" fill="#000000" fill-rule="nonzero" fill-opacity="1" /><path clip-path="url(#clip940)" d="M1264.72 32.4324 Q1264.72 23.0049 1269.52 17.2371 Q1274.32 11.44 1280.5 11.44 Q1284.1 11.44 1286.09 13.2846 Q1288.11 15.0998 1288.11 17.9105 Q1288.11 19.4622 1287.2 20.1356 Q1286.3 20.809 1285.36 20.809 Q1284.28 20.809 1283.43 20.0771 Q1282.58 19.3451 1282.58 18.0276 Q1282.58 15.334 1285.89 15.334 Q1284.34 12.9332 1280.62 12.9332 Q1279.47 12.9332 1278.3 13.2846 Q1277.13 13.6066 1275.61 14.7192 Q1274.09 15.8318 1272.92 17.5884 Q1271.75 19.3451 1270.93 22.6535 Q1270.11 25.962 1270.11 30.2658 L1270.11 31.7005 Q1272.57 25.757 1277.6 25.7863 Q1282.64 25.7863 1286.12 29.6217 Q1289.61 33.4571 1289.61 39.1371 Q1289.61 44.9634 1285.97 48.8281 Q1282.34 52.6928 1277.25 52.6928 Q1274.97 52.6928 1272.89 51.7266 Q1270.84 50.7898 1268.91 48.6232 Q1267 46.4566 1265.86 42.2991 Q1264.72 38.1416 1264.72 32.4324 M1270.22 37.8196 Q1270.22 43.7045 1271.31 46.5152 Q1271.48 46.9836 1271.86 47.6277 Q1272.27 48.2718 1272.95 49.1209 Q1273.65 49.9407 1274.79 50.497 Q1275.93 51.024 1277.25 51.024 Q1281.26 51.024 1283.19 47.13 Q1284.22 44.9634 1284.22 39.0785 Q1284.22 33.0765 1283.13 30.8807 Q1281.29 27.1624 1277.54 27.1624 Q1275.02 27.1624 1273.27 28.8898 Q1271.54 30.6172 1270.87 32.9301 Q1270.22 35.2431 1270.22 37.8196 Z" fill="#000000" fill-rule="nonzero" fill-opacity="1" /><path clip-path="url(#clip940)" d="M1294.65 32.1982 Q1294.65 23.3855 1296.88 18.5839 Q1299.98 11.44 1307.3 11.44 Q1308.85 11.44 1310.46 11.8792 Q1312.1 12.2891 1314.15 13.8994 Q1316.23 15.5097 1317.49 18.1447 Q1319.89 23.2391 1319.89 32.1982 Q1319.89 40.9523 1317.67 45.7246 Q1314.42 52.6928 1307.24 52.6928 Q1304.55 52.6928 1301.8 51.3168 Q1299.08 49.9407 1297.35 46.6323 Q1294.65 41.6843 1294.65 32.1982 M1299.63 31.4662 Q1299.63 40.5132 1300.28 44.1144 Q1301.01 48.0083 1303 49.7065 Q1305.02 51.3753 1307.24 51.3753 Q1309.64 51.3753 1311.64 49.5894 Q1313.66 47.7741 1314.27 43.8801 Q1314.94 40.0447 1314.91 31.4662 Q1314.91 23.122 1314.33 19.7843 Q1313.54 15.8903 1311.43 14.3386 Q1309.35 12.7576 1307.24 12.7576 Q1306.45 12.7576 1305.6 12.9918 Q1304.78 13.226 1303.58 13.8994 Q1302.38 14.5728 1301.45 16.2416 Q1300.54 17.9105 1300.1 20.4284 Q1299.63 23.6783 1299.63 31.4662 Z" fill="#000000" fill-rule="nonzero" fill-opacity="1" /><path clip-path="url(#clip940)" d="M1324.35 17.0907 Q1324.35 14.3386 1326.28 12.3769 Q1328.24 10.4153 1331 10.4153 Q1333.81 10.4153 1335.71 12.4062 Q1337.64 14.3679 1337.64 17.0029 Q1337.64 19.755 1335.65 21.7166 Q1333.69 23.6783 1331 23.6783 Q1328.18 23.6783 1326.25 21.7166 Q1324.35 19.7257 1324.35 17.0907 M1328.01 14.0458 Q1326.75 15.2755 1326.75 17.0907 Q1326.75 18.8767 1328.01 20.0771 Q1329.27 21.2775 1331 21.2775 Q1332.72 21.2775 1333.95 20.0771 Q1335.18 18.8767 1335.18 17.0907 Q1335.18 15.2755 1333.92 14.0458 Q1332.66 12.8161 1331 12.8161 Q1329.27 12.8161 1328.01 14.0458 Z" fill="#000000" fill-rule="nonzero" fill-opacity="1" /><path clip-path="url(#clip940)" d="M1359.94 36.3849 Q1359.94 26.2547 1363.72 18.0862 Q1365.33 14.6606 1367.59 11.7914 Q1369.84 8.92213 1371.33 7.66318 Q1372.83 6.40422 1373.24 6.40422 Q1373.82 6.40422 1373.85 6.98978 Q1373.85 7.28256 1373.06 8.01451 Q1363.4 17.8519 1363.43 36.3849 Q1363.43 54.9765 1372.83 64.4333 Q1373.85 65.4581 1373.85 65.7801 Q1373.85 66.3657 1373.24 66.3657 Q1372.83 66.3657 1371.39 65.1653 Q1369.96 63.9649 1367.73 61.2127 Q1365.51 58.4606 1363.9 55.0936 Q1359.94 46.925 1359.94 36.3849 Z" fill="#000000" fill-rule="nonzero" fill-opacity="1" /><path clip-path="url(#clip940)" d="M1378.41 51.3753 L1378.41 49.5308 Q1381.6 49.5308 1382.33 49.1502 Q1383.09 48.7403 1383.09 46.8079 L1383.09 30.7343 Q1383.09 28.5092 1382.3 27.9529 Q1381.54 27.3966 1378.41 27.3966 L1378.41 25.5228 L1386.75 24.8787 L1386.75 31.4662 Q1387.6 28.8898 1389.39 26.8989 Q1391.2 24.8787 1394.13 24.8787 Q1396.06 24.8787 1397.29 25.962 Q1398.55 27.0452 1398.55 28.5384 Q1398.55 29.8559 1397.73 30.5293 Q1396.94 31.1735 1395.98 31.1735 Q1394.89 31.1735 1394.13 30.5001 Q1393.4 29.7974 1393.4 28.597 Q1393.4 27.865 1393.72 27.3088 Q1394.07 26.7232 1394.34 26.5182 Q1394.6 26.3133 1394.78 26.2547 Q1394.66 26.1962 1394.13 26.1962 Q1390.82 26.1962 1388.92 29.5046 Q1387.05 32.7837 1387.05 37.4682 L1387.05 46.6908 Q1387.05 48.4182 1387.75 48.9745 Q1388.48 49.5308 1391.61 49.5308 L1392.87 49.5308 L1392.87 51.3753 Q1390.47 51.1996 1385.26 51.1996 Q1384.53 51.1996 1383.39 51.2289 Q1382.24 51.2582 1380.75 51.3168 Q1379.26 51.3753 1378.41 51.3753 Z" fill="#000000" fill-rule="nonzero" fill-opacity="1" /><path clip-path="url(#clip940)" d="M1402.9 38.1709 Q1402.9 32.5202 1406.53 28.5092 Q1410.16 24.4981 1415.38 24.4981 Q1420.65 24.4981 1423.37 27.9236 Q1426.12 31.3491 1426.12 36.2678 Q1426.12 37.1755 1425.89 37.3511 Q1425.65 37.5268 1424.63 37.5268 L1407.88 37.5268 Q1407.88 43.6459 1409.7 46.5152 Q1412.21 50.5262 1416.46 50.5262 Q1417.04 50.5262 1417.75 50.4091 Q1418.45 50.292 1419.88 49.7943 Q1421.32 49.2673 1422.58 47.8912 Q1423.84 46.5152 1424.57 44.3486 Q1424.74 43.4995 1425.33 43.5288 Q1426.12 43.5288 1426.12 44.2315 Q1426.12 44.7585 1425.54 45.9589 Q1424.98 47.13 1423.9 48.5353 Q1422.81 49.9407 1420.7 50.9947 Q1418.63 52.0487 1416.11 52.0487 Q1410.84 52.0487 1406.86 48.0669 Q1402.9 44.0558 1402.9 38.1709 M1407.94 36.2678 L1422.17 36.2678 Q1422.17 35.0089 1421.93 33.6035 Q1421.73 32.1982 1421.09 30.2658 Q1420.47 28.3042 1419.01 27.0745 Q1417.54 25.8448 1415.38 25.8448 Q1414.41 25.8448 1413.36 26.2547 Q1412.33 26.6646 1411.07 27.6601 Q1409.81 28.6555 1408.93 30.91 Q1408.06 33.1644 1407.94 36.2678 Z" fill="#000000" fill-rule="nonzero" fill-opacity="1" /><path clip-path="url(#clip940)" d="M1427.06 27.3966 L1427.06 25.5228 Q1430.31 25.6985 1432.63 25.6985 Q1433.77 25.6985 1439.19 25.5228 L1439.19 27.3966 Q1435.64 27.3966 1435.64 29.0069 Q1435.64 29.3582 1435.94 30.0902 L1441.64 46.1053 L1446.8 31.5833 Q1445.71 28.6555 1445.42 28.3042 Q1444.69 27.3966 1441.64 27.3966 L1441.64 25.5228 Q1444.34 25.6985 1446.97 25.6985 Q1448 25.6985 1453.21 25.5228 L1453.21 27.3966 Q1449.67 27.3966 1449.67 29.0069 Q1449.67 29.2411 1449.96 30.1487 L1455.9 46.8665 L1461.35 31.5248 Q1461.64 30.7343 1461.67 30.2658 Q1461.67 28.9483 1460.73 28.2164 Q1459.8 27.4551 1458.19 27.3966 L1458.19 25.5228 Q1461.61 25.6985 1463.75 25.6985 Q1466.15 25.6985 1468.14 25.5228 L1468.14 27.3966 Q1464.42 27.5137 1463.11 31.232 L1456.08 50.9069 Q1455.41 51.9902 1454.88 52.0487 Q1454.09 52.0487 1453.68 50.9069 L1447.56 33.867 L1441.5 50.8483 Q1441.26 51.5803 1441.06 51.8145 Q1440.85 52.0487 1440.3 52.0487 Q1439.77 52.0487 1439.54 51.7266 Q1439.3 51.4339 1439.04 50.7019 L1431.48 29.4753 Q1430.96 28.0993 1430.17 27.7479 Q1429.41 27.3966 1427.06 27.3966 Z" fill="#000000" fill-rule="nonzero" fill-opacity="1" /><path clip-path="url(#clip940)" d="M1477.23 48.1547 Q1473.27 44.2315 1473.27 38.5515 Q1473.27 32.8423 1477.14 28.6848 Q1481.03 24.4981 1486.6 24.4981 Q1492.04 24.4981 1495.94 28.6555 Q1499.86 32.7837 1499.86 38.5515 Q1499.86 44.2022 1495.91 48.1254 Q1491.98 52.0487 1486.54 52.0487 Q1481.21 52.0487 1477.23 48.1547 M1478.25 38.0538 Q1478.25 43.8801 1479.77 46.5152 Q1482.12 50.5262 1486.6 50.5262 Q1488.82 50.5262 1490.67 49.3258 Q1492.54 48.1254 1493.56 46.1053 Q1494.88 43.4702 1494.88 38.0538 Q1494.88 32.286 1493.3 29.7388 Q1490.96 25.8448 1486.54 25.8448 Q1484.61 25.8448 1482.7 26.8696 Q1480.83 27.865 1479.69 29.8559 Q1478.25 32.491 1478.25 38.0538 Z" fill="#000000" fill-rule="nonzero" fill-opacity="1" /><path clip-path="url(#clip940)" d="M1501.77 27.3966 L1501.77 25.5228 L1510.58 24.8787 L1510.58 44.7877 Q1510.58 46.2224 1510.7 47.0714 Q1510.82 47.8912 1511.29 48.8574 Q1511.78 49.8236 1512.9 50.2627 Q1514.04 50.7019 1515.85 50.7019 Q1519.1 50.7019 1521.09 48.0376 Q1523.11 45.3733 1523.11 41.4208 L1523.11 30.7343 Q1523.11 28.5092 1522.32 27.9529 Q1521.53 27.3966 1518.43 27.3966 L1518.43 25.5228 L1527.24 24.8787 L1527.24 46.1638 Q1527.24 48.389 1528 48.9745 Q1528.79 49.5308 1531.93 49.5308 L1531.93 51.3753 L1523.29 52.0487 L1523.29 46.6323 Q1520.77 52.0194 1515.56 52.0487 Q1512.93 52.0487 1511.11 51.3753 Q1509.32 50.7019 1508.42 49.8821 Q1507.51 49.0331 1507.01 47.4228 Q1506.54 45.8125 1506.48 44.817 Q1506.43 43.8216 1506.43 41.8892 L1506.43 32.9009 Q1506.43 28.8312 1505.84 28.1285 Q1505.25 27.3966 1501.77 27.3966 Z" fill="#000000" fill-rule="nonzero" fill-opacity="1" /><path clip-path="url(#clip940)" d="M1533.99 51.3753 L1533.99 49.5308 Q1537.18 49.5308 1537.92 49.1502 Q1538.65 48.7403 1538.65 46.8079 L1538.65 30.7343 Q1538.65 28.5092 1537.86 27.9529 Q1537.1 27.3966 1533.99 27.3966 L1533.99 25.5228 L1542.43 24.8787 L1542.43 31.1735 Q1545.24 24.8787 1551.3 24.8787 Q1555.81 24.8787 1557.59 27.1038 Q1558.91 28.597 1559.17 30.2658 Q1559.47 31.9347 1559.47 36.2678 L1559.47 47.7156 Q1559.52 48.9745 1560.49 49.2673 Q1561.46 49.5308 1564.15 49.5308 L1564.15 51.3753 Q1558.03 51.1996 1557.42 51.1996 Q1556.95 51.1996 1550.65 51.3753 L1550.65 49.5308 Q1553.84 49.5308 1554.58 49.1502 Q1555.34 48.7403 1555.34 46.8079 L1555.34 32.8423 Q1555.34 29.7974 1554.4 28.0114 Q1553.46 26.1962 1550.89 26.1962 Q1547.78 26.1962 1545.29 28.8019 Q1542.81 31.4077 1542.81 35.7994 L1542.81 46.8079 Q1542.81 48.7403 1543.54 49.1502 Q1544.3 49.5308 1547.46 49.5308 L1547.46 51.3753 Q1541.34 51.1996 1540.76 51.1996 Q1540.29 51.1996 1533.99 51.3753 Z" fill="#000000" fill-rule="nonzero" fill-opacity="1" /><path clip-path="url(#clip940)" d="M1568.38 38.493 Q1568.38 32.7837 1572.36 28.8312 Q1576.34 24.8787 1581.73 24.8787 Q1586.29 24.8787 1589.28 28.597 L1589.28 15.6268 Q1589.28 13.4017 1588.49 12.8454 Q1587.73 12.2891 1584.63 12.2891 L1584.63 10.4153 L1593.26 9.7712 L1593.26 46.1638 Q1593.26 48.389 1594.02 48.9745 Q1594.81 49.5308 1597.92 49.5308 L1597.92 51.3753 L1589.11 52.0487 L1589.11 48.0669 Q1586 52.0194 1581.08 52.0487 Q1575.93 52.0487 1572.15 48.0962 Q1568.38 44.1436 1568.38 38.493 M1573.35 38.5515 Q1573.35 44.1144 1575.08 46.8665 Q1577.48 50.7019 1581.38 50.7019 Q1585.83 50.7019 1588.46 46.5152 Q1589.13 45.4904 1589.11 44.29 L1589.11 31.9932 Q1589.11 30.7928 1588.46 29.7974 Q1586 26.1962 1581.99 26.1962 Q1577.8 26.1962 1575.2 30.0316 Q1573.35 32.9009 1573.35 38.5515 Z" fill="#000000" fill-rule="nonzero" fill-opacity="1" /><path clip-path="url(#clip940)" d="M1617.17 27.3966 L1617.17 26.0791 Q1619.92 25.962 1621.73 24.0296 Q1623.58 22.068 1624.19 19.6672 Q1624.84 17.2664 1624.9 14.485 L1626.39 14.485 L1626.39 25.5228 L1634.97 25.5228 L1634.97 27.3966 L1626.39 27.3966 L1626.39 44.0558 Q1626.39 50.5262 1630.43 50.5262 Q1632.16 50.5262 1633.3 48.7696 Q1634.44 46.9836 1634.44 43.8216 L1634.44 40.5132 L1635.93 40.5132 L1635.93 43.9387 Q1635.93 47.1886 1634.44 49.6186 Q1632.95 52.0487 1629.99 52.0487 Q1628.91 52.0487 1627.82 51.7559 Q1626.77 51.4924 1625.36 50.7898 Q1623.99 50.0578 1623.11 48.3011 Q1622.26 46.5152 1622.26 43.9387 L1622.26 27.3966 L1617.17 27.3966 Z" fill="#000000" fill-rule="nonzero" fill-opacity="1" /><path clip-path="url(#clip940)" d="M1642.62 48.1547 Q1638.67 44.2315 1638.67 38.5515 Q1638.67 32.8423 1642.54 28.6848 Q1646.43 24.4981 1651.99 24.4981 Q1657.44 24.4981 1661.33 28.6555 Q1665.26 32.7837 1665.26 38.5515 Q1665.26 44.2022 1661.3 48.1254 Q1657.38 52.0487 1651.93 52.0487 Q1646.61 52.0487 1642.62 48.1547 M1643.65 38.0538 Q1643.65 43.8801 1645.17 46.5152 Q1647.51 50.5262 1651.99 50.5262 Q1654.22 50.5262 1656.06 49.3258 Q1657.94 48.1254 1658.96 46.1053 Q1660.28 43.4702 1660.28 38.0538 Q1660.28 32.286 1658.7 29.7388 Q1656.36 25.8448 1651.93 25.8448 Q1650 25.8448 1648.1 26.8696 Q1646.22 27.865 1645.08 29.8559 Q1643.65 32.491 1643.65 38.0538 Z" fill="#000000" fill-rule="nonzero" fill-opacity="1" /><path clip-path="url(#clip940)" d="M1684.21 51.3753 L1684.21 49.5308 L1685.65 49.5308 Q1688.9 49.5308 1689.63 49.0038 Q1690.39 48.4475 1690.39 46.6908 L1690.39 15.0998 Q1690.39 13.3724 1689.63 12.8454 Q1688.87 12.2891 1685.65 12.2891 L1684.21 12.2891 L1684.21 10.4153 L1703.04 10.4153 Q1709.57 10.4153 1714.11 13.6359 Q1718.67 16.8272 1718.67 21.2189 Q1718.67 24.5859 1715.72 27.2209 Q1712.76 29.8559 1708.19 30.9978 Q1714.13 33.0472 1715.51 37.9367 L1716.27 42.7383 Q1716.51 44.4657 1716.65 45.344 Q1716.83 46.2224 1717.09 47.4228 Q1717.35 48.6232 1717.62 49.2087 Q1717.91 49.765 1718.32 50.3799 Q1718.73 50.9654 1719.26 51.1704 Q1719.81 51.3753 1720.55 51.3753 Q1721.92 51.3753 1723.09 50.1456 Q1724.26 48.916 1724.5 46.0467 Q1724.62 45.0805 1725.23 45.0805 Q1725.99 45.0805 1725.99 46.0467 Q1725.99 46.8958 1725.76 47.8912 Q1725.52 48.8574 1724.94 49.9992 Q1724.38 51.1411 1723.15 51.9023 Q1721.92 52.6928 1720.31 52.6928 Q1715.63 52.6928 1712.76 50.1749 Q1711.56 49.0916 1711 47.6863 Q1710.47 46.2809 1710.39 45.1684 Q1710.3 44.0558 1710.3 41.5964 Q1710.3 38.1124 1709.92 36.5899 Q1709.57 35.0674 1708.02 33.5743 Q1705.91 31.5248 1702.42 31.5248 L1695.54 31.5248 L1695.54 46.6908 Q1695.54 48.4182 1696.27 48.9745 Q1697.04 49.5308 1700.29 49.5308 L1701.72 49.5308 L1701.72 51.3753 Q1699.55 51.1996 1692.97 51.1996 Q1686.38 51.1996 1684.21 51.3753 M1695.54 30.2073 L1702.19 30.2073 Q1705.38 30.2073 1707.52 29.446 Q1709.68 28.6555 1710.71 27.2502 Q1711.73 25.8448 1712.11 24.4395 Q1712.49 23.0049 1712.49 21.2189 Q1712.49 19.1109 1712.03 17.5299 Q1711.56 15.9489 1710.53 15.012 Q1709.51 14.0751 1708.48 13.4895 Q1707.46 12.8747 1705.88 12.6404 Q1704.3 12.4062 1703.21 12.3477 Q1702.13 12.2891 1700.4 12.2891 Q1697.48 12.2891 1696.86 12.4062 Q1696.19 12.4648 1695.92 12.7868 Q1695.66 13.1089 1695.6 13.4895 Q1695.54 13.8408 1695.54 14.6899 L1695.54 30.2073 Z" fill="#000000" fill-rule="nonzero" fill-opacity="1" /><path clip-path="url(#clip940)" d="M1728.87 51.3753 L1728.87 49.5308 L1730.31 49.5308 Q1733.56 49.5308 1734.29 49.0038 Q1735.05 48.4475 1735.05 46.6908 L1735.05 15.2755 Q1735.05 13.5481 1734.29 13.0211 Q1733.53 12.4648 1730.31 12.4648 L1728.87 12.4648 L1728.87 10.591 L1761.78 10.591 L1763.45 24.0882 L1761.96 24.0882 Q1761.55 20.6626 1760.99 18.7303 Q1760.47 16.7687 1759.24 15.2169 Q1758.01 13.6652 1755.93 13.0796 Q1753.88 12.4648 1750.51 12.4648 L1743.31 12.4648 Q1741.26 12.4648 1740.82 12.9039 Q1740.38 13.3138 1740.38 14.8656 L1740.38 30.0316 L1745.53 30.0316 Q1749.6 30.0316 1750.74 28.5677 Q1751.89 27.1038 1751.89 23.0049 L1753.38 23.0049 L1753.38 38.9029 L1751.89 38.9029 Q1751.89 34.7747 1750.74 33.34 Q1749.6 31.8761 1745.53 31.8761 L1740.38 31.8761 L1740.38 46.6323 Q1740.38 47.8912 1740.59 48.389 Q1740.79 48.8574 1742.05 49.2087 Q1743.31 49.5308 1746.06 49.5308 L1748.05 49.5308 L1748.05 51.3753 Q1745.88 51.1996 1737.98 51.1996 Q1730.98 51.1996 1728.87 51.3753 Z" fill="#000000" fill-rule="nonzero" fill-opacity="1" /><path clip-path="url(#clip940)" d="M1787.24 48.0962 Q1783.43 44.1144 1783.43 38.4344 Q1783.43 32.7252 1787.18 28.6263 Q1790.93 24.4981 1796.43 24.4981 Q1800.09 24.4981 1802.85 26.2547 Q1805.6 27.9821 1805.6 30.9392 Q1805.6 32.2567 1804.81 33.018 Q1804.05 33.7499 1802.85 33.7499 Q1801.59 33.7499 1800.83 32.9887 Q1800.09 32.1982 1800.09 30.9978 Q1800.09 30.4708 1800.27 29.9438 Q1800.44 29.4168 1801.09 28.8605 Q1801.76 28.3042 1802.9 28.2164 Q1800.77 26.0205 1796.61 26.0205 Q1796.55 26.0205 1796.49 26.0205 Q1793.45 26.0205 1790.93 28.8898 Q1788.41 31.759 1788.41 38.3173 Q1788.41 41.7428 1789.23 44.2607 Q1790.08 46.7494 1791.46 48.0376 Q1792.83 49.3258 1794.18 49.9407 Q1795.53 50.5262 1796.84 50.5262 Q1802.73 50.5262 1804.72 44.2315 Q1804.89 43.6459 1805.48 43.6459 Q1806.27 43.6459 1806.27 44.2315 Q1806.27 44.5242 1806.04 45.2855 Q1805.8 46.0467 1805.07 47.2471 Q1804.34 48.4475 1803.28 49.5015 Q1802.26 50.5262 1800.42 51.2875 Q1798.6 52.0487 1796.32 52.0487 Q1791.05 52.0487 1787.24 48.0962 Z" fill="#000000" fill-rule="nonzero" fill-opacity="1" /><path clip-path="url(#clip940)" d="M1809.55 38.1709 Q1809.55 32.5202 1813.18 28.5092 Q1816.82 24.4981 1822.03 24.4981 Q1827.3 24.4981 1830.02 27.9236 Q1832.77 31.3491 1832.77 36.2678 Q1832.77 37.1755 1832.54 37.3511 Q1832.3 37.5268 1831.28 37.5268 L1814.53 37.5268 Q1814.53 43.6459 1816.35 46.5152 Q1818.86 50.5262 1823.11 50.5262 Q1823.7 50.5262 1824.4 50.4091 Q1825.1 50.292 1826.54 49.7943 Q1827.97 49.2673 1829.23 47.8912 Q1830.49 46.5152 1831.22 44.3486 Q1831.4 43.4995 1831.98 43.5288 Q1832.77 43.5288 1832.77 44.2315 Q1832.77 44.7585 1832.19 45.9589 Q1831.63 47.13 1830.55 48.5353 Q1829.46 49.9407 1827.36 50.9947 Q1825.28 52.0487 1822.76 52.0487 Q1817.49 52.0487 1813.51 48.0669 Q1809.55 44.0558 1809.55 38.1709 M1814.59 36.2678 L1828.82 36.2678 Q1828.82 35.0089 1828.59 33.6035 Q1828.38 32.1982 1827.74 30.2658 Q1827.12 28.3042 1825.66 27.0745 Q1824.19 25.8448 1822.03 25.8448 Q1821.06 25.8448 1820.01 26.2547 Q1818.98 26.6646 1817.72 27.6601 Q1816.46 28.6555 1815.59 30.91 Q1814.71 33.1644 1814.59 36.2678 Z" fill="#000000" fill-rule="nonzero" fill-opacity="1" /><path clip-path="url(#clip940)" d="M1834.71 51.3753 L1834.71 49.5308 Q1837.91 49.5308 1838.64 49.1502 Q1839.37 48.7403 1839.37 46.8079 L1839.37 30.7343 Q1839.37 28.5092 1838.58 27.9529 Q1837.82 27.3966 1834.71 27.3966 L1834.71 25.5228 L1843.15 24.8787 L1843.15 31.1735 Q1845.96 24.8787 1852.02 24.8787 Q1856.53 24.8787 1858.31 27.1038 Q1859.63 28.597 1859.89 30.2658 Q1860.19 31.9347 1860.19 36.2678 L1860.19 47.7156 Q1860.25 48.9745 1861.21 49.2673 Q1862.18 49.5308 1864.87 49.5308 L1864.87 51.3753 Q1858.75 51.1996 1858.14 51.1996 Q1857.67 51.1996 1851.37 51.3753 L1851.37 49.5308 Q1854.57 49.5308 1855.3 49.1502 Q1856.06 48.7403 1856.06 46.8079 L1856.06 32.8423 Q1856.06 29.7974 1855.12 28.0114 Q1854.18 26.1962 1851.61 26.1962 Q1848.5 26.1962 1846.02 28.8019 Q1843.53 31.4077 1843.53 35.7994 L1843.53 46.8079 Q1843.53 48.7403 1844.26 49.1502 Q1845.02 49.5308 1848.18 49.5308 L1848.18 51.3753 Q1842.06 51.1996 1841.48 51.1996 Q1841.01 51.1996 1834.71 51.3753 Z" fill="#000000" fill-rule="nonzero" fill-opacity="1" /><path clip-path="url(#clip940)" d="M1867.9 27.3966 L1867.9 26.0791 Q1870.65 25.962 1872.47 24.0296 Q1874.31 22.068 1874.92 19.6672 Q1875.57 17.2664 1875.63 14.485 L1877.12 14.485 L1877.12 25.5228 L1885.7 25.5228 L1885.7 27.3966 L1877.12 27.3966 L1877.12 44.0558 Q1877.12 50.5262 1881.16 50.5262 Q1882.89 50.5262 1884.03 48.7696 Q1885.17 46.9836 1885.17 43.8216 L1885.17 40.5132 L1886.67 40.5132 L1886.67 43.9387 Q1886.67 47.1886 1885.17 49.6186 Q1883.68 52.0487 1880.72 52.0487 Q1879.64 52.0487 1878.56 51.7559 Q1877.5 51.4924 1876.1 50.7898 Q1874.72 50.0578 1873.84 48.3011 Q1872.99 46.5152 1872.99 43.9387 L1872.99 27.3966 L1867.9 27.3966 Z" fill="#000000" fill-rule="nonzero" fill-opacity="1" /><path clip-path="url(#clip940)" d="M1889.53 38.1709 Q1889.53 32.5202 1893.16 28.5092 Q1896.79 24.4981 1902 24.4981 Q1907.27 24.4981 1909.99 27.9236 Q1912.75 31.3491 1912.75 36.2678 Q1912.75 37.1755 1912.51 37.3511 Q1912.28 37.5268 1911.25 37.5268 L1894.51 37.5268 Q1894.51 43.6459 1896.32 46.5152 Q1898.84 50.5262 1903.08 50.5262 Q1903.67 50.5262 1904.37 50.4091 Q1905.08 50.292 1906.51 49.7943 Q1907.94 49.2673 1909.2 47.8912 Q1910.46 46.5152 1911.19 44.3486 Q1911.37 43.4995 1911.96 43.5288 Q1912.75 43.5288 1912.75 44.2315 Q1912.75 44.7585 1912.16 45.9589 Q1911.6 47.13 1910.52 48.5353 Q1909.44 49.9407 1907.33 50.9947 Q1905.25 52.0487 1902.73 52.0487 Q1897.46 52.0487 1893.48 48.0669 Q1889.53 44.0558 1889.53 38.1709 M1894.56 36.2678 L1908.79 36.2678 Q1908.79 35.0089 1908.56 33.6035 Q1908.35 32.1982 1907.71 30.2658 Q1907.1 28.3042 1905.63 27.0745 Q1904.17 25.8448 1902 25.8448 Q1901.03 25.8448 1899.98 26.2547 Q1898.96 26.6646 1897.7 27.6601 Q1896.44 28.6555 1895.56 30.91 Q1894.68 33.1644 1894.56 36.2678 Z" fill="#000000" fill-rule="nonzero" fill-opacity="1" /><path clip-path="url(#clip940)" d="M1914.69 51.3753 L1914.69 49.5308 Q1917.88 49.5308 1918.61 49.1502 Q1919.37 48.7403 1919.37 46.8079 L1919.37 30.7343 Q1919.37 28.5092 1918.58 27.9529 Q1917.82 27.3966 1914.69 27.3966 L1914.69 25.5228 L1923.03 24.8787 L1923.03 31.4662 Q1923.88 28.8898 1925.67 26.8989 Q1927.48 24.8787 1930.41 24.8787 Q1932.34 24.8787 1933.57 25.962 Q1934.83 27.0452 1934.83 28.5384 Q1934.83 29.8559 1934.01 30.5293 Q1933.22 31.1735 1932.26 31.1735 Q1931.17 31.1735 1930.41 30.5001 Q1929.68 29.7974 1929.68 28.597 Q1929.68 27.865 1930 27.3088 Q1930.35 26.7232 1930.62 26.5182 Q1930.88 26.3133 1931.06 26.2547 Q1930.94 26.1962 1930.41 26.1962 Q1927.1 26.1962 1925.2 29.5046 Q1923.33 32.7837 1923.33 37.4682 L1923.33 46.6908 Q1923.33 48.4182 1924.03 48.9745 Q1924.76 49.5308 1927.89 49.5308 L1929.15 49.5308 L1929.15 51.3753 Q1926.75 51.1996 1921.54 51.1996 Q1920.81 51.1996 1919.67 51.2289 Q1918.52 51.2582 1917.03 51.3168 Q1915.54 51.3753 1914.69 51.3753 Z" fill="#000000" fill-rule="nonzero" fill-opacity="1" /><path clip-path="url(#clip940)" d="M1941.01 65.7801 Q1941.01 65.4873 1941.77 64.7554 Q1951.43 54.918 1951.43 36.3849 Q1951.43 17.7934 1942.15 8.39513 Q1941.01 7.31184 1941.01 6.98978 Q1941.01 6.40422 1941.59 6.40422 Q1942 6.40422 1943.44 7.60462 Q1944.9 8.80502 1947.1 11.5572 Q1949.32 14.3093 1950.96 17.6763 Q1954.92 25.8448 1954.92 36.3849 Q1954.92 46.5152 1951.14 54.6837 Q1949.53 58.1093 1947.27 60.9785 Q1945.02 63.8478 1943.53 65.1067 Q1942.03 66.3657 1941.59 66.3657 Q1941.01 66.3657 1941.01 65.7801 Z" fill="#000000" fill-rule="nonzero" fill-opacity="1" /><polyline clip-path="url(#clip941)" style="stroke:#009af9; stroke-linecap:round; stroke-linejoin:round; stroke-width:6; stroke-opacity:1; fill:none" points="269.283,1202.81 279.7,1202.63 290.118,1202.6 300.535,1202.74 310.952,1203.02 321.37,1203.41 331.787,1203.51 342.204,1203.08 352.622,1202.73 363.039,1202.5 373.456,1202.45 383.874,1202.58 394.291,1202.88 404.709,1203.32 415.126,1203.54 425.543,1203.04 435.961,1202.62 446.378,1202.34 456.795,1202.26 467.213,1202.39 477.63,1202.72 488.047,1203.22 498.465,1203.56 508.882,1202.97 519.3,1202.47 529.717,1202.14 540.134,1202.04 550.552,1202.2 560.969,1202.6 571.386,1203.21 581.804,1203.43 592.221,1202.69 602.639,1202.04 613.056,1201.61 623.473,1201.44 633.891,1201.6 644.308,1202.06 654.725,1202.76 665.143,1203.59 675.56,1202.93 685.977,1202.24 696.395,1201.83 706.812,1201.82 717.23,1202.24 727.647,1203.08 738.064,1203.11 748.482,1201.74 758.899,1200.37 769.316,1199.21 779.734,1198.45 790.151,1198.23 800.568,1198.61 810.986,1199.54 821.403,1200.86 831.821,1202.31 842.238,1203.54 852.655,1203.17 863.073,1203.44 873.49,1202.48 883.907,1199.8 894.325,1196.05 904.742,1191.65 915.159,1187.37 925.577,1184.24 935.994,1183.57 946.412,1186.85 956.829,1195.63 967.246,1195.9 977.664,1171.71 988.081,1138.14 998.498,1094.66 1008.92,1041.36 1019.33,978.999 1029.75,909.067 1040.17,833.716 1050.59,755.608 1061,677.683 1071.42,602.855 1081.84,533.71 1092.25,472.249 1102.67,419.733 1113.09,376.655 1123.51,342.824 1133.92,317.536 1144.34,299.763 1154.76,288.314 1165.18,281.943 1175.59,279.419 1186.01,279.554 1196.43,281.24 1206.85,283.499 1217.26,285.533 1227.68,286.782 1238.1,286.954 1248.52,286.021 1258.93,284.188 1269.35,281.819 1279.77,279.36 1290.18,277.253 1300.6,275.863 1311.02,275.426 1321.44,276.014 1331.85,277.531 1342.27,279.717 1352.69,282.191 1363.11,284.508 1373.52,286.226 1383.94,287 1394.36,286.659 1404.78,285.267 1415.19,283.157 1425.61,280.929 1436.03,279.409 1446.45,279.6 1456.86,282.624 1467.28,289.677 1477.7,301.996 1488.11,320.822 1498.53,347.332 1508.95,382.516 1519.37,427.013 1529.78,480.92 1540.2,543.632 1550.62,613.774 1561.04,689.243 1571.45,767.386 1581.87,845.264 1592.29,919.962 1602.71,988.88 1613.12,1049.96 1623.54,1101.82 1633.96,1143.8 1644.38,1175.92 1654.79,1198.78 1665.21,1193.9 1675.63,1186.04 1686.04,1183.46 1696.46,1184.59 1706.88,1187.97 1717.3,1192.33 1727.71,1196.66 1738.13,1200.28 1748.55,1202.78 1758.97,1203.33 1769.38,1203.22 1779.8,1203.38 1790.22,1202.09 1800.64,1200.64 1811.05,1199.37 1821.47,1198.51 1831.89,1198.23 1842.3,1198.53 1852.72,1199.36 1863.14,1200.57 1873.56,1201.95 1883.97,1203.3 1894.39,1202.93 1904.81,1202.14 1915.23,1201.79 1925.64,1201.87 1936.06,1202.33 1946.48,1203.05 1956.9,1203.47 1967.31,1202.64 1977.73,1201.97 1988.15,1201.56 1998.57,1201.45 2008.98,1201.65 2019.4,1202.13 2029.82,1202.79 2040.23,1203.54 2050.65,1203.11 2061.07,1202.53 2071.49,1202.16 2081.9,1202.04 2092.32,1202.18 2102.74,1202.54 2113.16,1203.06 2123.57,1203.65 2133.99,1203.14 2144.41,1202.66 2154.83,1202.36 2165.24,1202.26 2175.66,1202.37 2186.08,1202.67 2196.5,1203.11 2206.91,1203.62 2217.33,1203.25 2227.75,1202.83 2238.16,1202.55 2248.58,1202.45 2259,1202.53 2269.42,1202.77 2279.83,1203.14 2290.25,1203.58 2300.67,1203.34 2311.09,1202.97 2321.5,1202.71 2331.92,1202.6 2342.34,1202.65 2352.76,1202.84 "/>
<polyline clip-path="url(#clip941)" style="stroke:#e26f46; stroke-linecap:round; stroke-linejoin:round; stroke-width:6; stroke-opacity:1; fill:none" points="269.283,1202.8 279.7,1202.63 290.118,1202.6 300.535,1202.74 310.952,1203.02 321.37,1203.4 331.787,1203.5 342.204,1203.08 352.622,1202.73 363.039,1202.5 373.456,1202.45 383.874,1202.58 394.291,1202.88 404.709,1203.31 415.126,1203.53 425.543,1203.04 435.961,1202.62 446.378,1202.34 456.795,1202.26 467.213,1202.39 477.63,1202.72 488.047,1203.21 498.465,1203.54 508.882,1202.97 519.3,1202.47 529.717,1202.14 540.134,1202.04 550.552,1202.19 560.969,1202.6 571.386,1203.2 581.804,1203.41 592.221,1202.68 602.639,1202.04 613.056,1201.6 623.473,1201.44 633.891,1201.6 644.308,1202.05 654.725,1202.75 665.143,1203.54 675.56,1202.92 685.977,1202.24 696.395,1201.83 706.812,1201.81 717.23,1202.23 727.647,1203.06 738.064,1203.08 748.482,1201.73 758.899,1200.36 769.316,1199.2 779.734,1198.45 790.151,1198.23 800.568,1198.6 810.986,1199.53 821.403,1200.85 831.821,1202.3 842.238,1203.5 852.655,1203.16 863.073,1203.4 873.49,1202.46 883.907,1199.79 894.325,1196.03 904.742,1191.64 915.159,1187.36 925.577,1184.23 935.994,1183.55 946.412,1186.8 956.829,1195.45 967.246,1195.6 977.664,1171.6 988.081,1138.08 998.498,1094.65 1008.92,1041.4 1019.33,979.119 1029.75,909.281 1040.17,834.038 1050.59,756.043 1061,678.22 1071.42,603.47 1081.84,534.366 1092.25,472.905 1102.67,420.352 1113.09,377.208 1123.51,343.297 1133.92,317.93 1144.34,300.087 1154.76,288.582 1165.18,282.172 1175.59,279.618 1186.01,279.731 1196.43,281.399 1206.85,283.639 1217.26,285.655 1227.68,286.886 1238.1,287.039 1248.52,286.088 1258.93,284.235 1269.35,281.848 1279.77,279.372 1290.18,277.251 1300.6,275.853 1311.02,275.413 1321.44,276.006 1331.85,277.531 1342.27,279.731 1352.69,282.223 1363.11,284.558 1373.52,286.295 1383.94,287.089 1394.36,286.766 1404.78,285.392 1415.19,283.301 1425.61,281.09 1436.03,279.589 1446.45,279.803 1456.86,282.857 1467.28,289.953 1477.7,302.329 1488.11,321.228 1498.53,347.818 1508.95,383.08 1519.37,427.639 1529.78,481.579 1540.2,544.285 1550.62,614.38 1561.04,689.766 1571.45,767.804 1581.87,845.57 1592.29,920.161 1602.71,988.987 1613.12,1049.99 1623.54,1101.8 1633.96,1143.74 1644.38,1175.8 1654.79,1198.34 1665.21,1193.76 1675.63,1186 1686.04,1183.44 1696.46,1184.57 1706.88,1187.95 1717.3,1192.31 1727.71,1196.65 1738.13,1200.26 1748.55,1202.75 1758.97,1203.31 1769.38,1203.21 1779.8,1203.36 1790.22,1202.09 1800.64,1200.64 1811.05,1199.36 1821.47,1198.51 1831.89,1198.22 1842.3,1198.53 1852.72,1199.36 1863.14,1200.56 1873.56,1201.94 1883.97,1203.27 1894.39,1202.91 1904.81,1202.14 1915.23,1201.79 1925.64,1201.87 1936.06,1202.32 1946.48,1203.04 1956.9,1203.44 1967.31,1202.63 1977.73,1201.97 1988.15,1201.55 1998.57,1201.45 2008.98,1201.65 2019.4,1202.13 2029.82,1202.79 2040.23,1203.51 2050.65,1203.1 2061.07,1202.52 2071.49,1202.15 2081.9,1202.03 2092.32,1202.17 2102.74,1202.53 2113.16,1203.05 2123.57,1203.6 2133.99,1203.13 2144.41,1202.66 2154.83,1202.36 2165.24,1202.26 2175.66,1202.37 2186.08,1202.67 2196.5,1203.11 2206.91,1203.59 2217.33,1203.24 2227.75,1202.83 2238.16,1202.55 2248.58,1202.45 2259,1202.53 2269.42,1202.77 2279.83,1203.14 2290.25,1203.57 2300.67,1203.34 2311.09,1202.97 2321.5,1202.71 2331.92,1202.59 2342.34,1202.64 2352.76,1202.84 "/>
<polyline clip-path="url(#clip941)" style="stroke:#009af9; stroke-linecap:round; stroke-linejoin:round; stroke-width:6; stroke-opacity:1; fill:none" points="269.283,1203.69 279.7,1203.7 290.118,1203.7 300.535,1203.7 310.952,1203.7 321.37,1203.69 331.787,1203.69 342.204,1203.68 352.622,1203.67 363.039,1203.66 373.456,1203.66 383.874,1203.66 394.291,1203.66 404.709,1203.67 415.126,1203.68 425.543,1203.69 435.961,1203.7 446.378,1203.71 456.795,1203.71 467.213,1203.71 477.63,1203.71 488.047,1203.7 498.465,1203.69 508.882,1203.67 519.3,1203.66 529.717,1203.65 540.134,1203.64 550.552,1203.64 560.969,1203.65 571.386,1203.66 581.804,1203.68 592.221,1203.7 602.639,1203.72 613.056,1203.73 623.473,1203.74 633.891,1203.75 644.308,1203.74 654.725,1203.72 665.143,1203.7 675.56,1203.67 685.977,1203.65 696.395,1203.63 706.812,1203.62 717.23,1203.62 727.647,1203.64 738.064,1203.68 748.482,1203.73 758.899,1203.78 769.316,1203.83 779.734,1203.87 790.151,1203.89 800.568,1203.89 810.986,1203.87 821.403,1203.82 831.821,1203.76 842.238,1203.7 852.655,1203.66 863.073,1203.66 873.49,1203.7 883.907,1203.81 894.325,1203.99 904.742,1204.23 915.159,1204.49 925.577,1204.72 935.994,1204.85 946.412,1204.78 956.829,1204.37 967.246,1203.48 977.664,1201.9 988.081,1199.43 998.498,1195.81 1008.92,1190.79 1019.33,1184.17 1029.75,1175.84 1040.17,1165.88 1050.59,1154.65 1061,1142.8 1071.42,1131.23 1081.84,1120.97 1092.25,1113.04 1102.67,1108.19 1113.09,1106.8 1123.51,1108.82 1133.92,1113.74 1144.34,1120.79 1154.76,1129.06 1165.18,1137.68 1175.59,1145.94 1186.01,1153.39 1196.43,1159.8 1206.85,1165.14 1217.26,1169.57 1227.68,1173.31 1238.1,1176.63 1248.52,1179.8 1258.93,1183.05 1269.35,1186.57 1279.77,1190.46 1290.18,1194.73 1300.6,1199.3 1311.02,1204.04 1321.44,1208.76 1331.85,1213.3 1342.27,1217.51 1352.69,1221.34 1363.11,1224.81 1373.52,1228.04 1383.94,1231.22 1394.36,1234.58 1404.78,1238.4 1415.19,1242.96 1425.61,1248.46 1436.03,1255.03 1446.45,1262.62 1456.86,1270.97 1467.28,1279.58 1477.7,1287.73 1488.11,1294.52 1498.53,1299.05 1508.95,1300.58 1519.37,1298.67 1529.78,1293.32 1540.2,1284.98 1550.62,1274.46 1561.04,1262.78 1571.45,1250.97 1581.87,1239.9 1592.29,1230.17 1602.71,1222.09 1613.12,1215.72 1623.54,1210.93 1633.96,1207.5 1644.38,1205.17 1654.79,1203.71 1665.21,1202.9 1675.63,1202.55 1686.04,1202.52 1696.46,1202.67 1706.88,1202.92 1717.3,1203.18 1727.71,1203.4 1738.13,1203.57 1748.55,1203.67 1758.97,1203.71 1769.38,1203.7 1779.8,1203.65 1790.22,1203.59 1800.64,1203.54 1811.05,1203.49 1821.47,1203.47 1831.89,1203.48 1842.3,1203.5 1852.72,1203.54 1863.14,1203.59 1873.56,1203.65 1883.97,1203.69 1894.39,1203.72 1904.81,1203.74 1915.23,1203.74 1925.64,1203.73 1936.06,1203.71 1946.48,1203.69 1956.9,1203.66 1967.31,1203.64 1977.73,1203.62 1988.15,1203.62 1998.57,1203.62 2008.98,1203.63 2019.4,1203.65 2029.82,1203.67 2040.23,1203.69 2050.65,1203.71 2061.07,1203.72 2071.49,1203.72 2081.9,1203.72 2092.32,1203.71 2102.74,1203.7 2113.16,1203.69 2123.57,1203.67 2133.99,1203.66 2144.41,1203.65 2154.83,1203.65 2165.24,1203.65 2175.66,1203.66 2186.08,1203.67 2196.5,1203.68 2206.91,1203.69 2217.33,1203.7 2227.75,1203.71 2238.16,1203.71 2248.58,1203.71 2259,1203.7 2269.42,1203.69 2279.83,1203.69 2290.25,1203.68 2300.67,1203.67 2311.09,1203.66 2321.5,1203.66 2331.92,1203.66 2342.34,1203.67 2352.76,1203.67 "/>
<polyline clip-path="url(#clip941)" style="stroke:#e26f46; stroke-linecap:round; stroke-linejoin:round; stroke-width:6; stroke-opacity:1; fill:none" points="269.283,1203.66 279.7,1203.69 290.118,1203.71 300.535,1203.73 310.952,1203.74 321.37,1203.74 331.787,1203.74 342.204,1203.72 352.622,1203.7 363.039,1203.68 373.456,1203.65 383.874,1203.63 394.291,1203.62 404.709,1203.61 415.126,1203.62 425.543,1203.63 435.961,1203.66 446.378,1203.69 456.795,1203.72 467.213,1203.74 477.63,1203.76 488.047,1203.77 498.465,1203.76 508.882,1203.74 519.3,1203.71 529.717,1203.67 540.134,1203.64 550.552,1203.61 560.969,1203.59 571.386,1203.58 581.804,1203.59 592.221,1203.61 602.639,1203.65 613.056,1203.7 623.473,1203.74 633.891,1203.78 644.308,1203.81 654.725,1203.81 665.143,1203.8 675.56,1203.76 685.977,1203.71 696.395,1203.65 706.812,1203.59 717.23,1203.55 727.647,1203.52 738.064,1203.53 748.482,1203.56 758.899,1203.62 769.316,1203.71 779.734,1203.8 790.151,1203.89 800.568,1203.96 810.986,1203.99 821.403,1203.97 831.821,1203.91 842.238,1203.8 852.655,1203.67 863.073,1203.54 873.49,1203.44 883.907,1203.41 894.325,1203.48 904.742,1203.67 915.159,1203.99 925.577,1204.42 935.994,1204.9 946.412,1205.35 956.829,1205.65 967.246,1205.61 977.664,1205.03 988.081,1203.63 998.498,1201.12 1008.92,1197.17 1019.33,1191.51 1029.75,1183.98 1040.17,1174.61 1050.59,1163.71 1061,1151.92 1071.42,1140.12 1081.84,1129.38 1092.25,1120.72 1102.67,1114.96 1113.09,1112.54 1123.51,1113.45 1133.92,1117.28 1144.34,1123.31 1154.76,1130.69 1165.18,1138.57 1175.59,1146.29 1186.01,1153.38 1196.43,1159.6 1206.85,1164.92 1217.26,1169.43 1227.68,1173.32 1238.1,1176.81 1248.52,1180.14 1258.93,1183.5 1269.35,1187.06 1279.77,1190.91 1290.18,1195.07 1300.6,1199.48 1311.02,1204.02 1321.44,1208.56 1331.85,1212.94 1342.27,1217.05 1352.69,1220.85 1363.11,1224.38 1373.52,1227.73 1383.94,1231.06 1394.36,1234.6 1404.78,1238.57 1415.19,1243.19 1425.61,1248.64 1436.03,1255 1446.45,1262.2 1456.86,1269.98 1467.28,1277.83 1477.7,1285.06 1488.11,1290.82 1498.53,1294.25 1508.95,1294.68 1519.37,1291.75 1529.78,1285.51 1540.2,1276.48 1550.62,1265.51 1561.04,1253.65 1571.45,1241.94 1581.87,1231.24 1592.29,1222.13 1602.71,1214.89 1613.12,1209.5 1623.54,1205.79 1633.96,1203.46 1644.38,1202.2 1654.79,1201.72 1665.21,1201.74 1675.63,1202.07 1686.04,1202.54 1696.46,1203.02 1706.88,1203.43 1717.3,1203.73 1727.71,1203.91 1738.13,1203.96 1748.55,1203.91 1758.97,1203.81 1769.38,1203.67 1779.8,1203.54 1790.22,1203.44 1800.64,1203.38 1811.05,1203.38 1821.47,1203.41 1831.89,1203.48 1842.3,1203.58 1852.72,1203.67 1863.14,1203.75 1873.56,1203.81 1883.97,1203.84 1894.39,1203.84 1904.81,1203.81 1915.23,1203.76 1925.64,1203.7 1936.06,1203.64 1946.48,1203.6 1956.9,1203.56 1967.31,1203.55 1977.73,1203.56 1988.15,1203.59 1998.57,1203.63 2008.98,1203.67 2019.4,1203.72 2029.82,1203.75 2040.23,1203.78 2050.65,1203.78 2061.07,1203.78 2071.49,1203.75 2081.9,1203.72 2092.32,1203.68 2102.74,1203.65 2113.16,1203.62 2123.57,1203.6 2133.99,1203.6 2144.41,1203.61 2154.83,1203.63 2165.24,1203.65 2175.66,1203.68 2186.08,1203.71 2196.5,1203.73 2206.91,1203.75 2217.33,1203.75 2227.75,1203.75 2238.16,1203.73 2248.58,1203.71 2259,1203.68 2269.42,1203.66 2279.83,1203.64 2290.25,1203.62 2300.67,1203.62 2311.09,1203.63 2321.5,1203.64 2331.92,1203.66 2342.34,1203.68 2352.76,1203.7 "/>
<path clip-path="url(#clip940)" d="M1619.48 860.426 L2283.31 860.426 L2283.31 704.906 L1619.48 704.906  Z" fill="#ffffff" fill-rule="evenodd" fill-opacity="1"/>
<polyline clip-path="url(#clip940)" style="stroke:#000000; stroke-linecap:round; stroke-linejoin:round; stroke-width:4; stroke-opacity:1; fill:none" points="1619.48,860.426 2283.31,860.426 2283.31,704.906 1619.48,704.906 1619.48,860.426 "/>
<polyline clip-path="url(#clip940)" style="stroke:#009af9; stroke-linecap:round; stroke-linejoin:round; stroke-width:6; stroke-opacity:1; fill:none" points="1642.63,756.746 1781.52,756.746 "/>
<path clip-path="url(#clip940)" d="M1826.92 740.6 L1826.92 745.16 Q1824.26 743.887 1821.9 743.262 Q1819.53 742.637 1817.34 742.637 Q1813.52 742.637 1811.43 744.118 Q1809.37 745.6 1809.37 748.331 Q1809.37 750.623 1810.74 751.803 Q1812.13 752.961 1815.97 753.678 L1818.79 754.257 Q1824.03 755.253 1826.5 757.776 Q1829 760.276 1829 764.489 Q1829 769.512 1825.62 772.104 Q1822.27 774.697 1815.76 774.697 Q1813.31 774.697 1810.53 774.141 Q1807.78 773.586 1804.81 772.498 L1804.81 767.683 Q1807.66 769.28 1810.39 770.09 Q1813.12 770.901 1815.76 770.901 Q1819.77 770.901 1821.94 769.327 Q1824.12 767.752 1824.12 764.836 Q1824.12 762.29 1822.54 760.854 Q1820.99 759.419 1817.43 758.702 L1814.58 758.146 Q1809.35 757.104 1807.01 754.882 Q1804.67 752.66 1804.67 748.702 Q1804.67 744.118 1807.89 741.479 Q1811.13 738.841 1816.8 738.841 Q1819.23 738.841 1821.76 739.28 Q1824.28 739.72 1826.92 740.6 Z" fill="#000000" fill-rule="nonzero" fill-opacity="1" /><path clip-path="url(#clip940)" d="M1836.29 739.466 L1840.97 739.466 L1840.97 770.09 L1857.8 770.09 L1857.8 774.026 L1836.29 774.026 L1836.29 739.466 Z" fill="#000000" fill-rule="nonzero" fill-opacity="1" /><path clip-path="url(#clip940)" d="M1879.09 757.822 Q1880.6 758.331 1882.01 759.998 Q1883.45 761.665 1884.88 764.581 L1889.63 774.026 L1884.6 774.026 L1880.18 765.16 Q1878.47 761.688 1876.85 760.553 Q1875.25 759.419 1872.47 759.419 L1867.38 759.419 L1867.38 774.026 L1862.71 774.026 L1862.71 739.466 L1873.26 739.466 Q1879.19 739.466 1882.1 741.942 Q1885.02 744.419 1885.02 749.419 Q1885.02 752.683 1883.49 754.836 Q1881.99 756.989 1879.09 757.822 M1867.38 743.308 L1867.38 755.577 L1873.26 755.577 Q1876.64 755.577 1878.35 754.026 Q1880.09 752.452 1880.09 749.419 Q1880.09 746.387 1878.35 744.859 Q1876.64 743.308 1873.26 743.308 L1867.38 743.308 Z" fill="#000000" fill-rule="nonzero" fill-opacity="1" /><path clip-path="url(#clip940)" d="M1927.06 748.864 L1927.06 752.891 Q1925.25 751.966 1923.31 751.503 Q1921.36 751.04 1919.28 751.04 Q1916.11 751.04 1914.51 752.012 Q1912.94 752.984 1912.94 754.928 Q1912.94 756.41 1914.07 757.266 Q1915.21 758.1 1918.63 758.864 L1920.09 759.188 Q1924.63 760.16 1926.52 761.942 Q1928.45 763.702 1928.45 766.873 Q1928.45 770.484 1925.58 772.59 Q1922.73 774.697 1917.73 774.697 Q1915.65 774.697 1913.38 774.28 Q1911.13 773.887 1908.63 773.077 L1908.63 768.678 Q1910.99 769.905 1913.28 770.53 Q1915.58 771.132 1917.82 771.132 Q1920.83 771.132 1922.45 770.114 Q1924.07 769.072 1924.07 767.197 Q1924.07 765.461 1922.89 764.535 Q1921.73 763.609 1917.77 762.752 L1916.29 762.405 Q1912.33 761.572 1910.58 759.859 Q1908.82 758.123 1908.82 755.114 Q1908.82 751.456 1911.41 749.466 Q1914 747.475 1918.77 747.475 Q1921.13 747.475 1923.21 747.822 Q1925.3 748.169 1927.06 748.864 Z" fill="#000000" fill-rule="nonzero" fill-opacity="1" /><path clip-path="url(#clip940)" d="M1939.44 740.739 L1939.44 748.1 L1948.21 748.1 L1948.21 751.41 L1939.44 751.41 L1939.44 765.484 Q1939.44 768.655 1940.3 769.558 Q1941.18 770.461 1943.84 770.461 L1948.21 770.461 L1948.21 774.026 L1943.84 774.026 Q1938.91 774.026 1937.03 772.197 Q1935.16 770.345 1935.16 765.484 L1935.16 751.41 L1932.03 751.41 L1932.03 748.1 L1935.16 748.1 L1935.16 740.739 L1939.44 740.739 Z" fill="#000000" fill-rule="nonzero" fill-opacity="1" /><path clip-path="url(#clip940)" d="M1968.89 738.007 L1973.14 738.007 L1973.14 774.026 L1968.89 774.026 L1968.89 738.007 Z" fill="#000000" fill-rule="nonzero" fill-opacity="1" /><path clip-path="url(#clip940)" d="M1998.58 748.864 L1998.58 752.891 Q1996.78 751.966 1994.83 751.503 Q1992.89 751.04 1990.81 751.04 Q1987.64 751.04 1986.04 752.012 Q1984.46 752.984 1984.46 754.928 Q1984.46 756.41 1985.6 757.266 Q1986.73 758.1 1990.16 758.864 L1991.62 759.188 Q1996.15 760.16 1998.05 761.942 Q1999.97 763.702 1999.97 766.873 Q1999.97 770.484 1997.1 772.59 Q1994.26 774.697 1989.26 774.697 Q1987.17 774.697 1984.9 774.28 Q1982.66 773.887 1980.16 773.077 L1980.16 768.678 Q1982.52 769.905 1984.81 770.53 Q1987.1 771.132 1989.35 771.132 Q1992.36 771.132 1993.98 770.114 Q1995.6 769.072 1995.6 767.197 Q1995.6 765.461 1994.42 764.535 Q1993.26 763.609 1989.3 762.752 L1987.82 762.405 Q1983.86 761.572 1982.1 759.859 Q1980.34 758.123 1980.34 755.114 Q1980.34 751.456 1982.94 749.466 Q1985.53 747.475 1990.3 747.475 Q1992.66 747.475 1994.74 747.822 Q1996.83 748.169 1998.58 748.864 Z" fill="#000000" fill-rule="nonzero" fill-opacity="1" /><path clip-path="url(#clip940)" d="M2017.22 739.466 L2046.45 739.466 L2046.45 743.401 L2034.19 743.401 L2034.19 774.026 L2029.49 774.026 L2029.49 743.401 L2017.22 743.401 L2017.22 739.466 Z" fill="#000000" fill-rule="nonzero" fill-opacity="1" /><path clip-path="url(#clip940)" d="M2055.41 770.09 L2071.73 770.09 L2071.73 774.026 L2049.79 774.026 L2049.79 770.09 Q2052.45 767.336 2057.03 762.706 Q2061.64 758.053 2062.82 756.711 Q2065.07 754.188 2065.95 752.452 Q2066.85 750.692 2066.85 749.003 Q2066.85 746.248 2064.9 744.512 Q2062.98 742.776 2059.88 742.776 Q2057.68 742.776 2055.23 743.54 Q2052.8 744.304 2050.02 745.854 L2050.02 741.132 Q2052.84 739.998 2055.3 739.419 Q2057.75 738.841 2059.79 738.841 Q2065.16 738.841 2068.35 741.526 Q2071.55 744.211 2071.55 748.702 Q2071.55 750.831 2070.74 752.753 Q2069.95 754.651 2067.84 757.243 Q2067.26 757.915 2064.16 761.132 Q2061.06 764.327 2055.41 770.09 Z" fill="#000000" fill-rule="nonzero" fill-opacity="1" /><path clip-path="url(#clip940)" d="M2081.5 752.498 L2111.18 752.498 L2111.18 756.387 L2081.5 756.387 L2081.5 752.498 M2081.5 761.942 L2111.18 761.942 L2111.18 765.877 L2081.5 765.877 L2081.5 761.942 Z" fill="#000000" fill-rule="nonzero" fill-opacity="1" /><path clip-path="url(#clip940)" d="M2131.27 757.614 Q2127.94 757.614 2126.01 759.396 Q2124.12 761.178 2124.12 764.303 Q2124.12 767.428 2126.01 769.211 Q2127.94 770.993 2131.27 770.993 Q2134.6 770.993 2136.52 769.211 Q2138.44 767.405 2138.44 764.303 Q2138.44 761.178 2136.52 759.396 Q2134.63 757.614 2131.27 757.614 M2126.59 755.623 Q2123.58 754.882 2121.89 752.822 Q2120.23 750.762 2120.23 747.799 Q2120.23 743.655 2123.17 741.248 Q2126.13 738.841 2131.27 738.841 Q2136.43 738.841 2139.37 741.248 Q2142.31 743.655 2142.31 747.799 Q2142.31 750.762 2140.62 752.822 Q2138.95 754.882 2135.97 755.623 Q2139.35 756.41 2141.22 758.702 Q2143.12 760.993 2143.12 764.303 Q2143.12 769.327 2140.04 772.012 Q2136.99 774.697 2131.27 774.697 Q2125.55 774.697 2122.47 772.012 Q2119.42 769.327 2119.42 764.303 Q2119.42 760.993 2121.32 758.702 Q2123.21 756.41 2126.59 755.623 M2124.88 748.239 Q2124.88 750.924 2126.55 752.428 Q2128.24 753.933 2131.27 753.933 Q2134.28 753.933 2135.97 752.428 Q2137.68 750.924 2137.68 748.239 Q2137.68 745.554 2135.97 744.049 Q2134.28 742.544 2131.27 742.544 Q2128.24 742.544 2126.55 744.049 Q2124.88 745.554 2124.88 748.239 Z" fill="#000000" fill-rule="nonzero" fill-opacity="1" /><path clip-path="url(#clip940)" d="M2161.43 742.544 Q2157.82 742.544 2155.99 746.109 Q2154.19 749.651 2154.19 756.78 Q2154.19 763.887 2155.99 767.452 Q2157.82 770.993 2161.43 770.993 Q2165.07 770.993 2166.87 767.452 Q2168.7 763.887 2168.7 756.78 Q2168.7 749.651 2166.87 746.109 Q2165.07 742.544 2161.43 742.544 M2161.43 738.841 Q2167.24 738.841 2170.3 743.447 Q2173.38 748.03 2173.38 756.78 Q2173.38 765.507 2170.3 770.114 Q2167.24 774.697 2161.43 774.697 Q2155.62 774.697 2152.54 770.114 Q2149.49 765.507 2149.49 756.78 Q2149.49 748.03 2152.54 743.447 Q2155.62 738.841 2161.43 738.841 Z" fill="#000000" fill-rule="nonzero" fill-opacity="1" /><path clip-path="url(#clip940)" d="M2216.25 753.077 Q2217.84 750.206 2220.06 748.841 Q2222.29 747.475 2225.3 747.475 Q2229.35 747.475 2231.55 750.322 Q2233.75 753.146 2233.75 758.378 L2233.75 774.026 L2229.46 774.026 L2229.46 758.516 Q2229.46 754.79 2228.14 752.984 Q2226.82 751.178 2224.12 751.178 Q2220.81 751.178 2218.88 753.378 Q2216.96 755.577 2216.96 759.373 L2216.96 774.026 L2212.68 774.026 L2212.68 758.516 Q2212.68 754.766 2211.36 752.984 Q2210.04 751.178 2207.29 751.178 Q2204.02 751.178 2202.1 753.401 Q2200.18 755.6 2200.18 759.373 L2200.18 774.026 L2195.9 774.026 L2195.9 748.1 L2200.18 748.1 L2200.18 752.128 Q2201.64 749.743 2203.68 748.609 Q2205.71 747.475 2208.51 747.475 Q2211.34 747.475 2213.31 748.91 Q2215.3 750.345 2216.25 753.077 Z" fill="#000000" fill-rule="nonzero" fill-opacity="1" /><path clip-path="url(#clip940)" d="M2258.77 748.864 L2258.77 752.891 Q2256.96 751.966 2255.02 751.503 Q2253.07 751.04 2250.99 751.04 Q2247.82 751.04 2246.22 752.012 Q2244.65 752.984 2244.65 754.928 Q2244.65 756.41 2245.78 757.266 Q2246.92 758.1 2250.34 758.864 L2251.8 759.188 Q2256.34 760.16 2258.24 761.942 Q2260.16 763.702 2260.16 766.873 Q2260.16 770.484 2257.29 772.59 Q2254.44 774.697 2249.44 774.697 Q2247.36 774.697 2245.09 774.28 Q2242.84 773.887 2240.34 773.077 L2240.34 768.678 Q2242.7 769.905 2245 770.53 Q2247.29 771.132 2249.53 771.132 Q2252.54 771.132 2254.16 770.114 Q2255.78 769.072 2255.78 767.197 Q2255.78 765.461 2254.6 764.535 Q2253.44 763.609 2249.49 762.752 L2248 762.405 Q2244.05 761.572 2242.29 759.859 Q2240.53 758.123 2240.53 755.114 Q2240.53 751.456 2243.12 749.466 Q2245.71 747.475 2250.48 747.475 Q2252.84 747.475 2254.93 747.822 Q2257.01 748.169 2258.77 748.864 Z" fill="#000000" fill-rule="nonzero" fill-opacity="1" /><polyline clip-path="url(#clip940)" style="stroke:#e26f46; stroke-linecap:round; stroke-linejoin:round; stroke-width:6; stroke-opacity:1; fill:none" points="1642.63,808.586 1781.52,808.586 "/>
<path clip-path="url(#clip940)" d="M1826.92 792.44 L1826.92 797 Q1824.26 795.727 1821.9 795.102 Q1819.53 794.477 1817.34 794.477 Q1813.52 794.477 1811.43 795.958 Q1809.37 797.44 1809.37 800.171 Q1809.37 802.463 1810.74 803.643 Q1812.13 804.801 1815.97 805.518 L1818.79 806.097 Q1824.03 807.093 1826.5 809.616 Q1829 812.116 1829 816.329 Q1829 821.352 1825.62 823.944 Q1822.27 826.537 1815.76 826.537 Q1813.31 826.537 1810.53 825.981 Q1807.78 825.426 1804.81 824.338 L1804.81 819.523 Q1807.66 821.12 1810.39 821.93 Q1813.12 822.741 1815.76 822.741 Q1819.77 822.741 1821.94 821.167 Q1824.12 819.592 1824.12 816.676 Q1824.12 814.13 1822.54 812.694 Q1820.99 811.259 1817.43 810.542 L1814.58 809.986 Q1809.35 808.944 1807.01 806.722 Q1804.67 804.5 1804.67 800.542 Q1804.67 795.958 1807.89 793.319 Q1811.13 790.681 1816.8 790.681 Q1819.23 790.681 1821.76 791.12 Q1824.28 791.56 1826.92 792.44 Z" fill="#000000" fill-rule="nonzero" fill-opacity="1" /><path clip-path="url(#clip940)" d="M1836.29 791.306 L1840.97 791.306 L1840.97 821.93 L1857.8 821.93 L1857.8 825.866 L1836.29 825.866 L1836.29 791.306 Z" fill="#000000" fill-rule="nonzero" fill-opacity="1" /><path clip-path="url(#clip940)" d="M1879.09 809.662 Q1880.6 810.171 1882.01 811.838 Q1883.45 813.505 1884.88 816.421 L1889.63 825.866 L1884.6 825.866 L1880.18 817 Q1878.47 813.528 1876.85 812.393 Q1875.25 811.259 1872.47 811.259 L1867.38 811.259 L1867.38 825.866 L1862.71 825.866 L1862.71 791.306 L1873.26 791.306 Q1879.19 791.306 1882.1 793.782 Q1885.02 796.259 1885.02 801.259 Q1885.02 804.523 1883.49 806.676 Q1881.99 808.829 1879.09 809.662 M1867.38 795.148 L1867.38 807.417 L1873.26 807.417 Q1876.64 807.417 1878.35 805.866 Q1880.09 804.292 1880.09 801.259 Q1880.09 798.227 1878.35 796.699 Q1876.64 795.148 1873.26 795.148 L1867.38 795.148 Z" fill="#000000" fill-rule="nonzero" fill-opacity="1" /><path clip-path="url(#clip940)" d="M1927.06 800.704 L1927.06 804.731 Q1925.25 803.806 1923.31 803.343 Q1921.36 802.88 1919.28 802.88 Q1916.11 802.88 1914.51 803.852 Q1912.94 804.824 1912.94 806.768 Q1912.94 808.25 1914.07 809.106 Q1915.21 809.94 1918.63 810.704 L1920.09 811.028 Q1924.63 812 1926.52 813.782 Q1928.45 815.542 1928.45 818.713 Q1928.45 822.324 1925.58 824.43 Q1922.73 826.537 1917.73 826.537 Q1915.65 826.537 1913.38 826.12 Q1911.13 825.727 1908.63 824.917 L1908.63 820.518 Q1910.99 821.745 1913.28 822.37 Q1915.58 822.972 1917.82 822.972 Q1920.83 822.972 1922.45 821.954 Q1924.07 820.912 1924.07 819.037 Q1924.07 817.301 1922.89 816.375 Q1921.73 815.449 1917.77 814.592 L1916.29 814.245 Q1912.33 813.412 1910.58 811.699 Q1908.82 809.963 1908.82 806.954 Q1908.82 803.296 1911.41 801.306 Q1914 799.315 1918.77 799.315 Q1921.13 799.315 1923.21 799.662 Q1925.3 800.009 1927.06 800.704 Z" fill="#000000" fill-rule="nonzero" fill-opacity="1" /><path clip-path="url(#clip940)" d="M1939.44 792.579 L1939.44 799.94 L1948.21 799.94 L1948.21 803.25 L1939.44 803.25 L1939.44 817.324 Q1939.44 820.495 1940.3 821.398 Q1941.18 822.301 1943.84 822.301 L1948.21 822.301 L1948.21 825.866 L1943.84 825.866 Q1938.91 825.866 1937.03 824.037 Q1935.16 822.185 1935.16 817.324 L1935.16 803.25 L1932.03 803.25 L1932.03 799.94 L1935.16 799.94 L1935.16 792.579 L1939.44 792.579 Z" fill="#000000" fill-rule="nonzero" fill-opacity="1" /><path clip-path="url(#clip940)" d="M1968.89 789.847 L1973.14 789.847 L1973.14 825.866 L1968.89 825.866 L1968.89 789.847 Z" fill="#000000" fill-rule="nonzero" fill-opacity="1" /><path clip-path="url(#clip940)" d="M1998.58 800.704 L1998.58 804.731 Q1996.78 803.806 1994.83 803.343 Q1992.89 802.88 1990.81 802.88 Q1987.64 802.88 1986.04 803.852 Q1984.46 804.824 1984.46 806.768 Q1984.46 808.25 1985.6 809.106 Q1986.73 809.94 1990.16 810.704 L1991.62 811.028 Q1996.15 812 1998.05 813.782 Q1999.97 815.542 1999.97 818.713 Q1999.97 822.324 1997.1 824.43 Q1994.26 826.537 1989.26 826.537 Q1987.17 826.537 1984.9 826.12 Q1982.66 825.727 1980.16 824.917 L1980.16 820.518 Q1982.52 821.745 1984.81 822.37 Q1987.1 822.972 1989.35 822.972 Q1992.36 822.972 1993.98 821.954 Q1995.6 820.912 1995.6 819.037 Q1995.6 817.301 1994.42 816.375 Q1993.26 815.449 1989.3 814.592 L1987.82 814.245 Q1983.86 813.412 1982.1 811.699 Q1980.34 809.963 1980.34 806.954 Q1980.34 803.296 1982.94 801.306 Q1985.53 799.315 1990.3 799.315 Q1992.66 799.315 1994.74 799.662 Q1996.83 800.009 1998.58 800.704 Z" fill="#000000" fill-rule="nonzero" fill-opacity="1" /><path clip-path="url(#clip940)" d="M2017.22 791.306 L2046.45 791.306 L2046.45 795.241 L2034.19 795.241 L2034.19 825.866 L2029.49 825.866 L2029.49 795.241 L2017.22 795.241 L2017.22 791.306 Z" fill="#000000" fill-rule="nonzero" fill-opacity="1" /><path clip-path="url(#clip940)" d="M2055.41 821.93 L2071.73 821.93 L2071.73 825.866 L2049.79 825.866 L2049.79 821.93 Q2052.45 819.176 2057.03 814.546 Q2061.64 809.893 2062.82 808.551 Q2065.07 806.028 2065.95 804.292 Q2066.85 802.532 2066.85 800.843 Q2066.85 798.088 2064.9 796.352 Q2062.98 794.616 2059.88 794.616 Q2057.68 794.616 2055.23 795.38 Q2052.8 796.144 2050.02 797.694 L2050.02 792.972 Q2052.84 791.838 2055.3 791.259 Q2057.75 790.681 2059.79 790.681 Q2065.16 790.681 2068.35 793.366 Q2071.55 796.051 2071.55 800.542 Q2071.55 802.671 2070.74 804.593 Q2069.95 806.491 2067.84 809.083 Q2067.26 809.755 2064.16 812.972 Q2061.06 816.167 2055.41 821.93 Z" fill="#000000" fill-rule="nonzero" fill-opacity="1" /><path clip-path="url(#clip940)" d="M2081.5 804.338 L2111.18 804.338 L2111.18 808.227 L2081.5 808.227 L2081.5 804.338 M2081.5 813.782 L2111.18 813.782 L2111.18 817.717 L2081.5 817.717 L2081.5 813.782 Z" fill="#000000" fill-rule="nonzero" fill-opacity="1" /><path clip-path="url(#clip940)" d="M2122.08 821.93 L2129.72 821.93 L2129.72 795.565 L2121.41 797.231 L2121.41 792.972 L2129.67 791.306 L2134.35 791.306 L2134.35 821.93 L2141.99 821.93 L2141.99 825.866 L2122.08 825.866 L2122.08 821.93 Z" fill="#000000" fill-rule="nonzero" fill-opacity="1" /><path clip-path="url(#clip940)" d="M2161.43 794.384 Q2157.82 794.384 2155.99 797.949 Q2154.19 801.491 2154.19 808.62 Q2154.19 815.727 2155.99 819.292 Q2157.82 822.833 2161.43 822.833 Q2165.07 822.833 2166.87 819.292 Q2168.7 815.727 2168.7 808.62 Q2168.7 801.491 2166.87 797.949 Q2165.07 794.384 2161.43 794.384 M2161.43 790.681 Q2167.24 790.681 2170.3 795.287 Q2173.38 799.87 2173.38 808.62 Q2173.38 817.347 2170.3 821.954 Q2167.24 826.537 2161.43 826.537 Q2155.62 826.537 2152.54 821.954 Q2149.49 817.347 2149.49 808.62 Q2149.49 799.87 2152.54 795.287 Q2155.62 790.681 2161.43 790.681 Z" fill="#000000" fill-rule="nonzero" fill-opacity="1" /><path clip-path="url(#clip940)" d="M2216.25 804.917 Q2217.84 802.046 2220.06 800.681 Q2222.29 799.315 2225.3 799.315 Q2229.35 799.315 2231.55 802.162 Q2233.75 804.986 2233.75 810.218 L2233.75 825.866 L2229.46 825.866 L2229.46 810.356 Q2229.46 806.63 2228.14 804.824 Q2226.82 803.018 2224.12 803.018 Q2220.81 803.018 2218.88 805.218 Q2216.96 807.417 2216.96 811.213 L2216.96 825.866 L2212.68 825.866 L2212.68 810.356 Q2212.68 806.606 2211.36 804.824 Q2210.04 803.018 2207.29 803.018 Q2204.02 803.018 2202.1 805.241 Q2200.18 807.44 2200.18 811.213 L2200.18 825.866 L2195.9 825.866 L2195.9 799.94 L2200.18 799.94 L2200.18 803.968 Q2201.64 801.583 2203.68 800.449 Q2205.71 799.315 2208.51 799.315 Q2211.34 799.315 2213.31 800.75 Q2215.3 802.185 2216.25 804.917 Z" fill="#000000" fill-rule="nonzero" fill-opacity="1" /><path clip-path="url(#clip940)" d="M2258.77 800.704 L2258.77 804.731 Q2256.96 803.806 2255.02 803.343 Q2253.07 802.88 2250.99 802.88 Q2247.82 802.88 2246.22 803.852 Q2244.65 804.824 2244.65 806.768 Q2244.65 808.25 2245.78 809.106 Q2246.92 809.94 2250.34 810.704 L2251.8 811.028 Q2256.34 812 2258.24 813.782 Q2260.16 815.542 2260.16 818.713 Q2260.16 822.324 2257.29 824.43 Q2254.44 826.537 2249.44 826.537 Q2247.36 826.537 2245.09 826.12 Q2242.84 825.727 2240.34 824.917 L2240.34 820.518 Q2242.7 821.745 2245 822.37 Q2247.29 822.972 2249.53 822.972 Q2252.54 822.972 2254.16 821.954 Q2255.78 820.912 2255.78 819.037 Q2255.78 817.301 2254.6 816.375 Q2253.44 815.449 2249.49 814.592 L2248 814.245 Q2244.05 813.412 2242.29 811.699 Q2240.53 809.963 2240.53 806.954 Q2240.53 803.296 2243.12 801.306 Q2245.71 799.315 2250.48 799.315 Q2252.84 799.315 2254.93 799.662 Q2257.01 800.009 2258.77 800.704 Z" fill="#000000" fill-rule="nonzero" fill-opacity="1" /></svg>
