<?xml version="1.0" encoding="utf-8"?>
<svg xmlns="http://www.w3.org/2000/svg" xmlns:xlink="http://www.w3.org/1999/xlink" width="600" height="400" viewBox="0 0 2400 1600">
<defs>
  <clipPath id="clip820">
    <rect x="0" y="0" width="2400" height="1600"/>
  </clipPath>
</defs>
<path clip-path="url(#clip820)" d="M0 1600 L2400 1600 L2400 0 L0 0  Z" fill="#ffffff" fill-rule="evenodd" fill-opacity="1"/>
<defs>
  <clipPath id="clip821">
    <rect x="281" y="0" width="2073" height="81"/>
  </clipPath>
</defs>
<path clip-path="url(#clip820)" d="M281.088 663.18 L2352.76 663.18 L2352.76 127.244 L281.088 127.244  Z" fill="#ffffff" fill-rule="evenodd" fill-opacity="1"/>
<defs>
  <clipPath id="clip822">
    <rect x="281" y="127" width="2073" height="537"/>
  </clipPath>
</defs>
<polyline clip-path="url(#clip822)" style="stroke:#000000; stroke-linecap:round; stroke-linejoin:round; stroke-width:2; stroke-opacity:0.1; fill:none" points="281.088,663.18 281.088,127.244 "/>
<polyline clip-path="url(#clip822)" style="stroke:#000000; stroke-linecap:round; stroke-linejoin:round; stroke-width:2; stroke-opacity:0.1; fill:none" points="1057.96,663.18 1057.96,127.244 "/>
<polyline clip-path="url(#clip822)" style="stroke:#000000; stroke-linecap:round; stroke-linejoin:round; stroke-width:2; stroke-opacity:0.1; fill:none" points="1316.92,663.18 1316.92,127.244 "/>
<polyline clip-path="url(#clip822)" style="stroke:#000000; stroke-linecap:round; stroke-linejoin:round; stroke-width:2; stroke-opacity:0.1; fill:none" points="1575.88,663.18 1575.88,127.244 "/>
<polyline clip-path="url(#clip822)" style="stroke:#000000; stroke-linecap:round; stroke-linejoin:round; stroke-width:2; stroke-opacity:0.1; fill:none" points="2352.76,663.18 2352.76,127.244 "/>
<polyline clip-path="url(#clip822)" style="stroke:#000000; stroke-linecap:round; stroke-linejoin:round; stroke-width:2; stroke-opacity:0.1; fill:none" points="281.088,573.857 2352.76,573.857 "/>
<polyline clip-path="url(#clip822)" style="stroke:#000000; stroke-linecap:round; stroke-linejoin:round; stroke-width:2; stroke-opacity:0.1; fill:none" points="281.088,350.551 2352.76,350.551 "/>
<polyline clip-path="url(#clip822)" style="stroke:#000000; stroke-linecap:round; stroke-linejoin:round; stroke-width:2; stroke-opacity:0.1; fill:none" points="281.088,187.079 2352.76,187.079 "/>
<polyline clip-path="url(#clip822)" style="stroke:#000000; stroke-linecap:round; stroke-linejoin:round; stroke-width:2; stroke-opacity:0.1; fill:none" points="281.088,127.244 2352.76,127.244 "/>
<polyline clip-path="url(#clip820)" style="stroke:#000000; stroke-linecap:round; stroke-linejoin:round; stroke-width:4; stroke-opacity:1; fill:none" points="281.088,663.18 2352.76,663.18 "/>
<polyline clip-path="url(#clip820)" style="stroke:#000000; stroke-linecap:round; stroke-linejoin:round; stroke-width:4; stroke-opacity:1; fill:none" points="281.088,663.18 281.088,644.282 "/>
<polyline clip-path="url(#clip820)" style="stroke:#000000; stroke-linecap:round; stroke-linejoin:round; stroke-width:4; stroke-opacity:1; fill:none" points="1057.96,663.18 1057.96,644.282 "/>
<polyline clip-path="url(#clip820)" style="stroke:#000000; stroke-linecap:round; stroke-linejoin:round; stroke-width:4; stroke-opacity:1; fill:none" points="1316.92,663.18 1316.92,644.282 "/>
<polyline clip-path="url(#clip820)" style="stroke:#000000; stroke-linecap:round; stroke-linejoin:round; stroke-width:4; stroke-opacity:1; fill:none" points="1575.88,663.18 1575.88,644.282 "/>
<polyline clip-path="url(#clip820)" style="stroke:#000000; stroke-linecap:round; stroke-linejoin:round; stroke-width:4; stroke-opacity:1; fill:none" points="2352.76,663.18 2352.76,644.282 "/>
<path clip-path="url(#clip820)" d="M212.535 708.751 L242.211 708.751 L242.211 712.686 L212.535 712.686 L212.535 708.751 Z" fill="#000000" fill-rule="nonzero" fill-opacity="1" /><path clip-path="url(#clip820)" d="M253.114 721.645 L260.753 721.645 L260.753 695.279 L252.443 696.946 L252.443 692.687 L260.706 691.02 L265.382 691.02 L265.382 721.645 L273.021 721.645 L273.021 725.58 L253.114 725.58 L253.114 721.645 Z" fill="#000000" fill-rule="nonzero" fill-opacity="1" /><path clip-path="url(#clip820)" d="M282.466 719.7 L287.35 719.7 L287.35 725.58 L282.466 725.58 L282.466 719.7 Z" fill="#000000" fill-rule="nonzero" fill-opacity="1" /><path clip-path="url(#clip820)" d="M307.535 694.099 Q303.924 694.099 302.095 697.663 Q300.29 701.205 300.29 708.335 Q300.29 715.441 302.095 719.006 Q303.924 722.547 307.535 722.547 Q311.169 722.547 312.975 719.006 Q314.803 715.441 314.803 708.335 Q314.803 701.205 312.975 697.663 Q311.169 694.099 307.535 694.099 M307.535 690.395 Q313.345 690.395 316.401 695.001 Q319.479 699.585 319.479 708.335 Q319.479 717.061 316.401 721.668 Q313.345 726.251 307.535 726.251 Q301.725 726.251 298.646 721.668 Q295.591 717.061 295.591 708.335 Q295.591 699.585 298.646 695.001 Q301.725 690.395 307.535 690.395 Z" fill="#000000" fill-rule="nonzero" fill-opacity="1" /><path clip-path="url(#clip820)" d="M337.697 694.099 Q334.086 694.099 332.257 697.663 Q330.451 701.205 330.451 708.335 Q330.451 715.441 332.257 719.006 Q334.086 722.547 337.697 722.547 Q341.331 722.547 343.137 719.006 Q344.965 715.441 344.965 708.335 Q344.965 701.205 343.137 697.663 Q341.331 694.099 337.697 694.099 M337.697 690.395 Q343.507 690.395 346.562 695.001 Q349.641 699.585 349.641 708.335 Q349.641 717.061 346.562 721.668 Q343.507 726.251 337.697 726.251 Q331.887 726.251 328.808 721.668 Q325.752 717.061 325.752 708.335 Q325.752 699.585 328.808 695.001 Q331.887 690.395 337.697 690.395 Z" fill="#000000" fill-rule="nonzero" fill-opacity="1" /><path clip-path="url(#clip820)" d="M989.908 708.751 L1019.58 708.751 L1019.58 712.686 L989.908 712.686 L989.908 708.751 Z" fill="#000000" fill-rule="nonzero" fill-opacity="1" /><path clip-path="url(#clip820)" d="M1039.68 694.099 Q1036.07 694.099 1034.24 697.663 Q1032.43 701.205 1032.43 708.335 Q1032.43 715.441 1034.24 719.006 Q1036.07 722.547 1039.68 722.547 Q1043.31 722.547 1045.12 719.006 Q1046.95 715.441 1046.95 708.335 Q1046.95 701.205 1045.12 697.663 Q1043.31 694.099 1039.68 694.099 M1039.68 690.395 Q1045.49 690.395 1048.54 695.001 Q1051.62 699.585 1051.62 708.335 Q1051.62 717.061 1048.54 721.668 Q1045.49 726.251 1039.68 726.251 Q1033.87 726.251 1030.79 721.668 Q1027.73 717.061 1027.73 708.335 Q1027.73 699.585 1030.79 695.001 Q1033.87 690.395 1039.68 690.395 Z" fill="#000000" fill-rule="nonzero" fill-opacity="1" /><path clip-path="url(#clip820)" d="M1059.84 719.7 L1064.72 719.7 L1064.72 725.58 L1059.84 725.58 L1059.84 719.7 Z" fill="#000000" fill-rule="nonzero" fill-opacity="1" /><path clip-path="url(#clip820)" d="M1078.94 721.645 L1095.26 721.645 L1095.26 725.58 L1073.31 725.58 L1073.31 721.645 Q1075.97 718.89 1080.56 714.26 Q1085.16 709.608 1086.34 708.265 Q1088.59 705.742 1089.47 704.006 Q1090.37 702.247 1090.37 700.557 Q1090.37 697.802 1088.43 696.066 Q1086.51 694.33 1083.4 694.33 Q1081.2 694.33 1078.75 695.094 Q1076.32 695.858 1073.54 697.409 L1073.54 692.687 Q1076.37 691.552 1078.82 690.974 Q1081.27 690.395 1083.31 690.395 Q1088.68 690.395 1091.88 693.08 Q1095.07 695.765 1095.07 700.256 Q1095.07 702.386 1094.26 704.307 Q1093.47 706.205 1091.37 708.798 Q1090.79 709.469 1087.69 712.686 Q1084.58 715.881 1078.94 721.645 Z" fill="#000000" fill-rule="nonzero" fill-opacity="1" /><path clip-path="url(#clip820)" d="M1105.12 691.02 L1123.47 691.02 L1123.47 694.955 L1109.4 694.955 L1109.4 703.427 Q1110.42 703.08 1111.44 702.918 Q1112.45 702.733 1113.47 702.733 Q1119.26 702.733 1122.64 705.904 Q1126.02 709.075 1126.02 714.492 Q1126.02 720.071 1122.55 723.172 Q1119.07 726.251 1112.76 726.251 Q1110.58 726.251 1108.31 725.881 Q1106.07 725.51 1103.66 724.77 L1103.66 720.071 Q1105.74 721.205 1107.96 721.76 Q1110.19 722.316 1112.66 722.316 Q1116.67 722.316 1119 720.21 Q1121.34 718.103 1121.34 714.492 Q1121.34 710.881 1119 708.774 Q1116.67 706.668 1112.66 706.668 Q1110.79 706.668 1108.91 707.085 Q1107.06 707.501 1105.12 708.381 L1105.12 691.02 Z" fill="#000000" fill-rule="nonzero" fill-opacity="1" /><path clip-path="url(#clip820)" d="M1279.23 694.099 Q1275.61 694.099 1273.79 697.663 Q1271.98 701.205 1271.98 708.335 Q1271.98 715.441 1273.79 719.006 Q1275.61 722.547 1279.23 722.547 Q1282.86 722.547 1284.67 719.006 Q1286.49 715.441 1286.49 708.335 Q1286.49 701.205 1284.67 697.663 Q1282.86 694.099 1279.23 694.099 M1279.23 690.395 Q1285.04 690.395 1288.09 695.001 Q1291.17 699.585 1291.17 708.335 Q1291.17 717.061 1288.09 721.668 Q1285.04 726.251 1279.23 726.251 Q1273.42 726.251 1270.34 721.668 Q1267.28 717.061 1267.28 708.335 Q1267.28 699.585 1270.34 695.001 Q1273.42 690.395 1279.23 690.395 Z" fill="#000000" fill-rule="nonzero" fill-opacity="1" /><path clip-path="url(#clip820)" d="M1299.39 719.7 L1304.27 719.7 L1304.27 725.58 L1299.39 725.58 L1299.39 719.7 Z" fill="#000000" fill-rule="nonzero" fill-opacity="1" /><path clip-path="url(#clip820)" d="M1324.46 694.099 Q1320.85 694.099 1319.02 697.663 Q1317.21 701.205 1317.21 708.335 Q1317.21 715.441 1319.02 719.006 Q1320.85 722.547 1324.46 722.547 Q1328.09 722.547 1329.9 719.006 Q1331.73 715.441 1331.73 708.335 Q1331.73 701.205 1329.9 697.663 Q1328.09 694.099 1324.46 694.099 M1324.46 690.395 Q1330.27 690.395 1333.32 695.001 Q1336.4 699.585 1336.4 708.335 Q1336.4 717.061 1333.32 721.668 Q1330.27 726.251 1324.46 726.251 Q1318.65 726.251 1315.57 721.668 Q1312.51 717.061 1312.51 708.335 Q1312.51 699.585 1315.57 695.001 Q1318.65 690.395 1324.46 690.395 Z" fill="#000000" fill-rule="nonzero" fill-opacity="1" /><path clip-path="url(#clip820)" d="M1354.62 694.099 Q1351.01 694.099 1349.18 697.663 Q1347.37 701.205 1347.37 708.335 Q1347.37 715.441 1349.18 719.006 Q1351.01 722.547 1354.62 722.547 Q1358.25 722.547 1360.06 719.006 Q1361.89 715.441 1361.89 708.335 Q1361.89 701.205 1360.06 697.663 Q1358.25 694.099 1354.62 694.099 M1354.62 690.395 Q1360.43 690.395 1363.48 695.001 Q1366.56 699.585 1366.56 708.335 Q1366.56 717.061 1363.48 721.668 Q1360.43 726.251 1354.62 726.251 Q1348.81 726.251 1345.73 721.668 Q1342.67 717.061 1342.67 708.335 Q1342.67 699.585 1345.73 695.001 Q1348.81 690.395 1354.62 690.395 Z" fill="#000000" fill-rule="nonzero" fill-opacity="1" /><path clip-path="url(#clip820)" d="M1538.68 694.099 Q1535.07 694.099 1533.24 697.663 Q1531.44 701.205 1531.44 708.335 Q1531.44 715.441 1533.24 719.006 Q1535.07 722.547 1538.68 722.547 Q1542.32 722.547 1544.12 719.006 Q1545.95 715.441 1545.95 708.335 Q1545.95 701.205 1544.12 697.663 Q1542.32 694.099 1538.68 694.099 M1538.68 690.395 Q1544.49 690.395 1547.55 695.001 Q1550.63 699.585 1550.63 708.335 Q1550.63 717.061 1547.55 721.668 Q1544.49 726.251 1538.68 726.251 Q1532.87 726.251 1529.79 721.668 Q1526.74 717.061 1526.74 708.335 Q1526.74 699.585 1529.79 695.001 Q1532.87 690.395 1538.68 690.395 Z" fill="#000000" fill-rule="nonzero" fill-opacity="1" /><path clip-path="url(#clip820)" d="M1558.84 719.7 L1563.73 719.7 L1563.73 725.58 L1558.84 725.58 L1558.84 719.7 Z" fill="#000000" fill-rule="nonzero" fill-opacity="1" /><path clip-path="url(#clip820)" d="M1577.94 721.645 L1594.26 721.645 L1594.26 725.58 L1572.32 725.58 L1572.32 721.645 Q1574.98 718.89 1579.56 714.26 Q1584.17 709.608 1585.35 708.265 Q1587.59 705.742 1588.47 704.006 Q1589.38 702.247 1589.38 700.557 Q1589.38 697.802 1587.43 696.066 Q1585.51 694.33 1582.41 694.33 Q1580.21 694.33 1577.76 695.094 Q1575.33 695.858 1572.55 697.409 L1572.55 692.687 Q1575.37 691.552 1577.82 690.974 Q1580.28 690.395 1582.32 690.395 Q1587.69 690.395 1590.88 693.08 Q1594.07 695.765 1594.07 700.256 Q1594.07 702.386 1593.26 704.307 Q1592.48 706.205 1590.37 708.798 Q1589.79 709.469 1586.69 712.686 Q1583.59 715.881 1577.94 721.645 Z" fill="#000000" fill-rule="nonzero" fill-opacity="1" /><path clip-path="url(#clip820)" d="M1604.12 691.02 L1622.48 691.02 L1622.48 694.955 L1608.4 694.955 L1608.4 703.427 Q1609.42 703.08 1610.44 702.918 Q1611.46 702.733 1612.48 702.733 Q1618.26 702.733 1621.64 705.904 Q1625.02 709.075 1625.02 714.492 Q1625.02 720.071 1621.55 723.172 Q1618.08 726.251 1611.76 726.251 Q1609.58 726.251 1607.32 725.881 Q1605.07 725.51 1602.66 724.77 L1602.66 720.071 Q1604.75 721.205 1606.97 721.76 Q1609.19 722.316 1611.67 722.316 Q1615.67 722.316 1618.01 720.21 Q1620.35 718.103 1620.35 714.492 Q1620.35 710.881 1618.01 708.774 Q1615.67 706.668 1611.67 706.668 Q1609.79 706.668 1607.92 707.085 Q1606.07 707.501 1604.12 708.381 L1604.12 691.02 Z" fill="#000000" fill-rule="nonzero" fill-opacity="1" /><path clip-path="url(#clip820)" d="M2304.83 721.645 L2312.47 721.645 L2312.47 695.279 L2304.16 696.946 L2304.16 692.687 L2312.42 691.02 L2317.1 691.02 L2317.1 721.645 L2324.74 721.645 L2324.74 725.58 L2304.83 725.58 L2304.83 721.645 Z" fill="#000000" fill-rule="nonzero" fill-opacity="1" /><path clip-path="url(#clip820)" d="M2334.18 719.7 L2339.06 719.7 L2339.06 725.58 L2334.18 725.58 L2334.18 719.7 Z" fill="#000000" fill-rule="nonzero" fill-opacity="1" /><path clip-path="url(#clip820)" d="M2359.25 694.099 Q2355.64 694.099 2353.81 697.663 Q2352 701.205 2352 708.335 Q2352 715.441 2353.81 719.006 Q2355.64 722.547 2359.25 722.547 Q2362.88 722.547 2364.69 719.006 Q2366.52 715.441 2366.52 708.335 Q2366.52 701.205 2364.69 697.663 Q2362.88 694.099 2359.25 694.099 M2359.25 690.395 Q2365.06 690.395 2368.11 695.001 Q2371.19 699.585 2371.19 708.335 Q2371.19 717.061 2368.11 721.668 Q2365.06 726.251 2359.25 726.251 Q2353.44 726.251 2350.36 721.668 Q2347.3 717.061 2347.3 708.335 Q2347.3 699.585 2350.36 695.001 Q2353.44 690.395 2359.25 690.395 Z" fill="#000000" fill-rule="nonzero" fill-opacity="1" /><path clip-path="url(#clip820)" d="M2389.41 694.099 Q2385.8 694.099 2383.97 697.663 Q2382.17 701.205 2382.17 708.335 Q2382.17 715.441 2383.97 719.006 Q2385.8 722.547 2389.41 722.547 Q2393.05 722.547 2394.85 719.006 Q2396.68 715.441 2396.68 708.335 Q2396.68 701.205 2394.85 697.663 Q2393.05 694.099 2389.41 694.099 M2389.41 690.395 Q2395.22 690.395 2398.28 695.001 Q2401.36 699.585 2401.36 708.335 Q2401.36 717.061 2398.28 721.668 Q2395.22 726.251 2389.41 726.251 Q2383.6 726.251 2380.52 721.668 Q2377.47 717.061 2377.47 708.335 Q2377.47 699.585 2380.52 695.001 Q2383.6 690.395 2389.41 690.395 Z" fill="#000000" fill-rule="nonzero" fill-opacity="1" /><path clip-path="url(#clip820)" d="M1219.35 772.396 L1247.17 772.396 L1247.17 777.743 L1225.14 803.365 L1247.17 803.365 L1247.17 808.044 L1218.56 808.044 L1218.56 802.697 L1240.58 777.075 L1219.35 777.075 L1219.35 772.396 Z" fill="#000000" fill-rule="nonzero" fill-opacity="1" /><path clip-path="url(#clip820)" d="M1276.29 758.519 L1289.79 758.519 L1289.79 763.07 L1282.15 763.07 L1282.15 812.086 L1289.79 812.086 L1289.79 816.638 L1276.29 816.638 L1276.29 758.519 Z" fill="#000000" fill-rule="nonzero" fill-opacity="1" /><path clip-path="url(#clip820)" d="M1327.92 773.765 L1327.92 779.239 Q1325.44 777.87 1322.92 777.202 Q1320.44 776.502 1317.89 776.502 Q1312.2 776.502 1309.04 780.13 Q1305.89 783.727 1305.89 790.252 Q1305.89 796.777 1309.04 800.405 Q1312.2 804.002 1317.89 804.002 Q1320.44 804.002 1322.92 803.333 Q1325.44 802.633 1327.92 801.264 L1327.92 806.675 Q1325.47 807.821 1322.83 808.394 Q1320.22 808.967 1317.26 808.967 Q1309.2 808.967 1304.46 803.906 Q1299.72 798.845 1299.72 790.252 Q1299.72 781.531 1304.49 776.534 Q1309.3 771.537 1317.64 771.537 Q1320.34 771.537 1322.92 772.109 Q1325.5 772.651 1327.92 773.765 Z" fill="#000000" fill-rule="nonzero" fill-opacity="1" /><path clip-path="url(#clip820)" d="M1365.86 779.239 Q1368.05 775.292 1371.11 773.414 Q1374.17 771.537 1378.3 771.537 Q1383.87 771.537 1386.9 775.451 Q1389.92 779.335 1389.92 786.528 L1389.92 808.044 L1384.03 808.044 L1384.03 786.719 Q1384.03 781.594 1382.22 779.112 Q1380.4 776.629 1376.68 776.629 Q1372.13 776.629 1369.49 779.653 Q1366.85 782.677 1366.85 787.896 L1366.85 808.044 L1360.96 808.044 L1360.96 786.719 Q1360.96 781.563 1359.14 779.112 Q1357.33 776.629 1353.54 776.629 Q1349.05 776.629 1346.41 779.685 Q1343.77 782.708 1343.77 787.896 L1343.77 808.044 L1337.88 808.044 L1337.88 772.396 L1343.77 772.396 L1343.77 777.934 Q1345.77 774.656 1348.58 773.096 Q1351.38 771.537 1355.23 771.537 Q1359.11 771.537 1361.82 773.51 Q1364.55 775.483 1365.86 779.239 Z" fill="#000000" fill-rule="nonzero" fill-opacity="1" /><path clip-path="url(#clip820)" d="M1415.29 758.519 L1415.29 816.638 L1401.79 816.638 L1401.79 812.086 L1409.4 812.086 L1409.4 763.07 L1401.79 763.07 L1401.79 758.519 L1415.29 758.519 Z" fill="#000000" fill-rule="nonzero" fill-opacity="1" /><polyline clip-path="url(#clip820)" style="stroke:#000000; stroke-linecap:round; stroke-linejoin:round; stroke-width:4; stroke-opacity:1; fill:none" points="281.088,663.18 281.088,127.244 "/>
<polyline clip-path="url(#clip820)" style="stroke:#000000; stroke-linecap:round; stroke-linejoin:round; stroke-width:4; stroke-opacity:1; fill:none" points="281.088,573.857 299.986,573.857 "/>
<polyline clip-path="url(#clip820)" style="stroke:#000000; stroke-linecap:round; stroke-linejoin:round; stroke-width:4; stroke-opacity:1; fill:none" points="281.088,350.551 299.986,350.551 "/>
<polyline clip-path="url(#clip820)" style="stroke:#000000; stroke-linecap:round; stroke-linejoin:round; stroke-width:4; stroke-opacity:1; fill:none" points="281.088,187.079 299.986,187.079 "/>
<polyline clip-path="url(#clip820)" style="stroke:#000000; stroke-linecap:round; stroke-linejoin:round; stroke-width:4; stroke-opacity:1; fill:none" points="281.088,127.244 299.986,127.244 "/>
<path clip-path="url(#clip820)" d="M233.144 559.656 Q229.533 559.656 227.704 563.221 Q225.899 566.762 225.899 573.892 Q225.899 580.998 227.704 584.563 Q229.533 588.105 233.144 588.105 Q236.778 588.105 238.584 584.563 Q240.412 580.998 240.412 573.892 Q240.412 566.762 238.584 563.221 Q236.778 559.656 233.144 559.656 M233.144 555.952 Q238.954 555.952 242.01 560.559 Q245.088 565.142 245.088 573.892 Q245.088 582.619 242.01 587.225 Q238.954 591.809 233.144 591.809 Q227.334 591.809 224.255 587.225 Q221.2 582.619 221.2 573.892 Q221.2 565.142 224.255 560.559 Q227.334 555.952 233.144 555.952 Z" fill="#000000" fill-rule="nonzero" fill-opacity="1" /><path clip-path="url(#clip820)" d="M71.5013 342.9 L71.5013 346.882 Q69.6957 345.886 67.867 345.4 Q66.0615 344.891 64.2096 344.891 Q60.0662 344.891 57.7745 347.53 Q55.4828 350.146 55.4828 354.891 Q55.4828 359.636 57.7745 362.275 Q60.0662 364.891 64.2096 364.891 Q66.0615 364.891 67.867 364.405 Q69.6957 363.895 71.5013 362.9 L71.5013 366.835 Q69.7189 367.669 67.7976 368.085 Q65.8995 368.502 63.7467 368.502 Q57.8902 368.502 54.4412 364.821 Q50.9921 361.141 50.9921 354.891 Q50.9921 348.548 54.4643 344.914 Q57.9597 341.28 64.0245 341.28 Q65.992 341.28 67.867 341.697 Q69.742 342.09 71.5013 342.9 Z" fill="#000000" fill-rule="nonzero" fill-opacity="1" /><path clip-path="url(#clip820)" d="M88.9549 344.891 Q85.529 344.891 83.5382 347.576 Q81.5475 350.238 81.5475 354.891 Q81.5475 359.544 83.5151 362.229 Q85.5058 364.891 88.9549 364.891 Q92.3576 364.891 94.3484 362.206 Q96.3391 359.521 96.3391 354.891 Q96.3391 350.284 94.3484 347.599 Q92.3576 344.891 88.9549 344.891 M88.9549 341.28 Q94.5104 341.28 97.6817 344.891 Q100.853 348.502 100.853 354.891 Q100.853 361.257 97.6817 364.891 Q94.5104 368.502 88.9549 368.502 Q83.3762 368.502 80.2049 364.891 Q77.0568 361.257 77.0568 354.891 Q77.0568 348.502 80.2049 344.891 Q83.3762 341.28 88.9549 341.28 Z" fill="#000000" fill-rule="nonzero" fill-opacity="1" /><path clip-path="url(#clip820)" d="M124.441 342.669 L124.441 346.697 Q122.635 345.771 120.691 345.308 Q118.746 344.845 116.663 344.845 Q113.492 344.845 111.895 345.817 Q110.321 346.789 110.321 348.734 Q110.321 350.215 111.455 351.071 Q112.589 351.905 116.015 352.669 L117.473 352.993 Q122.01 353.965 123.908 355.747 Q125.83 357.507 125.83 360.678 Q125.83 364.289 122.959 366.395 Q120.112 368.502 115.112 368.502 Q113.029 368.502 110.76 368.085 Q108.515 367.692 106.015 366.882 L106.015 362.483 Q108.376 363.71 110.668 364.335 Q112.959 364.937 115.205 364.937 Q118.214 364.937 119.834 363.919 Q121.455 362.877 121.455 361.002 Q121.455 359.266 120.274 358.34 Q119.117 357.414 115.158 356.558 L113.677 356.21 Q109.719 355.377 107.959 353.664 Q106.2 351.928 106.2 348.919 Q106.2 345.261 108.793 343.271 Q111.385 341.28 116.154 341.28 Q118.515 341.28 120.598 341.627 Q122.682 341.974 124.441 342.669 Z" fill="#000000" fill-rule="nonzero" fill-opacity="1" /><path clip-path="url(#clip820)" d="M142.843 331.859 Q139.742 337.183 138.237 342.391 Q136.732 347.599 136.732 352.946 Q136.732 358.294 138.237 363.548 Q139.765 368.78 142.843 374.081 L139.14 374.081 Q135.668 368.641 133.931 363.386 Q132.219 358.132 132.219 352.946 Q132.219 347.784 133.931 342.553 Q135.644 337.322 139.14 331.859 L142.843 331.859 Z" fill="#000000" fill-rule="nonzero" fill-opacity="1" /><path clip-path="url(#clip820)" d="M162.288 348.687 Q159.14 348.687 157.288 350.84 Q155.459 352.993 155.459 356.743 Q155.459 360.47 157.288 362.645 Q159.14 364.798 162.288 364.798 Q165.436 364.798 167.265 362.645 Q169.116 360.47 169.116 356.743 Q169.116 352.993 167.265 350.84 Q165.436 348.687 162.288 348.687 M171.57 334.035 L171.57 338.294 Q169.811 337.46 168.005 337.021 Q166.223 336.581 164.464 336.581 Q159.834 336.581 157.38 339.706 Q154.95 342.831 154.603 349.15 Q155.968 347.136 158.029 346.072 Q160.089 344.984 162.566 344.984 Q167.774 344.984 170.783 348.155 Q173.816 351.303 173.816 356.743 Q173.816 362.067 170.667 365.284 Q167.519 368.502 162.288 368.502 Q156.292 368.502 153.121 363.919 Q149.95 359.312 149.95 350.585 Q149.95 342.391 153.839 337.53 Q157.728 332.646 164.279 332.646 Q166.038 332.646 167.82 332.993 Q169.626 333.34 171.57 334.035 Z" fill="#000000" fill-rule="nonzero" fill-opacity="1" /><path clip-path="url(#clip820)" d="M191.871 336.349 Q188.26 336.349 186.431 339.914 Q184.626 343.456 184.626 350.585 Q184.626 357.692 186.431 361.257 Q188.26 364.798 191.871 364.798 Q195.505 364.798 197.311 361.257 Q199.139 357.692 199.139 350.585 Q199.139 343.456 197.311 339.914 Q195.505 336.349 191.871 336.349 M191.871 332.646 Q197.681 332.646 200.737 337.252 Q203.815 341.835 203.815 350.585 Q203.815 359.312 200.737 363.919 Q197.681 368.502 191.871 368.502 Q186.061 368.502 182.982 363.919 Q179.927 359.312 179.927 350.585 Q179.927 341.835 182.982 337.252 Q186.061 332.646 191.871 332.646 Z" fill="#000000" fill-rule="nonzero" fill-opacity="1" /><path clip-path="url(#clip820)" d="M218.815 335.632 Q216.963 335.632 215.69 336.928 Q214.417 338.201 214.417 340.053 Q214.417 341.882 215.69 343.155 Q216.963 344.405 218.815 344.405 Q220.667 344.405 221.94 343.155 Q223.213 341.882 223.213 340.053 Q223.213 338.224 221.917 336.928 Q220.644 335.632 218.815 335.632 M218.815 332.646 Q220.297 332.646 221.663 333.224 Q223.028 333.78 224.024 334.845 Q225.088 335.886 225.621 337.206 Q226.153 338.525 226.153 340.053 Q226.153 343.109 224 345.238 Q221.871 347.345 218.769 347.345 Q215.644 347.345 213.561 345.261 Q211.477 343.178 211.477 340.053 Q211.477 336.951 213.607 334.798 Q215.737 332.646 218.815 332.646 Z" fill="#000000" fill-rule="nonzero" fill-opacity="1" /><path clip-path="url(#clip820)" d="M234.463 331.859 L238.167 331.859 Q241.639 337.322 243.352 342.553 Q245.088 347.784 245.088 352.946 Q245.088 358.132 243.352 363.386 Q241.639 368.641 238.167 374.081 L234.463 374.081 Q237.542 368.78 239.047 363.548 Q240.574 358.294 240.574 352.946 Q240.574 347.599 239.047 342.391 Q237.542 337.183 234.463 331.859 Z" fill="#000000" fill-rule="nonzero" fill-opacity="1" /><path clip-path="url(#clip820)" d="M81.2234 179.197 L81.2234 183.225 Q79.4179 182.299 77.4735 181.836 Q75.529 181.373 73.4457 181.373 Q70.2744 181.373 68.6772 182.345 Q67.1032 183.317 67.1032 185.262 Q67.1032 186.743 68.2374 187.6 Q69.3717 188.433 72.7976 189.197 L74.2559 189.521 Q78.7929 190.493 80.691 192.276 Q82.6123 194.035 82.6123 197.206 Q82.6123 200.817 79.742 202.924 Q76.8948 205.03 71.8948 205.03 Q69.8115 205.03 67.543 204.614 Q65.2976 204.22 62.7976 203.41 L62.7976 199.012 Q65.1587 200.239 67.4504 200.864 Q69.742 201.465 71.9874 201.465 Q74.9966 201.465 76.617 200.447 Q78.2374 199.405 78.2374 197.53 Q78.2374 195.794 77.0568 194.868 Q75.8994 193.942 71.9411 193.086 L70.4596 192.739 Q66.5013 191.905 64.7421 190.192 Q62.9828 188.456 62.9828 185.447 Q62.9828 181.79 65.5754 179.799 Q68.168 177.808 72.9365 177.808 Q75.2976 177.808 77.3809 178.155 Q79.4642 178.503 81.2234 179.197 Z" fill="#000000" fill-rule="nonzero" fill-opacity="1" /><path clip-path="url(#clip820)" d="M89.3947 178.433 L93.6539 178.433 L93.6539 204.359 L89.3947 204.359 L89.3947 178.433 M89.3947 168.341 L93.6539 168.341 L93.6539 173.734 L89.3947 173.734 L89.3947 168.341 Z" fill="#000000" fill-rule="nonzero" fill-opacity="1" /><path clip-path="url(#clip820)" d="M124.117 188.711 L124.117 204.359 L119.857 204.359 L119.857 188.85 Q119.857 185.169 118.422 183.341 Q116.987 181.512 114.117 181.512 Q110.668 181.512 108.677 183.711 Q106.686 185.91 106.686 189.706 L106.686 204.359 L102.404 204.359 L102.404 178.433 L106.686 178.433 L106.686 182.461 Q108.214 180.123 110.274 178.966 Q112.358 177.808 115.066 177.808 Q119.533 177.808 121.825 180.586 Q124.117 183.341 124.117 188.711 Z" fill="#000000" fill-rule="nonzero" fill-opacity="1" /><path clip-path="url(#clip820)" d="M142.843 168.387 Q139.742 173.711 138.237 178.919 Q136.732 184.128 136.732 189.475 Q136.732 194.822 138.237 200.077 Q139.765 205.308 142.843 210.609 L139.14 210.609 Q135.668 205.169 133.931 199.914 Q132.219 194.66 132.219 189.475 Q132.219 184.313 133.931 179.081 Q135.644 173.85 139.14 168.387 L142.843 168.387 Z" fill="#000000" fill-rule="nonzero" fill-opacity="1" /><path clip-path="url(#clip820)" d="M162.288 185.215 Q159.14 185.215 157.288 187.368 Q155.459 189.521 155.459 193.271 Q155.459 196.998 157.288 199.174 Q159.14 201.327 162.288 201.327 Q165.436 201.327 167.265 199.174 Q169.116 196.998 169.116 193.271 Q169.116 189.521 167.265 187.368 Q165.436 185.215 162.288 185.215 M171.57 170.563 L171.57 174.822 Q169.811 173.989 168.005 173.549 Q166.223 173.109 164.464 173.109 Q159.834 173.109 157.38 176.234 Q154.95 179.359 154.603 185.678 Q155.968 183.665 158.029 182.6 Q160.089 181.512 162.566 181.512 Q167.774 181.512 170.783 184.683 Q173.816 187.831 173.816 193.271 Q173.816 198.595 170.667 201.813 Q167.519 205.03 162.288 205.03 Q156.292 205.03 153.121 200.447 Q149.95 195.84 149.95 187.114 Q149.95 178.919 153.839 174.058 Q157.728 169.174 164.279 169.174 Q166.038 169.174 167.82 169.521 Q169.626 169.868 171.57 170.563 Z" fill="#000000" fill-rule="nonzero" fill-opacity="1" /><path clip-path="url(#clip820)" d="M191.871 172.878 Q188.26 172.878 186.431 176.442 Q184.626 179.984 184.626 187.114 Q184.626 194.22 186.431 197.785 Q188.26 201.327 191.871 201.327 Q195.505 201.327 197.311 197.785 Q199.139 194.22 199.139 187.114 Q199.139 179.984 197.311 176.442 Q195.505 172.878 191.871 172.878 M191.871 169.174 Q197.681 169.174 200.737 173.78 Q203.815 178.364 203.815 187.114 Q203.815 195.84 200.737 200.447 Q197.681 205.03 191.871 205.03 Q186.061 205.03 182.982 200.447 Q179.927 195.84 179.927 187.114 Q179.927 178.364 182.982 173.78 Q186.061 169.174 191.871 169.174 Z" fill="#000000" fill-rule="nonzero" fill-opacity="1" /><path clip-path="url(#clip820)" d="M218.815 172.16 Q216.963 172.16 215.69 173.456 Q214.417 174.729 214.417 176.581 Q214.417 178.41 215.69 179.683 Q216.963 180.933 218.815 180.933 Q220.667 180.933 221.94 179.683 Q223.213 178.41 223.213 176.581 Q223.213 174.753 221.917 173.456 Q220.644 172.16 218.815 172.16 M218.815 169.174 Q220.297 169.174 221.663 169.753 Q223.028 170.308 224.024 171.373 Q225.088 172.415 225.621 173.734 Q226.153 175.054 226.153 176.581 Q226.153 179.637 224 181.766 Q221.871 183.873 218.769 183.873 Q215.644 183.873 213.561 181.79 Q211.477 179.706 211.477 176.581 Q211.477 173.479 213.607 171.327 Q215.737 169.174 218.815 169.174 Z" fill="#000000" fill-rule="nonzero" fill-opacity="1" /><path clip-path="url(#clip820)" d="M234.463 168.387 L238.167 168.387 Q241.639 173.85 243.352 179.081 Q245.088 184.313 245.088 189.475 Q245.088 194.66 243.352 199.914 Q241.639 205.169 238.167 210.609 L234.463 210.609 Q237.542 205.308 239.047 200.077 Q240.574 194.822 240.574 189.475 Q240.574 184.128 239.047 178.919 Q237.542 173.711 234.463 168.387 Z" fill="#000000" fill-rule="nonzero" fill-opacity="1" /><path clip-path="url(#clip820)" d="M225.181 140.589 L232.82 140.589 L232.82 114.223 L224.51 115.89 L224.51 111.631 L232.774 109.964 L237.449 109.964 L237.449 140.589 L245.088 140.589 L245.088 144.524 L225.181 144.524 L225.181 140.589 Z" fill="#000000" fill-rule="nonzero" fill-opacity="1" /><polyline clip-path="url(#clip822)" style="stroke:#009af9; stroke-linecap:round; stroke-linejoin:round; stroke-width:6; stroke-opacity:1; fill:none" points="281.088,574.209 291.447,574.28 301.805,574.291 312.163,574.236 322.522,574.124 332.88,573.968 343.238,573.79 353.597,573.617 363.955,573.474 374.313,573.385 384.672,573.363 395.03,573.416 405.388,573.537 415.747,573.711 426.105,573.914 436.463,574.115 446.822,574.285 457.18,574.396 467.538,574.429 477.897,574.376 488.255,574.242 498.613,574.043 508.972,573.808 519.33,573.572 529.688,573.371 540.047,573.237 550.405,573.197 560.763,573.261 571.122,573.424 581.48,573.668 591.838,573.96 602.197,574.257 612.555,574.515 622.913,574.691 633.272,574.756 643.63,574.694 653.988,574.51 664.347,574.229 674.705,573.892 685.063,573.555 695.422,573.278 705.78,573.115 716.139,573.107 726.497,573.276 736.855,573.614 747.214,574.088 757.572,574.638 767.93,575.188 778.289,575.654 788.647,575.959 799.005,576.048 809.364,575.896 819.722,575.522 830.08,574.992 840.439,574.41 850.797,573.914 861.155,573.652 871.514,573.761 881.872,574.339 892.23,575.416 902.589,576.926 912.947,578.691 923.305,580.412 933.664,581.669 944.022,581.938 954.38,580.622 964.739,577.091 975.097,570.732 985.455,561.008 995.814,547.517 1006.17,530.049 1016.53,508.639 1026.89,483.602 1037.25,455.542 1047.61,425.329 1057.96,394.037 1068.32,362.839 1078.68,332.893 1089.04,305.213 1099.4,280.578 1109.76,259.477 1120.11,242.102 1130.47,228.393 1140.83,218.091 1151.19,210.811 1161.55,206.099 1171.91,203.466 1182.26,202.416 1192.62,202.464 1202.98,203.156 1213.34,204.089 1223.7,204.936 1234.06,205.469 1244.41,205.572 1254.77,205.235 1265.13,204.541 1275.49,203.641 1285.85,202.717 1296.21,201.948 1306.56,201.481 1316.92,201.409 1327.28,201.758 1337.64,202.484 1348,203.478 1358.36,204.585 1368.71,205.622 1379.07,206.417 1389.43,206.836 1399.79,206.819 1410.15,206.402 1420.51,205.732 1430.86,205.062 1441.22,204.738 1451.58,205.169 1461.94,206.805 1472.3,210.11 1482.66,215.546 1493.01,223.559 1503.37,234.556 1513.73,248.873 1524.09,266.721 1534.45,288.129 1544.81,312.88 1555.16,340.478 1565.52,370.151 1575.88,400.902 1586.24,431.603 1596.6,461.115 1606.96,488.405 1617.31,512.64 1627.67,533.254 1638.03,549.965 1648.39,562.767 1658.75,571.89 1669.11,577.751 1679.46,580.894 1689.82,581.931 1700.18,581.484 1710.54,580.138 1720.9,578.397 1731.26,576.664 1741.61,575.219 1751.97,574.22 1762.33,573.718 1772.69,573.671 1783.05,573.975 1793.41,574.491 1803.76,575.071 1814.12,575.582 1824.48,575.924 1834.84,576.04 1845.2,575.918 1855.56,575.586 1865.91,575.105 1876.27,574.552 1886.63,574.011 1896.99,573.556 1907.35,573.242 1917.71,573.1 1928.06,573.133 1938.42,573.315 1948.78,573.604 1959.14,573.943 1969.5,574.274 1979.86,574.542 1990.21,574.709 2000.57,574.752 2010.93,574.669 2021.29,574.479 2031.65,574.213 2042.01,573.915 2052.36,573.629 2062.72,573.396 2073.08,573.246 2083.44,573.198 2093.8,573.253 2104.16,573.398 2114.51,573.606 2124.87,573.844 2135.23,574.075 2145.59,574.265 2155.95,574.388 2166.31,574.428 2176.66,574.383 2187.02,574.262 2197.38,574.086 2207.74,573.883 2218.1,573.683 2228.46,573.516 2238.81,573.404 2249.17,573.363 2259.53,573.395 2269.89,573.493 2280.25,573.642 2290.61,573.817 2300.96,573.992 2311.32,574.143 2321.68,574.248 2332.04,574.292 2342.4,574.273 2352.76,574.193 "/>
<polyline clip-path="url(#clip822)" style="stroke:#e26f46; stroke-linecap:round; stroke-linejoin:round; stroke-width:6; stroke-opacity:1; fill:none" points="281.088,573.842 291.447,573.84 301.805,573.841 312.163,573.844 322.522,573.849 332.88,573.856 343.238,573.863 353.597,573.869 363.955,573.873 374.313,573.876 384.672,573.875 395.03,573.872 405.388,573.866 415.747,573.859 426.105,573.852 436.463,573.845 446.822,573.84 457.18,573.837 467.538,573.838 477.897,573.841 488.255,573.847 498.613,573.855 508.972,573.863 519.33,573.87 529.688,573.876 540.047,573.879 550.405,573.878 560.763,573.874 571.122,573.867 581.48,573.859 591.838,573.849 602.197,573.84 612.555,573.834 622.913,573.831 633.272,573.831 643.63,573.836 653.988,573.843 664.347,573.852 674.705,573.862 685.063,573.87 695.422,573.876 705.78,573.877 716.139,573.874 726.497,573.867 736.855,573.856 747.214,573.843 757.572,573.831 767.93,573.82 778.289,573.814 788.647,573.813 799.005,573.817 809.364,573.825 819.722,573.837 830.08,573.848 840.439,573.858 850.797,573.862 861.155,573.861 871.514,573.852 881.872,573.838 892.23,573.822 902.589,573.808 912.947,573.802 923.305,573.81 933.664,573.833 944.022,573.871 954.38,573.916 964.739,573.953 975.097,573.952 985.455,573.868 995.814,573.635 1006.17,573.168 1016.53,572.361 1026.89,571.112 1037.25,569.346 1047.61,567.048 1057.96,564.3 1068.32,561.295 1078.68,558.333 1089.04,555.772 1099.4,553.973 1109.76,553.214 1120.11,553.641 1130.47,555.227 1140.83,557.793 1151.19,561.044 1161.55,564.639 1171.91,568.257 1182.26,571.643 1192.62,574.638 1202.98,577.177 1213.34,579.277 1223.7,581.012 1234.06,582.486 1244.41,583.816 1254.77,585.11 1265.13,586.46 1275.49,587.928 1285.85,589.546 1296.21,591.307 1306.56,593.174 1316.92,595.085 1327.28,596.966 1337.64,598.751 1348,600.39 1358.36,601.87 1368.71,603.209 1379.07,604.464 1389.43,605.718 1399.79,607.072 1410.15,608.635 1420.51,610.506 1430.86,612.759 1441.22,615.421 1451.58,618.451 1461.94,621.721 1472.3,625.002 1482.66,627.972 1493.01,630.252 1503.37,631.454 1513.73,631.258 1524.09,629.478 1534.45,626.113 1544.81,621.355 1555.16,615.559 1565.52,609.178 1575.88,602.683 1586.24,596.489 1596.6,590.901 1606.96,586.105 1617.31,582.169 1627.67,579.073 1638.03,576.746 1648.39,575.086 1658.75,573.981 1669.11,573.323 1679.46,573.005 1689.82,572.933 1700.18,573.02 1710.54,573.194 1720.9,573.397 1731.26,573.586 1741.61,573.736 1751.97,573.833 1762.33,573.877 1772.69,573.874 1783.05,573.839 1793.41,573.786 1803.76,573.73 1814.12,573.684 1824.48,573.656 1834.84,573.651 1845.2,573.668 1855.56,573.704 1865.91,573.751 1876.27,573.803 1886.63,573.852 1896.99,573.891 1907.35,573.916 1917.71,573.925 1928.06,573.919 1938.42,573.901 1948.78,573.874 1959.14,573.844 1969.5,573.816 1979.86,573.795 1990.21,573.783 2000.57,573.782 2010.93,573.791 2021.29,573.809 2031.65,573.832 2042.01,573.857 2052.36,573.88 2062.72,573.898 2073.08,573.909 2083.44,573.911 2093.8,573.904 2104.16,573.891 2114.51,573.874 2124.87,573.854 2135.23,573.836 2145.59,573.822 2155.95,573.814 2166.31,573.812 2176.66,573.817 2187.02,573.828 2197.38,573.843 2207.74,573.859 2218.1,573.874 2228.46,573.886 2238.81,573.893 2249.17,573.895 2259.53,573.891 2269.89,573.883 2280.25,573.871 2290.61,573.857 2300.96,573.844 2311.32,573.834 2321.68,573.827 2332.04,573.824 2342.4,573.827 2352.76,573.834 "/>
<polyline clip-path="url(#clip822)" style="stroke:#3da44d; stroke-linecap:round; stroke-linejoin:round; stroke-width:6; stroke-opacity:1; fill:none" points="281.088,127.249 291.447,127.249 301.805,127.249 312.163,127.25 322.522,127.25 332.88,127.25 343.238,127.25 353.597,127.25 363.955,127.25 374.313,127.25 384.672,127.251 395.03,127.251 405.388,127.251 415.747,127.251 426.105,127.251 436.463,127.251 446.822,127.251 457.18,127.252 467.538,127.252 477.897,127.252 488.255,127.252 498.613,127.252 508.972,127.253 519.33,127.253 529.688,127.253 540.047,127.254 550.405,127.254 560.763,127.254 571.122,127.254 581.48,127.255 591.838,127.255 602.197,127.255 612.555,127.256 622.913,127.257 633.272,127.257 643.63,127.258 653.988,127.258 664.347,127.258 674.705,127.258 685.063,127.259 695.422,127.26 705.78,127.261 716.139,127.261 726.497,127.262 736.855,127.262 747.214,127.263 757.572,127.264 767.93,127.267 778.289,127.269 788.647,127.272 799.005,127.273 809.364,127.274 819.722,127.273 830.08,127.273 840.439,127.274 850.797,127.275 861.155,127.277 871.514,127.279 881.872,127.282 892.23,127.287 902.589,127.298 912.947,127.318 923.305,127.344 933.664,127.369 944.022,127.38 954.38,127.364 964.739,127.333 975.097,127.345 985.455,127.538 995.814,128.162 1006.17,129.589 1016.53,132.304 1026.89,136.855 1037.25,143.779 1047.61,153.501 1057.96,166.231 1068.32,181.883 1078.68,200.033 1089.04,219.934 1099.4,240.595 1109.76,260.901 1120.11,279.758 1130.47,296.242 1140.83,309.711 1151.19,319.863 1161.55,326.747 1171.91,330.714 1182.26,332.327 1192.62,332.267 1202.98,331.228 1213.34,329.835 1223.7,328.588 1234.06,327.827 1244.41,327.726 1254.77,328.301 1265.13,329.433 1275.49,330.906 1285.85,332.449 1296.21,333.781 1306.56,334.666 1316.92,334.945 1327.28,334.569 1337.64,333.605 1348,332.224 1358.36,330.674 1368.71,329.235 1379.07,328.175 1389.43,327.697 1399.79,327.901 1410.15,328.751 1420.51,330.046 1430.86,331.421 1441.22,332.355 1451.58,332.209 1461.94,330.284 1472.3,325.912 1482.66,318.553 1493.01,307.899 1503.37,293.95 1513.73,277.061 1524.09,257.922 1534.45,237.491 1544.81,216.874 1555.16,197.177 1565.52,179.362 1575.88,164.13 1586.24,151.853 1596.6,142.571 1606.96,136.033 1617.31,131.793 1627.67,129.306 1638.03,128.027 1648.39,127.489 1658.75,127.336 1669.11,127.337 1679.46,127.368 1689.82,127.38 1700.18,127.366 1710.54,127.34 1720.9,127.314 1731.26,127.296 1741.61,127.286 1751.97,127.282 1762.33,127.279 1772.69,127.277 1783.05,127.275 1793.41,127.274 1803.76,127.273 1814.12,127.273 1824.48,127.274 1834.84,127.273 1845.2,127.271 1855.56,127.269 1865.91,127.266 1876.27,127.264 1886.63,127.263 1896.99,127.262 1907.35,127.262 1917.71,127.261 1928.06,127.26 1938.42,127.26 1948.78,127.259 1959.14,127.258 1969.5,127.258 1979.86,127.258 1990.21,127.257 2000.57,127.257 2010.93,127.257 2021.29,127.256 2031.65,127.255 2042.01,127.255 2052.36,127.254 2062.72,127.254 2073.08,127.254 2083.44,127.254 2093.8,127.254 2104.16,127.253 2114.51,127.253 2124.87,127.252 2135.23,127.252 2145.59,127.252 2155.95,127.252 2166.31,127.252 2176.66,127.252 2187.02,127.251 2197.38,127.251 2207.74,127.251 2218.1,127.251 2228.46,127.251 2238.81,127.251 2249.17,127.251 2259.53,127.25 2269.89,127.25 2280.25,127.25 2290.61,127.25 2300.96,127.25 2311.32,127.25 2321.68,127.25 2332.04,127.249 2342.4,127.249 2352.76,127.249 "/>
<polyline clip-path="url(#clip822)" style="stroke:#c271d2; stroke-linecap:round; stroke-linejoin:round; stroke-width:6; stroke-opacity:1; fill:none" points="281.088,573.505 291.447,573.434 301.805,573.423 312.163,573.478 322.522,573.591 332.88,573.747 343.238,573.79 353.597,573.617 363.955,573.474 374.313,573.384 384.672,573.363 395.03,573.416 405.388,573.537 415.747,573.711 426.105,573.801 436.463,573.599 446.822,573.429 457.18,573.318 467.538,573.285 477.897,573.338 488.255,573.473 498.613,573.671 508.972,573.808 519.33,573.572 529.688,573.37 540.047,573.237 550.405,573.197 560.763,573.26 571.122,573.424 581.48,573.668 591.838,573.754 602.197,573.457 612.555,573.199 622.913,573.023 633.272,572.958 643.63,573.02 653.988,573.204 664.347,573.486 674.705,573.822 685.063,573.555 695.422,573.278 705.78,573.115 716.139,573.107 726.497,573.276 736.855,573.614 747.214,573.626 757.572,573.076 767.93,572.526 778.289,572.06 788.647,571.755 799.005,571.667 809.364,571.819 819.722,572.192 830.08,572.723 840.439,573.304 850.797,573.801 861.155,573.652 871.514,573.761 881.872,573.375 892.23,572.298 902.589,570.788 912.947,569.023 923.305,567.302 933.664,566.045 944.022,565.776 954.38,567.092 964.739,570.622 975.097,570.73 985.455,561.008 995.814,547.516 1006.17,530.044 1016.53,508.622 1026.89,483.56 1037.25,455.456 1047.61,425.173 1057.96,393.783 1068.32,362.466 1078.68,332.393 1089.04,304.605 1099.4,279.905 1109.76,258.8 1120.11,241.487 1130.47,227.891 1140.83,217.728 1151.19,210.585 1161.55,205.984 1171.91,203.424 1182.26,202.41 1192.62,202.464 1202.98,203.141 1213.34,204.049 1223.7,204.866 1234.06,205.368 1244.41,205.437 1254.77,205.063 1265.13,204.326 1275.49,203.374 1285.85,202.386 1296.21,201.539 1306.56,200.98 1316.92,200.805 1327.28,201.041 1337.64,201.65 1348,202.529 1358.36,203.524 1368.71,204.454 1379.07,205.145 1389.43,205.456 1399.79,205.319 1410.15,204.76 1420.51,203.912 1430.86,203.016 1441.22,202.405 1451.58,202.482 1461.94,203.697 1472.3,206.532 1482.66,211.483 1493.01,219.049 1503.37,229.703 1513.73,243.842 1524.09,261.725 1534.45,283.39 1544.81,308.593 1555.16,336.782 1565.52,367.112 1575.88,398.516 1586.24,429.814 1596.6,459.834 1606.96,487.531 1617.31,512.078 1627.67,532.92 1638.03,549.791 1648.39,562.699 1658.75,571.886 1669.11,569.927 1679.46,566.769 1689.82,565.73 1700.18,566.184 1710.54,567.542 1720.9,569.294 1731.26,571.037 1741.61,572.49 1751.97,573.493 1762.33,573.716 1772.69,573.67 1783.05,573.738 1793.41,573.219 1803.76,572.637 1814.12,572.124 1824.48,571.781 1834.84,571.665 1845.2,571.788 1855.56,572.121 1865.91,572.605 1876.27,573.161 1886.63,573.704 1896.99,573.554 1907.35,573.239 1917.71,573.097 1928.06,573.13 1938.42,573.313 1948.78,573.603 1959.14,573.77 1969.5,573.439 1979.86,573.169 1990.21,573.003 2000.57,572.96 2010.93,573.043 2021.29,573.234 2031.65,573.5 2042.01,573.799 2052.36,573.628 2062.72,573.394 2073.08,573.244 2083.44,573.196 2093.8,573.252 2104.16,573.397 2114.51,573.606 2124.87,573.844 2135.23,573.638 2145.59,573.448 2155.95,573.325 2166.31,573.285 2176.66,573.33 2187.02,573.452 2197.38,573.628 2207.74,573.832 2218.1,573.682 2228.46,573.515 2238.81,573.403 2249.17,573.361 2259.53,573.394 2269.89,573.492 2280.25,573.641 2290.61,573.817 2300.96,573.721 2311.32,573.57 2321.68,573.466 2332.04,573.421 2342.4,573.441 2352.76,573.52 "/>
<path clip-path="url(#clip820)" d="M1959.61 516.756 L2283.7 516.756 L2283.7 257.556 L1959.61 257.556  Z" fill="#ffffff" fill-rule="evenodd" fill-opacity="1"/>
<polyline clip-path="url(#clip820)" style="stroke:#000000; stroke-linecap:round; stroke-linejoin:round; stroke-width:4; stroke-opacity:1; fill:none" points="1959.61,516.756 2283.7,516.756 2283.7,257.556 1959.61,257.556 1959.61,516.756 "/>
<polyline clip-path="url(#clip820)" style="stroke:#009af9; stroke-linecap:round; stroke-linejoin:round; stroke-width:6; stroke-opacity:1; fill:none" points="1982.63,309.396 2120.74,309.396 "/>
<path clip-path="url(#clip820)" d="M2143.76 292.116 L2150.73 292.116 L2159.55 315.635 L2168.41 292.116 L2175.38 292.116 L2175.38 326.676 L2170.82 326.676 L2170.82 296.329 L2161.91 320.033 L2157.21 320.033 L2148.3 296.329 L2148.3 326.676 L2143.76 326.676 L2143.76 292.116 Z" fill="#000000" fill-rule="nonzero" fill-opacity="1" /><path clip-path="url(#clip820)" d="M2206.03 300.751 L2196.65 313.366 L2206.52 326.676 L2201.49 326.676 L2193.95 316.491 L2186.4 326.676 L2181.38 326.676 L2191.45 313.112 L2182.23 300.751 L2187.26 300.751 L2194.13 309.987 L2201.01 300.751 L2206.03 300.751 Z" fill="#000000" fill-rule="nonzero" fill-opacity="1" /><polyline clip-path="url(#clip820)" style="stroke:#e26f46; stroke-linecap:round; stroke-linejoin:round; stroke-width:6; stroke-opacity:1; fill:none" points="1982.63,361.236 2120.74,361.236 "/>
<path clip-path="url(#clip820)" d="M2143.76 343.956 L2150.73 343.956 L2159.55 367.475 L2168.41 343.956 L2175.38 343.956 L2175.38 378.516 L2170.82 378.516 L2170.82 348.169 L2161.91 371.873 L2157.21 371.873 L2148.3 348.169 L2148.3 378.516 L2143.76 378.516 L2143.76 343.956 Z" fill="#000000" fill-rule="nonzero" fill-opacity="1" /><path clip-path="url(#clip820)" d="M2195.27 380.924 Q2193.46 385.553 2191.75 386.966 Q2190.03 388.378 2187.16 388.378 L2183.76 388.378 L2183.76 384.813 L2186.26 384.813 Q2188.02 384.813 2188.99 383.979 Q2189.96 383.146 2191.15 380.044 L2191.91 378.1 L2181.42 352.591 L2185.94 352.591 L2194.04 372.868 L2202.14 352.591 L2206.65 352.591 L2195.27 380.924 Z" fill="#000000" fill-rule="nonzero" fill-opacity="1" /><polyline clip-path="url(#clip820)" style="stroke:#3da44d; stroke-linecap:round; stroke-linejoin:round; stroke-width:6; stroke-opacity:1; fill:none" points="1982.63,413.076 2120.74,413.076 "/>
<path clip-path="url(#clip820)" d="M2143.76 395.796 L2150.73 395.796 L2159.55 419.315 L2168.41 395.796 L2175.38 395.796 L2175.38 430.356 L2170.82 430.356 L2170.82 400.009 L2161.91 423.713 L2157.21 423.713 L2148.3 400.009 L2148.3 430.356 L2143.76 430.356 L2143.76 395.796 Z" fill="#000000" fill-rule="nonzero" fill-opacity="1" /><path clip-path="url(#clip820)" d="M2182.63 404.431 L2202.86 404.431 L2202.86 408.32 L2186.84 426.954 L2202.86 426.954 L2202.86 430.356 L2182.05 430.356 L2182.05 426.468 L2198.07 407.833 L2182.63 407.833 L2182.63 404.431 Z" fill="#000000" fill-rule="nonzero" fill-opacity="1" /><polyline clip-path="url(#clip820)" style="stroke:#c271d2; stroke-linecap:round; stroke-linejoin:round; stroke-width:6; stroke-opacity:1; fill:none" points="1982.63,464.916 2120.74,464.916 "/>
<path clip-path="url(#clip820)" d="M2147.7 445.97 L2147.7 493.377 L2143.76 493.377 L2143.76 445.97 L2147.7 445.97 Z" fill="#000000" fill-rule="nonzero" fill-opacity="1" /><path clip-path="url(#clip820)" d="M2158.37 447.636 L2165.34 447.636 L2174.15 471.155 L2183.02 447.636 L2189.99 447.636 L2189.99 482.196 L2185.43 482.196 L2185.43 451.849 L2176.52 475.553 L2171.82 475.553 L2162.9 451.849 L2162.9 482.196 L2158.37 482.196 L2158.37 447.636 Z" fill="#000000" fill-rule="nonzero" fill-opacity="1" /><path clip-path="url(#clip820)" d="M2220.64 456.271 L2211.26 468.886 L2221.12 482.196 L2216.1 482.196 L2208.55 472.011 L2201.01 482.196 L2195.98 482.196 L2206.05 468.632 L2196.84 456.271 L2201.86 456.271 L2208.74 465.507 L2215.61 456.271 L2220.64 456.271 Z" fill="#000000" fill-rule="nonzero" fill-opacity="1" /><path clip-path="url(#clip820)" d="M2237.93 484.604 Q2236.12 489.233 2234.41 490.646 Q2232.7 492.058 2229.83 492.058 L2226.42 492.058 L2226.42 488.493 L2228.92 488.493 Q2230.68 488.493 2231.65 487.659 Q2232.63 486.826 2233.81 483.724 L2234.57 481.78 L2224.08 456.271 L2228.6 456.271 L2236.7 476.548 L2244.8 456.271 L2249.32 456.271 L2237.93 484.604 Z" fill="#000000" fill-rule="nonzero" fill-opacity="1" /><path clip-path="url(#clip820)" d="M2260.68 445.97 L2260.68 493.377 L2256.75 493.377 L2256.75 445.97 L2260.68 445.97 Z" fill="#000000" fill-rule="nonzero" fill-opacity="1" /><path clip-path="url(#clip820)" d="M281.088 1423.18 L2352.76 1423.18 L2352.76 887.244 L281.088 887.244  Z" fill="#ffffff" fill-rule="evenodd" fill-opacity="1"/>
<defs>
  <clipPath id="clip823">
    <rect x="281" y="887" width="2073" height="537"/>
  </clipPath>
</defs>
<polyline clip-path="url(#clip823)" style="stroke:#000000; stroke-linecap:round; stroke-linejoin:round; stroke-width:2; stroke-opacity:0.1; fill:none" points="281.088,1423.18 281.088,887.244 "/>
<polyline clip-path="url(#clip823)" style="stroke:#000000; stroke-linecap:round; stroke-linejoin:round; stroke-width:2; stroke-opacity:0.1; fill:none" points="1057.96,1423.18 1057.96,887.244 "/>
<polyline clip-path="url(#clip823)" style="stroke:#000000; stroke-linecap:round; stroke-linejoin:round; stroke-width:2; stroke-opacity:0.1; fill:none" points="1316.92,1423.18 1316.92,887.244 "/>
<polyline clip-path="url(#clip823)" style="stroke:#000000; stroke-linecap:round; stroke-linejoin:round; stroke-width:2; stroke-opacity:0.1; fill:none" points="1575.88,1423.18 1575.88,887.244 "/>
<polyline clip-path="url(#clip823)" style="stroke:#000000; stroke-linecap:round; stroke-linejoin:round; stroke-width:2; stroke-opacity:0.1; fill:none" points="2352.76,1423.18 2352.76,887.244 "/>
<polyline clip-path="url(#clip823)" style="stroke:#000000; stroke-linecap:round; stroke-linejoin:round; stroke-width:2; stroke-opacity:0.1; fill:none" points="281.088,1396.7 2352.76,1396.7 "/>
<polyline clip-path="url(#clip823)" style="stroke:#000000; stroke-linecap:round; stroke-linejoin:round; stroke-width:2; stroke-opacity:0.1; fill:none" points="281.088,1316.18 2352.76,1316.18 "/>
<polyline clip-path="url(#clip823)" style="stroke:#000000; stroke-linecap:round; stroke-linejoin:round; stroke-width:2; stroke-opacity:0.1; fill:none" points="281.088,1235.66 2352.76,1235.66 "/>
<polyline clip-path="url(#clip823)" style="stroke:#000000; stroke-linecap:round; stroke-linejoin:round; stroke-width:2; stroke-opacity:0.1; fill:none" points="281.088,1155.13 2352.76,1155.13 "/>
<polyline clip-path="url(#clip823)" style="stroke:#000000; stroke-linecap:round; stroke-linejoin:round; stroke-width:2; stroke-opacity:0.1; fill:none" points="281.088,1074.61 2352.76,1074.61 "/>
<polyline clip-path="url(#clip823)" style="stroke:#000000; stroke-linecap:round; stroke-linejoin:round; stroke-width:2; stroke-opacity:0.1; fill:none" points="281.088,994.087 2352.76,994.087 "/>
<polyline clip-path="url(#clip823)" style="stroke:#000000; stroke-linecap:round; stroke-linejoin:round; stroke-width:2; stroke-opacity:0.1; fill:none" points="281.088,913.564 2352.76,913.564 "/>
<polyline clip-path="url(#clip820)" style="stroke:#000000; stroke-linecap:round; stroke-linejoin:round; stroke-width:4; stroke-opacity:1; fill:none" points="281.088,1423.18 2352.76,1423.18 "/>
<polyline clip-path="url(#clip820)" style="stroke:#000000; stroke-linecap:round; stroke-linejoin:round; stroke-width:4; stroke-opacity:1; fill:none" points="281.088,1423.18 281.088,1404.28 "/>
<polyline clip-path="url(#clip820)" style="stroke:#000000; stroke-linecap:round; stroke-linejoin:round; stroke-width:4; stroke-opacity:1; fill:none" points="1057.96,1423.18 1057.96,1404.28 "/>
<polyline clip-path="url(#clip820)" style="stroke:#000000; stroke-linecap:round; stroke-linejoin:round; stroke-width:4; stroke-opacity:1; fill:none" points="1316.92,1423.18 1316.92,1404.28 "/>
<polyline clip-path="url(#clip820)" style="stroke:#000000; stroke-linecap:round; stroke-linejoin:round; stroke-width:4; stroke-opacity:1; fill:none" points="1575.88,1423.18 1575.88,1404.28 "/>
<polyline clip-path="url(#clip820)" style="stroke:#000000; stroke-linecap:round; stroke-linejoin:round; stroke-width:4; stroke-opacity:1; fill:none" points="2352.76,1423.18 2352.76,1404.28 "/>
<path clip-path="url(#clip820)" d="M212.535 1468.75 L242.211 1468.75 L242.211 1472.69 L212.535 1472.69 L212.535 1468.75 Z" fill="#000000" fill-rule="nonzero" fill-opacity="1" /><path clip-path="url(#clip820)" d="M253.114 1481.64 L260.753 1481.64 L260.753 1455.28 L252.443 1456.95 L252.443 1452.69 L260.706 1451.02 L265.382 1451.02 L265.382 1481.64 L273.021 1481.64 L273.021 1485.58 L253.114 1485.58 L253.114 1481.64 Z" fill="#000000" fill-rule="nonzero" fill-opacity="1" /><path clip-path="url(#clip820)" d="M282.466 1479.7 L287.35 1479.7 L287.35 1485.58 L282.466 1485.58 L282.466 1479.7 Z" fill="#000000" fill-rule="nonzero" fill-opacity="1" /><path clip-path="url(#clip820)" d="M307.535 1454.1 Q303.924 1454.1 302.095 1457.66 Q300.29 1461.2 300.29 1468.33 Q300.29 1475.44 302.095 1479.01 Q303.924 1482.55 307.535 1482.55 Q311.169 1482.55 312.975 1479.01 Q314.803 1475.44 314.803 1468.33 Q314.803 1461.2 312.975 1457.66 Q311.169 1454.1 307.535 1454.1 M307.535 1450.39 Q313.345 1450.39 316.401 1455 Q319.479 1459.58 319.479 1468.33 Q319.479 1477.06 316.401 1481.67 Q313.345 1486.25 307.535 1486.25 Q301.725 1486.25 298.646 1481.67 Q295.591 1477.06 295.591 1468.33 Q295.591 1459.58 298.646 1455 Q301.725 1450.39 307.535 1450.39 Z" fill="#000000" fill-rule="nonzero" fill-opacity="1" /><path clip-path="url(#clip820)" d="M337.697 1454.1 Q334.086 1454.1 332.257 1457.66 Q330.451 1461.2 330.451 1468.33 Q330.451 1475.44 332.257 1479.01 Q334.086 1482.55 337.697 1482.55 Q341.331 1482.55 343.137 1479.01 Q344.965 1475.44 344.965 1468.33 Q344.965 1461.2 343.137 1457.66 Q341.331 1454.1 337.697 1454.1 M337.697 1450.39 Q343.507 1450.39 346.562 1455 Q349.641 1459.58 349.641 1468.33 Q349.641 1477.06 346.562 1481.67 Q343.507 1486.25 337.697 1486.25 Q331.887 1486.25 328.808 1481.67 Q325.752 1477.06 325.752 1468.33 Q325.752 1459.58 328.808 1455 Q331.887 1450.39 337.697 1450.39 Z" fill="#000000" fill-rule="nonzero" fill-opacity="1" /><path clip-path="url(#clip820)" d="M989.908 1468.75 L1019.58 1468.75 L1019.58 1472.69 L989.908 1472.69 L989.908 1468.75 Z" fill="#000000" fill-rule="nonzero" fill-opacity="1" /><path clip-path="url(#clip820)" d="M1039.68 1454.1 Q1036.07 1454.1 1034.24 1457.66 Q1032.43 1461.2 1032.43 1468.33 Q1032.43 1475.44 1034.24 1479.01 Q1036.07 1482.55 1039.68 1482.55 Q1043.31 1482.55 1045.12 1479.01 Q1046.95 1475.44 1046.95 1468.33 Q1046.95 1461.2 1045.12 1457.66 Q1043.31 1454.1 1039.68 1454.1 M1039.68 1450.39 Q1045.49 1450.39 1048.54 1455 Q1051.62 1459.58 1051.62 1468.33 Q1051.62 1477.06 1048.54 1481.67 Q1045.49 1486.25 1039.68 1486.25 Q1033.87 1486.25 1030.79 1481.67 Q1027.73 1477.06 1027.73 1468.33 Q1027.73 1459.58 1030.79 1455 Q1033.87 1450.39 1039.68 1450.39 Z" fill="#000000" fill-rule="nonzero" fill-opacity="1" /><path clip-path="url(#clip820)" d="M1059.84 1479.7 L1064.72 1479.7 L1064.72 1485.58 L1059.84 1485.58 L1059.84 1479.7 Z" fill="#000000" fill-rule="nonzero" fill-opacity="1" /><path clip-path="url(#clip820)" d="M1078.94 1481.64 L1095.26 1481.64 L1095.26 1485.58 L1073.31 1485.58 L1073.31 1481.64 Q1075.97 1478.89 1080.56 1474.26 Q1085.16 1469.61 1086.34 1468.27 Q1088.59 1465.74 1089.47 1464.01 Q1090.37 1462.25 1090.37 1460.56 Q1090.37 1457.8 1088.43 1456.07 Q1086.51 1454.33 1083.4 1454.33 Q1081.2 1454.33 1078.75 1455.09 Q1076.32 1455.86 1073.54 1457.41 L1073.54 1452.69 Q1076.37 1451.55 1078.82 1450.97 Q1081.27 1450.39 1083.31 1450.39 Q1088.68 1450.39 1091.88 1453.08 Q1095.07 1455.77 1095.07 1460.26 Q1095.07 1462.39 1094.26 1464.31 Q1093.47 1466.2 1091.37 1468.8 Q1090.79 1469.47 1087.69 1472.69 Q1084.58 1475.88 1078.94 1481.64 Z" fill="#000000" fill-rule="nonzero" fill-opacity="1" /><path clip-path="url(#clip820)" d="M1105.12 1451.02 L1123.47 1451.02 L1123.47 1454.96 L1109.4 1454.96 L1109.4 1463.43 Q1110.42 1463.08 1111.44 1462.92 Q1112.45 1462.73 1113.47 1462.73 Q1119.26 1462.73 1122.64 1465.9 Q1126.02 1469.08 1126.02 1474.49 Q1126.02 1480.07 1122.55 1483.17 Q1119.07 1486.25 1112.76 1486.25 Q1110.58 1486.25 1108.31 1485.88 Q1106.07 1485.51 1103.66 1484.77 L1103.66 1480.07 Q1105.74 1481.2 1107.96 1481.76 Q1110.19 1482.32 1112.66 1482.32 Q1116.67 1482.32 1119 1480.21 Q1121.34 1478.1 1121.34 1474.49 Q1121.34 1470.88 1119 1468.77 Q1116.67 1466.67 1112.66 1466.67 Q1110.79 1466.67 1108.91 1467.08 Q1107.06 1467.5 1105.12 1468.38 L1105.12 1451.02 Z" fill="#000000" fill-rule="nonzero" fill-opacity="1" /><path clip-path="url(#clip820)" d="M1279.23 1454.1 Q1275.61 1454.1 1273.79 1457.66 Q1271.98 1461.2 1271.98 1468.33 Q1271.98 1475.44 1273.79 1479.01 Q1275.61 1482.55 1279.23 1482.55 Q1282.86 1482.55 1284.67 1479.01 Q1286.49 1475.44 1286.49 1468.33 Q1286.49 1461.2 1284.67 1457.66 Q1282.86 1454.1 1279.23 1454.1 M1279.23 1450.39 Q1285.04 1450.39 1288.09 1455 Q1291.17 1459.58 1291.17 1468.33 Q1291.17 1477.06 1288.09 1481.67 Q1285.04 1486.25 1279.23 1486.25 Q1273.42 1486.25 1270.34 1481.67 Q1267.28 1477.06 1267.28 1468.33 Q1267.28 1459.58 1270.34 1455 Q1273.42 1450.39 1279.23 1450.39 Z" fill="#000000" fill-rule="nonzero" fill-opacity="1" /><path clip-path="url(#clip820)" d="M1299.39 1479.7 L1304.27 1479.7 L1304.27 1485.58 L1299.39 1485.58 L1299.39 1479.7 Z" fill="#000000" fill-rule="nonzero" fill-opacity="1" /><path clip-path="url(#clip820)" d="M1324.46 1454.1 Q1320.85 1454.1 1319.02 1457.66 Q1317.21 1461.2 1317.21 1468.33 Q1317.21 1475.44 1319.02 1479.01 Q1320.85 1482.55 1324.46 1482.55 Q1328.09 1482.55 1329.9 1479.01 Q1331.73 1475.44 1331.73 1468.33 Q1331.73 1461.2 1329.9 1457.66 Q1328.09 1454.1 1324.46 1454.1 M1324.46 1450.39 Q1330.27 1450.39 1333.32 1455 Q1336.4 1459.58 1336.4 1468.33 Q1336.4 1477.06 1333.32 1481.67 Q1330.27 1486.25 1324.46 1486.25 Q1318.65 1486.25 1315.57 1481.67 Q1312.51 1477.06 1312.51 1468.33 Q1312.51 1459.58 1315.57 1455 Q1318.65 1450.39 1324.46 1450.39 Z" fill="#000000" fill-rule="nonzero" fill-opacity="1" /><path clip-path="url(#clip820)" d="M1354.62 1454.1 Q1351.01 1454.1 1349.18 1457.66 Q1347.37 1461.2 1347.37 1468.33 Q1347.37 1475.44 1349.18 1479.01 Q1351.01 1482.55 1354.62 1482.55 Q1358.25 1482.55 1360.06 1479.01 Q1361.89 1475.44 1361.89 1468.33 Q1361.89 1461.2 1360.06 1457.66 Q1358.25 1454.1 1354.62 1454.1 M1354.62 1450.39 Q1360.43 1450.39 1363.48 1455 Q1366.56 1459.58 1366.56 1468.33 Q1366.56 1477.06 1363.48 1481.67 Q1360.43 1486.25 1354.62 1486.25 Q1348.81 1486.25 1345.73 1481.67 Q1342.67 1477.06 1342.67 1468.33 Q1342.67 1459.58 1345.73 1455 Q1348.81 1450.39 1354.62 1450.39 Z" fill="#000000" fill-rule="nonzero" fill-opacity="1" /><path clip-path="url(#clip820)" d="M1538.68 1454.1 Q1535.07 1454.1 1533.24 1457.66 Q1531.44 1461.2 1531.44 1468.33 Q1531.44 1475.44 1533.24 1479.01 Q1535.07 1482.55 1538.68 1482.55 Q1542.32 1482.55 1544.12 1479.01 Q1545.95 1475.44 1545.95 1468.33 Q1545.95 1461.2 1544.12 1457.66 Q1542.32 1454.1 1538.68 1454.1 M1538.68 1450.39 Q1544.49 1450.39 1547.55 1455 Q1550.63 1459.58 1550.63 1468.33 Q1550.63 1477.06 1547.55 1481.67 Q1544.49 1486.25 1538.68 1486.25 Q1532.87 1486.25 1529.79 1481.67 Q1526.74 1477.06 1526.74 1468.33 Q1526.74 1459.58 1529.79 1455 Q1532.87 1450.39 1538.68 1450.39 Z" fill="#000000" fill-rule="nonzero" fill-opacity="1" /><path clip-path="url(#clip820)" d="M1558.84 1479.7 L1563.73 1479.7 L1563.73 1485.58 L1558.84 1485.58 L1558.84 1479.7 Z" fill="#000000" fill-rule="nonzero" fill-opacity="1" /><path clip-path="url(#clip820)" d="M1577.94 1481.64 L1594.26 1481.64 L1594.26 1485.58 L1572.32 1485.58 L1572.32 1481.64 Q1574.98 1478.89 1579.56 1474.26 Q1584.17 1469.61 1585.35 1468.27 Q1587.59 1465.74 1588.47 1464.01 Q1589.38 1462.25 1589.38 1460.56 Q1589.38 1457.8 1587.43 1456.07 Q1585.51 1454.33 1582.41 1454.33 Q1580.21 1454.33 1577.76 1455.09 Q1575.33 1455.86 1572.55 1457.41 L1572.55 1452.69 Q1575.37 1451.55 1577.82 1450.97 Q1580.28 1450.39 1582.32 1450.39 Q1587.69 1450.39 1590.88 1453.08 Q1594.07 1455.77 1594.07 1460.26 Q1594.07 1462.39 1593.26 1464.31 Q1592.48 1466.2 1590.37 1468.8 Q1589.79 1469.47 1586.69 1472.69 Q1583.59 1475.88 1577.94 1481.64 Z" fill="#000000" fill-rule="nonzero" fill-opacity="1" /><path clip-path="url(#clip820)" d="M1604.12 1451.02 L1622.48 1451.02 L1622.48 1454.96 L1608.4 1454.96 L1608.4 1463.43 Q1609.42 1463.08 1610.44 1462.92 Q1611.46 1462.73 1612.48 1462.73 Q1618.26 1462.73 1621.64 1465.9 Q1625.02 1469.08 1625.02 1474.49 Q1625.02 1480.07 1621.55 1483.17 Q1618.08 1486.25 1611.76 1486.25 Q1609.58 1486.25 1607.32 1485.88 Q1605.07 1485.51 1602.66 1484.77 L1602.66 1480.07 Q1604.75 1481.2 1606.97 1481.76 Q1609.19 1482.32 1611.67 1482.32 Q1615.67 1482.32 1618.01 1480.21 Q1620.35 1478.1 1620.35 1474.49 Q1620.35 1470.88 1618.01 1468.77 Q1615.67 1466.67 1611.67 1466.67 Q1609.79 1466.67 1607.92 1467.08 Q1606.07 1467.5 1604.12 1468.38 L1604.12 1451.02 Z" fill="#000000" fill-rule="nonzero" fill-opacity="1" /><path clip-path="url(#clip820)" d="M2304.83 1481.64 L2312.47 1481.64 L2312.47 1455.28 L2304.16 1456.95 L2304.16 1452.69 L2312.42 1451.02 L2317.1 1451.02 L2317.1 1481.64 L2324.74 1481.64 L2324.74 1485.58 L2304.83 1485.58 L2304.83 1481.64 Z" fill="#000000" fill-rule="nonzero" fill-opacity="1" /><path clip-path="url(#clip820)" d="M2334.18 1479.7 L2339.06 1479.7 L2339.06 1485.58 L2334.18 1485.58 L2334.18 1479.7 Z" fill="#000000" fill-rule="nonzero" fill-opacity="1" /><path clip-path="url(#clip820)" d="M2359.25 1454.1 Q2355.64 1454.1 2353.81 1457.66 Q2352 1461.2 2352 1468.33 Q2352 1475.44 2353.81 1479.01 Q2355.64 1482.55 2359.25 1482.55 Q2362.88 1482.55 2364.69 1479.01 Q2366.52 1475.44 2366.52 1468.33 Q2366.52 1461.2 2364.69 1457.66 Q2362.88 1454.1 2359.25 1454.1 M2359.25 1450.39 Q2365.06 1450.39 2368.11 1455 Q2371.19 1459.58 2371.19 1468.33 Q2371.19 1477.06 2368.11 1481.67 Q2365.06 1486.25 2359.25 1486.25 Q2353.44 1486.25 2350.36 1481.67 Q2347.3 1477.06 2347.3 1468.33 Q2347.3 1459.58 2350.36 1455 Q2353.44 1450.39 2359.25 1450.39 Z" fill="#000000" fill-rule="nonzero" fill-opacity="1" /><path clip-path="url(#clip820)" d="M2389.41 1454.1 Q2385.8 1454.1 2383.97 1457.66 Q2382.17 1461.2 2382.17 1468.33 Q2382.17 1475.44 2383.97 1479.01 Q2385.8 1482.55 2389.41 1482.55 Q2393.05 1482.55 2394.85 1479.01 Q2396.68 1475.44 2396.68 1468.33 Q2396.68 1461.2 2394.85 1457.66 Q2393.05 1454.1 2389.41 1454.1 M2389.41 1450.39 Q2395.22 1450.39 2398.28 1455 Q2401.36 1459.58 2401.36 1468.33 Q2401.36 1477.06 2398.28 1481.67 Q2395.22 1486.25 2389.41 1486.25 Q2383.6 1486.25 2380.52 1481.67 Q2377.47 1477.06 2377.47 1468.33 Q2377.47 1459.58 2380.52 1455 Q2383.6 1450.39 2389.41 1450.39 Z" fill="#000000" fill-rule="nonzero" fill-opacity="1" /><path clip-path="url(#clip820)" d="M1219.35 1532.4 L1247.17 1532.4 L1247.17 1537.74 L1225.14 1563.37 L1247.17 1563.37 L1247.17 1568.04 L1218.56 1568.04 L1218.56 1562.7 L1240.58 1537.07 L1219.35 1537.07 L1219.35 1532.4 Z" fill="#000000" fill-rule="nonzero" fill-opacity="1" /><path clip-path="url(#clip820)" d="M1276.29 1518.52 L1289.79 1518.52 L1289.79 1523.07 L1282.15 1523.07 L1282.15 1572.09 L1289.79 1572.09 L1289.79 1576.64 L1276.29 1576.64 L1276.29 1518.52 Z" fill="#000000" fill-rule="nonzero" fill-opacity="1" /><path clip-path="url(#clip820)" d="M1327.92 1533.76 L1327.92 1539.24 Q1325.44 1537.87 1322.92 1537.2 Q1320.44 1536.5 1317.89 1536.5 Q1312.2 1536.5 1309.04 1540.13 Q1305.89 1543.73 1305.89 1550.25 Q1305.89 1556.78 1309.04 1560.4 Q1312.2 1564 1317.89 1564 Q1320.44 1564 1322.92 1563.33 Q1325.44 1562.63 1327.92 1561.26 L1327.92 1566.68 Q1325.47 1567.82 1322.83 1568.39 Q1320.22 1568.97 1317.26 1568.97 Q1309.2 1568.97 1304.46 1563.91 Q1299.72 1558.85 1299.72 1550.25 Q1299.72 1541.53 1304.49 1536.53 Q1309.3 1531.54 1317.64 1531.54 Q1320.34 1531.54 1322.92 1532.11 Q1325.5 1532.65 1327.92 1533.76 Z" fill="#000000" fill-rule="nonzero" fill-opacity="1" /><path clip-path="url(#clip820)" d="M1365.86 1539.24 Q1368.05 1535.29 1371.11 1533.41 Q1374.17 1531.54 1378.3 1531.54 Q1383.87 1531.54 1386.9 1535.45 Q1389.92 1539.33 1389.92 1546.53 L1389.92 1568.04 L1384.03 1568.04 L1384.03 1546.72 Q1384.03 1541.59 1382.22 1539.11 Q1380.4 1536.63 1376.68 1536.63 Q1372.13 1536.63 1369.49 1539.65 Q1366.85 1542.68 1366.85 1547.9 L1366.85 1568.04 L1360.96 1568.04 L1360.96 1546.72 Q1360.96 1541.56 1359.14 1539.11 Q1357.33 1536.63 1353.54 1536.63 Q1349.05 1536.63 1346.41 1539.68 Q1343.77 1542.71 1343.77 1547.9 L1343.77 1568.04 L1337.88 1568.04 L1337.88 1532.4 L1343.77 1532.4 L1343.77 1537.93 Q1345.77 1534.66 1348.58 1533.1 Q1351.38 1531.54 1355.23 1531.54 Q1359.11 1531.54 1361.82 1533.51 Q1364.55 1535.48 1365.86 1539.24 Z" fill="#000000" fill-rule="nonzero" fill-opacity="1" /><path clip-path="url(#clip820)" d="M1415.29 1518.52 L1415.29 1576.64 L1401.79 1576.64 L1401.79 1572.09 L1409.4 1572.09 L1409.4 1523.07 L1401.79 1523.07 L1401.79 1518.52 L1415.29 1518.52 Z" fill="#000000" fill-rule="nonzero" fill-opacity="1" /><polyline clip-path="url(#clip820)" style="stroke:#000000; stroke-linecap:round; stroke-linejoin:round; stroke-width:4; stroke-opacity:1; fill:none" points="281.088,1423.18 281.088,887.244 "/>
<polyline clip-path="url(#clip820)" style="stroke:#000000; stroke-linecap:round; stroke-linejoin:round; stroke-width:4; stroke-opacity:1; fill:none" points="281.088,1396.7 299.986,1396.7 "/>
<polyline clip-path="url(#clip820)" style="stroke:#000000; stroke-linecap:round; stroke-linejoin:round; stroke-width:4; stroke-opacity:1; fill:none" points="281.088,1316.18 299.986,1316.18 "/>
<polyline clip-path="url(#clip820)" style="stroke:#000000; stroke-linecap:round; stroke-linejoin:round; stroke-width:4; stroke-opacity:1; fill:none" points="281.088,1235.66 299.986,1235.66 "/>
<polyline clip-path="url(#clip820)" style="stroke:#000000; stroke-linecap:round; stroke-linejoin:round; stroke-width:4; stroke-opacity:1; fill:none" points="281.088,1155.13 299.986,1155.13 "/>
<polyline clip-path="url(#clip820)" style="stroke:#000000; stroke-linecap:round; stroke-linejoin:round; stroke-width:4; stroke-opacity:1; fill:none" points="281.088,1074.61 299.986,1074.61 "/>
<polyline clip-path="url(#clip820)" style="stroke:#000000; stroke-linecap:round; stroke-linejoin:round; stroke-width:4; stroke-opacity:1; fill:none" points="281.088,994.087 299.986,994.087 "/>
<polyline clip-path="url(#clip820)" style="stroke:#000000; stroke-linecap:round; stroke-linejoin:round; stroke-width:4; stroke-opacity:1; fill:none" points="281.088,913.564 299.986,913.564 "/>
<path clip-path="url(#clip820)" d="M184.024 1397.15 L213.7 1397.15 L213.7 1401.09 L184.024 1401.09 L184.024 1397.15 Z" fill="#000000" fill-rule="nonzero" fill-opacity="1" /><path clip-path="url(#clip820)" d="M237.959 1395.35 Q241.315 1396.07 243.19 1398.34 Q245.088 1400.6 245.088 1403.94 Q245.088 1409.05 241.57 1411.85 Q238.051 1414.65 231.57 1414.65 Q229.394 1414.65 227.079 1414.21 Q224.787 1413.8 222.334 1412.94 L222.334 1408.43 Q224.278 1409.56 226.593 1410.14 Q228.908 1410.72 231.431 1410.72 Q235.829 1410.72 238.121 1408.98 Q240.436 1407.25 240.436 1403.94 Q240.436 1400.88 238.283 1399.17 Q236.153 1397.43 232.334 1397.43 L228.306 1397.43 L228.306 1393.59 L232.519 1393.59 Q235.968 1393.59 237.797 1392.22 Q239.625 1390.84 239.625 1388.24 Q239.625 1385.58 237.727 1384.17 Q235.852 1382.73 232.334 1382.73 Q230.412 1382.73 228.213 1383.15 Q226.014 1383.57 223.375 1384.45 L223.375 1380.28 Q226.037 1379.54 228.352 1379.17 Q230.69 1378.8 232.75 1378.8 Q238.074 1378.8 241.176 1381.23 Q244.278 1383.64 244.278 1387.76 Q244.278 1390.63 242.635 1392.62 Q240.991 1394.59 237.959 1395.35 Z" fill="#000000" fill-rule="nonzero" fill-opacity="1" /><path clip-path="url(#clip820)" d="M184.973 1316.63 L214.649 1316.63 L214.649 1320.57 L184.973 1320.57 L184.973 1316.63 Z" fill="#000000" fill-rule="nonzero" fill-opacity="1" /><path clip-path="url(#clip820)" d="M228.769 1329.53 L245.088 1329.53 L245.088 1333.46 L223.144 1333.46 L223.144 1329.53 Q225.806 1326.77 230.389 1322.14 Q234.996 1317.49 236.176 1316.15 Q238.422 1313.62 239.301 1311.89 Q240.204 1310.13 240.204 1308.44 Q240.204 1305.68 238.26 1303.95 Q236.338 1302.21 233.237 1302.21 Q231.037 1302.21 228.584 1302.97 Q226.153 1303.74 223.375 1305.29 L223.375 1300.57 Q226.2 1299.43 228.653 1298.85 Q231.107 1298.28 233.144 1298.28 Q238.514 1298.28 241.709 1300.96 Q244.903 1303.65 244.903 1308.14 Q244.903 1310.27 244.093 1312.19 Q243.306 1314.09 241.199 1316.68 Q240.621 1317.35 237.519 1320.57 Q234.417 1323.76 228.769 1329.53 Z" fill="#000000" fill-rule="nonzero" fill-opacity="1" /><path clip-path="url(#clip820)" d="M184.603 1236.11 L214.278 1236.11 L214.278 1240.04 L184.603 1240.04 L184.603 1236.11 Z" fill="#000000" fill-rule="nonzero" fill-opacity="1" /><path clip-path="url(#clip820)" d="M225.181 1249 L232.82 1249 L232.82 1222.64 L224.51 1224.3 L224.51 1220.04 L232.774 1218.38 L237.449 1218.38 L237.449 1249 L245.088 1249 L245.088 1252.94 L225.181 1252.94 L225.181 1249 Z" fill="#000000" fill-rule="nonzero" fill-opacity="1" /><path clip-path="url(#clip820)" d="M233.144 1140.93 Q229.533 1140.93 227.704 1144.5 Q225.899 1148.04 225.899 1155.17 Q225.899 1162.27 227.704 1165.84 Q229.533 1169.38 233.144 1169.38 Q236.778 1169.38 238.584 1165.84 Q240.412 1162.27 240.412 1155.17 Q240.412 1148.04 238.584 1144.5 Q236.778 1140.93 233.144 1140.93 M233.144 1137.23 Q238.954 1137.23 242.01 1141.84 Q245.088 1146.42 245.088 1155.17 Q245.088 1163.9 242.01 1168.5 Q238.954 1173.09 233.144 1173.09 Q227.334 1173.09 224.255 1168.5 Q221.2 1163.9 221.2 1155.17 Q221.2 1146.42 224.255 1141.84 Q227.334 1137.23 233.144 1137.23 Z" fill="#000000" fill-rule="nonzero" fill-opacity="1" /><path clip-path="url(#clip820)" d="M225.181 1087.96 L232.82 1087.96 L232.82 1061.59 L224.51 1063.26 L224.51 1059 L232.774 1057.33 L237.449 1057.33 L237.449 1087.96 L245.088 1087.96 L245.088 1091.89 L225.181 1091.89 L225.181 1087.96 Z" fill="#000000" fill-rule="nonzero" fill-opacity="1" /><path clip-path="url(#clip820)" d="M228.769 1007.43 L245.088 1007.43 L245.088 1011.37 L223.144 1011.37 L223.144 1007.43 Q225.806 1004.68 230.389 1000.05 Q234.996 995.395 236.176 994.053 Q238.422 991.53 239.301 989.793 Q240.204 988.034 240.204 986.344 Q240.204 983.59 238.26 981.854 Q236.338 980.118 233.237 980.118 Q231.037 980.118 228.584 980.881 Q226.153 981.645 223.375 983.196 L223.375 978.474 Q226.2 977.34 228.653 976.761 Q231.107 976.182 233.144 976.182 Q238.514 976.182 241.709 978.868 Q244.903 981.553 244.903 986.043 Q244.903 988.173 244.093 990.094 Q243.306 991.993 241.199 994.585 Q240.621 995.256 237.519 998.474 Q234.417 1001.67 228.769 1007.43 Z" fill="#000000" fill-rule="nonzero" fill-opacity="1" /><path clip-path="url(#clip820)" d="M237.959 912.21 Q241.315 912.928 243.19 915.196 Q245.088 917.465 245.088 920.798 Q245.088 925.914 241.57 928.715 Q238.051 931.516 231.57 931.516 Q229.394 931.516 227.079 931.076 Q224.787 930.659 222.334 929.803 L222.334 925.289 Q224.278 926.423 226.593 927.002 Q228.908 927.58 231.431 927.58 Q235.829 927.58 238.121 925.844 Q240.436 924.108 240.436 920.798 Q240.436 917.742 238.283 916.029 Q236.153 914.293 232.334 914.293 L228.306 914.293 L228.306 910.451 L232.519 910.451 Q235.968 910.451 237.797 909.085 Q239.625 907.696 239.625 905.104 Q239.625 902.442 237.727 901.03 Q235.852 899.594 232.334 899.594 Q230.412 899.594 228.213 900.011 Q226.014 900.428 223.375 901.307 L223.375 897.141 Q226.037 896.4 228.352 896.03 Q230.69 895.659 232.75 895.659 Q238.074 895.659 241.176 898.09 Q244.278 900.497 244.278 904.618 Q244.278 907.488 242.635 909.479 Q240.991 911.446 237.959 912.21 Z" fill="#000000" fill-rule="nonzero" fill-opacity="1" /><polyline clip-path="url(#clip823)" style="stroke:#009af9; stroke-linecap:round; stroke-linejoin:round; stroke-width:6; stroke-opacity:1; fill:none" points="281.088,905.655 291.447,905.399 301.805,905.182 312.163,904.934 322.522,904.529 332.88,903.135 343.238,1161.72 353.597,1159.04 363.955,1158.54 374.313,1158.26 384.672,1158.04 395.03,1157.8 405.388,1157.42 415.747,1156.26 426.105,909.919 436.463,905.998 446.822,905.441 457.18,905.153 467.538,904.924 477.897,904.678 488.255,904.309 498.613,903.282 508.972,1164.38 519.33,1158.84 529.688,1158.24 540.047,1157.93 550.405,1157.69 560.763,1157.42 571.122,1157.01 581.48,1155.68 591.838,908.535 602.197,905.537 612.555,905.006 622.913,904.717 633.272,904.486 643.63,904.245 653.988,903.921 664.347,903.233 674.705,1397.23 685.063,1158.63 695.422,1157.72 705.78,1157.31 716.139,1156.96 726.497,1156.45 736.855,1154.69 747.214,907.048 757.572,904.898 767.93,904.393 778.289,904.1 788.647,903.868 799.005,903.652 809.364,903.424 819.722,903.156 830.08,902.786 840.439,1408.01 850.797,1400.67 861.155,1156.43 871.514,1150.65 881.872,905.404 892.23,904.002 902.589,903.454 912.947,903.076 923.305,902.746 933.664,902.412 944.022,1407.97 954.38,1407.4 964.739,1405.72 975.097,1157.57 985.455,1155.2 995.814,1154.46 1006.17,1153.87 1016.53,1153.29 1026.89,1152.69 1037.25,1152.07 1047.61,1151.44 1057.96,1150.86 1068.32,1150.35 1078.68,1149.95 1089.04,1149.72 1099.4,1149.68 1109.76,1149.85 1120.11,1150.23 1130.47,1150.8 1140.83,1151.5 1151.19,1152.29 1161.55,1153.12 1171.91,1153.92 1182.26,1154.65 1192.62,1155.3 1202.98,1155.85 1213.34,1156.31 1223.7,1156.7 1234.06,1157.02 1244.41,1157.31 1254.77,1157.59 1265.13,1157.88 1275.49,1158.19 1285.85,1158.54 1296.21,1158.91 1306.56,1159.31 1316.92,1159.72 1327.28,1160.13 1337.64,1160.52 1348,1160.89 1358.36,1161.23 1368.71,1161.54 1379.07,1161.83 1389.43,1162.11 1399.79,1162.4 1410.15,1162.73 1420.51,1163.12 1430.86,1163.6 1441.22,1164.16 1451.58,1164.83 1461.94,1165.58 1472.3,1166.38 1482.66,1167.2 1493.01,1167.99 1503.37,1168.67 1513.73,1169.21 1524.09,1169.56 1534.45,1169.7 1544.81,1169.63 1555.16,1169.37 1565.52,1168.96 1575.88,1168.43 1586.24,1167.84 1596.6,1167.22 1606.96,1166.6 1617.31,1166 1627.67,1165.42 1638.03,1164.82 1648.39,1164.02 1658.75,1160.21 1669.11,913.148 1679.46,911.865 1689.82,911.343 1700.18,910.968 1710.54,910.638 1720.9,910.304 1731.26,909.912 1741.61,909.313 1751.97,907.489 1762.33,1166.34 1772.69,1162.5 1783.05,914.582 1793.41,911.204 1803.76,910.579 1814.12,910.232 1824.48,909.972 1834.84,909.748 1845.2,909.531 1855.56,909.294 1865.91,908.984 1876.27,908.409 1886.63,904.933 1896.99,1164.12 1907.35,1162.82 1917.71,1162.36 1928.06,1162.01 1938.42,1161.57 1948.78,1160.43 1959.14,914.365 1969.5,910.038 1979.86,909.452 1990.21,909.148 2000.57,908.913 2010.93,908.677 2021.29,908.371 2031.65,907.755 2042.01,1407.81 2052.36,1163.3 2062.72,1162.28 2073.08,1161.91 2083.44,1161.65 2093.8,1161.4 2104.16,1161.08 2114.51,1160.36 2124.87,1137.21 2135.23,909.872 2145.59,909.052 2155.95,908.714 2166.31,908.474 2176.66,908.242 2187.02,907.935 2197.38,907.281 2207.74,1403.54 2218.1,1162.78 2228.46,1161.88 2238.81,1161.54 2249.17,1161.3 2259.53,1161.08 2269.89,1160.79 2280.25,1160.21 2290.61,1155.26 2300.96,909.874 2311.32,908.82 2321.68,908.456 2332.04,908.218 2342.4,908 2352.76,907.73 "/>
<path clip-path="url(#clip820)" d="M1942.48 1199 L2283.7 1199 L2283.7 1095.32 L1942.48 1095.32  Z" fill="#ffffff" fill-rule="evenodd" fill-opacity="1"/>
<polyline clip-path="url(#clip820)" style="stroke:#000000; stroke-linecap:round; stroke-linejoin:round; stroke-width:4; stroke-opacity:1; fill:none" points="1942.48,1199 2283.7,1199 2283.7,1095.32 1942.48,1095.32 1942.48,1199 "/>
<polyline clip-path="url(#clip820)" style="stroke:#009af9; stroke-linecap:round; stroke-linejoin:round; stroke-width:6; stroke-opacity:1; fill:none" points="1965.5,1147.16 2103.61,1147.16 "/>
<path clip-path="url(#clip820)" d="M2159.83 1159.76 L2159.83 1164.44 L2126.63 1164.44 L2148.69 1129.88 L2154.29 1129.88 L2135.29 1159.76 L2159.83 1159.76 Z" fill="#000000" fill-rule="nonzero" fill-opacity="1" /><path clip-path="url(#clip820)" d="M2169.73 1129.88 L2176.7 1129.88 L2185.52 1153.39 L2194.39 1129.88 L2201.35 1129.88 L2201.35 1164.44 L2196.79 1164.44 L2196.79 1134.09 L2187.88 1157.79 L2183.18 1157.79 L2174.27 1134.09 L2174.27 1164.44 L2169.73 1164.44 L2169.73 1129.88 Z" fill="#000000" fill-rule="nonzero" fill-opacity="1" /><path clip-path="url(#clip820)" d="M2232 1138.51 L2222.63 1151.13 L2232.49 1164.44 L2227.46 1164.44 L2219.92 1154.25 L2212.37 1164.44 L2207.35 1164.44 L2217.42 1150.87 L2208.21 1138.51 L2213.23 1138.51 L2220.1 1147.75 L2226.98 1138.51 L2232 1138.51 Z" fill="#000000" fill-rule="nonzero" fill-opacity="1" /><path clip-path="url(#clip820)" d="M2249.29 1166.84 Q2247.49 1171.47 2245.77 1172.89 Q2244.06 1174.3 2241.19 1174.3 L2237.79 1174.3 L2237.79 1170.73 L2240.29 1170.73 Q2242.05 1170.73 2243.02 1169.9 Q2243.99 1169.07 2245.17 1165.96 L2245.94 1164.02 L2235.45 1138.51 L2239.96 1138.51 L2248.07 1158.79 L2256.17 1138.51 L2260.68 1138.51 L2249.29 1166.84 Z" fill="#000000" fill-rule="nonzero" fill-opacity="1" /><path clip-path="url(#clip820)" d="M281.088 80 L2352.76 80 L2352.76 0 L281.088 0  Z" fill="#ffffff" fill-rule="evenodd" fill-opacity="1"/>
<path clip-path="url(#clip820)" d="M413.27 16.0925 L413.27 25.2128 Q407.945 22.6665 403.223 21.4166 Q398.501 20.1666 394.103 20.1666 Q386.464 20.1666 382.297 23.1295 Q378.177 26.0925 378.177 31.5554 Q378.177 36.1387 380.909 38.4998 Q383.686 40.8146 391.372 42.2498 L397.02 43.4072 Q407.483 45.3979 412.436 50.4442 Q417.436 55.4441 417.436 63.87 Q417.436 73.9163 410.677 79.1014 Q403.964 84.2866 390.955 84.2866 Q386.047 84.2866 380.492 83.1755 Q374.983 82.0644 369.057 79.8885 L369.057 70.2589 Q374.751 73.4533 380.214 75.0737 Q385.677 76.694 390.955 76.694 Q398.964 76.694 403.316 73.5459 Q407.668 70.3978 407.668 64.5645 Q407.668 59.4719 404.52 56.6015 Q401.418 53.7312 394.288 52.296 L388.594 51.1849 Q378.131 49.1016 373.455 44.6572 Q368.779 40.2127 368.779 32.2961 Q368.779 23.1295 375.214 17.8518 Q381.696 12.574 393.038 12.574 Q397.899 12.574 402.946 13.4536 Q407.992 14.3333 413.27 16.0925 Z" fill="#000000" fill-rule="nonzero" fill-opacity="1" /><path clip-path="url(#clip820)" d="M431.649 10.9073 L440.168 10.9073 L440.168 82.944 L431.649 82.944 L431.649 10.9073 Z" fill="#000000" fill-rule="nonzero" fill-opacity="1" /><path clip-path="url(#clip820)" d="M457.992 31.0924 L466.51 31.0924 L466.51 82.944 L457.992 82.944 L457.992 31.0924 M457.992 10.9073 L466.51 10.9073 L466.51 21.6943 L457.992 21.6943 L457.992 10.9073 Z" fill="#000000" fill-rule="nonzero" fill-opacity="1" /><path clip-path="url(#clip820)" d="M521.649 33.0832 L521.649 41.0461 Q518.037 39.0553 514.38 38.0831 Q510.769 37.0646 507.065 37.0646 Q498.778 37.0646 494.195 42.3424 Q489.612 47.5738 489.612 57.0645 Q489.612 66.5552 494.195 71.8329 Q498.778 77.0644 507.065 77.0644 Q510.769 77.0644 514.38 76.0922 Q518.037 75.0737 521.649 73.0829 L521.649 80.9533 Q518.084 82.6199 514.241 83.4533 Q510.445 84.2866 506.139 84.2866 Q494.427 84.2866 487.528 76.9255 Q480.63 69.5644 480.63 57.0645 Q480.63 44.3794 487.575 37.1109 Q494.565 29.8424 506.695 29.8424 Q510.63 29.8424 514.38 30.6758 Q518.13 31.4628 521.649 33.0832 Z" fill="#000000" fill-rule="nonzero" fill-opacity="1" /><path clip-path="url(#clip820)" d="M580.815 54.8886 L580.815 59.0552 L541.648 59.0552 Q542.204 67.8515 546.926 72.4811 Q551.695 77.0644 560.167 77.0644 Q565.074 77.0644 569.658 75.8607 Q574.287 74.657 578.824 72.2496 L578.824 80.3051 Q574.241 82.2496 569.426 83.2681 Q564.611 84.2866 559.658 84.2866 Q547.25 84.2866 539.982 77.0644 Q532.76 69.8422 532.76 57.5275 Q532.76 44.7961 539.611 37.3424 Q546.51 29.8424 558.176 29.8424 Q568.639 29.8424 574.704 36.6017 Q580.815 43.3146 580.815 54.8886 M572.296 52.3886 Q572.204 45.3979 568.361 41.2313 Q564.565 37.0646 558.269 37.0646 Q551.139 37.0646 546.834 41.0924 Q542.574 45.1201 541.926 52.4349 L572.296 52.3886 Z" fill="#000000" fill-rule="nonzero" fill-opacity="1" /><path clip-path="url(#clip820)" d="M633.176 75.1663 L633.176 102.666 L624.611 102.666 L624.611 31.0924 L633.176 31.0924 L633.176 38.9628 Q635.861 34.3331 639.935 32.1109 Q644.055 29.8424 649.75 29.8424 Q659.194 29.8424 665.074 37.3424 Q671 44.8424 671 57.0645 Q671 69.2867 665.074 76.7866 Q659.194 84.2866 649.75 84.2866 Q644.055 84.2866 639.935 82.0644 Q635.861 79.7959 633.176 75.1663 M662.157 57.0645 Q662.157 47.6664 658.268 42.3424 Q654.426 36.972 647.666 36.972 Q640.907 36.972 637.018 42.3424 Q633.176 47.6664 633.176 57.0645 Q633.176 66.4626 637.018 71.8329 Q640.907 77.157 647.666 77.157 Q654.426 77.157 658.268 71.8329 Q662.157 66.4626 662.157 57.0645 Z" fill="#000000" fill-rule="nonzero" fill-opacity="1" /><path clip-path="url(#clip820)" d="M715.166 39.0553 Q713.731 38.222 712.018 37.8516 Q710.351 37.435 708.314 37.435 Q701.092 37.435 697.203 42.1572 Q693.361 46.8331 693.361 55.6293 L693.361 82.944 L684.796 82.944 L684.796 31.0924 L693.361 31.0924 L693.361 39.1479 Q696.046 34.4257 700.351 32.1572 Q704.657 29.8424 710.814 29.8424 Q711.694 29.8424 712.759 29.9813 Q713.823 30.0739 715.12 30.3054 L715.166 39.0553 Z" fill="#000000" fill-rule="nonzero" fill-opacity="1" /><path clip-path="url(#clip820)" d="M742.11 37.0646 Q735.259 37.0646 731.277 42.435 Q727.296 47.759 727.296 57.0645 Q727.296 66.37 731.231 71.7404 Q735.212 77.0644 742.11 77.0644 Q748.916 77.0644 752.897 71.6941 Q756.879 66.3237 756.879 57.0645 Q756.879 47.8516 752.897 42.4813 Q748.916 37.0646 742.11 37.0646 M742.11 29.8424 Q753.221 29.8424 759.564 37.0646 Q765.907 44.2868 765.907 57.0645 Q765.907 69.7959 759.564 77.0644 Q753.221 84.2866 742.11 84.2866 Q730.953 84.2866 724.61 77.0644 Q718.314 69.7959 718.314 57.0645 Q718.314 44.2868 724.61 37.0646 Q730.953 29.8424 742.11 29.8424 Z" fill="#000000" fill-rule="nonzero" fill-opacity="1" /><path clip-path="url(#clip820)" d="M806.277 10.9073 L806.277 17.9906 L798.129 17.9906 Q793.545 17.9906 791.74 19.8425 Q789.98 21.6943 789.98 26.5091 L789.98 31.0924 L804.008 31.0924 L804.008 37.7128 L789.98 37.7128 L789.98 82.944 L781.416 82.944 L781.416 37.7128 L773.268 37.7128 L773.268 31.0924 L781.416 31.0924 L781.416 27.4813 Q781.416 18.824 785.443 14.8888 Q789.471 10.9073 798.221 10.9073 L806.277 10.9073 Z" fill="#000000" fill-rule="nonzero" fill-opacity="1" /><path clip-path="url(#clip820)" d="M813.406 31.0924 L821.925 31.0924 L821.925 82.944 L813.406 82.944 L813.406 31.0924 M813.406 10.9073 L821.925 10.9073 L821.925 21.6943 L813.406 21.6943 L813.406 10.9073 Z" fill="#000000" fill-rule="nonzero" fill-opacity="1" /><path clip-path="url(#clip820)" d="M839.749 10.9073 L848.267 10.9073 L848.267 82.944 L839.749 82.944 L839.749 10.9073 Z" fill="#000000" fill-rule="nonzero" fill-opacity="1" /><path clip-path="url(#clip820)" d="M910.443 54.8886 L910.443 59.0552 L871.276 59.0552 Q871.832 67.8515 876.554 72.4811 Q881.323 77.0644 889.795 77.0644 Q894.702 77.0644 899.285 75.8607 Q903.915 74.657 908.452 72.2496 L908.452 80.3051 Q903.869 82.2496 899.054 83.2681 Q894.239 84.2866 889.286 84.2866 Q876.878 84.2866 869.61 77.0644 Q862.388 69.8422 862.388 57.5275 Q862.388 44.7961 869.239 37.3424 Q876.137 29.8424 887.804 29.8424 Q898.267 29.8424 904.332 36.6017 Q910.443 43.3146 910.443 54.8886 M901.924 52.3886 Q901.832 45.3979 897.989 41.2313 Q894.193 37.0646 887.897 37.0646 Q880.767 37.0646 876.462 41.0924 Q872.202 45.1201 871.554 52.4349 L901.924 52.3886 Z" fill="#000000" fill-rule="nonzero" fill-opacity="1" /><path clip-path="url(#clip820)" d="M926.6 71.1848 L936.369 71.1848 L936.369 82.944 L926.6 82.944 L926.6 71.1848 M926.6 33.9165 L936.369 33.9165 L936.369 45.6757 L926.6 45.6757 L926.6 33.9165 Z" fill="#000000" fill-rule="nonzero" fill-opacity="1" /><path clip-path="url(#clip820)" d="M1028.31 16.0925 L1028.31 25.2128 Q1022.99 22.6665 1018.27 21.4166 Q1013.54 20.1666 1009.15 20.1666 Q1001.51 20.1666 997.34 23.1295 Q993.22 26.0925 993.22 31.5554 Q993.22 36.1387 995.952 38.4998 Q998.729 40.8146 1006.41 42.2498 L1012.06 43.4072 Q1022.53 45.3979 1027.48 50.4442 Q1032.48 55.4441 1032.48 63.87 Q1032.48 73.9163 1025.72 79.1014 Q1019.01 84.2866 1006 84.2866 Q1001.09 84.2866 995.535 83.1755 Q990.026 82.0644 984.1 79.8885 L984.1 70.2589 Q989.794 73.4533 995.257 75.0737 Q1000.72 76.694 1006 76.694 Q1014.01 76.694 1018.36 73.5459 Q1022.71 70.3978 1022.71 64.5645 Q1022.71 59.4719 1019.56 56.6015 Q1016.46 53.7312 1009.33 52.296 L1003.64 51.1849 Q993.174 49.1016 988.498 44.6572 Q983.822 40.2127 983.822 32.2961 Q983.822 23.1295 990.257 17.8518 Q996.739 12.574 1008.08 12.574 Q1012.94 12.574 1017.99 13.4536 Q1023.03 14.3333 1028.31 16.0925 Z" fill="#000000" fill-rule="nonzero" fill-opacity="1" /><path clip-path="url(#clip820)" d="M1047.06 13.824 L1056.41 13.824 L1056.41 75.0737 L1090.07 75.0737 L1090.07 82.944 L1047.06 82.944 L1047.06 13.824 Z" fill="#000000" fill-rule="nonzero" fill-opacity="1" /><path clip-path="url(#clip820)" d="M1132.66 50.5368 Q1135.67 51.5553 1138.5 54.8886 Q1141.37 58.2219 1144.24 64.0552 L1153.73 82.944 L1143.68 82.944 L1134.84 65.2126 Q1131.41 58.2682 1128.17 55.9997 Q1124.98 53.7312 1119.42 53.7312 L1109.24 53.7312 L1109.24 82.944 L1099.89 82.944 L1099.89 13.824 L1121 13.824 Q1132.85 13.824 1138.68 18.7777 Q1144.52 23.7314 1144.52 33.7313 Q1144.52 40.259 1141.46 44.5646 Q1138.45 48.8701 1132.66 50.5368 M1109.24 21.5091 L1109.24 46.046 L1121 46.046 Q1127.76 46.046 1131.18 42.9442 Q1134.65 39.7961 1134.65 33.7313 Q1134.65 27.6665 1131.18 24.611 Q1127.76 21.5091 1121 21.5091 L1109.24 21.5091 Z" fill="#000000" fill-rule="nonzero" fill-opacity="1" /><path clip-path="url(#clip820)" d="M1228.59 32.6202 L1228.59 40.6757 Q1224.98 38.8239 1221.09 37.8979 Q1217.2 36.972 1213.03 36.972 Q1206.69 36.972 1203.5 38.9165 Q1200.35 40.8609 1200.35 44.7498 Q1200.35 47.7127 1202.62 49.4257 Q1204.89 51.0923 1211.74 52.6201 L1214.65 53.2682 Q1223.73 55.2127 1227.52 58.7775 Q1231.37 62.296 1231.37 68.6385 Q1231.37 75.8607 1225.63 80.0736 Q1219.93 84.2866 1209.93 84.2866 Q1205.77 84.2866 1201.23 83.4533 Q1196.74 82.6662 1191.74 81.0459 L1191.74 72.2496 Q1196.46 74.7033 1201.04 75.9533 Q1205.63 77.157 1210.12 77.157 Q1216.14 77.157 1219.38 75.12 Q1222.62 73.0366 1222.62 69.2867 Q1222.62 65.8145 1220.26 63.9626 Q1217.94 62.1108 1210.02 60.3978 L1207.06 59.7034 Q1199.14 58.0367 1195.63 54.6108 Q1192.11 51.1386 1192.11 45.1201 Q1192.11 37.8054 1197.29 33.8239 Q1202.48 29.8424 1212.02 29.8424 Q1216.74 29.8424 1220.9 30.5369 Q1225.07 31.2313 1228.59 32.6202 Z" fill="#000000" fill-rule="nonzero" fill-opacity="1" /><path clip-path="url(#clip820)" d="M1253.36 16.3703 L1253.36 31.0924 L1270.9 31.0924 L1270.9 37.7128 L1253.36 37.7128 L1253.36 65.8608 Q1253.36 72.2033 1255.07 74.0089 Q1256.83 75.8144 1262.15 75.8144 L1270.9 75.8144 L1270.9 82.944 L1262.15 82.944 Q1252.29 82.944 1248.54 79.2866 Q1244.79 75.5829 1244.79 65.8608 L1244.79 37.7128 L1238.54 37.7128 L1238.54 31.0924 L1244.79 31.0924 L1244.79 16.3703 L1253.36 16.3703 Z" fill="#000000" fill-rule="nonzero" fill-opacity="1" /><path clip-path="url(#clip820)" d="M1312.25 10.9073 L1320.76 10.9073 L1320.76 82.944 L1312.25 82.944 L1312.25 10.9073 Z" fill="#000000" fill-rule="nonzero" fill-opacity="1" /><path clip-path="url(#clip820)" d="M1371.64 32.6202 L1371.64 40.6757 Q1368.03 38.8239 1364.14 37.8979 Q1360.26 36.972 1356.09 36.972 Q1349.75 36.972 1346.55 38.9165 Q1343.4 40.8609 1343.4 44.7498 Q1343.4 47.7127 1345.67 49.4257 Q1347.94 51.0923 1354.79 52.6201 L1357.71 53.2682 Q1366.78 55.2127 1370.58 58.7775 Q1374.42 62.296 1374.42 68.6385 Q1374.42 75.8607 1368.68 80.0736 Q1362.99 84.2866 1352.99 84.2866 Q1348.82 84.2866 1344.28 83.4533 Q1339.79 82.6662 1334.79 81.0459 L1334.79 72.2496 Q1339.51 74.7033 1344.1 75.9533 Q1348.68 77.157 1353.17 77.157 Q1359.19 77.157 1362.43 75.12 Q1365.67 73.0366 1365.67 69.2867 Q1365.67 65.8145 1363.31 63.9626 Q1361 62.1108 1353.08 60.3978 L1350.12 59.7034 Q1342.2 58.0367 1338.68 54.6108 Q1335.16 51.1386 1335.16 45.1201 Q1335.16 37.8054 1340.35 33.8239 Q1345.53 29.8424 1355.07 29.8424 Q1359.79 29.8424 1363.96 30.5369 Q1368.13 31.2313 1371.64 32.6202 Z" fill="#000000" fill-rule="nonzero" fill-opacity="1" /><path clip-path="url(#clip820)" d="M1390.16 71.1848 L1399.93 71.1848 L1399.93 79.1477 L1392.34 93.9625 L1386.37 93.9625 L1390.16 79.1477 L1390.16 71.1848 Z" fill="#000000" fill-rule="nonzero" fill-opacity="1" /><path clip-path="url(#clip820)" d="M1478.5 58.8238 L1476.46 48.1294 Q1474.37 37.1572 1466.13 37.1572 Q1459.93 37.1572 1457.11 42.2498 Q1453.54 48.6386 1453.54 57.0645 Q1453.54 67.2496 1457.01 72.1107 Q1460.53 77.0644 1466.13 77.0644 Q1472.34 77.0644 1475.67 67.2033 L1478.5 58.8238 M1483.26 44.6572 L1487.85 31.0924 L1495.44 31.0924 L1485.95 59.1941 L1487.8 69.333 Q1488.22 71.6015 1489.84 73.4996 Q1491.74 75.7218 1493.22 75.7218 L1497.29 75.7218 L1497.29 82.944 L1492.2 82.944 Q1487.85 82.944 1483.96 79.0551 Q1482.06 77.1107 1481.27 73.0366 Q1479.14 78.1755 1474.79 82.2033 Q1472.75 84.1014 1466.13 84.1014 Q1455.25 84.1014 1449.98 77.0644 Q1444.56 69.7959 1444.56 57.0645 Q1444.56 43.4535 1450.44 37.0646 Q1456.97 29.935 1466.13 29.935 Q1480.53 29.935 1483.26 44.6572 Z" fill="#000000" fill-rule="nonzero" fill-opacity="1" /><path clip-path="url(#clip820)" d="M1511.87 39.8887 L1571.23 39.8887 L1571.23 47.6664 L1511.87 47.6664 L1511.87 39.8887 M1511.87 58.7775 L1571.23 58.7775 L1571.23 66.6478 L1511.87 66.6478 L1511.87 58.7775 Z" fill="#000000" fill-rule="nonzero" fill-opacity="1" /><path clip-path="url(#clip820)" d="M1612.57 44.6572 Q1606.27 44.6572 1602.57 48.9627 Q1598.91 53.2682 1598.91 60.7682 Q1598.91 68.2219 1602.57 72.5737 Q1606.27 76.8792 1612.57 76.8792 Q1618.86 76.8792 1622.52 72.5737 Q1626.23 68.2219 1626.23 60.7682 Q1626.23 53.2682 1622.52 48.9627 Q1618.86 44.6572 1612.57 44.6572 M1631.13 15.3518 L1631.13 23.8702 Q1627.61 22.2036 1624 21.324 Q1620.44 20.4443 1616.92 20.4443 Q1607.66 20.4443 1602.75 26.6943 Q1597.89 32.9443 1597.2 45.5831 Q1599.93 41.5553 1604.05 39.4257 Q1608.17 37.2498 1613.12 37.2498 Q1623.54 37.2498 1629.56 43.5924 Q1635.62 49.8886 1635.62 60.7682 Q1635.62 71.4163 1629.33 77.8514 Q1623.03 84.2866 1612.57 84.2866 Q1600.58 84.2866 1594.24 75.12 Q1587.89 65.9071 1587.89 48.4534 Q1587.89 32.0646 1595.67 22.3425 Q1603.45 12.574 1616.55 12.574 Q1620.07 12.574 1623.63 13.2684 Q1627.24 13.9629 1631.13 15.3518 Z" fill="#000000" fill-rule="nonzero" fill-opacity="1" /><path clip-path="url(#clip820)" d="M1671.74 19.9814 Q1664.51 19.9814 1660.86 27.111 Q1657.24 34.1943 1657.24 48.4534 Q1657.24 62.6663 1660.86 69.7959 Q1664.51 76.8792 1671.74 76.8792 Q1679 76.8792 1682.61 69.7959 Q1686.27 62.6663 1686.27 48.4534 Q1686.27 34.1943 1682.61 27.111 Q1679 19.9814 1671.74 19.9814 M1671.74 12.574 Q1683.36 12.574 1689.47 21.7869 Q1695.62 30.9535 1695.62 48.4534 Q1695.62 65.9071 1689.47 75.12 Q1683.36 84.2866 1671.74 84.2866 Q1660.11 84.2866 1653.96 75.12 Q1647.85 65.9071 1647.85 48.4534 Q1647.85 30.9535 1653.96 21.7869 Q1660.11 12.574 1671.74 12.574 Z" fill="#000000" fill-rule="nonzero" fill-opacity="1" /><path clip-path="url(#clip820)" d="M1725.62 18.5462 Q1721.92 18.5462 1719.37 21.1388 Q1716.83 23.6851 1716.83 27.3887 Q1716.83 31.0461 1719.37 33.5924 Q1721.92 36.0924 1725.62 36.0924 Q1729.33 36.0924 1731.87 33.5924 Q1734.42 31.0461 1734.42 27.3887 Q1734.42 23.7314 1731.83 21.1388 Q1729.28 18.5462 1725.62 18.5462 M1725.62 12.574 Q1728.59 12.574 1731.32 13.7314 Q1734.05 14.8425 1736.04 16.9721 Q1738.17 19.0555 1739.23 21.6943 Q1740.3 24.3332 1740.3 27.3887 Q1740.3 33.4998 1735.99 37.7591 Q1731.73 41.972 1725.53 41.972 Q1719.28 41.972 1715.11 37.8054 Q1710.95 33.6387 1710.95 27.3887 Q1710.95 21.1851 1715.21 16.8795 Q1719.47 12.574 1725.62 12.574 Z" fill="#000000" fill-rule="nonzero" fill-opacity="1" /><path clip-path="url(#clip820)" d="M1779.19 13.824 L1837.66 13.824 L1837.66 21.6943 L1813.12 21.6943 L1813.12 82.944 L1803.73 82.944 L1803.73 21.6943 L1779.19 21.6943 L1779.19 13.824 Z" fill="#000000" fill-rule="nonzero" fill-opacity="1" /><path clip-path="url(#clip820)" d="M1855.58 75.0737 L1888.22 75.0737 L1888.22 82.944 L1844.33 82.944 L1844.33 75.0737 Q1849.65 69.5644 1858.82 60.3052 Q1868.03 50.9997 1870.39 48.3146 Q1874.88 43.2683 1876.64 39.7961 Q1878.45 36.2776 1878.45 32.898 Q1878.45 27.3887 1874.56 23.9165 Q1870.72 20.4443 1864.51 20.4443 Q1860.11 20.4443 1855.21 21.9721 Q1850.35 23.4999 1844.79 26.6017 L1844.79 17.1573 Q1850.44 14.8888 1855.35 13.7314 Q1860.25 12.574 1864.33 12.574 Q1875.07 12.574 1881.46 17.9443 Q1887.84 23.3147 1887.84 32.2961 Q1887.84 36.5554 1886.22 40.3979 Q1884.65 44.1942 1880.44 49.3794 Q1879.28 50.722 1873.08 57.1571 Q1866.87 63.546 1855.58 75.0737 Z" fill="#000000" fill-rule="nonzero" fill-opacity="1" /><path clip-path="url(#clip820)" d="M1907.75 39.8887 L1967.1 39.8887 L1967.1 47.6664 L1907.75 47.6664 L1907.75 39.8887 M1907.75 58.7775 L1967.1 58.7775 L1967.1 66.6478 L1907.75 66.6478 L1907.75 58.7775 Z" fill="#000000" fill-rule="nonzero" fill-opacity="1" /><path clip-path="url(#clip820)" d="M2007.29 50.1201 Q2000.62 50.1201 1996.78 53.6849 Q1992.98 57.2497 1992.98 63.4997 Q1992.98 69.7496 1996.78 73.3144 Q2000.62 76.8792 2007.29 76.8792 Q2013.96 76.8792 2017.8 73.3144 Q2021.64 69.7033 2021.64 63.4997 Q2021.64 57.2497 2017.8 53.6849 Q2014 50.1201 2007.29 50.1201 M1997.94 46.1386 Q1991.92 44.6572 1988.54 40.5368 Q1985.21 36.4165 1985.21 30.4906 Q1985.21 22.2036 1991.09 17.3888 Q1997.01 12.574 2007.29 12.574 Q2017.61 12.574 2023.49 17.3888 Q2029.37 22.2036 2029.37 30.4906 Q2029.37 36.4165 2025.99 40.5368 Q2022.66 44.6572 2016.69 46.1386 Q2023.45 47.7127 2027.2 52.296 Q2030.99 56.8793 2030.99 63.4997 Q2030.99 73.5459 2024.83 78.9162 Q2018.72 84.2866 2007.29 84.2866 Q1995.85 84.2866 1989.7 78.9162 Q1983.59 73.5459 1983.59 63.4997 Q1983.59 56.8793 1987.38 52.296 Q1991.18 47.7127 1997.94 46.1386 M1994.51 31.3702 Q1994.51 36.7405 1997.84 39.7498 Q2001.22 42.759 2007.29 42.759 Q2013.31 42.759 2016.69 39.7498 Q2020.11 36.7405 2020.11 31.3702 Q2020.11 25.9999 2016.69 22.9906 Q2013.31 19.9814 2007.29 19.9814 Q2001.22 19.9814 1997.84 22.9906 Q1994.51 25.9999 1994.51 31.3702 Z" fill="#000000" fill-rule="nonzero" fill-opacity="1" /><path clip-path="url(#clip820)" d="M2067.61 19.9814 Q2060.39 19.9814 2056.73 27.111 Q2053.12 34.1943 2053.12 48.4534 Q2053.12 62.6663 2056.73 69.7959 Q2060.39 76.8792 2067.61 76.8792 Q2074.88 76.8792 2078.49 69.7959 Q2082.15 62.6663 2082.15 48.4534 Q2082.15 34.1943 2078.49 27.111 Q2074.88 19.9814 2067.61 19.9814 M2067.61 12.574 Q2079.23 12.574 2085.34 21.7869 Q2091.5 30.9535 2091.5 48.4534 Q2091.5 65.9071 2085.34 75.12 Q2079.23 84.2866 2067.61 84.2866 Q2055.99 84.2866 2049.83 75.12 Q2043.72 65.9071 2043.72 48.4534 Q2043.72 30.9535 2049.83 21.7869 Q2055.99 12.574 2067.61 12.574 Z" fill="#000000" fill-rule="nonzero" fill-opacity="1" /><path clip-path="url(#clip820)" d="M2177.24 41.0461 Q2180.44 35.3054 2184.88 32.5739 Q2189.32 29.8424 2195.34 29.8424 Q2203.45 29.8424 2207.84 35.5368 Q2212.24 41.185 2212.24 51.6479 L2212.24 82.944 L2203.68 82.944 L2203.68 51.9256 Q2203.68 44.472 2201.04 40.8609 Q2198.4 37.2498 2192.98 37.2498 Q2186.36 37.2498 2182.52 41.6479 Q2178.68 46.046 2178.68 53.6386 L2178.68 82.944 L2170.11 82.944 L2170.11 51.9256 Q2170.11 44.4257 2167.47 40.8609 Q2164.83 37.2498 2159.33 37.2498 Q2152.8 37.2498 2148.95 41.6942 Q2145.11 46.0923 2145.11 53.6386 L2145.11 82.944 L2136.55 82.944 L2136.55 31.0924 L2145.11 31.0924 L2145.11 39.1479 Q2148.03 34.3794 2152.1 32.1109 Q2156.18 29.8424 2161.78 29.8424 Q2167.43 29.8424 2171.36 32.7128 Q2175.34 35.5831 2177.24 41.0461 Z" fill="#000000" fill-rule="nonzero" fill-opacity="1" /><path clip-path="url(#clip820)" d="M2262.29 32.6202 L2262.29 40.6757 Q2258.68 38.8239 2254.79 37.8979 Q2250.9 36.972 2246.73 36.972 Q2240.39 36.972 2237.19 38.9165 Q2234.05 40.8609 2234.05 44.7498 Q2234.05 47.7127 2236.32 49.4257 Q2238.58 51.0923 2245.44 52.6201 L2248.35 53.2682 Q2257.43 55.2127 2261.22 58.7775 Q2265.07 62.296 2265.07 68.6385 Q2265.07 75.8607 2259.32 80.0736 Q2253.63 84.2866 2243.63 84.2866 Q2239.46 84.2866 2234.93 83.4533 Q2230.44 82.6662 2225.44 81.0459 L2225.44 72.2496 Q2230.16 74.7033 2234.74 75.9533 Q2239.32 77.157 2243.82 77.157 Q2249.83 77.157 2253.07 75.12 Q2256.32 73.0366 2256.32 69.2867 Q2256.32 65.8145 2253.95 63.9626 Q2251.64 62.1108 2243.72 60.3978 L2240.76 59.7034 Q2232.84 58.0367 2229.32 54.6108 Q2225.81 51.1386 2225.81 45.1201 Q2225.81 37.8054 2230.99 33.8239 Q2236.18 29.8424 2245.71 29.8424 Q2250.44 29.8424 2254.6 30.5369 Q2258.77 31.2313 2262.29 32.6202 Z" fill="#000000" fill-rule="nonzero" fill-opacity="1" /></svg>
